<svg viewBox="0 0 24 24" fill="none" xmlns="http://www.w3.org/2000/svg">





<g transform="matrix(0.5,0,0,0.5,0,0)"><path d="M46 6.5C46 5.11929 44.8807 4 43.5 4H40.1231C38.2877 4 36.6877 5.24919 36.2426 7.02986L35 12H8.00002C5.79088 12 4.08006 13.7876 4.3483 15.9804C4.56668 17.7655 4.92197 20.2243 5.50002 23.5C7.00002 32 9.00002 35 9.00002 35C9.00002 35 11.2222 36 21.1111 36C31 36 34.2222 35 34.2222 35C34.2222 35 36 30.5 38.1111 22C39.125 17.9179 40.3886 11.9353 40.8347 9.7965C40.9317 9.33185 41.3407 9 41.8153 9H43.5C44.8807 9 46 7.88071 46 6.5V6.5Z" fill="#91BEFF"></path><path d="M17 38C17 41.3137 14.3137 44 11 44C7.68629 44 5 41.3137 5 38C5 34.6863 7.68629 32 11 32C14.3137 32 17 34.6863 17 38Z" fill="#1F78F0"></path><path d="M38 38C38 41.3137 35.3137 44 32 44C28.6863 44 26 41.3137 26 38C26 34.6863 28.6863 32 32 32C35.3137 32 38 34.6863 38 38Z" fill="#1F78F0"></path><path d="M15.2188 21.1881C15.1017 20.0166 16.0216 19 17.199 19V19C18.2214 19 19.0775 19.7747 19.1792 20.7921L19.7812 26.8119C19.8983 27.9834 18.9784 29 17.801 29V29C16.7786 29 15.9225 28.2253 15.8208 27.2079L15.2188 21.1881Z" fill="#1F78F0"></path><path d="M24.8208 20.7921C24.9225 19.7747 25.7786 19 26.801 19V19C27.9784 19 28.8983 20.0166 28.7812 21.1881L28.1792 27.2079C28.0775 28.2253 27.2214 29 26.199 29V29C25.0216 29 24.1017 27.9834 24.2188 26.8119L24.8208 20.7921Z" fill="#1F78F0"></path></g></svg>