<svg viewBox="0 0 24 24" fill="none" xmlns="http://www.w3.org/2000/svg">




<g transform="matrix(0.5,0,0,0.5,0,0)"><path fill-rule="evenodd" clip-rule="evenodd" d="M34.9216 37.242C34.9419 36.6386 35.2325 36.079 35.6913 35.6867C39.5525 32.3852 42 27.4784 42 22C42 12.0589 33.9411 4 24 4C14.0589 4 6 12.0589 6 22C6 27.4784 8.44747 32.3852 12.3087 35.6867C12.7675 36.079 13.0581 36.6386 13.0784 37.242C13.1469 39.2761 13.249 40.6245 13.3383 41.4831C13.4259 42.3266 13.9623 43.0085 14.7859 43.2104C16.2041 43.5579 18.9924 44 24 44C29.0076 44 31.7959 43.5579 33.2141 43.2104C34.0377 43.0085 34.5741 42.3266 34.6617 41.4831C34.751 40.6245 34.8531 39.2761 34.9216 37.242Z" fill="#91BEFF"></path><circle cx="31" cy="22" r="4" transform="rotate(90 31 22)" fill="#1F78F0"></circle><circle cx="17" cy="22" r="4" fill="#1F78F0"></circle><path fill-rule="evenodd" clip-rule="evenodd" d="M29.4998 43.7794C29.4966 42.1328 29.4587 40.012 29.4395 39.0355C29.4327 38.6844 29.3246 38.3264 29.004 38.1827C28.7833 38.0837 28.4604 38 28 38C27.5396 38 27.2168 38.0837 26.996 38.1827C26.6755 38.3264 26.5674 38.6844 26.5605 39.0355C26.5407 40.0481 26.5007 42.2911 26.5 43.9599C27.6456 43.9215 28.6399 43.8577 29.4998 43.7794ZM21.5 43.9599C21.4994 42.2911 21.4594 40.0481 21.4395 39.0355C21.4327 38.6844 21.3246 38.3264 21.004 38.1827C20.7833 38.0837 20.4604 38 20 38C19.5396 38 19.2168 38.0837 18.996 38.1827C18.6755 38.3264 18.5674 38.6844 18.5605 39.0355C18.5414 40.012 18.5035 42.1328 18.5002 43.7794C19.3601 43.8577 20.3545 43.9215 21.5 43.9599Z" fill="#1F78F0"></path></g></svg>