<svg viewBox="0 0 24 24" fill="none" xmlns="http://www.w3.org/2000/svg">


<g transform="matrix(0.5,0,0,0.5,0,0)"><path d="M3 24C3 35.598 12.402 45 24 45C35.598 45 45 35.598 45 24C45 12.402 35.598 3 24 3C12.402 3 3 12.402 3 24Z" fill="#91BEFF"></path><path fill-rule="evenodd" clip-rule="evenodd" d="M13.8867 21.1308C15.2359 21.9098 16.9034 21.6383 17.942 20.5701C18.3118 20.1899 18.3364 19.6208 17.977 19.2307C17.6172 18.8402 16.9859 18.3013 15.8867 17.6667C14.7875 17.032 14.0051 16.7548 13.4871 16.6384C12.9695 16.5222 12.489 16.8281 12.3446 17.3385C11.9389 18.772 12.5375 20.3518 13.8867 21.1308ZM33.9435 21.1308C32.5943 21.9098 30.9269 21.6383 29.8882 20.5701C29.5184 20.1899 29.4938 19.6208 29.8532 19.2307C30.213 18.8402 30.8443 18.3013 31.9435 17.6667C33.0428 17.032 33.8251 16.7548 34.3432 16.6384C34.8607 16.5222 35.3412 16.8281 35.4857 17.3385C35.8914 18.772 35.2927 20.3518 33.9435 21.1308ZM24 30.5C23.0529 30.5 21.9429 31.2713 20.8898 32.4837C20.6806 32.7245 20.19 33.4296 19.8127 33.9826C19.497 34.4452 19.0038 34.7802 18.4445 34.7507C18.1095 34.7331 17.7486 34.6689 17.5 34.5C17.3627 34.4067 17.2359 34.2654 17.1251 34.1118C16.7774 33.6297 16.8394 32.9836 17.1579 32.4818C17.5966 31.7907 18.0903 31.1319 18.6249 30.5164C19.7434 29.2288 21.6333 27.5 24 27.5C26.3666 27.5 28.2566 29.2288 29.375 30.5164C29.7072 30.8988 30.3183 31.7852 30.7673 32.4537C31.1193 32.9776 31.2269 33.667 30.8404 34.1661C30.7397 34.2961 30.6255 34.4148 30.5 34.5001C30.263 34.6609 29.9242 34.7268 29.603 34.7479C29.0166 34.7864 28.5043 34.4205 28.1786 33.9314C27.8712 33.47 27.4689 32.8967 27.1102 32.4837C26.0571 31.2713 24.947 30.5 24 30.5Z" fill="#1F78F0"></path></g></svg>