<svg viewBox="0 0 24 24" fill="none" xmlns="http://www.w3.org/2000/svg">


<g transform="matrix(0.5,0,0,0.5,0,0)"><path d="M3 24C3 35.598 12.402 45 24 45C35.598 45 45 35.598 45 24C45 12.402 35.598 3 24 3C12.402 3 3 12.402 3 24Z" fill="#91BEFF"></path><path fill-rule="evenodd" clip-rule="evenodd" d="M17 19.5C17 20.8807 15.8807 22 14.5 22C13.1193 22 12 20.8807 12 19.5C12 18.1193 13.1193 17 14.5 17C15.8807 17 17 18.1193 17 19.5ZM19 35.5C19.8284 35.5 20.5 34.8284 20.5 34C20.5 32.067 22.067 30.5 24 30.5C25.933 30.5 27.5 32.067 27.5 34C27.5 34.8284 28.1716 35.5 29 35.5C29.8284 35.5 30.5 34.8284 30.5 34C30.5 30.4101 27.5899 27.5 24 27.5C20.4101 27.5 17.5 30.4101 17.5 34C17.5 34.8284 18.1716 35.5 19 35.5ZM33.5 22C34.8807 22 36 20.8807 36 19.5C36 18.1193 34.8807 17 33.5 17C32.1193 17 31 18.1193 31 19.5C31 20.8807 32.1193 22 33.5 22Z" fill="#1F78F0"></path></g></svg>