<svg viewBox="0 0 24 24" fill="none" xmlns="http://www.w3.org/2000/svg">




<g transform="matrix(0.5,0,0,0.5,0,0)"><path d="M3 24C3 35.598 12.402 45 24 45C35.598 45 45 35.598 45 24C45 12.402 35.598 3 24 3C12.402 3 3 12.402 3 24Z" fill="#91BEFF"></path><path d="M24 26C27.735 26 30.8721 28.5595 31.7531 32.0202C32.0257 33.0907 31.1046 34 30 34H18C16.8954 34 15.9743 33.0907 16.2469 32.0202C17.1279 28.5595 20.265 26 24 26Z" fill="#1F78F0"></path><circle cx="14.5" cy="19.5" r="2.5" fill="#1F78F0"></circle><path d="M36 19.5C36 20.8807 34.8807 22 33.5 22C32.1193 22 31 20.8807 31 19.5C31 18.1193 32.1193 17 33.5 17C34.8807 17 36 18.1193 36 19.5Z" fill="#1F78F0"></path></g></svg>