<svg viewBox="0 0 24 24" fill="none" xmlns="http://www.w3.org/2000/svg">




<g transform="matrix(0.5,0,0,0.5,0,0)"><path d="M27.5772 33.4767C29.5299 35.4293 29.5299 38.5951 27.5772 40.5478C25.6246 42.5004 22.4588 42.5004 20.5062 40.5478C18.5535 38.5951 18.5535 35.4293 20.5062 33.4767C22.4588 31.5241 25.6246 31.5241 27.5772 33.4767Z" fill="#91BEFF"></path><path d="M3.12738 15.9145C2.49075 16.5511 2.18382 17.4541 2.59774 18.2536C2.91664 18.8696 3.44595 19.6591 4.32181 20.5349C5.19767 21.4108 5.98707 21.9401 6.60309 22.259C7.40262 22.6729 8.30562 22.366 8.94225 21.7293L10.8438 19.8278C18.5234 12.1482 30.2673 12.8553 37.9469 20.5349L39.2685 21.8566C39.8312 22.4192 40.6108 22.7178 41.326 22.3692C41.9406 22.0697 42.7716 21.5251 43.7618 20.5349C44.752 19.5447 45.2965 18.7137 45.5961 18.0992C45.9446 17.384 45.646 16.6043 45.0834 16.0417L43.7618 14.72C32.8707 3.829 15.2129 3.829 4.32181 14.72L3.12738 15.9145Z" fill="#91BEFF"></path><path d="M11.5726 24.4398C10.959 25.0534 10.6531 25.918 11.0458 26.6919C11.3559 27.3032 11.8838 28.0969 12.7807 28.9938C13.6776 29.8907 14.4712 30.4185 15.0826 30.7287C15.8564 31.1213 16.7211 30.8154 17.3347 30.2018L17.8356 29.7009C21.2632 26.2733 26.8204 26.2733 30.2479 29.7009L30.8361 30.289C31.3987 30.8516 32.1785 31.1512 32.8942 30.8036C33.5047 30.5072 34.3273 29.9694 35.3029 28.9938C36.2785 28.0182 36.8163 27.1956 37.1127 26.5851C37.4603 25.8694 37.1607 25.0896 36.5981 24.527L36.01 23.9388C29.4001 17.329 18.6834 17.329 12.0736 23.9388L11.5726 24.4398Z" fill="#91BEFF"></path><path d="M4.70261 37.5174C4.16727 38.0628 3.79771 38.7823 4.07972 39.4927C4.28705 40.0149 4.69254 40.6925 5.47487 41.4749C6.25721 42.2572 6.93486 42.6627 7.4571 42.87C8.16743 43.152 8.88691 42.7825 9.43236 42.2471C12.2766 39.4555 21.6734 30.2261 26.3345 25.565C30.9956 20.9039 40.2251 11.5071 43.0167 8.6628C43.552 8.11735 43.9216 7.39788 43.6396 6.68754C43.4322 6.16531 43.0268 5.48765 42.2444 4.70532C41.4621 3.92299 40.7844 3.5175 40.2622 3.31017C39.5519 3.02816 38.8324 3.39772 38.2869 3.93306C35.4427 6.72464 26.0459 15.9541 21.3848 20.6152C16.7237 25.2763 7.4942 34.6731 4.70261 37.5174Z" fill="#1F78F0"></path></g></svg>