<svg viewBox="0 0 24 24" fill="none" xmlns="http://www.w3.org/2000/svg">


<g transform="matrix(0.5,0,0,0.5,0,0)"><g clip-path="url(#clip0_506:2616)">
<path d="M27.5771 33.4767C29.5297 35.4293 29.5297 38.5951 27.5771 40.5477C25.6244 42.5004 22.4586 42.5004 20.506 40.5477C18.5534 38.5951 18.5534 35.4293 20.506 33.4767C22.4586 31.5241 25.6244 31.5241 27.5771 33.4767Z" fill="#1F78F0"></path>
<path fill-rule="evenodd" clip-rule="evenodd" d="M3.12731 15.9144C2.49069 16.5511 2.18376 17.4541 2.59767 18.2536C2.91658 18.8696 3.44588 19.659 4.32174 20.5349C5.1976 21.4107 5.98701 21.94 6.60302 22.2589C7.40256 22.6729 8.30556 22.3659 8.94218 21.7293L10.8437 19.8278C18.5233 12.1482 30.2673 12.8553 37.9468 20.5349L39.2685 21.8565C39.8311 22.4191 40.6107 22.7178 41.326 22.3692C41.9405 22.0697 42.7715 21.5251 43.7617 20.5349C44.7519 19.5447 45.2965 18.7137 45.596 18.0991C45.9446 17.3839 45.646 16.6043 45.0834 16.0417L43.7617 14.72C32.8707 3.82896 15.2128 3.82896 4.32174 14.72L3.12731 15.9144ZM11.5726 24.4398C10.959 25.0534 10.6531 25.918 11.0457 26.6918C11.3559 27.3032 11.8837 28.0968 12.7806 28.9938C13.6775 29.8907 14.4712 30.4185 15.0825 30.7287C15.8564 31.1213 16.721 30.8154 17.3346 30.2018L17.8356 29.7009C21.2631 26.2733 26.8203 26.2733 30.2479 29.7009L30.836 30.289C31.3986 30.8516 32.1785 31.1511 32.8942 30.8036C33.5046 30.5071 34.3272 29.9694 35.3028 28.9938C36.2784 28.0181 36.8162 27.1955 37.1126 26.5851C37.4602 25.8694 37.1607 25.0895 36.5981 24.5269L36.0099 23.9388C29.4001 17.3289 18.6834 17.3289 12.0735 23.9388L11.5726 24.4398Z" fill="#1F78F0"></path>
</g><defs>
<clipPath id="clip0_506:2616">
<rect width="48" height="48" fill="white"></rect>
</clipPath>
</defs></g></svg>