<svg viewBox="0 0 24 24" fill="none" xmlns="http://www.w3.org/2000/svg">



<g transform="matrix(0.5,0,0,0.5,0,0)"><path fill-rule="evenodd" clip-rule="evenodd" d="M12.0848 12.6775C6.73021 13.6079 3 17.6086 3 23.3032C3 29.6317 7.60674 33.8681 13.93 34.1236C16.5886 34.231 19.9004 34.3032 24 34.3032C28.0996 34.3032 31.4114 34.231 34.07 34.1236C40.3933 33.8681 45 29.6317 45 23.3032C45 17.6086 41.2698 13.6079 35.9152 12.6775C35.2743 6.6402 31.0416 2.35063 24.7173 2.30574C24.483 2.30408 24.2439 2.30322 24 2.30322C23.756 2.30322 23.517 2.30408 23.2827 2.30574C16.9584 2.35064 12.7257 6.6402 12.0848 12.6775Z" fill="#91BEFF"></path><path fill-rule="evenodd" clip-rule="evenodd" d="M17.8118 38.8924C17.8118 38.8924 17.8118 38.3158 18.0347 28.2822C18.0456 27.7901 18.2546 27.3092 18.7251 27.1644C19.0211 27.0732 19.4283 27 19.9726 27C20.5234 27 20.9337 27.075 21.2306 27.1676C21.6942 27.3123 21.9016 27.7788 21.9132 28.2643C21.9569 30.0978 22.0509 35.1927 21.9651 42.5049C21.94 44.6437 19.7893 45.9233 18.1014 44.6096C15.8828 42.8827 13.8279 40.8246 12.7623 39.7093C12.2818 39.2063 12.0966 38.4727 12.4082 37.8507C12.7684 37.1317 13.2002 36.6492 13.5777 36.332C14.095 35.8973 14.8157 36.0342 15.3213 36.4824C16.7765 37.7726 17.8118 38.8924 17.8118 38.8924Z" fill="#1F78F0"></path><path fill-rule="evenodd" clip-rule="evenodd" d="M30.1882 33.1076C30.1882 33.1076 30.1882 33.6842 29.9653 43.7178C29.9544 44.2099 29.7454 44.6908 29.2749 44.8356C28.9789 44.9268 28.5717 45 28.0274 45C27.4766 45 27.0663 44.925 26.7694 44.8324C26.3058 44.6877 26.0984 44.2212 26.0868 43.7357C26.0431 41.9022 25.9491 36.8073 26.0349 29.4951C26.06 27.3563 28.2107 26.0767 29.8986 27.3904C32.1172 29.1173 34.1721 31.1754 35.2377 32.2907C35.7182 32.7937 35.9034 33.5273 35.5918 34.1493C35.2316 34.8683 34.7998 35.3508 34.4223 35.668C33.905 36.1027 33.1843 35.9658 32.6787 35.5176C31.2235 34.2274 30.1882 33.1076 30.1882 33.1076Z" fill="#1F78F0"></path></g></svg>