<svg viewBox="0 0 24 24" fill="none" xmlns="http://www.w3.org/2000/svg">


<g transform="matrix(0.5,0,0,0.5,0,0)"><path fill-rule="evenodd" clip-rule="evenodd" d="M35.9152 16.6775C41.2698 17.6079 45 21.6086 45 27.3032C45 33.6317 40.3933 37.8681 34.07 38.1236C31.4114 38.231 28.0996 38.3032 24 38.3032C19.9004 38.3032 16.5886 38.231 13.93 38.1236C7.60674 37.8681 3 33.6317 3 27.3032C3 21.6086 6.73022 17.6079 12.0848 16.6775C12.7257 10.6402 16.9584 6.35063 23.2827 6.30574C23.517 6.30408 23.7561 6.30322 24 6.30322C24.244 6.30322 24.483 6.30408 24.7173 6.30574C31.0416 6.35064 35.2743 10.6402 35.9152 16.6775Z" fill="#91BEFF"></path><path d="M3.65836 38.006C3.07752 38.5027 2.64666 39.1873 2.86568 39.9195C3.02671 40.4578 3.37159 41.1682 4.08276 42.0158C4.79393 42.8633 5.43367 43.3263 5.93585 43.5784C6.6189 43.9212 7.36785 43.6158 7.95788 43.13C11.0346 40.5969 21.2001 32.2216 26.2497 27.9844C31.2993 23.7473 41.3126 15.1907 44.3415 12.6005C44.9223 12.1038 45.3532 11.4193 45.1342 10.6871C44.9731 10.1488 44.6282 9.43834 43.9171 8.5908C43.2059 7.74326 42.5662 7.28025 42.064 7.02819C41.3809 6.68534 40.632 6.99079 40.042 7.47656C36.9652 10.0096 26.7998 18.385 21.7502 22.6221C16.7005 26.8593 6.68722 35.4159 3.65836 38.006Z" fill="#1F78F0"></path></g></svg>