<svg viewBox="0 0 24 24" fill="none" xmlns="http://www.w3.org/2000/svg">


<g transform="matrix(0.5,0,0,0.5,0,0)"><path fill-rule="evenodd" clip-rule="evenodd" d="M35.9152 14.3743C41.2698 15.3047 45 19.3053 45 25C45 31.3285 40.3933 35.5648 34.07 35.8204C31.4114 35.9278 28.0996 36 24 36C19.9004 36 16.5886 35.9278 13.93 35.8204C7.60674 35.5648 3 31.3285 3 25C3 19.3053 6.73022 15.3047 12.0848 14.3743C12.7257 8.33698 16.9584 4.04741 23.2827 4.00252C23.517 4.00085 23.7561 4 24 4C24.244 4 24.483 4.00085 24.7173 4.00252C31.0416 4.04741 35.2743 8.33698 35.9152 14.3743Z" fill="#91BEFF"></path><path fill-rule="evenodd" clip-rule="evenodd" d="M20.7953 35.513C19.9374 34.6768 18.9693 33.7659 17.9826 32.9008C17.3351 32.3331 16.4455 32.1116 15.7391 32.6042C15.5089 32.7646 15.255 32.9683 14.9852 33.2264C14.6784 33.5199 14.4442 33.8034 14.2657 34.0602C13.7905 34.7445 13.9979 35.613 14.5309 36.2533C17.4908 39.8097 20.6375 42.2725 22.4253 43.5303C23.3154 44.1565 24.4747 44.1565 25.3648 43.5303C27.1525 42.2725 30.2992 39.8097 33.2592 36.2533C33.7921 35.613 33.9996 34.7445 33.5243 34.0602C33.3459 33.8034 33.1117 33.5199 32.8049 33.2264C32.5351 32.9683 32.2811 32.7646 32.051 32.6042C31.3446 32.1116 30.455 32.3331 29.8075 32.9008C28.8208 33.7658 27.8529 34.6766 26.9951 35.5128C26.8531 32.2347 26.6176 28.6121 26.3578 25.7812C26.2646 24.7661 25.4076 24 24.3882 24H23.4025C22.3832 24 21.5262 24.7659 21.433 25.781C21.1728 28.612 20.9373 32.2348 20.7953 35.513Z" fill="#1F78F0"></path></g></svg>