<svg viewBox="0 0 24 24" fill="none" xmlns="http://www.w3.org/2000/svg">


<g transform="matrix(0.5,0,0,0.5,0,0)"><path fill-rule="evenodd" clip-rule="evenodd" d="M35.9152 14.3743C41.2698 15.3047 45 19.3053 45 25C45 31.3285 40.3933 35.5648 34.07 35.8204C31.4114 35.9278 28.0996 36 24 36C19.9004 36 16.5886 35.9278 13.93 35.8204C7.60674 35.5648 3 31.3285 3 25C3 19.3053 6.73022 15.3047 12.0848 14.3743C12.7257 8.33698 16.9584 4.04741 23.2827 4.00252C23.517 4.00085 23.7561 4 24 4C24.244 4 24.483 4.00085 24.7173 4.00252C31.0416 4.04741 35.2743 8.33698 35.9152 14.3743Z" fill="#91BEFF"></path><path fill-rule="evenodd" clip-rule="evenodd" d="M20.7953 28.4869C19.9374 29.3231 18.9693 30.234 17.9826 31.0992C17.3351 31.6669 16.4455 31.8884 15.7391 31.3958C15.5089 31.2353 15.255 31.0317 14.9852 30.7736C14.6784 30.48 14.4442 30.1966 14.2657 29.9397C13.7905 29.2555 13.9979 28.387 14.5309 27.7466C17.4908 24.1902 20.6375 21.7274 22.4253 20.4697C23.3154 19.8434 24.4747 19.8434 25.3648 20.4697C27.1525 21.7274 30.2992 24.1902 33.2592 27.7466C33.7921 28.387 33.9996 29.2555 33.5243 29.9397C33.3459 30.1966 33.1117 30.48 32.8049 30.7736C32.5351 31.0317 32.2811 31.2353 32.051 31.3958C31.3446 31.8884 30.455 31.6669 29.8075 31.0992C28.8208 30.2341 27.8529 29.3233 26.9951 28.4872C26.8531 31.7652 26.6176 35.3878 26.3578 38.2187C26.2646 39.2339 25.4076 40 24.3882 40H23.4025C22.3832 40 21.5262 39.234 21.433 38.219C21.1728 35.388 20.9373 31.7651 20.7953 28.4869Z" fill="#1F78F0"></path></g></svg>