<svg viewBox="0 0 24 24" fill="none" xmlns="http://www.w3.org/2000/svg">


<g transform="matrix(0.5,0,0,0.5,0,0)"><path fill-rule="evenodd" clip-rule="evenodd" d="M38.4578 3.29272C39.1222 3.40672 39.0903 4.38837 38.5065 4.72543V4.72543C35.4318 6.50063 34.3783 10.4323 36.1535 13.507C37.9287 16.5818 41.8603 17.6352 44.9351 15.86V15.86C45.5189 15.523 46.385 15.9862 46.1515 16.6186C45.3711 18.7321 43.8757 20.5956 41.7721 21.8101C36.9891 24.5716 30.8732 22.9328 28.1118 18.1499C25.3504 13.367 26.9891 7.25105 31.7721 4.48962C33.8757 3.27508 36.2372 2.91173 38.4578 3.29272Z" fill="#1F78F0"></path><path fill-rule="evenodd" clip-rule="evenodd" d="M33.8924 22.1726C33.9519 22.1749 34.0111 22.1773 34.07 22.1796C40.3933 22.4352 45 26.6715 45 33C45 39.3285 40.3933 43.5648 34.07 43.8204C31.4114 43.9278 28.0996 44 24 44C19.9004 44 16.5886 43.9278 13.93 43.8204C7.60674 43.5648 3 39.3285 3 33C3 28.0633 5.80331 24.3997 10.038 22.9057C10.4812 16.5902 14.7744 12.0487 21.2827 12.0025C21.517 12.0009 21.7561 12 22 12C22.244 12 22.483 12.0009 22.7173 12.0025C28.9709 12.0469 33.1794 16.2416 33.8924 22.1726Z" fill="#91BEFF"></path></g></svg>