<svg viewBox="0 0 24 24" fill="none" xmlns="http://www.w3.org/2000/svg">


<g transform="matrix(0.5,0,0,0.5,0,0)"><path fill-rule="evenodd" clip-rule="evenodd" d="M33.8924 18.1726C33.9519 18.1749 34.0111 18.1773 34.07 18.1796C40.3933 18.4352 45 22.6715 45 29C45 35.3285 40.3933 39.5648 34.07 39.8204C31.4114 39.9278 28.0996 40 24 40C19.9004 40 16.5886 39.9278 13.93 39.8204C7.60674 39.5648 3 35.3285 3 29C3 24.0633 5.80331 20.3997 10.038 18.9057C10.4812 12.5902 14.7744 8.04872 21.2827 8.00252C21.517 8.00085 21.7561 8 22 8C22.244 8 22.483 8.00085 22.7173 8.00252C28.9709 8.04691 33.1794 12.2416 33.8924 18.1726Z" fill="#91BEFF"></path><path fill-rule="evenodd" clip-rule="evenodd" d="M33.6528 31.8129C33.6868 31.8142 33.7206 31.8156 33.7543 31.8169C37.3676 31.9629 40 34.3837 40 38C40 41.6163 37.3676 44.037 33.7543 44.1831C32.2351 44.2444 30.3426 44.2857 28 44.2857C25.6574 44.2857 23.7649 44.2444 22.2457 44.1831C18.6324 44.037 16 41.6163 16 38C16 35.179 17.6019 33.0855 20.0217 32.2318C20.275 28.623 22.7282 26.0278 26.4473 26.0014C26.5812 26.0005 26.7178 26 26.8572 26C26.9966 26 27.1332 26.0005 27.267 26.0014C30.8405 26.0268 33.2454 28.4238 33.6528 31.8129Z" fill="#1F78F0"></path></g></svg>