<svg viewBox="0 0 24 24" fill="none" xmlns="http://www.w3.org/2000/svg">


<g transform="matrix(0.5,0,0,0.5,0,0)"><path fill-rule="evenodd" clip-rule="evenodd" d="M14.1076 13.1726C14.0481 13.1749 13.9889 13.1773 13.93 13.1796C7.60673 13.4352 3 17.6715 3 24C3 30.3285 7.60674 34.5648 13.93 34.8204C16.5886 34.9278 19.9004 35 24 35C28.0996 35 31.4114 34.9278 34.07 34.8204C40.3933 34.5648 45 30.3285 45 24C45 19.0633 42.1967 15.3997 37.962 13.9057C37.5188 7.59023 33.2256 3.04872 26.7173 3.00252C26.483 3.00085 26.2439 3 26 3C25.756 3 25.517 3.00085 25.2827 3.00252C19.0291 3.04691 14.8206 7.24164 14.1076 13.1726Z" fill="#91BEFF"></path><path fill-rule="evenodd" clip-rule="evenodd" d="M22.4227 30.0582C21.3345 30.1118 20.384 30.8043 20.0153 31.8296C19.0509 34.511 18.522 37.1402 18.2509 38.8383C18.0821 39.8961 18.8378 40.8381 19.9068 40.9073C20.7752 40.9634 21.8895 41.0091 23.1414 40.9984C22.9534 42.0815 22.7469 43.4319 22.5359 45.0939C22.3097 46.8761 24.3406 47.9096 25.6119 46.6403C28.0498 44.2063 30.2684 41.6865 31.8107 39.8616C32.8033 38.6872 32.09 37.0256 30.5524 37.0055C29.9272 36.9973 29.2121 36.9976 28.4029 37.0114C28.7757 35.6304 29.1918 33.9991 29.5554 32.3574C29.8116 31.2002 28.9737 30.1089 27.7894 30.0603C26.3455 30.001 24.3723 29.9621 22.4227 30.0582Z" fill="#1F78F0"></path></g></svg>