<svg viewBox="0 0 24 24" fill="none" xmlns="http://www.w3.org/2000/svg">




<g transform="matrix(0.5,0,0,0.5,0,0)"><path fill-rule="evenodd" clip-rule="evenodd" d="M14.1076 13.1726C14.0481 13.1749 13.9889 13.1773 13.93 13.1796C7.60673 13.4352 3 17.6715 3 24C3 30.3285 7.60674 34.5648 13.93 34.8204C16.5886 34.9278 19.9004 35 24 35C28.0996 35 31.4114 34.9278 34.07 34.8204C40.3933 34.5648 45 30.3285 45 24C45 19.0633 42.1967 15.3997 37.962 13.9057C37.5188 7.59023 33.2256 3.04872 26.7173 3.00252C26.483 3.00085 26.2439 3 26 3C25.756 3 25.517 3.00085 25.2827 3.00252C19.0291 3.04691 14.8206 7.24164 14.1076 13.1726Z" fill="#91BEFF"></path><path d="M14.6962 44.0622C13.8677 45.4971 12.033 45.9887 10.5981 45.1603C9.1632 44.3318 8.67157 42.4971 9.5 41.0622C10.0393 40.1281 12.4607 38.4768 14.0852 37.4379C14.7427 37.0174 15.5776 37.4995 15.5422 38.2792C15.4548 40.2055 15.2354 43.1281 14.6962 44.0622Z" fill="#1F78F0"></path><path d="M24.6962 44.0622C23.8677 45.4971 22.033 45.9887 20.5981 45.1603C19.1632 44.3318 18.6716 42.4971 19.5 41.0622C20.0393 40.1281 22.4607 38.4768 24.0852 37.4379C24.7427 37.0174 25.5776 37.4995 25.5422 38.2792C25.4548 40.2055 25.2354 43.1281 24.6962 44.0622Z" fill="#1F78F0"></path><path d="M34.6962 44.0622C33.8677 45.4971 32.033 45.9887 30.5981 45.1603C29.1632 44.3318 28.6716 42.4971 29.5 41.0622C30.0393 40.1281 32.4607 38.4768 34.0852 37.4379C34.7427 37.0174 35.5776 37.4995 35.5422 38.2792C35.4548 40.2055 35.2354 43.1281 34.6962 44.0622Z" fill="#1F78F0"></path></g></svg>