<svg viewBox="0 0 24 24" fill="none" xmlns="http://www.w3.org/2000/svg">


<g transform="matrix(0.5,0,0,0.5,0,0)"><circle r="20" transform="matrix(0 1 1 0 24 24)" fill="#91BEFF"></circle><path fill-rule="evenodd" clip-rule="evenodd" d="M20.61 25.9605C19.5493 24.8446 18.3345 23.6158 17.11 22.4794C16.6637 22.0651 16.04 21.8991 15.5186 22.2139C15.1661 22.4267 14.7281 22.7539 14.2437 23.254C13.6567 23.8601 13.3123 24.4298 13.1127 24.859C12.8927 25.3323 13.0186 25.8656 13.3309 26.2838C16.722 30.8252 20.4202 33.9401 22.4497 35.4749C23.376 36.1754 24.6247 36.1754 25.5511 35.4749C27.5806 33.9401 31.2788 30.8252 34.6698 26.2838C34.9821 25.8656 35.1081 25.3323 34.888 24.859C34.6884 24.4298 34.344 23.8601 33.757 23.254C33.2726 22.7539 32.8346 22.4267 32.4821 22.2139C31.9608 21.8991 31.3371 22.0651 30.8907 22.4794C29.6659 23.6161 28.4508 24.8452 27.3899 25.9613C27.2407 21.9452 26.9566 17.2934 26.6414 13.7874C26.5499 12.769 25.6915 12 24.6689 12H23.3314C22.3089 12 21.4506 12.7689 21.359 13.7872C21.0435 17.293 20.7593 21.9445 20.61 25.9605Z" fill="#1F78F0"></path></g></svg>