<svg viewBox="0 0 24 24" fill="none" xmlns="http://www.w3.org/2000/svg">


<g transform="matrix(0.5,0,0,0.5,0,0)"><circle cx="24" cy="24" r="20" transform="rotate(-180 24 24)" fill="#91BEFF"></circle><path fill-rule="evenodd" clip-rule="evenodd" d="M22.0395 27.3899C23.1554 28.4506 24.3842 29.6654 25.5206 30.8899C25.9349 31.3363 26.1009 31.96 25.7861 32.4813C25.5733 32.8339 25.2461 33.2718 24.746 33.7562C24.1399 34.3432 23.5702 34.6876 23.141 34.8872C22.6677 35.1073 22.1344 34.9813 21.7162 34.669C17.1748 31.278 14.0599 27.5798 12.5251 25.5503C11.8246 24.6239 11.8246 23.3752 12.5251 22.4489C14.0599 20.4194 17.1748 16.7212 21.7162 13.3301C22.1344 13.0178 22.6677 12.8919 23.141 13.1119C23.5702 13.3115 24.1399 13.6559 24.746 14.2429C25.2461 14.7274 25.5733 15.1653 25.7861 15.5178C26.1009 16.0392 25.9349 16.6629 25.5206 17.1092C24.3839 18.3341 23.1548 19.5492 22.0387 20.61C26.0548 20.7592 30.7066 21.0434 34.2126 21.3585C35.231 21.4501 36 22.3085 36 23.331V24.6686C36 25.691 35.2311 26.5494 34.2128 26.641C30.707 26.9564 26.0555 27.2407 22.0395 27.3899Z" fill="#1F78F0"></path></g></svg>