<svg viewBox="0 0 24 24" fill="none" xmlns="http://www.w3.org/2000/svg">


<g transform="matrix(0.5,0,0,0.5,0,0)"><circle cx="24" cy="24" r="20" transform="rotate(-90 24 24)" fill="#91BEFF"></circle><path fill-rule="evenodd" clip-rule="evenodd" d="M20.61 22.0395C19.5493 23.1554 18.3345 24.3842 17.11 25.5206C16.6637 25.9349 16.04 26.1009 15.5186 25.7861C15.1661 25.5733 14.7281 25.2461 14.2437 24.746C13.6567 24.1399 13.3123 23.5702 13.1127 23.141C12.8927 22.6677 13.0186 22.1344 13.3309 21.7162C16.722 17.1748 20.4202 14.0599 22.4497 12.5251C23.376 11.8246 24.6247 11.8246 25.5511 12.5251C27.5806 14.0599 31.2788 17.1748 34.6698 21.7162C34.9821 22.1344 35.1081 22.6677 34.888 23.141C34.6884 23.5702 34.344 24.1399 33.757 24.746C33.2726 25.2461 32.8346 25.5733 32.4821 25.7861C31.9608 26.1009 31.3371 25.9349 30.8907 25.5206C29.6659 24.3839 28.4508 23.1548 27.3899 22.0387C27.2407 26.0548 26.9566 30.7066 26.6414 34.2126C26.5499 35.231 25.6915 36 24.6689 36H23.3314C22.3089 36 21.4506 35.2311 21.359 34.2128C21.0435 30.707 20.7593 26.0555 20.61 22.0395Z" fill="#1F78F0"></path></g></svg>