<svg viewBox="0 0 24 24" fill="none" xmlns="http://www.w3.org/2000/svg">


<g transform="matrix(0.5,0,0,0.5,0,0)"><circle cx="24" cy="24" r="20" fill="#91BEFF"></circle><path fill-rule="evenodd" clip-rule="evenodd" d="M25.9605 20.6101C24.8446 19.5494 23.6158 18.3346 22.4794 17.1101C22.0651 16.6637 21.8991 16.04 22.2139 15.5187C22.4267 15.1661 22.7539 14.7282 23.254 14.2438C23.8601 13.6568 24.4298 13.3124 24.859 13.1128C25.3323 12.8927 25.8656 13.0187 26.2838 13.331C30.8252 16.722 33.9401 20.4202 35.4749 22.4497C36.1754 23.3761 36.1754 24.6248 35.4749 25.5511C33.9401 27.5806 30.8252 31.2788 26.2838 34.6699C25.8656 34.9822 25.3323 35.1081 24.859 34.8881C24.4298 34.6885 23.8601 34.3441 23.254 33.7571C22.7539 33.2726 22.4267 32.8347 22.2139 32.4822C21.8991 31.9608 22.0651 31.3371 22.4794 30.8908C23.6161 29.6659 24.8452 28.4508 25.9613 27.39C21.9452 27.2408 17.2934 26.9566 13.7874 26.6415C12.769 26.5499 12 25.6915 12 24.669V23.3314C12 22.309 12.7689 21.4506 13.7872 21.359C17.293 21.0436 21.9445 20.7593 25.9605 20.6101Z" fill="#1F78F0"></path></g></svg>