<svg viewBox="0 0 24 24" fill="none" xmlns="http://www.w3.org/2000/svg">


<g transform="matrix(0.5,0,0,0.5,0,0)"><path d="M24 3C12.402 3 3 12.402 3 24C3 35.598 12.402 45 24 45C35.598 45 45 35.598 45 24C45 12.402 35.598 3 24 3Z" fill="#91BEFF"></path><path d="M23.355 23.2298C24.6228 22.1165 27.0513 19.9323 29.3387 17.586C30.4081 16.489 30.788 14.8901 29.733 13.7793C29.6464 13.688 29.5539 13.5948 29.4551 13.5C29.1921 13.2473 28.9354 13.0364 28.6922 12.8605C27.642 12.101 26.2816 12.4118 25.2587 13.2077C21.4135 16.1996 18.5968 19.3216 16.8981 21.4334C15.6765 22.9522 15.6765 25.0478 16.8981 26.5666C18.5968 28.6784 21.4135 31.8004 25.2587 34.7923C26.2816 35.5882 27.642 35.899 28.6922 35.1395C28.9354 34.9636 29.1921 34.7527 29.4551 34.5C29.5539 34.4052 29.6464 34.312 29.733 34.2207C30.788 33.1099 30.4081 31.511 29.3387 30.414C27.0513 28.0677 24.6228 25.8836 23.355 24.7702C22.8912 24.3629 22.8912 23.6371 23.355 23.2298Z" fill="#1F78F0"></path></g></svg>