<svg viewBox="0 0 24 24" fill="none" xmlns="http://www.w3.org/2000/svg">


<g transform="matrix(0.5,0,0,0.5,0,0)"><path d="M18 8C26.8366 8 34 15.1634 34 24C34 32.8366 26.8366 40 18 40C9.16344 40 2 32.8366 2 24C2 15.1634 9.16344 8 18 8Z" fill="#91BEFF"></path><path fill-rule="evenodd" clip-rule="evenodd" d="M36.9804 20.4511C36.1365 19.6686 35.238 18.8092 34.3674 17.9291C33.4907 17.0428 33.1739 15.7456 34.0098 14.8208C34.1391 14.6778 34.2846 14.5288 34.4483 14.375C34.7874 14.0565 35.1154 13.8103 35.4145 13.6206C36.2739 13.0754 37.3322 13.3176 38.1461 13.9285C42.0401 16.8509 44.8366 19.9351 46.4338 21.9087C47.4334 23.144 47.4334 24.8561 46.4338 26.0913C44.8366 28.0649 42.0401 31.1492 38.1461 34.0715C37.3322 34.6824 36.2739 34.9246 35.4145 34.3795C35.1154 34.1897 34.7874 33.9436 34.4483 33.625C34.2846 33.4712 34.1391 33.3222 34.0098 33.1792C33.1739 32.2545 33.4907 30.9572 34.3674 30.071C35.2034 29.2258 36.0653 28.3996 36.8797 27.6424C27.5382 27.57 20.2113 27.3511 16.9098 27.2371C15.8383 27.2001 15 26.3201 15 25.2479V23.0452C15 21.9891 15.8139 21.1171 16.8686 21.0624C20.1617 20.8914 27.5517 20.559 36.9804 20.4511Z" fill="#1F78F0"></path></g></svg>