<svg viewBox="0 0 24 24" fill="none" xmlns="http://www.w3.org/2000/svg">




<g transform="matrix(0.5,0,0,0.5,0,0)"><path fill-rule="evenodd" clip-rule="evenodd" d="M2.64135 6.55028C2.75537 4.41687 4.41691 2.75535 6.55032 2.64135C11.0146 2.40278 16.3022 2.7197 18.701 2.89615C19.4935 2.95444 20.1678 3.48773 20.3035 4.27066C20.4388 5.05125 20.5276 6.08177 20.3269 7.03829C20.1955 7.66455 19.6276 8.06513 18.9912 8.13122C16.2658 8.41421 11.5456 8.48004 9.49682 8.49536C8.94455 8.49949 8.49959 8.94445 8.49546 9.49671C8.48015 11.5455 8.4143 16.2658 8.13127 18.9912C8.06517 19.6276 7.6646 20.1954 7.03836 20.3268C6.08182 20.5275 5.05129 20.4387 4.27068 20.3034C3.48776 20.1677 2.95448 19.4934 2.89618 18.701C2.71971 16.3021 2.40277 11.0146 2.64135 6.55028Z" fill="#1F78F0"></path><path fill-rule="evenodd" clip-rule="evenodd" d="M44.8032 6.55028C44.6892 4.41687 43.0277 2.75535 40.8943 2.64135C36.43 2.40278 31.1424 2.7197 28.7436 2.89615C27.9511 2.95444 27.2768 3.48773 27.1411 4.27066C27.0058 5.05125 26.917 6.08177 27.1177 7.03829C27.2491 7.66455 27.8169 8.06513 28.4534 8.13122C31.1787 8.41421 35.899 8.48004 37.9478 8.49536C38.5 8.49949 38.945 8.94445 38.9491 9.49671C38.9644 11.5455 39.0303 16.2658 39.3133 18.9912C39.3794 19.6276 39.78 20.1954 40.4062 20.3268C41.3628 20.5275 42.3933 20.4387 43.1739 20.3034C43.9568 20.1677 44.4901 19.4934 44.5484 18.701C44.7249 16.3021 45.0418 11.0146 44.8032 6.55028Z" fill="#1F78F0"></path><path fill-rule="evenodd" clip-rule="evenodd" d="M44.8032 40.8943C44.6892 43.0277 43.0277 44.6892 40.8943 44.8032C36.43 45.0418 31.1424 44.7249 28.7436 44.5484C27.9511 44.4901 27.2768 43.9568 27.1411 43.1739C27.0058 42.3933 26.917 41.3628 27.1177 40.4063C27.2491 39.78 27.8169 39.3794 28.4534 39.3134C31.1787 39.0304 35.899 38.9645 37.9478 38.9492C38.5 38.9451 38.945 38.5001 38.9491 37.9479C38.9644 35.8991 39.0303 31.1788 39.3133 28.4534C39.3794 27.817 39.78 27.2491 40.4062 27.1177C41.3628 26.9171 42.3933 27.0058 43.1739 27.1411C43.9568 27.2768 44.4901 27.9512 44.5484 28.7436C44.7249 31.1424 45.0418 36.43 44.8032 40.8943Z" fill="#1F78F0"></path><path fill-rule="evenodd" clip-rule="evenodd" d="M2.64135 40.8943C2.75537 43.0277 4.41691 44.6892 6.55032 44.8032C11.0146 45.0418 16.3022 44.7249 18.701 44.5484C19.4935 44.4901 20.1678 43.9568 20.3035 43.1739C20.4388 42.3933 20.5276 41.3628 20.3269 40.4063C20.1955 39.78 19.6276 39.3794 18.9912 39.3134C16.2658 39.0304 11.5456 38.9645 9.49682 38.9492C8.94455 38.9451 8.49959 38.5001 8.49546 37.9479C8.48015 35.8991 8.4143 31.1788 8.13127 28.4534C8.06517 27.817 7.66459 27.2491 7.03835 27.1177C6.08182 26.9171 5.05129 27.0058 4.27068 27.1411C3.48776 27.2768 2.95448 27.9512 2.89618 28.7436C2.71971 31.1424 2.40277 36.43 2.64135 40.8943Z" fill="#1F78F0"></path></g></svg>