<svg viewBox="0 0 24 24" fill="none" xmlns="http://www.w3.org/2000/svg">


<g transform="matrix(0.5,0,0,0.5,0,0)"><path d="M24 3C35.598 3 45 12.402 45 24C45 35.598 35.598 45 24 45C12.402 45 3 35.598 3 24C3 12.402 12.402 3 24 3Z" fill="#91BEFF"></path><path d="M24.645 23.2298C23.3772 22.1165 20.9487 19.9323 18.6613 17.586C17.5919 16.489 17.212 14.8901 18.267 13.7793C18.3536 13.688 18.4461 13.5948 18.5449 13.5C18.8079 13.2473 19.0646 13.0364 19.3078 12.8605C20.358 12.101 21.7184 12.4118 22.7413 13.2077C26.5865 16.1996 29.4032 19.3216 31.1019 21.4334C32.3235 22.9522 32.3235 25.0478 31.1019 26.5666C29.4032 28.6784 26.5865 31.8004 22.7413 34.7923C21.7184 35.5882 20.358 35.899 19.3078 35.1395C19.0646 34.9636 18.8079 34.7527 18.5449 34.5C18.4461 34.4052 18.3536 34.312 18.267 34.2207C17.212 33.1099 17.5919 31.511 18.6613 30.414C20.9487 28.0677 23.3772 25.8836 24.645 24.7702C25.1088 24.3629 25.1088 23.6371 24.645 23.2298Z" fill="#1F78F0"></path></g></svg>