<svg viewBox="0 0 24 24" fill="none" xmlns="http://www.w3.org/2000/svg">


<g transform="matrix(0.5,0,0,0.5,0,0)"><circle r="21" transform="matrix(-1 0 0 1 24 24)" fill="#91BEFF"></circle><path fill-rule="evenodd" clip-rule="evenodd" d="M36.8304 16.0279C36.7715 15.0264 36.2057 14.1762 35.209 14.0625C34.8763 14.0245 34.4768 14 34 14C33.5232 14 33.1237 14.0245 32.791 14.0625C31.7943 14.1762 31.2285 15.0264 31.1696 16.0279C31.0887 17.4042 31 19.8575 31 24C31 28.1425 31.0887 30.5958 31.1696 31.9721C31.2285 32.9736 31.7943 33.8238 32.791 33.9375C33.1237 33.9755 33.5232 34 34 34C34.4768 34 34.8763 33.9755 35.209 33.9375C36.2057 33.8238 36.7715 32.9736 36.8304 31.9721C36.9113 30.5958 37 28.1425 37 24C37 19.8575 36.9113 17.4042 36.8304 16.0279ZM18.1724 16.6718C18.2825 14.769 20.0816 13.9562 21.5711 15.1453C22.4673 15.8607 23.577 16.794 24.9177 18C27.0446 19.9133 28.2996 21.369 29.0302 22.3671C29.7627 23.3678 29.7628 24.6322 29.0303 25.633C28.2998 26.6312 27.0447 28.0869 24.9177 30C23.5774 31.2054 22.4679 32.1385 21.5719 32.8537C20.082 34.0431 18.2824 33.2303 18.1723 31.3271C18.1082 30.2176 18.053 28.7991 18.0233 26.9984C17.6984 26.9995 17.3575 27 17 27C14.3264 27 12.5855 26.9694 11.4865 26.9365C10.3819 26.9035 9.32098 26.4276 9.1145 25.3419C9.04537 24.9785 9 24.5358 9 24C9 23.4642 9.04537 23.0215 9.1145 22.6581C9.32098 21.5724 10.3819 21.0965 11.4865 21.0635C12.5855 21.0306 14.3264 21 17 21C17.3575 21 17.6984 21.0005 18.0233 21.0016C18.053 19.2003 18.1082 17.7814 18.1724 16.6718Z" fill="#1F78F0"></path></g></svg>