<svg viewBox="0 0 24 24" fill="none" xmlns="http://www.w3.org/2000/svg">


<g transform="matrix(0.5,0,0,0.5,0,0)"><path d="M3 24C3 35.598 12.402 45 24 45C35.598 45 45 35.598 45 24C45 12.402 35.598 3 24 3C12.402 3 3 12.402 3 24Z" fill="#91BEFF"></path><path d="M23.2298 24.645C22.1165 23.3772 19.9323 20.9487 17.586 18.6613C16.489 17.5919 14.8901 17.212 13.7793 18.267C13.688 18.3536 13.5948 18.4461 13.5 18.5449C13.2473 18.8079 13.0364 19.0646 12.8605 19.3078C12.101 20.358 12.4118 21.7184 13.2077 22.7413C16.1996 26.5865 19.3216 29.4032 21.4334 31.1019C22.9522 32.3235 25.0478 32.3235 26.5666 31.1019C28.6784 29.4032 31.8004 26.5865 34.7923 22.7413C35.5882 21.7184 35.899 20.358 35.1395 19.3078C34.9636 19.0646 34.7527 18.8079 34.5 18.5449C34.4052 18.4461 34.312 18.3536 34.2207 18.267C33.1099 17.212 31.511 17.5919 30.414 18.6613C28.0677 20.9487 25.8836 23.3772 24.7702 24.645C24.3629 25.1088 23.6371 25.1088 23.2298 24.645Z" fill="#1F78F0"></path></g></svg>