<svg viewBox="0 0 24 24" fill="none" xmlns="http://www.w3.org/2000/svg">


<g transform="matrix(0.5,0,0,0.5,0,0)"><path d="M28 8C36.8366 8 44 15.1634 44 24C44 32.8366 36.8366 40 28 40C19.1634 40 12 32.8366 12 24C12 15.1634 19.1634 8 28 8Z" fill="#91BEFF"></path><path fill-rule="evenodd" clip-rule="evenodd" d="M25.9804 20.4511C25.1365 19.6686 24.238 18.8092 23.3674 17.9291C22.4907 17.0428 22.1739 15.7456 23.0098 14.8208C23.1391 14.6778 23.2846 14.5288 23.4483 14.375C23.7874 14.0565 24.1154 13.8103 24.4145 13.6206C25.2739 13.0754 26.3322 13.3176 27.1461 13.9285C31.0401 16.8509 33.8366 19.9351 35.4338 21.9087C36.4334 23.144 36.4334 24.8561 35.4338 26.0913C33.8366 28.0649 31.0401 31.1492 27.1461 34.0715C26.3322 34.6824 25.2739 34.9246 24.4145 34.3795C24.1154 34.1897 23.7874 33.9436 23.4483 33.625C23.2846 33.4712 23.1391 33.3222 23.0098 33.1792C22.1739 32.2545 22.4907 30.9572 23.3674 30.071C24.2034 29.2258 25.0653 28.3996 25.8797 27.6424C16.5382 27.57 9.21127 27.3511 5.90983 27.2371C4.83829 27.2001 4 26.3201 4 25.2479V23.0452C4 21.9891 4.81388 21.1171 5.86859 21.0624C9.16171 20.8914 16.5517 20.559 25.9804 20.4511Z" fill="#1F78F0"></path></g></svg>