<svg viewBox="0 0 24 24" fill="none" xmlns="http://www.w3.org/2000/svg">



<g transform="matrix(0.5,0,0,0.5,0,0)"><path d="M4.47884 12.4845C4.64705 10.7663 5.77606 9.41068 7.46811 9.06812C9.92988 8.56972 14.405 8 22 8C29.595 8 34.0701 8.56972 36.5319 9.06812C38.2239 9.41068 39.353 10.7663 39.5212 12.4845C39.7508 14.8304 40 18.9907 40 26C40 33.0093 39.7508 37.1696 39.5212 39.5155C39.353 41.2337 38.2239 42.5893 36.5319 42.9319C34.0701 43.4303 29.595 44 22 44C14.405 44 9.92988 43.4303 7.46811 42.9319C5.77606 42.5893 4.64705 41.2337 4.47884 39.5155C4.24918 37.1696 4 33.0093 4 26C4 18.9907 4.24918 14.8304 4.47884 12.4845Z" fill="#1F78F0"></path><path d="M9.47884 7.4845C9.64705 5.76633 10.7761 4.41068 12.4681 4.06812C14.9299 3.56972 19.405 3 27 3C34.595 3 39.0701 3.56972 41.5319 4.06812C43.2239 4.41068 44.353 5.76633 44.5212 7.4845C44.7508 9.83036 45 13.9907 45 21C45 28.0093 44.7508 32.1696 44.5212 34.5155C44.353 36.2337 43.2239 37.5893 41.5319 37.9319C39.0701 38.4303 34.595 39 27 39C19.405 39 14.9299 38.4303 12.4681 37.9319C10.7761 37.5893 9.64705 36.2337 9.47884 34.5155C9.24918 32.1696 9 28.0093 9 21C9 13.9907 9.24918 9.83036 9.47884 7.4845Z" fill="#91BEFF"></path><path fill-rule="evenodd" clip-rule="evenodd" d="M26.2514 16.4789C25.0069 16.5104 23.639 16.5229 22.2783 16.4936C21.0606 16.4674 19.9457 15.7913 19.855 14.5768C19.8394 14.3674 19.832 14.139 19.8359 13.8909C19.8429 13.4545 19.8889 13.0708 19.9542 12.7406C20.1566 11.7165 21.104 11.1245 22.1397 10.9937C26.974 10.3834 31.1476 10.6626 33.6542 10.9702C35.1912 11.1588 36.366 12.3336 36.5546 13.8707C36.8622 16.3772 37.1415 20.5509 36.5311 25.3852C36.4004 26.4209 35.8084 27.3683 34.7843 27.5707C34.4541 27.636 34.0704 27.682 33.6339 27.6889C33.3858 27.6929 33.1574 27.6855 32.9481 27.6699C31.7336 27.5792 31.0575 26.4642 31.0313 25.2466C31.002 23.8855 31.0145 22.5172 31.046 21.2724C28.2839 23.8367 25.0424 26.7124 22.4213 28.9212C21.3486 29.8252 19.7688 29.7396 18.7769 28.7477C17.785 27.7558 17.6994 26.1762 18.6032 25.1035C20.8117 22.4824 23.6872 19.241 26.2514 16.4789Z" fill="#1F78F0"></path></g></svg>