<svg viewBox="0 0 24 24" fill="none" xmlns="http://www.w3.org/2000/svg">




<g transform="matrix(0.5,0,0,0.5,0,0)"><path fill-rule="evenodd" clip-rule="evenodd" d="M20.3589 16.45C20.2449 18.5834 18.5833 20.2449 16.4499 20.3589C11.9856 20.5975 6.69808 20.2805 4.29925 20.1041C3.50679 20.0458 2.83246 19.5125 2.69676 18.7296C2.56146 17.949 2.47269 16.9185 2.67337 15.9619C2.80476 15.3357 3.37261 14.9351 4.00907 14.869C6.73441 14.586 11.4547 14.5202 13.5034 14.5049C14.0557 14.5008 14.5007 14.0558 14.5048 13.5035C14.5201 11.4548 14.5859 6.73445 14.869 4.00908C14.9351 3.37263 15.3357 2.80481 15.9619 2.67341C16.9184 2.47272 17.949 2.5615 18.7296 2.6968C19.5125 2.8325 20.0458 3.50682 20.1041 4.29927C20.2805 6.69811 20.5975 11.9857 20.3589 16.45Z" fill="#1F78F0"></path><path fill-rule="evenodd" clip-rule="evenodd" d="M27.0857 16.45C27.1997 18.5834 28.8612 20.2449 30.9947 20.3589C35.4589 20.5975 40.7465 20.2805 43.1453 20.1041C43.9378 20.0458 44.6121 19.5125 44.7478 18.7296C44.8831 17.949 44.9719 16.9185 44.7712 15.9619C44.6398 15.3357 44.072 14.9351 43.4355 14.869C40.7102 14.586 35.9899 14.5202 33.9412 14.5049C33.3889 14.5008 32.9439 14.0558 32.9398 13.5035C32.9245 11.4548 32.8586 6.73445 32.5756 4.00908C32.5095 3.37263 32.1089 2.80481 31.4827 2.67341C30.5262 2.47272 29.4956 2.5615 28.715 2.6968C27.9321 2.8325 27.3988 3.50682 27.3405 4.29927C27.164 6.69811 26.8471 11.9857 27.0857 16.45Z" fill="#1F78F0"></path><path fill-rule="evenodd" clip-rule="evenodd" d="M27.0857 30.9946C27.1997 28.8612 28.8612 27.1997 30.9947 27.0857C35.4589 26.8471 40.7465 27.164 43.1453 27.3405C43.9378 27.3988 44.6121 27.9321 44.7478 28.715C44.8831 29.4956 44.9719 30.5261 44.7712 31.4826C44.6398 32.1089 44.072 32.5095 43.4355 32.5756C40.7102 32.8585 35.9899 32.9244 33.9412 32.9397C33.3889 32.9438 32.9439 33.3888 32.9398 33.9411C32.9245 35.9898 32.8586 40.7101 32.5756 43.4355C32.5095 44.072 32.1089 44.6398 31.4827 44.7712C30.5262 44.9719 29.4956 44.8831 28.715 44.7478C27.9321 44.6121 27.3988 43.9378 27.3405 43.1453C27.164 40.7465 26.8471 35.4589 27.0857 30.9946Z" fill="#1F78F0"></path><path fill-rule="evenodd" clip-rule="evenodd" d="M20.3589 30.9946C20.2449 28.8612 18.5833 27.1997 16.4499 27.0857C11.9856 26.8471 6.69808 27.164 4.29925 27.3405C3.50679 27.3988 2.83246 27.9321 2.69676 28.715C2.56146 29.4956 2.47269 30.5261 2.67337 31.4826C2.80476 32.1089 3.3726 32.5095 4.00907 32.5756C6.73441 32.8585 11.4547 32.9244 13.5034 32.9397C14.0557 32.9438 14.5007 33.3888 14.5048 33.9411C14.5201 35.9898 14.5859 40.7101 14.869 43.4355C14.9351 44.072 15.3356 44.6398 15.9619 44.7712C16.9184 44.9719 17.949 44.8831 18.7296 44.7478C19.5125 44.6121 20.0458 43.9378 20.1041 43.1453C20.2805 40.7465 20.5975 35.4589 20.3589 30.9946Z" fill="#1F78F0"></path></g></svg>