<svg viewBox="0 0 24 24" fill="none" xmlns="http://www.w3.org/2000/svg">


<g transform="matrix(0.5,0,0,0.5,0,0)"><path d="M18.2138 4.45332C16.4148 4.66683 15.0925 5.96321 14.8337 7.75619C14.4454 10.4466 14 15.4055 14 24C14 31.7675 14.2021 36.5654 14.4003 39.4029C14.5572 41.6503 16.1591 43.3718 18.4006 43.5976C20.4967 43.8087 23.6078 44 28 44C32.3922 44 35.5033 43.8087 37.5994 43.5976C39.8409 43.3718 41.4428 41.6503 41.5998 39.4029C41.7979 36.5654 42 31.7675 42 24C42 16.2325 41.7979 11.4346 41.5998 8.59707C41.4428 6.34973 39.8409 4.62821 37.5994 4.40244C35.5033 4.19131 32.3922 4 28 4C23.2569 4 20.1536 4.22309 18.2138 4.45332Z" fill="#91BEFF"></path><path fill-rule="evenodd" clip-rule="evenodd" d="M24.3275 20.1033C23.3334 19.1935 22.2705 18.1884 21.2473 17.1614C20.3592 16.2699 20.0337 14.9637 20.8593 14.014C21.0338 13.8134 21.238 13.6006 21.477 13.379C21.9215 12.9666 22.3489 12.6641 22.7273 12.4431C23.5969 11.9351 24.6405 12.1739 25.4519 12.7705C30.0176 16.1272 33.2526 19.6963 35.0277 21.8874C36.0385 23.1351 36.0385 24.865 35.0277 26.1126C33.2526 28.3037 30.0176 31.8728 25.4519 35.2295C24.6405 35.8261 23.5969 36.065 22.7273 35.5569C22.3489 35.3359 21.9215 35.0335 21.477 34.6211C21.238 34.3994 21.0338 34.1867 20.8593 33.986C20.0337 33.0364 20.3592 31.7302 21.2473 30.8387C22.2705 29.8116 23.3334 28.8065 24.3275 27.8966C19.2733 27.7387 13.291 27.4172 8.71281 27.0553C7.17229 26.9335 6 25.6403 6 24.0949V23.9054C6 22.3602 7.17212 21.0671 8.71252 20.9452C13.2907 20.583 19.2731 20.2613 24.3275 20.1033Z" fill="#1F78F0"></path></g></svg>