<svg viewBox="0 0 24 24" fill="none" xmlns="http://www.w3.org/2000/svg">


<g transform="matrix(0.5,0,0,0.5,0,0)"><circle cx="24" cy="24" r="21" fill="#91BEFF"></circle><path fill-rule="evenodd" clip-rule="evenodd" d="M11.1696 16.0279C11.2285 15.0264 11.7943 14.1762 12.791 14.0625C13.1237 14.0245 13.5232 14 14 14C14.4768 14 14.8763 14.0245 15.209 14.0625C16.2057 14.1762 16.7715 15.0264 16.8304 16.0279C16.9113 17.4042 17 19.8575 17 24C17 28.1425 16.9113 30.5958 16.8304 31.9721C16.7715 32.9736 16.2057 33.8238 15.209 33.9375C14.8763 33.9755 14.4768 34 14 34C13.5232 34 13.1237 33.9755 12.791 33.9375C11.7943 33.8238 11.2285 32.9736 11.1696 31.9721C11.0887 30.5958 11 28.1425 11 24C11 19.8575 11.0887 17.4042 11.1696 16.0279ZM29.8276 16.6718C29.7175 14.769 27.9184 13.9562 26.4289 15.1453C25.5327 15.8607 24.423 16.794 23.0823 18C20.9554 19.9133 19.7004 21.369 18.9698 22.3671C18.2373 23.3678 18.2372 24.6322 18.9697 25.633C19.7002 26.6312 20.9553 28.0869 23.0823 30C24.4226 31.2054 25.5321 32.1385 26.4281 32.8537C27.918 34.0431 29.7176 33.2303 29.8277 31.3271C29.8918 30.2176 29.947 28.7991 29.9767 26.9984C30.3016 26.9995 30.6425 27 31 27C33.6736 27 35.4145 26.9694 36.5135 26.9365C37.6181 26.9035 38.679 26.4276 38.8855 25.3419C38.9546 24.9785 39 24.5358 39 24C39 23.4642 38.9546 23.0215 38.8855 22.6581C38.679 21.5724 37.6181 21.0965 36.5135 21.0635C35.4145 21.0306 33.6736 21 31 21C30.6425 21 30.3016 21.0005 29.9767 21.0016C29.947 19.2003 29.8918 17.7814 29.8276 16.6718Z" fill="#1F78F0"></path></g></svg>