<svg viewBox="0 0 24 24" fill="none" xmlns="http://www.w3.org/2000/svg">


<g transform="matrix(0.5,0,0,0.5,0,0)"><path d="M6.7057 4.69856C4.90677 4.91207 3.58444 6.20845 3.32564 8.00143C2.9373 10.6918 2.49194 15.6507 2.49194 24.2452C2.49194 32.0127 2.69404 36.8107 2.89219 39.6482C3.04914 41.8955 4.65104 43.617 6.89251 43.8428C8.9886 44.0539 12.0997 44.2452 16.4919 44.2452C20.8842 44.2452 23.9953 44.0539 26.0914 43.8428C28.3328 43.617 29.9348 41.8955 30.0917 39.6482C30.2899 36.8107 30.4919 32.0127 30.4919 24.2452C30.4919 16.4778 30.2899 11.6798 30.0917 8.84231C29.9348 6.59497 28.3328 4.87345 26.0914 4.64768C23.9953 4.43655 20.8842 4.24524 16.4919 4.24524C11.7489 4.24524 8.64552 4.46833 6.7057 4.69856Z" fill="#91BEFF"></path><path fill-rule="evenodd" clip-rule="evenodd" d="M34.3275 20.1033C33.3334 19.1935 32.2705 18.1884 31.2473 17.1614C30.3592 16.2699 30.0337 14.9637 30.8593 14.014C31.0338 13.8134 31.238 13.6006 31.477 13.379C31.9215 12.9666 32.3489 12.6641 32.7273 12.4431C33.5969 11.9351 34.6405 12.1739 35.4519 12.7705C40.0176 16.1272 43.2526 19.6963 45.0277 21.8874C46.0385 23.1351 46.0385 24.865 45.0277 26.1126C43.2526 28.3037 40.0176 31.8728 35.4519 35.2295C34.6405 35.8261 33.5969 36.065 32.7273 35.5569C32.3489 35.3359 31.9215 35.0335 31.477 34.6211C31.238 34.3994 31.0338 34.1867 30.8593 33.986C30.0337 33.0364 30.3592 31.7302 31.2473 30.8387C32.2705 29.8116 33.3334 28.8065 34.3275 27.8966C29.2733 27.7387 23.291 27.4172 18.7128 27.0553C17.1723 26.9335 16 25.6403 16 24.0949V23.9054C16 22.3602 17.1721 21.0671 18.7125 20.9452C23.2907 20.583 29.2731 20.2613 34.3275 20.1033Z" fill="#1F78F0"></path></g></svg>