<svg viewBox="0 0 24 24" fill="none" xmlns="http://www.w3.org/2000/svg">


<g transform="matrix(0.5,0,0,0.5,0,0)"><circle r="21" transform="matrix(4.37114e-08 1 1 -4.37114e-08 24 24)" fill="#91BEFF"></circle><path fill-rule="evenodd" clip-rule="evenodd" d="M16.0279 11.1696C15.0264 11.2285 14.1762 11.7943 14.0625 12.791C14.0245 13.1237 14 13.5232 14 14C14 14.4768 14.0245 14.8763 14.0625 15.209C14.1762 16.2057 15.0264 16.7715 16.0279 16.8304C17.4042 16.9113 19.8575 17 24 17C28.1425 17 30.5958 16.9113 31.9721 16.8304C32.9736 16.7715 33.8238 16.2057 33.9375 15.209C33.9755 14.8763 34 14.4768 34 14C34 13.5232 33.9755 13.1237 33.9375 12.791C33.8238 11.7943 32.9736 11.2285 31.9721 11.1696C30.5958 11.0887 28.1425 11 24 11C19.8575 11 17.4042 11.0887 16.0279 11.1696ZM16.6718 29.8276C14.769 29.7175 13.9562 27.9184 15.1453 26.4289C15.8607 25.5327 16.794 24.423 18 23.0823C19.9133 20.9554 21.369 19.7004 22.3671 18.9698C23.3678 18.2373 24.6322 18.2372 25.633 18.9697C26.6312 19.7002 28.0869 20.9553 30 23.0823C31.2054 24.4226 32.1385 25.5321 32.8537 26.4281C34.0431 27.918 33.2303 29.7176 31.3271 29.8277C30.2176 29.8918 28.7991 29.947 26.9984 29.9767C26.9995 30.3016 27 30.6425 27 31C27 33.6736 26.9694 35.4145 26.9365 36.5135C26.9035 37.6181 26.4276 38.679 25.3419 38.8855C24.9785 38.9546 24.5358 39 24 39C23.4642 39 23.0215 38.9546 22.6581 38.8855C21.5724 38.679 21.0965 37.6181 21.0635 36.5135C21.0306 35.4145 21 33.6736 21 31C21 30.6425 21.0005 30.3016 21.0016 29.9767C19.2003 29.947 17.7814 29.8918 16.6718 29.8276Z" fill="#1F78F0"></path></g></svg>