<svg viewBox="0 0 24 24" fill="none" xmlns="http://www.w3.org/2000/svg">



<g transform="matrix(0.5,0,0,0.5,0,0)"><path d="M24 3C35.598 3 45 12.402 45 24C45 35.598 35.598 45 24 45C12.402 45 3 35.598 3 24C3 12.402 12.402 3 24 3Z" fill="#91BEFF"></path><path fill-rule="evenodd" clip-rule="evenodd" d="M27.8654 16.9741C27.8654 16.9741 27.1507 16.9741 14.7573 17.2383C14.0393 17.2537 13.3362 17.5554 13.1531 18.2499C13.0647 18.585 13 19.0179 13 19.5671C13 20.1246 13.0667 20.5623 13.1571 20.8994C13.3407 21.584 14.0242 21.8835 14.7329 21.8993C17.2384 21.9551 23.9255 22.0671 33.4243 21.9456C35.5837 21.918 36.881 19.7258 35.5616 18.0161C33.3935 15.2067 30.623 12.5181 29.0667 11.0805C28.3246 10.3951 27.2566 10.1247 26.3607 10.5914C25.7391 10.9151 25.2706 11.2782 24.9208 11.6223C24.1742 12.3569 24.3845 13.4882 25.1011 14.2521C26.6067 15.8569 27.8654 16.9741 27.8654 16.9741Z" fill="#1F78F0"></path><path fill-rule="evenodd" clip-rule="evenodd" d="M21.1346 31.0259C21.1346 31.0259 21.8493 31.0259 34.2427 30.7617C34.9607 30.7463 35.6638 30.4446 35.8469 29.7501C35.9353 29.415 36 28.9821 36 28.4329C36 27.8754 35.9333 27.4377 35.8429 27.1006C35.6593 26.416 34.9758 26.1165 34.2671 26.1007C31.7616 26.0449 25.0745 25.9329 15.5757 26.0544C13.4163 26.082 12.119 28.2742 13.4384 29.9839C15.6065 32.7933 18.377 35.4819 19.9333 36.9195C20.6754 37.6049 21.7434 37.8753 22.6393 37.4086C23.2609 37.0849 23.7294 36.7218 24.0792 36.3777C24.8258 35.6431 24.6155 34.5118 23.8989 33.7479C22.3933 32.1431 21.1346 31.0259 21.1346 31.0259Z" fill="#1F78F0"></path></g></svg>