<svg viewBox="0 0 24 24" fill="none" xmlns="http://www.w3.org/2000/svg">


<g transform="matrix(0.5,0,0,0.5,0,0)"><path d="M3 24C3 12.402 12.402 3 24 3C35.598 3 45 12.402 45 24C45 35.598 35.598 45 24 45C12.402 45 3 35.598 3 24Z" fill="#91BEFF"></path><path d="M23.2298 23.355C22.1165 24.6228 19.9323 27.0513 17.586 29.3387C16.489 30.4081 14.8901 30.788 13.7793 29.733C13.688 29.6464 13.5948 29.5539 13.5 29.4551C13.2473 29.1921 13.0364 28.9354 12.8605 28.6922C12.101 27.642 12.4118 26.2816 13.2077 25.2587C16.1996 21.4135 19.3216 18.5968 21.4334 16.8981C22.9522 15.6765 25.0478 15.6765 26.5666 16.8981C28.6784 18.5968 31.8004 21.4135 34.7923 25.2587C35.5882 26.2816 35.899 27.642 35.1395 28.6922C34.9636 28.9354 34.7527 29.1921 34.5 29.4551C34.4052 29.5539 34.312 29.6464 34.2207 29.733C33.1099 30.788 31.511 30.4081 30.414 29.3387C28.0677 27.0513 25.8836 24.6228 24.7702 23.355C24.3629 22.8912 23.6371 22.8912 23.2298 23.355Z" fill="#1F78F0"></path></g></svg>