<svg viewBox="0 0 24 24" fill="none" xmlns="http://www.w3.org/2000/svg">


<g transform="matrix(0.5,0,0,0.5,0,0)"><circle cx="24" cy="24" r="21" transform="rotate(-90 24 24)" fill="#91BEFF"></circle><path fill-rule="evenodd" clip-rule="evenodd" d="M16.0279 36.8304C15.0264 36.7715 14.1762 36.2057 14.0625 35.209C14.0245 34.8763 14 34.4768 14 34C14 33.5232 14.0245 33.1237 14.0625 32.791C14.1762 31.7943 15.0264 31.2285 16.0279 31.1696C17.4042 31.0887 19.8575 31 24 31C28.1425 31 30.5958 31.0887 31.9721 31.1696C32.9736 31.2285 33.8238 31.7943 33.9375 32.791C33.9755 33.1237 34 33.5232 34 34C34 34.4768 33.9755 34.8763 33.9375 35.209C33.8238 36.2057 32.9736 36.7715 31.9721 36.8304C30.5958 36.9113 28.1425 37 24 37C19.8575 37 17.4042 36.9113 16.0279 36.8304ZM16.6718 18.1724C14.769 18.2825 13.9562 20.0816 15.1453 21.5711C15.8607 22.4673 16.794 23.577 18 24.9177C19.9133 27.0446 21.369 28.2996 22.3671 29.0302C23.3678 29.7627 24.6322 29.7628 25.633 29.0303C26.6312 28.2998 28.0869 27.0447 30 24.9177C31.2054 23.5774 32.1385 22.4679 32.8537 21.5719C34.0431 20.082 33.2303 18.2824 31.3271 18.1723C30.2176 18.1082 28.7991 18.053 26.9984 18.0233C26.9995 17.6984 27 17.3575 27 17C27 14.3264 26.9694 12.5855 26.9365 11.4865C26.9035 10.3819 26.4276 9.32098 25.3419 9.1145C24.9785 9.04537 24.5358 9 24 9C23.4642 9 23.0215 9.04537 22.6581 9.1145C21.5724 9.32098 21.0965 10.3819 21.0635 11.4865C21.0306 12.5855 21 14.3264 21 17C21 17.3575 21.0005 17.6984 21.0016 18.0233C19.2003 18.053 17.7814 18.1082 16.6718 18.1724Z" fill="#1F78F0"></path></g></svg>