<svg viewBox="0 0 24 24" fill="none" xmlns="http://www.w3.org/2000/svg">



<g transform="matrix(0.5,0,0,0.5,0,0)"><path d="M4.47884 12.4845C4.64705 10.7663 5.77606 9.41068 7.46811 9.06812C9.92988 8.56972 14.405 8 22 8C29.595 8 34.0701 8.56972 36.5319 9.06812C38.2239 9.41068 39.353 10.7663 39.5212 12.4845C39.7508 14.8304 40 18.9907 40 26C40 33.0093 39.7508 37.1696 39.5212 39.5155C39.353 41.2337 38.2239 42.5893 36.5319 42.9319C34.0701 43.4303 29.595 44 22 44C14.405 44 9.92988 43.4303 7.46811 42.9319C5.77606 42.5893 4.64705 41.2337 4.47884 39.5155C4.24918 37.1696 4 33.0093 4 26C4 18.9907 4.24918 14.8304 4.47884 12.4845Z" fill="#1F78F0"></path><path d="M44.5212 34.5155C44.353 36.2337 43.2239 37.5893 41.5319 37.9319C39.0701 38.4303 34.595 39 27 39C19.405 39 14.9299 38.4303 12.4681 37.9319C10.7761 37.5893 9.64705 36.2337 9.47884 34.5155C9.24918 32.1696 9 28.0093 9 21C9 13.9907 9.24919 9.83036 9.47884 7.48449C9.64705 5.76633 10.7761 4.41068 12.4681 4.06811C14.9299 3.56972 19.405 3 27 3C34.595 3 39.0701 3.56972 41.5319 4.06812C43.2239 4.41068 44.353 5.76633 44.5212 7.4845C44.7508 9.83036 45 13.9907 45 21C45 28.0093 44.7508 32.1696 44.5212 34.5155Z" fill="#91BEFF"></path><path fill-rule="evenodd" clip-rule="evenodd" d="M27.7486 25.5211C28.9931 25.4896 30.361 25.4771 31.7217 25.5064C32.9394 25.5326 34.0543 26.2087 34.145 27.4232C34.1606 27.6326 34.168 27.861 34.1641 28.1091C34.1571 28.5455 34.1111 28.9292 34.0458 29.2594C33.8434 30.2835 32.896 30.8755 31.8603 31.0063C27.026 31.6166 22.8524 31.3373 20.3458 31.0298C18.8088 30.8412 17.634 29.6664 17.4454 28.1293C17.1378 25.6228 16.8585 21.4491 17.4689 16.6148C17.5996 15.5791 18.1916 14.6317 19.2157 14.4293C19.546 14.364 19.9296 14.318 20.3661 14.3111C20.6142 14.3071 20.8426 14.3145 21.0519 14.3301C22.2664 14.4208 22.9425 15.5358 22.9687 16.7534C22.998 18.1145 22.9855 19.4828 22.954 20.7276C25.7161 18.1633 28.9576 15.2876 31.5787 13.0788C32.6514 12.1748 34.2312 12.2604 35.2231 13.2523C36.215 14.2442 36.3006 15.8238 35.3968 16.8965C33.1883 19.5176 30.3128 22.759 27.7486 25.5211Z" fill="#1F78F0"></path></g></svg>