<svg viewBox="0 0 24 24" fill="none" xmlns="http://www.w3.org/2000/svg">



<g transform="matrix(0.4897959183673469,0,0,0.4897959183673469,0,0)"><path d="M44.1892 24C44.1892 35.0457 35.2349 44 24.1892 44C13.1435 44 4.18921 35.0457 4.18921 24C4.18921 12.9543 13.1435 4 24.1892 4C35.2349 4 44.1892 12.9543 44.1892 24Z" fill="#91BEFF"></path><path d="M18.1181 25.072C17.5865 25.072 17.0434 24.8314 16.9421 24.3096C16.9094 24.1414 16.8931 23.9582 16.8931 23.76C16.8931 23.2693 16.9997 22.9173 17.2131 22.704C17.4264 22.4907 17.6931 22.384 18.0131 22.384H20.3491C19.5384 21.104 18.7597 19.824 18.0131 18.544C17.5142 17.6888 17.0868 16.9003 16.7307 16.1784C16.42 15.5484 16.4714 14.7476 17.067 14.3751C17.4486 14.1365 17.8878 14 18.3651 14C18.9837 14 19.4637 14.1387 19.8051 14.416C20.1464 14.672 20.5091 15.1413 20.8931 15.824L24.4131 22.064H24.6051C24.9891 21.3387 25.3304 20.688 25.6291 20.112C25.9491 19.5147 26.2477 18.928 26.5251 18.352C26.8024 17.7547 27.0904 17.1467 27.3891 16.528C27.524 16.2485 27.6676 15.9516 27.82 15.6372C28.204 14.845 28.8344 14.1383 29.7084 14.0329C29.8902 14.011 30.0771 14 30.2691 14C30.8237 14 31.2717 14.1493 31.6131 14.448C31.9544 14.7467 32.1251 15.152 32.1251 15.664C32.1251 16.0267 31.8264 16.7627 31.2291 17.872C30.6317 18.96 29.7464 20.464 28.5731 22.384H30.6062C31.199 22.384 31.7754 22.7251 31.8874 23.3072C31.9163 23.4579 31.9331 23.6095 31.9331 23.76C31.9331 24.208 31.8157 24.5387 31.5811 24.752C31.3677 24.9653 31.0904 25.072 30.7491 25.072H18.1181ZM26.4611 29.648V32.2176C26.4611 33.0207 25.9162 33.7479 25.1161 33.8162C24.9351 33.8317 24.7539 33.84 24.5731 33.84C23.7837 33.84 23.2184 33.6907 22.8771 33.392C22.5357 33.0933 22.3651 32.6027 22.3651 31.92V29.648H18.1182C17.5865 29.648 17.0457 29.4064 16.9444 28.8845C16.9102 28.7081 16.8931 28.5146 16.8931 28.304C16.8931 27.792 16.9997 27.44 17.2131 27.248C17.4264 27.056 17.6931 26.96 18.0131 26.96H30.622C31.1902 26.96 31.743 27.2756 31.8526 27.8331C31.8836 27.9909 31.9011 28.1494 31.9011 28.304C31.9011 28.7733 31.7837 29.1147 31.5491 29.328C31.3357 29.5413 31.0691 29.648 30.7491 29.648H26.4611Z" fill="#1F78F0"></path><path d="M21.9392 24.6132H26.9392L26.467 25.6132V26.6132V28.6132H22.3811V26.6132V25.6132L21.9392 24.6132Z" fill="#1F78F0"></path></g></svg>