<svg viewBox="0 0 24 24" fill="none" xmlns="http://www.w3.org/2000/svg">


<g transform="matrix(0.4897959183673469,0,0,0.4897959183673469,0,0)"><path d="M44.1892 24C44.1892 35.0457 35.2349 44 24.1892 44C13.1435 44 4.18921 35.0457 4.18921 24C4.18921 12.9543 13.1435 4 24.1892 4C35.2349 4 44.1892 12.9543 44.1892 24Z" fill="#91BEFF"></path><path d="M19.9413 26.768C19.9413 26.64 19.9306 26.512 19.9093 26.384C19.9093 26.2347 19.9093 26.0747 19.9093 25.904H18.6613C18.2559 25.904 17.9253 25.7867 17.6693 25.552C17.4133 25.296 17.2853 24.8693 17.2853 24.272C17.2853 24.04 17.316 23.8168 17.3699 23.5998C17.5068 23.0484 18.0602 22.736 18.6283 22.736H19.5893C19.5466 22.3733 19.5146 22.0213 19.4933 21.68C19.4719 21.3173 19.4613 20.9867 19.4613 20.688C19.4613 19.5147 19.6426 18.512 20.0053 17.68C20.3679 16.8267 20.8586 16.1333 21.4773 15.6C22.1173 15.0453 22.8533 14.64 23.6853 14.384C24.5386 14.128 25.4453 14 26.4053 14C27.8133 14 28.8693 14.2347 29.5733 14.704C30.2986 15.152 30.6613 15.728 30.6613 16.432C30.6613 16.6732 30.6184 16.9311 30.5331 17.175C30.2923 17.8639 29.4502 17.8309 28.7594 17.5958C28.679 17.5684 28.5983 17.5432 28.5173 17.52C28.0906 17.3707 27.5679 17.296 26.9493 17.296C25.7973 17.296 24.9226 17.584 24.3253 18.16C23.7493 18.736 23.4613 19.664 23.4613 20.944C23.4613 21.2 23.4613 21.4773 23.4613 21.776C23.4826 22.0747 23.5039 22.3947 23.5253 22.736H27.7502C28.3184 22.736 28.8661 23.0505 29.0042 23.6016C29.0601 23.8246 29.0933 24.0511 29.0933 24.272C29.0933 24.8693 28.9653 25.296 28.7093 25.552C28.4533 25.7867 28.1119 25.904 27.6853 25.904H23.8453C23.8666 26.0747 23.8773 26.2453 23.8773 26.416C23.8773 26.5653 23.8773 26.704 23.8773 26.832C23.8773 28.5173 23.4293 29.8187 22.5333 30.736H29.6956C30.3311 30.736 30.9466 31.0801 31.0563 31.7062C31.0916 31.9078 31.1093 32.1103 31.1093 32.304C31.1093 32.8587 30.9813 33.2747 30.7253 33.552C30.4693 33.808 30.1279 33.936 29.7013 33.936H18.9813C18.4906 33.936 18.0639 33.7653 17.7013 33.424C17.4605 33.1681 17.3056 32.8297 17.2295 32.4709C17.0946 31.8344 17.5918 31.3072 18.1303 30.9419C18.6048 30.62 18.9844 30.242 19.2693 29.808C19.7173 29.1253 19.9413 28.112 19.9413 26.768Z" fill="#1F78F0"></path></g></svg>