<svg viewBox="0 0 24 24" fill="none" xmlns="http://www.w3.org/2000/svg">


<g transform="matrix(0.5,0,0,0.5,0,0)"><circle cx="24" cy="24" r="20" fill="#91BEFF"></circle><path fill-rule="evenodd" clip-rule="evenodd" d="M25.2816 12.4976C24.5599 11.7961 23.44 11.7961 22.7183 12.4977C20.7664 14.3951 17.0131 18.3223 14.5227 22.6825C14.0559 23.4998 14.0559 24.5002 14.5227 25.3175C17.0131 29.6777 20.7664 33.6049 22.7183 35.5023C23.44 36.2039 24.5599 36.2039 25.2816 35.5024C27.2337 33.605 30.9874 29.6776 33.4774 25.3173C33.9441 24.5001 33.9441 23.4999 33.4774 22.6827C30.9874 18.3224 27.2337 14.395 25.2816 12.4976ZM19.6131 26.8936C21.7483 29.6353 23.9999 31.2785 23.9999 31.2785C23.9999 31.2785 26.2528 29.6351 28.3882 26.893C26.4954 27.6845 24.5452 28.4403 24 28.4403C23.4549 28.4403 21.5055 27.6849 19.6131 26.8936ZM29.787 23.1222C27.3827 19.1891 23.9999 16.7215 23.9999 16.7215C23.9999 16.7215 20.6183 19.1892 18.2137 23.1224C20.1945 23.9255 23.2441 25.1101 24.0003 25.1101C24.7566 25.1101 27.8064 23.9253 29.787 23.1222Z" fill="#1F78F0"></path></g></svg>