<svg viewBox="0 0 24 24" fill="none" xmlns="http://www.w3.org/2000/svg">


<g transform="matrix(0.4897959183673469,0,0,0.4897959183673469,0,0)"><path d="M44.1892 24C44.1892 35.0457 35.2349 44 24.1892 44C13.1435 44 4.18921 35.0457 4.18921 24C4.18921 12.9543 13.1435 4 24.1892 4C35.2349 4 44.1892 12.9543 44.1892 24Z" fill="#91BEFF"></path><path fill-rule="evenodd" clip-rule="evenodd" d="M21.9252 30.288C20.9865 29.712 20.2719 28.8693 19.7812 27.76H27.0452C27.3652 27.76 27.6212 27.6533 27.8132 27.44C28.0265 27.2267 28.1332 26.9067 28.1332 26.48C28.1332 26.3329 28.1173 26.1854 28.0889 26.0395C27.9805 25.4818 27.4223 25.168 26.8542 25.168H19.1808C19.1481 24.8769 19.1312 24.5801 19.1312 24.2788C19.1312 23.9728 19.1486 23.6715 19.1824 23.376H27.0452C27.3652 23.376 27.6212 23.28 27.8132 23.088C28.0265 22.8747 28.1332 22.544 28.1332 22.096C28.1332 21.9517 28.1167 21.8037 28.0875 21.6561C27.9775 21.0987 27.4223 20.784 26.8542 20.784H19.7812C20.2719 19.632 20.9865 18.768 21.9252 18.192C22.8639 17.616 23.9412 17.328 25.1572 17.328C26.1812 17.328 27.0345 17.4773 27.7172 17.776C27.9919 17.8876 28.2561 18.0061 28.5101 18.1314C29.1836 18.464 30.063 18.5456 30.4523 17.9033C30.6241 17.6199 30.7252 17.2964 30.7252 16.944C30.7252 16.5387 30.5759 16.1653 30.2772 15.824C29.9999 15.4613 29.5945 15.152 29.0612 14.896C28.5492 14.6187 27.9092 14.4053 27.1412 14.256C26.3945 14.0853 25.5625 14 24.6452 14C22.4905 14 20.6025 14.576 18.9812 15.728C17.3599 16.88 16.2399 18.5653 15.6212 20.784H14.2772C13.9785 20.784 13.7225 20.88 13.5092 21.072C13.2959 21.264 13.1892 21.6053 13.1892 22.096C13.1892 22.2987 13.2063 22.4843 13.2405 22.6528C13.3421 23.1535 13.8672 23.376 14.3781 23.376H15.3812V25.168H14.2772C13.9785 25.168 13.7225 25.264 13.5092 25.456C13.2959 25.648 13.1892 25.9893 13.1892 26.48C13.1892 26.6658 13.2047 26.8387 13.2358 26.9986C13.3372 27.5205 13.8827 27.76 14.4143 27.76H15.5892C15.8665 28.8693 16.2932 29.84 16.8692 30.672C17.4665 31.504 18.1705 32.208 18.9812 32.784C19.7919 33.3387 20.6985 33.7547 21.7012 34.032C22.7252 34.3093 23.8132 34.448 24.9652 34.448C26.1172 34.448 27.0665 34.3413 27.8132 34.128C28.5812 33.9147 29.1785 33.68 29.6052 33.424C30.4372 32.9547 30.8532 32.3467 30.8532 31.6C30.8532 31.2777 30.7762 30.9799 30.6404 30.7123C30.2835 30.0088 29.346 30.0682 28.634 30.4078C28.3921 30.5231 28.1399 30.6325 27.8772 30.736C27.1945 30.992 26.3519 31.12 25.3492 31.12C24.0052 31.12 22.8639 30.8427 21.9252 30.288Z" fill="#1F78F0"></path></g></svg>