<svg viewBox="0 0 24 24" fill="none" xmlns="http://www.w3.org/2000/svg">


<g transform="matrix(0.4897959183673469,0,0,0.4897959183673469,0,0)"><path d="M44.1892 24C44.1892 35.0457 35.2349 44 24.1892 44C13.1435 44 4.18921 35.0457 4.18921 24C4.18921 12.9543 13.1435 4 24.1892 4C35.2349 4 44.1892 12.9543 44.1892 24Z" fill="#91BEFF"></path><path d="M23.4692 30.416C24.6212 30.416 25.4532 30.2027 25.9652 29.776C26.4985 29.3493 26.7652 28.8267 26.7652 28.208C26.7652 27.6533 26.5625 27.2053 26.1572 26.864C25.7519 26.5227 25.1439 26.224 24.3332 25.968L22.5732 25.392C21.6985 25.1147 20.9092 24.816 20.2052 24.496C19.5012 24.176 18.9039 23.792 18.4132 23.344C17.9225 22.896 17.5385 22.3627 17.2612 21.744C16.9839 21.1253 16.8452 20.3893 16.8452 19.536C16.8452 18.0853 17.2932 16.88 18.1892 15.92C19.0852 14.96 20.3652 14.32 22.0292 14V12.8383C22.0292 12.0353 22.5761 11.3136 23.3775 11.2624C23.5265 11.2529 23.6748 11.248 23.8212 11.248C24.6105 11.248 25.1759 11.3867 25.5172 11.664C25.8799 11.9413 26.0612 12.4427 26.0612 13.168V13.872C27.4265 14.0213 28.5359 14.352 29.3892 14.864C30.2425 15.3547 30.6692 16.0053 30.6692 16.816C30.6692 17.1847 30.5783 17.5256 30.4215 17.834C30.0341 18.5958 29.0128 18.554 28.2103 18.2599C27.9896 18.1791 27.7532 18.1031 27.5012 18.032C26.6905 17.776 25.8052 17.648 24.8452 17.648C23.7785 17.648 22.9785 17.8293 22.4452 18.192C21.9332 18.5333 21.6772 18.9813 21.6772 19.536C21.6772 19.984 21.8479 20.3467 22.1892 20.624C22.5519 20.9013 23.0959 21.1573 23.8212 21.392L25.6132 21.936C27.5332 22.5333 29.0052 23.3227 30.0292 24.304C31.0745 25.2853 31.5972 26.608 31.5972 28.272C31.5972 29.744 31.1279 30.992 30.1892 32.016C29.2505 33.0187 27.8745 33.6907 26.0612 34.032V35.1616C26.0612 35.9646 25.5142 36.6865 24.7129 36.7376C24.564 36.7471 24.4157 36.752 24.2692 36.752C23.4799 36.752 22.9039 36.6133 22.5412 36.336C22.1999 36.0587 22.0292 35.5573 22.0292 34.832V34.192C20.4719 34.0213 19.2025 33.648 18.2212 33.072C17.2612 32.4747 16.7812 31.728 16.7812 30.832C16.7812 30.3073 16.9655 29.8518 17.2611 29.469C17.7695 28.8107 18.7314 28.9629 19.4554 29.3722C19.7632 29.5461 20.0984 29.7127 20.4612 29.872C21.3359 30.2347 22.3385 30.416 23.4692 30.416Z" fill="#1F78F0"></path></g></svg>