<svg viewBox="0 0 24 24" fill="none" xmlns="http://www.w3.org/2000/svg">



<g transform="matrix(0.4897959183673469,0,0,0.4897959183673469,0,0)"><path d="M44.1892 24C44.1892 35.0457 35.2349 44 24.1892 44C13.1435 44 4.18921 35.0457 4.18921 24C4.18921 12.9543 13.1435 4 24.1892 4C35.2349 4 44.1892 12.9543 44.1892 24Z" fill="#91BEFF"></path><path d="M17.2981 21.16C16.834 21.16 16.3568 20.9722 16.2548 20.5194C16.2037 20.2929 16.1892 20.0553 16.1892 19.848C16.1892 19.336 16.2959 18.9733 16.5092 18.76C16.7439 18.5253 17.0319 18.408 17.3732 18.408H30.8407C31.3141 18.408 31.7704 18.6687 31.901 19.1238C31.9604 19.3306 31.9972 19.5423 31.9972 19.752C31.9972 20.2427 31.8799 20.6053 31.6452 20.84C31.4105 21.0533 31.1225 21.16 30.7812 21.16H28.5732C28.5732 23.144 28.0399 24.712 26.9732 25.864C25.9065 26.9947 24.4452 27.6133 22.5892 27.72L27.9937 32.4736C28.4417 32.8678 28.7367 33.4571 28.5422 34.0212C28.4461 34.2997 28.3071 34.546 28.1252 34.76C27.7839 35.1867 27.2932 35.4 26.6532 35.4C26.2479 35.4 25.8745 35.2827 25.5332 35.048C25.1919 34.8133 24.8185 34.4827 24.4132 34.056L18.2372 27.688C18.1305 27.368 18.0772 27.08 18.0772 26.824C18.0772 26.2053 18.3332 25.7253 18.8452 25.384H20.5732C21.9172 25.384 22.9305 25.032 23.6132 24.328C24.3172 23.624 24.6692 22.568 24.6692 21.16H17.2981ZM17.3929 15.752C16.8735 15.752 16.3426 15.5212 16.2421 15.0116C16.2027 14.8124 16.1892 14.6068 16.1892 14.408C16.1892 13.9173 16.2959 13.5653 16.5092 13.352C16.7439 13.1173 17.0319 13 17.3732 13H30.9442C31.3622 13 31.7712 13.2056 31.8904 13.6062C31.9601 13.8404 31.9972 14.085 31.9972 14.312C31.9972 14.8453 31.8799 15.2187 31.6452 15.432C31.4105 15.6453 31.1225 15.752 30.7812 15.752H17.3929Z" fill="#1F78F0"></path><path d="M26.9732 14.856C28.0399 16.008 28.5732 17.576 28.5732 19.56H24.6692C24.6692 18.152 24.3172 17.096 23.6132 16.392C22.9306 15.688 21.9172 15.336 20.5732 15.336L22.5892 13C24.4452 13.1067 25.9066 13.7253 26.9732 14.856Z" fill="#1F78F0"></path></g></svg>