<svg viewBox="0 0 24 24" fill="none" xmlns="http://www.w3.org/2000/svg">






<g transform="matrix(0.5,0,0,0.5,0,0)"><path d="M4.52758 12.5257C4.7157 10.7823 5.89653 9.43803 7.61934 9.11162C10.3011 8.60351 15.3145 8 24 8C32.6855 8 37.6989 8.6035 40.3807 9.11161C42.1035 9.43803 43.2843 10.7823 43.4724 12.5257C43.7263 14.8789 44 19.0315 44 26C44 32.9685 43.7263 37.1211 43.4724 39.4743C43.2843 41.2177 42.1035 42.562 40.3807 42.8884C37.6989 43.3965 32.6855 44 24 44C15.3145 44 10.3011 43.3965 7.61934 42.8884C5.89653 42.562 4.7157 41.2177 4.52758 39.4743C4.27365 37.1211 4 32.9685 4 26C4 19.0315 4.27365 14.8789 4.52758 12.5257Z" fill="#91BEFF"></path><path fill-rule="evenodd" clip-rule="evenodd" d="M43.7516 16H4.24805C4.33354 14.5511 4.43187 13.411 4.52741 12.5257C4.71552 10.7823 5.89635 9.43803 7.61917 9.11162C10.3009 8.60351 15.3143 8 23.9998 8C32.6853 8 37.6987 8.6035 40.3805 9.11161C42.1033 9.43803 43.2841 10.7823 43.4722 12.5257C43.5678 13.411 43.6661 14.5511 43.7516 16Z" fill="#1F78F0"></path><path fill-rule="evenodd" clip-rule="evenodd" d="M16.9272 5.19777C16.8848 4.57195 16.4552 4.11405 15.8301 4.06251C15.4047 4.02744 14.8124 4 14 4C13.1876 4 12.5953 4.02744 12.1699 4.06251C11.5448 4.11405 11.1152 4.57195 11.0728 5.19777C11.0338 5.77271 11 6.65835 11 8C11 9.34165 11.0338 10.2273 11.0728 10.8022C11.1151 11.428 11.5448 11.8859 12.1699 11.9375C12.5953 11.9726 13.1876 12 14 12C14.8124 12 15.4047 11.9726 15.8301 11.9375C16.4552 11.8859 16.8848 11.428 16.9272 10.8022C16.9662 10.2273 17 9.34165 17 8C17 6.65835 16.9662 5.77271 16.9272 5.19777ZM36.9272 5.19777C36.8848 4.57195 36.4552 4.11405 35.8301 4.06251C35.4047 4.02744 34.8124 4 34 4C33.1876 4 32.5953 4.02744 32.1699 4.06251C31.5448 4.11405 31.1152 4.57195 31.0728 5.19777C31.0338 5.77271 31 6.65835 31 8C31 9.34165 31.0338 10.2273 31.0728 10.8022C31.1152 11.428 31.5448 11.8859 32.1699 11.9375C32.5953 11.9726 33.1876 12 34 12C34.8124 12 35.4047 11.9726 35.8301 11.9375C36.4552 11.8859 36.8848 11.428 36.9272 10.8022C36.9662 10.2273 37 9.34165 37 8C37 6.65835 36.9662 5.77271 36.9272 5.19777Z" fill="#1F78F0"></path><path d="M23.1128 40C23.8007 40 24.4404 39.6464 24.8063 39.0639L30.5 30L23.2919 30L20.8543 38.7311C20.6763 39.3686 21.1556 40 21.8174 40L23.1128 40Z" fill="#1F78F0"></path><path d="M23.1128 20C23.8007 20 24.4404 20.3536 24.8063 20.9361L30.5 30L23.2919 30L20.8543 21.2689C20.6763 20.6314 21.1556 20 21.8174 20L23.1128 20Z" fill="#1F78F0"></path><path d="M31.7619 27.0952C33.4557 27.307 34.6361 27.861 35.4413 28.4461C36.6877 29.3517 36.6877 31.1245 35.4413 32.0301C34.6361 32.6152 33.4557 33.1692 31.7619 33.381C24.9524 33.119 18.2381 32.3333 18.2381 32.3333L15.681 34.8904C15.306 35.2655 14.7972 35.4762 14.2668 35.4762L13.477 35.4762C12.7696 35.4762 12.2858 34.7617 12.5486 34.1048L14.0952 30.2381L12.5486 26.3714C12.2858 25.7145 12.7696 25 13.477 25L14.2668 25C14.7972 25 15.306 25.2107 15.681 25.5858L18.2381 28.1429C18.2381 28.1429 24.9524 27.3571 31.7619 27.0952Z" fill="#1F78F0"></path></g></svg>