<svg viewBox="0 0 24 24" fill="none" xmlns="http://www.w3.org/2000/svg">





<g transform="matrix(0.5,0,0,0.5,0,0)"><path d="M4.52758 12.5257C4.7157 10.7823 5.89653 9.43803 7.61934 9.11162C10.3011 8.60351 15.3145 8 24 8C32.6855 8 37.6989 8.6035 40.3807 9.11161C42.1035 9.43803 43.2843 10.7823 43.4724 12.5257C43.7263 14.8789 44 19.0315 44 26C44 32.9685 43.7263 37.1211 43.4724 39.4743C43.2843 41.2177 42.1035 42.562 40.3807 42.8884C37.6989 43.3965 32.6855 44 24 44C15.3145 44 10.3011 43.3965 7.61934 42.8884C5.89653 42.562 4.7157 41.2177 4.52758 39.4743C4.27365 37.1211 4 32.9685 4 26C4 19.0315 4.27365 14.8789 4.52758 12.5257Z" fill="#91BEFF"></path><path fill-rule="evenodd" clip-rule="evenodd" d="M43.7516 16H4.24805C4.33354 14.5511 4.43187 13.411 4.52741 12.5257C4.71552 10.7823 5.89635 9.43803 7.61917 9.11162C10.3009 8.60351 15.3143 8 23.9998 8C32.6853 8 37.6987 8.6035 40.3805 9.11161C42.1033 9.43803 43.2841 10.7823 43.4722 12.5257C43.5678 13.411 43.6661 14.5511 43.7516 16Z" fill="#1F78F0"></path><path d="M35.8301 4.06251C36.4552 4.11405 36.8848 4.57195 36.9272 5.19777C36.9662 5.77271 37 6.65835 37 8C37 9.34165 36.9662 10.2273 36.9272 10.8022C36.8848 11.428 36.4552 11.8859 35.8301 11.9375C35.4047 11.9726 34.8124 12 34 12C33.1876 12 32.5953 11.9726 32.1699 11.9375C31.5448 11.8859 31.1152 11.428 31.0728 10.8022C31.0338 10.2273 31 9.34165 31 8C31 6.65835 31.0338 5.77271 31.0728 5.19777C31.1152 4.57195 31.5448 4.11405 32.1699 4.06251C32.5953 4.02744 33.1876 4 34 4C34.8124 4 35.4047 4.02744 35.8301 4.06251Z" fill="#1F78F0"></path><path d="M15.8301 4.06251C16.4552 4.11405 16.8848 4.57195 16.9272 5.19777C16.9662 5.77271 17 6.65835 17 8C17 9.34165 16.9662 10.2273 16.9272 10.8022C16.8848 11.428 16.4552 11.8859 15.8301 11.9375C15.4047 11.9726 14.8124 12 14 12C13.1876 12 12.5953 11.9726 12.1699 11.9375C11.5448 11.8859 11.1152 11.428 11.0728 10.8022C11.0338 10.2273 11 9.34165 11 8C11 6.65835 11.0338 5.77271 11.0728 5.19777C11.1152 4.57195 11.5448 4.11405 12.1699 4.06251C12.5953 4.02744 13.1876 4 14 4C14.8124 4 15.4047 4.02744 15.8301 4.06251Z" fill="#1F78F0"></path><path fill-rule="evenodd" clip-rule="evenodd" d="M15.0664 23.1603C13.8658 23.2032 13 24.1475 13 25.349V25.822C13 26.945 13.7679 27.8181 14.8898 27.8674C16.4187 27.9347 19.1515 28 24 28C28.8485 28 31.5813 27.9347 33.1102 27.8674C34.2321 27.8181 35 26.945 35 25.822V25.0245C35 23.9754 34.3117 23.163 33.2641 23.1065C31.7673 23.0256 29.0158 22.9556 24 23C19.3328 23.0413 16.626 23.1046 15.0664 23.1603ZM14.8903 32.1005C13.7688 32.1585 13 33.055 13 34.178V34.822C13 35.945 13.7688 36.8415 14.8903 36.8995C15.9455 36.954 17.559 37 20 37C22.441 37 24.0545 36.954 25.1097 36.8995C26.2312 36.8415 27 35.945 27 34.822V34.178C27 33.055 26.2312 32.1585 25.1097 32.1005C24.0545 32.046 22.441 32 20 32C17.559 32 15.9455 32.046 14.8903 32.1005Z" fill="#1F78F0"></path></g></svg>