<svg viewBox="0 0 24 24" fill="none" xmlns="http://www.w3.org/2000/svg">







<g transform="matrix(0.5,0,0,0.5,0,0)"><path d="M4.51787 11.8806C4.69168 10.4201 5.70341 9.31093 7.14911 9.04075C9.61827 8.5793 14.4256 8 23 8C31.5744 8 36.3817 8.5793 38.8509 9.04075C40.2966 9.31093 41.3083 10.4201 41.4821 11.8806C41.7279 13.9456 42 17.6629 42 24C42 30.3371 41.7279 34.0544 41.4821 36.1194C41.3083 37.5799 40.2966 38.6891 38.8509 38.9593C36.3817 39.4207 31.5744 40 23 40C14.4256 40 9.61827 39.4207 7.14911 38.9593C5.70341 38.6891 4.69168 37.5799 4.51787 36.1194C4.27211 34.0544 4 30.3371 4 24C4 17.6629 4.27211 13.9456 4.51787 11.8806Z" fill="#91BEFF"></path><path fill-rule="evenodd" clip-rule="evenodd" d="M41.8159 16H4.18433C4.2662 14.463 4.36641 13.2643 4.46577 12.3418C4.65476 10.5871 5.8678 9.25797 7.60711 8.95865C10.194 8.51347 14.9275 8 23.0001 8C31.0727 8 35.8062 8.51347 38.3931 8.95865C40.1324 9.25797 41.3455 10.5871 41.5345 12.3418C41.6338 13.2643 41.734 14.463 41.8159 16Z" fill="#1F78F0"></path><path d="M34.8301 4.06251C35.4552 4.11405 35.8848 4.57195 35.9272 5.19777C35.9662 5.77271 36 6.65835 36 8C36 9.34165 35.9662 10.2273 35.9272 10.8022C35.8848 11.428 35.4552 11.8859 34.8301 11.9375C34.4047 11.9726 33.8124 12 33 12C32.1876 12 31.5953 11.9726 31.1699 11.9375C30.5448 11.8859 30.1152 11.428 30.0728 10.8022C30.0338 10.2273 30 9.34165 30 8C30 6.65835 30.0338 5.77271 30.0728 5.19777C30.1152 4.57195 30.5448 4.11405 31.1699 4.06251C31.5953 4.02744 32.1876 4 33 4C33.8124 4 34.4047 4.02744 34.8301 4.06251Z" fill="#1F78F0"></path><path d="M14.8301 4.06251C15.4552 4.11405 15.8848 4.57195 15.9272 5.19777C15.9662 5.77271 16 6.65835 16 8C16 9.34165 15.9662 10.2273 15.9272 10.8022C15.8848 11.428 15.4552 11.8859 14.8301 11.9375C14.4047 11.9726 13.8124 12 13 12C12.1876 12 11.5953 11.9726 11.1699 11.9375C10.5448 11.8859 10.1152 11.428 10.0728 10.8022C10.0338 10.2273 10 9.34165 10 8C10 6.65835 10.0338 5.77271 10.0728 5.19777C10.1152 4.57195 10.5448 4.11405 11.1699 4.06251C11.5953 4.02744 12.1876 4 13 4C13.8124 4 14.4047 4.02744 14.8301 4.06251Z" fill="#1F78F0"></path><path fill-rule="evenodd" clip-rule="evenodd" d="M32.8394 22.5256C33.388 22.3731 33.8595 22.8443 33.8856 23.4131C33.9514 24.8506 34.2198 26.4782 34.9948 27.529C35.3438 28.0022 36.0157 28.1184 36.4348 27.706C36.9363 27.2124 37.319 26.4222 37.6073 25.5788C37.8379 24.9044 38.6494 24.5939 39.2028 25.0431C42.0482 27.3525 45 30.9028 45 35.6942C45 42.0796 40.0751 44.9436 34 44.9436C27.9249 44.9436 23 42.0796 23 35.6942C23 29.123 28.552 24.886 31.7673 22.9833C32.1094 22.7808 32.4698 22.6282 32.8394 22.5256Z" fill="#1F78F0"></path><path d="M34.3714 33.8544C34.1364 33.7347 33.8638 33.7347 33.6288 33.8544C32.6637 34.3461 30.1501 35.8724 30.1501 38.4334C30.1501 40.6214 31.8738 41.6028 34.0001 41.6028C36.1264 41.6028 37.8501 40.6214 37.8501 38.4334C37.8501 35.8724 35.3365 34.3461 34.3714 33.8544Z" fill="#91BEFF"></path><path d="M10.0449 22.1991C10.0798 21.6247 10.4535 21.1798 11.0241 21.1054C11.4646 21.0479 12.1013 21 13 21C13.8987 21 14.5354 21.0479 14.9759 21.1054C15.5465 21.1798 15.9202 21.6247 15.9551 22.1991C15.9801 22.6099 16 23.1911 16 24C16 24.8089 15.9801 25.3901 15.9551 25.8009C15.9202 26.3753 15.5465 26.8202 14.9759 26.8946C14.5354 26.9521 13.8987 27 13 27C12.1013 27 11.4646 26.9521 11.0241 26.8946C10.4535 26.8202 10.0798 26.3753 10.0449 25.8009C10.0199 25.3901 10 24.8089 10 24C10 23.1911 10.0199 22.6099 10.0449 22.1991Z" fill="#1F78F0"></path></g></svg>