<svg viewBox="0 0 24 24" fill="none" xmlns="http://www.w3.org/2000/svg">


<g transform="matrix(0.5,0,0,0.5,0,0)"><path d="M24 14L27 13L35 21L34 24C36.0001 42 23.0001 46 6 46C3.69977 46 2.26339 45.5681 1.54892 44.1365C0.653074 42.3415 2.13395 40.3995 3.22778 38.7178C8.30563 30.9111 2.46291 14 24 14Z" fill="#91BEFF"></path><path d="M24 14C24.3621 9.65477 25.7731 5.30955 26.5239 3.24327C26.7997 2.48442 27.524 2.00441 28.3243 2.11143C30.6375 2.42078 35.5889 3.58891 40 7.99994C44.411 12.411 45.5792 17.3625 45.8885 19.6757C45.9956 20.476 45.5156 21.2003 44.7567 21.4761C42.6904 22.2269 38.3452 23.6379 34 24C34 24 33.0001 21.0001 30 18C26.9999 14.9999 24 14 24 14Z" fill="#1F78F0"></path></g></svg>