<svg viewBox="0 0 24 24" fill="none" xmlns="http://www.w3.org/2000/svg">



<g transform="matrix(0.5,0,0,0.5,0,0)"><path d="M40.9953 22.6412C45.3567 18.2798 46.9398 11.8597 42.7509 7.33227C42.4297 6.9852 42.0896 6.63113 41.7293 6.27083C41.369 5.91052 41.0149 5.57033 40.6678 5.2492C36.1404 1.06029 29.7203 2.64338 25.3589 7.00482L3.83332 28.5304C3.28941 29.0743 2.91633 29.7635 2.82658 30.5275C2.61013 32.3698 2.32888 36.4706 2.85989 43.335C2.93435 44.2976 3.70247 45.0658 4.66506 45.1402C11.5295 45.6712 15.6303 45.39 17.4726 45.1735C18.2365 45.0838 18.9257 44.7107 19.4696 44.1668L40.9953 22.6412Z" fill="#1F78F0"></path><path fill-rule="evenodd" clip-rule="evenodd" d="M19.0466 44.5326C17.7902 42.6836 15.3418 39.3418 12 36C8.65815 32.6582 5.31631 30.2097 3.46732 28.9533C3.12414 29.415 2.89432 29.9499 2.82645 30.5275C2.61001 32.3698 2.32876 36.4706 2.85977 43.335C2.93423 44.2976 3.70235 45.0658 4.66494 45.1402C11.5293 45.6712 15.6302 45.39 17.4724 45.1735C18.0501 45.1057 18.585 44.8758 19.0466 44.5326Z" fill="#91BEFF"></path><path fill-rule="evenodd" clip-rule="evenodd" d="M8.59151 45.374C8.09253 44.6449 7.15582 43.378 5.88893 42.1111C4.62199 40.8442 3.35505 39.9074 2.62598 39.4084C2.67404 40.601 2.74932 41.9083 2.85969 43.3351C2.93415 44.2977 3.70227 45.0658 4.66486 45.1402C6.09162 45.2506 7.399 45.3259 8.59151 45.374Z" fill="#1F78F0"></path></g></svg>