<svg viewBox="0 0 24 24" fill="none" xmlns="http://www.w3.org/2000/svg">


<g transform="matrix(0.5,0,0,0.5,0,0)"><path d="M18 24L19.9412 23.3636L24.6471 28.0909L24 30C25 42 17 45.0001 5.23529 45.0001C4.22546 45.0001 3.47293 44.8735 2.94903 44.5076C1.41572 43.4368 2.99753 41.153 3.65726 39.403C5.6936 34.0014 3.63141 24 18 24Z" fill="#91BEFF"></path><path d="M45.3492 10.9842L32.2104 27.6268C31.4238 28.6232 30.3422 29.3502 29.091 29.5646C27.8356 29.7796 26.049 30 24 30C24 30 23.5 28.66 21.5 26.66C19.5 24.66 18 24 18 24C18 21.8627 18.2855 20.0567 18.5514 18.838C18.7934 17.7286 19.4731 16.7865 20.3643 16.0829L37.1757 2.81073C37.7211 2.38017 38.3402 2.03132 39.0345 2.00415C40.1691 1.95976 42.0845 2.2446 44 4.16002C45.9154 6.07546 46.2002 7.99088 46.1558 9.12547C46.1286 9.81975 45.7798 10.4389 45.3492 10.9842Z" fill="#1F78F0"></path></g></svg>