<svg viewBox="0 0 24 24" fill="none" xmlns="http://www.w3.org/2000/svg">



<g transform="matrix(0.5,0,0,0.5,0,0)"><path d="M28.7741 40.9791C14.6672 45.1333 5.99992 46 5.99992 46C5.99992 46 4.5 46.5 2.99992 45C1.49984 43.5 1.99992 42 1.99992 42C1.99992 42 2.86665 33.3327 7.02083 19.2258C7.61169 17.2193 9.24005 15.6965 11.3018 15.3439C14.041 14.8754 18.3913 14.2804 23.9999 14L26.9999 13L34.9999 21L33.9999 24C33.7195 29.6086 33.1245 33.9589 32.656 36.6981C32.3034 38.7599 30.7806 40.3882 28.7741 40.9791Z" fill="#91BEFF"></path><path d="M24 14C24.3621 9.65477 25.7731 5.30955 26.5239 3.24327C26.7997 2.48442 27.524 2.00441 28.3243 2.11143C30.6375 2.42078 35.5889 3.58891 40 7.99994C44.411 12.411 45.5792 17.3625 45.8885 19.6757C45.9956 20.476 45.5156 21.2003 44.7567 21.4761C42.6904 22.2269 38.3452 23.6379 34 24C34 24 33.0001 21.0001 30 18C26.9999 14.9999 24 14 24 14Z" fill="#1F78F0"></path><path fill-rule="evenodd" clip-rule="evenodd" d="M2.52466 44.438L15.3678 30.6775C15.1318 30.1673 15.0001 29.599 15.0001 29C15.0001 26.7909 16.791 25 19.0001 25C21.2092 25 23.0001 26.7909 23.0001 29C23.0001 31.2091 21.2092 33 19.0001 33C18.4011 33 17.8328 32.8683 17.3226 32.6323L3.56216 45.4754C3.37677 45.3452 3.1884 45.1884 3.00003 45C2.81169 44.8117 2.65489 44.6233 2.52466 44.438Z" fill="#1F78F0"></path></g></svg>