<svg viewBox="0 0 24 24" fill="none" xmlns="http://www.w3.org/2000/svg">





<g transform="matrix(0.5,0,0,0.5,0,0)"><path d="M11.5 40.5L5.06173 46.0185C4.69925 46.3292 4.2283 46.5077 3.78064 46.3418C3.41829 46.2075 2.95915 45.9591 2.5 45.5C2.04085 45.0409 1.79252 44.5817 1.65821 44.2194C1.49228 43.7717 1.67078 43.3008 1.98149 42.9383L7.5 36.5L11.5 40.5Z" fill="#1F78F0"></path><path d="M25 14.6L38.0148 3.44446C39.1023 2.51235 40.5363 1.9659 41.823 2.59512C42.4587 2.90602 43.1794 3.37937 43.9 4.1C44.6206 4.82063 45.094 5.54127 45.4049 6.17704C46.0341 7.4637 45.4876 8.89775 44.5555 9.98521L33.4 23L25 14.6Z" fill="#91BEFF"></path><path fill-rule="evenodd" clip-rule="evenodd" d="M44.1229 13.5105C45.5842 15.8237 44.8305 18.6386 42.8993 20.5768L21.0299 42.5269C20.3648 43.1945 19.487 43.6045 18.5462 43.66C16.7233 43.7676 13.1522 43.9307 7.64405 43.9832C7.42691 43.9852 7.21309 43.9172 7.04131 43.7844C6.58113 43.4285 6.07767 42.9988 5.57422 42.4954C5.0355 41.9567 4.58128 41.418 4.21156 40.9323C4.08155 40.7615 4.01508 40.5499 4.01714 40.3353C4.06984 34.8389 4.23267 31.2745 4.3401 29.4539C4.39561 28.5131 4.80567 27.6354 5.47324 26.9702L27.4232 5.10081C29.3615 3.16966 32.1764 2.41595 34.4896 3.87719C35.9697 4.81216 37.7858 6.18968 39.7981 8.20199C41.8104 10.2143 43.1879 12.0304 44.1229 13.5105Z" fill="#1F78F0"></path><path fill-rule="evenodd" clip-rule="evenodd" d="M18.5763 43.8521C18.5605 43.8532 18.5448 43.8542 18.529 43.8551C16.7059 43.9627 13.1349 44.1258 7.62696 44.1783C7.40982 44.1804 7.196 44.1123 7.02422 43.9795C6.56404 43.6236 6.06058 43.194 5.55713 42.6905C5.01841 42.1518 4.56419 41.6131 4.19447 41.1274C4.06446 40.9566 3.99799 40.745 4.00005 40.5304C4.05275 35.0342 4.21557 31.4699 4.323 29.6492C4.32492 29.6167 4.32725 29.5844 4.33 29.5521C6.25443 30.9148 9.12722 33.1273 12 36.0001C14.9648 38.9649 17.2264 41.9297 18.5763 43.8521Z" fill="#91BEFF"></path><path fill-rule="evenodd" clip-rule="evenodd" d="M20.5858 2.58583C21.0826 2.08907 21.8035 1.88937 22.4851 2.05976L30.4851 4.05976L29.515 7.94033L22.6135 6.21497L15.3281 13.5004C14.7719 14.0566 13.9174 14.2668 13.2687 13.8219C12.6832 13.4205 12.2937 12.9663 12.0383 12.5726C11.6684 12.0022 11.8763 11.2953 12.357 10.8146L20.5858 2.58583Z" fill="#1F78F0"></path></g></svg>