<svg viewBox="0 0 24 24" fill="none" xmlns="http://www.w3.org/2000/svg">



<g transform="matrix(0.5,0,0,0.5,0,0)"><path d="M19.4161 42.0238C10.8899 44.4291 5.71344 44.9468 5.71344 44.9468C5.71344 44.9468 4.71591 45.2793 3.71827 44.2817C2.72064 43.2842 3.05322 42.2866 3.05322 42.2866C3.05322 42.2866 3.57087 37.1101 5.97623 28.5839C6.59802 26.3799 8.47913 24.7785 10.7573 24.5454C12.6079 24.356 15.0776 24.1461 18 24L19.6796 23L25 28.3204L24 30C23.8539 32.9224 23.644 35.3921 23.4546 37.2427C23.2215 39.5209 21.6201 41.402 19.4161 42.0238Z" fill="#91BEFF"></path><path fill-rule="evenodd" clip-rule="evenodd" d="M3.39771 43.9017L11.8785 34.8151C11.7209 34.4742 11.6329 34.0945 11.6329 33.6942C11.6329 32.2176 12.8299 31.0206 14.3064 31.0206C15.783 31.0206 16.9799 32.2176 16.9799 33.6942C16.9799 35.1707 15.783 36.3677 14.3064 36.3677C13.9059 36.3677 13.526 36.2796 13.185 36.1218L4.09857 44.6025C3.97318 44.515 3.84571 44.4092 3.71823 44.2818C3.59086 44.1544 3.48517 44.027 3.39771 43.9017Z" fill="#1F78F0"></path><path d="M45.3492 10.9842L32.2104 27.6268C31.4238 28.6232 30.3422 29.3502 29.091 29.5646C27.8356 29.7796 26.049 30 24 30C24 30 23.5 28.66 21.5 26.66C19.5 24.66 18 24 18 24C18 21.8627 18.2855 20.0567 18.5514 18.838C18.7934 17.7286 19.4731 16.7865 20.3643 16.0829L37.1757 2.81073C37.7211 2.38017 38.3402 2.03132 39.0345 2.00415C40.1691 1.95976 42.0845 2.2446 44 4.16002C45.9154 6.07546 46.2002 7.99088 46.1558 9.12547C46.1286 9.81975 45.7798 10.4389 45.3492 10.9842Z" fill="#1F78F0"></path></g></svg>