<svg viewBox="0 0 24 24" fill="none" xmlns="http://www.w3.org/2000/svg">



<g transform="matrix(0.5,0,0,0.5,0,0)"><path d="M34 10H36.2396C37.7999 10 39.0955 11.1949 39.1574 12.7539C39.215 14.2053 39.2524 16.0818 39.1896 18.0101C39.1319 19.7852 37.8051 21.2256 36.0632 21.5717C33.2821 22.1244 28.7055 23.06 23.1163 24.3002C21.2931 24.7047 20 26.3253 20 28.1929V40" stroke="#91BEFF" stroke-width="3" stroke-linejoin="round"></path><path d="M35.8658 5.75088C35.7672 4.45537 34.8484 3.52763 33.5548 3.40648C31.5086 3.21484 27.5344 3 20 3C12.4656 3 8.49144 3.21484 6.44518 3.40648C5.15159 3.52763 4.23277 4.45537 4.13419 5.75088C4.06036 6.72113 4 8.09647 4 10C4 11.9035 4.06036 13.2789 4.13419 14.2491C4.23277 15.5446 5.15159 16.4724 6.44519 16.5935C8.49144 16.7852 12.4656 17 20 17C27.5344 17 31.5086 16.7852 33.5548 16.5935C34.8484 16.4724 35.7672 15.5446 35.8658 14.2491C35.9396 13.2789 36 11.9035 36 10C36 8.09647 35.9396 6.72113 35.8658 5.75088Z" fill="#1F78F0"></path><path d="M17.3696 28.0969C16.1719 28.199 15.337 29.0849 15.2247 30.2816C15.1087 31.5176 15 33.4811 15 36.5C15 39.5189 15.1087 41.4824 15.2247 42.7184C15.337 43.9151 16.1719 44.801 17.3696 44.9031C18.0254 44.959 18.8861 45 20 45C21.1139 45 21.9746 44.959 22.6304 44.9031C23.8281 44.801 24.663 43.9151 24.7753 42.7184C24.8913 41.4824 25 39.5189 25 36.5C25 33.4811 24.8913 31.5176 24.7753 30.2816C24.663 29.0849 23.8281 28.199 22.6304 28.0969C21.9746 28.041 21.1139 28 20 28C18.8861 28 18.0254 28.041 17.3696 28.0969Z" fill="#1F78F0"></path></g></svg>