<svg viewBox="0 0 24 24" fill="none" xmlns="http://www.w3.org/2000/svg">



<g transform="matrix(0.5,0,0,0.5,0,0)"><path fill-rule="evenodd" clip-rule="evenodd" d="M23.5304 0.813336L22.7449 3.95524C12.4814 4.66707 4.12618 12.568 2.36573 22.8207C2.2748 23.3502 2.77557 23.7831 3.30385 23.6849C4.24596 23.5097 5.32449 23.4103 6.47052 23.4103C7.9059 23.4103 9.23538 23.5663 10.3236 23.8317C10.7134 23.9268 11.1212 23.9268 11.5111 23.8317C12.5993 23.5663 13.9288 23.4103 15.3642 23.4103C16.7996 23.4103 18.1291 23.5663 19.2173 23.8317C19.6071 23.9268 20.0149 23.9268 20.4048 23.8317C20.9647 23.6951 21.5885 23.5875 22.2578 23.5152V37.903C22.2578 39.0075 21.3624 39.903 20.2578 39.903C19.1532 39.903 18.2578 39.0075 18.2578 37.903V36.7314C18.2578 36.2009 18.0269 35.6916 17.5153 35.5515C17.2109 35.4682 16.7996 35.403 16.2578 35.403C15.7161 35.403 15.3048 35.4682 15.0003 35.5515C14.4887 35.6916 14.2578 36.2009 14.2578 36.7314V37.903C14.2578 41.2167 16.9441 43.903 20.2578 43.903C23.5715 43.903 26.2578 41.2167 26.2578 37.903V23.5152C26.9271 23.5875 27.5509 23.6951 28.1109 23.8317C28.5007 23.9268 28.9085 23.9268 29.2984 23.8317C30.3866 23.5663 31.7161 23.4103 33.1514 23.4103C34.5868 23.4103 35.9163 23.5663 37.0045 23.8317C37.3944 23.9268 37.8021 23.9268 38.192 23.8317C39.2802 23.5663 40.6097 23.4103 42.045 23.4103C43.191 23.4103 44.2695 23.5097 45.2116 23.6849C45.7399 23.7831 46.2407 23.3502 46.1497 22.8206C44.3893 12.5681 36.0344 4.66734 25.7711 3.95528L24.9856 0.813339C24.7962 0.0558742 23.7198 0.0558721 23.5304 0.813336Z" fill="#91BEFF"></path><circle cx="24.355" cy="23.2452" r="10" fill="#1F78F0"></circle><path d="M23.9231 26.5995C24.6143 26.5995 25.1134 26.4879 25.4206 26.2649C25.7406 26.0418 25.9006 25.7686 25.9006 25.4451C25.9006 25.1552 25.779 24.9209 25.5358 24.7425C25.2926 24.5641 24.9278 24.4079 24.4415 24.2741L23.3856 23.9729C22.8608 23.828 22.3872 23.6718 21.9649 23.5045C21.5425 23.3372 21.1841 23.1365 20.8898 22.9023C20.5954 22.6681 20.365 22.3892 20.1986 22.0658C20.0322 21.7424 19.949 21.3576 19.949 20.9115C19.949 20.1531 20.2178 19.5229 20.7554 19.021C21.2929 18.5192 22.0609 18.1846 23.0592 18.0173V17.5013C23.0592 17.031 23.3871 16.614 23.8566 16.5867C23.9499 16.5813 24.0427 16.5786 24.1343 16.5786C24.6079 16.5786 24.947 16.651 25.1518 16.796C25.3694 16.941 25.4782 17.2031 25.4782 17.5823V17.9504C26.2973 18.0284 26.9629 18.2013 27.4748 18.469C27.9868 18.7255 28.2428 19.0657 28.2428 19.4895C28.2428 19.7417 28.1494 19.969 27.9962 20.1661C27.7622 20.4669 27.3272 20.4449 26.9695 20.3135C26.7823 20.2447 26.5732 20.182 26.3421 20.1252C25.8558 19.9913 25.3246 19.9244 24.7487 19.9244C24.1087 19.9244 23.6287 20.0192 23.3088 20.2088C23.0016 20.3873 22.848 20.6215 22.848 20.9115C22.848 21.1457 22.9504 21.3353 23.1552 21.4803C23.3728 21.6253 23.6991 21.7591 24.1343 21.8818L25.2094 22.1662C26.3613 22.4785 27.2445 22.8911 27.8588 23.4041C28.486 23.9172 28.7995 24.6087 28.7995 25.4786C28.7995 26.2481 28.518 26.9006 27.9548 27.4359C27.3916 27.9601 26.5661 28.3114 25.4782 28.4899V28.9892C25.4782 29.4594 25.1503 29.8765 24.6808 29.9037C24.5876 29.9091 24.4948 29.9119 24.4031 29.9119C23.9295 29.9119 23.584 29.8394 23.3664 29.6944C23.1616 29.5494 23.0592 29.2873 23.0592 28.9081V28.5735C22.1249 28.4843 21.3633 28.2891 20.7746 27.988C20.1986 27.6757 19.9106 27.2854 19.9106 26.8169C19.9106 26.4808 20.0767 26.1989 20.3282 25.9748C20.6054 25.7279 21.0164 25.7901 21.3435 25.9656C21.5731 26.0888 21.8314 26.2053 22.1185 26.3151C22.6432 26.5047 23.2448 26.5995 23.9231 26.5995Z" fill="#91BEFF"></path></g></svg>