<svg viewBox="0 0 24 24" fill="none" xmlns="http://www.w3.org/2000/svg">


<g transform="matrix(0.5,0,0,0.5,0,0)"><path fill-rule="evenodd" clip-rule="evenodd" d="M11.5622 14.3541C11.9042 8.53987 16.719 4 22.5432 4H25.4568C31.281 4 36.0958 8.53987 36.4378 14.3541L36.7941 20.4122C37.4787 20.4699 38.061 20.5292 38.5538 20.5869C40.1343 20.772 41.32 21.8431 41.5434 23.4186C41.7781 25.0742 42 27.7605 42 32C42 36.2395 41.7781 38.9258 41.5434 40.5814C41.32 42.1569 40.1343 43.228 38.5538 43.4131C36.2026 43.6884 31.8152 44 24 44C16.1848 44 11.7974 43.6884 9.4462 43.4131C7.8657 43.228 6.68002 42.1569 6.45664 40.5814C6.2219 38.9258 6 36.2395 6 32C6 27.9853 6.17056 25.3635 6.35951 23.6908C6.55511 21.9593 7.82748 20.7565 9.55939 20.5647C10.0313 20.5124 10.5773 20.4592 11.2061 20.4073L11.5622 14.3541ZM30.4481 14.7064L30.7649 20.0922C28.8612 20.0351 26.6238 20 24 20C21.3822 20 19.1441 20.035 17.2351 20.0918L17.5519 14.7064C17.7073 12.0636 19.8959 10 22.5432 10H25.4568C28.1041 10 30.2927 12.0636 30.4481 14.7064Z" fill="#91BEFF"></path><path d="M1.70706 40.515C1.20255 41.0284 0.841433 41.691 1.06875 42.374C1.25075 42.9208 1.6448 43.6448 2.47487 44.4749C3.30495 45.3049 4.02896 45.699 4.57577 45.881C5.25873 46.1083 5.92135 45.7472 6.43473 45.2427C9.34183 42.3858 19.6613 32.2382 24.7487 27.1508C29.8362 22.0633 39.9838 11.7438 42.8407 8.83676C43.3452 8.32337 43.7063 7.66075 43.479 6.97779C43.297 6.43098 42.9029 5.70697 42.0729 4.8769C41.2428 4.04682 40.5188 3.65277 39.972 3.47077C39.289 3.24345 38.6264 3.60457 38.113 4.10909C35.2059 6.96596 24.8864 17.1136 19.799 22.201C14.7115 27.2885 4.56394 37.6079 1.70706 40.515Z" fill="#1F78F0"></path></g></svg>