<svg viewBox="0 0 24 24" fill="none" xmlns="http://www.w3.org/2000/svg">


<g transform="matrix(0.5,0,0,0.5,0,0)"><circle cx="24" cy="24" r="20" fill="#91BEFF"></circle><path fill-rule="evenodd" clip-rule="evenodd" d="M34.5127 15.9406C35.3551 16.5406 35.6006 17.6887 35.065 18.5735C30.9095 25.4382 27.1284 30.0057 24.894 32.4505C23.6922 33.7656 21.7598 33.9342 20.3971 32.7869C18.4516 31.1488 15.5923 28.3677 12.856 24.317C12.3402 23.5535 12.452 22.5357 13.0947 21.8756L14.7422 20.1832C15.5093 19.3954 16.7702 19.3737 17.5438 20.1551C20.2682 22.9073 22.3812 25.4028 22.3812 25.4028C22.3812 25.4028 25.486 20.7673 30.3076 15.147C30.974 14.3702 32.1237 14.2388 32.9573 14.8326L34.5127 15.9406Z" fill="#1F78F0"></path></g></svg>