<svg viewBox="0 0 24 24" fill="none" xmlns="http://www.w3.org/2000/svg">


<g transform="matrix(0.5,0,0,0.5,0,0)"><circle r="20" transform="matrix(-1 0 0 1 24 24)" fill="#91BEFF"></circle><path fill-rule="evenodd" clip-rule="evenodd" d="M30.7668 16.3002C32.3993 15.4605 33.969 16.4646 34.1823 18.288C34.3525 19.7427 34.5 21.6745 34.5 24C34.5 26.3255 34.3525 28.2573 34.1823 29.7121C33.969 31.5354 32.3993 32.5395 30.7668 31.6998C29.8215 31.2135 28.6113 30.5106 27.0882 29.4944C26.0436 28.7974 25.1462 28.1496 24.3804 27.5613C24.3254 28.3631 24.256 29.0823 24.1823 29.7121C23.969 31.5354 22.3993 32.5395 20.7668 31.6998C19.8215 31.2135 18.6113 30.5106 17.0882 29.4944C15.0988 28.1671 13.6434 27.0179 12.6144 26.1186C11.2767 24.9494 11.2767 23.0506 12.6144 21.8814C13.6434 20.9821 15.0988 19.8329 17.0882 18.5056C18.6113 17.4894 19.8215 16.7865 20.7668 16.3002C22.3993 15.4605 23.969 16.4646 24.1823 18.288C24.256 18.9177 24.3254 19.6369 24.3804 20.4388C25.1462 19.8504 26.0436 19.2026 27.0882 18.5056C28.6113 17.4894 29.8215 16.7865 30.7668 16.3002Z" fill="#1F78F0"></path></g></svg>