<svg viewBox="0 0 24 24" fill="none" xmlns="http://www.w3.org/2000/svg">


<g transform="matrix(0.5,0,0,0.5,0,0)"><circle cx="24" cy="24" r="20" fill="#91BEFF"></circle><path fill-rule="evenodd" clip-rule="evenodd" d="M17.2332 16.3002C15.6007 15.4605 14.031 16.4646 13.8177 18.288C13.6475 19.7427 13.5 21.6745 13.5 24C13.5 26.3255 13.6475 28.2573 13.8177 29.7121C14.031 31.5354 15.6007 32.5395 17.2332 31.6998C18.1785 31.2135 19.3887 30.5106 20.9118 29.4944C21.9564 28.7974 22.8538 28.1496 23.6196 27.5613C23.6746 28.3631 23.744 29.0823 23.8177 29.7121C24.031 31.5354 25.6007 32.5395 27.2332 31.6998C28.1785 31.2135 29.3887 30.5106 30.9118 29.4944C32.9012 28.1671 34.3566 27.0179 35.3856 26.1186C36.7233 24.9494 36.7233 23.0506 35.3856 21.8814C34.3566 20.9821 32.9012 19.8329 30.9118 18.5056C29.3887 17.4894 28.1785 16.7865 27.2332 16.3002C25.6007 15.4605 24.031 16.4646 23.8177 18.288C23.744 18.9177 23.6746 19.6369 23.6196 20.4388C22.8538 19.8504 21.9564 19.2026 20.9118 18.5056C19.3887 17.4894 18.1785 16.7865 17.2332 16.3002Z" fill="#1F78F0"></path></g></svg>