<svg viewBox="0 0 24 24" fill="none" xmlns="http://www.w3.org/2000/svg">


<g transform="matrix(0.5,0,0,0.5,0,0)"><circle cx="24" cy="24" r="20" fill="#91BEFF"></circle><path d="M16.5529 16.8665C16.8372 15.1419 18.3644 14.1421 20.0099 14.7316C21.4887 15.2614 23.6234 16.1749 26.5882 17.75C29.4864 19.2897 31.5913 20.6186 33.0658 21.6503C34.7987 22.8629 34.7987 25.1371 33.0658 26.3497C31.5913 27.3814 29.4864 28.7103 26.5882 30.25C23.6234 31.8251 21.4887 32.7386 20.0099 33.2684C18.3644 33.8579 16.8372 32.8581 16.5529 31.1335C16.271 29.4237 16 26.9998 16 24C16 21.0002 16.271 18.5763 16.5529 16.8665Z" fill="#1F78F0"></path></g></svg>