<svg viewBox="0 0 24 24" fill="none" xmlns="http://www.w3.org/2000/svg">


<g transform="matrix(0.5,0,0,0.5,0,0)"><circle cx="24" cy="24" r="20" fill="#91BEFF"></circle><path fill-rule="evenodd" clip-rule="evenodd" d="M28.6006 14.2441C29.3803 13.5344 30.573 13.573 31.3185 14.3186L32.4387 15.4388C33.1842 16.1843 33.2229 17.3769 32.5131 18.1566C31.4566 19.3173 29.7857 21.1218 27.7134 23.2544C29.8843 25.4824 31.6338 27.371 32.7263 28.5713C33.4361 29.351 33.3974 30.5436 32.6519 31.2891L31.5317 32.4093C30.7862 33.1549 29.5935 33.1935 28.8138 32.4838C27.6141 31.3917 25.7266 29.6433 23.4999 27.4738C21.2732 29.6433 19.3857 31.3917 18.186 32.4838C17.4063 33.1935 16.2137 33.1549 15.4681 32.4093L14.3479 31.2891C13.6024 30.5436 13.5638 29.351 14.2735 28.5713C15.3661 27.371 17.1155 25.4824 19.2864 23.2544C17.2141 21.1218 15.5433 19.3173 14.4867 18.1566C13.777 17.3769 13.8156 16.1843 14.5611 15.4388L15.6813 14.3186C16.4269 13.573 17.6195 13.5344 18.3992 14.2441C19.5604 15.3012 21.3661 16.9731 23.4999 19.0467C25.6338 16.9731 27.4394 15.3012 28.6006 14.2441Z" fill="#1F78F0"></path></g></svg>