<svg viewBox="0 0 24 24" fill="none" xmlns="http://www.w3.org/2000/svg">
  <g transform="matrix(0.5,0,0,0.5,0,0)">
    <circle cx="24" cy="24" r="20" fill="#91BEFF"></circle>
    <path
      d="M19.7981 16C20.8033 16 21.6478 16.746 21.7338 17.7475C21.8574 19.1882 22 21.4108 22 24C22 26.5892 21.8574 28.8118 21.7338 30.2525C21.6478 31.254 20.8033 32 19.7981 32L16.2019 32C15.1967 32 14.3522 31.254 14.2662 30.2525C14.1426 28.8118 14 26.5892 14 24C14 21.4108 14.1426 19.1882 14.2662 17.7475C14.3522 16.746 15.1967 16 16.2019 16L19.7981 16Z"
      fill="#1F78F0"></path>
    <path
      d="M31.7981 16C32.8033 16 33.6478 16.746 33.7338 17.7475C33.8574 19.1882 34 21.4108 34 24C34 26.5892 33.8574 28.8118 33.7338 30.2525C33.6478 31.254 32.8033 32 31.7981 32L28.2019 32C27.1967 32 26.3522 31.254 26.2662 30.2525C26.1426 28.8118 26 26.5892 26 24C26 21.4108 26.1426 19.1882 26.2662 17.7475C26.3522 16.746 27.1967 16 28.2019 16L31.7981 16Z"
      fill="#1F78F0"></path>
  </g>
</svg>