<svg viewBox="0 0 24 24" fill="none" xmlns="http://www.w3.org/2000/svg">


<g transform="matrix(0.5,0,0,0.5,0,0)"><path d="M15.485 29.9102C15.3202 28.921 14.448 28.2067 13.4458 28.2416C10.5782 28.3416 7.73581 28.4505 5.91967 28.5218C4.82718 28.5646 3.97748 29.4758 4.02825 30.5679C4.15792 33.3577 4.47973 38.4509 5.1842 41.4052C5.50728 42.7601 6.70136 43.5227 8.09056 43.6242C10.4235 43.7946 15.0845 44 24 44C32.9155 44 37.5765 43.7946 39.9095 43.6242C41.2987 43.5227 42.4927 42.7601 42.8158 41.4052C43.5203 38.4509 43.8421 33.3577 43.9718 30.5679C44.0225 29.4758 43.1728 28.5646 42.0804 28.5218C40.2642 28.4505 37.4218 28.3416 34.5543 28.2416C33.552 28.2067 32.6799 28.921 32.515 29.9102L32.2785 31.3288C32.1178 32.2932 31.2834 33 30.3058 33H17.6943C16.7166 33 15.8822 32.2932 15.7215 31.3288L15.485 29.9102Z" fill="#91BEFF"></path><path fill-rule="evenodd" clip-rule="evenodd" d="M28.2811 15.4866C29.7284 15.523 30.9008 15.5764 31.8449 15.6359C33.7219 15.7542 34.5352 17.5316 33.3923 19.0251C32.6265 20.0258 31.5995 21.2944 30.2385 22.8546C28.2322 25.1546 26.7099 26.5037 25.6714 27.2841C24.6505 28.0514 23.3493 28.0515 22.3284 27.2843C21.2899 26.5039 19.7675 25.1548 17.7615 22.8546C16.401 21.2947 15.3743 20.0264 14.6085 19.0259C13.4653 17.5321 14.2788 15.7541 16.1561 15.6358C17.1001 15.5764 18.2722 15.523 19.7192 15.4866C19.7141 14.8236 19.7112 14.0943 19.7112 13.2928C19.7112 10.1755 19.7552 8.14974 19.8024 6.87401C19.8493 5.6078 20.4583 4.45008 21.7005 4.20047C22.2826 4.08351 23.0358 4 24.0001 4C24.9645 4 25.7177 4.08351 26.2998 4.20047C27.542 4.45008 28.151 5.60779 28.1979 6.874C28.245 8.14974 28.2891 10.1755 28.2891 13.2928C28.2891 14.0943 28.2862 14.8236 28.2811 15.4866Z" fill="#1F78F0"></path></g></svg>