<svg viewBox="0 0 24 24" fill="none" xmlns="http://www.w3.org/2000/svg">



<g transform="matrix(0.5,0,0,0.5,0,0)"><path fill-rule="evenodd" clip-rule="evenodd" d="M24 44C15.2432 44 10.219 43.3184 7.55375 42.751C5.86521 42.3915 4.73932 41.0322 4.56198 39.315C4.29904 36.7688 4 32.0939 4 24C4 15.9061 4.29904 11.2312 4.56198 8.68502C4.73932 6.96778 5.86521 5.60848 7.55375 5.24901C10.219 4.68162 15.2432 4 24 4C28.2363 4 31.599 4.15952 34.2437 4.38846C35.2853 4.47863 36.2833 4.85682 37.0822 5.53116C37.8089 6.14443 38.735 6.98496 39.875 8.125C41.2023 9.45232 42.1236 10.4896 42.753 11.2598C43.4302 12.0885 43.7683 13.1291 43.8149 14.1984C43.924 16.7065 44 19.9186 44 24C44 32.0939 43.701 36.7688 43.438 39.315C43.2607 41.0322 42.1348 42.3915 40.4463 42.751C37.781 43.3184 32.7568 44 24 44Z" fill="#1F78F0"></path><path fill-rule="evenodd" clip-rule="evenodd" d="M18.0436 13.844C17.2452 13.7867 16.5771 13.3147 16.3979 12.5346C16.1987 11.6675 16.0002 10.2413 16.0002 8C16.0002 6.30854 16.1132 5.08131 16.2543 4.20829C18.4344 4.08012 20.9979 4 24.0002 4C27.0025 4 29.566 4.08012 31.7461 4.20829C31.8872 5.08131 32.0002 6.30854 32.0002 8C32.0002 10.2413 31.8017 11.6675 31.6025 12.5346C31.4233 13.3147 30.7552 13.7867 29.9568 13.844C28.9055 13.9196 27.066 14 24.0002 14C20.9344 14 19.0949 13.9196 18.0436 13.844ZM37.9063 43.1968C38.4234 35.0277 38.0599 27.5681 37.7673 23.5672C37.6347 21.7547 36.2446 20.3487 34.4303 20.2435C32.3126 20.1207 28.9676 20 24.0002 20C19.0327 20 15.6878 20.1207 13.57 20.2435C11.7557 20.3487 10.3656 21.7546 10.2331 23.5671C9.94048 27.5681 9.57692 35.0277 10.094 43.1968C13.0426 43.6232 17.4898 44 24.0002 44C30.5106 44 34.9578 43.6232 37.9063 43.1968Z" fill="#91BEFF"></path><path fill-rule="evenodd" clip-rule="evenodd" d="M18.1142 35.1214C17.4791 35.1703 17 35.7041 17 36.341V37.6647C17 38.2991 17.4753 38.8314 18.1077 38.8816C18.8706 38.9421 19.9353 39.0055 21 38.9996C22.0587 38.9938 23.1174 38.9319 23.8795 38.8749C24.5172 38.8272 25 38.292 25 37.6525V36.341C25 35.7041 24.5209 35.1703 23.8858 35.1214C23.1233 35.0626 22.0617 35 21 35C19.9383 35 18.8767 35.0626 18.1142 35.1214ZM18.1586 27.152C17.505 27.1866 17 27.7285 17 28.3831V29.6169C17 30.2715 17.505 30.8134 18.1586 30.848C19.3889 30.9131 21.499 31 24 31C26.501 31 28.6111 30.9131 29.8414 30.848C30.495 30.8134 31 30.2715 31 29.6169V28.3831C31 27.7285 30.495 27.1866 29.8414 27.152C28.6111 27.0869 26.501 27 24 27C21.499 27 19.3889 27.0869 18.1586 27.152Z" fill="#1F78F0"></path></g></svg>