<svg viewBox="0 0 24 24" fill="none" xmlns="http://www.w3.org/2000/svg">



<g transform="matrix(0.5,0,0,0.5,0,0)"><circle cx="24" cy="24" r="22" fill="#91BEFF"></circle><path d="M16.9594 9.44755C16.4144 8.70717 15.3899 8.73334 14.6144 9.22707C9.73615 12.3328 6.5 17.7885 6.5 24C6.5 33.6649 14.335 41.5 24 41.5C33.665 41.5 41.5 33.6649 41.5 24C41.5 17.7885 38.2638 12.3328 33.3856 9.22707C32.6101 8.73334 31.5856 8.70717 31.0406 9.44755C30.8365 9.72476 30.6428 10.0717 30.5 10.5C30.3512 10.9464 30.2637 11.3609 30.2142 11.7229C30.0923 12.6139 30.6579 13.3806 31.3832 13.9124C34.4857 16.1869 36.5 19.8582 36.5 24C36.5 30.9035 30.9036 36.5 24 36.5C17.0964 36.5 11.5 30.9035 11.5 24C11.5 19.8582 13.5143 16.1869 16.6168 13.9124C17.3421 13.3806 17.9077 12.6139 17.7858 11.7229C17.7363 11.3609 17.6488 10.9464 17.5 10.5C17.3572 10.0717 17.1635 9.72476 16.9594 9.44755Z" fill="#1F78F0"></path><path d="M26.8832 8.0081C26.8491 7.05728 26.304 6.22235 25.362 6.08893C24.989 6.03611 24.5375 6 24 6C23.4625 6 23.011 6.03611 22.638 6.08893C21.696 6.22235 21.1509 7.05728 21.1168 8.0081C21.0632 9.5004 21 12.2641 21 17C21 21.7359 21.0632 24.4996 21.1168 25.9919C21.1509 26.9427 21.696 27.7777 22.638 27.9111C23.011 27.9639 23.4625 28 24 28C24.5375 28 24.989 27.9639 25.362 27.9111C26.304 27.7777 26.8491 26.9427 26.8832 25.9919C26.9368 24.4996 27 21.7359 27 17C27 12.2641 26.9368 9.5004 26.8832 8.0081Z" fill="#1F78F0"></path></g></svg>