<svg viewBox="0 0 24 24" fill="none" xmlns="http://www.w3.org/2000/svg">


<g transform="matrix(0.5,0,0,0.5,0,0)"><circle cx="24" cy="24" r="22" fill="#91BEFF"></circle><path fill-rule="evenodd" clip-rule="evenodd" d="M36.9039 32.4064C37.1931 31.9617 37.2445 31.4023 36.8805 31.0164C36.6358 30.757 36.265 30.446 35.7068 30.1237C35.1486 29.8015 34.6938 29.6358 34.3468 29.5536C33.8306 29.4313 33.3843 29.7637 33.0857 30.2021C29.8748 34.9165 23.5201 36.4245 18.5002 33.5263C13.239 30.4888 11.4364 23.7613 14.4739 18.5C17.5115 13.2388 24.239 11.4362 29.5002 14.4738C30.3103 14.9415 31.0383 15.4963 31.6792 16.1197C30.7728 16.7364 30.0852 17.2711 29.5699 17.7118C28.7305 18.4297 28.9412 19.5954 29.9411 20.0649C31.3169 20.711 33.5156 21.6128 36.6054 22.5009C37.667 22.8061 38.7605 22.1546 38.9975 21.0757C39.6874 17.9357 39.941 15.5728 40.0278 14.0553C40.0909 12.9525 39.1661 12.2123 38.1351 12.6087C37.4624 12.8673 36.6038 13.2467 35.5451 13.8025C34.4702 12.5858 33.1832 11.5195 31.7002 10.6633C24.3345 6.41066 14.916 8.93434 10.6634 16.3C6.41084 23.6658 8.93452 33.0842 16.3002 37.3368C23.4253 41.4505 32.4712 39.2234 36.9039 32.4064Z" fill="#1F78F0"></path></g></svg>