<svg viewBox="0 0 24 24" fill="none" xmlns="http://www.w3.org/2000/svg">


<g transform="matrix(0.5,0,0,0.5,0,0)"><circle r="22" transform="matrix(-1 0 0 1 24 24)" fill="#91BEFF"></circle><path fill-rule="evenodd" clip-rule="evenodd" d="M11.0961 32.4064C10.8069 31.9617 10.7555 31.4023 11.1195 31.0164C11.3642 30.757 11.735 30.446 12.2932 30.1237C12.8514 29.8015 13.3062 29.6358 13.6532 29.5536C14.1694 29.4313 14.6157 29.7637 14.9143 30.2021C18.1252 34.9165 24.4799 36.4245 29.4998 33.5263C34.761 30.4888 36.5636 23.7613 33.5261 18.5C30.4885 13.2388 23.761 11.4362 18.4998 14.4738C17.6897 14.9415 16.9617 15.4963 16.3208 16.1197C17.2272 16.7364 17.9148 17.2711 18.4301 17.7118C19.2695 18.4297 19.0588 19.5954 18.0589 20.0649C16.6831 20.711 14.4844 21.6128 11.3946 22.5009C10.333 22.8061 9.23949 22.1546 9.00247 21.0757C8.31262 17.9357 8.05898 15.5728 7.97219 14.0553C7.90911 12.9525 8.83395 12.2123 9.86494 12.6087C10.5376 12.8673 11.3962 13.2467 12.4549 13.8025C13.5298 12.5858 14.8168 11.5195 16.2998 10.6633C23.6655 6.41066 33.084 8.93434 37.3366 16.3C41.5892 23.6658 39.0655 33.0842 31.6998 37.3368C24.5747 41.4505 15.5288 39.2234 11.0961 32.4064Z" fill="#1F78F0"></path></g></svg>