<svg viewBox="0 0 24 24" fill="none" xmlns="http://www.w3.org/2000/svg">




<g transform="matrix(0.5,0,0,0.5,0,0)"><path fill-rule="evenodd" clip-rule="evenodd" d="M38.6833 10.6584C39.4242 12.1403 38.8236 13.9424 37.3416 14.6833L18.7082 24L37.3416 33.3168C38.8236 34.0577 39.4242 35.8598 38.6833 37.3417C37.9423 38.8236 36.1403 39.4243 34.6584 38.6833L10.6584 26.6833C9.64201 26.1752 9 25.1364 9 24C9 22.8637 9.64201 21.8249 10.6584 21.3168L34.6584 9.31677C36.1403 8.5758 37.9423 9.17647 38.6833 10.6584Z" fill="#1F78F0"></path><path d="M21 24C21 28.9706 16.9706 33 12 33C7.02944 33 3 28.9706 3 24C3 19.0294 7.02944 15 12 15C16.9706 15 21 19.0294 21 24Z" fill="#91BEFF"></path><path d="M45 12C45 16.9706 40.9706 21 36 21C31.0294 21 27 16.9706 27 12C27 7.02944 31.0294 3 36 3C40.9706 3 45 7.02944 45 12Z" fill="#91BEFF"></path><path d="M45 36C45 40.9706 40.9706 45 36 45C31.0294 45 27 40.9706 27 36C27 31.0294 31.0294 27 36 27C40.9706 27 45 31.0294 45 36Z" fill="#91BEFF"></path></g></svg>