<svg viewBox="0 0 24 24" fill="none" xmlns="http://www.w3.org/2000/svg">



<g transform="matrix(0.5,0,0,0.5,0,0)"><path d="M12 29.9934V5.99341C12 5.99341 23.6958 4.3802 35.8588 4.77589C38.4576 4.86043 40.8645 6.29814 41.7728 8.7346C44.0861 14.9403 44.4059 22.602 44.3035 27.6341C44.2413 30.6907 41.6867 32.9934 38.6329 32.8478C30.0016 32.4363 18.5143 31.2148 12 29.9934Z" fill="#91BEFF"></path><path d="M26.0565 44.4601C25.0835 44.7176 24.0742 44.8542 23.2157 44.9255C21.9021 45.0346 20.7713 44.1273 20.418 42.8575C19.5336 39.6793 17.7668 33.5871 16 28.9934H29C29 28.9934 29.6788 34.4238 29.3586 39.692C29.2278 41.845 28.1417 43.9082 26.0565 44.4601Z" fill="#91BEFF"></path><path d="M4.14275 6.6933C4.16946 5.63706 4.76494 4.67781 5.78529 4.40354C6.59149 4.18683 7.68062 3.99341 9 3.99341C10.3194 3.99341 11.4085 4.18683 12.2147 4.40354C13.2351 4.67781 13.8305 5.63706 13.8573 6.6933C13.9137 8.92398 14 13.1314 14 17.9934C14 22.8554 13.9137 27.0628 13.8573 29.2935C13.8305 30.3498 13.2351 31.309 12.2147 31.5833C11.4085 31.8 10.3194 31.9934 9 31.9934C7.68062 31.9934 6.5915 31.8 5.78529 31.5833C4.76494 31.309 4.16946 30.3498 4.14275 29.2935C4.08632 27.0628 4 22.8554 4 17.9934C4 13.1314 4.08632 8.92398 4.14275 6.6933Z" fill="#1F78F0"></path></g></svg>