<svg viewBox="0 0 24 24" fill="none" xmlns="http://www.w3.org/2000/svg">



<g transform="matrix(0.5,0,0,0.5,0,0)"><path d="M12 19V43C12 43 23.6958 44.6132 35.8588 44.2175C38.4576 44.133 40.8645 42.6953 41.7728 40.2588C44.0861 34.0531 44.4059 26.3914 44.3035 21.3593C44.2413 18.3027 41.6867 16 38.6329 16.1456C30.0016 16.5571 18.5143 17.7786 12 19Z" fill="#91BEFF"></path><path d="M26.0565 4.53336C25.0835 4.27586 24.0742 4.13925 23.2157 4.06793C21.9021 3.95881 20.7713 4.86606 20.418 6.13593C19.5336 9.31413 17.7668 15.4063 16 20H29C29 20 29.6788 14.5696 29.3586 9.30136C29.2278 7.1484 28.1417 5.08518 26.0565 4.53336Z" fill="#91BEFF"></path><path d="M4.14275 42.3001C4.16946 43.3563 4.76494 44.3156 5.78529 44.5899C6.59149 44.8066 7.68062 45 9 45C10.3194 45 11.4085 44.8066 12.2147 44.5899C13.2351 44.3156 13.8305 43.3563 13.8573 42.3001C13.9137 40.0694 14 35.862 14 31C14 26.138 13.9137 21.9306 13.8573 19.6999C13.8305 18.6437 13.2351 17.6844 12.2147 17.4101C11.4085 17.1934 10.3194 17 9 17C7.68062 17 6.5915 17.1934 5.78529 17.4101C4.76494 17.6844 4.16946 18.6437 4.14275 19.6999C4.08632 21.9306 4 26.138 4 31C4 35.862 4.08632 40.0694 4.14275 42.3001Z" fill="#1F78F0"></path></g></svg>