<svg viewBox="0 0 24 24" fill="none" xmlns="http://www.w3.org/2000/svg">





<g transform="matrix(0.5,0,0,0.5,0,0)"><path d="M7 12H41C39.6053 29.4343 38.6968 37.142 38.2748 40.2105C38.1133 41.384 37.4926 42.4 36.3633 42.7575C34.5753 43.3236 30.9787 44 24 44C17.0213 44 13.4247 43.3236 11.6367 42.7575C10.5074 42.4 9.88667 41.384 9.72525 40.2105C9.30316 37.142 8.39474 29.4343 7 12Z" fill="#91BEFF"></path><path d="M5.04588 12.8164C5.62524 10.499 7.5267 8.76299 9.90605 8.55117C12.892 8.28533 17.59 8 24 8C30.41 8 35.1079 8.28533 38.0939 8.55117C40.4733 8.76299 42.3747 10.499 42.9541 12.8164L43.2218 13.8871C43.6765 15.7059 42.7057 17.3191 40.8389 17.4918C38.1082 17.7445 33.0978 18 24 18C14.9021 18 9.89173 17.7445 7.16108 17.4918C5.29426 17.3191 4.3235 15.7059 4.77821 13.8871L5.04588 12.8164Z" fill="#1F78F0"></path><path d="M18.0883 6.73509C18.6328 5.10172 20.1613 4 21.883 4H26.117C27.8387 4 29.3672 5.10172 29.9117 6.73509L31 10H17L18.0883 6.73509Z" fill="#1F78F0"></path><path d="M16.1526 25.137C16.0701 23.9823 16.9847 23 18.1425 23V23C19.1891 23 20.0578 23.8088 20.1323 24.8528L20.8473 34.863C20.9298 36.0177 20.0152 37 18.8575 37V37C17.8109 37 16.9422 36.1912 16.8676 35.1472L16.1526 25.137Z" fill="#1F78F0"></path><path d="M27.8676 24.8528C27.9422 23.8088 28.8109 23 29.8575 23V23C31.0152 23 31.9298 23.9823 31.8473 25.137L31.1323 35.1472C31.0578 36.1912 30.1891 37 29.1425 37V37C27.9847 37 27.0701 36.0177 27.1526 34.863L27.8676 24.8528Z" fill="#1F78F0"></path></g></svg>