<svg viewBox="0 0 24 24" fill="none" xmlns="http://www.w3.org/2000/svg">


<g transform="matrix(0.5,0,0,0.5,0,0)"><path d="M15.485 29.9102C15.3202 28.921 14.448 28.2067 13.4458 28.2416C10.5782 28.3416 7.73581 28.4505 5.91967 28.5218C4.82718 28.5646 3.97748 29.4758 4.02825 30.5679C4.15792 33.3577 4.47973 38.4509 5.1842 41.4052C5.50728 42.7601 6.70136 43.5227 8.09056 43.6242C10.4235 43.7946 15.0845 44 24 44C32.9155 44 37.5765 43.7946 39.9095 43.6242C41.2987 43.5227 42.4927 42.7601 42.8158 41.4052C43.5203 38.4509 43.8421 33.3577 43.9718 30.5679C44.0225 29.4758 43.1728 28.5646 42.0804 28.5218C40.2642 28.4505 37.4218 28.3416 34.5543 28.2416C33.552 28.2067 32.6799 28.921 32.515 29.9102L32.2785 31.3288C32.1178 32.2932 31.2834 33 30.3058 33H17.6943C16.7166 33 15.8822 32.2932 15.7215 31.3288L15.485 29.9102Z" fill="#91BEFF"></path><path fill-rule="evenodd" clip-rule="evenodd" d="M28.2811 16.373C29.7284 16.3366 30.9008 16.2832 31.8449 16.2237C33.7219 16.1054 34.5352 14.328 33.3923 12.8345C32.6265 11.8338 31.5995 10.5653 30.2385 9.00498C28.2322 6.70498 26.7099 5.35589 25.6714 4.5755C24.6505 3.80826 23.3493 3.80817 22.3284 4.57534C21.2899 5.35571 19.7675 6.70483 17.7615 9.00498C16.401 10.5649 15.3743 11.8332 14.6085 12.8338C13.4653 14.3275 14.2788 16.1055 16.1561 16.2238C17.1001 16.2832 18.2722 16.3366 19.7192 16.373C19.7141 17.036 19.7112 17.7654 19.7112 18.5669C19.7112 21.6841 19.7552 23.7099 19.8024 24.9856C19.8493 26.2518 20.4583 27.4095 21.7005 27.6591C22.2826 27.7761 23.0358 27.8596 24.0001 27.8596C24.9645 27.8596 25.7177 27.7761 26.2998 27.6591C27.542 27.4095 28.151 26.2518 28.1979 24.9856C28.245 23.7099 28.2891 21.6841 28.2891 18.5669C28.2891 17.7653 28.2862 17.036 28.2811 16.373Z" fill="#1F78F0"></path></g></svg>