<svg viewBox="0 0 24 24" fill="none" xmlns="http://www.w3.org/2000/svg">




<g transform="matrix(0.5,0,0,0.5,0,0)"><path d="M31.8284 37.4853C30.2663 35.9232 30.2663 33.3905 31.8284 31.8284V31.8284C33.3905 30.2663 35.9232 30.2663 37.4853 31.8284L43.1421 37.4853C44.7042 39.0474 44.7042 41.58 43.1421 43.1421V43.1421C41.58 44.7042 39.0474 44.7042 37.4853 43.1421L31.8284 37.4853Z" fill="#1F78F0"></path><path d="M40 22C40 31.9411 31.9411 40 22 40C12.0589 40 4 31.9411 4 22C4 12.0589 12.0589 4 22 4C31.9411 4 40 12.0589 40 22Z" fill="#91BEFF"></path><path d="M34 22C34 28.6274 28.6274 34 22 34C15.3726 34 10 28.6274 10 22C10 15.3726 15.3726 10 22 10C28.6274 10 34 15.3726 34 22Z" fill="#1F78F0"></path><path fill-rule="evenodd" clip-rule="evenodd" d="M23.8786 16.7748C23.832 15.7735 23.0024 15 22 15C20.9976 15 20.168 15.7735 20.1214 16.7748C20.0818 17.6231 20.0405 18.7345 20.0178 20.0178C18.7345 20.0405 17.6231 20.0818 16.7748 20.1214C15.7735 20.168 15 20.9976 15 22C15 23.0024 15.7735 23.832 16.7748 23.8786C17.6231 23.9182 18.7345 23.9595 20.0178 23.9822C20.0405 25.2655 20.0818 26.3769 20.1214 27.2252C20.168 28.2265 20.9976 29 22 29C23.0024 29 23.832 28.2265 23.8786 27.2252C23.9182 26.3769 23.9595 25.2655 23.9822 23.9822C25.2655 23.9595 26.3769 23.9182 27.2252 23.8786C28.2265 23.832 29 23.0024 29 22C29 20.9976 28.2265 20.168 27.2252 20.1214C26.3769 20.0818 25.2655 20.0405 23.9822 20.0178C23.9595 18.7345 23.9182 17.6231 23.8786 16.7748Z" fill="#91BEFF"></path></g></svg>