<svg viewBox="0 0 24 24" fill="none" xmlns="http://www.w3.org/2000/svg">


<g transform="matrix(0.5,0,0,0.5,0,0)"><path d="M4.65388 8.57316C4.84496 6.92575 5.84441 5.56573 7.46374 5.20762C9.9896 4.64902 14.8855 4 24 4C33.1145 4 38.0104 4.64902 40.5363 5.20762C42.1556 5.56574 43.155 6.92575 43.3461 8.57316C43.6351 11.0644 44 15.1673 44 20V20C44 29.0284 39.2351 37.4764 31.2074 41.6079C28.5258 42.988 25.9087 44 24 44C22.0913 44 19.4742 42.988 16.7925 41.6079C8.76493 37.4764 4 29.0284 4 20V20C4 15.1673 4.36493 11.0644 4.65388 8.57316Z" fill="#91BEFF"></path><path fill-rule="evenodd" clip-rule="evenodd" d="M22.562 12.1894C21.4731 12.4926 21.0316 13.6402 21.0953 14.7687C21.2365 17.2693 21.5172 21.8107 21.8207 24.3046C21.9161 25.0885 22.3373 25.803 23.1163 25.9326C23.3619 25.9735 23.6544 26 24 26C24.3456 26 24.6381 25.9735 24.8837 25.9326C25.6627 25.803 26.0839 25.0885 26.1793 24.3046C26.4828 21.8106 26.7635 17.2693 26.9047 14.7687C26.9684 13.6402 26.5269 12.4926 25.438 12.1894C25.0362 12.0775 24.5569 12 24 12C23.4431 12 22.9638 12.0775 22.562 12.1894ZM24 35C25.6569 35 27 33.6569 27 32C27 30.3431 25.6569 29 24 29C22.3431 29 21 30.3431 21 32C21 33.6569 22.3431 35 24 35Z" fill="#1F78F0"></path></g></svg>