<svg viewBox="0 0 24 24" fill="none" xmlns="http://www.w3.org/2000/svg">


<g transform="matrix(0.5,0,0,0.5,0,0)"><path d="M4.65388 8.57316C4.84496 6.92575 5.84441 5.56573 7.46374 5.20762C9.9896 4.64902 14.8855 4 24 4C33.1145 4 38.0104 4.64902 40.5363 5.20762C42.1556 5.56574 43.155 6.92575 43.3461 8.57316C43.6351 11.0644 44 15.1673 44 20V20C44 29.0284 39.2351 37.4764 31.2074 41.6079C28.5258 42.988 25.9087 44 24 44C22.0913 44 19.4742 42.988 16.7925 41.6079C8.76493 37.4764 4 29.0284 4 20V20C4 15.1673 4.36493 11.0644 4.65388 8.57316Z" fill="#91BEFF"></path><path d="M4.70529 37.5163C4.19337 38.0374 3.83007 38.7141 4.07067 39.4038C4.25932 39.9445 4.65674 40.6567 5.47487 41.4749C6.293 42.293 7.00524 42.6904 7.54599 42.8791C8.2357 43.1197 8.91236 42.7564 9.43344 42.2445C12.3257 39.403 22.4143 29.4852 27.3952 24.5043C32.3761 19.5234 42.2939 9.43481 45.1353 6.54257C45.6472 6.02149 46.0106 5.34482 45.7699 4.65512C45.5813 4.11437 45.1839 3.40213 44.3657 2.584C43.5476 1.76587 42.8354 1.36844 42.2946 1.1798C41.6049 0.939195 40.9283 1.3025 40.4072 1.81442C37.5149 4.65583 27.4263 14.5737 22.4454 19.5546C17.4646 24.5354 7.54671 34.6241 4.70529 37.5163Z" fill="#1F78F0"></path></g></svg>