<svg viewBox="0 0 24 24" fill="none" xmlns="http://www.w3.org/2000/svg">


<g transform="matrix(0.5,0,0,0.5,0,0)"><path d="M4.65388 8.57316C4.84496 6.92575 5.84441 5.56573 7.46374 5.20762C9.9896 4.64902 14.8855 4 24 4C33.1145 4 38.0104 4.64902 40.5363 5.20762C42.1556 5.56574 43.155 6.92575 43.3461 8.57316C43.6351 11.0644 44 15.1673 44 20V20C44 29.0284 39.2351 37.4764 31.2074 41.6079C28.5258 42.988 25.9087 44 24 44C22.0913 44 19.4742 42.988 16.7926 41.6079C8.76493 37.4764 4 29.0284 4 20V20C4 15.1673 4.36493 11.0644 4.65388 8.57316Z" fill="#91BEFF"></path><path fill-rule="evenodd" clip-rule="evenodd" d="M35.5243 13.0184C36.6187 13.8603 36.8234 15.4299 35.9816 16.5243L25.9816 29.5243C25.5429 30.0945 24.8799 30.4481 24.162 30.4947C23.4441 30.5414 22.7409 30.2765 22.2322 29.7678L15.2322 22.7678C14.2559 21.7915 14.2559 20.2085 15.2322 19.2322C16.2085 18.2559 17.7915 18.2559 18.7678 19.2322L23.7544 24.2189L32.0184 13.4757C32.8603 12.3813 34.4299 12.1766 35.5243 13.0184Z" fill="#1F78F0"></path></g></svg>