<svg viewBox="0 0 24 24" fill="none" xmlns="http://www.w3.org/2000/svg">



<g transform="matrix(0.5,0,0,0.5,0,0)"><path d="M4.65388 8.57316C4.84496 6.92575 5.84441 5.56573 7.46374 5.20762C9.9896 4.64902 14.8855 4 24 4C33.1145 4 38.0104 4.64902 40.5363 5.20762C42.1556 5.56574 43.155 6.92575 43.3461 8.57316C43.6351 11.0644 44 15.1673 44 20V20C44 29.0284 39.2351 37.4764 31.2074 41.6079C28.5258 42.988 25.9087 44 24 44C22.0913 44 19.4742 42.988 16.7925 41.6079C8.76493 37.4764 4 29.0284 4 20V20C4 15.1673 4.36493 11.0644 4.65388 8.57316Z" fill="#91BEFF"></path><path fill-rule="evenodd" clip-rule="evenodd" d="M20.927 8.09534C21.5034 7.8188 22.0457 8.17782 22.3656 8.73573C22.5539 9.06438 22.7881 9.48466 23.0562 9.99001C23.4337 10.7013 23.8883 11.5998 24.2362 12.295C24.3237 12.2929 24.4116 12.2919 24.5 12.2919C24.5884 12.2919 24.6765 12.2929 24.764 12.295C25.1118 11.5998 25.5665 10.7013 25.944 9.99001C26.2121 9.48466 26.4463 9.06438 26.6346 8.73573C26.9544 8.17782 27.4968 7.8188 28.0732 8.09534C28.2048 8.15846 28.3511 8.23866 28.5129 8.34028C28.6746 8.44189 28.8117 8.53971 28.9277 8.63212C29.436 9.03702 29.4214 9.7276 29.1372 10.3079C28.9699 10.6498 28.7524 11.0805 28.4843 11.5858C28.2811 11.9687 28.046 12.3998 27.813 12.8216C30.1477 13.6218 31.9281 15.2904 32.8268 17.5639C33.0269 17.5077 33.2221 17.4539 33.4053 17.4048C33.9506 17.2588 34.401 17.1513 34.7392 17.076C35.1984 16.9737 35.6691 17.0938 35.8641 17.5219C35.9464 17.7023 36.032 17.9347 36.1118 18.2326C36.1916 18.5304 36.2336 18.7745 36.2527 18.9719C36.2978 19.4401 35.9502 19.7795 35.5014 19.9205C35.1709 20.0243 34.727 20.1565 34.1818 20.3026C33.9551 20.3634 33.7089 20.4271 33.457 20.4908C33.4644 20.6168 33.4697 20.7439 33.4727 20.8721C33.4853 21.4051 33.4939 21.9709 33.4977 22.5713C33.8776 22.5644 34.2595 22.5597 34.6 22.5597C35.1645 22.5597 35.6274 22.5725 35.9736 22.5873C36.4436 22.6073 36.8671 22.8452 36.9447 23.3091C36.9775 23.5047 37 23.7514 37 24.0597C37 24.368 36.9775 24.6147 36.9447 24.8103C36.8671 25.2742 36.4435 25.5121 35.9736 25.5321C35.6274 25.5469 35.1645 25.5597 34.6 25.5597C34.2531 25.5597 33.8633 25.5549 33.4764 25.5477C33.4752 25.6027 33.474 25.6574 33.4727 25.7117C33.4574 26.3625 33.3847 26.9858 33.2591 27.5783C33.5791 27.6584 33.896 27.7396 34.1818 27.8162C34.727 27.9623 35.1709 28.0945 35.5014 28.1984C35.9502 28.3394 36.2978 28.6788 36.2527 29.147C36.2336 29.3444 36.1916 29.5884 36.1118 29.8863C36.032 30.1841 35.9464 30.4165 35.8641 30.597C35.6691 31.025 35.1984 31.1452 34.7392 31.0429C34.401 30.9675 33.9506 30.8601 33.4053 30.714C33.0186 30.6104 32.5785 30.4858 32.1518 30.3621C30.6191 32.8211 27.8687 34.2919 24.5 34.2919C21.1312 34.2919 18.3808 32.821 16.8482 30.362C16.4215 30.4857 15.9814 30.6103 15.5947 30.7139C15.0494 30.86 14.599 30.9674 14.2608 31.0428C13.8016 31.145 13.3309 31.0249 13.1359 30.5968C13.0536 30.4164 12.968 30.184 12.8882 29.8862C12.8084 29.5883 12.7664 29.3442 12.7473 29.1469C12.7022 28.6786 13.0498 28.3392 13.4986 28.1982C13.8291 28.0944 14.273 27.9622 14.8182 27.8161C15.104 27.7395 15.4208 27.6583 15.7409 27.5782C15.6153 26.9857 15.5426 26.3624 15.5273 25.7117C15.526 25.6574 15.5248 25.6026 15.5236 25.5476C15.1367 25.5547 14.7469 25.5596 14.4 25.5596C13.8355 25.5596 13.3726 25.5468 13.0264 25.532C12.5565 25.512 12.1329 25.2741 12.0553 24.8101C12.0225 24.6145 12 24.3679 12 24.0596C12 23.7512 12.0225 23.5046 12.0553 23.309C12.1329 22.8451 12.5564 22.6072 13.0264 22.5871C13.3726 22.5724 13.8355 22.5596 14.4 22.5596C14.7405 22.5596 15.1224 22.5642 15.5023 22.5712C15.5061 21.9708 15.5147 21.4051 15.5273 20.8721C15.5303 20.7439 15.5356 20.6167 15.543 20.4906C15.2911 20.4269 15.0449 20.3632 14.8182 20.3025C14.273 20.1564 13.8291 20.0242 13.4986 19.9204C13.0498 19.7794 12.7022 19.44 12.7473 18.9717C12.7664 18.7743 12.8084 18.5303 12.8882 18.2324C12.968 17.9346 13.0536 17.7022 13.1359 17.5218C13.3309 17.0937 13.8016 16.9736 14.2608 17.0758C14.599 17.1512 15.0494 17.2586 15.5947 17.4047C15.7779 17.4538 15.9731 17.5076 16.1733 17.5638C17.072 15.2903 18.8524 13.6217 21.1872 12.8215C20.9542 12.3998 20.7191 11.9687 20.5159 11.5858C20.2478 11.0805 20.0303 10.6498 19.863 10.3079C19.5788 9.7276 19.5642 9.03702 20.0725 8.63212C20.1885 8.53971 20.3255 8.44189 20.4873 8.34028C20.6491 8.23866 20.7954 8.15846 20.927 8.09534Z" fill="#1F78F0"></path><path fill-rule="evenodd" clip-rule="evenodd" d="M23 21.3333C23 20.7717 22.5375 20.3191 21.9764 20.3429C21.0983 20.3802 20.3247 20.4356 19.6468 20.5013C19.3102 20.5339 19.0104 20.7378 18.8883 21.0532C18.6336 21.7112 18.4974 22.4288 18.5057 23.1835C18.5166 24.1618 18.5439 25.1776 18.597 26.1595C18.7176 28.3892 19.9837 30.1178 21.8571 30.8739C22.4332 31.1064 23 30.6296 23 30.0084V21.3333ZM26 30.0084C26 30.6296 26.5669 31.1063 27.1429 30.8738C29.0163 30.1178 30.2823 28.3892 30.4029 26.1595C30.456 25.1777 30.4834 24.1619 30.4943 23.1836C30.5026 22.4289 30.3664 21.7112 30.1117 21.0532C29.9896 20.7378 29.6898 20.5339 29.3532 20.5013C28.6753 20.4357 27.9017 20.3802 27.0236 20.3429C26.4625 20.3191 26 20.7717 26 21.3333V30.0084Z" fill="#91BEFF"></path></g></svg>