<svg viewBox="0 0 24 24" fill="none" xmlns="http://www.w3.org/2000/svg">



<g transform="matrix(0.5,0,0,0.5,0,0)"><path d="M4.65388 8.57316C4.84496 6.92575 5.84441 5.56573 7.46374 5.20762C9.9896 4.64902 14.8855 4 24 4C33.1145 4 38.0104 4.64902 40.5363 5.20762C42.1556 5.56574 43.155 6.92575 43.3461 8.57316C43.6351 11.0644 44 15.1673 44 20V20C44 29.0284 39.2351 37.4764 31.2074 41.6079C28.5258 42.988 25.9087 44 24 44C22.0913 44 19.4742 42.988 16.7925 41.6079C8.76493 37.4764 4 29.0284 4 20V20C4 15.1673 4.36493 11.0644 4.65388 8.57316Z" fill="#91BEFF"></path><path fill-rule="evenodd" clip-rule="evenodd" d="M24 9C20.4134 9 17.4569 11.8124 17.2778 15.3945L17.1853 17.2438C15.4476 17.4076 14.2401 18.6569 14.1255 20.4012C14.0539 21.4904 14 22.981 14 25C14 27.1788 14.0733 28.7422 14.1666 29.8499C14.3019 31.4565 15.4318 32.5842 17.0366 32.7395C18.4754 32.8786 20.6814 33 24 33C27.3186 33 29.5246 32.8786 30.9634 32.7395C32.5682 32.5842 33.6981 31.4565 33.8334 29.8499C33.9267 28.7422 34 27.1788 34 25C34 22.8212 33.9267 21.2578 33.8334 20.1501C33.6981 18.5435 32.5682 17.4158 30.9634 17.2605C30.9147 17.2558 30.8652 17.2511 30.8148 17.2465L30.7222 15.3945C30.5431 11.8124 27.5866 9 24 9ZM26.7991 17.0325L26.7272 15.5943C26.6546 14.141 25.4551 13 24 13C22.5449 13 21.3454 14.141 21.2728 15.5943L21.2009 17.0324C22.0335 17.0118 22.9632 17 24 17C25.0385 17 25.968 17.0119 26.7991 17.0325Z" fill="#1F78F0"></path><path fill-rule="evenodd" clip-rule="evenodd" d="M24.806 25.831C25.5091 25.521 26 24.8178 26 24C26 22.8954 25.1046 22 24 22C22.8954 22 22 22.8954 22 24C22 24.8178 22.4909 25.521 23.194 25.831L23.0532 27.083C23.0184 27.3923 23.069 27.7305 23.3485 27.8676C23.4998 27.9419 23.7107 28 24 28C24.2893 28 24.5002 27.9419 24.6515 27.8676C24.931 27.7305 24.9816 27.3923 24.9468 27.083L24.806 25.831Z" fill="#91BEFF"></path></g></svg>