<svg viewBox="0 0 24 24" fill="none" xmlns="http://www.w3.org/2000/svg">


<g transform="matrix(0.5,0,0,0.5,0,0)"><path d="M43.3461 8.57316C43.155 6.92575 42.1556 5.56573 40.5363 5.20762C38.0104 4.64902 33.1145 4 24 4C14.8855 4 9.9896 4.64902 7.46374 5.20762C5.84441 5.56574 4.84496 6.92575 4.65388 8.57316C4.36493 11.0644 4 15.1673 4 20V20C4 29.0284 8.76493 37.4764 16.7926 41.6079C19.4742 42.988 22.0913 44 24 44C25.9087 44 28.5258 42.988 31.2074 41.6079C39.2351 37.4764 44 29.0284 44 20V20C44 15.1673 43.6351 11.0644 43.3461 8.57316Z" fill="#91BEFF"></path><path fill-rule="evenodd" clip-rule="evenodd" d="M12.0063 20.0001C11.4516 20.0001 11.0021 19.5478 11.0143 18.9931C11.059 16.9622 11.1931 15.1913 11.3266 13.8609C11.492 12.2117 12.5083 10.8762 14.1418 10.5955C15.5589 10.352 17.7238 10.1157 20.9782 10.0235C21.5372 10.0076 22 10.4587 22 11.0179V19.0001C22 19.5523 21.5522 20.0001 21 20.0001H12.0063ZM36.9856 18.9931C36.9978 19.5478 36.5483 20.0001 35.9936 20.0001H27C26.4477 20.0001 26 19.5523 26 19.0001V11.0179C26 10.4587 26.4627 10.0076 27.0217 10.0235C30.2761 10.1157 32.441 10.352 33.8581 10.5955C35.4917 10.8762 36.5079 12.2117 36.6733 13.8609C36.8068 15.1913 36.9409 16.9622 36.9856 18.9931ZM20.822 35.7165C21.4259 35.8907 22 35.4165 22 34.788V25.0001C22 24.4478 21.5522 24.0001 21 24.0001H12.0667C11.489 24.0001 11.0277 24.4897 11.1144 25.0608C11.9182 30.3554 16.0615 34.3434 20.822 35.7165ZM27.1779 35.7165C26.574 35.8907 26 35.4165 26 34.788V25.0001C26 24.4478 26.4477 24.0001 27 24.0001H35.9332C36.5109 24.0001 36.9722 24.4897 36.8855 25.0608C36.0817 30.3554 31.9384 34.3434 27.1779 35.7165Z" fill="#1F78F0"></path></g></svg>