<svg viewBox="0 0 24 24" fill="none" xmlns="http://www.w3.org/2000/svg">



<g transform="matrix(0.5,0,0,0.5,0,0)"><path fill-rule="evenodd" clip-rule="evenodd" d="M13.8716 4.17191C13.6304 4.18629 11.5867 4.41337 8.00009 7.99998C4.38186 11.6182 4.18586 13.5854 4.17524 13.7879C4.17506 13.7924 4.17487 13.797 4.17469 13.8016C4.17463 13.8041 4.17463 13.8053 4.17463 13.8053L4.17455 13.8052C4.07072 16.4095 4 19.7451 4 24C4 33.2895 4.33709 39.2081 4.61984 42.5387C4.75053 44.0781 6.49285 44.756 7.6797 43.7669L11 41L13.7342 43.7342C14.4548 44.4548 15.602 44.5184 16.3978 43.8817L20 41L22.5858 43.5858C23.3668 44.3668 24.6332 44.3668 25.4142 43.5858L28 41L31.6022 43.8817C32.398 44.5184 33.5452 44.4548 34.2658 43.7342L37 41L40.3203 43.7669C41.5071 44.756 43.2495 44.0781 43.3802 42.5387C43.6629 39.2081 44 33.2895 44 24C44 15.4507 43.7145 10.6131 43.4486 7.96144C43.2601 6.08233 41.9177 4.73985 40.0386 4.55141C37.3869 4.28551 32.5493 4 24 4C19.7811 4 16.4661 4.06953 13.8716 4.17191Z" fill="#91BEFF"></path><path d="M4.17455 13.8053C5.04959 13.913 6.28663 14 8.00001 14C9.25896 14 10.2607 13.953 11.0507 13.8854C12.7708 13.7381 13.8883 12.423 13.9544 10.6979C13.9817 9.98399 14 9.09659 14 7.99999C14 6.22704 13.9522 5.00092 13.8957 4.17096C13.8957 4.17096 11.8255 4.17454 8 7.99999C4.17455 11.8254 4.17455 13.8053 4.17455 13.8053Z" fill="#1F78F0"></path><path fill-rule="evenodd" clip-rule="evenodd" d="M20 16.2516V14.896C20 14.4513 20.2937 14.0455 20.737 14.0105C20.8253 14.0036 20.9132 14 21 14C21.4405 14 21.756 14.0901 21.9464 14.2702C22.1488 14.4503 22.25 14.7759 22.25 15.247V16.0429C22.5265 16.0324 22.8073 16.0271 23.0922 16.0271C23.3174 16.0271 23.5367 16.0316 23.75 16.0407V14.896C23.75 14.4513 24.0437 14.0455 24.487 14.0105C24.5753 14.0036 24.6632 14 24.75 14C25.1905 14 25.506 14.0901 25.6964 14.2702C25.8988 14.4503 26 14.7759 26 15.247V16.3591C26.616 16.5245 27.1511 16.7517 27.6053 17.0407C28.6672 17.7004 29.1981 18.7301 29.1981 20.1299C29.1981 20.8539 29.005 21.4814 28.6189 22.0123C28.2488 22.5432 27.6857 22.9696 26.9295 23.2914C27.8627 23.5971 28.5626 24.0556 29.0292 24.667C29.4958 25.2784 29.7291 26.0024 29.7291 26.8391C29.7291 28.3675 29.174 29.5018 28.0638 30.2419C27.5031 30.6157 26.8152 30.8952 26 31.0802V33.1243C26 33.5299 25.7545 33.9057 25.3539 33.9689C25.2283 33.9888 25.1065 34 25 34C24.5595 34 24.2381 33.873 24.0357 33.6189C23.8452 33.3649 23.75 32.9057 23.75 32.2413V31.3445C23.5824 31.3496 23.4114 31.3521 23.237 31.3521C22.9321 31.3521 22.603 31.3441 22.25 31.3281V33.1243C22.25 33.5299 22.0045 33.9057 21.6039 33.9689C21.4783 33.9888 21.3565 34 21.25 34C20.8095 34 20.4881 33.873 20.2857 33.6189C20.0952 33.3649 20 32.9057 20 32.2413V31.0344C19.7017 30.9752 19.4211 30.9041 19.1584 30.8212C18.3861 30.5637 18 30.0891 18 29.3973V17.5958C18 17.2901 18.0804 17.0568 18.2413 16.8959C18.4022 16.735 18.6275 16.6063 18.9171 16.5098C19.2461 16.4033 19.607 16.3173 20 16.2516ZM25.8435 25.198C26.3101 25.568 26.5434 26.0748 26.5434 26.7184C26.5434 27.4746 26.2618 28.0297 25.6987 28.3836C25.1517 28.7215 24.3874 28.8904 23.406 28.8904C22.9877 28.8904 22.5613 28.8744 22.1269 28.8422C21.7086 28.81 21.3466 28.7537 21.0409 28.6732V24.6429H23.8645C24.7333 24.6429 25.393 24.8279 25.8435 25.198ZM23.4784 22.3502H21.0409V18.6094C21.2983 18.5612 21.604 18.5209 21.958 18.4888C22.328 18.4566 22.7141 18.4405 23.1164 18.4405C25.0793 18.4405 26.0607 19.076 26.0607 20.3471C26.0607 20.9745 25.8435 21.4653 25.4091 21.8192C24.9908 22.1732 24.3472 22.3502 23.4784 22.3502Z" fill="#1F78F0"></path></g></svg>