<svg viewBox="0 0 24 24" fill="none" xmlns="http://www.w3.org/2000/svg">



<g transform="matrix(0.5,0,0,0.5,0,0)"><path fill-rule="evenodd" clip-rule="evenodd" d="M13.8716 4.17191C13.6304 4.18629 11.5867 4.41337 8.00009 7.99998C4.38186 11.6182 4.18586 13.5854 4.17524 13.7879C4.17506 13.7924 4.17487 13.797 4.17469 13.8016C4.17463 13.8041 4.17463 13.8053 4.17463 13.8053L4.17455 13.8052C4.07072 16.4095 4 19.7451 4 24C4 33.2895 4.33709 39.2081 4.61984 42.5387C4.75053 44.0781 6.49285 44.756 7.6797 43.7669L11 41L13.7342 43.7342C14.4548 44.4548 15.602 44.5184 16.3978 43.8817L20 41L22.5858 43.5858C23.3668 44.3668 24.6332 44.3668 25.4142 43.5858L28 41L31.6022 43.8817C32.398 44.5184 33.5452 44.4548 34.2658 43.7342L37 41L40.3203 43.7669C41.5071 44.756 43.2495 44.0781 43.3802 42.5387C43.6629 39.2081 44 33.2895 44 24C44 15.4507 43.7145 10.6131 43.4486 7.96144C43.2601 6.08233 41.9177 4.73985 40.0386 4.55141C37.3869 4.28551 32.5493 4 24 4C19.7811 4 16.4661 4.06953 13.8716 4.17191Z" fill="#91BEFF"></path><path d="M4.17455 13.8053C5.04959 13.913 6.28663 14 8.00001 14C9.25896 14 10.2607 13.953 11.0507 13.8854C12.7708 13.7381 13.8883 12.423 13.9544 10.6979C13.9817 9.98399 14 9.09659 14 7.99999C14 6.22704 13.9522 5.00092 13.8957 4.17096C13.8957 4.17096 11.8255 4.17454 8 7.99999C4.17455 11.8254 4.17455 13.8053 4.17455 13.8053Z" fill="#1F78F0"></path><path fill-rule="evenodd" clip-rule="evenodd" d="M18.2211 23.9051C18.2748 24.434 18.8195 24.6826 19.3511 24.6826H22.325L22.5125 25.107V25.8912V26.1631H19.0872C18.8362 26.1631 18.6271 26.2384 18.4598 26.389C18.2925 26.5395 18.2089 26.8156 18.2089 27.2171C18.2089 27.3135 18.2135 27.4055 18.2226 27.4928C18.2781 28.0215 18.8195 28.271 19.3511 28.271H22.5V30.0527C22.5 30.588 22.6338 30.9728 22.9015 31.207C23.1691 31.4412 23.6125 31.5583 24.2315 31.5583C24.2753 31.5583 24.3191 31.5577 24.3629 31.5565C25.1656 31.5342 25.712 30.7942 25.712 29.9912V28.271H29.0746C29.3256 28.271 29.5347 28.1874 29.702 28.0201C29.886 27.8528 29.978 27.5851 29.978 27.2171C29.978 27.1604 29.975 27.1032 29.9694 27.0456C29.9138 26.4802 29.3431 26.1631 28.7749 26.1631H25.7166V25.8912V25.107L25.917 24.6826H29.0746C29.3423 24.6826 29.5598 24.5989 29.7271 24.4316C29.9111 24.2643 30.0031 24.005 30.0031 23.6537C30.0031 23.6049 30.0009 23.5559 29.9966 23.5069C29.9455 22.9163 29.345 22.5747 28.7523 22.5747H27.3682C28.2883 21.069 28.9826 19.8896 29.451 19.0364C29.9195 18.1665 30.1537 17.5893 30.1537 17.3049C30.1537 16.9034 30.0198 16.5855 29.7522 16.3513C29.4845 16.1171 29.1332 16 28.6982 16C28.6486 16 28.5993 16.0009 28.5505 16.0028C27.6708 16.0365 27.0335 16.7551 26.65 17.5475L26.4397 17.9824C26.2055 18.4676 25.9797 18.9444 25.7622 19.4128C25.5447 19.8645 25.3105 20.3245 25.0596 20.793C24.8254 21.2447 24.5577 21.7549 24.2566 22.3237H24.106L21.3456 17.4304C21.0445 16.895 20.7601 16.527 20.4924 16.3262C20.2248 16.1087 19.8484 16 19.3632 16C19.0754 16 18.8054 16.0633 18.5599 16.1776C17.923 16.4741 17.8735 17.3002 18.1909 17.9269C18.447 18.4326 18.7457 18.9781 19.0872 19.5634C19.6727 20.5671 20.2833 21.5709 20.919 22.5747H19.0872C18.8362 22.5747 18.6271 22.6583 18.4598 22.8256C18.2925 22.9929 18.2089 23.2689 18.2089 23.6537C18.2089 23.7412 18.2129 23.825 18.2211 23.9051Z" fill="#1F78F0"></path></g></svg>