<svg viewBox="0 0 24 24" fill="none" xmlns="http://www.w3.org/2000/svg">



<g transform="matrix(0.5,0,0,0.5,0,0)"><path fill-rule="evenodd" clip-rule="evenodd" d="M13.8716 4.17191C13.6304 4.18629 11.5867 4.41337 8.00009 7.99998C4.38186 11.6182 4.18586 13.5854 4.17524 13.7879C4.17506 13.7924 4.17487 13.797 4.17469 13.8016C4.17463 13.8041 4.17463 13.8053 4.17463 13.8053L4.17455 13.8052C4.07072 16.4095 4 19.7451 4 24C4 33.2895 4.33709 39.2081 4.61984 42.5387C4.75053 44.0781 6.49285 44.756 7.6797 43.7669L11 41L13.7342 43.7342C14.4548 44.4548 15.602 44.5184 16.3978 43.8817L20 41L22.5858 43.5858C23.3668 44.3668 24.6332 44.3668 25.4142 43.5858L28 41L31.6022 43.8817C32.398 44.5184 33.5452 44.4548 34.2658 43.7342L37 41L40.3203 43.7669C41.5071 44.756 43.2495 44.0781 43.3802 42.5387C43.6629 39.2081 44 33.2895 44 24C44 15.4507 43.7145 10.6131 43.4486 7.96144C43.2601 6.08233 41.9177 4.73985 40.0386 4.55141C37.3869 4.28551 32.5493 4 24 4C19.7811 4 16.4661 4.06953 13.8716 4.17191Z" fill="#91BEFF"></path><path d="M4.17455 13.8053C5.04959 13.913 6.28663 14 8.00001 14C9.25896 14 10.2607 13.953 11.0507 13.8854C12.7708 13.7381 13.8883 12.423 13.9544 10.6979C13.9817 9.98399 14 9.09659 14 7.99999C14 6.22704 13.9522 5.00092 13.8957 4.17096C13.8957 4.17096 11.8255 4.17454 8 7.99999C4.17455 11.8254 4.17455 13.8053 4.17455 13.8053Z" fill="#1F78F0"></path><path d="M21.1704 26.0125C21.1704 25.9122 21.162 25.8118 21.1453 25.7114C21.1453 25.5943 21.1453 25.4688 21.1453 25.335H20.1666C19.8487 25.335 19.5894 25.243 19.3887 25.059C19.1879 24.8582 19.0875 24.5236 19.0875 24.0552C19.0875 23.9423 19.0968 23.8321 19.114 23.724C19.203 23.1629 19.7727 22.8507 20.3408 22.8507H20.8943C20.8609 22.5663 20.8358 22.2903 20.819 22.0226C20.8023 21.7382 20.7939 21.4789 20.7939 21.2447C20.7939 20.3246 20.9361 19.5383 21.2205 18.8858C21.5049 18.2166 21.8897 17.6729 22.3749 17.2547C22.8768 16.8197 23.4539 16.5019 24.1064 16.3011C24.7755 16.1004 25.4865 16 26.2394 16C27.3435 16 28.1716 16.184 28.7237 16.5521C29.2925 16.9034 29.5769 17.3551 29.5769 17.9072C29.5769 18.0342 29.5617 18.1671 29.5315 18.2987C29.3759 18.9761 28.5638 18.9513 27.8956 18.7604V18.7604C27.561 18.6432 27.1511 18.5847 26.666 18.5847C25.7626 18.5847 25.0767 18.8105 24.6083 19.2622C24.1566 19.7139 23.9307 20.4417 23.9307 21.4454C23.9307 21.6462 23.9307 21.8637 23.9307 22.0979C23.9474 22.3321 23.9642 22.583 23.9809 22.8507H27.094C27.6622 22.8507 28.2247 23.1649 28.3185 23.7252C28.337 23.8358 28.3473 23.9464 28.3473 24.0552C28.3473 24.5236 28.2469 24.8582 28.0461 25.059C27.8454 25.243 27.5777 25.335 27.2431 25.335H24.2318C24.2486 25.4688 24.2569 25.6027 24.2569 25.7365C24.2569 25.8536 24.2569 25.9624 24.2569 26.0627C24.2569 27.3844 23.9056 28.4049 23.203 29.1242H28.5974C29.2329 29.1242 29.8565 29.4725 29.9163 30.1052C29.9242 30.1893 29.9282 30.2725 29.9282 30.3538C29.9282 30.7888 29.8278 31.115 29.6271 31.3325C29.4263 31.5333 29.1586 31.6336 28.8241 31.6336H20.4175C20.0328 31.6336 19.6982 31.4998 19.4138 31.2321C19.2741 31.0838 19.1714 30.9 19.1032 30.7006C18.8926 30.0849 19.4161 29.5515 19.9317 29.1545C20.2204 28.9323 20.4576 28.6796 20.6434 28.3965C20.9947 27.8611 21.1704 27.0665 21.1704 26.0125Z" fill="#1F78F0"></path></g></svg>