<svg viewBox="0 0 24 24" fill="none" xmlns="http://www.w3.org/2000/svg">



<g transform="matrix(0.5,0,0,0.5,0,0)"><path fill-rule="evenodd" clip-rule="evenodd" d="M13.8716 4.17191C13.6304 4.18629 11.5867 4.41337 8.00009 7.99998C4.38186 11.6182 4.18586 13.5854 4.17524 13.7879C4.17506 13.7924 4.17487 13.797 4.17469 13.8016C4.17463 13.8041 4.17463 13.8053 4.17463 13.8053L4.17455 13.8052C4.07072 16.4095 4 19.7451 4 24C4 33.2895 4.33709 39.2081 4.61984 42.5387C4.75053 44.0781 6.49285 44.756 7.6797 43.7669L11 41L13.7342 43.7342C14.4548 44.4548 15.602 44.5184 16.3978 43.8817L20 41L22.5858 43.5858C23.3668 44.3668 24.6332 44.3668 25.4142 43.5858L28 41L31.6022 43.8817C32.398 44.5184 33.5452 44.4548 34.2658 43.7342L37 41L40.3203 43.7669C41.5071 44.756 43.2495 44.0781 43.3802 42.5387C43.6629 39.2081 44 33.2895 44 24C44 15.4507 43.7145 10.6131 43.4486 7.96144C43.2601 6.08233 41.9177 4.73985 40.0386 4.55141C37.3869 4.28551 32.5493 4 24 4C19.7811 4 16.4661 4.06953 13.8716 4.17191Z" fill="#91BEFF"></path><path d="M4.17455 13.8053C5.04959 13.913 6.28663 14 8.00001 14C9.25896 14 10.2607 13.953 11.0507 13.8854C12.7708 13.7381 13.8883 12.423 13.9544 10.6979C13.9817 9.98399 14 9.09659 14 7.99999C14 6.22704 13.9522 5.00092 13.8957 4.17096C13.8957 4.17096 11.8255 4.17454 8 7.99999C4.17455 11.8254 4.17455 13.8053 4.17455 13.8053Z" fill="#1F78F0"></path><path fill-rule="evenodd" clip-rule="evenodd" d="M25.2799 13.5277C24.5602 12.8241 23.4341 12.8241 22.7144 13.5277C20.9109 15.2909 17.5957 18.7885 15.3529 22.674C14.8824 23.4892 14.8824 24.4901 15.3529 25.3053C17.5957 29.1908 20.9109 32.6884 22.7144 34.4516C23.4341 35.1552 24.5602 35.1552 25.2799 34.4517C27.0836 32.6884 30.3991 29.1907 32.6416 25.3051C33.112 24.49 33.112 23.4893 32.6416 22.6742C30.3991 18.7886 27.0836 15.2909 25.2799 13.5277ZM19.9678 26.6474C21.9289 29.1657 23.9971 30.6749 23.9971 30.6749C23.9971 30.6749 26.0663 29.1655 28.0277 26.647C26.2892 27.3739 24.498 28.0681 23.9973 28.0681C23.4966 28.0681 21.706 27.3742 19.9678 26.6474ZM29.3125 23.1835C27.1043 19.5709 23.9971 17.3044 23.9971 17.3044C23.9971 17.3044 20.8912 19.5709 18.6825 23.1836C20.5018 23.9212 23.303 25.0093 23.9976 25.0093C24.6922 25.0093 27.4934 23.9211 29.3125 23.1835Z" fill="#1F78F0"></path></g></svg>