<svg viewBox="0 0 24 24" fill="none" xmlns="http://www.w3.org/2000/svg">



<g transform="matrix(0.5,0,0,0.5,0,0)"><path fill-rule="evenodd" clip-rule="evenodd" d="M13.8716 4.17191C13.6304 4.18629 11.5867 4.41337 8.00009 7.99998C4.38186 11.6182 4.18586 13.5854 4.17524 13.7879C4.17506 13.7924 4.17487 13.797 4.17469 13.8016C4.17463 13.8041 4.17463 13.8053 4.17463 13.8053L4.17455 13.8052C4.07072 16.4095 4 19.7451 4 24C4 33.2895 4.33709 39.2081 4.61984 42.5387C4.75053 44.0781 6.49285 44.756 7.6797 43.7669L11 41L13.7342 43.7342C14.4548 44.4548 15.602 44.5184 16.3978 43.8817L20 41L22.5858 43.5858C23.3668 44.3668 24.6332 44.3668 25.4142 43.5858L28 41L31.6022 43.8817C32.398 44.5184 33.5452 44.4548 34.2658 43.7342L37 41L40.3203 43.7669C41.5071 44.756 43.2495 44.0781 43.3802 42.5387C43.6629 39.2081 44 33.2895 44 24C44 15.4507 43.7145 10.6131 43.4486 7.96144C43.2601 6.08233 41.9177 4.73985 40.0386 4.55141C37.3869 4.28551 32.5493 4 24 4C19.7811 4 16.4661 4.06953 13.8716 4.17191Z" fill="#91BEFF"></path><path d="M4.17455 13.8053C5.04959 13.913 6.28663 14 8.00001 14C9.25896 14 10.2607 13.953 11.0507 13.8854C12.7708 13.7381 13.8883 12.423 13.9544 10.6979C13.9817 9.98399 14 9.09659 14 7.99999C14 6.22704 13.9522 5.00092 13.8957 4.17096C13.8957 4.17096 11.8255 4.17454 8 7.99999C4.17455 11.8254 4.17455 13.8053 4.17455 13.8053Z" fill="#1F78F0"></path><path fill-rule="evenodd" clip-rule="evenodd" d="M23.8507 28.7729C23.1146 28.3212 22.5542 27.6604 22.1694 26.7905H27.8657C28.1167 26.7905 28.3174 26.7068 28.468 26.5395C28.6353 26.3722 28.7189 26.1213 28.7189 25.7867C28.7189 25.7376 28.7167 25.6884 28.7124 25.6393C28.6626 25.0733 28.084 24.7578 27.5159 24.7578H21.6986C21.6729 24.5296 21.6597 24.2968 21.6597 24.0605C21.6597 23.8206 21.6734 23.5843 21.6998 23.3526H27.8657C28.1167 23.3526 28.3174 23.2773 28.468 23.1267C28.6353 22.9594 28.7189 22.7001 28.7189 22.3488C28.7189 22.3002 28.7166 22.2511 28.712 22.2017C28.6601 21.636 28.084 21.3199 27.5159 21.3199H22.1694C22.5542 20.4166 23.1146 19.739 23.8507 19.2873C24.5868 18.8356 25.4316 18.6098 26.3852 18.6098C27.1882 18.6098 27.8574 18.7269 28.3927 18.9611C28.5235 19.0142 28.6512 19.0693 28.776 19.1264C29.4589 19.4391 30.382 19.5244 30.6545 18.8245C30.7169 18.6641 30.7516 18.4914 30.7516 18.3087C30.7516 17.9908 30.6345 17.698 30.4003 17.4304C30.1828 17.146 29.8649 16.9034 29.4467 16.7026C29.0452 16.4852 28.5433 16.3179 27.941 16.2008C27.3555 16.0669 26.7031 16 25.9837 16C24.294 16 22.8135 16.4517 21.542 17.3551C20.2706 18.2585 19.3923 19.5801 18.9072 21.3199H17.8532C17.619 21.3199 17.4182 21.3952 17.2509 21.5458C17.0836 21.6964 17 21.964 17 22.3488C17 22.4417 17.0046 22.5301 17.0137 22.6138C17.0693 23.1216 17.5951 23.3526 18.106 23.3526H18.719V24.7578H17.8532C17.619 24.7578 17.4182 24.8331 17.2509 24.9837C17.0836 25.1343 17 25.4019 17 25.7867C17 25.8653 17.0035 25.941 17.0106 26.0138C17.0623 26.5429 17.6106 26.7905 18.1422 26.7905H18.8821C19.0995 27.6604 19.4341 28.4216 19.8858 29.074C20.3542 29.7265 20.9063 30.2785 21.542 30.7302C22.1777 31.1652 22.8887 31.4914 23.675 31.7089C24.478 31.9264 25.3312 32.0351 26.2346 32.0351C27.138 32.0351 27.8825 31.9515 28.468 31.7842C29.0703 31.6169 29.5387 31.4329 29.8733 31.2321C30.5257 30.8641 30.8519 30.3873 30.8519 29.8018C30.8519 29.6489 30.8298 29.503 30.7888 29.3651C30.5637 28.6091 29.5795 28.6663 28.8572 28.9832C28.7468 29.0317 28.6338 29.0787 28.5182 29.1242C27.9829 29.325 27.322 29.4253 26.5358 29.4253C25.4818 29.4253 24.5868 29.2079 23.8507 28.7729Z" fill="#1F78F0"></path></g></svg>