<svg viewBox="0 0 24 24" fill="none" xmlns="http://www.w3.org/2000/svg">



<g transform="matrix(0.5,0,0,0.5,0,0)"><path fill-rule="evenodd" clip-rule="evenodd" d="M13.8716 4.17191C13.6304 4.18629 11.5867 4.41337 8.00009 7.99998C4.38186 11.6182 4.18586 13.5854 4.17524 13.7879C4.17506 13.7924 4.17487 13.797 4.17469 13.8016C4.17463 13.8041 4.17463 13.8053 4.17463 13.8053L4.17455 13.8052C4.07072 16.4095 4 19.7451 4 24C4 33.2895 4.33709 39.2081 4.61984 42.5387C4.75053 44.0781 6.49285 44.756 7.6797 43.7669L11 41L13.7342 43.7342C14.4548 44.4548 15.602 44.5184 16.3978 43.8817L20 41L22.5858 43.5858C23.3668 44.3668 24.6332 44.3668 25.4142 43.5858L28 41L31.6022 43.8817C32.398 44.5184 33.5452 44.4548 34.2658 43.7342L37 41L40.3203 43.7669C41.5071 44.756 43.2495 44.0781 43.3802 42.5387C43.6629 39.2081 44 33.2895 44 24C44 15.4507 43.7145 10.6131 43.4486 7.96144C43.2601 6.08233 41.9177 4.73985 40.0386 4.55141C37.3869 4.28551 32.5493 4 24 4C19.7811 4 16.4661 4.06953 13.8716 4.17191Z" fill="#91BEFF"></path><path d="M4.17455 13.8053C5.04959 13.913 6.28663 14 8.00001 14C9.25896 14 10.2607 13.953 11.0507 13.8854C12.7708 13.7381 13.8883 12.423 13.9544 10.6979C13.9817 9.98399 14 9.09659 14 7.99999C14 6.22704 13.9522 5.00092 13.8957 4.17096C13.8957 4.17096 11.8255 4.17454 8 7.99999C4.17455 11.8254 4.17455 13.8053 4.17455 13.8053Z" fill="#1F78F0"></path><path fill-rule="evenodd" clip-rule="evenodd" d="M23.019 15L29.4264 15C29.8443 15 30.2581 15.2072 30.3491 15.6151C30.3802 15.7546 30.3965 15.8956 30.3965 16.0289C30.3965 16.4471 30.3045 16.7399 30.1205 16.9072C29.9364 17.0744 29.7106 17.1581 29.4429 17.1581H26.9843C27.3404 17.7504 27.5657 18.4446 27.6603 19.2409H29.3228C29.7963 19.2409 30.2659 19.5002 30.361 19.964C30.3835 20.0739 30.3965 20.1847 30.3965 20.2949C30.3965 20.6796 30.3045 20.964 30.1205 21.1481C29.9364 21.3154 29.7106 21.399 29.4429 21.399H27.7114C27.7114 22.9548 27.2932 24.1844 26.4567 25.0878C25.6202 25.9745 24.4743 26.4596 23.0188 26.5433L27.1042 30.1367C27.5523 30.5309 27.8642 31.1328 27.6108 31.6731C27.5438 31.8158 27.4603 31.9461 27.3601 32.064C27.0924 32.3986 26.7077 32.5659 26.2058 32.5659C25.8879 32.5659 25.5951 32.4739 25.3275 32.2898C25.0598 32.1058 24.767 31.8465 24.4492 31.5119L19.606 26.5182C19.5224 26.2673 19.4806 26.0414 19.4806 25.8407C19.4806 25.3555 19.6813 24.9791 20.0828 24.7114H21.4379C22.4918 24.7114 23.2865 24.4354 23.8218 23.8833C24.3739 23.3312 24.6499 22.5031 24.6499 21.399H19.026C18.5619 21.399 18.0876 21.2024 18.0237 20.7428C18.0058 20.6143 18 20.4862 18 20.3701C18 19.9686 18.0836 19.6842 18.2509 19.5169C18.435 19.3329 18.6608 19.2409 18.9285 19.2409H24.5783C24.4636 18.5765 24.2115 18.0495 23.8219 17.66C23.6226 17.4544 23.3873 17.2871 23.1161 17.1581H19.1208C18.6014 17.1581 18.071 16.919 18.015 16.4027C18.0042 16.3028 18 16.2024 18 16.1041C18 15.7194 18.0836 15.4433 18.2509 15.276C18.435 15.092 18.6608 15 18.9285 15H23.0189L23.0189 15C23.0189 15 23.019 15 23.019 15Z" fill="#1F78F0"></path></g></svg>