<svg viewBox="0 0 24 24" fill="none" xmlns="http://www.w3.org/2000/svg">



<g transform="matrix(0.5,0,0,0.5,0,0)"><path fill-rule="evenodd" clip-rule="evenodd" d="M13.8716 4.17191C13.6304 4.18629 11.5867 4.41337 8.00009 7.99998C4.38186 11.6182 4.18586 13.5854 4.17524 13.7879C4.17506 13.7924 4.17487 13.797 4.17469 13.8016C4.17463 13.8041 4.17463 13.8053 4.17463 13.8053L4.17455 13.8052C4.07072 16.4095 4 19.7451 4 24C4 33.2895 4.33709 39.2081 4.61984 42.5387C4.75053 44.0781 6.49285 44.756 7.6797 43.7669L11 41L13.7342 43.7342C14.4548 44.4548 15.602 44.5184 16.3978 43.8817L20 41L22.5858 43.5858C23.3668 44.3668 24.6332 44.3668 25.4142 43.5858L28 41L31.6022 43.8817C32.398 44.5184 33.5452 44.4548 34.2658 43.7342L37 41L40.3203 43.7669C41.5071 44.756 43.2495 44.0781 43.3802 42.5387C43.6629 39.2081 44 33.2895 44 24C44 15.4507 43.7145 10.6131 43.4486 7.96144C43.2601 6.08233 41.9177 4.73985 40.0386 4.55141C37.3869 4.28551 32.5493 4 24 4C19.7811 4 16.4661 4.06953 13.8716 4.17191Z" fill="#91BEFF"></path><path d="M4.17455 13.8053C5.04959 13.913 6.28663 14 8.00001 14C9.25896 14 10.2607 13.953 11.0507 13.8854C12.7708 13.7381 13.8883 12.423 13.9544 10.6979C13.9817 9.98399 14 9.09659 14 7.99999C14 6.22704 13.9522 5.00092 13.8957 4.17096C13.8957 4.17096 11.8255 4.17454 8 7.99999C4.17455 11.8254 4.17455 13.8053 4.17455 13.8053Z" fill="#1F78F0"></path><path d="M23.2447 29.0314C24.1481 29.0314 24.8005 28.8641 25.202 28.5295C25.6202 28.1949 25.8294 27.785 25.8294 27.2999C25.8294 26.8649 25.6704 26.5136 25.3526 26.2459C25.0347 25.9783 24.5579 25.744 23.9222 25.5433L22.542 25.0916C21.8561 24.8741 21.2371 24.6399 20.6851 24.389C20.133 24.138 19.6646 23.8369 19.2798 23.4856C18.895 23.1343 18.5939 22.716 18.3764 22.2309C18.1589 21.7457 18.0502 21.1685 18.0502 20.4994C18.0502 19.3618 18.4015 18.4166 19.1041 17.6637C19.8068 16.9109 20.8105 16.409 22.1154 16.1581V15.542C22.1154 14.739 22.6645 14.0085 23.4674 14.0003C23.4852 14.0001 23.503 14 23.5207 14C24.1397 14 24.583 14.1087 24.8507 14.3262C25.1351 14.5437 25.2773 14.9368 25.2773 15.5056V16.0577C26.348 16.1748 27.2179 16.4341 27.8871 16.8356C28.5563 17.2204 28.8908 17.7307 28.8908 18.3664C28.8908 18.5462 28.8633 18.7175 28.8129 18.8795C28.559 19.6956 27.4853 19.6581 26.6709 19.3991C26.5853 19.3719 26.4972 19.3455 26.4065 19.3199C25.7708 19.1192 25.0765 19.0188 24.3237 19.0188C23.4872 19.0188 22.8599 19.161 22.4417 19.4454C22.0402 19.7131 21.8394 20.0644 21.8394 20.4994C21.8394 20.8507 21.9732 21.1351 22.2409 21.3526C22.5253 21.5701 22.9519 21.7708 23.5207 21.9548L24.926 22.3814C26.4316 22.8499 27.5859 23.4688 28.389 24.2384C29.2087 25.0079 29.6186 26.0452 29.6186 27.3501C29.6186 28.5044 29.2505 29.4831 28.5144 30.2861C27.7783 31.0724 26.6993 31.5993 25.2773 31.867V32.458C25.2773 33.261 24.7283 33.9916 23.9253 33.9997C23.9075 33.9999 23.8897 34 23.872 34C23.253 34 22.8013 33.8913 22.5169 33.6738C22.2493 33.4563 22.1154 33.0632 22.1154 32.4944V31.9925C20.8942 31.8586 19.8988 31.5659 19.1292 31.1142C18.3764 30.6458 18 30.0602 18 29.3576C18 29.0544 18.0785 28.7807 18.2125 28.5376C18.614 27.8092 19.6204 27.9731 20.3596 28.3545C20.5259 28.4403 20.7013 28.5238 20.8858 28.6048C21.5717 28.8892 22.358 29.0314 23.2447 29.0314Z" fill="#1F78F0"></path></g></svg>