<svg viewBox="0 0 24 24" fill="none" xmlns="http://www.w3.org/2000/svg">



<g transform="matrix(0.5,0,0,0.5,0,0)"><path fill-rule="evenodd" clip-rule="evenodd" d="M13.8716 4.17191C13.6304 4.18629 11.5867 4.41337 8.00009 7.99998C4.38186 11.6182 4.18586 13.5854 4.17524 13.7879C4.17506 13.7924 4.17487 13.797 4.17469 13.8016C4.17463 13.8041 4.17463 13.8053 4.17463 13.8053L4.17455 13.8052C4.07072 16.4095 4 19.7451 4 24C4 33.2895 4.33709 39.2081 4.61984 42.5387C4.75053 44.0781 6.49285 44.756 7.6797 43.7669L11 41L13.7342 43.7342C14.4548 44.4548 15.602 44.5184 16.3978 43.8817L20 41L22.5858 43.5858C23.3668 44.3668 24.6332 44.3668 25.4142 43.5858L28 41L31.6022 43.8817C32.398 44.5184 33.5452 44.4548 34.2658 43.7342L37 41L40.3203 43.7669C41.5071 44.756 43.2495 44.0781 43.3802 42.5387C43.6629 39.2081 44 33.2895 44 24C44 15.4507 43.7145 10.6131 43.4486 7.96144C43.2601 6.08233 41.9177 4.73985 40.0386 4.55141C37.3869 4.28551 32.5493 4 24 4C19.7811 4 16.4661 4.06953 13.8716 4.17191Z" fill="#91BEFF"></path><path d="M4.17455 13.8053C5.04959 13.913 6.28663 14 8.00001 14C9.25896 14 10.2607 13.953 11.0507 13.8854C12.7708 13.7381 13.8883 12.423 13.9544 10.6979C13.9817 9.98399 14 9.09659 14 7.99999C14 6.22704 13.9522 5.00092 13.8957 4.17096C13.8957 4.17096 11.8255 4.17454 8 7.99999C4.17455 11.8254 4.17455 13.8053 4.17455 13.8053Z" fill="#1F78F0"></path><path fill-rule="evenodd" clip-rule="evenodd" d="M19.4717 16.5185C18.693 15.8001 17.4923 15.8342 16.7432 16.5834L16.5834 16.7432C15.8342 17.4923 15.8001 18.693 16.5185 19.4717C17.4749 20.5083 18.9208 22.0501 20.6796 23.846C19.004 25.5612 17.6256 27.0317 16.7028 28.0319C15.9844 28.8106 16.0185 30.0113 16.7676 30.7605L16.9274 30.9203C17.6766 31.6694 18.8773 31.7035 19.6559 30.9851C20.6565 30.0619 22.1278 28.6827 23.8439 27.0062C25.5601 28.6827 27.0313 30.0619 28.0319 30.9851C28.8106 31.7035 30.0113 31.6694 30.7605 30.9203L30.9203 30.7605C31.6694 30.0113 31.7035 28.8106 30.9851 28.0319C30.0623 27.0317 28.6838 25.5612 27.0082 23.846C28.7671 22.0501 30.2129 20.5083 31.1693 19.4717C31.8877 18.693 31.8536 17.4923 31.1045 16.7432L30.9447 16.5834C30.1956 15.8342 28.9948 15.8001 28.2162 16.5185C27.18 17.4746 25.6389 18.9197 23.8439 20.6776C22.0489 18.9197 20.5079 17.4746 19.4717 16.5185Z" fill="#1F78F0"></path></g></svg>