<svg viewBox="0 0 24 24" fill="none" xmlns="http://www.w3.org/2000/svg">



<g transform="matrix(0.5,0,0,0.5,0,0)"><path d="M35 30L35 16L40.7477 16.5675C42.1451 16.7054 43.3581 17.5808 43.6309 18.9583C43.8304 19.9653 44 21.3196 44 23.0138C44 24.7029 43.8314 26.0542 43.6327 27.0603C43.3597 28.4427 42.1407 29.3197 40.738 29.4533L35 30Z" fill="#91BEFF"></path><path d="M4.40889 13.2054C4.6006 11.4139 5.84951 10.067 7.63048 9.79455C10.1042 9.41606 14.5237 9 22 9C29.4763 9 33.8958 9.41606 36.3695 9.79455C38.1505 10.067 39.3994 11.4139 39.5911 13.2054C39.7986 15.1446 40 18.2501 40 23C40 27.7499 39.7986 30.8554 39.5911 32.7946C39.3994 34.5861 38.1505 35.933 36.3695 36.2055C33.8958 36.5839 29.4763 37 22 37C14.5237 37 10.1042 36.5839 7.63048 36.2055C5.84951 35.933 4.6006 34.5861 4.40889 32.7946C4.20136 30.8554 4 27.7499 4 23C4 18.2501 4.20136 15.1446 4.40889 13.2054Z" fill="#91BEFF"></path><path d="M4.70261 39.5174C4.16727 40.0628 3.79771 40.7823 4.07972 41.4927C4.28705 42.0149 4.69254 42.6925 5.47487 43.4749C6.25721 44.2572 6.93486 44.6627 7.4571 44.87C8.16743 45.152 8.88691 44.7825 9.43236 44.2471C12.2766 41.4555 21.6734 32.2261 26.3345 27.565C30.9956 22.9039 40.2251 13.5071 43.0167 10.6628C43.552 10.1174 43.9216 9.39788 43.6396 8.68754C43.4322 8.16531 43.0268 7.48765 42.2444 6.70532C41.4621 5.92299 40.7844 5.5175 40.2622 5.31017C39.5519 5.02816 38.8324 5.39772 38.2869 5.93306C35.4427 8.72464 26.0459 17.9541 21.3848 22.6152C16.7237 27.2763 7.4942 36.6731 4.70261 39.5174Z" fill="#1F78F0"></path></g></svg>