<svg viewBox="0 0 24 24" fill="none" xmlns="http://www.w3.org/2000/svg">



<g transform="matrix(0.5,0,0,0.5,0,0)"><path d="M35 30L35 16L40.7477 16.5675C42.1451 16.7054 43.3581 17.5808 43.6309 18.9583C43.8304 19.9653 44 21.3196 44 23.0138C44 24.7029 43.8314 26.0542 43.6327 27.0603C43.3597 28.4427 42.1407 29.3197 40.738 29.4533L35 30Z" fill="#91BEFF"></path><path d="M4.40889 13.2054C4.6006 11.4139 5.84951 10.067 7.63048 9.79455C10.1042 9.41606 14.5237 9 22 9C29.4763 9 33.8958 9.41606 36.3695 9.79455C38.1505 10.067 39.3994 11.4139 39.5911 13.2054C39.7986 15.1446 40 18.2501 40 23C40 27.7499 39.7986 30.8554 39.5911 32.7946C39.3994 34.5861 38.1505 35.933 36.3695 36.2055C33.8958 36.5839 29.4763 37 22 37C14.5237 37 10.1042 36.5839 7.63048 36.2055C5.84951 35.933 4.6006 34.5861 4.40889 32.7946C4.20136 30.8554 4 27.7499 4 23C4 18.2501 4.20136 15.1446 4.40889 13.2054Z" fill="#91BEFF"></path><path fill-rule="evenodd" clip-rule="evenodd" d="M25.0989 21.6285L24.134 16.8039C23.9135 15.7017 22.6038 15.2246 21.7261 15.9268L11.3783 24.205C10.5934 24.8329 11.1216 26.0964 12.1199 25.979L19.2026 25.1457L20.1675 29.9704C20.388 31.0726 21.6977 31.5497 22.5754 30.8475L32.9232 22.5693C33.7081 21.9414 33.1799 20.6778 32.1816 20.7953L25.0989 21.6285Z" fill="#1F78F0"></path></g></svg>