<svg viewBox="0 0 24 24" fill="none" xmlns="http://www.w3.org/2000/svg">








<g transform="matrix(0.5,0,0,0.5,0,0)"><path d="M24.773 31.985C26.0064 31.9343 26.789 30.9856 26.8464 29.7526C26.9226 28.1173 27 25.181 27 20C27 14.819 26.9226 11.8827 26.8464 10.2474C26.789 9.01436 26.0064 8.0657 24.773 8.01502C24.5414 8.0055 24.2845 8 24 8C23.7155 8 23.4586 8.0055 23.227 8.01502C21.9936 8.0657 21.211 9.01436 21.1536 10.2474C21.0774 11.8827 21 14.819 21 20C21 25.181 21.0774 28.1173 21.1536 29.7526C21.211 30.9856 21.9936 31.9343 23.227 31.985C23.4586 31.9945 23.7155 32 24 32C24.2845 32 24.5414 31.9945 24.773 31.985Z" fill="#91BEFF"></path><path d="M33.773 31.985C35.0064 31.9343 35.789 30.9856 35.8464 29.7526C35.9226 28.1173 36 25.181 36 20C36 14.819 35.9226 11.8827 35.8464 10.2474C35.789 9.01436 35.0064 8.0657 33.773 8.01502C33.5414 8.0055 33.2845 8 33 8C32.7155 8 32.4586 8.0055 32.227 8.01502C30.9936 8.0657 30.211 9.01436 30.1536 10.2474C30.0774 11.8827 30 14.819 30 20C30 25.181 30.0774 28.1173 30.1536 29.7526C30.211 30.9856 30.9936 31.9343 32.227 31.985C32.4586 31.9945 32.7155 32 33 32C33.2845 32 33.5414 31.9945 33.773 31.985Z" fill="#91BEFF"></path><path d="M15.773 31.985C17.0064 31.9343 17.789 30.9856 17.8464 29.7526C17.9226 28.1173 18 25.181 18 20C18 14.819 17.9226 11.8827 17.8464 10.2474C17.789 9.01436 17.0064 8.0657 15.773 8.01502C15.5414 8.0055 15.2845 8 15 8C14.7155 8 14.4586 8.0055 14.227 8.01502C12.9936 8.0657 12.211 9.01436 12.1536 10.2474C12.0774 11.8827 12 14.819 12 20C12 25.181 12.0774 28.1173 12.1536 29.7526C12.211 30.9856 12.9936 31.9343 14.227 31.985C14.4586 31.9945 14.7155 32 15 32C15.2845 32 15.5414 31.9945 15.773 31.985Z" fill="#91BEFF"></path><path d="M16.0778 39.9923C17.1196 39.9762 17.9059 39.3724 17.9661 38.3322C17.9868 37.9725 18 37.5339 18 37C18 36.4661 17.9868 36.0275 17.9661 35.6678C17.9059 34.6276 17.1196 34.0238 16.0778 34.0077C15.7727 34.0029 15.4157 34 15 34C14.5843 34 14.2273 34.0029 13.9222 34.0077C12.8804 34.0238 12.0941 34.6276 12.0339 35.6678C12.0132 36.0275 12 36.4661 12 37C12 37.5339 12.0132 37.9725 12.0339 38.3322C12.0941 39.3724 12.8804 39.9762 13.9222 39.9923C14.2273 39.9971 14.5843 40 15 40C15.4157 40 15.7727 39.9971 16.0778 39.9923Z" fill="#91BEFF"></path><path d="M25.0778 39.9923C26.1196 39.9762 26.9059 39.3724 26.9661 38.3322C26.9868 37.9725 27 37.5339 27 37C27 36.4661 26.9868 36.0275 26.9661 35.6678C26.9059 34.6276 26.1196 34.0238 25.0778 34.0077C24.7727 34.0029 24.4157 34 24 34C23.5843 34 23.2273 34.0029 22.9222 34.0077C21.8804 34.0238 21.0941 34.6276 21.0339 35.6678C21.0132 36.0275 21 36.4661 21 37C21 37.5339 21.0132 37.9725 21.0339 38.3322C21.0941 39.3724 21.8804 39.9762 22.9222 39.9923C23.2273 39.9971 23.5843 40 24 40C24.4157 40 24.7727 39.9971 25.0778 39.9923Z" fill="#91BEFF"></path><path d="M34.0778 39.9923C35.1196 39.9762 35.9059 39.3724 35.9661 38.3322C35.9868 37.9725 36 37.5339 36 37C36 36.4661 35.9868 36.0275 35.9661 35.6678C35.9059 34.6276 35.1196 34.0238 34.0778 34.0077C33.7727 34.0029 33.4157 34 33 34C32.5843 34 32.2273 34.0029 31.9222 34.0077C30.8804 34.0238 30.0941 34.6276 30.0339 35.6678C30.0132 36.0275 30 36.4661 30 37C30 37.5339 30.0132 37.9725 30.0339 38.3322C30.0941 39.3724 30.8804 39.9762 31.9222 39.9923C32.2273 39.9971 32.5843 40 33 40C33.4157 40 33.7727 39.9971 34.0778 39.9923Z" fill="#91BEFF"></path><path d="M6.97875 39.9669C8.10403 39.8848 8.76511 38.9638 8.81404 37.8366C8.89886 35.8823 9 31.8964 9 24C9 16.1036 8.89886 12.1177 8.81404 10.1634C8.76511 9.03616 8.10403 8.1152 6.97875 8.03313C6.69613 8.01252 6.37154 8 6 8C5.62846 8 5.30387 8.01252 5.02125 8.03313C3.89597 8.1152 3.23489 9.03617 3.18596 10.1634C3.10114 12.1177 3 16.1036 3 24C3 31.8964 3.10114 35.8823 3.18596 37.8366C3.23489 38.9638 3.89597 39.8848 5.02125 39.9669C5.30387 39.9875 5.62846 40 6 40C6.37154 40 6.69613 39.9875 6.97875 39.9669Z" fill="#91BEFF"></path><path d="M42.9788 39.9669C44.104 39.8848 44.7651 38.9638 44.814 37.8366C44.8989 35.8823 45 31.8964 45 24C45 16.1036 44.8989 12.1177 44.814 10.1634C44.7651 9.03616 44.104 8.1152 42.9788 8.03313C42.6961 8.01252 42.3715 8 42 8C41.6285 8 41.3039 8.01252 41.0212 8.03313C39.896 8.1152 39.2349 9.03617 39.186 10.1634C39.1011 12.1177 39 16.1036 39 24C39 31.8964 39.1011 35.8823 39.186 37.8366C39.2349 38.9638 39.896 39.8848 41.0212 39.9669C41.3039 39.9875 41.6285 40 42 40C42.3715 40 42.6961 39.9875 42.9788 39.9669Z" fill="#91BEFF"></path></g></svg>