<svg viewBox="0 0 24 24" fill="none" xmlns="http://www.w3.org/2000/svg">



<g transform="matrix(0.5,0,0,0.5,0,0)"><path d="M4.19222 22.0465C4.45391 20.8786 5.58469 20.3414 6.78013 20.2822C9.16381 20.1642 14.2355 20 24 20C33.7645 20 38.8362 20.1642 41.2199 20.2822C42.4153 20.3414 43.5461 20.8786 43.8078 22.0465C43.9207 22.5503 44 23.1918 44 24C44 24.8082 43.9207 25.4497 43.8078 25.9535C43.5461 27.1214 42.4153 27.6586 41.2199 27.7178C38.8362 27.8358 33.7645 28 24 28C14.2355 28 9.16381 27.8358 6.78013 27.7178C5.58469 27.6586 4.45391 27.1214 4.19222 25.9535C4.07934 25.4497 4 24.8082 4 24C4 23.1918 4.07934 22.5503 4.19222 22.0465Z" fill="#91BEFF"></path><path d="M43.8078 8.04651C43.5461 6.87857 42.4153 6.34142 41.2199 6.28224C38.8362 6.16425 33.7645 6 24 6C14.2355 6 9.16381 6.16425 6.78013 6.28224C5.58469 6.34142 4.45391 6.87857 4.19222 8.04651C4.07934 8.5503 4 9.19184 4 10C4 10.8082 4.07934 11.4497 4.19222 11.9535C4.45391 13.1214 5.58469 13.6586 6.78013 13.7178C9.16381 13.8358 14.2355 14 24 14C33.7645 14 38.8362 13.8358 41.2199 13.7178C42.4153 13.6586 43.5461 13.1214 43.8078 11.9535C43.9207 11.4497 44 10.8082 44 10C44 9.19184 43.9207 8.5503 43.8078 8.04651Z" fill="#91BEFF"></path><path d="M43.8078 36.0465C43.5461 34.8786 42.4153 34.3414 41.2199 34.2822C38.8362 34.1642 33.7645 34 24 34C14.2355 34 9.16381 34.1642 6.78013 34.2822C5.58469 34.3414 4.45391 34.8786 4.19222 36.0465C4.07934 36.5503 4 37.1918 4 38C4 38.8082 4.07934 39.4497 4.19222 39.9535C4.45391 41.1214 5.58469 41.6586 6.78013 41.7178C9.16381 41.8358 14.2355 42 24 42C33.7645 42 38.8362 41.8358 41.2199 41.7178C42.4153 41.6586 43.5461 41.1214 43.8078 39.9535C43.9207 39.4497 44 38.8082 44 38C44 37.1918 43.9207 36.5503 43.8078 36.0465Z" fill="#91BEFF"></path></g></svg>