<svg viewBox="0 0 24 24" fill="none" xmlns="http://www.w3.org/2000/svg">

<g transform="matrix(0.5,0,0,0.5,0,0)"><path fill-rule="evenodd" clip-rule="evenodd" d="M41.9569 8.92262C43.6699 10.1447 44.1465 12.4884 43.0053 14.2562C36.3921 24.5003 29.7304 32.533 25.7578 37.0226C23.7203 39.3252 20.2826 39.5259 18.0168 37.4476C14.5484 34.2662 9.4286 29.1971 4.93369 23.2725C3.77801 21.7492 3.96118 19.6198 5.29388 18.2488L6.66913 16.8339C8.23965 15.2181 10.8344 15.2178 12.3933 16.8447C16.9887 21.6407 21.4369 26.4192 21.4369 26.4192C21.4369 26.4192 27.7176 18.4165 35.4929 8.89072C36.8229 7.26135 39.1895 6.94821 40.9017 8.16975L41.9569 8.92262Z" fill="#91BEFF"></path></g></svg>