<svg viewBox="0 0 24 24" fill="none" xmlns="http://www.w3.org/2000/svg">

<g transform="matrix(0.5,0,0,0.5,0,0)"><path fill-rule="evenodd" clip-rule="evenodd" d="M35.9152 14.3743C41.2698 15.3047 45 19.3053 45 25C45 31.3285 40.3933 35.5648 34.07 35.8204C31.4114 35.9278 28.0996 36 24 36C19.9004 36 16.5886 35.9278 13.93 35.8204C7.60674 35.5648 3 31.3285 3 25C3 19.3053 6.73022 15.3047 12.0848 14.3743C12.7257 8.33698 16.9584 4.04741 23.2827 4.00252C23.517 4.00085 23.7561 4 24 4C24.244 4 24.483 4.00085 24.7173 4.00252C31.0416 4.04741 35.2743 8.33698 35.9152 14.3743Z" fill="#91BEFF"></path></g></svg>