<svg viewBox="0 0 24 24" fill="none" xmlns="http://www.w3.org/2000/svg">

<g transform="matrix(0.5,0,0,0.5,0,0)"><path fill-rule="evenodd" clip-rule="evenodd" d="M13.4974 7.01611C12.3254 5.94297 10.5265 5.99671 9.40282 7.12037L7.12016 9.40303C5.9965 10.5267 5.94276 12.3256 7.0159 13.4976C9.03459 15.7023 12.5453 19.4783 16.9681 24.0001C12.5453 28.5219 9.03462 32.2979 7.01594 34.5026C5.9428 35.6746 5.99654 37.4735 7.1202 38.5971L9.40286 40.8798C10.5265 42.0034 12.3254 42.0572 13.4974 40.984C15.7021 38.9654 19.4781 35.4546 23.9999 31.0319C28.5217 35.4546 32.2977 38.9654 34.5023 40.984C35.6743 42.0572 37.4732 42.0034 38.5969 40.8798L40.8796 38.5971C42.0032 37.4735 42.057 35.6746 40.9838 34.5026C38.9651 32.2979 35.4544 28.5219 31.0317 24.0001C35.4545 19.4783 38.9652 15.7023 40.9839 13.4976C42.057 12.3256 42.0033 10.5267 40.8796 9.40303L38.5969 7.12037C37.4733 5.99671 35.6744 5.94297 34.5024 7.01611C32.2977 9.0348 28.5217 12.5455 23.9999 16.9683C19.4781 12.5455 15.7021 9.0348 13.4974 7.01611Z" fill="#91BEFF"></path></g></svg>