<svg viewBox="0 0 24 24" fill="none" xmlns="http://www.w3.org/2000/svg">


<g transform="matrix(0.5,0,0,0.5,0,0)"><path fill-rule="evenodd" clip-rule="evenodd" d="M12.5 29.037C12.5 29.037 12.5 26.0788 12.9806 5.81316C12.9928 5.29931 13.2116 4.79616 13.6795 4.58337C14.2829 4.30893 15.3326 4 17 4C18.6706 4 19.7209 4.31008 20.3238 4.58491C20.7894 4.79716 21.0074 5.27985 21.0193 5.79141C21.098 9.18963 21.377 23.1777 21.1071 40.864C21.0642 43.6725 18.2437 45.4323 15.9409 43.8239C9.90367 39.6068 3.8535 33.0034 1.46339 30.2776C0.788936 29.5085 0.558342 28.4322 0.995136 27.5072C1.96572 25.4516 3.26868 24.2808 4.24141 23.6443C5.04475 23.1186 6.05422 23.3095 6.79843 23.9161C10.0969 26.6042 12.5 29.037 12.5 29.037Z" fill="#91BEFF"></path><path fill-rule="evenodd" clip-rule="evenodd" d="M35.5 18.963C35.5 18.963 35.5 21.9212 35.0194 42.1868C35.0072 42.7007 34.7884 43.2038 34.3205 43.4166C33.7171 43.6911 32.6674 44 31 44C29.3294 44 28.2791 43.6899 27.6762 43.4151C27.2106 43.2028 26.9926 42.7201 26.9807 42.2086C26.902 38.8104 26.623 24.8223 26.8929 7.13602C26.9358 4.32748 29.7563 2.56765 32.0591 4.17612C38.0963 8.39316 44.1465 14.9966 46.5366 17.7224C47.2111 18.4915 47.4417 19.5678 47.0049 20.4928C46.0343 22.5484 44.7313 23.7192 43.7586 24.3557C42.9552 24.8814 41.9458 24.6905 41.2016 24.0839C37.9031 21.3958 35.5 18.963 35.5 18.963Z" fill="#91BEFF"></path></g></svg>