<svg viewBox="0 0 24 24" fill="none" xmlns="http://www.w3.org/2000/svg">




<g transform="matrix(0.5,0,0,0.5,0,0)"><path fill-rule="evenodd" clip-rule="evenodd" d="M24 18C25.6569 18 27 19.221 27 20.7273V27.2727C27 28.779 25.6569 30 24 30C22.3431 30 21 28.779 21 27.2727V20.7273C21 19.221 22.3431 18 24 18Z" fill="#91BEFF"></path><path d="M24 10C17.9249 10 13 14.8751 13 20.8889V20.8889C13 21.5413 13.3126 22.1663 13.9318 22.3717C14.6774 22.619 15.8355 22.7915 17.2784 22.3202C17.8822 22.1231 18.2381 21.524 18.2381 20.8889V20.8889C18.2381 17.7388 20.8178 15.1852 24 15.1852C27.1822 15.1852 29.7619 17.7388 29.7619 20.8889V27.1111C29.7619 30.2612 27.1822 32.8148 24 32.8148C20.8178 32.8148 18.2381 30.2612 18.2381 27.1111V27.1111C18.2381 26.4922 17.8421 25.9311 17.2367 25.8022C15.8483 25.5067 14.7268 25.6082 13.9872 25.7649C13.3659 25.8966 13 26.476 13 27.1111V27.1111C13 33.1249 17.9249 38 24 38C30.0751 38 35 33.1249 35 27.1111V20.8889C35 14.8751 30.0751 10 24 10Z" fill="#91BEFF"></path><path d="M24 2C13.5066 2 5 10.4965 5 20.9774V27.1322C5 36.2758 11.4743 43.9091 20.0938 45.7082C21.217 45.9426 22.3727 45.3705 22.5594 44.2384C22.6568 43.6476 22.6731 42.9439 22.488 42.1846C22.2694 41.2875 21.4062 40.7701 20.5123 40.5388C14.5432 38.994 10.1351 33.5773 10.1351 27.1322V20.9774C10.1351 13.3291 16.3426 7.12902 24 7.12902C26.5742 7.12902 28.9845 7.82971 31.0503 9.05055C31.8303 9.51157 32.7864 9.75842 33.5602 9.28695C34.203 8.89525 34.6838 8.39505 35.0369 7.91128C35.7331 6.9573 35.3234 5.69136 34.3325 5.04878C31.3583 3.12017 27.8101 2 24 2Z" fill="#91BEFF"></path><path d="M39.6668 10.2376C39.1522 9.49005 38.2469 9.05463 37.4324 9.45507C36.7869 9.7724 36.0523 10.3635 35.5549 11.4643C35.203 12.243 35.4551 13.1266 35.8954 13.859C37.1459 15.9392 37.8649 18.3744 37.8649 20.9774V27.1322C37.8649 33.5306 33.5205 38.9154 27.6172 40.5046C26.6532 40.7641 25.7441 41.3598 25.5194 42.3324C25.3226 43.1846 25.3427 43.9057 25.4468 44.4771C25.6313 45.4894 26.6786 45.9507 27.6882 45.7523C36.4164 44.0374 43 36.3527 43 27.1322V20.9774C43 16.9909 41.7694 13.2916 39.6668 10.2376Z" fill="#91BEFF"></path></g></svg>