<svg viewBox="0 0 24 24" fill="none" xmlns="http://www.w3.org/2000/svg">

<g transform="matrix(0.5,0,0,0.5,0,0)"><path d="M16.7878 6.88286C16.9119 5.0568 17.9175 3.3446 19.7298 3.08839C20.1176 3.03356 20.542 3 21 3C21.4819 3 21.9266 3.03715 22.3306 3.09713C24.1066 3.36083 25.1044 5.03356 25.2666 6.82174C25.5629 10.0877 26 15.3553 26 18C26 18 33.8823 18 40.5482 20.4264C42.8067 21.2484 44.2362 23.3806 44.3033 25.7832C44.4165 29.8397 44.0219 36.6586 41.0382 43.7422C40.4205 45.2087 39.1424 46.262 37.5676 46.4903C35.8211 46.7435 33.0519 47 29 47C25.2049 47 22.535 46.775 20.7768 46.5384C18.9305 46.2899 17.3046 45.3219 16.0266 43.9665C11.179 38.8255 7.2731 33.6203 5.33268 30.9102C4.46033 29.6919 4.06597 28.1571 4.50436 26.7242C4.60239 26.4038 4.70647 26.1107 4.81505 25.8426C5.9454 23.0518 9.36133 23.7478 11.81 25.4999C14.4835 27.4129 16 28.8571 16 28.8571C16 19.8181 16.4943 11.2026 16.7878 6.88286Z" fill="#91BEFF"></path></g></svg>