<svg viewBox="0 0 24 24" fill="none" xmlns="http://www.w3.org/2000/svg">




<g transform="matrix(0.5,0,0,0.5,0,0)"><path d="M17.4516 5.48432C17.7824 4.57615 18.6123 3.94821 19.5772 3.89193C20.7882 3.82128 22.4896 3.74899 23.919 3.78941C25.0596 3.82167 25.7264 4.91197 25.3985 6.00489C23.7898 11.3674 19.1898 26.7007 14.4895 42.3683C14.1942 43.3526 13.3271 44.0568 12.3011 44.1151C11.0717 44.185 9.38677 44.2527 7.98492 44.2077C6.88092 44.1722 6.21503 43.145 6.49096 42.0755C7.98361 36.2898 12.6591 18.6421 17.4516 5.48432Z" fill="#91BEFF"></path><path d="M5.6446 13.9408C5.98428 13.0249 6.8364 12.4142 7.81247 12.3743C12.7051 12.1744 28.1681 11.6588 44.0839 12.345C45.2818 12.3966 46.1179 13.3815 45.8133 14.5411C45.6018 15.3464 45.2809 16.4238 44.7939 17.8393C44.46 18.81 43.5599 19.4599 42.5336 19.48C37.3924 19.5807 21.3504 19.8385 6.10101 19.4905C5.01315 19.4657 4.23299 18.648 4.48797 17.5901C4.69074 16.7489 5.04141 15.5673 5.6446 13.9408Z" fill="#91BEFF"></path><path d="M30.5484 42.5157C30.2176 43.4239 29.3877 44.0518 28.4228 44.1081C27.2118 44.1787 25.5104 44.251 24.081 44.2106C22.9404 44.1783 22.2736 43.088 22.6015 41.9951C24.2102 36.6326 28.8102 21.2993 33.5105 5.63167C33.8058 4.64736 34.6729 3.94324 35.6989 3.88493C36.9284 3.81504 38.6132 3.74725 40.0151 3.79232C41.1191 3.82782 41.785 4.85496 41.509 5.92451C40.0164 11.7102 35.3409 29.3579 30.5484 42.5157Z" fill="#91BEFF"></path><path d="M42.3554 34.0592C42.0157 34.9751 41.1636 35.5858 40.1875 35.6257C35.2949 35.8256 19.8319 36.3412 3.9161 35.655C2.71825 35.6034 1.88209 34.6185 2.18668 33.4589C2.3982 32.6536 2.71914 31.5762 3.20609 30.1607C3.54001 29.19 4.44008 28.5401 5.46639 28.52C10.6076 28.4193 26.6496 28.1615 41.899 28.5095C42.9869 28.5343 43.767 29.352 43.512 30.4099C43.3093 31.2511 42.9586 32.4327 42.3554 34.0592Z" fill="#91BEFF"></path></g></svg>