<svg viewBox="0 0 24 24" fill="none" xmlns="http://www.w3.org/2000/svg">

<g transform="matrix(0.5,0,0,0.5,0,0)"><path d="M41.8839 26.643C43.8449 23.4701 44.483 19.5392 43.63 15.8843C41.8077 7.55872 31.7163 4.1567 25.4304 9.73598C24.9326 10.1749 24.4899 10.6809 24 11.1855C23.5102 10.6809 23.0674 10.1749 22.5696 9.73598C16.2837 4.1567 6.19237 7.55872 4.37 15.8843C3.51705 19.5392 4.15503 23.4701 6.11609 26.643C9.54764 32.2039 15.0809 36.5341 20.4785 40.4583C22.5747 41.9823 25.4253 41.9823 27.5215 40.4583C32.9191 36.5341 38.4523 32.2039 41.8839 26.643Z" fill="#91BEFF"></path></g></svg>