<svg viewBox="0 0 24 24" fill="none" xmlns="http://www.w3.org/2000/svg">

<g transform="matrix(0.5,0,0,0.5,0,0)"><path d="M22.5751 4.33262C23.0273 2.95745 24.9727 2.95745 25.4249 4.33262L28.0463 12.3034C29.237 15.9236 32.0764 18.763 35.6966 19.9537L43.6674 22.5751C45.0425 23.0273 45.0425 24.9727 43.6674 25.4249L35.6966 28.0463C32.0764 29.237 29.237 32.0764 28.0463 35.6966L25.4249 43.6674C24.9727 45.0425 23.0273 45.0425 22.5751 43.6674L19.9537 35.6966C18.763 32.0764 15.9236 29.237 12.3034 28.0463L4.33262 25.4249C2.95745 24.9727 2.95745 23.0273 4.33262 22.5751L12.3034 19.9537C15.9236 18.763 18.763 15.9236 19.9537 12.3034L22.5751 4.33262Z" fill="#91BEFF"></path></g></svg>