<svg viewBox="0 0 24 24" fill="none" xmlns="http://www.w3.org/2000/svg">

<g transform="matrix(0.5,0,0,0.5,0,0)"><path fill-rule="evenodd" clip-rule="evenodd" d="M27.8185 19.531C28.1053 20.06 28.6151 20.4317 29.2065 20.5431L37.1065 22.031L31.5761 27.9143C31.1663 28.3502 30.9732 28.9467 31.0497 29.54L32.0807 37.5308L24 33.6729L23.9999 33.673L23.9999 12.4893L24 12.4891L27.8185 19.531ZM6.38084 17.793L16.4662 15.8935L21.3628 6.86341C22.4979 4.77014 25.5021 4.77014 26.6372 6.86341L31.5338 15.8935L41.6192 17.793C43.9477 18.2316 44.8726 21.0695 43.2498 22.7959L36.19 30.3061L37.5097 40.5346C37.8138 42.8918 35.3866 44.6497 33.2418 43.6257L24 39.2135L14.7582 43.6257C12.6134 44.6497 10.1862 42.8918 10.4903 40.5346L11.81 30.3061L4.75025 22.7959C3.12737 21.0695 4.05234 18.2316 6.38084 17.793Z" fill="#91BEFF"></path></g></svg>