<svg viewBox="0 0 24 24" fill="none" xmlns="http://www.w3.org/2000/svg">

<g transform="matrix(0.5,0,0,0.5,0,0)"><path fill-rule="evenodd" clip-rule="evenodd" d="M20.7571 8.42653C21.5804 8.90143 21.7929 9.95298 21.3872 10.8126C21.0114 11.6089 20.6168 12.4938 20.2194 13.4593C20.0823 13.7923 20.1388 14.1728 20.3734 14.4461C21.0193 15.1984 22.4635 16.803 24.3968 18.4861C24.7468 18.7908 24.8552 19.2935 24.6656 19.7171C24.1659 20.8334 23.2033 23.1574 22.4601 26.0072C22.2501 26.8124 22.921 27.215 23.4566 26.5781C24.5265 25.3059 26.2253 22.9357 28.681 18.5706C28.8744 18.2268 28.8472 17.7981 28.5935 17.4961C28.0292 16.8245 26.8991 15.5698 25.3393 14.2764C25.1466 14.1166 25.0952 13.8422 25.2274 13.6297C25.8118 12.6904 27.4523 10.1285 29.33 7.85507C29.5834 7.54825 29.9269 7.32602 30.3159 7.24216C35.988 6.01942 42.2343 9.5078 43.63 15.8843C44.483 19.5392 43.8449 23.4701 41.8839 26.643C38.4523 32.2039 32.9191 36.534 27.5215 40.4583C25.4253 41.9823 22.5747 41.9823 20.4785 40.4583C15.0809 36.5341 9.54764 32.2039 6.11609 26.643C4.15503 23.4701 3.51705 19.5392 4.37 15.8843C6.02556 8.3208 14.5056 4.82076 20.7571 8.42653Z" fill="#91BEFF"></path></g></svg>