<svg viewBox="0 0 24 24" fill="none" xmlns="http://www.w3.org/2000/svg">



<g transform="matrix(0.5,0,0,0.5,0,0)"><path d="M43.8847 21.412C43.7586 20.1841 42.7882 19.4014 41.5562 19.3255C39.2143 19.1812 34.2351 19 24 19C13.7649 19 8.78574 19.1812 6.44378 19.3255C5.21175 19.4014 4.24138 20.1841 4.11529 21.412C4.0485 22.0624 4 22.9099 4 24C4 25.0901 4.0485 25.9376 4.11529 26.588C4.24138 27.8159 5.21175 28.5986 6.44378 28.6745C8.78575 28.8188 13.7649 29 24 29C34.2351 29 39.2143 28.8188 41.5562 28.6745C42.7882 28.5986 43.7586 27.8159 43.8847 26.588C43.9515 25.9376 44 25.0901 44 24C44 22.9099 43.9515 22.0624 43.8847 21.412Z" fill="#91BEFF"></path><path d="M43.8847 7.41198C43.7586 6.18408 42.7882 5.40137 41.5562 5.32549C39.2143 5.18124 34.2351 5 24 5C13.7649 5 8.78574 5.18124 6.44378 5.32549C5.21175 5.40137 4.24138 6.18408 4.11529 7.41198C4.0485 8.06237 4 8.90993 4 10C4 11.0901 4.0485 11.9376 4.11529 12.588C4.24138 13.8159 5.21175 14.5986 6.44378 14.6745C8.78575 14.8188 13.7649 15 24 15C34.2351 15 39.2143 14.8188 41.5562 14.6745C42.7882 14.5986 43.7586 13.8159 43.8847 12.588C43.9515 11.9376 44 11.0901 44 10C44 8.90993 43.9515 8.06237 43.8847 7.41198Z" fill="#91BEFF"></path><path d="M43.8847 35.412C43.7586 34.1841 42.7882 33.4014 41.5562 33.3255C39.2143 33.1812 34.2351 33 24 33C13.7649 33 8.78574 33.1812 6.44378 33.3255C5.21175 33.4014 4.24138 34.1841 4.11529 35.412C4.0485 36.0624 4 36.9099 4 38C4 39.0901 4.0485 39.9376 4.11529 40.588C4.24138 41.8159 5.21175 42.5986 6.44378 42.6745C8.78575 42.8188 13.7649 43 24 43C34.2351 43 39.2143 42.8188 41.5562 42.6745C42.7882 42.5986 43.7586 41.8159 43.8847 40.588C43.9515 39.9376 44 39.0901 44 38C44 36.9099 43.9515 36.0624 43.8847 35.412Z" fill="#91BEFF"></path></g></svg>