<svg viewBox="0 0 24 24" fill="none" xmlns="http://www.w3.org/2000/svg">

<g transform="matrix(0.5,0,0,0.5,0,0)"><path fill-rule="evenodd" clip-rule="evenodd" d="M37.6307 24.0143L37.6289 24.0172C34.7743 28.643 30.0107 32.4668 24.5813 36.4141C24.4097 36.5389 24.2048 36.6013 24 36.6013L24 19C26 15.1367 30.0692 11.8518 33 12.025C35.5894 12.1781 38.0896 13.9561 38.7457 16.9534L38.753 16.987L38.7608 17.0206C39.3155 19.3973 38.8921 21.9734 37.6307 24.0143ZM43.63 15.8843C44.483 19.5392 43.8449 23.4701 41.8839 26.643C38.4523 32.2039 32.9191 36.5341 27.5215 40.4583C25.4253 41.9823 22.5747 41.9823 20.4785 40.4583C15.0809 36.5341 9.54764 32.2039 6.11609 26.643C4.15503 23.4701 3.51705 19.5392 4.37 15.8843C6.14791 7.76181 15.7963 4.32561 22.103 9.34365C22.2607 9.46913 22.4163 9.59988 22.5696 9.73598C22.9227 10.0473 23.248 10.3923 23.5822 10.7467C23.7191 10.8919 23.8576 11.0388 24 11.1855C24.1424 11.0388 24.2809 10.8919 24.4179 10.7467C24.752 10.3923 25.0773 10.0473 25.4304 9.73598C25.5837 9.59988 25.7393 9.46912 25.897 9.34365C32.2037 4.32561 41.8521 7.76182 43.63 15.8843Z" fill="#91BEFF"></path></g></svg>