<svg viewBox="0 0 24 24" fill="none" xmlns="http://www.w3.org/2000/svg">

<g transform="matrix(0.5,0,0,0.5,0,0)"><path fill-rule="evenodd" clip-rule="evenodd" d="M45 19C45 10.1634 37.8366 3 29 3C20.1634 3 13 10.1634 13 19C13 20.3144 13.1585 21.5918 13.4574 22.8141C13.5436 23.1664 13.4486 23.541 13.1921 23.7974L4.14617 32.8434C3.60225 33.3873 3.22983 34.0766 3.15324 34.842C3.01543 36.2193 2.88098 38.8641 3.17764 43.0228C3.24634 43.9858 4.01422 44.7537 4.97724 44.8224C9.13586 45.119 11.7807 44.9846 13.1579 44.8468C13.9233 44.7702 14.6127 44.3978 15.1566 43.8538L15.7071 43.3033C15.8946 43.1158 16 42.8614 16 42.5962V41C16 40.4477 16.4477 40 17 40H18.5962C18.8614 40 19.1158 39.8946 19.3033 39.7071L19.7071 39.3033C19.8946 39.1158 20 38.8614 20 38.5962V37C20 36.4477 20.4477 36 21 36H22.5962C22.8614 36 23.1158 35.8946 23.3033 35.7071L24.2026 34.8079C24.459 34.5514 24.8336 34.4564 25.1858 34.5426C26.4081 34.8415 27.6856 35 29 35C37.8366 35 45 27.8366 45 19ZM33 10C34.6569 10 36 11.3431 36 13C36 14.6569 34.6569 16 33 16C31.3431 16 30 14.6569 30 13C30 11.3431 31.3431 10 33 10Z" fill="#91BEFF"></path></g></svg>