<svg viewBox="0 0 24 24" fill="none" xmlns="http://www.w3.org/2000/svg">

<g transform="matrix(0.5,0,0,0.5,0,0)"><path fill-rule="evenodd" clip-rule="evenodd" d="M23.3073 27.8503C21.7466 32.0265 17.7206 35 13 35C6.92487 35 2 30.0751 2 24C2 17.9249 6.92487 13 13 13C17.7206 13 21.7466 15.9735 23.3073 20.1497C25.2863 20.069 28.2277 20 32.5 20C37.8781 20 41.1472 20.1094 43.0423 20.2137C44.5363 20.296 45.8019 21.1413 45.941 22.6311C45.9775 23.0227 46 23.4763 46 24C46 24.5237 45.9775 24.9773 45.941 25.3689C45.8019 26.8587 44.5363 27.704 43.0423 27.7863C42.7281 27.8036 42.3761 27.821 41.983 27.8381C41.9939 28.1921 42 28.5786 42 29C42 30.3049 41.9413 31.2746 41.8642 31.9856C41.7395 33.1346 40.8466 33.8798 39.6925 33.9398C39.0292 33.9743 38.1494 34 37 34C35.8506 34 34.9708 33.9743 34.3075 33.9398C33.1534 33.8798 32.2605 33.1346 32.1358 31.9856C32.0587 31.2746 32 30.3049 32 29C32 28.6418 32.0044 28.3089 32.0124 27.9997C28.0026 27.9947 25.2101 27.9279 23.3073 27.8503ZM17 24C17 26.2091 15.2091 28 13 28C10.7909 28 9 26.2091 9 24C9 21.7909 10.7909 20 13 20C15.2091 20 17 21.7909 17 24Z" fill="#91BEFF"></path></g></svg>