<svg viewBox="0 0 24 24" fill="none" xmlns="http://www.w3.org/2000/svg">

<g transform="matrix(0.5,0,0,0.5,0,0)"><path fill-rule="evenodd" clip-rule="evenodd" d="M14.105 3.80064C12.6522 3.90175 11.39 4.82848 10.8664 6.18742C7.81691 14.1027 6.40243 22.1149 5.82571 26.2381C5.60346 27.8271 6.73595 29.2398 8.33495 29.3715C10.7169 29.5678 14.4049 29.7778 18.6788 29.6938C18.1794 33.1354 17.6399 37.4648 17.1073 42.8442C16.9273 44.6625 19.0576 45.7078 20.3473 44.4134C29.003 35.7261 37.0973 25.366 40.6857 20.6152C41.5867 19.4224 40.8687 17.7986 39.3764 17.7125C37.4243 17.5997 34.5577 17.5116 30.6809 17.5791C31.5096 14.363 32.3742 10.7799 33.1074 7.25293C33.4686 5.5151 32.2156 3.88169 30.443 3.78838C26.6535 3.58889 20.1784 3.37799 14.105 3.80064Z" fill="#91BEFF"></path></g></svg>