<svg viewBox="0 0 24 24" fill="none" xmlns="http://www.w3.org/2000/svg">

<g transform="matrix(0.5,0,0,0.5,0,0)"><path fill-rule="evenodd" clip-rule="evenodd" d="M6.09153 3.34978C4.38086 3.58209 3.25919 4.91671 3.14986 6.63962C3.06731 7.9405 3 9.81048 3 12.45C3 15.0895 3.06731 16.9595 3.14986 18.2604C3.25919 19.9833 4.38086 21.3179 6.09154 21.5502C7.48302 21.7392 9.52615 21.9 12.45 21.9C15.3738 21.9 17.417 21.7392 18.8085 21.5502C20.5191 21.3179 21.6408 19.9833 21.7501 18.2604C21.8327 16.9595 21.9 15.0895 21.9 12.45C21.9 9.81048 21.8327 7.9405 21.7501 6.63962C21.6408 4.91671 20.5191 3.58209 18.8085 3.34978C17.417 3.16083 15.3739 3 12.45 3C9.52615 3 7.48301 3.16083 6.09153 3.34978ZM9.32524 8.45041C8.75758 8.54487 8.3833 8.99312 8.33794 9.56679C8.29227 10.1444 8.25 11.0556 8.25 12.45C8.25 13.8444 8.29227 14.7556 8.33794 15.3332C8.3833 15.9069 8.75758 16.3551 9.32524 16.4496C9.93644 16.5513 10.923 16.65 12.45 16.65C13.977 16.65 14.9636 16.5513 15.5748 16.4496C16.1424 16.3551 16.5167 15.9069 16.5621 15.3332C16.6077 14.7556 16.65 13.8444 16.65 12.45C16.65 11.0556 16.6077 10.1444 16.5621 9.56679C16.5167 8.99312 16.1424 8.54487 15.5748 8.45041C14.9636 8.3487 13.977 8.25 12.45 8.25C10.923 8.25 9.93644 8.3487 9.32524 8.45041ZM26.2291 27.5204C26.2812 26.9473 26.6566 26.4969 27.2221 26.3899C27.9605 26.2502 29.244 26.1 31.35 26.1C33.456 26.1 34.7395 26.2502 35.4779 26.3899C36.0434 26.4969 36.4188 26.9473 36.4709 27.5204C36.5348 28.2222 36.6 29.4132 36.6 31.35C36.6 32.871 36.5598 33.932 36.5116 34.6573C37.27 34.5692 38.3205 34.5 39.75 34.5C41.856 34.5 43.1395 34.6502 43.8779 34.7899C44.4434 34.8969 44.8188 35.3473 44.8709 35.9204C44.9348 36.6222 45 37.8132 45 39.75C45 41.6868 44.9348 42.8778 44.8709 43.5796C44.8188 44.1527 44.4434 44.6031 43.8779 44.7101C43.1395 44.8498 41.856 45 39.75 45C37.644 45 36.3605 44.8498 35.6221 44.7101C35.0566 44.6031 34.6812 44.1527 34.6291 43.5796C34.5652 42.8778 34.5 41.6868 34.5 39.75C34.5 38.229 34.5402 37.168 34.5884 36.4427C33.8301 36.5308 32.7795 36.6 31.35 36.6C29.244 36.6 27.9605 36.4498 27.2221 36.3101C26.6566 36.2031 26.2812 35.7527 26.2291 35.1796C26.1652 34.4778 26.1 33.2868 26.1 31.35C26.1 29.4132 26.1652 28.2222 26.2291 27.5204ZM39.7828 27.2618C39.8135 26.6871 40.1866 26.2447 40.7582 26.1784C41.1372 26.1345 41.6618 26.1 42.375 26.1C43.0882 26.1 43.6128 26.1345 43.9918 26.1784C44.5634 26.2447 44.9365 26.6871 44.9672 27.2618C44.9859 27.6126 45 28.0881 45 28.725C45 29.3619 44.9859 29.8375 44.9672 30.1882C44.9365 30.7629 44.5634 31.2053 43.9918 31.2716C43.6128 31.3155 43.0882 31.35 42.375 31.35C41.6618 31.35 41.1372 31.3155 40.7582 31.2716C40.1866 31.2053 39.8135 30.7629 39.7828 30.1882C39.7641 29.8375 39.75 29.3619 39.75 28.725C39.75 28.0881 39.7641 27.6126 39.7828 27.2618ZM27.1082 39.8284C26.5366 39.8947 26.1635 40.3371 26.1328 40.9118C26.1141 41.2626 26.1 41.7381 26.1 42.375C26.1 43.0119 26.1141 43.4874 26.1328 43.8382C26.1635 44.4129 26.5366 44.8553 27.1082 44.9216C27.4872 44.9655 28.0118 45 28.725 45C29.4382 45 29.9628 44.9655 30.3418 44.9216C30.9134 44.8553 31.2865 44.4129 31.3172 43.8382C31.3359 43.4874 31.35 43.0119 31.35 42.375C31.35 41.7381 31.3359 41.2626 31.3172 40.9118C31.2865 40.3371 30.9134 39.8947 30.3418 39.8284C29.9628 39.7845 29.4382 39.75 28.725 39.75C28.0118 39.75 27.4872 39.7845 27.1082 39.8284ZM3.14986 29.7396C3.25919 28.0167 4.38086 26.6821 6.09153 26.4498C7.48301 26.2608 9.52615 26.1 12.45 26.1C15.3739 26.1 17.417 26.2608 18.8085 26.4498C20.5191 26.6821 21.6408 28.0167 21.7501 29.7396C21.8327 31.0405 21.9 32.9105 21.9 35.55C21.9 38.1895 21.8327 40.0595 21.7501 41.3604C21.6408 43.0833 20.5191 44.4179 18.8085 44.6502C17.417 44.8392 15.3738 45 12.45 45C9.52615 45 7.48302 44.8392 6.09154 44.6502C4.38086 44.4179 3.25919 43.0833 3.14986 41.3604C3.06731 40.0595 3 38.1895 3 35.55C3 32.9105 3.06731 31.0405 3.14986 29.7396ZM29.1915 3.34978C27.4809 3.58209 26.3592 4.91671 26.2499 6.63962C26.1673 7.9405 26.1 9.81048 26.1 12.45C26.1 15.0895 26.1673 16.9595 26.2499 18.2604C26.3592 19.9833 27.4809 21.3179 29.1915 21.5502C30.583 21.7392 32.6262 21.9 35.55 21.9C38.4738 21.9 40.517 21.7392 41.9085 21.5502C43.6191 21.3179 44.7408 19.9833 44.8501 18.2604C44.9327 16.9595 45 15.0895 45 12.45C45 9.81048 44.9327 7.9405 44.8501 6.63962C44.7408 4.91671 43.6191 3.58209 41.9085 3.34978C40.517 3.16083 38.4739 3 35.55 3C32.6262 3 30.583 3.16083 29.1915 3.34978Z" fill="#91BEFF"></path></g></svg>