<svg viewBox="0 0 24 24" fill="none" xmlns="http://www.w3.org/2000/svg">





<g transform="matrix(0.5,0,0,0.5,0,0)"><path d="M44 24C44 35.0457 35.0457 44 24 44C12.9543 44 4 35.0457 4 24C4 12.9543 12.9543 4 24 4C35.0457 4 44 12.9543 44 24Z" fill="#1F78F0"></path><path fill-rule="evenodd" clip-rule="evenodd" d="M32.8871 13.2652C33.6166 13.3058 34.3419 12.9439 34.7322 12.2679C35.2845 11.3113 34.9567 10.0881 34.0001 9.53586C33.0435 8.98358 31.8204 9.31133 31.2681 10.2679C30.8778 10.9439 30.927 11.753 31.327 12.3644L30.5339 13.9331C28.6538 12.7103 26.4099 12 24 12C21.5901 12 19.3462 12.7103 17.4661 13.9331L16.673 12.3644C17.073 11.753 17.1222 10.9439 16.7319 10.2679C16.1796 9.31133 14.9565 8.98358 13.9999 9.53586C13.0433 10.0881 12.7155 11.3113 13.2678 12.2679C13.6581 12.9439 14.3834 13.3058 15.1129 13.2652L16.1802 14.8975C13.6208 17.0982 12 20.3598 12 24C12 30.6274 17.3726 36 24 36C30.6274 36 36 30.6274 36 24C36 20.3598 34.3792 17.0982 31.8198 14.8975L32.8871 13.2652Z" fill="#91BEFF"></path><path fill-rule="evenodd" clip-rule="evenodd" d="M34.827 40.8189C31.7064 42.8318 27.9896 44 24 44C20.0104 44 16.2936 42.8318 13.1731 40.8189C15.1068 36.7853 19.2281 34 24 34C28.7719 34 32.8932 36.7853 34.827 40.8189Z" fill="#91BEFF"></path><path fill-rule="evenodd" clip-rule="evenodd" d="M21 27C21.5523 27 22 27.4477 22 28C22 29.1046 22.8954 30 24 30C25.1046 30 26 29.1046 26 28C26 27.4477 26.4477 27 27 27C27.5523 27 28 27.4477 28 28C28 30.2091 26.2091 32 24 32C21.7909 32 20 30.2091 20 28C20 27.4477 20.4477 27 21 27Z" fill="#1F78F0"></path><path fill-rule="evenodd" clip-rule="evenodd" d="M24 24C26.2091 24 28 22.2091 28 20C28 17.7909 26.2091 16 24 16C21.7909 16 20 17.7909 20 20C20 22.2091 21.7909 24 24 24ZM25 20C25.5523 20 26 19.5523 26 19C26 18.4477 25.5523 18 25 18C24.4477 18 24 18.4477 24 19C24 19.5523 24.4477 20 25 20Z" fill="#1F78F0"></path></g></svg>