<svg viewBox="0 0 24 24" fill="none" xmlns="http://www.w3.org/2000/svg">






<g transform="matrix(0.5,0,0,0.5,0,0)"><path d="M44 24C44 35.0457 35.0457 44 24 44C12.9543 44 4 35.0457 4 24C4 12.9543 12.9543 4 24 4C35.0457 4 44 12.9543 44 24Z" fill="#1F78F0"></path><path fill-rule="evenodd" clip-rule="evenodd" d="M24 10C16.268 10 10 16.268 10 24V27.6C10 27.6 10.8431 29.0838 13.8023 30.3281C15.9197 33.7332 19.6951 36 24 36C28.3049 36 32.0803 33.7332 34.1977 30.3281C37.1569 29.0838 38 27.6 38 27.6V24C38 16.268 31.732 10 24 10Z" fill="#91BEFF"></path><path fill-rule="evenodd" clip-rule="evenodd" d="M34.827 40.8189C31.7064 42.8318 27.9896 44 24 44C20.0104 44 16.2936 42.8318 13.1731 40.8189C15.1068 36.7853 19.2281 34 24 34C28.7719 34 32.8932 36.7853 34.827 40.8189Z" fill="#91BEFF"></path><path fill-rule="evenodd" clip-rule="evenodd" d="M21 27C21.5523 27 22 27.4477 22 28C22 29.1046 22.8954 30 24 30C25.1046 30 26 29.1046 26 28C26 27.4477 26.4477 27 27 27C27.5523 27 28 27.4477 28 28C28 30.2091 26.2091 32 24 32C21.7909 32 20 30.2091 20 28C20 27.4477 20.4477 27 21 27Z" fill="#1F78F0"></path><path d="M20 21.5C20 22.3284 19.3284 23 18.5 23C17.6716 23 17 22.3284 17 21.5C17 20.6716 17.6716 20 18.5 20C19.3284 20 20 20.6716 20 21.5Z" fill="#1F78F0"></path><path d="M31 21.5C31 22.3284 30.3284 23 29.5 23C28.6716 23 28 22.3284 28 21.5C28 20.6716 28.6716 20 29.5 20C30.3284 20 31 20.6716 31 21.5Z" fill="#1F78F0"></path></g></svg>