<svg viewBox="0 0 24 24" fill="none" xmlns="http://www.w3.org/2000/svg">





<g transform="matrix(0.5,0,0,0.5,0,0)"><path d="M44 24C44 35.0457 35.0457 44 24 44C12.9543 44 4 35.0457 4 24C4 12.9543 12.9543 4 24 4C35.0457 4 44 12.9543 44 24Z" fill="#1F78F0"></path><path fill-rule="evenodd" clip-rule="evenodd" d="M25 8.5C25 7.94772 24.5523 7.5 24 7.5C23.4477 7.5 23 7.94772 23 8.5V8.50881V8.51766V8.52654V8.53547V8.54443V8.55343V8.56247V8.57154V8.58066V8.58981V8.59899V8.60822V8.61748V8.62678V8.63611V8.64548V8.65489V8.66433V8.67381V8.68332V8.69287V8.70245V8.71207V8.72172V8.73141V8.74113V8.75089V8.76068V8.7705V8.78036V8.79025V8.80017V8.81013V8.82012V8.83014V8.84019V8.85028V8.8604V8.87055V8.88074V8.89095V8.9012V8.91147V8.92178V8.93212V8.94249V8.95289V8.96332V8.97378V8.98427V8.99479V9.00534V9.01592V9.02653V9.03717V9.04783V9.05853V9.06925V9.08V9.09078V9.10159V9.11243V9.12329V9.13418V9.1451V9.15604V9.16701V9.17801V9.18904V9.20009V9.21116V9.22227V9.23339V9.24455V9.25573V9.26693V9.27816V9.28941V9.30069V9.312V9.32332V9.33468V9.34605V9.35745V9.36887V9.38032V9.39179V9.40328V9.41479V9.42633V9.43789V9.44947V9.46108V9.4727V9.48435V9.49602V9.50771V9.51942V9.53116V9.54291V9.55468V9.56648V9.57829V9.59013V9.60198V9.61385V9.62575V9.63766V9.64959V9.66154V9.67351V9.6855V9.69751V9.70953V9.72158V9.73364V9.74571V9.75781V9.76992V9.78205V9.7942V9.80636V9.81854V9.83074V9.84295V9.85518V9.86743V9.87969V9.89196V9.90425V9.91656V9.92888V9.94122V9.95357V9.96593V9.97831V9.9907V10.0031V10.0155V10.028V10.0404V10.0529V10.0653V10.0778V10.0903V10.1028V10.1154V10.1279V10.1404V10.153V10.1656V10.1781V10.1907V10.2033V10.216V10.2286V10.2412V10.2539V10.2665V10.2792V10.2918V10.3045V10.3172V10.3299V10.3426V10.3554V10.3681V10.3808V10.3936V10.4063V10.4191V10.4318V10.4446V10.4574V10.4702V10.483V10.4958V10.5086V10.5214V10.5342V10.547V10.5599V10.5727V10.5856V10.5984V10.6113V10.6241V10.637V10.6498V10.6627V10.6756V10.6885V10.7014V10.7142V10.7271V10.74V10.7529V10.7658V10.7787V10.7916V10.8045V10.8174V10.8304V10.8433V10.8562V10.8691V10.882V10.8949V10.9078V10.9208V10.9337V10.9466V10.9595V10.9724V10.9854V10.9983V11.0112V11.0241V11.037V11.0499V11.0629V11.0758V11.0887V11.1016V11.1145V11.1274V11.1403V11.1532V11.1661V11.179V11.1919V11.2048V11.2176V11.2305V11.2434V11.2563V11.2691V11.282V11.2948V11.3077V11.3205V11.3334V11.3462V11.359V11.3719V11.3847V11.3975V11.4103V11.4231V11.4359V11.4487V11.4615V11.4742V11.487V11.4998V11.5125V11.5252V11.538V11.5507V11.5634V11.5761V11.5888V11.6015V11.6142V11.6269V11.6395V11.6522V11.6648V11.6774V11.69V11.7027V11.7153V11.7278V11.7404V11.753V11.7655V11.7781V11.7906V11.8031V11.8156V11.8281V11.8406V11.8531V11.8655V11.878V11.8904V11.9028V11.9152V11.9276V11.94V11.9523V11.9647V11.977V11.9893V12.0016V12.0139V12.0262V12.0384V12.0411C16.8405 12.5492 12 17.7093 12 24C12 30.6274 17.3726 36 24 36C30.6274 36 36 30.6274 36 24C36 17.7093 31.1595 12.5492 25 12.0411V12.0384V12.0262V12.0139V12.0016V11.9893V11.977V11.9647V11.9523V11.94V11.9276V11.9152V11.9028V11.8904V11.878V11.8655V11.8531V11.8406V11.8281V11.8156V11.8031V11.7906V11.7781V11.7655V11.753V11.7404V11.7278V11.7153V11.7027V11.69V11.6774V11.6648V11.6522V11.6395V11.6269V11.6142V11.6015V11.5888V11.5761V11.5634V11.5507V11.538V11.5252V11.5125V11.4998V11.487V11.4742V11.4615V11.4487V11.4359V11.4231V11.4103V11.3975V11.3847V11.3719V11.359V11.3462V11.3334V11.3205V11.3077V11.2948V11.282V11.2691V11.2563V11.2434V11.2305V11.2176V11.2048V11.1919V11.179V11.1661V11.1532V11.1403V11.1274V11.1145V11.1016V11.0887V11.0758V11.0629V11.0499V11.037V11.0241V11.0112V10.9983V10.9854V10.9724V10.9595V10.9466V10.9337V10.9208V10.9078V10.8949V10.882V10.8691V10.8562V10.8433V10.8304V10.8174V10.8045V10.7916V10.7787V10.7658V10.7529V10.74V10.7271V10.7142V10.7014V10.6885V10.6756V10.6627V10.6498V10.637V10.6241V10.6113V10.5984V10.5856V10.5727V10.5599V10.547V10.5342V10.5214V10.5086V10.4958V10.483V10.4702V10.4574V10.4446V10.4318V10.4191V10.4063V10.3936V10.3808V10.3681V10.3554V10.3426V10.3299V10.3172V10.3045V10.2918V10.2792V10.2665V10.2539V10.2412V10.2286V10.216V10.2033V10.1907V10.1781V10.1656V10.153V10.1404V10.1279V10.1154V10.1028V10.0903V10.0778V10.0653V10.0529V10.0404V10.028V10.0155V10.0031V9.9907V9.97831V9.96593V9.95357V9.94122V9.92888V9.91656V9.90425V9.89196V9.87969V9.86743V9.85518V9.84295V9.83074V9.81854V9.80636V9.7942V9.78205V9.76992V9.75781V9.74571V9.73364V9.72158V9.70953V9.69751V9.6855V9.67351V9.66154V9.64959V9.63766V9.62575V9.61385V9.60198V9.59013V9.57829V9.56648V9.55468V9.54291V9.53116V9.51942V9.50771V9.49602V9.48435V9.4727V9.46108V9.44947V9.43789V9.42633V9.41479V9.40328V9.39179V9.38032V9.36887V9.35745V9.34605V9.33468V9.32332V9.312V9.30069V9.28941V9.27816V9.26693V9.25573V9.24455V9.23339V9.22227V9.21116V9.20009V9.18904V9.17801V9.16701V9.15604V9.1451V9.13418V9.12329V9.11243V9.10159V9.09078V9.08V9.06925V9.05853V9.04783V9.03717V9.02653V9.01592V9.00534V8.99479V8.98427V8.97378V8.96332V8.95289V8.94249V8.93212V8.92178V8.91147V8.9012V8.89095V8.88074V8.87055V8.8604V8.85028V8.84019V8.83014V8.82012V8.81013V8.80017V8.79025V8.78036V8.7705V8.76068V8.75089V8.74113V8.73141V8.72172V8.71207V8.70245V8.69287V8.68332V8.67381V8.66433V8.65489V8.64548V8.63611V8.62678V8.61748V8.60822V8.59899V8.58981V8.58066V8.57154V8.56247V8.55343V8.54443V8.53547V8.52654V8.51766V8.50881V8.5Z" fill="#91BEFF"></path><path fill-rule="evenodd" clip-rule="evenodd" d="M34.827 40.8189C31.7064 42.8318 27.9896 44 24 44C20.0104 44 16.2936 42.8318 13.1731 40.8189C15.1068 36.7853 19.2281 34 24 34C28.7719 34 32.8932 36.7853 34.827 40.8189Z" fill="#91BEFF"></path><path fill-rule="evenodd" clip-rule="evenodd" d="M21 27C21.5523 27 22 27.4477 22 28C22 29.1046 22.8954 30 24 30C25.1046 30 26 29.1046 26 28C26 27.4477 26.4477 27 27 27C27.5523 27 28 27.4477 28 28C28 30.2091 26.2091 32 24 32C21.7909 32 20 30.2091 20 28C20 27.4477 20.4477 27 21 27Z" fill="#1F78F0"></path><path d="M17 22C17 20.9976 17.7735 20.168 18.7748 20.1214C20.0354 20.0626 21.8768 20 24 20C26.1232 20 27.9646 20.0626 29.2252 20.1214C30.2265 20.168 31 20.9976 31 22V22C31 23.0024 30.2265 23.832 29.2252 23.8786C27.9646 23.9374 26.1232 24 24 24C21.8768 24 20.0354 23.9374 18.7748 23.8786C17.7735 23.832 17 23.0024 17 22V22Z" fill="#1F78F0"></path></g></svg>