<svg viewBox="0 0 24 24" fill="none" xmlns="http://www.w3.org/2000/svg">






<g transform="matrix(0.5,0,0,0.5,0,0)"><path d="M44 24C44 35.0457 35.0457 44 24 44C12.9543 44 4 35.0457 4 24C4 12.9543 12.9543 4 24 4C35.0457 4 44 12.9543 44 24Z" fill="#1F78F0"></path><path d="M36 24C36 30.6274 30.6274 36 24 36C17.3726 36 12 30.6274 12 24C12 17.3726 17.3726 12 24 12C30.6274 12 36 17.3726 36 24Z" fill="#91BEFF"></path><path fill-rule="evenodd" clip-rule="evenodd" d="M34.827 40.8189C31.7064 42.8318 27.9896 44 24 44C20.0104 44 16.2936 42.8318 13.1731 40.8189C15.1068 36.7853 19.2281 34 24 34C28.7719 34 32.8932 36.7853 34.827 40.8189Z" fill="#91BEFF"></path><path fill-rule="evenodd" clip-rule="evenodd" d="M27.5574 30.8301C28.0159 30.5222 28.1379 29.9009 27.83 29.4424L26.9999 30C27.83 29.4424 27.8302 29.4427 27.83 29.4424L27.8293 29.4414L27.8285 29.4402L27.8265 29.4372L27.821 29.4291L27.8039 29.4045C27.7899 29.3844 27.7706 29.3573 27.7463 29.324C27.6978 29.2576 27.6288 29.1662 27.5413 29.0582C27.3676 28.8437 27.1148 28.5556 26.7986 28.2644C26.202 27.7149 25.2135 27 23.9999 27C22.7862 27 21.7977 27.7149 21.2011 28.2644C20.8849 28.5556 20.6321 28.8437 20.4584 29.0582C20.371 29.1662 20.302 29.2576 20.2534 29.324C20.2291 29.3573 20.2098 29.3844 20.1958 29.4045L20.1787 29.4291L20.1732 29.4372L20.1712 29.4402L20.1704 29.4414C20.1702 29.4417 20.1697 29.4424 20.9999 30L20.1697 29.4424C19.8618 29.9009 19.9839 30.5222 20.4423 30.8301C20.9001 31.1375 21.5202 31.0163 21.8286 30.5596C21.8286 30.5595 21.8285 30.5598 21.8286 30.5596L21.8349 30.5505C21.8414 30.5413 21.8526 30.5254 21.8682 30.504C21.8996 30.4611 21.9485 30.3962 22.0128 30.3167C22.1427 30.1562 22.3293 29.9443 22.556 29.7355C23.0452 29.285 23.5566 29 23.9999 29C24.4431 29 24.9546 29.285 25.4437 29.7355C25.6704 29.9443 25.857 30.1562 25.9869 30.3167C26.0512 30.3962 26.1001 30.4611 26.1315 30.504C26.1472 30.5254 26.1584 30.5413 26.1648 30.5505L26.1709 30.5593L26.1703 30.5583C26.4783 31.0164 27.099 31.1379 27.5574 30.8301Z" fill="#1F78F0"></path><path d="M20.1039 22.9902C19.3484 23.7457 18.1235 23.7457 17.3681 22.9902C16.6126 22.2347 16.6126 21.0098 17.3681 20.2543C18.1762 19.4461 20.9121 22.182 20.1039 22.9902Z" fill="#1F78F0"></path><path d="M30.3439 20.2967C31.0608 21.0652 31.019 22.2694 30.2505 22.9863C29.482 23.7032 28.2778 23.6614 27.5609 22.8929C26.813 22.0912 29.596 19.495 30.3439 20.2967Z" fill="#1F78F0"></path></g></svg>