<svg viewBox="0 0 24 24" fill="none" xmlns="http://www.w3.org/2000/svg">






<g transform="matrix(0.5,0,0,0.5,0,0)"><path d="M44 24C44 35.0457 35.0457 44 24 44C12.9543 44 4 35.0457 4 24C4 12.9543 12.9543 4 24 4C35.0457 4 44 12.9543 44 24Z" fill="#1F78F0"></path><path fill-rule="evenodd" clip-rule="evenodd" d="M18.408 7.96587C18.7022 7.1774 19.7793 7.08272 20.2065 7.80779L22.7165 12.0679C23.1382 12.023 23.5664 12 24 12C24.5246 12 25.0413 12.0337 25.5481 12.099L28.0763 7.80779C28.5035 7.08273 29.5807 7.1774 29.8748 7.96587L31.7676 13.0394L33.787 12.2505C34.4952 11.9739 35.2409 12.5575 35.1425 13.3114L34.5051 18.1951C35.4577 19.9154 36 21.8944 36 24C36 30.6274 30.6274 36 24 36C17.3726 36 12 30.6274 12 24C12 21.8944 12.5423 19.9154 13.4949 18.1951L12.8575 13.3114C12.7591 12.5575 13.5048 11.9739 14.213 12.2505L16.4793 13.1358L18.408 7.96587Z" fill="#91BEFF"></path><path fill-rule="evenodd" clip-rule="evenodd" d="M34.827 40.8189C31.7064 42.8318 27.9896 44 24 44C20.0104 44 16.2936 42.8318 13.1731 40.8189C15.1068 36.7853 19.2281 34 24 34C28.7719 34 32.8932 36.7853 34.827 40.8189Z" fill="#91BEFF"></path><path fill-rule="evenodd" clip-rule="evenodd" d="M21 27C21.5523 27 22 27.4477 22 28C22 29.1046 22.8954 30 24 30C25.1046 30 26 29.1046 26 28C26 27.4477 26.4477 27 27 27C27.5523 27 28 27.4477 28 28C28 30.2091 26.2091 32 24 32C21.7909 32 20 30.2091 20 28C20 27.4477 20.4477 27 21 27Z" fill="#1F78F0"></path><path d="M20.1038 23.342C19.3484 24.0975 18.1235 24.0975 17.368 23.342C16.6125 22.5865 16.6125 21.3616 17.368 20.6061C18.1762 19.798 20.912 22.5338 20.1038 23.342Z" fill="#1F78F0"></path><path d="M30.3439 20.6485C31.0608 21.417 31.019 22.6212 30.2505 23.3381C29.482 24.055 28.2778 24.0132 27.5609 23.2447C26.813 22.443 29.596 19.8468 30.3439 20.6485Z" fill="#1F78F0"></path></g></svg>