<svg viewBox="0 0 24 24" fill="none" xmlns="http://www.w3.org/2000/svg">



<g transform="matrix(0.5,0,0,0.5,0,0)"><path d="M44 24C44 35.0457 35.0457 44 24 44C12.9543 44 4 35.0457 4 24C4 12.9543 12.9543 4 24 4C35.0457 4 44 12.9543 44 24Z" fill="#1F78F0"></path><path d="M34 24C34 29.5228 29.5228 34 24 34C18.4772 34 14 29.5228 14 24C14 18.4772 18.4772 14 24 14C29.5228 14 34 18.4772 34 24Z" fill="#91BEFF"></path><path fill-rule="evenodd" clip-rule="evenodd" d="M11.5271 39.6351C13.8446 35.1028 18.5599 32 23.9999 32C29.44 32 34.1553 35.1028 36.4728 39.6352C33.053 42.3669 28.7172 44 24 44C19.2827 44 14.9469 42.3669 11.5271 39.6351Z" fill="#91BEFF"></path></g></svg>