<svg viewBox="0 0 24 24" fill="none" xmlns="http://www.w3.org/2000/svg">






<g transform="matrix(0.5,0,0,0.5,0,0)"><path d="M44 24C44 35.0457 35.0457 44 24 44C12.9543 44 4 35.0457 4 24C4 12.9543 12.9543 4 24 4C35.0457 4 44 12.9543 44 24Z" fill="#1F78F0"></path><path fill-rule="evenodd" clip-rule="evenodd" d="M12.0785 25.3801C11.4807 24.8849 11.0999 24.1369 11.0999 23.3C11.0999 22.7565 11.2604 22.2506 11.5367 21.827C10.9055 21.3328 10.4999 20.5638 10.4999 19.7C10.4999 18.7439 10.9968 17.904 11.7464 17.4242C11.5258 17.033 11.3999 16.5812 11.3999 16.1C11.3999 14.6088 12.6087 13.4 14.0999 13.4C14.0999 11.9088 15.3087 10.7 16.7999 10.7C17.1511 10.7 17.4867 10.7671 17.7945 10.8891C18.1066 9.74283 19.1549 8.9 20.4 8.9C20.8812 8.9 21.3329 9.02588 21.7242 9.2465C22.204 8.49689 23.0439 8 24 8C24.956 8 25.796 8.49689 26.2757 9.24649C26.667 9.02588 27.1188 8.9 27.6 8.9C28.8451 8.9 29.8934 9.74283 30.2054 10.8891C30.5132 10.7671 30.8488 10.7 31.2001 10.7C32.6912 10.7 33.9001 11.9088 33.9001 13.4C35.3912 13.4 36.6001 14.6088 36.6001 16.1C36.6001 16.5812 36.4742 17.033 36.2536 17.4242C37.0032 17.904 37.5001 18.7439 37.5001 19.7C37.5001 20.5638 37.0944 21.3329 36.4631 21.8272C36.7393 22.2507 36.8998 22.7566 36.8998 23.3C36.8998 24.1368 36.5191 24.8847 35.9215 25.3799C35.2371 31.3574 30.1607 36 24 36C17.8393 36 12.7629 31.3575 12.0785 25.3801Z" fill="#91BEFF"></path><path fill-rule="evenodd" clip-rule="evenodd" d="M34.827 40.8189C31.7064 42.8318 27.9896 44 24 44C20.0104 44 16.2936 42.8318 13.1731 40.8189C15.1068 36.7853 19.2281 34 24 34C28.7719 34 32.8932 36.7853 34.827 40.8189Z" fill="#91BEFF"></path><path fill-rule="evenodd" clip-rule="evenodd" d="M21 27C21.5523 27 22 27.4477 22 28C22 29.1046 22.8954 30 24 30C25.1046 30 26 29.1046 26 28C26 27.4477 26.4477 27 27 27C27.5523 27 28 27.4477 28 28C28 30.2091 26.2091 32 24 32C21.7909 32 20 30.2091 20 28C20 27.4477 20.4477 27 21 27Z" fill="#1F78F0"></path><path d="M20 21.5C20 22.3284 19.3284 23 18.5 23C17.6716 23 17 22.3284 17 21.5C17 20.6716 17.6716 20 18.5 20C19.3284 20 20 20.6716 20 21.5Z" fill="#1F78F0"></path><path d="M31 21.5C31 22.3284 30.3284 23 29.5 23C28.6716 23 28 22.3284 28 21.5C28 20.6716 28.6716 20 29.5 20C30.3284 20 31 20.6716 31 21.5Z" fill="#1F78F0"></path></g></svg>