<svg viewBox="0 0 24 24" fill="none" xmlns="http://www.w3.org/2000/svg">






<g transform="matrix(0.5,0,0,0.5,0,0)"><path d="M4 24C4 35.0457 12.9543 44 24 44C35.0457 44 44 35.0457 44 24C44 12.9543 35.0457 4 24 4C12.9543 4 4 12.9543 4 24Z" fill="#1F78F0"></path><path fill-rule="evenodd" clip-rule="evenodd" d="M24 36C30.0228 36 35.0092 31.563 35.869 25.7795C36.218 25.9217 36.5999 26 37 26C38.6569 26 40 24.6569 40 23C40 21.9377 39.4479 21.0044 38.615 20.4714C38.8601 20.0366 39 19.5347 39 19C39 17.3431 37.6569 16 36 16C36 14.3431 34.6569 13 33 13C32.0856 13 31.2667 13.4091 30.7165 14.0543C28.7999 12.7574 26.4884 12 24 12C21.5116 12 19.2001 12.7574 17.2835 14.0543C16.7333 13.4091 15.9144 13 15 13C13.3431 13 12 14.3431 12 16C10.3431 16 9 17.3431 9 19C9 19.5347 9.13986 20.0366 9.38499 20.4714C8.55209 21.0044 8 21.9377 8 23C8 24.6569 9.34315 26 11 26C11.4001 26 11.782 25.9217 12.131 25.7795C12.9908 31.563 17.9772 36 24 36Z" fill="#91BEFF"></path><path fill-rule="evenodd" clip-rule="evenodd" d="M34.827 40.8189C31.7064 42.8318 27.9896 44 24 44C20.0104 44 16.2936 42.8318 13.1731 40.8189C15.1068 36.7853 19.2281 34 24 34C28.7719 34 32.8932 36.7853 34.827 40.8189Z" fill="#91BEFF"></path><path fill-rule="evenodd" clip-rule="evenodd" d="M21 27C21.5523 27 22 27.4477 22 28C22 29.1046 22.8954 30 24 30C25.1046 30 26 29.1046 26 28C26 27.4477 26.4477 27 27 27C27.5523 27 28 27.4477 28 28C28 30.2091 26.2091 32 24 32C21.7909 32 20 30.2091 20 28C20 27.4477 20.4477 27 21 27Z" fill="#1F78F0"></path><path d="M18.5558 19.859C18.7422 19.4985 19.2577 19.4985 19.4441 19.859L19.9494 20.8361C19.9969 20.9281 20.0719 21.003 20.1639 21.0506L21.141 21.5558C21.5015 21.7422 21.5015 22.2577 21.141 22.4441L20.1639 22.9494C20.0719 22.9969 19.9969 23.0719 19.9494 23.1639L19.4441 24.141C19.2577 24.5015 18.7422 24.5015 18.5558 24.141L18.0506 23.1639C18.003 23.0719 17.9281 22.9969 17.8361 22.9494L16.859 22.4441C16.4985 22.2577 16.4985 21.7422 16.859 21.5558L17.8361 21.0506C17.9281 21.003 18.003 20.9281 18.0506 20.8361L18.5558 19.859Z" fill="#1F78F0"></path><path d="M28.5558 19.859C28.7422 19.4985 29.2577 19.4985 29.4441 19.859L29.9494 20.8361C29.9969 20.9281 30.0719 21.003 30.1639 21.0506L31.141 21.5558C31.5015 21.7422 31.5015 22.2577 31.141 22.4441L30.1639 22.9494C30.0719 22.9969 29.9969 23.0719 29.9494 23.1639L29.4441 24.141C29.2577 24.5015 28.7422 24.5015 28.5558 24.141L28.0506 23.1639C28.003 23.0719 27.9281 22.9969 27.8361 22.9494L26.859 22.4441C26.4985 22.2577 26.4985 21.7422 26.859 21.5558L27.8361 21.0506C27.9281 21.003 28.003 20.9281 28.0506 20.8361L28.5558 19.859Z" fill="#1F78F0"></path></g></svg>