<svg viewBox="0 0 24 24" fill="none" xmlns="http://www.w3.org/2000/svg">






<g transform="matrix(0.5,0,0,0.5,0,0)"><path d="M4 24C4 35.0457 12.9543 44 24 44C35.0457 44 44 35.0457 44 24C44 12.9543 35.0457 4 24 4C12.9543 4 4 12.9543 4 24Z" fill="#1F78F0"></path><path fill-rule="evenodd" clip-rule="evenodd" d="M35 15C35 12.7909 33.2091 11 31 11H17C14.7909 11 13 12.7909 13 15V19H11C11 18.4477 10.5523 18 10 18C9.44772 18 9 18.4477 9 19V23C9 23.5523 9.44772 24 10 24C10.5523 24 11 23.5523 11 23H13V25C13 31.0751 17.9249 36 24 36C30.0751 36 35 31.0751 35 25V23H37C37 23.5523 37.4477 24 38 24C38.5523 24 39 23.5523 39 23V19C39 18.4477 38.5523 18 38 18C37.4477 18 37 18.4477 37 19H35V15Z" fill="#91BEFF"></path><path fill-rule="evenodd" clip-rule="evenodd" d="M34.827 40.8189C31.7064 42.8318 27.9896 44 24 44C20.0104 44 16.2936 42.8318 13.1731 40.8189C15.1068 36.7853 19.2281 34 24 34C28.7719 34 32.8932 36.7853 34.827 40.8189Z" fill="#91BEFF"></path><path fill-rule="evenodd" clip-rule="evenodd" d="M21 27C21.5523 27 22 27.4477 22 28C22 29.1046 22.8954 30 24 30C25.1046 30 26 29.1046 26 28C26 27.4477 26.4477 27 27 27C27.5523 27 28 27.4477 28 28C28 30.2091 26.2091 32 24 32C21.7909 32 20 30.2091 20 28C20 27.4477 20.4477 27 21 27Z" fill="#1F78F0"></path><path d="M21 19.9211C21 21.0693 20.1046 22 19 22C17.8954 22 17 21.0693 17 19.9211C17 18.693 21 18.693 21 19.9211Z" fill="#1F78F0"></path><path d="M27 19.9211C27 21.0693 27.8954 22 29 22C30.1046 22 31 21.0693 31 19.9211C31 18.693 27 18.693 27 19.9211Z" fill="#1F78F0"></path></g></svg>