<svg viewBox="0 0 24 24" fill="none" xmlns="http://www.w3.org/2000/svg">






<g transform="matrix(0.5,0,0,0.5,0,0)"><path d="M44 24C44 35.0457 35.0457 44 24 44C12.9543 44 4 35.0457 4 24C4 12.9543 12.9543 4 24 4C35.0457 4 44 12.9543 44 24Z" fill="#1F78F0"></path><path fill-rule="evenodd" clip-rule="evenodd" d="M12.5 12C14.4213 12 15.7956 13.2393 15.9791 15.0743C18.1046 13.163 20.9165 12 24 12C27.0835 12 29.8954 13.163 32.0209 15.0743C32.2044 13.2393 33.5787 12 35.5 12C37.5664 12 39 13.4336 39 15.5C39 16.737 38.9108 17.5279 38.8224 18.0078C38.7441 18.4334 38.4334 18.7441 38.0078 18.8224C37.5279 18.9108 36.737 19 35.5 19C35.2905 19 35.0875 18.9853 34.8919 18.9566C35.6031 20.4899 36 22.1986 36 24C36 30.6274 30.6274 36 24 36C17.3726 36 12 30.6274 12 24C12 22.1986 12.3969 20.4899 13.1081 18.9566C12.9125 18.9853 12.7095 19 12.5 19C11.263 19 10.4721 18.9108 9.99218 18.8224C9.56659 18.7441 9.25592 18.4334 9.17757 18.0078C9.08922 17.5279 9 16.737 9 15.5C9 13.4336 10.4336 12 12.5 12Z" fill="#91BEFF"></path><path fill-rule="evenodd" clip-rule="evenodd" d="M34.827 40.8189C31.7064 42.8318 27.9896 44 24 44C20.0104 44 16.2936 42.8318 13.1731 40.8189C15.1068 36.7853 19.2281 34 24 34C28.7719 34 32.8932 36.7853 34.827 40.8189Z" fill="#91BEFF"></path><path fill-rule="evenodd" clip-rule="evenodd" d="M21 27C21.5523 27 22 27.4477 22 28C22 29.1046 22.8954 30 24 30C25.1046 30 26 29.1046 26 28C26 27.4477 26.4477 27 27 27C27.5523 27 28 27.4477 28 28C28 30.2091 26.2091 32 24 32C21.7909 32 20 30.2091 20 28C20 27.4477 20.4477 27 21 27Z" fill="#1F78F0"></path><path d="M20 21.5C20 22.3284 19.3284 23 18.5 23C17.6716 23 17 22.3284 17 21.5C17 20.6716 17.6716 20 18.5 20C19.3284 20 20 20.6716 20 21.5Z" fill="#1F78F0"></path><path d="M31 21.5C31 22.3284 30.3284 23 29.5 23C28.6716 23 28 22.3284 28 21.5C28 20.6716 28.6716 20 29.5 20C30.3284 20 31 20.6716 31 21.5Z" fill="#1F78F0"></path></g></svg>