<svg viewBox="0 0 24 24" fill="none" xmlns="http://www.w3.org/2000/svg">






<g transform="matrix(0.5,0,0,0.5,0,0)"><path d="M4 24C4 35.0457 12.9543 44 24 44C35.0457 44 44 35.0457 44 24C44 12.9543 35.0457 4 24 4C12.9543 4 4 12.9543 4 24Z" fill="#1F78F0"></path><path fill-rule="evenodd" clip-rule="evenodd" d="M24 36C17.3726 36 12 30.6274 12 24C12 22.1529 12.4173 20.4034 13.1628 18.8404L11.326 13.5972C11.0489 12.8062 11.8094 12.0457 12.6004 12.3228L17.3725 13.9946C19.2715 12.7342 21.55 12 24 12C26.45 12 28.7285 12.7342 30.6275 13.9946L35.3997 12.3228C36.1907 12.0457 36.9512 12.8062 36.6741 13.5972L34.8372 18.8404C35.5827 20.4034 36 22.1529 36 24C36 30.6274 30.6274 36 24 36Z" fill="#91BEFF"></path><path fill-rule="evenodd" clip-rule="evenodd" d="M34.827 40.8189C31.7064 42.8318 27.9896 44 24 44C20.0104 44 16.2936 42.8318 13.1731 40.8189C15.1068 36.7853 19.2281 34 24 34C28.7719 34 32.8932 36.7853 34.827 40.8189Z" fill="#91BEFF"></path><path fill-rule="evenodd" clip-rule="evenodd" d="M21 27C21.5523 27 22 27.4477 22 28C22 29.1046 22.8954 30 24 30C25.1046 30 26 29.1046 26 28C26 27.4477 26.4477 27 27 27C27.5523 27 28 27.4477 28 28C28 30.2091 26.2091 32 24 32C21.7909 32 20 30.2091 20 28C20 27.4477 20.4477 27 21 27Z" fill="#1F78F0"></path><path fill-rule="evenodd" clip-rule="evenodd" d="M31.5966 23.5265C31.0632 23.6695 30.5148 23.3529 30.3719 22.8194C30.086 21.7525 28.9893 21.1193 27.9224 21.4052C27.3889 21.5481 26.8406 21.2316 26.6977 20.6981C26.5547 20.1646 26.8713 19.6163 27.4048 19.4733C29.5386 18.9016 31.732 20.1679 32.3037 22.3018C32.4467 22.8352 32.1301 23.3836 31.5966 23.5265Z" fill="#1F78F0"></path><path fill-rule="evenodd" clip-rule="evenodd" d="M16.4034 23.5265C16.9368 23.6695 17.4852 23.3529 17.6281 22.8194C17.914 21.7525 19.0107 21.1193 20.0776 21.4052C20.6111 21.5481 21.1594 21.2316 21.3023 20.6981C21.4453 20.1646 21.1287 19.6163 20.5952 19.4733C18.4614 18.9016 16.268 20.1679 15.6963 22.3018C15.5533 22.8352 15.8699 23.3836 16.4034 23.5265Z" fill="#1F78F0"></path></g></svg>