<svg viewBox="0 0 24 24" fill="none" xmlns="http://www.w3.org/2000/svg">






<g transform="matrix(0.5,0,0,0.5,0,0)"><path d="M44 24C44 35.0457 35.0457 44 24 44C12.9543 44 4 35.0457 4 24C4 12.9543 12.9543 4 24 4C35.0457 4 44 12.9543 44 24Z" fill="#1F78F0"></path><path d="M36 24C36 30.6274 30.6274 36 24 36C17.3726 36 12 30.6274 12 24C12 17.3726 17.3726 12 24 12C30.6274 12 36 17.3726 36 24Z" fill="#91BEFF"></path><path fill-rule="evenodd" clip-rule="evenodd" d="M34.827 40.8189C31.7064 42.8318 27.9896 44 24 44C20.0104 44 16.2936 42.8318 13.1731 40.8189C15.1068 36.7853 19.2281 34 24 34C28.7719 34 32.8932 36.7853 34.827 40.8189Z" fill="#91BEFF"></path><path fill-rule="evenodd" clip-rule="evenodd" d="M20 29C20 29.5523 20.4477 30 21 30H27C27.5523 30 28 29.5523 28 29C28 28.4477 27.5523 28 27 28H21C20.4477 28 20 28.4477 20 29Z" fill="#1F78F0"></path><path d="M20 21.5C20 22.3284 19.3284 23 18.5 23C17.6716 23 17 22.3284 17 21.5C17 20.6716 17.6716 20 18.5 20C19.3284 20 20 20.6716 20 21.5Z" fill="#1F78F0"></path><path d="M31 21.5C31 22.3284 30.3284 23 29.5 23C28.6716 23 28 22.3284 28 21.5C28 20.6716 28.6716 20 29.5 20C30.3284 20 31 20.6716 31 21.5Z" fill="#1F78F0"></path></g></svg>