<svg viewBox="0 0 24 24" fill="none" xmlns="http://www.w3.org/2000/svg">








<g transform="matrix(0.5,0,0,0.5,0,0)"><path d="M44 24C44 35.0457 35.0457 44 24 44C12.9543 44 4 35.0457 4 24C4 12.9543 12.9543 4 24 4C35.0457 4 44 12.9543 44 24Z" fill="#1F78F0"></path><path fill-rule="evenodd" clip-rule="evenodd" d="M12.3088 26.7162C11.3566 26.2548 10.7 25.2791 10.7 24.15C10.7 23.6421 10.8329 23.1652 11.0657 22.7522C10.2745 22.2458 9.75 21.3591 9.75 20.35C9.75 19.3408 10.2745 18.4542 11.0657 17.9478C10.8329 17.5348 10.7 17.0579 10.7 16.55C10.7 14.976 11.976 13.7 13.55 13.7C13.55 12.126 14.826 10.85 16.4 10.85C16.7708 10.85 17.125 10.9208 17.4499 11.0496C17.7792 9.83965 18.8858 8.95 20.2 8.95C20.708 8.95 21.1849 9.08287 21.5978 9.31574C22.1043 8.52449 22.9909 8 24 8C25.0092 8 25.8958 8.52449 26.4023 9.31575C26.8152 9.08287 27.2921 8.95 27.8 8.95C29.1143 8.95 30.2209 9.83965 30.5502 11.0496C30.8751 10.9208 31.2293 10.85 31.6001 10.85C33.1741 10.85 34.4501 12.126 34.4501 13.7C36.0241 13.7 37.3001 14.976 37.3001 16.55C37.3001 17.0579 37.1672 17.5348 36.9344 17.9478C37.7256 18.4542 38.2501 19.3408 38.2501 20.35C38.2501 21.3591 37.7256 22.2458 36.9344 22.7522C37.1672 23.1652 37.3001 23.6421 37.3001 24.15C37.3001 25.2791 36.6435 26.2548 35.6913 26.7162C34.4605 32.0353 29.6933 36 24 36C18.3068 36 13.5396 32.0353 12.3088 26.7162Z" fill="#91BEFF"></path><path fill-rule="evenodd" clip-rule="evenodd" d="M34.827 40.8189C31.7064 42.8318 27.9896 44 24 44C20.0104 44 16.2936 42.8318 13.1731 40.8189C15.1068 36.7853 19.2281 34 24 34C28.7719 34 32.8932 36.7853 34.827 40.8189Z" fill="#91BEFF"></path><path fill-rule="evenodd" clip-rule="evenodd" d="M21 27C21.5523 27 22 27.4477 22 28C22 29.1046 22.8954 30 24 30C25.1046 30 26 29.1046 26 28C26 27.4477 26.4477 27 27 27C27.5523 27 28 27.4477 28 28C28 30.2091 26.2091 32 24 32C21.7909 32 20 30.2091 20 28C20 27.4477 20.4477 27 21 27Z" fill="#1F78F0"></path><path d="M20 21.5C20 22.3284 19.3284 23 18.5 23C17.6716 23 17 22.3284 17 21.5C17 20.6716 17.6716 20 18.5 20C19.3284 20 20 20.6716 20 21.5Z" fill="#1F78F0"></path><path d="M31 21.5C31 22.3284 30.3284 23 29.5 23C28.6716 23 28 22.3284 28 21.5C28 20.6716 28.6716 20 29.5 20C30.3284 20 31 20.6716 31 21.5Z" fill="#1F78F0"></path><path d="M8 30C8 32.0664 9.43358 33.5 11.5 33.5V33.5V33.5C13.5664 33.5 15 32.0664 15 30V30C15 28.763 14.9108 27.9721 14.8224 27.4922C14.7441 27.0666 14.4334 26.7559 14.0078 26.6776C13.5279 26.5892 12.737 26.5 11.5 26.5V26.5C9.43358 26.5 8 27.9336 8 30V30V30Z" fill="#91BEFF"></path><path d="M40 30C40 32.0664 38.5664 33.5 36.5 33.5V33.5V33.5C34.4336 33.5 33 32.0664 33 30V30C33 28.763 33.0892 27.9721 33.1776 27.4922C33.2559 27.0666 33.5666 26.7559 33.9922 26.6776C34.4721 26.5892 35.263 26.5 36.5 26.5V26.5C38.5664 26.5 40 27.9336 40 30V30V30Z" fill="#91BEFF"></path></g></svg>