<svg viewBox="0 0 24 24" fill="none" xmlns="http://www.w3.org/2000/svg">






<g transform="matrix(0.5,0,0,0.5,0,0)"><path d="M44 24C44 35.0457 35.0457 44 24 44C12.9543 44 4 35.0457 4 24C4 12.9543 12.9543 4 24 4C35.0457 4 44 12.9543 44 24Z" fill="#1F78F0"></path><path fill-rule="evenodd" clip-rule="evenodd" d="M13.4085 11.4402C12.7336 11.2292 12.0589 11.7663 12.1132 12.4713L12.6906 19.978C12.2434 21.2353 12 22.5892 12 24C12 30.6274 17.3726 36 24 36C30.6274 36 36 30.6274 36 24C36 22.5892 35.7566 21.2353 35.3094 19.978L35.8868 12.4713C35.9411 11.7663 35.2664 11.2292 34.5915 11.4402L32 12.25L30.4542 10.8974C30.1749 10.653 29.7831 10.5834 29.4367 10.7166L26.75 11.75L24.5369 10.3416C24.2093 10.1332 23.7907 10.1332 23.4631 10.3416L21.25 11.75L18.5633 10.7166C18.2169 10.5834 17.8251 10.653 17.5458 10.8974L16 12.25L13.4085 11.4402Z" fill="#91BEFF"></path><path fill-rule="evenodd" clip-rule="evenodd" d="M34.827 40.8189C31.7064 42.8318 27.9896 44 24 44C20.0104 44 16.2936 42.8318 13.1731 40.8189C15.1068 36.7853 19.2281 34 24 34C28.7719 34 32.8932 36.7853 34.827 40.8189Z" fill="#91BEFF"></path><path fill-rule="evenodd" clip-rule="evenodd" d="M21 27C21.5523 27 22 27.4477 22 28C22 29.1046 22.8954 30 24 30C25.1046 30 26 29.1046 26 28C26 27.4477 26.4477 27 27 27C27.5523 27 28 27.4477 28 28C28 30.2091 26.2091 32 24 32C21.7909 32 20 30.2091 20 28C20 27.4477 20.4477 27 21 27Z" fill="#1F78F0"></path><path d="M20 21.5C20 22.3284 19.3284 23 18.5 23C17.6716 23 17 22.3284 17 21.5C17 20.6716 17.6716 20 18.5 20C19.3284 20 20 20.6716 20 21.5Z" fill="#1F78F0"></path><path d="M31 21.5C31 22.3284 30.3284 23 29.5 23C28.6716 23 28 22.3284 28 21.5C28 20.6716 28.6716 20 29.5 20C30.3284 20 31 20.6716 31 21.5Z" fill="#1F78F0"></path></g></svg>