<svg viewBox="0 0 24 24" fill="none" xmlns="http://www.w3.org/2000/svg">



<g transform="matrix(0.5,0,0,0.5,0,0)"><path fill-rule="evenodd" clip-rule="evenodd" d="M36 20C31.5817 20 28 16.4183 28 12C28 7.58172 31.5817 4 36 4C40.4183 4 44 7.58172 44 12C44 16.4183 40.4183 20 36 20ZM12 20C7.58172 20 4 16.4183 4 12C4 7.58172 7.58172 4 12 4C16.4183 4 20 7.58172 20 12C20 16.4183 16.4183 20 12 20Z" fill="#1F78F0"></path><circle cx="24" cy="25" r="19" fill="#91BEFF"></circle><path fill-rule="evenodd" clip-rule="evenodd" d="M24 12.5C25.3807 12.5 26.5 13.6193 26.5 15V23.9645L32.7678 30.2322C33.7441 31.2085 33.7441 32.7915 32.7678 33.7678C31.7915 34.7441 30.2085 34.7441 29.2322 33.7678L22.2322 26.7678C21.7634 26.2989 21.5 25.663 21.5 25V15C21.5 13.6193 22.6193 12.5 24 12.5Z" fill="#1F78F0"></path></g></svg>