<svg viewBox="0 0 24 24" fill="none" xmlns="http://www.w3.org/2000/svg">



<g transform="matrix(0.5,0,0,0.5,0,0)"><path fill-rule="evenodd" clip-rule="evenodd" d="M36 20C31.5817 20 28 16.4183 28 12C28 7.58172 31.5817 4 36 4C40.4183 4 44 7.58172 44 12C44 16.4183 40.4183 20 36 20ZM12 20C7.58172 20 4 16.4183 4 12C4 7.58172 7.58172 4 12 4C16.4183 4 20 7.58172 20 12C20 16.4183 16.4183 20 12 20Z" fill="#1F78F0"></path><path fill-rule="evenodd" clip-rule="evenodd" d="M37.7013 38.1634C40.9828 34.7486 43 30.1099 43 25C43 14.5066 34.4934 6 24 6C13.5066 6 5 14.5066 5 25C5 30.1099 7.01718 34.7486 10.2987 38.1634C9.1407 41.3535 8.62088 43.5849 8.62088 43.5849C8.62088 43.5849 8.70095 44.4463 9.99999 45.1963C11.299 45.9463 12.085 45.5849 12.085 45.5849C12.085 45.5849 13.5194 44.242 15.4659 41.9801C18.0319 43.2723 20.931 44 24 44C27.069 44 29.9681 43.2723 32.5341 41.9801C34.4806 44.242 35.915 45.5849 35.915 45.5849C35.915 45.5849 36.701 45.9463 38 45.1963C39.299 44.4463 39.3791 43.5849 39.3791 43.5849C39.3791 43.5849 38.8593 41.3535 37.7013 38.1634Z" fill="#91BEFF"></path><path fill-rule="evenodd" clip-rule="evenodd" d="M24.3076 12.5C25.6883 12.5 26.8076 13.6193 26.8076 15V23.9645L33.0754 30.2322C34.0517 31.2085 34.0517 32.7915 33.0754 33.7678C32.0991 34.7441 30.5162 34.7441 29.5399 33.7678L22.5399 26.7678C22.071 26.2989 21.8076 25.663 21.8076 25V15C21.8076 13.6193 22.9269 12.5 24.3076 12.5Z" fill="#1F78F0"></path></g></svg>