<svg viewBox="0 0 24 24" fill="none" xmlns="http://www.w3.org/2000/svg">



<g transform="matrix(0.5,0,0,0.5,0,0)"><path fill-rule="evenodd" clip-rule="evenodd" d="M36 19.6941C31.5817 19.6941 28 16.1124 28 11.6941C28 7.27581 31.5817 3.69409 36 3.69409C40.4183 3.69409 44 7.27581 44 11.6941C44 16.1124 40.4183 19.6941 36 19.6941ZM12 19.6941C7.58172 19.6941 4 16.1124 4 11.6941C4 7.27581 7.58172 3.69409 12 3.69409C16.4183 3.69409 20 7.27581 20 11.6941C20 16.1124 16.4183 19.6941 12 19.6941Z" fill="#1F78F0"></path><path fill-rule="evenodd" clip-rule="evenodd" d="M37.7013 37.8575C40.9828 34.4427 43 29.804 43 24.6941C43 14.2007 34.4934 5.69409 24 5.69409C13.5066 5.69409 5 14.2007 5 24.6941C5 29.804 7.01718 34.4427 10.2987 37.8575C9.1407 41.0476 8.62088 43.279 8.62088 43.279C8.62088 43.279 8.70095 44.1404 9.99999 44.8904C11.299 45.6404 12.085 45.279 12.085 45.279C12.085 45.279 13.5194 43.9361 15.4659 41.6742C18.0319 42.9664 20.931 43.6941 24 43.6941C27.069 43.6941 29.9681 42.9664 32.5341 41.6742C34.4806 43.9361 35.915 45.279 35.915 45.279C35.915 45.279 36.701 45.6404 38 44.8904C39.299 44.1404 39.3791 43.279 39.3791 43.279C39.3791 43.279 38.8593 41.0476 37.7013 37.8575Z" fill="#91BEFF"></path><path fill-rule="evenodd" clip-rule="evenodd" d="M35.4587 14.3623C35.1511 13.7393 34.4069 13.5342 33.7121 13.5342H26.6548C26.2073 13.5342 25.8459 13.6635 25.5705 13.9221C25.3123 14.1646 25.1833 14.5687 25.1833 15.1345C25.1833 15.4032 25.2191 15.6644 25.2875 15.9172C25.4272 16.4332 25.9511 16.7106 26.4856 16.7106H30.3722L25.9319 21.6086C25.691 21.8834 25.4844 22.1824 25.3123 22.5057C25.1574 22.8129 25.08 23.1281 25.08 23.4514C25.08 23.8298 25.1635 24.1677 25.311 24.4664C25.6187 25.0894 26.3634 25.2942 27.0581 25.2942H34.5285C34.976 25.2942 35.3288 25.1729 35.587 24.9305C35.8623 24.6718 36 24.2596 36 23.6939C36 23.4364 35.9616 23.171 35.8916 22.9129C35.7517 22.397 35.2322 22.1178 34.6976 22.1178H30.5013L34.8383 17.2198C35.0792 16.945 35.2772 16.654 35.4321 16.3469C35.6042 16.0236 35.6902 15.7003 35.6902 15.377C35.6902 15.0028 35.6078 14.6641 35.4587 14.3623ZM21.565 24.1895C21.3393 23.8137 20.8736 23.6941 20.4351 23.6941H15.1537C14.8258 23.6941 14.5611 23.7821 14.3593 23.958C14.1702 24.123 14.0757 24.3979 14.0757 24.7828C14.0757 24.9793 14.106 25.17 14.1638 25.3541C14.267 25.6829 14.6065 25.8549 14.9512 25.8549H17.8771L14.6241 29.1869C14.4476 29.3738 14.2963 29.5773 14.1702 29.7972C14.0567 30.0061 14 30.2206 14 30.4405C14 30.727 14.0758 30.9794 14.2077 31.1989C14.4336 31.5747 14.8994 31.6941 15.3379 31.6941H20.922C21.2498 31.6941 21.5083 31.6116 21.6974 31.4467C21.8991 31.2707 22 30.9903 22 30.6054C22 30.4174 21.9676 30.2232 21.9089 30.0355C21.8061 29.7065 21.4691 29.5333 21.1244 29.5333H17.9716L21.1489 26.2013C21.3255 26.0144 21.4704 25.8164 21.5839 25.6075C21.71 25.3876 21.773 25.1676 21.773 24.9477C21.773 24.6647 21.6984 24.4116 21.565 24.1895Z" fill="#1F78F0"></path></g></svg>