<svg viewBox="0 0 24 24" fill="none" xmlns="http://www.w3.org/2000/svg">


<g transform="matrix(0.5,0,0,0.5,0,0)"><g clip-path="url(#clip0_634:2996)">
<path fill-rule="evenodd" clip-rule="evenodd" d="M29.8275 6.60459C31.2949 4.82712 33.5151 3.69421 36 3.69421C40.4183 3.69421 44 7.27594 44 11.6942C44 13.9491 43.0671 15.9861 41.5662 17.4403C42.4902 19.6754 43 22.1253 43 24.6942C43 29.8041 40.9828 34.4428 37.7013 37.8576C38.8593 41.0477 39.3791 43.2792 39.3791 43.2792C39.3791 43.2792 39.299 44.1405 38 44.8905C36.701 45.6405 35.915 45.2792 35.915 45.2792C35.915 45.2792 34.4806 43.9362 32.5341 41.6744C29.9681 42.9666 27.069 43.6942 24 43.6942C20.931 43.6942 18.0319 42.9666 15.4659 41.6744C13.5194 43.9362 12.085 45.2792 12.085 45.2792C12.085 45.2792 11.299 45.6405 9.99999 44.8905C8.70095 44.1405 8.62088 43.2792 8.62088 43.2792C8.62088 43.2792 9.1407 41.0477 10.2987 37.8576C7.01718 34.4428 5 29.8041 5 24.6942C5 22.1253 5.50983 19.6754 6.43383 17.4403C4.93292 15.9861 4 13.9491 4 11.6942C4 7.27594 7.58172 3.69421 12 3.69421C14.4849 3.69421 16.7051 4.82712 18.1725 6.60459C20.0088 6.01348 21.9671 5.69421 24 5.69421C26.0329 5.69421 27.9912 6.01348 29.8275 6.60459Z" fill="#91BEFF"></path>
<path d="M1.89733 35.4616C1.3262 35.8996 0.876277 36.5055 1.00621 37.2135C1.11025 37.7803 1.39957 38.5522 2.10589 39.4898C2.8122 40.4274 3.47425 40.9185 3.99036 41.1749C4.63498 41.4952 5.34146 41.2299 5.92013 40.8019C9.19694 38.3779 20.8297 29.7672 26.5764 25.4383C32.3231 21.1093 43.8096 12.3045 47.0436 9.8238C47.6148 9.38573 48.0647 8.77988 47.9348 8.07192C47.8307 7.50508 47.5414 6.73322 46.8351 5.79559C46.1288 4.85795 45.4667 4.36686 44.9506 4.11044C44.306 3.79018 43.5995 4.05545 43.0208 4.48351C39.744 6.90744 28.1113 15.5182 22.3646 19.8471C16.6179 24.1761 5.1314 32.9809 1.89733 35.4616Z" fill="#1F78F0"></path>
</g><defs>
<clipPath id="clip0_634:2996">
<rect width="48" height="48" fill="white"></rect>
</clipPath>
</defs></g></svg>