<svg viewBox="0 0 24 24" fill="none" xmlns="http://www.w3.org/2000/svg">


<g transform="matrix(0.5,0,0,0.5,0,0)"><path d="M44 24C44 35.0457 35.0457 44 24 44C12.9543 44 4 35.0457 4 24C4 12.9543 12.9543 4 24 4C35.0457 4 44 12.9543 44 24Z" fill="#91BEFF"></path><path fill-rule="evenodd" clip-rule="evenodd" d="M24 8.5C25.3807 8.5 26.5 9.61929 26.5 11V22.9645L33.7678 30.2322C34.7441 31.2085 34.7441 32.7915 33.7678 33.7678C32.7915 34.7441 31.2085 34.7441 30.2322 33.7678L22.2322 25.7678C21.7634 25.2989 21.5 24.663 21.5 24V11C21.5 9.61929 22.6193 8.5 24 8.5Z" fill="#1F78F0"></path></g></svg>