<svg viewBox="0 0 24 24" fill="none" xmlns="http://www.w3.org/2000/svg">


<g transform="matrix(0.5,0,0,0.5,0,0)"><path fill-rule="evenodd" clip-rule="evenodd" d="M24 13.5C25.3807 13.5 26.5 14.6193 26.5 16V23.9645L31.7678 29.2322C32.7441 30.2085 32.7441 31.7915 31.7678 32.7678C30.7915 33.7441 29.2085 33.7441 28.2322 32.7678L22.2322 26.7678C21.7634 26.2989 21.5 25.663 21.5 25V16C21.5 14.6193 22.6193 13.5 24 13.5Z" fill="#1F78F0"></path><path fill-rule="evenodd" clip-rule="evenodd" d="M6.06044 35.3216C5.77778 34.8728 5.71983 34.316 6.05444 33.9044C6.3763 33.5085 6.93198 32.9855 7.87861 32.4389C8.82523 31.8924 9.55607 31.6727 10.0598 31.5919C10.5836 31.5079 11.0271 31.8412 11.3167 32.2857C15.6826 38.9875 24.5811 41.1752 31.5909 37.128C38.8414 32.942 41.3256 23.6708 37.1395 16.4203C32.9535 9.16986 23.6823 6.68567 16.4318 10.8717C15.3154 11.5163 14.3123 12.2808 13.4291 13.1399C14.5593 13.9089 15.4426 14.5852 16.1265 15.1569C17.4112 16.2307 17.0931 17.9926 15.5727 18.6941C13.7067 19.5551 10.844 20.7107 6.90777 21.8566C5.30008 22.3246 3.63833 21.3346 3.28459 19.6979C2.41848 15.6908 2.07196 12.6232 1.94081 10.5723C1.83396 8.90129 3.23194 7.78283 4.78791 8.40142C5.67369 8.75356 6.77332 9.24928 8.10151 9.94662C9.58279 8.26983 11.3563 6.80039 13.4 5.62047C23.5507 -0.240024 36.5303 3.23785 42.3908 13.3885C48.2513 23.5392 44.7734 36.5188 34.6227 42.3793C24.7126 48.1009 12.106 44.9215 6.06044 35.3216Z" fill="#91BEFF"></path></g></svg>