<svg viewBox="0 0 24 24" fill="none" xmlns="http://www.w3.org/2000/svg">




<g transform="matrix(0.5,0,0,0.5,0,0)"><path fill-rule="evenodd" clip-rule="evenodd" d="M18.2885 4.13464C18.4361 3.76738 18.8091 3.59883 19.2044 3.57947C19.9117 3.54483 21.3408 3.5 24 3.5C26.6592 3.5 28.0883 3.54483 28.7956 3.57947C29.1909 3.59884 29.5639 3.76738 29.7115 4.13464C29.8576 4.49804 30 5.08656 30 6C30 6.91344 29.8576 7.50196 29.7115 7.86536C29.5639 8.23262 29.1909 8.40116 28.7956 8.42053C28.3523 8.44224 27.6255 8.46795 26.49 8.48412C26.4962 9.06085 26.5 9.72868 26.5 10.5C26.5 13.1592 26.4552 14.5883 26.4205 15.2956C26.4012 15.6909 26.2326 16.0639 25.8654 16.2115C25.502 16.3576 24.9134 16.5 24 16.5C23.0866 16.5 22.498 16.3576 22.1346 16.2115C21.7674 16.0639 21.5988 15.6909 21.5795 15.2956C21.5448 14.5883 21.5 13.1592 21.5 10.5C21.5 9.72868 21.5038 9.06085 21.51 8.48412C20.3745 8.46795 19.6477 8.44224 19.2044 8.42053C18.8091 8.40116 18.4361 8.23261 18.2885 7.86536C18.1424 7.50196 18 6.91344 18 6C18 5.08656 18.1424 4.49804 18.2885 4.13464Z" fill="#1F78F0"></path><path d="M41.0788 15.5597C41.4137 15.1747 41.5215 14.664 41.2666 14.2219C40.9704 13.7083 40.4015 12.9162 39.3137 11.8284C38.2258 10.7406 37.4338 10.1717 36.9202 9.87549C36.4781 9.62059 35.9674 9.72835 35.5824 10.0633C35.0074 10.5636 33.9711 11.5142 32.2426 13.2426C30.5141 14.9711 29.5635 16.0074 29.0632 16.5824C28.7283 16.9674 28.6205 17.4782 28.8754 17.9202C29.1716 18.4338 29.7406 19.2259 30.8284 20.3137C31.9162 21.4015 32.7083 21.9705 33.2219 22.2666C33.6639 22.5215 34.1747 22.4138 34.5596 22.0789C35.1347 21.5785 36.171 20.628 37.8994 18.8995C39.6279 17.171 40.5785 16.1347 41.0788 15.5597Z" fill="#1F78F0"></path><circle cx="24" cy="27" r="17" fill="#91BEFF"></circle><path fill-rule="evenodd" clip-rule="evenodd" d="M28.1317 14.8122C28.197 13.856 26.9372 13.5184 26.5157 14.3792C25.2268 17.011 23.5314 20.5395 22.279 23.3891C21.2596 23.8755 20.4515 24.7883 20.1363 25.9647C19.5645 28.0986 20.8308 30.2919 22.9647 30.8637C25.0986 31.4355 27.2919 30.1691 27.8637 28.0353C28.1789 26.8588 27.9354 25.6643 27.2959 24.7334C27.636 21.6393 27.932 17.7358 28.1317 14.8122Z" fill="#1F78F0"></path></g></svg>