<svg viewBox="0 0 24 24" fill="none" xmlns="http://www.w3.org/2000/svg">





<g transform="matrix(0.5,0,0,0.5,0,0)"><path fill-rule="evenodd" clip-rule="evenodd" d="M10.2444 21.7557C10.2444 14.1586 16.403 8 24 8C26.5677 8 28.971 8.7035 31.0278 9.92825C32.0417 10.532 32.4652 11.8404 31.6495 12.6933C31.5294 12.8189 31.3958 12.9414 31.2476 13.0566C30.5314 13.6132 29.5573 13.346 28.759 12.9154C27.3428 12.1514 25.7221 11.7177 24 11.7177C18.4563 11.7177 13.9621 16.2119 13.9621 21.7557V26.2169C13.9621 31.2554 17.6744 35.4269 22.5129 36.1455C23.6283 38.1137 22.5129 39.8931 22.5129 39.8931C15.6153 39.1517 10.2444 33.3115 10.2444 26.2169V21.7557ZM33.3825 13.6047C34.13 13.0888 35.0696 13.538 35.5625 14.3009C36.9502 16.4488 37.7557 19.0082 37.7557 21.7557V26.2169C37.7557 33.3115 32.3848 39.1517 25.4871 39.8931C25.4871 39.8931 24.3718 38.4855 25.4871 36.1455C30.3257 35.4269 34.0379 31.2554 34.0379 26.2169V21.7557C34.0379 20.0005 33.5875 18.3506 32.7959 16.9152C32.3837 16.1677 32.1031 15.2703 32.5338 14.5333C32.7831 14.1067 33.0843 13.8104 33.3825 13.6047ZM24 13.9484C19.6882 13.9484 16.1928 17.4438 16.1928 21.7557C16.1928 22.2237 16.4159 22.6729 16.86 22.8207C17.3883 22.9967 18.2058 23.1181 19.2233 22.7839C19.6562 22.6418 19.9105 22.2113 19.9105 21.7557C19.9105 19.4971 21.7415 17.6661 24 17.6661C26.2586 17.6661 28.0896 19.4971 28.0896 21.7557V26.2169C28.0896 28.4755 26.2586 30.3065 24 30.3065C21.7415 30.3065 19.9105 28.4755 19.9105 26.2169C19.9105 25.7729 19.6272 25.3699 19.1929 25.277C18.2148 25.0678 17.4237 25.1391 16.9 25.2503C16.4543 25.3451 16.1928 25.7612 16.1928 26.2169C16.1928 30.5288 19.6882 34.0242 24 34.0242C28.3119 34.0242 31.8073 30.5288 31.8073 26.2169V21.7557C31.8073 17.4438 28.3119 13.9484 24 13.9484ZM24 19.8968C25.0267 19.8968 25.8589 20.729 25.8589 21.7557V26.2169C25.8589 27.2436 25.0267 28.0758 24 28.0758C22.9734 28.0758 22.1412 27.2436 22.1412 26.2169V21.7557C22.1412 20.729 22.9734 19.8968 24 19.8968Z" fill="#91BEFF"></path><path fill-rule="evenodd" clip-rule="evenodd" d="M2.72369 5.12505C2.84616 3.84904 3.84909 2.84613 5.1251 2.72367C8.8778 2.36352 12.3441 2.66499 13.9923 2.86225C14.6276 2.93829 15.1801 3.34026 15.3195 3.96477C15.4425 4.51548 15.516 5.25245 15.3401 6.04237C15.2011 6.66696 14.6277 7.0662 13.9925 7.14404C12.0362 7.38382 9.76948 7.46208 8.49827 7.48762C7.9461 7.49872 7.49884 7.94598 7.48774 8.49815C7.4622 9.76937 7.38393 12.0361 7.14411 13.9925C7.06625 14.6276 6.66702 15.201 6.04244 15.3401C5.25251 15.5159 4.51552 15.4424 3.9648 15.3195C3.3403 15.18 2.93834 14.6276 2.86229 13.9922C2.66501 12.3441 2.36352 8.87773 2.72369 5.12505Z" fill="#1F78F0"></path><path fill-rule="evenodd" clip-rule="evenodd" d="M45.2763 5.12505C45.1538 3.84904 44.1509 2.84613 42.8749 2.72367C39.1222 2.36352 35.6559 2.66499 34.0077 2.86225C33.3724 2.93829 32.8199 3.34026 32.6805 3.96477C32.5575 4.51548 32.484 5.25245 32.6599 6.04237C32.7989 6.66696 33.3723 7.0662 34.0075 7.14404C35.9638 7.38382 38.2305 7.46208 39.5017 7.48762C40.0539 7.49872 40.5012 7.94598 40.5123 8.49815C40.5378 9.76937 40.6161 12.0361 40.8559 13.9925C40.9337 14.6276 41.333 15.201 41.9576 15.3401C42.7475 15.5159 43.4845 15.4424 44.0352 15.3195C44.6597 15.18 45.0617 14.6276 45.1377 13.9922C45.335 12.3441 45.6365 8.87773 45.2763 5.12505Z" fill="#1F78F0"></path><path fill-rule="evenodd" clip-rule="evenodd" d="M45.2763 42.875C45.1538 44.151 44.1509 45.1539 42.8749 45.2763C39.1222 45.6365 35.6559 45.335 34.0077 45.1377C33.3724 45.0617 32.8199 44.6597 32.6805 44.0352C32.5575 43.4845 32.484 42.7475 32.6599 41.9576C32.7989 41.333 33.3724 40.9338 34.0075 40.856C35.9638 40.6162 38.2305 40.5379 39.5017 40.5124C40.0539 40.5013 40.5012 40.054 40.5123 39.5018C40.5378 38.2306 40.6161 35.9639 40.8559 34.0075C40.9337 33.3724 41.333 32.799 41.9576 32.6599C42.7475 32.4841 43.4845 32.5576 44.0352 32.6805C44.6597 32.82 45.0617 33.3724 45.1377 34.0078C45.335 35.6559 45.6365 39.1223 45.2763 42.875Z" fill="#1F78F0"></path><path fill-rule="evenodd" clip-rule="evenodd" d="M2.72369 42.875C2.84616 44.151 3.84909 45.1539 5.1251 45.2763C8.8778 45.6365 12.3441 45.335 13.9923 45.1377C14.6276 45.0617 15.1801 44.6597 15.3195 44.0352C15.4425 43.4845 15.516 42.7475 15.3401 41.9576C15.2011 41.333 14.6276 40.9338 13.9925 40.856C12.0362 40.6162 9.76948 40.5379 8.49827 40.5124C7.9461 40.5013 7.49884 40.054 7.48774 39.5018C7.4622 38.2306 7.38393 35.9639 7.14411 34.0075C7.06625 33.3724 6.66702 32.799 6.04244 32.6599C5.25251 32.4841 4.51552 32.5576 3.9648 32.6805C3.3403 32.82 2.93834 33.3724 2.86229 34.0078C2.66501 35.6559 2.36352 39.1223 2.72369 42.875Z" fill="#1F78F0"></path></g></svg>