<svg viewBox="0 0 24 24" fill="none" xmlns="http://www.w3.org/2000/svg">





<g transform="matrix(0.5,0,0,0.5,0,0)"><path fill-rule="evenodd" clip-rule="evenodd" d="M2.72369 5.12505C2.84616 3.84904 3.84909 2.84613 5.1251 2.72367C8.8778 2.36352 12.3441 2.66499 13.9923 2.86225C14.6276 2.93829 15.1801 3.34026 15.3195 3.96477C15.4425 4.51548 15.516 5.25245 15.3401 6.04237C15.2011 6.66696 14.6277 7.0662 13.9925 7.14404C12.0362 7.38382 9.76948 7.46208 8.49827 7.48762C7.9461 7.49872 7.49884 7.94598 7.48774 8.49815C7.4622 9.76937 7.38393 12.0361 7.14411 13.9925C7.06625 14.6276 6.66702 15.201 6.04244 15.3401C5.25251 15.5159 4.51552 15.4424 3.9648 15.3195C3.3403 15.18 2.93834 14.6276 2.86229 13.9922C2.66501 12.3441 2.36352 8.87773 2.72369 5.12505Z" fill="#1F78F0"></path><path fill-rule="evenodd" clip-rule="evenodd" d="M45.2763 5.12505C45.1538 3.84904 44.1509 2.84613 42.8749 2.72367C39.1222 2.36352 35.6559 2.66499 34.0077 2.86225C33.3724 2.93829 32.8199 3.34026 32.6805 3.96477C32.5575 4.51548 32.484 5.25245 32.6599 6.04237C32.7989 6.66696 33.3723 7.0662 34.0075 7.14404C35.9638 7.38382 38.2305 7.46208 39.5017 7.48762C40.0539 7.49872 40.5012 7.94598 40.5123 8.49815C40.5378 9.76937 40.6161 12.0361 40.8559 13.9925C40.9337 14.6276 41.333 15.201 41.9576 15.3401C42.7475 15.5159 43.4845 15.4424 44.0352 15.3195C44.6597 15.18 45.0617 14.6276 45.1377 13.9922C45.335 12.3441 45.6365 8.87773 45.2763 5.12505Z" fill="#1F78F0"></path><path fill-rule="evenodd" clip-rule="evenodd" d="M45.2763 42.875C45.1538 44.151 44.1509 45.1539 42.8749 45.2763C39.1222 45.6365 35.6559 45.335 34.0077 45.1377C33.3724 45.0617 32.8199 44.6597 32.6805 44.0352C32.5575 43.4845 32.484 42.7475 32.6599 41.9576C32.7989 41.333 33.3724 40.9338 34.0075 40.856C35.9638 40.6162 38.2305 40.5379 39.5017 40.5124C40.0539 40.5013 40.5012 40.054 40.5123 39.5018C40.5378 38.2306 40.6161 35.9639 40.8559 34.0075C40.9337 33.3724 41.333 32.799 41.9576 32.6599C42.7475 32.4841 43.4845 32.5576 44.0352 32.6805C44.6597 32.82 45.0617 33.3724 45.1377 34.0078C45.335 35.6559 45.6365 39.1223 45.2763 42.875Z" fill="#1F78F0"></path><path fill-rule="evenodd" clip-rule="evenodd" d="M2.72369 42.875C2.84616 44.151 3.84909 45.1539 5.1251 45.2763C8.8778 45.6365 12.3441 45.335 13.9923 45.1377C14.6276 45.0617 15.1801 44.6597 15.3195 44.0352C15.4425 43.4845 15.516 42.7475 15.3401 41.9576C15.2011 41.333 14.6276 40.9338 13.9925 40.856C12.0362 40.6162 9.76948 40.5379 8.49827 40.5124C7.9461 40.5013 7.49884 40.054 7.48774 39.5018C7.4622 38.2306 7.38393 35.9639 7.14411 34.0075C7.06625 33.3724 6.66702 32.799 6.04244 32.6599C5.25251 32.4841 4.51552 32.5576 3.9648 32.6805C3.3403 32.82 2.93834 33.3724 2.86229 34.0078C2.66501 35.6559 2.36352 39.1223 2.72369 42.875Z" fill="#1F78F0"></path><path fill-rule="evenodd" clip-rule="evenodd" d="M13.0004 35.936C13.5317 35.8583 13.8297 35.3996 13.8552 34.8633C13.9144 33.6209 14 30.6713 14 24C14 17.3287 13.9144 14.3791 13.8552 13.1367C13.8297 12.6004 13.5317 12.1417 13.0004 12.064C12.7451 12.0266 12.4169 12 12 12C11.5831 12 11.2549 12.0266 10.9996 12.064C10.4683 12.1417 10.1703 12.6004 10.1448 13.1367C10.0856 14.3791 10 17.3287 10 24C10 30.6713 10.0856 33.6209 10.1448 34.8633C10.1703 35.3996 10.4683 35.8583 10.9996 35.936C11.2549 35.9734 11.5831 36 12 36C12.4169 36 12.7451 35.9734 13.0004 35.936ZM18.8787 29.9642C19.4743 29.91 19.8418 29.4318 19.8733 28.8346C19.9304 27.7544 20 25.5123 20 21C20 16.4877 19.9304 14.2456 19.8733 13.1654C19.8418 12.5682 19.4743 12.09 18.8787 12.0358C18.6431 12.0143 18.3534 12 18 12C17.6466 12 17.3569 12.0143 17.1213 12.0358C16.5257 12.09 16.1582 12.5682 16.1267 13.1654C16.0696 14.2456 16 16.4877 16 21C16 25.5123 16.0696 27.7544 16.1267 28.8346C16.1582 29.4318 16.5257 29.91 17.1213 29.9642C17.3569 29.9857 17.6466 30 18 30C18.3534 30 18.6431 29.9857 18.8787 29.9642ZM25.8733 28.8346C25.8418 29.4318 25.4743 29.91 24.8787 29.9642C24.6431 29.9857 24.3534 30 24 30C23.6466 30 23.3569 29.9857 23.1213 29.9642C22.5257 29.91 22.1582 29.4318 22.1267 28.8346C22.0696 27.7544 22 25.5123 22 21C22 16.4877 22.0696 14.2456 22.1267 13.1654C22.1582 12.5682 22.5257 12.09 23.1213 12.0358C23.3569 12.0143 23.6466 12 24 12C24.3534 12 24.6431 12.0143 24.8787 12.0358C25.4743 12.09 25.8418 12.5682 25.8733 13.1654C25.9304 14.2456 26 16.4877 26 21C26 25.5123 25.9304 27.7544 25.8733 28.8346ZM25.9579 35.1583C25.9123 35.6773 25.5101 35.9771 24.9893 35.9896C24.7355 35.9957 24.4108 36 24 36C23.5892 36 23.2645 35.9957 23.0107 35.9896C22.4899 35.9771 22.0877 35.6773 22.0421 35.1583C22.0175 34.8782 22 34.5024 22 34C22 33.4976 22.0175 33.1218 22.0421 32.8417C22.0877 32.3227 22.4899 32.0229 23.0107 32.0104C23.2645 32.0043 23.5892 32 24 32C24.4108 32 24.7355 32.0043 24.9893 32.0104C25.5101 32.0229 25.9123 32.3227 25.9579 32.8417C25.9825 33.1218 26 33.4976 26 34C26 34.5024 25.9825 34.8782 25.9579 35.1583ZM30.8787 29.9642C31.4743 29.91 31.8418 29.4318 31.8733 28.8346C31.9304 27.7544 32 25.5123 32 21C32 16.4877 31.9304 14.2456 31.8733 13.1654C31.8418 12.5682 31.4743 12.09 30.8787 12.0358C30.6431 12.0143 30.3534 12 30 12C29.6466 12 29.3569 12.0143 29.1213 12.0358C28.5257 12.09 28.1582 12.5682 28.1267 13.1654C28.0696 14.2456 28 16.4877 28 21C28 25.5123 28.0696 27.7544 28.1267 28.8346C28.1582 29.4318 28.5257 29.91 29.1213 29.9642C29.3569 29.9857 29.6466 30 30 30C30.3534 30 30.6431 29.9857 30.8787 29.9642ZM31.9579 35.1583C31.9123 35.6773 31.5101 35.9771 30.9893 35.9896C30.7355 35.9957 30.4108 36 30 36C29.5892 36 29.2645 35.9957 29.0107 35.9896C28.4899 35.9771 28.0877 35.6773 28.0421 35.1583C28.0175 34.8782 28 34.5024 28 34C28 33.4976 28.0175 33.1218 28.0421 32.8417C28.0877 32.3227 28.4899 32.0229 29.0107 32.0104C29.2645 32.0043 29.5892 32 30 32C30.4108 32 30.7355 32.0043 30.9893 32.0104C31.5101 32.0229 31.9123 32.3227 31.9579 32.8417C31.9825 33.1218 32 33.4976 32 34C32 34.5024 31.9825 34.8782 31.9579 35.1583ZM19.9579 35.1583C19.9123 35.6773 19.5101 35.9771 18.9893 35.9896C18.7355 35.9957 18.4108 36 18 36C17.5892 36 17.2645 35.9957 17.0107 35.9896C16.4899 35.9771 16.0877 35.6773 16.0421 35.1583C16.0175 34.8782 16 34.5024 16 34C16 33.4976 16.0175 33.1218 16.0421 32.8417C16.0877 32.3227 16.4899 32.0229 17.0107 32.0104C17.2645 32.0043 17.5892 32 18 32C18.4108 32 18.7355 32.0043 18.9893 32.0104C19.5101 32.0229 19.9123 32.3227 19.9579 32.8417C19.9825 33.1218 20 33.4976 20 34C20 34.5024 19.9825 34.8782 19.9579 35.1583ZM37.8552 34.8633C37.8297 35.3996 37.5317 35.8583 37.0004 35.936C36.7451 35.9734 36.4169 36 36 36C35.5831 36 35.2549 35.9734 34.9996 35.936C34.4683 35.8583 34.1703 35.3996 34.1448 34.8633C34.0856 33.6209 34 30.6713 34 24C34 17.3287 34.0856 14.3791 34.1448 13.1367C34.1703 12.6004 34.4683 12.1417 34.9996 12.064C35.2549 12.0266 35.5831 12 36 12C36.4169 12 36.7451 12.0266 37.0004 12.064C37.5317 12.1417 37.8297 12.6004 37.8552 13.1367C37.9144 14.3791 38 17.3287 38 24C38 30.6713 37.9144 33.6209 37.8552 34.8633Z" fill="#91BEFF"></path></g></svg>