<svg viewBox="0 0 24 24" fill="none" xmlns="http://www.w3.org/2000/svg">












<g transform="matrix(0.5,0,0,0.5,0,0)"><path fill-rule="evenodd" clip-rule="evenodd" d="M2.72369 5.12505C2.84616 3.84904 3.84909 2.84613 5.1251 2.72367C8.8778 2.36352 12.3441 2.66499 13.9923 2.86225C14.6276 2.93829 15.1801 3.34026 15.3195 3.96477C15.4425 4.51548 15.516 5.25245 15.3401 6.04237C15.2011 6.66697 14.6277 7.0662 13.9925 7.14404C12.0362 7.38382 9.76948 7.46208 8.49827 7.48762C7.9461 7.49872 7.49884 7.94598 7.48774 8.49815C7.4622 9.76937 7.38393 12.0361 7.14411 13.9925C7.06625 14.6276 6.66702 15.201 6.04244 15.3401C5.25251 15.5159 4.51552 15.4424 3.9648 15.3195C3.3403 15.18 2.93834 14.6276 2.86229 13.9922C2.66501 12.3441 2.36352 8.87773 2.72369 5.12505Z" fill="#1F78F0"></path><path fill-rule="evenodd" clip-rule="evenodd" d="M45.2763 5.12505C45.1538 3.84904 44.1509 2.84613 42.8749 2.72367C39.1222 2.36352 35.6559 2.66499 34.0077 2.86225C33.3724 2.93829 32.8199 3.34026 32.6805 3.96477C32.5575 4.51548 32.484 5.25245 32.6599 6.04237C32.7989 6.66697 33.3723 7.0662 34.0075 7.14404C35.9638 7.38382 38.2305 7.46208 39.5017 7.48762C40.0539 7.49872 40.5012 7.94598 40.5123 8.49815C40.5378 9.76937 40.6161 12.0361 40.8559 13.9925C40.9337 14.6276 41.333 15.201 41.9576 15.3401C42.7475 15.5159 43.4845 15.4424 44.0352 15.3195C44.6597 15.18 45.0617 14.6276 45.1377 13.9922C45.335 12.3441 45.6365 8.87773 45.2763 5.12505Z" fill="#1F78F0"></path><path fill-rule="evenodd" clip-rule="evenodd" d="M45.2763 42.875C45.1538 44.151 44.1509 45.1539 42.8749 45.2763C39.1222 45.6365 35.6559 45.335 34.0077 45.1377C33.3724 45.0617 32.8199 44.6597 32.6805 44.0352C32.5575 43.4845 32.484 42.7475 32.6599 41.9576C32.7989 41.333 33.3724 40.9338 34.0075 40.856C35.9638 40.6162 38.2305 40.5379 39.5017 40.5124C40.0539 40.5013 40.5012 40.054 40.5123 39.5018C40.5378 38.2306 40.6161 35.9639 40.8559 34.0075C40.9337 33.3724 41.333 32.799 41.9576 32.6599C42.7475 32.4841 43.4845 32.5576 44.0352 32.6805C44.6597 32.82 45.0617 33.3724 45.1377 34.0078C45.335 35.6559 45.6365 39.1223 45.2763 42.875Z" fill="#1F78F0"></path><path fill-rule="evenodd" clip-rule="evenodd" d="M2.72369 42.875C2.84616 44.151 3.84909 45.1539 5.1251 45.2763C8.8778 45.6365 12.3441 45.335 13.9923 45.1377C14.6276 45.0617 15.1801 44.6597 15.3195 44.0352C15.4425 43.4845 15.516 42.7475 15.3401 41.9576C15.2011 41.333 14.6276 40.9338 13.9925 40.856C12.0362 40.6162 9.76948 40.5379 8.49827 40.5124C7.9461 40.5013 7.49884 40.054 7.48774 39.5018C7.4622 38.2306 7.38393 35.9639 7.14411 34.0075C7.06625 33.3724 6.66702 32.799 6.04244 32.6599C5.25251 32.4841 4.51552 32.5576 3.9648 32.6805C3.3403 32.82 2.93834 33.3724 2.86229 34.0078C2.66501 35.6559 2.36352 39.1223 2.72369 42.875Z" fill="#1F78F0"></path><path fill-rule="evenodd" clip-rule="evenodd" d="M2.72369 5.12505C2.84616 3.84904 3.84909 2.84613 5.1251 2.72367C8.8778 2.36352 12.3441 2.66499 13.9923 2.86225C14.6276 2.93829 15.1801 3.34026 15.3195 3.96477C15.4425 4.51548 15.516 5.25245 15.3401 6.04237C15.2011 6.66697 14.6277 7.0662 13.9925 7.14404C12.0362 7.38382 9.76948 7.46208 8.49827 7.48762C7.9461 7.49872 7.49884 7.94598 7.48774 8.49815C7.4622 9.76937 7.38393 12.0361 7.14411 13.9925C7.06625 14.6276 6.66702 15.201 6.04244 15.3401C5.25251 15.5159 4.51552 15.4424 3.9648 15.3195C3.3403 15.18 2.93834 14.6276 2.86229 13.9922C2.66501 12.3441 2.36352 8.87773 2.72369 5.12505Z" fill="#1F78F0"></path><path fill-rule="evenodd" clip-rule="evenodd" d="M45.2763 5.12505C45.1538 3.84904 44.1509 2.84613 42.8749 2.72367C39.1222 2.36352 35.6559 2.66499 34.0077 2.86225C33.3724 2.93829 32.8199 3.34026 32.6805 3.96477C32.5575 4.51548 32.484 5.25245 32.6599 6.04237C32.7989 6.66697 33.3723 7.0662 34.0075 7.14404C35.9638 7.38382 38.2305 7.46208 39.5017 7.48762C40.0539 7.49872 40.5012 7.94598 40.5123 8.49815C40.5378 9.76937 40.6161 12.0361 40.8559 13.9925C40.9337 14.6276 41.333 15.201 41.9576 15.3401C42.7475 15.5159 43.4845 15.4424 44.0352 15.3195C44.6597 15.18 45.0617 14.6276 45.1377 13.9922C45.335 12.3441 45.6365 8.87773 45.2763 5.12505Z" fill="#1F78F0"></path><path fill-rule="evenodd" clip-rule="evenodd" d="M45.2763 42.875C45.1538 44.151 44.1509 45.1539 42.8749 45.2763C39.1222 45.6365 35.6559 45.335 34.0077 45.1377C33.3724 45.0617 32.8199 44.6597 32.6805 44.0352C32.5575 43.4845 32.484 42.7475 32.6599 41.9576C32.7989 41.333 33.3724 40.9338 34.0075 40.856C35.9638 40.6162 38.2305 40.5379 39.5017 40.5124C40.0539 40.5013 40.5012 40.054 40.5123 39.5018C40.5378 38.2306 40.6161 35.9639 40.8559 34.0075C40.9337 33.3724 41.333 32.799 41.9576 32.6599C42.7475 32.4841 43.4845 32.5576 44.0352 32.6805C44.6597 32.82 45.0617 33.3724 45.1377 34.0078C45.335 35.6559 45.6365 39.1223 45.2763 42.875Z" fill="#1F78F0"></path><path fill-rule="evenodd" clip-rule="evenodd" d="M2.72369 42.875C2.84616 44.151 3.84909 45.1539 5.1251 45.2763C8.8778 45.6365 12.3441 45.335 13.9923 45.1377C14.6276 45.0617 15.1801 44.6597 15.3195 44.0352C15.4425 43.4845 15.516 42.7475 15.3401 41.9576C15.2011 41.333 14.6276 40.9338 13.9925 40.856C12.0362 40.6162 9.76948 40.5379 8.49827 40.5124C7.9461 40.5013 7.49884 40.054 7.48774 39.5018C7.4622 38.2306 7.38393 35.9639 7.14411 34.0075C7.06625 33.3724 6.66702 32.799 6.04244 32.6599C5.25251 32.4841 4.51552 32.5576 3.9648 32.6805C3.3403 32.82 2.93834 33.3724 2.86229 34.0078C2.66501 35.6559 2.36352 39.1223 2.72369 42.875Z" fill="#1F78F0"></path><path d="M10.0586 28.3512C10.1323 26.6264 11.2498 25.3072 12.9685 25.1446C13.8569 25.0605 15.0128 25 16.5 25C17.9872 25 19.1431 25.0605 20.0315 25.1446C21.7502 25.3072 22.8677 26.6264 22.9414 28.3512C22.976 29.1609 23 30.1934 23 31.5C23 32.8066 22.976 33.8391 22.9414 34.6488C22.8677 36.3736 21.7502 37.6928 20.0315 37.8554C19.1431 37.9395 17.9872 38 16.5 38C15.0128 38 13.8569 37.9395 12.9685 37.8554C11.2498 37.6928 10.1323 36.3736 10.0586 34.6488C10.024 33.8391 10 32.8066 10 31.5C10 30.1934 10.024 29.1609 10.0586 28.3512Z" fill="#91BEFF"></path><path d="M37.9414 28.3512C37.8677 26.6264 36.7502 25.3072 35.0315 25.1446C34.1431 25.0605 32.9872 25 31.5 25C30.0128 25 28.8569 25.0605 27.9685 25.1446C26.2498 25.3072 25.1323 26.6264 25.0586 28.3512C25.024 29.1609 25 30.1934 25 31.5C25 32.8066 25.024 33.8391 25.0586 34.6488C25.1323 36.3736 26.2498 37.6928 27.9685 37.8554C28.8569 37.9395 30.0128 38 31.5 38C32.9872 38 34.1431 37.9395 35.0315 37.8554C36.7502 37.6928 37.8677 36.3736 37.9414 34.6488C37.976 33.8391 38 32.8066 38 31.5C38 30.1934 37.976 29.1609 37.9414 28.3512Z" fill="#91BEFF"></path><path d="M25.0586 13.3512C25.1323 11.6264 26.2498 10.3072 27.9685 10.1446C28.8569 10.0605 30.0128 10 31.5 10C32.9872 10 34.1431 10.0605 35.0315 10.1446C36.7502 10.3072 37.8677 11.6264 37.9414 13.3512C37.976 14.1609 38 15.1934 38 16.5C38 17.8066 37.976 18.8391 37.9414 19.6488C37.8677 21.3736 36.7502 22.6928 35.0315 22.8554C34.1431 22.9395 32.9872 23 31.5 23C30.0128 23 28.8569 22.9395 27.9685 22.8554C26.2498 22.6928 25.1323 21.3736 25.0586 19.6488C25.024 18.8391 25 17.8066 25 16.5C25 15.1934 25.024 14.1609 25.0586 13.3512Z" fill="#91BEFF"></path><path d="M22.9414 13.3512C22.8677 11.6264 21.7502 10.3072 20.0315 10.1446C19.1431 10.0605 17.9872 10 16.5 10C15.0128 10 13.8569 10.0605 12.9685 10.1446C11.2498 10.3072 10.1323 11.6264 10.0586 13.3512C10.024 14.1609 10 15.1934 10 16.5C10 17.8066 10.024 18.8391 10.0586 19.6488C10.1323 21.3736 11.2498 22.6928 12.9685 22.8554C13.8569 22.9395 15.0128 23 16.5 23C17.9872 23 19.1431 22.9395 20.0315 22.8554C21.7502 22.6928 22.8677 21.3736 22.9414 19.6488C22.976 18.8391 23 17.8066 23 16.5C23 15.1934 22.976 14.1609 22.9414 13.3512Z" fill="#91BEFF"></path></g></svg>