<svg viewBox="0 0 24 24" fill="none" xmlns="http://www.w3.org/2000/svg">






<g transform="matrix(0.5,0,0,0.5,0,0)"><path fill-rule="evenodd" clip-rule="evenodd" d="M2.72369 5.12505C2.84616 3.84904 3.84909 2.84613 5.1251 2.72367C8.8778 2.36352 12.3441 2.66499 13.9923 2.86225C14.6276 2.93829 15.1801 3.34026 15.3195 3.96477C15.4425 4.51548 15.516 5.25245 15.3401 6.04237C15.2011 6.66696 14.6277 7.0662 13.9925 7.14404C12.0362 7.38382 9.76948 7.46208 8.49827 7.48762C7.9461 7.49872 7.49884 7.94598 7.48774 8.49815C7.4622 9.76937 7.38393 12.0361 7.14411 13.9925C7.06625 14.6276 6.66702 15.201 6.04244 15.3401C5.25251 15.5159 4.51552 15.4424 3.9648 15.3195C3.3403 15.18 2.93834 14.6276 2.86229 13.9922C2.66501 12.3441 2.36352 8.87773 2.72369 5.12505Z" fill="#1F78F0"></path><path fill-rule="evenodd" clip-rule="evenodd" d="M45.2763 5.12505C45.1538 3.84904 44.1509 2.84613 42.8749 2.72367C39.1222 2.36352 35.6559 2.66499 34.0077 2.86225C33.3724 2.93829 32.8199 3.34026 32.6805 3.96477C32.5575 4.51548 32.484 5.25245 32.6599 6.04237C32.7989 6.66696 33.3723 7.0662 34.0075 7.14404C35.9638 7.38382 38.2305 7.46208 39.5017 7.48762C40.0539 7.49872 40.5012 7.94598 40.5123 8.49815C40.5378 9.76937 40.6161 12.0361 40.8559 13.9925C40.9337 14.6276 41.333 15.201 41.9576 15.3401C42.7475 15.5159 43.4845 15.4424 44.0352 15.3195C44.6597 15.18 45.0617 14.6276 45.1377 13.9922C45.335 12.3441 45.6365 8.87773 45.2763 5.12505Z" fill="#1F78F0"></path><path fill-rule="evenodd" clip-rule="evenodd" d="M45.2763 42.875C45.1538 44.151 44.1509 45.1539 42.8749 45.2763C39.1222 45.6365 35.6559 45.335 34.0077 45.1377C33.3724 45.0617 32.8199 44.6597 32.6805 44.0352C32.5575 43.4845 32.484 42.7475 32.6599 41.9576C32.7989 41.333 33.3724 40.9338 34.0075 40.856C35.9638 40.6162 38.2305 40.5379 39.5017 40.5124C40.0539 40.5013 40.5012 40.054 40.5123 39.5018C40.5378 38.2306 40.6161 35.9639 40.8559 34.0075C40.9337 33.3724 41.333 32.799 41.9576 32.6599C42.7475 32.4841 43.4845 32.5576 44.0352 32.6805C44.6597 32.82 45.0617 33.3724 45.1377 34.0078C45.335 35.6559 45.6365 39.1223 45.2763 42.875Z" fill="#1F78F0"></path><path fill-rule="evenodd" clip-rule="evenodd" d="M2.72369 42.875C2.84616 44.151 3.84909 45.1539 5.1251 45.2763C8.8778 45.6365 12.3441 45.335 13.9923 45.1377C14.6276 45.0617 15.1801 44.6597 15.3195 44.0352C15.4425 43.4845 15.516 42.7475 15.3401 41.9576C15.2011 41.333 14.6276 40.9338 13.9925 40.856C12.0362 40.6162 9.76948 40.5379 8.49827 40.5124C7.9461 40.5013 7.49884 40.054 7.48774 39.5018C7.4622 38.2306 7.38393 35.9639 7.14411 34.0075C7.06625 33.3724 6.66702 32.799 6.04244 32.6599C5.25251 32.4841 4.51552 32.5576 3.9648 32.6805C3.3403 32.82 2.93834 33.3724 2.86229 34.0078C2.66501 35.6559 2.36352 39.1223 2.72369 42.875Z" fill="#1F78F0"></path><path d="M10 24C10 31.732 16.268 38 24 38C31.732 38 38 31.732 38 24C38 16.268 31.732 10 24 10C16.268 10 10 16.268 10 24Z" fill="#91BEFF"></path><path fill-rule="evenodd" clip-rule="evenodd" d="M20 20.5C20 21.3284 19.3284 22 18.5 22C17.6716 22 17 21.3284 17 20.5C17 19.6716 17.6716 19 18.5 19C19.3284 19 20 19.6716 20 20.5ZM20 26.5C20.8284 26.5 21.5 27.1716 21.5 28C21.5 29.3807 22.6193 30.5 24 30.5C25.3807 30.5 26.5 29.3807 26.5 28C26.5 27.1716 27.1716 26.5 28 26.5C28.8284 26.5 29.5 27.1716 29.5 28C29.5 31.0376 27.0376 33.5 24 33.5C20.9624 33.5 18.5 31.0376 18.5 28C18.5 27.1716 19.1716 26.5 20 26.5ZM29.5 22C28.6716 22 28 21.3284 28 20.5C28 19.6716 28.6716 19 29.5 19C30.3284 19 31 19.6716 31 20.5C31 21.3284 30.3284 22 29.5 22Z" fill="#1F78F0"></path></g></svg>