<svg viewBox="0 0 24 24" fill="none" xmlns="http://www.w3.org/2000/svg">









<g transform="matrix(0.5,0,0,0.5,0,0)"><path fill-rule="evenodd" clip-rule="evenodd" d="M2.72369 5.12505C2.84616 3.84904 3.84909 2.84613 5.1251 2.72367C8.8778 2.36352 12.3441 2.66499 13.9923 2.86225C14.6276 2.93829 15.1801 3.34026 15.3195 3.96477C15.4425 4.51548 15.516 5.25245 15.3401 6.04237C15.2011 6.66696 14.6277 7.0662 13.9925 7.14404C12.0362 7.38382 9.76948 7.46208 8.49827 7.48762C7.9461 7.49872 7.49884 7.94598 7.48774 8.49815C7.4622 9.76937 7.38393 12.0361 7.14411 13.9925C7.06625 14.6276 6.66702 15.201 6.04244 15.3401C5.25251 15.5159 4.51552 15.4424 3.9648 15.3195C3.3403 15.18 2.93834 14.6276 2.86229 13.9922C2.66501 12.3441 2.36352 8.87773 2.72369 5.12505Z" fill="#1F78F0"></path><path fill-rule="evenodd" clip-rule="evenodd" d="M45.2763 5.12505C45.1538 3.84904 44.1509 2.84613 42.8749 2.72367C39.1222 2.36352 35.6559 2.66499 34.0077 2.86225C33.3724 2.93829 32.8199 3.34026 32.6805 3.96477C32.5575 4.51548 32.484 5.25245 32.6599 6.04237C32.7989 6.66696 33.3723 7.0662 34.0075 7.14404C35.9638 7.38382 38.2305 7.46208 39.5017 7.48762C40.0539 7.49872 40.5012 7.94598 40.5123 8.49815C40.5378 9.76937 40.6161 12.0361 40.8559 13.9925C40.9337 14.6276 41.333 15.201 41.9576 15.3401C42.7475 15.5159 43.4845 15.4424 44.0352 15.3195C44.6597 15.18 45.0617 14.6276 45.1377 13.9922C45.335 12.3441 45.6365 8.87773 45.2763 5.12505Z" fill="#1F78F0"></path><path fill-rule="evenodd" clip-rule="evenodd" d="M45.2763 42.875C45.1538 44.151 44.1509 45.1539 42.8749 45.2763C39.1222 45.6365 35.6559 45.335 34.0077 45.1377C33.3724 45.0617 32.8199 44.6597 32.6805 44.0352C32.5575 43.4845 32.484 42.7475 32.6599 41.9576C32.7989 41.333 33.3724 40.9338 34.0075 40.856C35.9638 40.6162 38.2305 40.5379 39.5017 40.5124C40.0539 40.5013 40.5012 40.054 40.5123 39.5018C40.5378 38.2306 40.6161 35.9639 40.8559 34.0075C40.9337 33.3724 41.333 32.799 41.9576 32.6599C42.7475 32.4841 43.4845 32.5576 44.0352 32.6805C44.6597 32.82 45.0617 33.3724 45.1377 34.0078C45.335 35.6559 45.6365 39.1223 45.2763 42.875Z" fill="#1F78F0"></path><path fill-rule="evenodd" clip-rule="evenodd" d="M2.72369 42.875C2.84616 44.151 3.84909 45.1539 5.1251 45.2763C8.8778 45.6365 12.3441 45.335 13.9923 45.1377C14.6276 45.0617 15.1801 44.6597 15.3195 44.0352C15.4425 43.4845 15.516 42.7475 15.3401 41.9576C15.2011 41.333 14.6276 40.9338 13.9925 40.856C12.0362 40.6162 9.76948 40.5379 8.49827 40.5124C7.9461 40.5013 7.49884 40.054 7.48774 39.5018C7.4622 38.2306 7.38393 35.9639 7.14411 34.0075C7.06625 33.3724 6.66702 32.799 6.04244 32.6599C5.25251 32.4841 4.51552 32.5576 3.9648 32.6805C3.3403 32.82 2.93834 33.3724 2.86229 34.0078C2.66501 35.6559 2.36352 39.1223 2.72369 42.875Z" fill="#1F78F0"></path><path d="M25.8012 37.8856C26.3858 37.7965 26.7429 37.3127 26.7799 36.7225C26.8687 35.302 27 31.8716 27 24C27 16.1284 26.8687 12.698 26.7799 11.2775C26.7429 10.6873 26.3858 10.2035 25.8012 10.1144C25.3865 10.0512 24.8029 10 24 10C23.1971 10 22.6135 10.0512 22.1988 10.1144C21.6142 10.2035 21.2571 10.6873 21.2201 11.2775C21.1313 12.698 21 16.1284 21 24C21 31.8716 21.1313 35.302 21.2201 36.7225C21.2571 37.3127 21.6142 37.7965 22.1988 37.8856C22.6135 37.9488 23.1971 38 24 38C24.8029 38 25.3865 37.9488 25.8012 37.8856Z" fill="#91BEFF"></path><path d="M34.6846 32.9373C35.3287 32.8809 35.7672 32.3989 35.8162 31.7543C35.9006 30.6448 36 28.4033 36 24C36 19.5967 35.9006 17.3552 35.8162 16.2457C35.7672 15.6011 35.3287 15.1191 34.6846 15.0627C34.2793 15.0272 33.7304 15 33 15C32.2696 15 31.7207 15.0272 31.3154 15.0627C30.6713 15.1191 30.2328 15.6011 30.1838 16.2457C30.0994 17.3552 30 19.5968 30 24C30 28.4033 30.0994 30.6448 30.1838 31.7543C30.2328 32.3989 30.6713 32.8809 31.3154 32.9373C31.7207 32.9728 32.2696 33 33 33C33.7304 33 34.2793 32.9728 34.6846 32.9373Z" fill="#91BEFF"></path><path d="M13.3154 32.9373C12.6713 32.8809 12.2328 32.3989 12.1838 31.7543C12.0994 30.6448 12 28.4033 12 24C12 19.5967 12.0994 17.3552 12.1838 16.2457C12.2328 15.6011 12.6713 15.1191 13.3154 15.0627C13.7207 15.0272 14.2696 15 15 15C15.7304 15 16.2793 15.0272 16.6846 15.0627C17.3287 15.1191 17.7672 15.6011 17.8162 16.2457C17.9006 17.3552 18 19.5968 18 24C18 28.4033 17.9006 30.6448 17.8162 31.7543C17.7672 32.3989 17.3287 32.8809 16.6846 32.9373C16.2793 32.9728 15.7304 33 15 33C14.2696 33 13.7207 32.9728 13.3154 32.9373Z" fill="#91BEFF"></path><path d="M43.7793 27.9683C44.3648 27.9433 44.8132 27.579 44.8782 26.9966C44.9427 26.4182 45 25.4861 45 24C45 22.5139 44.9427 21.5818 44.8782 21.0034C44.8132 20.421 44.3648 20.0567 43.7793 20.0317C43.3661 20.0141 42.7889 20 42 20C41.2111 20 40.6339 20.0141 40.2207 20.0317C39.6352 20.0567 39.1868 20.421 39.1218 21.0034C39.0573 21.5818 39 22.5139 39 24C39 25.4861 39.0573 26.4182 39.1218 26.9966C39.1868 27.579 39.6352 27.9433 40.2207 27.9683C40.6339 27.9859 41.2111 28 42 28C42.7889 28 43.3661 27.9859 43.7793 27.9683Z" fill="#91BEFF"></path><path d="M4.22068 27.9683C3.63523 27.9433 3.18681 27.579 3.12184 26.9966C3.05732 26.4182 3 25.4861 3 24C3 22.5139 3.05732 21.5818 3.12184 21.0034C3.18681 20.421 3.63523 20.0567 4.22068 20.0317C4.63392 20.0141 5.21112 20 6 20C6.78888 20 7.36608 20.0141 7.77932 20.0317C8.36478 20.0567 8.81319 20.421 8.87816 21.0034C8.94268 21.5818 9 22.5139 9 24C9 25.4861 8.94268 26.4182 8.87816 26.9966C8.81319 27.579 8.36478 27.9433 7.77932 27.9683C7.36608 27.9859 6.78888 28 6 28C5.21112 28 4.63392 27.9859 4.22068 27.9683Z" fill="#91BEFF"></path></g></svg>