<svg viewBox="0 0 24 24" fill="none" xmlns="http://www.w3.org/2000/svg">









<g transform="matrix(0.5,0,0,0.5,0,0)"><path fill-rule="evenodd" clip-rule="evenodd" d="M2.72369 5.12505C2.84616 3.84904 3.84909 2.84613 5.1251 2.72367C8.8778 2.36352 12.3441 2.66499 13.9923 2.86225C14.6276 2.93829 15.1801 3.34026 15.3195 3.96477C15.4425 4.51548 15.516 5.25245 15.3401 6.04237C15.2011 6.66696 14.6277 7.0662 13.9925 7.14404C12.0362 7.38382 9.76948 7.46208 8.49827 7.48762C7.9461 7.49872 7.49884 7.94598 7.48774 8.49815C7.4622 9.76937 7.38393 12.0361 7.14411 13.9925C7.06625 14.6276 6.66702 15.201 6.04244 15.3401C5.25251 15.5159 4.51552 15.4424 3.9648 15.3195C3.3403 15.18 2.93834 14.6276 2.86229 13.9922C2.66501 12.3441 2.36352 8.87773 2.72369 5.12505Z" fill="#1F78F0"></path><path fill-rule="evenodd" clip-rule="evenodd" d="M45.2763 5.12505C45.1538 3.84904 44.1509 2.84613 42.8749 2.72367C39.1222 2.36352 35.6559 2.66499 34.0077 2.86225C33.3724 2.93829 32.8199 3.34026 32.6805 3.96477C32.5575 4.51548 32.484 5.25245 32.6599 6.04237C32.7989 6.66696 33.3723 7.0662 34.0075 7.14404C35.9638 7.38382 38.2305 7.46208 39.5017 7.48762C40.0539 7.49872 40.5012 7.94598 40.5123 8.49815C40.5378 9.76937 40.6161 12.0361 40.8559 13.9925C40.9337 14.6276 41.333 15.201 41.9576 15.3401C42.7475 15.5159 43.4845 15.4424 44.0352 15.3195C44.6597 15.18 45.0617 14.6276 45.1377 13.9922C45.335 12.3441 45.6365 8.87773 45.2763 5.12505Z" fill="#1F78F0"></path><path fill-rule="evenodd" clip-rule="evenodd" d="M45.2763 42.875C45.1538 44.151 44.1509 45.1539 42.8749 45.2763C39.1222 45.6365 35.6559 45.335 34.0077 45.1377C33.3724 45.0617 32.8199 44.6597 32.6805 44.0352C32.5575 43.4845 32.484 42.7475 32.6599 41.9576C32.7989 41.333 33.3724 40.9338 34.0075 40.856C35.9638 40.6162 38.2305 40.5379 39.5017 40.5124C40.0539 40.5013 40.5012 40.054 40.5123 39.5018C40.5378 38.2306 40.6161 35.9639 40.8559 34.0075C40.9337 33.3724 41.333 32.799 41.9576 32.6599C42.7475 32.4841 43.4845 32.5576 44.0352 32.6805C44.6597 32.82 45.0617 33.3724 45.1377 34.0078C45.335 35.6559 45.6365 39.1223 45.2763 42.875Z" fill="#1F78F0"></path><path fill-rule="evenodd" clip-rule="evenodd" d="M2.72369 42.875C2.84616 44.151 3.84909 45.1539 5.1251 45.2763C8.8778 45.6365 12.3441 45.335 13.9923 45.1377C14.6276 45.0617 15.1801 44.6597 15.3195 44.0352C15.4425 43.4845 15.516 42.7475 15.3401 41.9576C15.2011 41.333 14.6276 40.9338 13.9925 40.856C12.0362 40.6162 9.76948 40.5379 8.49827 40.5124C7.9461 40.5013 7.49884 40.054 7.48774 39.5018C7.4622 38.2306 7.38393 35.9639 7.14411 34.0075C7.06625 33.3724 6.66702 32.799 6.04244 32.6599C5.25251 32.4841 4.51552 32.5576 3.9648 32.6805C3.3403 32.82 2.93834 33.3724 2.86229 34.0078C2.66501 35.6559 2.36352 39.1223 2.72369 42.875Z" fill="#1F78F0"></path><path fill-rule="evenodd" clip-rule="evenodd" d="M2.72369 5.12505C2.84616 3.84904 3.84909 2.84613 5.1251 2.72367C8.8778 2.36352 12.3441 2.66499 13.9923 2.86225C14.6276 2.93829 15.1801 3.34026 15.3195 3.96477C15.4425 4.51548 15.516 5.25245 15.3401 6.04237C15.2011 6.66696 14.6277 7.0662 13.9925 7.14404C12.0362 7.38382 9.76948 7.46208 8.49827 7.48762C7.9461 7.49872 7.49884 7.94598 7.48774 8.49815C7.4622 9.76937 7.38393 12.0361 7.14411 13.9925C7.06625 14.6276 6.66702 15.201 6.04244 15.3401C5.25251 15.5159 4.51552 15.4424 3.9648 15.3195C3.3403 15.18 2.93834 14.6276 2.86229 13.9922C2.66501 12.3441 2.36352 8.87773 2.72369 5.12505Z" fill="#1F78F0"></path><path fill-rule="evenodd" clip-rule="evenodd" d="M45.2763 5.12505C45.1538 3.84904 44.1509 2.84613 42.8749 2.72367C39.1222 2.36352 35.6559 2.66499 34.0077 2.86225C33.3724 2.93829 32.8199 3.34026 32.6805 3.96477C32.5575 4.51548 32.484 5.25245 32.6599 6.04237C32.7989 6.66696 33.3723 7.0662 34.0075 7.14404C35.9638 7.38382 38.2305 7.46208 39.5017 7.48762C40.0539 7.49872 40.5012 7.94598 40.5123 8.49815C40.5378 9.76937 40.6161 12.0361 40.8559 13.9925C40.9337 14.6276 41.333 15.201 41.9576 15.3401C42.7475 15.5159 43.4845 15.4424 44.0352 15.3195C44.6597 15.18 45.0617 14.6276 45.1377 13.9922C45.335 12.3441 45.6365 8.87773 45.2763 5.12505Z" fill="#1F78F0"></path><path fill-rule="evenodd" clip-rule="evenodd" d="M45.2763 42.875C45.1538 44.151 44.1509 45.1539 42.8749 45.2763C39.1222 45.6365 35.6559 45.335 34.0077 45.1377C33.3724 45.0617 32.8199 44.6597 32.6805 44.0352C32.5575 43.4845 32.484 42.7475 32.6599 41.9576C32.7989 41.333 33.3724 40.9338 34.0075 40.856C35.9638 40.6162 38.2305 40.5379 39.5017 40.5124C40.0539 40.5013 40.5012 40.054 40.5123 39.5018C40.5378 38.2306 40.6161 35.9639 40.8559 34.0075C40.9337 33.3724 41.333 32.799 41.9576 32.6599C42.7475 32.4841 43.4845 32.5576 44.0352 32.6805C44.6597 32.82 45.0617 33.3724 45.1377 34.0078C45.335 35.6559 45.6365 39.1223 45.2763 42.875Z" fill="#1F78F0"></path><path fill-rule="evenodd" clip-rule="evenodd" d="M2.72369 42.875C2.84616 44.151 3.84909 45.1539 5.1251 45.2763C8.8778 45.6365 12.3441 45.335 13.9923 45.1377C14.6276 45.0617 15.1801 44.6597 15.3195 44.0352C15.4425 43.4845 15.516 42.7475 15.3401 41.9576C15.2011 41.333 14.6276 40.9338 13.9925 40.856C12.0362 40.6162 9.76948 40.5379 8.49827 40.5124C7.9461 40.5013 7.49884 40.054 7.48774 39.5018C7.4622 38.2306 7.38393 35.9639 7.14411 34.0075C7.06625 33.3724 6.66702 32.799 6.04244 32.6599C5.25251 32.4841 4.51552 32.5576 3.9648 32.6805C3.3403 32.82 2.93834 33.3724 2.86229 34.0078C2.66501 35.6559 2.36352 39.1223 2.72369 42.875Z" fill="#1F78F0"></path><path fill-rule="evenodd" clip-rule="evenodd" d="M12.9685 10.1446C11.2498 10.3072 10.1323 11.6264 10.0586 13.3512C10.024 14.1609 10 15.1934 10 16.5C10 17.8066 10.024 18.8391 10.0586 19.6488C10.1323 21.3736 11.2498 22.6928 12.9685 22.8554C13.8569 22.9395 15.0128 23 16.5 23C17.9872 23 19.1431 22.9395 20.0315 22.8554C21.7502 22.6928 22.8677 21.3736 22.9414 19.6488C22.976 18.8391 23 17.8066 23 16.5C23 15.1934 22.976 14.1609 22.9414 13.3512C22.8677 11.6264 21.7502 10.3072 20.0315 10.1446C19.1431 10.0605 17.9872 10 16.5 10C15.0128 10 13.8569 10.0605 12.9685 10.1446ZM15.0034 14.0698C14.4314 14.133 14.0582 14.5747 14.029 15.1494C14.0123 15.4791 14 15.9191 14 16.5C14 17.0809 14.0123 17.5209 14.029 17.8506C14.0582 18.4253 14.4314 18.867 15.0034 18.9302C15.3607 18.9697 15.8474 19 16.5 19C17.1526 19 17.6393 18.9697 17.9966 18.9302C18.5686 18.867 18.9418 18.4253 18.971 17.8506C18.9877 17.5209 19 17.0809 19 16.5C19 15.9191 18.9877 15.4791 18.971 15.1494C18.9418 14.5747 18.5686 14.133 17.9966 14.0698C17.6393 14.0303 17.1526 14 16.5 14C15.8474 14 15.3607 14.0303 15.0034 14.0698ZM26.0621 27.2478C26.1019 26.6737 26.4764 26.2273 27.0458 26.1436C27.5616 26.0677 28.3454 26 29.5 26C30.6546 26 31.4384 26.0677 31.9542 26.1436C32.5236 26.2273 32.8981 26.6737 32.9379 27.2478C32.9714 27.7322 33 28.4525 33 29.5C33 30.1262 32.9898 30.6355 32.9744 31.0473C33.3908 31.0186 33.8944 31 34.5 31C35.6546 31 36.4384 31.0677 36.9542 31.1436C37.5236 31.2273 37.8981 31.6737 37.9379 32.2478C37.9714 32.7322 38 33.4525 38 34.5C38 35.5475 37.9714 36.2678 37.9379 36.7522C37.8981 37.3263 37.5236 37.7727 36.9542 37.8564C36.4384 37.9323 35.6546 38 34.5 38C33.3454 38 32.5616 37.9323 32.0458 37.8564C31.4764 37.7727 31.1019 37.3263 31.0621 36.7522C31.0286 36.2678 31 35.5475 31 34.5C31 33.8738 31.0102 33.3645 31.0256 32.9527C30.6092 32.9814 30.1056 33 29.5 33C28.3454 33 27.5616 32.9323 27.0458 32.8564C26.4764 32.7727 26.1019 32.3263 26.0621 31.7522C26.0286 31.2678 26 30.5475 26 29.5C26 28.4525 26.0286 27.7322 26.0621 27.2478ZM35.0046 27.0519C35.0174 26.4766 35.3883 26.0437 35.9629 26.0132C36.1167 26.005 36.2947 26 36.5 26C36.7053 26 36.8833 26.005 37.0371 26.0132C37.6117 26.0437 37.9826 26.4766 37.9954 27.0519C37.9983 27.1829 38 27.3316 38 27.5C38 27.6684 37.9983 27.8171 37.9954 27.9481C37.9826 28.5234 37.6117 28.9563 37.0371 28.9868C36.8833 28.995 36.7053 29 36.5 29C36.2947 29 36.1167 28.995 35.9629 28.9868C35.3883 28.9563 35.0174 28.5234 35.0046 27.9481C35.0017 27.8171 35 27.6684 35 27.5C35 27.3316 35.0017 27.1829 35.0046 27.0519ZM26.9629 35.0132C26.3883 35.0437 26.0174 35.4766 26.0046 36.0519C26.0017 36.1829 26 36.3316 26 36.5C26 36.6684 26.0017 36.8171 26.0046 36.9481C26.0174 37.5234 26.3883 37.9563 26.9629 37.9868C27.1167 37.995 27.2947 38 27.5 38C27.7053 38 27.8833 37.995 28.0371 37.9868C28.6117 37.9563 28.9826 37.5234 28.9954 36.9481C28.9983 36.8171 29 36.6684 29 36.5C29 36.3316 28.9983 36.1829 28.9954 36.0519C28.9826 35.4766 28.6117 35.0437 28.0371 35.0132C27.8833 35.005 27.7053 35 27.5 35C27.2947 35 27.1167 35.005 26.9629 35.0132ZM10.0586 28.3512C10.1323 26.6264 11.2498 25.3072 12.9685 25.1446C13.8569 25.0605 15.0128 25 16.5 25C17.9872 25 19.1431 25.0605 20.0315 25.1446C21.7502 25.3072 22.8677 26.6264 22.9414 28.3512C22.976 29.1609 23 30.1934 23 31.5C23 32.8066 22.976 33.8391 22.9414 34.6488C22.8677 36.3736 21.7502 37.6928 20.0315 37.8554C19.1431 37.9395 17.9872 38 16.5 38C15.0128 38 13.8569 37.9395 12.9685 37.8554C11.2498 37.6928 10.1323 36.3736 10.0586 34.6488C10.024 33.8391 10 32.8066 10 31.5C10 30.1934 10.024 29.1609 10.0586 28.3512ZM27.9685 10.1446C26.2498 10.3072 25.1323 11.6264 25.0586 13.3512C25.024 14.1609 25 15.1934 25 16.5C25 17.8066 25.024 18.8391 25.0586 19.6488C25.1323 21.3736 26.2498 22.6928 27.9685 22.8554C28.8569 22.9395 30.0128 23 31.5 23C32.9872 23 34.1431 22.9395 35.0315 22.8554C36.7502 22.6928 37.8677 21.3736 37.9414 19.6488C37.976 18.8391 38 17.8066 38 16.5C38 15.1934 37.976 14.1609 37.9414 13.3512C37.8677 11.6264 36.7502 10.3072 35.0315 10.1446C34.1431 10.0605 32.9872 10 31.5 10C30.0128 10 28.8569 10.0605 27.9685 10.1446Z" fill="#91BEFF"></path></g></svg>