<svg viewBox="0 0 24 24" fill="none" xmlns="http://www.w3.org/2000/svg">



<g transform="matrix(0.5,0,0,0.5,0,0)"><path d="M22.4553 19.4042C23.4681 19.1045 24.5319 19.1045 25.5447 19.4042C27.5418 19.9952 31.3249 21.3285 36 24C39.5625 26.0357 42.0889 27.8124 43.7112 29.0664C45.022 30.0798 45.022 31.9202 43.7112 32.9336C42.0889 34.1876 39.5625 35.9643 36 38C31.3249 40.6715 27.5418 42.0048 25.5447 42.5958C24.5319 42.8955 23.4681 42.8955 22.4553 42.5958C20.4582 42.0048 16.6752 40.6715 12 38C8.43755 35.9643 5.9111 34.1876 4.28885 32.9336C2.978 31.9202 2.978 30.0798 4.28884 29.0664C5.9111 27.8124 8.43755 26.0357 12 24C16.6751 21.3285 20.4582 19.9952 22.4553 19.4042Z" fill="#91BEFF"></path><path d="M22.4553 12.4042C23.4681 12.1045 24.5319 12.1045 25.5447 12.4042C27.5418 12.9952 31.3249 14.3285 36 17C39.5625 19.0357 42.0889 20.8124 43.7112 22.0664C45.022 23.0798 45.022 24.9202 43.7112 25.9336C42.0889 27.1876 39.5625 28.9643 36 31C31.3249 33.6715 27.5418 35.0048 25.5447 35.5958C24.5319 35.8955 23.4681 35.8955 22.4553 35.5958C20.4582 35.0048 16.6752 33.6715 12 31C8.43755 28.9643 5.9111 27.1876 4.28885 25.9336C2.978 24.9202 2.978 23.0798 4.28884 22.0664C5.9111 20.8124 8.43755 19.0357 12 17C16.6751 14.3285 20.4582 12.9952 22.4553 12.4042Z" fill="#1F78F0"></path><path d="M22.4553 5.40418C23.4681 5.10449 24.5319 5.10449 25.5447 5.40418C27.5418 5.99516 31.3249 7.32849 36 10C39.5625 12.0357 42.0889 13.8124 43.7112 15.0664C45.022 16.0798 45.022 17.9202 43.7112 18.9336C42.0889 20.1876 39.5625 21.9643 36 24C31.3249 26.6715 27.5418 28.0048 25.5447 28.5958C24.5319 28.8955 23.4681 28.8955 22.4553 28.5958C20.4582 28.0048 16.6752 26.6715 12 24C8.43755 21.9643 5.9111 20.1876 4.28885 18.9336C2.978 17.9202 2.978 16.0798 4.28884 15.0664C5.9111 13.8124 8.43755 12.0357 12 10C16.6751 7.32849 20.4582 5.99516 22.4553 5.40418Z" fill="#91BEFF"></path></g></svg>