<svg viewBox="0 0 24 24" fill="none" xmlns="http://www.w3.org/2000/svg">


<g transform="matrix(0.5,0,0,0.5,0,0)"><path d="M4.38753 11.1919C4.56821 9.40944 5.79277 8.05252 7.56249 7.77317C9.923 7.40056 14.0718 7 21 7C27.9282 7 32.077 7.40056 34.4375 7.77317C36.2072 8.05251 37.4318 9.40944 37.6125 11.1919C37.8089 13.1303 38 16.2391 38 21C38 25.7609 37.8089 28.8697 37.6125 30.8081C37.4318 32.5906 36.2072 33.9475 34.4375 34.2268C32.077 34.5994 27.9282 35 21 35C14.0718 35 9.92301 34.5994 7.56249 34.2268C5.79278 33.9475 4.56821 32.5906 4.38753 30.8081C4.19105 28.8697 4 25.7609 4 21C4 16.2391 4.19105 13.1303 4.38753 11.1919Z" fill="#1F78F0"></path><path d="M43.5691 15.2898C43.3833 13.5103 42.1664 12.1476 40.4011 11.8565C37.9335 11.4496 33.5082 11 26 11C18.4918 11 14.0665 11.4496 11.5989 11.8565C9.83361 12.1476 8.61668 13.5103 8.43093 15.2898C8.21586 17.3502 8 20.7307 8 26C8 31.2693 8.21586 34.6498 8.43093 36.7102C8.61668 38.4897 9.83361 39.8524 11.5989 40.1435C14.0665 40.5504 18.4918 41 26 41C33.5082 41 37.9335 40.5504 40.4011 40.1435C42.1664 39.8524 43.3833 38.4897 43.5691 36.7102C43.7841 34.6498 44 31.2693 44 26C44 20.7307 43.7841 17.3502 43.5691 15.2898Z" fill="#91BEFF"></path></g></svg>