<svg viewBox="0 0 24 24" fill="none" xmlns="http://www.w3.org/2000/svg">




<g transform="matrix(0.5,0,0,0.5,0,0)"><path d="M24.8832 43.8272C23.5809 43.7625 22.5202 42.8194 22.3591 41.5255C22.1811 40.0962 22 38.0221 22 35.5C22 32.9779 22.1811 30.9038 22.3591 29.4745C22.5202 28.1806 23.5809 27.2375 24.8832 27.1728C26.5644 27.0893 29.2414 27 33 27C36.7586 27 39.4356 27.0893 41.1168 27.1728C42.4191 27.2375 43.4798 28.1806 43.6409 29.4745C43.8189 30.9038 44 32.9779 44 35.5C44 38.0221 43.8189 40.0962 43.6409 41.5255C43.4798 42.8194 42.4191 43.7625 41.1168 43.8272C39.4356 43.9107 36.7586 44 33 44C29.2414 44 26.5644 43.9107 24.8832 43.8272Z" fill="#91BEFF"></path><path d="M4.19528 29.3439C4.26562 28.2974 4.93779 27.4388 5.97576 27.2877C7.00457 27.1379 8.60261 27 11 27C13.3974 27 14.9954 27.1379 16.0242 27.2877C17.0622 27.4388 17.7344 28.2974 17.8047 29.3439C17.8964 30.708 18 32.8382 18 35.5C18 38.1618 17.8964 40.292 17.8047 41.6561C17.7344 42.7026 17.0622 43.5612 16.0242 43.7123C14.9954 43.8621 13.3974 44 11 44C8.60261 44 7.00457 43.8621 5.97575 43.7123C4.93779 43.5612 4.26562 42.7026 4.19528 41.6561C4.10359 40.292 4 38.1618 4 35.5C4 32.8382 4.10359 30.708 4.19528 29.3439Z" fill="#91BEFF"></path><path d="M23.1168 6.17283C24.4191 6.23751 25.4798 7.18057 25.6409 8.47447C25.8189 9.90378 26 11.9779 26 14.5C26 17.0221 25.8189 19.0962 25.6409 20.5255C25.4798 21.8194 24.4191 22.7625 23.1168 22.8272C21.4356 22.9107 18.7586 23 15 23C11.2414 23 8.56437 22.9107 6.88317 22.8272C5.58088 22.7625 4.52021 21.8194 4.35909 20.5255C4.18112 19.0962 4 17.0221 4 14.5C4 11.9779 4.18111 9.90378 4.35909 8.47447C4.52021 7.18057 5.58088 6.23751 6.88317 6.17283C8.56437 6.08934 11.2414 6 15 6C18.7586 6 21.4356 6.08934 23.1168 6.17283Z" fill="#91BEFF"></path><path d="M43.8047 20.6561C43.7344 21.7026 43.0622 22.5612 42.0242 22.7123C40.9954 22.8621 39.3974 23 37 23C34.6026 23 33.0046 22.8621 31.9758 22.7123C30.9378 22.5612 30.2656 21.7026 30.1953 20.6561C30.1036 19.292 30 17.1618 30 14.5C30 11.8382 30.1036 9.70802 30.1953 8.34395C30.2656 7.2974 30.9378 6.43881 31.9758 6.28767C33.0046 6.13786 34.6026 6 37 6C39.3974 6 40.9954 6.13786 42.0242 6.28767C43.0622 6.43881 43.7344 7.2974 43.8047 8.34395C43.8964 9.70802 44 11.8382 44 14.5C44 17.1618 43.8964 19.292 43.8047 20.6561Z" fill="#91BEFF"></path></g></svg>