<svg viewBox="0 0 24 24" fill="none" xmlns="http://www.w3.org/2000/svg">


<g transform="matrix(0.5,0,0,0.5,0,0)"><path d="M4.47884 34.5155C4.64705 36.2337 5.77606 37.5893 7.46811 37.9319C9.92989 38.4303 14.405 39 22 39C29.595 39 34.0701 38.4303 36.5319 37.9319C38.2239 37.5893 39.353 36.2337 39.5212 34.5155C39.7508 32.1696 40 28.0093 40 21C40 13.9907 39.7508 9.83037 39.5212 7.4845C39.353 5.76634 38.2239 4.41069 36.5319 4.06812C34.0701 3.56972 29.595 3 22 3C14.405 3 9.92989 3.56972 7.46811 4.06812C5.77606 4.41068 4.64705 5.76633 4.47885 7.4845C4.24919 9.83036 4 13.9907 4 21C4 28.0093 4.24918 32.1696 4.47884 34.5155Z" fill="#1F78F0"></path><path d="M9.47884 39.5155C9.64705 41.2337 10.7761 42.5893 12.4681 42.9319C14.9299 43.4303 19.405 44 27 44C34.595 44 39.0701 43.4303 41.5319 42.9319C43.2239 42.5893 44.353 41.2337 44.5212 39.5155C44.7508 37.1696 45 33.0093 45 26C45 18.9907 44.7508 14.8304 44.5212 12.4845C44.353 10.7663 43.2239 9.41069 41.5319 9.06812C39.0701 8.56972 34.595 8 27 8C19.405 8 14.9299 8.56972 12.4681 9.06812C10.7761 9.41068 9.64705 10.7663 9.47885 12.4845C9.24919 14.8304 9 18.9907 9 26C9 33.0093 9.24918 37.1696 9.47884 39.5155Z" fill="#91BEFF"></path></g></svg>