<svg viewBox="0 0 24 24" fill="none" xmlns="http://www.w3.org/2000/svg">


<g transform="matrix(0.5,0,0,0.5,0,0)"><path d="M43.6125 36.8081C43.4318 38.5906 42.2072 39.9475 40.4375 40.2268C38.077 40.5994 33.9282 41 27 41C20.0718 41 15.923 40.5994 13.5625 40.2268C11.7928 39.9475 10.5682 38.5906 10.3875 36.8081C10.1911 34.8697 10 31.7609 10 27C10 22.2391 10.1911 19.1303 10.3875 17.1919C10.5682 15.4094 11.7928 14.0525 13.5625 13.7732C15.923 13.4006 20.0718 13 27 13C33.9282 13 38.077 13.4006 40.4375 13.7732C42.2072 14.0525 43.4318 15.4094 43.6125 17.1919C43.8089 19.1303 44 22.2391 44 27C44 31.7609 43.8089 34.8697 43.6125 36.8081Z" fill="#1F78F0"></path><path d="M4.43093 32.7102C4.61668 34.4897 5.83361 35.8524 7.5989 36.1435C10.0665 36.5504 14.4918 37 22 37C29.5082 37 33.9335 36.5504 36.4011 36.1435C38.1664 35.8524 39.3833 34.4897 39.5691 32.7102C39.7841 30.6498 40 27.2693 40 22C40 16.7307 39.7841 13.3502 39.5691 11.2898C39.3833 9.51034 38.1664 8.14759 36.4011 7.85649C33.9335 7.44959 29.5082 7 22 7C14.4918 7 10.0665 7.44959 7.59891 7.85649C5.83361 8.14759 4.61668 9.51034 4.43093 11.2898C4.21586 13.3502 4 16.7307 4 22C4 27.2693 4.21586 30.6498 4.43093 32.7102Z" fill="#91BEFF"></path></g></svg>