<svg viewBox="0 0 24 24" fill="none" xmlns="http://www.w3.org/2000/svg">



<g transform="matrix(0.5,0,0,0.5,0,0)"><path d="M14 5.71429C14 4.76751 14.7675 4 15.7143 4H32.2857C33.2325 4 34 4.76751 34 5.71429V6C34 11.5228 29.5228 16 24 16V16C18.4772 16 14 11.5228 14 6V5.71429Z" fill="#91BEFF"></path><path d="M42 32C42 40.8366 33.9411 44 24 44C14.0589 44 6 40.8366 6 32C6 23.1634 14.0589 12 24 12C33.9411 12 42 23.1634 42 32Z" fill="#91BEFF"></path><path d="M23.7447 33.0314C24.6481 33.0314 25.3005 32.8641 25.702 32.5295C26.1202 32.1949 26.3294 31.785 26.3294 31.2999C26.3294 30.8649 26.1704 30.5136 25.8526 30.2459C25.5347 29.9783 25.0579 29.744 24.4222 29.5433L23.042 29.0916C22.3561 28.8741 21.7371 28.6399 21.1851 28.389C20.633 28.138 20.1646 27.8369 19.7798 27.4856C19.395 27.1343 19.0939 26.716 18.8764 26.2309C18.6589 25.7457 18.5502 25.1685 18.5502 24.4994C18.5502 23.3618 18.9015 22.4166 19.6041 21.6637C20.3068 20.9109 21.3105 20.409 22.6154 20.1581V19.542C22.6154 18.739 23.1645 18.0085 23.9674 18.0003C23.9852 18.0001 24.003 18 24.0207 18C24.6397 18 25.083 18.1087 25.3507 18.3262C25.6351 18.5437 25.7773 18.9368 25.7773 19.5056V20.0577C26.848 20.1748 27.7179 20.4341 28.3871 20.8356C29.0563 21.2204 29.3908 21.7307 29.3908 22.3664C29.3908 22.5462 29.3633 22.7175 29.3129 22.8795C29.059 23.6956 27.9853 23.6581 27.1709 23.3991C27.0853 23.3719 26.9972 23.3455 26.9065 23.3199C26.2708 23.1192 25.5765 23.0188 24.8237 23.0188C23.9872 23.0188 23.3599 23.161 22.9417 23.4454C22.5402 23.7131 22.3394 24.0644 22.3394 24.4994C22.3394 24.8507 22.4732 25.1351 22.7409 25.3526C23.0253 25.5701 23.4519 25.7708 24.0207 25.9548L25.426 26.3814C26.9316 26.8499 28.0859 27.4688 28.889 28.2384C29.7087 29.0079 30.1186 30.0452 30.1186 31.3501C30.1186 32.5044 29.7505 33.4831 29.0144 34.2861C28.2783 35.0724 27.1993 35.5993 25.7773 35.867V36.458C25.7773 37.261 25.2283 37.9916 24.4253 37.9997C24.4075 37.9999 24.3897 38 24.372 38C23.753 38 23.3013 37.8913 23.0169 37.6738C22.7493 37.4563 22.6154 37.0632 22.6154 36.4944V35.9925C21.3942 35.8586 20.3988 35.5659 19.6292 35.1142C18.8764 34.6458 18.5 34.0602 18.5 33.3576C18.5 33.0544 18.5785 32.7807 18.7125 32.5376C19.114 31.8092 20.1204 31.9731 20.8596 32.3545C21.0259 32.4403 21.2013 32.5238 21.3858 32.6048C22.0717 32.8892 22.858 33.0314 23.7447 33.0314Z" fill="#1F78F0"></path></g></svg>