<svg viewBox="0 0 24 24" fill="none" xmlns="http://www.w3.org/2000/svg">



<g transform="matrix(0.5,0,0,0.5,0,0)"><path d="M14 5.71429C14 4.76751 14.7675 4 15.7143 4H32.2857C33.2325 4 34 4.76751 34 5.71429V6C34 11.5228 29.5228 16 24 16V16C18.4772 16 14 11.5228 14 6V5.71429Z" fill="#91BEFF"></path><path d="M42 32C42 40.8366 33.9411 44 24 44C14.0589 44 6 40.8366 6 32C6 23.1634 14.0589 12 24 12C33.9411 12 42 23.1634 42 32Z" fill="#91BEFF"></path><path fill-rule="evenodd" clip-rule="evenodd" d="M20 20.2516V18.896C20 18.4513 20.2937 18.0455 20.737 18.0105C20.8253 18.0036 20.9132 18 21 18C21.4405 18 21.756 18.0901 21.9464 18.2702C22.1488 18.4503 22.25 18.7759 22.25 19.247V20.0429C22.5265 20.0324 22.8073 20.0271 23.0922 20.0271C23.3174 20.0271 23.5367 20.0316 23.75 20.0407V18.896C23.75 18.4513 24.0437 18.0455 24.487 18.0105C24.5753 18.0036 24.6632 18 24.75 18C25.1905 18 25.506 18.0901 25.6964 18.2702C25.8988 18.4503 26 18.7759 26 19.247V20.3591C26.616 20.5245 27.1511 20.7517 27.6053 21.0407C28.6672 21.7004 29.1981 22.7301 29.1981 24.1299C29.1981 24.8539 29.005 25.4814 28.6189 26.0123C28.2488 26.5432 27.6857 26.9696 26.9295 27.2914C27.8627 27.5971 28.5626 28.0556 29.0292 28.667C29.4958 29.2784 29.7291 30.0024 29.7291 30.8391C29.7291 32.3675 29.174 33.5018 28.0638 34.2419C27.5031 34.6157 26.8152 34.8952 26 35.0802V37.1243C26 37.5299 25.7545 37.9057 25.3539 37.9689C25.2283 37.9888 25.1065 38 25 38C24.5595 38 24.2381 37.873 24.0357 37.6189C23.8452 37.3649 23.75 36.9057 23.75 36.2413V35.3445C23.5824 35.3496 23.4114 35.3521 23.237 35.3521C22.9321 35.3521 22.603 35.3441 22.25 35.3281V37.1243C22.25 37.5299 22.0045 37.9057 21.6039 37.9689C21.4783 37.9888 21.3565 38 21.25 38C20.8095 38 20.4881 37.873 20.2857 37.6189C20.0952 37.3649 20 36.9057 20 36.2413V35.0344C19.7017 34.9752 19.4211 34.9041 19.1584 34.8212C18.3861 34.5637 18 34.0891 18 33.3973V21.5958C18 21.2901 18.0804 21.0568 18.2413 20.8959C18.4022 20.735 18.6275 20.6063 18.9171 20.5098C19.2461 20.4033 19.607 20.3173 20 20.2516ZM25.8435 29.198C26.3101 29.568 26.5434 30.0748 26.5434 30.7184C26.5434 31.4746 26.2618 32.0297 25.6987 32.3836C25.1517 32.7215 24.3874 32.8904 23.406 32.8904C22.9877 32.8904 22.5613 32.8744 22.1269 32.8422C21.7086 32.81 21.3466 32.7537 21.0409 32.6732V28.6429H23.8645C24.7333 28.6429 25.393 28.8279 25.8435 29.198ZM23.4784 26.3502H21.0409V22.6094C21.2983 22.5612 21.604 22.5209 21.958 22.4888C22.328 22.4566 22.7141 22.4405 23.1164 22.4405C25.0793 22.4405 26.0607 23.076 26.0607 24.3471C26.0607 24.9745 25.8435 25.4653 25.4091 25.8192C24.9908 26.1732 24.3472 26.3502 23.4784 26.3502Z" fill="#1F78F0"></path></g></svg>