<svg viewBox="0 0 24 24" fill="none" xmlns="http://www.w3.org/2000/svg">



<g transform="matrix(0.5,0,0,0.5,0,0)"><path d="M14 5.71429C14 4.76751 14.7675 4 15.7143 4H32.2857C33.2325 4 34 4.76751 34 5.71429V6C34 11.5228 29.5228 16 24 16V16C18.4772 16 14 11.5228 14 6V5.71429Z" fill="#91BEFF"></path><path d="M42 32C42 40.8366 33.9411 44 24 44C14.0589 44 6 40.8366 6 32C6 23.1634 14.0589 12 24 12C33.9411 12 42 23.1634 42 32Z" fill="#91BEFF"></path><path fill-rule="evenodd" clip-rule="evenodd" d="M24.019 20L30.4264 20C30.8443 20 31.2581 20.2072 31.3491 20.6151C31.3802 20.7546 31.3965 20.8956 31.3965 21.0289C31.3965 21.4471 31.3045 21.7399 31.1205 21.9072C30.9364 22.0744 30.7106 22.1581 30.4429 22.1581H27.9843C28.3404 22.7504 28.5657 23.4446 28.6603 24.2409H30.3228C30.7963 24.2409 31.2659 24.5002 31.361 24.964C31.3835 25.0739 31.3965 25.1847 31.3965 25.2949C31.3965 25.6796 31.3045 25.964 31.1205 26.1481C30.9364 26.3154 30.7106 26.399 30.4429 26.399H28.7114C28.7114 27.9548 28.2932 29.1844 27.4567 30.0878C26.6202 30.9745 25.4743 31.4596 24.0188 31.5433L28.1042 35.1367C28.5523 35.5309 28.8642 36.1328 28.6108 36.6731C28.5438 36.8158 28.4603 36.9461 28.3601 37.064C28.0924 37.3986 27.7077 37.5659 27.2058 37.5659C26.8879 37.5659 26.5951 37.4739 26.3275 37.2898C26.0598 37.1058 25.767 36.8465 25.4492 36.5119L20.606 31.5182C20.5224 31.2673 20.4806 31.0414 20.4806 30.8407C20.4806 30.3555 20.6813 29.9791 21.0828 29.7114H22.4379C23.4918 29.7114 24.2865 29.4354 24.8218 28.8833C25.3739 28.3312 25.6499 27.5031 25.6499 26.399H20.026C19.5619 26.399 19.0876 26.2024 19.0237 25.7428C19.0058 25.6143 19 25.4862 19 25.3701C19 24.9686 19.0836 24.6842 19.2509 24.5169C19.435 24.3329 19.6608 24.2409 19.9285 24.2409H25.5783C25.4636 23.5765 25.2115 23.0495 24.8219 22.66C24.6226 22.4544 24.3873 22.2871 24.1161 22.1581H20.1208C19.6014 22.1581 19.071 21.919 19.015 21.4027C19.0042 21.3028 19 21.2024 19 21.1041C19 20.7194 19.0836 20.4433 19.2509 20.276C19.435 20.092 19.6608 20 19.9285 20H24.0189L24.0189 20C24.0189 20 24.019 20 24.019 20Z" fill="#1F78F0"></path></g></svg>