<svg viewBox="0 0 24 24" fill="none" xmlns="http://www.w3.org/2000/svg">



<g transform="matrix(0.5,0,0,0.5,0,0)"><path d="M14 5.71429C14 4.76751 14.7675 4 15.7143 4H32.2857C33.2325 4 34 4.76751 34 5.71429V6C34 11.5228 29.5228 16 24 16V16C18.4772 16 14 11.5228 14 6V5.71429Z" fill="#91BEFF"></path><path d="M42 32C42 40.8366 33.9411 44 24 44C14.0589 44 6 40.8366 6 32C6 23.1634 14.0589 12 24 12C33.9411 12 42 23.1634 42 32Z" fill="#91BEFF"></path><path fill-rule="evenodd" clip-rule="evenodd" d="M21.8507 33.7729C21.1146 33.3212 20.5542 32.6604 20.1694 31.7905H25.8657C26.1167 31.7905 26.3174 31.7068 26.468 31.5395C26.6353 31.3722 26.7189 31.1213 26.7189 30.7867C26.7189 30.7376 26.7167 30.6884 26.7124 30.6393C26.6626 30.0733 26.084 29.7578 25.5159 29.7578H19.6986C19.6729 29.5296 19.6597 29.2968 19.6597 29.0605C19.6597 28.8206 19.6734 28.5843 19.6998 28.3526H25.8657C26.1167 28.3526 26.3174 28.2773 26.468 28.1267C26.6353 27.9594 26.7189 27.7001 26.7189 27.3488C26.7189 27.3002 26.7166 27.2511 26.712 27.2017C26.6601 26.636 26.084 26.3199 25.5159 26.3199H20.1694C20.5542 25.4166 21.1146 24.739 21.8507 24.2873C22.5868 23.8356 23.4316 23.6098 24.3852 23.6098C25.1882 23.6098 25.8574 23.7269 26.3927 23.9611C26.5235 24.0142 26.6512 24.0693 26.776 24.1264C27.4589 24.4391 28.382 24.5244 28.6545 23.8245C28.7169 23.6641 28.7516 23.4914 28.7516 23.3087C28.7516 22.9908 28.6345 22.698 28.4003 22.4304C28.1828 22.146 27.8649 21.9034 27.4467 21.7026C27.0452 21.4852 26.5433 21.3179 25.941 21.2008C25.3555 21.0669 24.7031 21 23.9837 21C22.294 21 20.8135 21.4517 19.542 22.3551C18.2706 23.2585 17.3923 24.5801 16.9072 26.3199H15.8532C15.619 26.3199 15.4182 26.3952 15.2509 26.5458C15.0836 26.6964 15 26.964 15 27.3488C15 27.4417 15.0046 27.5301 15.0137 27.6138C15.0693 28.1216 15.5951 28.3526 16.106 28.3526H16.719V29.7578H15.8532C15.619 29.7578 15.4182 29.8331 15.2509 29.9837C15.0836 30.1343 15 30.4019 15 30.7867C15 30.8653 15.0035 30.941 15.0106 31.0138C15.0623 31.5429 15.6106 31.7905 16.1422 31.7905H16.8821C17.0995 32.6604 17.4341 33.4216 17.8858 34.074C18.3542 34.7265 18.9063 35.2785 19.542 35.7302C20.1777 36.1652 20.8887 36.4914 21.675 36.7089C22.478 36.9264 23.3312 37.0351 24.2346 37.0351C25.138 37.0351 25.8825 36.9515 26.468 36.7842C27.0703 36.6169 27.5387 36.4329 27.8733 36.2321C28.5257 35.8641 28.8519 35.3873 28.8519 34.8018C28.8519 34.6489 28.8298 34.503 28.7888 34.3651C28.5637 33.6091 27.5795 33.6663 26.8572 33.9832C26.7468 34.0317 26.6338 34.0787 26.5182 34.1242C25.9829 34.325 25.322 34.4253 24.5358 34.4253C23.4818 34.4253 22.5868 34.2079 21.8507 33.7729Z" fill="#1F78F0"></path></g></svg>