<svg viewBox="0 0 24 24" fill="none" xmlns="http://www.w3.org/2000/svg">



<g transform="matrix(0.5,0,0,0.5,0,0)"><path d="M14 5.71429C14 4.76751 14.7675 4 15.7143 4H32.2857C33.2325 4 34 4.76751 34 5.71429V6C34 11.5228 29.5228 16 24 16V16C18.4772 16 14 11.5228 14 6V5.71429Z" fill="#91BEFF"></path><path d="M42 32C42 40.8366 33.9411 44 24 44C14.0589 44 6 40.8366 6 32C6 23.1634 14.0589 12 24 12C33.9411 12 42 23.1634 42 32Z" fill="#91BEFF"></path><path d="M20.1704 30.0125C20.1704 29.9122 20.162 29.8118 20.1453 29.7114C20.1453 29.5943 20.1453 29.4688 20.1453 29.335H19.1666C18.8487 29.335 18.5894 29.243 18.3887 29.059C18.1879 28.8582 18.0875 28.5236 18.0875 28.0552C18.0875 27.9423 18.0968 27.8321 18.114 27.724C18.203 27.1629 18.7727 26.8507 19.3408 26.8507H19.8943C19.8609 26.5663 19.8358 26.2903 19.819 26.0226C19.8023 25.7382 19.7939 25.4789 19.7939 25.2447C19.7939 24.3246 19.9361 23.5383 20.2205 22.8858C20.5049 22.2166 20.8897 21.6729 21.3749 21.2547C21.8768 20.8197 22.4539 20.5019 23.1064 20.3011C23.7755 20.1004 24.4865 20 25.2394 20C26.3435 20 27.1716 20.184 27.7237 20.5521C28.2925 20.9034 28.5769 21.3551 28.5769 21.9072C28.5769 22.0342 28.5617 22.1671 28.5315 22.2987C28.3759 22.9761 27.5638 22.9513 26.8956 22.7604V22.7604C26.561 22.6432 26.1511 22.5847 25.666 22.5847C24.7626 22.5847 24.0767 22.8105 23.6083 23.2622C23.1566 23.7139 22.9307 24.4417 22.9307 25.4454C22.9307 25.6462 22.9307 25.8637 22.9307 26.0979C22.9474 26.3321 22.9642 26.583 22.9809 26.8507H26.094C26.6622 26.8507 27.2247 27.1649 27.3185 27.7252C27.337 27.8358 27.3473 27.9464 27.3473 28.0552C27.3473 28.5236 27.2469 28.8582 27.0461 29.059C26.8454 29.243 26.5777 29.335 26.2431 29.335H23.2318C23.2486 29.4688 23.2569 29.6027 23.2569 29.7365C23.2569 29.8536 23.2569 29.9624 23.2569 30.0627C23.2569 31.3844 22.9056 32.4049 22.203 33.1242H27.5974C28.2329 33.1242 28.8565 33.4725 28.9163 34.1052C28.9242 34.1893 28.9282 34.2725 28.9282 34.3538C28.9282 34.7888 28.8278 35.115 28.6271 35.3325C28.4263 35.5333 28.1586 35.6336 27.8241 35.6336H19.4175C19.0328 35.6336 18.6982 35.4998 18.4138 35.2321C18.2741 35.0838 18.1714 34.9 18.1032 34.7006C17.8926 34.0849 18.4161 33.5515 18.9317 33.1545C19.2204 32.9323 19.4576 32.6796 19.6434 32.3965C19.9947 31.8611 20.1704 31.0665 20.1704 30.0125Z" fill="#1F78F0"></path></g></svg>