<svg viewBox="0 0 24 24" fill="none" xmlns="http://www.w3.org/2000/svg">



<g transform="matrix(0.5,0,0,0.5,0,0)"><path d="M14 5.71429C14 4.76751 14.7675 4 15.7143 4H32.2857C33.2325 4 34 4.76751 34 5.71429V6C34 11.5228 29.5228 16 24 16V16C18.4772 16 14 11.5228 14 6V5.71429Z" fill="#91BEFF"></path><path d="M42 32C42 40.8366 33.9411 44 24 44C14.0589 44 6 40.8366 6 32C6 23.1634 14.0589 12 24 12C33.9411 12 42 23.1634 42 32Z" fill="#91BEFF"></path><path fill-rule="evenodd" clip-rule="evenodd" d="M18.2211 29.9051C18.2748 30.434 18.8195 30.6826 19.3511 30.6826H22.325L22.5125 31.107V31.8912V32.1631H19.0872C18.8362 32.1631 18.6271 32.2384 18.4598 32.389C18.2925 32.5395 18.2089 32.8156 18.2089 33.2171C18.2089 33.3135 18.2135 33.4055 18.2226 33.4928C18.2781 34.0215 18.8195 34.271 19.3511 34.271H22.5V36.0527C22.5 36.588 22.6338 36.9728 22.9015 37.207C23.1691 37.4412 23.6125 37.5583 24.2315 37.5583C24.2753 37.5583 24.3191 37.5577 24.3629 37.5565C25.1656 37.5342 25.712 36.7942 25.712 35.9912V34.271H29.0746C29.3256 34.271 29.5347 34.1874 29.702 34.0201C29.886 33.8528 29.978 33.5851 29.978 33.2171C29.978 33.1604 29.975 33.1032 29.9694 33.0456C29.9138 32.4802 29.3431 32.1631 28.7749 32.1631H25.7166V31.8912V31.107L25.917 30.6826H29.0746C29.3423 30.6826 29.5598 30.5989 29.7271 30.4316C29.9111 30.2643 30.0031 30.005 30.0031 29.6537C30.0031 29.6049 30.0009 29.5559 29.9966 29.5069C29.9455 28.9163 29.345 28.5747 28.7523 28.5747H27.3682C28.2883 27.069 28.9826 25.8896 29.451 25.0364C29.9195 24.1665 30.1537 23.5893 30.1537 23.3049C30.1537 22.9034 30.0198 22.5855 29.7522 22.3513C29.4845 22.1171 29.1332 22 28.6982 22C28.6486 22 28.5993 22.0009 28.5505 22.0028C27.6708 22.0365 27.0335 22.7551 26.65 23.5475L26.4397 23.9824C26.2055 24.4676 25.9797 24.9444 25.7622 25.4128C25.5447 25.8645 25.3105 26.3245 25.0596 26.793C24.8254 27.2447 24.5577 27.7549 24.2566 28.3237H24.106L21.3456 23.4304C21.0445 22.895 20.7601 22.527 20.4924 22.3262C20.2248 22.1087 19.8484 22 19.3632 22C19.0754 22 18.8054 22.0633 18.5599 22.1776C17.923 22.4741 17.8735 23.3002 18.1909 23.9269C18.447 24.4326 18.7457 24.9781 19.0872 25.5634C19.6727 26.5671 20.2833 27.5709 20.919 28.5747H19.0872C18.8362 28.5747 18.6271 28.6583 18.4598 28.8256C18.2925 28.9929 18.2089 29.2689 18.2089 29.6537C18.2089 29.7412 18.2129 29.825 18.2211 29.9051Z" fill="#1F78F0"></path></g></svg>