<svg viewBox="0 0 24 24" fill="none" xmlns="http://www.w3.org/2000/svg">



<g transform="matrix(0.5,0,0,0.5,0,0)"><path d="M14 5.71429C14 4.76751 14.7675 4 15.7143 4H32.2857C33.2325 4 34 4.76751 34 5.71429V6C34 11.5228 29.5228 16 24 16V16C18.4772 16 14 11.5228 14 6V5.71429Z" fill="#91BEFF"></path><path d="M42 32C42 40.8366 33.9411 44 24 44C14.0589 44 6 40.8366 6 32C6 23.1634 14.0589 12 24 12C33.9411 12 42 23.1634 42 32Z" fill="#91BEFF"></path><path fill-rule="evenodd" clip-rule="evenodd" d="M25.2751 18.5892C24.5576 17.8833 23.4366 17.8834 22.7191 18.5893C21.0725 20.2094 18.1846 23.2837 16.1875 26.7011C15.7126 27.5138 15.7126 28.5156 16.1875 29.3283C18.1846 32.7457 21.0725 35.82 22.7191 37.4402C23.4366 38.1461 24.5576 38.1461 25.2751 37.4402C26.9219 35.82 29.8101 32.7456 31.807 29.3281C32.2817 28.5155 32.2817 27.5139 31.807 26.7014C29.8101 23.2838 26.9219 20.2094 25.2751 18.5892ZM20.3257 30.4363C22.1126 32.7309 23.9971 34.1061 23.9971 34.1061C23.9971 34.1061 25.8825 32.7308 27.6695 30.436C26.0855 31.0984 24.4536 31.7308 23.9973 31.7308C23.5411 31.7308 21.9095 31.0985 20.3257 30.4363ZM28.8403 27.2802C26.8282 23.9885 23.9971 21.9234 23.9971 21.9234C23.9971 21.9234 21.1671 23.9885 19.1546 27.2802C20.8123 27.9523 23.3648 28.9437 23.9977 28.9437C24.6306 28.9437 27.1828 27.9523 28.8403 27.2802Z" fill="#1F78F0"></path></g></svg>