<svg viewBox="0 0 24 24" fill="none" xmlns="http://www.w3.org/2000/svg">



<g transform="matrix(0.5,0,0,0.5,0,0)"><path d="M28 33H20L18.4144 38.5494C18.1691 39.408 17.3844 40 16.4914 40H14.9694C13.812 40 12.8031 40.7877 12.5223 41.9106V41.9106C12.257 42.9719 13.0597 44 14.1537 44H33.8463C34.9403 44 35.743 42.9719 35.4776 41.9106V41.9106C35.1969 40.7877 34.188 40 33.0306 40H31.5086C30.6156 40 29.8309 39.408 29.5856 38.5494L28 33Z" fill="#1F78F0"></path><path d="M4.48948 8.34785C4.68869 6.58848 5.92095 5.2718 7.66737 4.98005C10.3608 4.5301 15.3661 4 24 4C32.6339 4 37.6392 4.5301 40.3326 4.98005C42.079 5.2718 43.3113 6.58848 43.5105 8.34785C43.753 10.489 44 14.1147 44 20C44 25.8853 43.753 29.511 43.5105 31.6521C43.3113 33.4115 42.0791 34.7282 40.3326 35.02C37.6392 35.4699 32.6339 36 24 36C15.3661 36 10.3608 35.4699 7.66737 35.02C5.92095 34.7282 4.68869 33.4115 4.48948 31.6521C4.24704 29.511 4 25.8853 4 20C4 14.1147 4.24704 10.489 4.48948 8.34785Z" fill="#1F78F0"></path><path d="M43.806 28C43.7201 29.5323 43.615 30.7283 43.5107 31.6496C43.3116 33.409 42.079 34.7282 40.3326 35.02C37.6392 35.4699 32.6339 36 23.9999 36C15.366 36 10.3607 35.4699 7.66731 35.02C5.92089 34.7282 4.68824 33.409 4.48913 31.6496C4.38486 30.7283 4.27976 29.5323 4.19385 28H43.806Z" fill="#91BEFF"></path></g></svg>