<svg viewBox="0 0 24 24" fill="none" xmlns="http://www.w3.org/2000/svg">






<g transform="matrix(0.5,0,0,0.5,0,0)"><path d="M7.60445 20.4037C6.42403 20.1541 5.35439 19.5065 4.90478 18.3869C4.45319 17.2624 4 15.5088 4 13C4 11.8315 4.09831 10.8268 4.24898 9.97323C4.73941 7.1949 7.21342 5.52331 9.98358 4.98866C12.2215 4.55672 15.2216 4.12761 18.6451 4.02371C19.6643 3.99278 20.6497 4.3477 21.0234 5.29642C21.4974 6.49989 22 8.77266 22 13C22 17.2273 21.4974 19.5001 21.0234 20.7036C20.6497 21.6523 19.6653 22.0095 18.6467 21.9622C14.5798 21.7733 10.0502 20.9209 7.60445 20.4037Z" fill="#91BEFF"></path><path fill-rule="evenodd" clip-rule="evenodd" d="M15.5144 21.7078C15.317 20.3412 15.0769 17.7109 15.0769 13C15.0769 8.19332 15.3268 5.55266 15.5263 4.2104C16.5161 4.12231 17.5593 4.05665 18.6451 4.0237C19.6643 3.99277 20.6496 4.34769 21.0233 5.2964C21.4973 6.49988 21.9999 8.77264 21.9999 13C21.9999 17.2273 21.4973 19.5001 21.0233 20.7036C20.6496 21.6523 19.6652 22.0095 18.6466 21.9622C17.6184 21.9144 16.5606 21.8242 15.5144 21.7078Z" fill="#1F78F0"></path><path d="M4 13H12V40C12 41.1046 11.1046 42 10 42H7.79008C6.77099 42 5.916 41.2364 5.8109 40.2227C5.31231 35.4139 3.99997 21.9104 4 13Z" fill="#91BEFF"></path><path d="M40.3955 20.4037C41.576 20.1541 42.6456 19.5065 43.0952 18.3869C43.5468 17.2624 44 15.5088 44 13C44 11.8315 43.9017 10.8268 43.751 9.97323C43.2606 7.1949 40.7866 5.52331 38.0164 4.98866C35.7785 4.55672 32.7784 4.12761 29.3549 4.02371C28.3357 3.99278 27.3503 4.3477 26.9766 5.29642C26.5026 6.49989 26 8.77266 26 13C26 17.2273 26.5026 19.5001 26.9766 20.7036C27.3503 21.6523 28.3347 22.0095 29.3533 21.9622C33.4202 21.7733 37.9498 20.9209 40.3955 20.4037Z" fill="#91BEFF"></path><path fill-rule="evenodd" clip-rule="evenodd" d="M32.4856 21.7078C32.683 20.3412 32.9231 17.7109 32.9231 13C32.9231 8.19332 32.6732 5.55266 32.4737 4.2104C31.4839 4.12231 30.4407 4.05665 29.3549 4.0237C28.3357 3.99277 27.3504 4.34769 26.9767 5.2964C26.5027 6.49988 26.0001 8.77264 26.0001 13C26.0001 17.2273 26.5027 19.5001 26.9767 20.7036C27.3504 21.6523 28.3348 22.0095 29.3534 21.9622C30.3816 21.9144 31.4394 21.8242 32.4856 21.7078Z" fill="#1F78F0"></path><path d="M44 13H36V40C36 41.1046 36.8954 42 38 42H40.2099C41.229 42 42.084 41.2364 42.1891 40.2227C42.6877 35.4139 44 21.9104 44 13Z" fill="#91BEFF"></path></g></svg>