<svg viewBox="0 0 24 24" fill="none" xmlns="http://www.w3.org/2000/svg">





<g transform="matrix(0.5,0,0,0.5,0,0)"><path fill-rule="evenodd" clip-rule="evenodd" d="M23.2205 10C17.7197 10 13.0646 14.0634 12.3213 19.5138L10.9725 29.4053C10.7486 31.047 9.23631 32.1964 7.59465 31.9725C5.95299 31.7486 4.80364 30.2363 5.0275 28.5947L6.37635 18.7031C7.52498 10.2798 14.7193 4 23.2205 4H24.7795C33.2807 4 40.475 10.2798 41.6236 18.7031L42.9725 28.5947C43.1963 30.2363 42.047 31.7486 40.4053 31.9725C38.7637 32.1964 37.2514 31.047 37.0275 29.4053L35.6786 19.5138C34.9354 14.0634 30.2803 10 24.7795 10H23.2205Z" fill="#1F78F0"></path><path d="M7.35689 40.4039C6.06719 40.1521 4.9899 39.2761 4.67973 37.9992C4.34513 36.6216 4 34.5763 4 32.0001C4 29.4238 4.34513 27.3785 4.67973 26.001C4.9899 24.7241 6.0672 23.848 7.35689 23.5962C8.78075 23.3182 10.8194 22.9231 13.0699 22.4956C14.6608 22.1935 16.1663 22.9611 16.4608 24.5534C16.7449 26.0902 17 28.4565 17 32.0001C17 35.5436 16.7449 37.91 16.4608 39.4468C16.1663 41.0391 14.6608 41.8066 13.0699 41.5045C10.8194 41.0771 8.78074 40.6819 7.35689 40.4039Z" fill="#91BEFF"></path><path fill-rule="evenodd" clip-rule="evenodd" d="M13 41.4912V22.5089C13.0233 22.5045 13.0466 22.5 13.0699 22.4956C14.6608 22.1935 16.1663 22.961 16.4608 24.5534C16.7449 26.0901 17 28.4565 17 32C17 35.5436 16.7449 37.91 16.4608 39.4467C16.1663 41.0391 14.6608 41.8066 13.0699 41.5045C13.0466 41.5 13.0233 41.4956 13 41.4912Z" fill="#1F78F0"></path><path d="M40.6431 40.4039C41.9328 40.1521 43.0101 39.2761 43.3203 37.9992C43.6549 36.6216 44 34.5763 44 32.0001C44 29.4238 43.6549 27.3785 43.3203 26.001C43.0101 24.7241 41.9328 23.848 40.6431 23.5962C39.2193 23.3182 37.1806 22.9231 34.9301 22.4956C33.3392 22.1935 31.8337 22.9611 31.5392 24.5534C31.2551 26.0902 31 28.4565 31 32.0001C31 35.5436 31.2551 37.91 31.5392 39.4468C31.8337 41.0391 33.3392 41.8066 34.9301 41.5045C37.1806 41.0771 39.2193 40.6819 40.6431 40.4039Z" fill="#91BEFF"></path><path fill-rule="evenodd" clip-rule="evenodd" d="M35 41.4912V22.5089C34.9767 22.5045 34.9534 22.5 34.9301 22.4956C33.3392 22.1935 31.8337 22.961 31.5392 24.5534C31.2551 26.0901 31 28.4565 31 32C31 35.5436 31.2551 37.91 31.5392 39.4467C31.8337 41.0391 33.3392 41.8066 34.9301 41.5045C34.9534 41.5 34.9767 41.4956 35 41.4912Z" fill="#1F78F0"></path></g></svg>