<svg viewBox="0 0 24 24" fill="none" xmlns="http://www.w3.org/2000/svg">






<g transform="matrix(0.5,0,0,0.5,0,0)"><path fill-rule="evenodd" clip-rule="evenodd" d="M41 29.5C41.8284 29.5 42.5 30.1716 42.5 31C42.5 39.0081 36.0081 45.5 28 45.5C27.1716 45.5 26.5 44.8284 26.5 44C26.5 43.1716 27.1716 42.5 28 42.5C34.3513 42.5 39.5 37.3513 39.5 31C39.5 30.1716 40.1716 29.5 41 29.5Z" fill="#1F78F0"></path><path fill-rule="evenodd" clip-rule="evenodd" d="M22.9629 9C17.5501 9 12.9417 12.9378 12.0975 18.2844L10.9632 25.4679C10.7048 27.1045 9.16864 28.2217 7.53206 27.9633C5.89548 27.7049 4.77825 26.1687 5.03666 24.5321L6.17089 17.3486C7.47556 9.08575 14.5976 3 22.9629 3H25.037C33.4023 3 40.5243 9.08575 41.829 17.3486L42.9632 24.5321C43.2216 26.1687 42.1044 27.7049 40.4678 27.9633C38.8313 28.2217 37.2951 27.1045 37.0367 25.4679L35.9024 18.2844C35.0582 12.9378 30.4498 9 25.037 9H22.9629Z" fill="#1F78F0"></path><path d="M6.95504 35.3253C5.89564 35.1181 4.97451 34.4752 4.66894 33.4399C4.33775 32.3177 4 30.5486 4 28C4 25.4514 4.33775 23.6823 4.66894 22.5601C4.97451 21.5248 5.89564 20.8819 6.95504 20.6747C8.54798 20.3631 11.1249 19.8627 13.9429 19.3302C15.0605 19.119 16.1112 19.5263 16.3831 20.6306C16.6967 21.9046 17 24.1356 17 28C17 31.8644 16.6967 34.0954 16.3831 35.3694C16.1112 36.4737 15.0605 36.881 13.9429 36.6698C11.1249 36.1373 8.54797 35.6369 6.95504 35.3253Z" fill="#91BEFF"></path><path fill-rule="evenodd" clip-rule="evenodd" d="M12.2812 36.3543C12.1467 34.9061 12 32.3332 12 28C12 23.6668 12.1467 21.0939 12.2812 19.6457C12.8214 19.5427 13.3773 19.4371 13.9429 19.3302C15.0605 19.119 16.1112 19.5263 16.3831 20.6306C16.6967 21.9046 17 24.1356 17 28C17 31.8644 16.6967 34.0954 16.3831 35.3694C16.1112 36.4737 15.0605 36.881 13.9429 36.6698C13.3773 36.5629 12.8214 36.4573 12.2812 36.3543Z" fill="#1F78F0"></path><path d="M41.045 20.6747C42.1044 20.8819 43.0255 21.5248 43.3311 22.5601C43.6622 23.6823 44 25.4514 44 28C44 30.5486 43.6622 32.3177 43.3311 33.4399C43.0255 34.4752 42.1044 35.1181 41.045 35.3253C39.452 35.6369 36.8751 36.1373 34.0571 36.6698C32.9395 36.881 31.8888 36.4737 31.6169 35.3694C31.3033 34.0954 31 31.8644 31 28C31 24.1356 31.3033 21.9046 31.6169 20.6306C31.8888 19.5263 32.9395 19.119 34.0571 19.3302C36.8751 19.8627 39.452 20.3631 41.045 20.6747Z" fill="#91BEFF"></path><path fill-rule="evenodd" clip-rule="evenodd" d="M35.7188 19.6457C35.8533 21.0939 36 23.6668 36 28C36 32.3332 35.8533 34.9061 35.7188 36.3543C35.1786 36.4573 34.6227 36.5629 34.0571 36.6698C32.9395 36.881 31.8888 36.4737 31.6169 35.3694C31.3033 34.0954 31 31.8644 31 28C31 24.1356 31.3033 21.9046 31.6169 20.6306C31.8888 19.5263 32.9395 19.119 34.0571 19.3302C34.6227 19.4371 35.1786 19.5427 35.7188 19.6457Z" fill="#1F78F0"></path></g></svg>