<svg viewBox="0 0 24 24" fill="none" xmlns="http://www.w3.org/2000/svg">









<g transform="matrix(0.5,0,0,0.5,0,0)"><path d="M44.4083 31.9081C44.2162 33.4539 43.1968 34.6466 41.6661 34.9349C39.1019 35.4179 33.948 36 24 36C15.2278 36 10.1834 35.7485 7.35529 35.5051C5.25702 35.3245 3.73546 33.7962 3.5212 31.7011C3.26434 29.1894 3 25.1183 3 19C3 12.8817 3.26434 8.81063 3.5212 6.29894C3.73546 4.20383 5.25702 2.6755 7.3553 2.4949C10.1834 2.25148 15.2278 2 24 2C32.7722 2 37.8166 2.25147 40.6447 2.4949C42.743 2.6755 44.2645 4.20383 44.4788 6.29893C44.7357 8.81062 45 12.8817 45 19C45 25.6813 44.6848 29.6831 44.4083 31.9081Z" fill="#91BEFF"></path><path d="M11.0228 8.65107C11.0558 7.78851 11.6146 7.13095 12.4746 7.0573C12.8696 7.02348 13.3705 7 14 7C14.6295 7 15.1304 7.02348 15.5254 7.0573C16.3854 7.13095 16.9442 7.78851 16.9772 8.65107C16.9909 9.008 17 9.4517 17 10C17 10.5483 16.9909 10.992 16.9772 11.3489C16.9442 12.2115 16.3854 12.869 15.5254 12.9427C15.1304 12.9765 14.6295 13 14 13C13.3705 13 12.8696 12.9765 12.4746 12.9427C11.6146 12.869 11.0558 12.2115 11.0228 11.3489C11.0091 10.992 11 10.5483 11 10C11 9.4517 11.0091 9.008 11.0228 8.65107Z" fill="#1F78F0"></path><path d="M21.0228 8.65107C21.0558 7.78851 21.6146 7.13095 22.4746 7.0573C22.8696 7.02348 23.3705 7 24 7C24.6295 7 25.1304 7.02348 25.5254 7.0573C26.3854 7.13095 26.9442 7.78851 26.9772 8.65107C26.9909 9.008 27 9.4517 27 10C27 10.5483 26.9909 10.992 26.9772 11.3489C26.9442 12.2115 26.3854 12.869 25.5254 12.9427C25.1304 12.9765 24.6295 13 24 13C23.3705 13 22.8696 12.9765 22.4746 12.9427C21.6146 12.869 21.0558 12.2115 21.0228 11.3489C21.0091 10.992 21 10.5483 21 10C21 9.4517 21.0091 9.008 21.0228 8.65107Z" fill="#1F78F0"></path><path d="M31.0228 8.65107C31.0558 7.78851 31.6146 7.13095 32.4746 7.0573C32.8696 7.02348 33.3705 7 34 7C34.6295 7 35.1304 7.02348 35.5254 7.0573C36.3854 7.13095 36.9442 7.78851 36.9772 8.65107C36.9909 9.008 37 9.4517 37 10C37 10.5483 36.9909 10.992 36.9772 11.3489C36.9442 12.2115 36.3854 12.869 35.5254 12.9427C35.1304 12.9765 34.6295 13 34 13C33.3705 13 32.8696 12.9765 32.4746 12.9427C31.6146 12.869 31.0558 12.2115 31.0228 11.3489C31.0091 10.992 31 10.5483 31 10C31 9.4517 31.0091 9.008 31.0228 8.65107Z" fill="#1F78F0"></path><path d="M11.0228 17.6511C11.0558 16.7885 11.6146 16.131 12.4746 16.0573C12.8696 16.0235 13.3705 16 14 16C14.6295 16 15.1304 16.0235 15.5254 16.0573C16.3854 16.131 16.9442 16.7885 16.9772 17.6511C16.9909 18.008 17 18.4517 17 19C17 19.5483 16.9909 19.992 16.9772 20.3489C16.9442 21.2115 16.3854 21.869 15.5254 21.9427C15.1304 21.9765 14.6295 22 14 22C13.3705 22 12.8696 21.9765 12.4746 21.9427C11.6146 21.869 11.0558 21.2115 11.0228 20.3489C11.0091 19.992 11 19.5483 11 19C11 18.4517 11.0091 18.008 11.0228 17.6511Z" fill="#1F78F0"></path><path d="M21.0228 17.6511C21.0558 16.7885 21.6146 16.131 22.4746 16.0573C22.8696 16.0235 23.3705 16 24 16C24.6295 16 25.1304 16.0235 25.5254 16.0573C26.3854 16.131 26.9442 16.7885 26.9772 17.6511C26.9909 18.008 27 18.4517 27 19C27 19.5483 26.9909 19.992 26.9772 20.3489C26.9442 21.2115 26.3854 21.869 25.5254 21.9427C25.1304 21.9765 24.6295 22 24 22C23.3705 22 22.8696 21.9765 22.4746 21.9427C21.6146 21.869 21.0558 21.2115 21.0228 20.3489C21.0091 19.992 21 19.5483 21 19C21 18.4517 21.0091 18.008 21.0228 17.6511Z" fill="#1F78F0"></path><path d="M31.0228 17.6511C31.0558 16.7885 31.6146 16.131 32.4746 16.0573C32.8696 16.0235 33.3705 16 34 16C34.6295 16 35.1304 16.0235 35.5254 16.0573C36.3854 16.131 36.9442 16.7885 36.9772 17.6511C36.9909 18.008 37 18.4517 37 19C37 19.5483 36.9909 19.992 36.9772 20.3489C36.9442 21.2115 36.3854 21.869 35.5254 21.9427C35.1304 21.9765 34.6295 22 34 22C33.3705 22 32.8696 21.9765 32.4746 21.9427C31.6146 21.869 31.0558 21.2115 31.0228 20.3489C31.0091 19.992 31 19.5483 31 19C31 18.4517 31.0091 18.008 31.0228 17.6511Z" fill="#1F78F0"></path><path d="M15.1237 26.3994C15.2566 25.6583 15.9131 25.249 16.6642 25.1966C17.907 25.1098 20.2257 25 24 25C27.7743 25 30.093 25.1098 31.3358 25.1966C32.0869 25.249 32.7434 25.6583 32.8763 26.3994C32.9474 26.7956 33 27.3189 33 28C33 28.6811 32.9474 29.2044 32.8763 29.6006C32.7434 30.3417 32.0869 30.751 31.3358 30.8034C30.093 30.8902 27.7743 31 24 31C20.2257 31 17.907 30.8902 16.6642 30.8034C15.9131 30.751 15.2566 30.3417 15.1237 29.6006C15.0526 29.2044 15 28.6811 15 28C15 27.3189 15.0526 26.7956 15.1237 26.3994Z" fill="#1F78F0"></path><path d="M18.2931 39.2535C17.0714 39.3909 16.7123 40.5548 17.6057 41.3994C18.1199 41.8854 18.7846 42.4827 19.6364 43.2C20.953 44.3087 21.9716 44.9874 22.6923 45.3982C23.5168 45.8681 24.4832 45.8682 25.3077 45.3983C26.0285 44.9875 27.0472 44.3088 28.3636 43.2C29.215 42.4829 29.8795 41.8858 30.3936 41.3998C31.2872 40.5551 30.928 39.3908 29.7061 39.2534C28.4835 39.1159 26.6631 39 24 39C21.3363 39 19.5157 39.1159 18.2931 39.2535Z" fill="#1F78F0"></path></g></svg>