<svg viewBox="0 0 24 24" fill="none" xmlns="http://www.w3.org/2000/svg">









<g transform="matrix(0.5,0,0,0.5,0,0)"><path fill-rule="evenodd" clip-rule="evenodd" d="M36 0C37.1046 0 38 0.89543 38 2V3C38 6.31371 35.3137 9 32 9H28C26.8954 9 26 9.89543 26 11V13C26 14.1046 25.1046 15 24 15C22.8954 15 22 14.1046 22 13V11C22 7.68629 24.6863 5 28 5H32C33.1046 5 34 4.10457 34 3V2C34 0.89543 34.8954 0 36 0Z" fill="#1F78F0"></path><path d="M44.4083 40.9081C44.2162 42.4539 43.1968 43.6466 41.6661 43.9349C39.1019 44.4179 33.948 45 24 45C15.2278 45 10.1834 44.7485 7.35529 44.5051C5.25702 44.3245 3.73546 42.7962 3.5212 40.7011C3.26434 38.1894 3 34.1183 3 28C3 21.8817 3.26434 17.8106 3.5212 15.2989C3.73546 13.2038 5.25702 11.6755 7.3553 11.4949C10.1834 11.2515 15.2278 11 24 11C32.7722 11 37.8166 11.2515 40.6447 11.4949C42.743 11.6755 44.2645 13.2038 44.4788 15.2989C44.7357 17.8106 45 21.8817 45 28C45 34.6813 44.6848 38.6831 44.4083 40.9081Z" fill="#91BEFF"></path><path d="M11.0228 17.6511C11.0558 16.7885 11.6146 16.131 12.4746 16.0573C12.8696 16.0235 13.3705 16 14 16C14.6295 16 15.1304 16.0235 15.5254 16.0573C16.3854 16.131 16.9442 16.7885 16.9772 17.6511C16.9909 18.008 17 18.4517 17 19C17 19.5483 16.9909 19.992 16.9772 20.3489C16.9442 21.2115 16.3854 21.869 15.5254 21.9427C15.1304 21.9765 14.6295 22 14 22C13.3705 22 12.8696 21.9765 12.4746 21.9427C11.6146 21.869 11.0558 21.2115 11.0228 20.3489C11.0091 19.992 11 19.5483 11 19C11 18.4517 11.0091 18.008 11.0228 17.6511Z" fill="#1F78F0"></path><path d="M21.0228 17.6511C21.0558 16.7885 21.6146 16.131 22.4746 16.0573C22.8696 16.0235 23.3705 16 24 16C24.6295 16 25.1304 16.0235 25.5254 16.0573C26.3854 16.131 26.9442 16.7885 26.9772 17.6511C26.9909 18.008 27 18.4517 27 19C27 19.5483 26.9909 19.992 26.9772 20.3489C26.9442 21.2115 26.3854 21.869 25.5254 21.9427C25.1304 21.9765 24.6295 22 24 22C23.3705 22 22.8696 21.9765 22.4746 21.9427C21.6146 21.869 21.0558 21.2115 21.0228 20.3489C21.0091 19.992 21 19.5483 21 19C21 18.4517 21.0091 18.008 21.0228 17.6511Z" fill="#1F78F0"></path><path d="M31.0228 17.6511C31.0558 16.7885 31.6146 16.131 32.4746 16.0573C32.8696 16.0235 33.3705 16 34 16C34.6295 16 35.1304 16.0235 35.5254 16.0573C36.3854 16.131 36.9442 16.7885 36.9772 17.6511C36.9909 18.008 37 18.4517 37 19C37 19.5483 36.9909 19.992 36.9772 20.3489C36.9442 21.2115 36.3854 21.869 35.5254 21.9427C35.1304 21.9765 34.6295 22 34 22C33.3705 22 32.8696 21.9765 32.4746 21.9427C31.6146 21.869 31.0558 21.2115 31.0228 20.3489C31.0091 19.992 31 19.5483 31 19C31 18.4517 31.0091 18.008 31.0228 17.6511Z" fill="#1F78F0"></path><path d="M11.0228 26.6511C11.0558 25.7885 11.6146 25.131 12.4746 25.0573C12.8696 25.0235 13.3705 25 14 25C14.6295 25 15.1304 25.0235 15.5254 25.0573C16.3854 25.131 16.9442 25.7885 16.9772 26.6511C16.9909 27.008 17 27.4517 17 28C17 28.5483 16.9909 28.992 16.9772 29.3489C16.9442 30.2115 16.3854 30.869 15.5254 30.9427C15.1304 30.9765 14.6295 31 14 31C13.3705 31 12.8696 30.9765 12.4746 30.9427C11.6146 30.869 11.0558 30.2115 11.0228 29.3489C11.0091 28.992 11 28.5483 11 28C11 27.4517 11.0091 27.008 11.0228 26.6511Z" fill="#1F78F0"></path><path d="M21.0228 26.6511C21.0558 25.7885 21.6146 25.131 22.4746 25.0573C22.8696 25.0235 23.3705 25 24 25C24.6295 25 25.1304 25.0235 25.5254 25.0573C26.3854 25.131 26.9442 25.7885 26.9772 26.6511C26.9909 27.008 27 27.4517 27 28C27 28.5483 26.9909 28.992 26.9772 29.3489C26.9442 30.2115 26.3854 30.869 25.5254 30.9427C25.1304 30.9765 24.6295 31 24 31C23.3705 31 22.8696 30.9765 22.4746 30.9427C21.6146 30.869 21.0558 30.2115 21.0228 29.3489C21.0091 28.992 21 28.5483 21 28C21 27.4517 21.0091 27.008 21.0228 26.6511Z" fill="#1F78F0"></path><path d="M31.0228 26.6511C31.0558 25.7885 31.6146 25.131 32.4746 25.0573C32.8696 25.0235 33.3705 25 34 25C34.6295 25 35.1304 25.0235 35.5254 25.0573C36.3854 25.131 36.9442 25.7885 36.9772 26.6511C36.9909 27.008 37 27.4517 37 28C37 28.5483 36.9909 28.992 36.9772 29.3489C36.9442 30.2115 36.3854 30.869 35.5254 30.9427C35.1304 30.9765 34.6295 31 34 31C33.3705 31 32.8696 30.9765 32.4746 30.9427C31.6146 30.869 31.0558 30.2115 31.0228 29.3489C31.0091 28.992 31 28.5483 31 28C31 27.4517 31.0091 27.008 31.0228 26.6511Z" fill="#1F78F0"></path><path d="M15.1237 35.3994C15.2566 34.6583 15.9131 34.249 16.6642 34.1966C17.907 34.1098 20.2257 34 24 34C27.7743 34 30.093 34.1098 31.3358 34.1966C32.0869 34.249 32.7434 34.6583 32.8763 35.3994C32.9474 35.7956 33 36.3189 33 37C33 37.6811 32.9474 38.2044 32.8763 38.6006C32.7434 39.3417 32.0869 39.751 31.3358 39.8034C30.093 39.8902 27.7743 40 24 40C20.2257 40 17.907 39.8902 16.6642 39.8034C15.9131 39.751 15.2566 39.3417 15.1237 38.6006C15.0526 38.2044 15 37.6811 15 37C15 36.3189 15.0526 35.7956 15.1237 35.3994Z" fill="#1F78F0"></path></g></svg>