<svg viewBox="0 0 24 24" fill="none" xmlns="http://www.w3.org/2000/svg">








<g transform="matrix(0.5,0,0,0.5,0,0)"><path d="M43.4131 37.8722C43.238 39.3799 42.2828 40.5688 40.7968 40.8781C38.3454 41.3883 33.4382 42 24 42C15.7688 42 10.9839 41.7415 8.26854 41.4874C6.19018 41.2929 4.71483 39.749 4.51722 37.6709C4.26626 35.032 4 30.6622 4 24C4 17.3378 4.26626 12.968 4.51722 10.3291C4.71484 8.25103 6.19019 6.7071 8.26856 6.51259C10.9839 6.25847 15.7689 6 24 6C32.2312 6 37.0161 6.25847 39.7315 6.51259C41.8098 6.7071 43.2852 8.25102 43.4828 10.3291C43.7337 12.968 44 17.3378 44 24C44 31.2842 43.6817 35.5605 43.4131 37.8722Z" fill="#91BEFF"></path><path d="M11.0228 13.6511C11.0558 12.7885 11.6146 12.131 12.4746 12.0573C12.8696 12.0235 13.3705 12 14 12C14.6295 12 15.1304 12.0235 15.5254 12.0573C16.3854 12.131 16.9442 12.7885 16.9772 13.6511C16.9909 14.008 17 14.4517 17 15C17 15.5483 16.9909 15.992 16.9772 16.3489C16.9442 17.2115 16.3854 17.869 15.5254 17.9427C15.1304 17.9765 14.6295 18 14 18C13.3705 18 12.8696 17.9765 12.4746 17.9427C11.6146 17.869 11.0558 17.2115 11.0228 16.3489C11.0091 15.992 11 15.5483 11 15C11 14.4517 11.0091 14.008 11.0228 13.6511Z" fill="#1F78F0"></path><path d="M11.0228 23.6511C11.0558 22.7885 11.6146 22.131 12.4746 22.0573C12.8696 22.0235 13.3705 22 14 22C14.6295 22 15.1304 22.0235 15.5254 22.0573C16.3854 22.131 16.9442 22.7885 16.9772 23.6511C16.9909 24.008 17 24.4517 17 25C17 25.5483 16.9909 25.992 16.9772 26.3489C16.9442 27.2115 16.3854 27.869 15.5254 27.9427C15.1304 27.9765 14.6295 28 14 28C13.3705 28 12.8696 27.9765 12.4746 27.9427C11.6146 27.869 11.0558 27.2115 11.0228 26.3489C11.0091 25.992 11 25.5483 11 25C11 24.4517 11.0091 24.008 11.0228 23.6511Z" fill="#1F78F0"></path><path d="M21.0228 13.6511C21.0558 12.7885 21.6146 12.131 22.4746 12.0573C22.8696 12.0235 23.3705 12 24 12C24.6295 12 25.1304 12.0235 25.5254 12.0573C26.3854 12.131 26.9442 12.7885 26.9772 13.6511C26.9909 14.008 27 14.4517 27 15C27 15.5483 26.9909 15.992 26.9772 16.3489C26.9442 17.2115 26.3854 17.869 25.5254 17.9427C25.1304 17.9765 24.6295 18 24 18C23.3705 18 22.8696 17.9765 22.4746 17.9427C21.6146 17.869 21.0558 17.2115 21.0228 16.3489C21.0091 15.992 21 15.5483 21 15C21 14.4517 21.0091 14.008 21.0228 13.6511Z" fill="#1F78F0"></path><path d="M21.0228 23.6511C21.0558 22.7885 21.6146 22.131 22.4746 22.0573C22.8696 22.0235 23.3705 22 24 22C24.6295 22 25.1304 22.0235 25.5254 22.0573C26.3854 22.131 26.9442 22.7885 26.9772 23.6511C26.9909 24.008 27 24.4517 27 25C27 25.5483 26.9909 25.992 26.9772 26.3489C26.9442 27.2115 26.3854 27.869 25.5254 27.9427C25.1304 27.9765 24.6295 28 24 28C23.3705 28 22.8696 27.9765 22.4746 27.9427C21.6146 27.869 21.0558 27.2115 21.0228 26.3489C21.0091 25.992 21 25.5483 21 25C21 24.4517 21.0091 24.008 21.0228 23.6511Z" fill="#1F78F0"></path><path d="M31.0228 13.6511C31.0558 12.7885 31.6146 12.131 32.4746 12.0573C32.8696 12.0235 33.3705 12 34 12C34.6295 12 35.1304 12.0235 35.5254 12.0573C36.3854 12.131 36.9442 12.7885 36.9772 13.6511C36.9909 14.008 37 14.4517 37 15C37 15.5483 36.9909 15.992 36.9772 16.3489C36.9442 17.2115 36.3854 17.869 35.5254 17.9427C35.1304 17.9765 34.6295 18 34 18C33.3705 18 32.8696 17.9765 32.4746 17.9427C31.6146 17.869 31.0558 17.2115 31.0228 16.3489C31.0091 15.992 31 15.5483 31 15C31 14.4517 31.0091 14.008 31.0228 13.6511Z" fill="#1F78F0"></path><path d="M31.0228 23.6511C31.0558 22.7885 31.6146 22.131 32.4746 22.0573C32.8696 22.0235 33.3705 22 34 22C34.6295 22 35.1304 22.0235 35.5254 22.0573C36.3854 22.131 36.9442 22.7885 36.9772 23.6511C36.9909 24.008 37 24.4517 37 25C37 25.5483 36.9909 25.992 36.9772 26.3489C36.9442 27.2115 36.3854 27.869 35.5254 27.9427C35.1304 27.9765 34.6295 28 34 28C33.3705 28 32.8696 27.9765 32.4746 27.9427C31.6146 27.869 31.0558 27.2115 31.0228 26.3489C31.0091 25.992 31 25.5483 31 25C31 24.4517 31.0091 24.008 31.0228 23.6511Z" fill="#1F78F0"></path><path d="M15.1237 33.3994C15.2566 32.6583 15.9131 32.249 16.6642 32.1966C17.907 32.1098 20.2257 32 24 32C27.7743 32 30.093 32.1098 31.3358 32.1966C32.0869 32.249 32.7434 32.6583 32.8763 33.3994C32.9474 33.7956 33 34.3189 33 35C33 35.6811 32.9474 36.2044 32.8763 36.6006C32.7434 37.3417 32.0869 37.751 31.3358 37.8034C30.093 37.8902 27.7743 38 24 38C20.2257 38 17.907 37.8902 16.6642 37.8034C15.9131 37.751 15.2566 37.3417 15.1237 36.6006C15.0526 36.2044 15 35.6811 15 35C15 34.3189 15.0526 33.7956 15.1237 33.3994Z" fill="#1F78F0"></path></g></svg>