<svg viewBox="0 0 24 24" fill="none" xmlns="http://www.w3.org/2000/svg">









<g transform="matrix(0.5,0,0,0.5,0,0)"><path d="M44.4532 42.0586C44.2465 43.6364 43.1622 44.8155 41.5918 45.0725C39.0029 45.4961 33.8529 46 24 46C15.2514 46 10.2105 45.7793 7.37812 45.5651C5.26968 45.4056 3.70301 43.9056 3.47606 41.8033C3.23429 39.5638 3 36.0824 3 31C3 25.9176 3.23429 22.4362 3.47606 20.1967C3.70302 18.0944 5.26968 16.5944 7.37813 16.4349C10.2105 16.2207 15.2514 16 24 16C32.7486 16 37.7895 16.2207 40.6219 16.4349C42.7303 16.5944 44.297 18.0944 44.5239 20.1967C44.7657 22.4362 45 25.9176 45 31C45 36.5778 44.7178 40.0391 44.4532 42.0586Z" fill="#91BEFF"></path><path d="M11.0228 22.6511C11.0558 21.7885 11.6146 21.131 12.4746 21.0573C12.8696 21.0235 13.3705 21 14 21C14.6295 21 15.1304 21.0235 15.5254 21.0573C16.3854 21.131 16.9442 21.7885 16.9772 22.6511C16.9909 23.008 17 23.4517 17 24C17 24.5483 16.9909 24.992 16.9772 25.3489C16.9442 26.2115 16.3854 26.869 15.5254 26.9427C15.1304 26.9765 14.6295 27 14 27C13.3705 27 12.8696 26.9765 12.4746 26.9427C11.6146 26.869 11.0558 26.2115 11.0228 25.3489C11.0091 24.992 11 24.5483 11 24C11 23.4517 11.0091 23.008 11.0228 22.6511Z" fill="#1F78F0"></path><path d="M21.0228 22.6511C21.0558 21.7885 21.6146 21.131 22.4746 21.0573C22.8696 21.0235 23.3705 21 24 21C24.6295 21 25.1304 21.0235 25.5254 21.0573C26.3854 21.131 26.9442 21.7885 26.9772 22.6511C26.9909 23.008 27 23.4517 27 24C27 24.5483 26.9909 24.992 26.9772 25.3489C26.9442 26.2115 26.3854 26.869 25.5254 26.9427C25.1304 26.9765 24.6295 27 24 27C23.3705 27 22.8696 26.9765 22.4746 26.9427C21.6146 26.869 21.0558 26.2115 21.0228 25.3489C21.0091 24.992 21 24.5483 21 24C21 23.4517 21.0091 23.008 21.0228 22.6511Z" fill="#1F78F0"></path><path d="M31.0228 22.6511C31.0558 21.7885 31.6146 21.131 32.4746 21.0573C32.8696 21.0235 33.3705 21 34 21C34.6295 21 35.1304 21.0235 35.5254 21.0573C36.3854 21.131 36.9442 21.7885 36.9772 22.6511C36.9909 23.008 37 23.4517 37 24C37 24.5483 36.9909 24.992 36.9772 25.3489C36.9442 26.2115 36.3854 26.869 35.5254 26.9427C35.1304 26.9765 34.6295 27 34 27C33.3705 27 32.8696 26.9765 32.4746 26.9427C31.6146 26.869 31.0558 26.2115 31.0228 25.3489C31.0091 24.992 31 24.5483 31 24C31 23.4517 31.0091 23.008 31.0228 22.6511Z" fill="#1F78F0"></path><path d="M11.0228 30.6511C11.0558 29.7885 11.6146 29.131 12.4746 29.0573C12.8696 29.0235 13.3705 29 14 29C14.6295 29 15.1304 29.0235 15.5254 29.0573C16.3854 29.131 16.9442 29.7885 16.9772 30.6511C16.9909 31.008 17 31.4517 17 32C17 32.5483 16.9909 32.992 16.9772 33.3489C16.9442 34.2115 16.3854 34.869 15.5254 34.9427C15.1304 34.9765 14.6295 35 14 35C13.3705 35 12.8696 34.9765 12.4746 34.9427C11.6146 34.869 11.0558 34.2115 11.0228 33.3489C11.0091 32.992 11 32.5483 11 32C11 31.4517 11.0091 31.008 11.0228 30.6511Z" fill="#1F78F0"></path><path d="M21.0228 30.6511C21.0558 29.7885 21.6146 29.131 22.4746 29.0573C22.8696 29.0235 23.3705 29 24 29C24.6295 29 25.1304 29.0235 25.5254 29.0573C26.3854 29.131 26.9442 29.7885 26.9772 30.6511C26.9909 31.008 27 31.4517 27 32C27 32.5483 26.9909 32.992 26.9772 33.3489C26.9442 34.2115 26.3854 34.869 25.5254 34.9427C25.1304 34.9765 24.6295 35 24 35C23.3705 35 22.8696 34.9765 22.4746 34.9427C21.6146 34.869 21.0558 34.2115 21.0228 33.3489C21.0091 32.992 21 32.5483 21 32C21 31.4517 21.0091 31.008 21.0228 30.6511Z" fill="#1F78F0"></path><path d="M31.0228 30.6511C31.0558 29.7885 31.6146 29.131 32.4746 29.0573C32.8696 29.0235 33.3705 29 34 29C34.6295 29 35.1304 29.0235 35.5254 29.0573C36.3854 29.131 36.9442 29.7885 36.9772 30.6511C36.9909 31.008 37 31.4517 37 32C37 32.5483 36.9909 32.992 36.9772 33.3489C36.9442 34.2115 36.3854 34.869 35.5254 34.9427C35.1304 34.9765 34.6295 35 34 35C33.3705 35 32.8696 34.9765 32.4746 34.9427C31.6146 34.869 31.0558 34.2115 31.0228 33.3489C31.0091 32.992 31 32.5483 31 32C31 31.4517 31.0091 31.008 31.0228 30.6511Z" fill="#1F78F0"></path><path d="M15.1059 39.0025C15.2452 38.4284 15.8128 38.1737 16.4029 38.1437C17.5679 38.0846 19.9431 38 24 38C28.0569 38 30.4321 38.0846 31.5971 38.1437C32.1872 38.1737 32.7548 38.4284 32.8941 39.0025C32.956 39.2575 33 39.5848 33 40C33 40.4152 32.956 40.7425 32.8941 40.9975C32.7548 41.5716 32.1872 41.8263 31.5971 41.8563C30.4321 41.9154 28.0569 42 24 42C19.9431 42 17.5679 41.9154 16.4029 41.8563C15.8128 41.8263 15.2452 41.5716 15.1059 40.9975C15.044 40.7425 15 40.4152 15 40C15 39.5848 15.044 39.2575 15.1059 39.0025Z" fill="#1F78F0"></path><path fill-rule="evenodd" clip-rule="evenodd" d="M24 2C20.3842 2 17.4664 3.48016 14.9172 5.65794C14.3254 6.16354 14.0737 6.96442 14.5613 7.57119C14.6815 7.72075 14.8272 7.88086 15.0038 8.04827C15.2231 8.25627 15.4306 8.41909 15.6197 8.54646C16.2188 8.95019 16.9482 8.7083 17.4923 8.2329C19.3181 6.63743 21.2837 5.45572 24 5.5C26.689 5.54383 28.7536 6.71969 30.6096 8.32955C31.0931 8.7489 31.7244 8.9776 32.2633 8.63226C32.4773 8.49511 32.7235 8.30681 32.9962 8.04827C33.2291 7.82743 33.408 7.6249 33.5453 7.44407C33.9604 6.89771 33.7227 6.21197 33.2043 5.76253C30.6263 3.52768 27.6733 2 24 2ZM23.9999 8C21.9934 8.00002 20.3636 8.74364 18.9252 9.85306C18.319 10.3206 18.0707 11.1079 18.5668 11.6909C18.6782 11.8219 18.8115 11.9616 18.9709 12.108C19.1957 12.3146 19.406 12.4734 19.5955 12.5955C20.1683 12.9646 20.8432 12.7217 21.385 12.3084C22.1221 11.7462 22.9348 11.3434 23.9999 11.3434C25.1005 11.3434 25.9316 11.7734 26.6883 12.3651C27.1818 12.751 27.7943 12.9816 28.3262 12.6508C28.5323 12.5227 28.7685 12.3475 29.0291 12.108C29.2276 11.9257 29.3855 11.7564 29.5111 11.6025C29.9534 11.0602 29.715 10.3557 29.1649 9.92317C27.7044 8.77505 26.0485 7.99998 23.9999 8Z" fill="#1F78F0"></path></g></svg>