<svg viewBox="0 0 24 24" fill="none" xmlns="http://www.w3.org/2000/svg">



<g transform="matrix(0.5,0,0,0.5,0,0)"><path d="M7.40002 33.7649C7.57332 35.5136 8.76175 36.8513 10.4938 37.1481C12.8614 37.5538 17.046 38 24 38C30.954 38 35.1386 37.5538 37.5062 37.1481C39.2382 36.8513 40.4267 35.5136 40.6 33.7649C40.8008 31.7388 41 28.3743 41 23C41 17.6257 40.8008 14.2612 40.6 12.2351C40.4267 10.4864 39.2382 9.14868 37.5062 8.85189C35.1386 8.44621 30.954 8 24 8C17.046 8 12.8614 8.44621 10.4938 8.85189C8.76175 9.14868 7.57332 10.4864 7.40002 12.2351C7.19923 14.2612 7 17.6257 7 23C7 28.3743 7.19923 31.7388 7.40002 33.7649Z" fill="#1F78F0"></path><path d="M24.0001 40C16.1499 40 11.2995 39.7261 8.45912 39.465C6.28247 39.2649 4.67781 37.6696 4.48299 35.4924C4.44568 35.0755 4.40831 34.6144 4.3718 34.1056C4.28982 32.963 5.20406 32 6.34961 32H17.2794C17.9089 32 18.4677 32.4028 18.6668 33V33C18.8659 33.5972 19.4247 34 20.0542 34H27.946C28.5755 34 29.1344 33.5972 29.3335 33V33C29.5325 32.4028 30.0914 32 30.7209 32H41.6505C42.7961 32 43.7103 32.963 43.6283 34.1056C43.5918 34.6144 43.5544 35.0755 43.5171 35.4924C43.3223 37.6696 41.7177 39.2649 39.541 39.465C36.7006 39.7261 31.8502 40 24.0001 40Z" fill="#91BEFF"></path><path fill-rule="evenodd" clip-rule="evenodd" d="M21.8139 23.3065C21.8729 22.7425 21.4593 22.2365 20.8938 22.1942C20.0075 22.128 19.2071 22.0752 18.5524 22.0349C17.7717 21.987 17.3439 21.1148 17.8114 20.4877C19.1659 18.6711 21.7238 15.4375 24.8012 12.5032C25.4318 11.9018 26.4359 12.3833 26.3867 13.2533C26.2893 14.9784 26.165 16.4562 26.0356 17.6935C25.9766 18.2574 26.3903 18.7635 26.9557 18.8057C27.8421 18.872 28.6424 18.9248 29.2972 18.965C30.0778 19.013 30.5056 19.8852 30.0381 20.5122C28.6837 22.3288 26.1257 25.5625 23.0484 28.4968C22.4177 29.0981 21.4137 28.6166 21.4628 27.7466C21.5602 26.0216 21.6846 24.5438 21.8139 23.3065Z" fill="#91BEFF"></path></g></svg>