<svg viewBox="0 0 24 24" fill="none" xmlns="http://www.w3.org/2000/svg">










<g transform="matrix(0.5,0,0,0.5,0,0)"><path d="M12.4245 6.00635C13.3077 6.03394 13.8945 6.69228 13.9436 7.57455C13.9755 8.14656 14 8.93326 14 10C14 11.0667 13.9755 11.8534 13.9436 12.4254C13.8945 13.3077 13.3077 13.9661 12.4245 13.9937C12.2945 13.9977 12.1532 14 12 14C11.8468 14 11.7055 13.9977 11.5755 13.9937C10.6923 13.9661 10.1055 13.3077 10.0564 12.4254C10.0245 11.8534 10 11.0667 10 10C10 8.93326 10.0245 8.14656 10.0564 7.57455C10.1055 6.69228 10.6923 6.03394 11.5755 6.00635C11.7055 6.00228 11.8468 6 12 6C12.1532 6 12.2945 6.00228 12.4245 6.00635Z" fill="#91BEFF"></path><path d="M20.4245 6.00635C21.3077 6.03394 21.8945 6.69228 21.9436 7.57455C21.9755 8.14656 22 8.93326 22 10C22 11.0667 21.9755 11.8534 21.9436 12.4254C21.8945 13.3077 21.3077 13.9661 20.4245 13.9937C20.2945 13.9977 20.1532 14 20 14C19.8468 14 19.7055 13.9977 19.5755 13.9937C18.6923 13.9661 18.1055 13.3077 18.0564 12.4254C18.0245 11.8534 18 11.0667 18 10C18 8.93326 18.0245 8.14656 18.0564 7.57455C18.1055 6.69228 18.6923 6.03394 19.5755 6.00635C19.7055 6.00228 19.8468 6 20 6C20.1532 6 20.2945 6.00228 20.4245 6.00635Z" fill="#91BEFF"></path><path d="M28.4245 6.00635C29.3077 6.03394 29.8945 6.69228 29.9436 7.57455C29.9755 8.14656 30 8.93326 30 10C30 11.0667 29.9755 11.8534 29.9436 12.4254C29.8945 13.3077 29.3077 13.9661 28.4245 13.9937C28.2945 13.9977 28.1532 14 28 14C27.8468 14 27.7055 13.9977 27.5755 13.9937C26.6923 13.9661 26.1055 13.3077 26.0564 12.4254C26.0245 11.8534 26 11.0667 26 10C26 8.93326 26.0245 8.14656 26.0564 7.57455C26.1055 6.69228 26.6923 6.03394 27.5755 6.00635C27.7055 6.00228 27.8468 6 28 6C28.1532 6 28.2945 6.00228 28.4245 6.00635Z" fill="#91BEFF"></path><path d="M36.4245 6.00635C37.3077 6.03394 37.8945 6.69228 37.9436 7.57455C37.9755 8.14656 38 8.93326 38 10C38 11.0667 37.9755 11.8534 37.9436 12.4254C37.8945 13.3077 37.3077 13.9661 36.4245 13.9937C36.2945 13.9977 36.1532 14 36 14C35.8468 14 35.7055 13.9977 35.5755 13.9937C34.6923 13.9661 34.1055 13.3077 34.0564 12.4254C34.0245 11.8534 34 11.0667 34 10C34 8.93326 34.0245 8.14656 34.0564 7.57455C34.1055 6.69228 34.6923 6.03394 35.5755 6.00635C35.7055 6.00228 35.8468 6 36 6C36.1532 6 36.2945 6.00228 36.4245 6.00635Z" fill="#91BEFF"></path><path d="M12.4245 34.0063C13.3077 34.0339 13.8945 34.6923 13.9436 35.5746C13.9755 36.1466 14 36.9333 14 38C14 39.0667 13.9755 39.8534 13.9436 40.4254C13.8945 41.3077 13.3077 41.9661 12.4245 41.9937C12.2945 41.9977 12.1532 42 12 42C11.8468 42 11.7055 41.9977 11.5755 41.9937C10.6923 41.9661 10.1055 41.3077 10.0564 40.4254C10.0245 39.8534 10 39.0667 10 38C10 36.9333 10.0245 36.1466 10.0564 35.5746C10.1055 34.6923 10.6923 34.0339 11.5755 34.0063C11.7055 34.0023 11.8468 34 12 34C12.1532 34 12.2945 34.0023 12.4245 34.0063Z" fill="#91BEFF"></path><path d="M20.4245 34.0063C21.3077 34.0339 21.8945 34.6923 21.9436 35.5746C21.9755 36.1466 22 36.9333 22 38C22 39.0667 21.9755 39.8534 21.9436 40.4254C21.8945 41.3077 21.3077 41.9661 20.4245 41.9937C20.2945 41.9977 20.1532 42 20 42C19.8468 42 19.7055 41.9977 19.5755 41.9937C18.6923 41.9661 18.1055 41.3077 18.0564 40.4254C18.0245 39.8534 18 39.0667 18 38C18 36.9333 18.0245 36.1466 18.0564 35.5746C18.1055 34.6923 18.6923 34.0339 19.5755 34.0063C19.7055 34.0023 19.8468 34 20 34C20.1532 34 20.2945 34.0023 20.4245 34.0063Z" fill="#91BEFF"></path><path d="M28.4245 34.0063C29.3077 34.0339 29.8945 34.6923 29.9436 35.5746C29.9755 36.1466 30 36.9333 30 38C30 39.0667 29.9755 39.8534 29.9436 40.4254C29.8945 41.3077 29.3077 41.9661 28.4245 41.9937C28.2945 41.9977 28.1532 42 28 42C27.8468 42 27.7055 41.9977 27.5755 41.9937C26.6923 41.9661 26.1055 41.3077 26.0564 40.4254C26.0245 39.8534 26 39.0667 26 38C26 36.9333 26.0245 36.1466 26.0564 35.5746C26.1055 34.6923 26.6923 34.0339 27.5755 34.0063C27.7055 34.0023 27.8468 34 28 34C28.1532 34 28.2945 34.0023 28.4245 34.0063Z" fill="#91BEFF"></path><path d="M36.4245 34.0063C37.3077 34.0339 37.8945 34.6923 37.9436 35.5746C37.9755 36.1466 38 36.9333 38 38C38 39.0667 37.9755 39.8534 37.9436 40.4254C37.8945 41.3077 37.3077 41.9661 36.4245 41.9937C36.2945 41.9977 36.1532 42 36 42C35.8468 42 35.7055 41.9977 35.5755 41.9937C34.6923 41.9661 34.1055 41.3077 34.0564 40.4254C34.0245 39.8534 34 39.0667 34 38C34 36.9333 34.0245 36.1466 34.0564 35.5746C34.1055 34.6923 34.6923 34.0339 35.5755 34.0063C35.7055 34.0023 35.8468 34 36 34C36.1532 34 36.2945 34.0023 36.4245 34.0063Z" fill="#91BEFF"></path><path d="M3.4512 15.1015C3.68166 13.3076 5.01303 12.0261 6.80649 11.7919C9.59859 11.4273 14.8273 11 24 11C33.1727 11 38.4014 11.4273 41.1935 11.7919C42.987 12.0261 44.3183 13.3076 44.5488 15.1015C44.7815 16.9131 45 19.7465 45 24C45 28.2535 44.7815 31.0869 44.5488 32.8985C44.3183 34.6924 42.987 35.9739 41.1935 36.2081C38.4014 36.5727 33.1727 37 24 37C14.8273 37 9.59858 36.5727 6.80649 36.2081C5.01303 35.9739 3.68166 34.6924 3.4512 32.8985C3.21848 31.0869 3 28.2535 3 24C3 19.7465 3.21848 16.9131 3.4512 15.1015Z" fill="#1F78F0"></path><path d="M9.27967 19.4728C9.45494 18.3232 10.3697 17.565 11.5265 17.4458C13.4691 17.2456 17.2312 17 24 17C30.7688 17 34.5309 17.2456 36.4735 17.4458C37.6303 17.565 38.5451 18.3232 38.7203 19.4728C38.8697 20.4523 39 21.9068 39 24C39 26.0932 38.8697 27.5477 38.7203 28.5272C38.5451 29.6768 37.6303 30.435 36.4735 30.5542C34.5309 30.7544 30.7688 31 24 31C17.2312 31 13.4691 30.7544 11.5265 30.5542C10.3697 30.435 9.45494 29.6768 9.27967 28.5272C9.13034 27.5477 9 26.0932 9 24C9 21.9068 9.13034 20.4523 9.27967 19.4728Z" fill="#91BEFF"></path></g></svg>