<svg viewBox="0 0 24 24" fill="none" xmlns="http://www.w3.org/2000/svg">






<g transform="matrix(0.5,0,0,0.5,0,0)"><path fill-rule="evenodd" clip-rule="evenodd" d="M19.0645 11.5968C19.0992 12.3484 19.5324 12.9711 20.2844 12.9965C20.3524 12.9988 20.4243 13 20.5 13C20.5757 13 20.6476 12.9988 20.7156 12.9965C21.4676 12.9711 21.9008 12.3484 21.9355 11.5968V11.5968C21.9762 10.7141 22.6863 10.0025 23.57 10.0005C23.7121 10.0002 23.8554 10 24 10C30.8964 10 35.0388 10.3685 37.4048 10.7132C39.19 10.9732 40.4497 12.3181 40.6359 14.1125C40.8238 15.9245 41 18.755 41 23C41 27.245 40.8238 30.0755 40.6359 31.8875C40.4497 33.6819 39.19 35.0268 37.4048 35.2868C35.0388 35.6315 30.8964 36 24 36C17.1036 36 12.9612 35.6315 10.5952 35.2868C8.80995 35.0268 7.55026 33.6819 7.36412 31.8875C7.17615 30.0755 7 27.245 7 23C7 18.755 7.17615 15.9245 7.36412 14.1125C7.55026 12.3181 8.80995 10.9732 10.5952 10.7132C12.0962 10.4945 14.3122 10.2663 17.4927 10.1286C18.3314 10.0923 19.0258 10.7583 19.0645 11.5968V11.5968Z" fill="#91BEFF"></path><path fill-rule="evenodd" clip-rule="evenodd" d="M33.0005 10.2663C34.1653 10.346 35.1576 10.4376 35.9985 10.5327C35.9914 11.679 35.9618 12.4511 35.9309 12.9562C35.8974 13.5032 35.5609 13.9421 35.0144 13.9826C34.8673 13.9934 34.6969 14.0001 34.5001 14.0001C34.3033 14.0001 34.1329 13.9934 33.9859 13.9826C33.4393 13.9421 33.1028 13.5032 33.0693 12.9562C33.0361 12.4129 33.0043 11.5608 33.0005 10.2663ZM26.0001 10.0109C27.0745 10.0227 28.0729 10.044 29.0001 10.0728C28.999 11.4766 28.9658 12.3863 28.9309 12.9562C28.8974 13.5032 28.5609 13.9421 28.0144 13.9826C27.8673 13.9934 27.6969 14.0001 27.5001 14.0001C27.3033 14.0001 27.1329 13.9934 26.9859 13.9826C26.4393 13.9421 26.1028 13.5032 26.0693 12.9562C26.0339 12.3779 26.0003 11.4499 26.0001 10.0109ZM14.9997 10.2663C14.9959 11.5608 14.9641 12.4129 14.9309 12.9562C14.8974 13.5032 14.5609 13.9421 14.0144 13.9826C13.8673 13.9934 13.6969 14.0001 13.5001 14.0001C13.3033 14.0001 13.1329 13.9934 12.9859 13.9826C12.4393 13.9421 12.1028 13.5032 12.0693 12.9562C12.0384 12.4511 12.0088 11.679 12.0017 10.5327C12.8426 10.4376 13.8349 10.346 14.9997 10.2663Z" fill="#1F78F0"></path><path fill-rule="evenodd" clip-rule="evenodd" d="M6.76987 16.6741C5.00063 16.8708 3.64088 18.0731 3.39821 19.8366C3.26816 20.7817 3.14769 22.0131 3.07405 23.5921C3.03724 24.3815 3.66442 25.0329 4.45341 25.0776V25.0776C5.29095 25.125 5.94764 25.651 5.98822 26.4889C5.99565 26.6422 5.99993 26.8121 5.99993 27C5.99993 27.1879 5.99565 27.3578 5.98822 27.5111C5.94764 28.349 5.29095 28.875 4.45341 28.9224V28.9224C3.66442 28.9671 3.03724 29.6185 3.07405 30.4079C3.14769 31.9869 3.26816 33.2183 3.39821 34.1634C3.64088 35.9269 5.00063 37.1292 6.76987 37.3259C9.55279 37.6353 14.7871 38 23.9999 38C33.2128 38 38.4471 37.6353 41.23 37.3259C42.9992 37.1292 44.359 35.9269 44.6017 34.1634C44.7317 33.2183 44.8522 31.9869 44.9258 30.4079C44.9626 29.6185 44.3354 28.9671 43.5465 28.9224V28.9224C42.7089 28.875 42.0522 28.349 42.0116 27.5111C42.0042 27.3578 41.9999 27.1879 41.9999 27C41.9999 26.8121 42.0042 26.6422 42.0116 26.4889C42.0522 25.651 42.7089 25.125 43.5465 25.0776V25.0776C44.3354 25.0329 44.9626 24.3815 44.9258 23.5921C44.8522 22.0131 44.7317 20.7817 44.6017 19.8366C44.359 18.0731 42.9992 16.8708 41.23 16.6741C38.4471 16.3647 33.2128 16 23.9999 16C14.7871 16 9.55279 16.3647 6.76987 16.6741Z" fill="#1F78F0"></path><path d="M11.06 23.6291C11.0933 22.8993 11.4907 22.2703 12.2092 22.1386C12.6375 22.0601 13.22 22 14 22C14.78 22 15.3625 22.0601 15.7908 22.1386C16.5093 22.2703 16.9067 22.8993 16.94 23.6291C16.9716 24.3192 17 25.3886 17 27C17 28.6114 16.9716 29.6807 16.94 30.3709C16.9067 31.1007 16.5093 31.7297 15.7908 31.8614C15.3625 31.9399 14.78 32 14 32C13.22 32 12.6375 31.9399 12.2092 31.8614C11.4907 31.7297 11.0933 31.1007 11.06 30.3709C11.0284 29.6808 11 28.6114 11 27C11 25.3886 11.0284 24.3192 11.06 23.6291Z" fill="#91BEFF"></path><path d="M21.06 23.6291C21.0933 22.8993 21.4907 22.2703 22.2092 22.1386C22.6375 22.0601 23.22 22 24 22C24.78 22 25.3625 22.0601 25.7908 22.1386C26.5093 22.2703 26.9067 22.8993 26.94 23.6291C26.9716 24.3192 27 25.3886 27 27C27 28.6114 26.9716 29.6807 26.94 30.3709C26.9067 31.1007 26.5093 31.7297 25.7908 31.8614C25.3625 31.9399 24.78 32 24 32C23.22 32 22.6375 31.9399 22.2092 31.8614C21.4907 31.7297 21.0933 31.1007 21.06 30.3709C21.0284 29.6808 21 28.6114 21 27C21 25.3886 21.0284 24.3192 21.06 23.6291Z" fill="#91BEFF"></path><path d="M31.06 23.6291C31.0933 22.8993 31.4907 22.2703 32.2092 22.1386C32.6375 22.0601 33.22 22 34 22C34.78 22 35.3625 22.0601 35.7908 22.1386C36.5093 22.2703 36.9067 22.8993 36.94 23.6291C36.9716 24.3192 37 25.3886 37 27C37 28.6114 36.9716 29.6807 36.94 30.3709C36.9067 31.1007 36.5093 31.7297 35.7908 31.8614C35.3625 31.9399 34.78 32 34 32C33.22 32 32.6375 31.9399 32.2092 31.8614C31.4907 31.7297 31.0933 31.1007 31.06 30.3709C31.0284 29.6808 31 28.6114 31 27C31 25.3886 31.0284 24.3192 31.06 23.6291Z" fill="#91BEFF"></path></g></svg>