<svg viewBox="0 0 24 24" fill="none" xmlns="http://www.w3.org/2000/svg">



<g transform="matrix(0.5,0,0,0.5,0,0)"><path d="M28 33H20L18.4144 38.5494C18.1691 39.408 17.3844 40 16.4914 40H14.9694C13.812 40 12.8031 40.7877 12.5223 41.9106V41.9106C12.257 42.9719 13.0597 44 14.1537 44H33.8463C34.9403 44 35.743 42.9719 35.4776 41.9106V41.9106C35.1969 40.7877 34.188 40 33.0306 40H31.5086C30.6156 40 29.8309 39.408 29.5856 38.5494L28 33Z" fill="#1F78F0"></path><path d="M33.4056 4.48957C35.7605 4.748 37.7113 6.08568 38.169 8.41016C38.6067 10.6336 39 14.2353 39 20C39 25.7647 38.6067 29.3664 38.169 31.5898C37.7113 33.9143 35.7605 35.252 33.4056 35.5104C31.1595 35.7569 27.9444 36 24 36C20.0556 36 16.8405 35.7569 14.5944 35.5104C12.2395 35.252 10.2887 33.9143 9.83104 31.5898C9.39328 29.3664 9 25.7647 9 20C9 14.2353 9.39328 10.6336 9.83104 8.41016C10.2887 6.08568 12.2395 4.748 14.5944 4.48957C16.8405 4.2431 20.0556 4 24 4C27.9444 4 31.1595 4.2431 33.4056 4.48957Z" fill="#91BEFF"></path><path fill-rule="evenodd" clip-rule="evenodd" d="M9.03864 17C9.07936 15.4887 9.15024 14.1626 9.24157 13H16C17.1046 13 18 13.8954 18 15C18 16.1046 17.1046 17 16 17H9.03864ZM9.24157 27C9.15024 25.8374 9.07936 24.5113 9.03864 23H16C17.1046 23 18 23.8954 18 25C18 26.1046 17.1046 27 16 27H9.24157ZM38.9613 23C38.9206 24.5113 38.8497 25.8374 38.7584 27H32C30.8954 27 30 26.1046 30 25C30 23.8954 30.8954 23 32 23H38.9613ZM38.7584 13C38.8497 14.1626 38.9206 15.4887 38.9613 17H32C30.8954 17 30 16.1046 30 15C30 13.8954 30.8954 13 32 13H38.7584Z" fill="#1F78F0"></path></g></svg>