<svg viewBox="0 0 24 24" fill="none" xmlns="http://www.w3.org/2000/svg">



<g transform="matrix(0.5,0,0,0.5,0,0)"><path fill-rule="evenodd" clip-rule="evenodd" d="M23.1474 6C20.1338 6 17.6174 8.298 17.3446 11.2992L16.9917 15.1811C16.8917 16.2811 15.9188 17.0918 14.8188 16.9918C13.7188 16.8918 12.9081 15.919 13.0081 14.8189L13.361 10.9371C13.8211 5.87554 18.065 2 23.1474 2C28.0726 2 32.2371 5.64603 32.888 10.528L33.242 13.1831C33.5333 15.3681 35.3972 17 37.6016 17C40.0307 17 41.9999 15.0308 41.9999 12.6018V4C41.9999 2.89543 42.8953 2 43.9999 2C45.1045 2 45.9999 2.89543 45.9999 4V12.6018C45.9999 17.24 42.2399 21 37.6016 21C33.3924 21 29.8334 17.884 29.2771 13.7117L28.9231 11.0567C28.5371 8.16191 26.0678 6 23.1474 6Z" fill="#1F78F0"></path><path d="M15 9C21.8869 9 26.6579 13.758 26.8977 20.6408C26.9612 22.4662 27 24.5739 27 27C27 29.4261 26.9612 31.5338 26.8977 33.3592C26.6579 40.242 21.8869 45 15 45V45V45C8.11307 45 3.34205 40.242 3.10233 33.3592C3.03875 31.5338 3 29.4261 3 27C3 24.5739 3.03876 22.4662 3.10233 20.6408C3.34206 13.758 8.11307 9 15 9V9V9Z" fill="#91BEFF"></path><path d="M15 15C16.1574 15 16.9148 15.8424 16.9632 16.9988C16.985 17.5203 17 18.1779 17 19C17 19.8221 16.985 20.4797 16.9632 21.0012C16.9148 22.1576 16.1574 23 15 23V23V23C13.8426 23 13.0852 22.1576 13.0368 21.0012C13.015 20.4797 13 19.8221 13 19C13 18.1779 13.015 17.5203 13.0368 16.9988C13.0852 15.8424 13.8426 15 15 15V15V15Z" fill="#1F78F0"></path></g></svg>