<svg viewBox="0 0 24 24" fill="none" xmlns="http://www.w3.org/2000/svg">




<g transform="matrix(0.5,0,0,0.5,0,0)"><path d="M36.7184 8.31007C36.8689 10.3628 37 13.4552 37 18L11 18C11 12.687 11.3225 9.35882 11.6463 7.3563C11.9272 5.61888 13.2942 4.45749 15.0476 4.30545C16.8567 4.14858 19.704 4 24 4C27.8837 4 30.6888 4.12143 32.6284 4.26064C34.8788 4.42215 36.5534 6.05996 36.7184 8.31007Z" fill="#91BEFF"></path><path fill-rule="evenodd" clip-rule="evenodd" d="M7.76136 35.286C5.96951 35.0645 4.62856 33.7984 4.40298 32.0071C4.19164 30.3287 4 27.768 4 24C4 20.5376 4.16181 18.004 4.35203 16.2218C4.58784 14.0125 6.32532 12.4802 8.54313 12.3463C11.3736 12.1754 16.1831 12 24 12C31.8169 12 36.6264 12.1754 39.4569 12.3463C41.6747 12.4802 43.4122 14.0125 43.648 16.2218C43.8382 18.004 44 20.5376 44 24C44 27.4624 43.8382 29.9959 43.648 31.7782C43.4122 33.9875 41.6747 35.5198 39.4569 35.6537V35.6537C38.5987 35.7055 37.8945 34.992 37.9271 34.1329C37.9718 32.9535 38 31.5826 38 29.9999C38 29.3309 37.4417 28.7999 36.773 28.8225C33.8685 28.921 29.7471 29 24 29C18.3689 29 14.2985 28.8634 11.4043 28.6912C10.6464 28.6462 10 29.2407 10 29.9999C10 31.4552 10.0238 32.714 10.0624 33.7986C10.095 34.7126 9.32651 35.4636 8.41755 35.3628C8.18522 35.3371 7.9667 35.3114 7.76136 35.286Z" fill="#1F78F0"></path><path fill-rule="evenodd" clip-rule="evenodd" d="M12.0064 31.785C12.0021 31.2102 12.484 30.7519 13.0583 30.7789C15.7922 30.9075 19.3681 30.9999 23.9998 30.9999C28.645 30.9999 32.2281 30.9483 34.9651 30.8765C35.5304 30.8617 35.9971 31.3168 35.9926 31.8823C35.9645 35.4071 35.8594 37.9191 35.741 39.6742C35.5887 41.9313 33.9289 43.5966 31.6727 43.7614C29.8964 43.8912 27.3945 44.0001 23.9998 44.0001C20.6051 44.0001 18.1033 43.8912 16.327 43.7614C14.0708 43.5966 12.411 41.9313 12.2587 39.6742C12.1392 37.903 12.0332 35.361 12.0064 31.785Z" fill="#91BEFF"></path><path d="M36.0033 19.5527C36.0169 18.6897 36.5718 18.0449 37.4343 18.0106C37.6028 18.0039 37.7907 18 38 18C38.2093 18 38.3972 18.0039 38.5657 18.0106C39.4282 18.0449 39.9831 18.6897 39.9967 19.5527C39.9988 19.6887 40 19.8375 40 20C40 20.1625 39.9988 20.3113 39.9967 20.4473C39.9831 21.3103 39.4282 21.9551 38.5657 21.9894C38.3972 21.9961 38.2093 22 38 22C37.7907 22 37.6028 21.9961 37.4343 21.9894C36.5718 21.9551 36.0169 21.3103 36.0033 20.4473C36.0012 20.3113 36 20.1625 36 20C36 19.8375 36.0012 19.6887 36.0033 19.5527Z" fill="#91BEFF"></path></g></svg>