<svg viewBox="0 0 24 24" fill="none" xmlns="http://www.w3.org/2000/svg">





<g transform="matrix(0.5,0,0,0.5,0,0)"><path d="M7.978 14.7518C7.20318 15.0504 6.60138 15.7013 6.77806 16.5127C6.81962 16.7036 6.87942 16.9149 6.96358 17.1461C7.04774 17.3773 7.13776 17.5776 7.22863 17.7506C7.61482 18.4857 8.4942 18.5975 9.2797 18.3282C11.1675 17.681 15.4488 16.1861 23.6224 13.2112C31.796 10.2362 36.0366 8.62945 37.8987 7.91173C38.6735 7.61309 39.2753 6.96222 39.0987 6.15086C39.0571 5.95997 38.9973 5.74865 38.9131 5.51742C38.829 5.2862 38.7389 5.08588 38.6481 4.91293C38.2619 4.17783 37.3825 4.06606 36.597 4.33534C34.7092 4.9825 30.4279 6.47744 22.2543 9.45238C14.0807 12.4273 9.84015 14.0341 7.978 14.7518Z" fill="#1F78F0"></path><path d="M4.47617 39.6874C4.68332 41.4818 5.95292 42.827 7.73794 43.1039C10.4241 43.5207 15.386 44 24 44C31.7576 44 36.5532 43.784 39.3921 43.572C41.6458 43.4036 43.3542 41.7739 43.5746 39.5246C43.7946 37.2787 44 33.8762 44 29C44 24.1237 43.7946 20.7213 43.5746 18.4753C43.3542 16.2261 41.6458 14.5964 39.3921 14.428C36.5532 14.216 31.7576 14 24 14C16.2424 14 11.4468 14.216 8.60793 14.428C6.35418 14.5964 4.64578 16.2261 4.42542 18.4753C4.2054 20.7213 4 24.1238 4 29C4 34.2499 4.23808 37.6248 4.47617 39.6874Z" fill="#91BEFF"></path><path d="M19 23.5446C19 22.8131 18.4711 22.1974 17.7421 22.1363C16.9241 22.0677 15.707 22 14.0909 22C12.6537 22 11.6898 22.0536 11.0607 22.1137C10.4211 22.1748 10 22.71 10 23.3526V25.6474C10 26.29 10.4211 26.8252 11.0607 26.8863C11.6898 26.9464 12.6537 27 14.0909 27C15.707 27 16.9241 26.9323 17.7421 26.8637C18.4711 26.8026 19 26.1869 19 25.4554V23.5446Z" fill="#1F78F0"></path><path d="M19 32.5446C19 31.8131 18.4711 31.1974 17.7421 31.1363C16.9241 31.0677 15.707 31 14.0909 31C12.6537 31 11.6898 31.0536 11.0607 31.1137C10.4211 31.1748 10 31.71 10 32.3526V34.6474C10 35.29 10.4211 35.8252 11.0607 35.8863C11.6898 35.9464 12.6537 36 14.0909 36C15.707 36 16.9241 35.9323 17.7421 35.8637C18.4711 35.8026 19 35.1869 19 34.4554V32.5446Z" fill="#1F78F0"></path><circle r="8" transform="matrix(-1 0 0 1 31 29)" fill="#1F78F0"></circle></g></svg>