<svg viewBox="0 0 24 24" fill="none" xmlns="http://www.w3.org/2000/svg">




<g transform="matrix(0.5,0,0,0.5,0,0)"><path d="M36.7184 8.31007C36.8689 10.3628 37 13.4552 37 18L11 18C11 12.687 11.3225 9.35882 11.6463 7.3563C11.9272 5.61888 13.2942 4.45749 15.0476 4.30545C16.8567 4.14858 19.704 4 24 4C27.8837 4 30.6888 4.12143 32.6284 4.26064C34.8788 4.42215 36.5534 6.05996 36.7184 8.31007Z" fill="#91BEFF"></path><path fill-rule="evenodd" clip-rule="evenodd" d="M7.70626 33.3993C5.94847 33.2165 4.58433 32.0382 4.34787 30.2868C4.15945 28.8913 4 26.8642 4 24C4 21.4013 4.13125 19.4305 4.29631 17.9795C4.54035 15.8342 6.27374 14.4048 8.43009 14.2943C11.2449 14.1502 16.078 14 24 14C31.922 14 36.7551 14.1502 39.5699 14.2943C41.7263 14.4048 43.4597 15.8342 43.7037 17.9795C43.8687 19.4305 44 21.4013 44 24C44 26.5987 43.8687 28.5695 43.7037 30.0205C43.4597 32.1658 41.7263 33.5952 39.5699 33.7057C39.2542 33.7218 38.9132 33.7381 38.5452 33.7542C37.6783 33.7921 36.967 33.0815 36.9818 32.2139C36.9935 31.527 37 30.7899 37 30C37 29.3506 36.4599 28.8338 35.8108 28.853C32.9791 28.9368 29.1396 29 24 29C18.9489 29 15.1535 28.8901 12.3364 28.7432C11.6129 28.7055 11 29.2754 11 30C11 30.7215 11.0054 31.3946 11.0153 32.0223C11.0292 32.9062 10.2909 33.6238 9.40962 33.554C8.76001 33.5024 8.19504 33.4502 7.70626 33.3993Z" fill="#1F78F0"></path><path fill-rule="evenodd" clip-rule="evenodd" d="M31.0053 31.9321C31.0082 31.3886 31.4463 30.9485 31.9898 30.9395C32.69 30.9278 33.3494 30.9148 33.9699 30.9007C34.5289 30.8881 34.9914 31.3343 34.9945 31.8935C34.998 32.5417 35 33.2426 35 34C35 39.3483 34.9014 41.8809 34.8427 42.9154C34.8201 43.3137 34.6486 43.6913 34.2713 43.8213C33.9919 43.9175 33.5825 44 33 44C32.4175 44 32.0081 43.9175 31.7287 43.8213C31.3514 43.6913 31.1799 43.3137 31.1573 42.9154C31.0986 41.8808 31 39.3483 31 34C31 33.2576 31.0019 32.5695 31.0053 31.9321ZM25.005 31.989C25.0079 31.4406 25.4534 30.9984 26.0018 30.9965C26.6893 30.9942 27.3509 30.9907 27.9874 30.9861C28.54 30.9822 28.992 31.4261 28.9949 31.9787C28.9982 32.603 29 33.2757 29 34C29 39.3483 28.9014 41.8809 28.8427 42.9154C28.8201 43.3137 28.6486 43.6913 28.2713 43.8213C27.9919 43.9175 27.5825 44 27 44C26.4175 44 26.0081 43.9175 25.7287 43.8213C25.3514 43.6913 25.1799 43.3137 25.1573 42.9154C25.0986 41.8808 25 39.3483 25 34C25 33.2796 25.0018 32.6104 25.005 31.989ZM19.0051 31.9685C19.0081 31.413 19.4646 30.9681 20.0201 30.9753C20.6547 30.9834 21.3142 30.9897 21.9995 30.9939C22.5474 30.9972 22.9921 31.4391 22.995 31.987C22.9982 32.6089 23 33.2789 23 34C23 39.3483 22.9014 41.8809 22.8427 42.9154C22.8201 43.3137 22.6486 43.6913 22.2713 43.8213C21.9919 43.9175 21.5825 44 21 44C20.4175 44 20.0081 43.9175 19.7287 43.8213C19.3514 43.6913 19.1799 43.3137 19.1573 42.9154C19.0986 41.8808 19 39.3483 19 34C19 33.2717 19.0018 32.5957 19.0051 31.9685ZM13.006 31.8156C13.0092 31.2483 13.4847 30.7993 14.0515 30.8223C14.669 30.8475 15.3249 30.8707 16.0213 30.8915C16.5601 30.9076 16.9914 31.3457 16.9944 31.8848C16.998 32.5354 17 33.2392 17 34C17 39.3483 16.9014 41.8809 16.8427 42.9154C16.8201 43.3137 16.6486 43.6913 16.2713 43.8213C15.9919 43.9175 15.5825 44 15 44C14.4175 44 14.0081 43.9175 13.7287 43.8213C13.3514 43.6913 13.1799 43.3137 13.1573 42.9154C13.0986 41.8808 13 39.3483 13 34C13 33.2122 13.0021 32.4854 13.006 31.8156Z" fill="#91BEFF"></path><path d="M36.0033 19.5527C36.0169 18.6897 36.5718 18.0449 37.4343 18.0106C37.6028 18.0039 37.7907 18 38 18C38.2093 18 38.3972 18.0039 38.5657 18.0106C39.4282 18.0449 39.9831 18.6897 39.9967 19.5527C39.9988 19.6887 40 19.8375 40 20C40 20.1625 39.9988 20.3113 39.9967 20.4473C39.9831 21.3103 39.4282 21.9551 38.5657 21.9894C38.3972 21.9961 38.2093 22 38 22C37.7907 22 37.6028 21.9961 37.4343 21.9894C36.5718 21.9551 36.0169 21.3103 36.0033 20.4473C36.0012 20.3113 36 20.1625 36 20C36 19.8375 36.0012 19.6887 36.0033 19.5527Z" fill="#91BEFF"></path></g></svg>