<svg viewBox="0 0 24 24" fill="none" xmlns="http://www.w3.org/2000/svg">



<g transform="matrix(0.5,0,0,0.5,0,0)"><path d="M33.739 3.39533C36.141 3.63635 37.9055 5.34441 38.2166 7.73833C38.6024 10.7061 39 15.7627 39 24C39 32.2373 38.6024 37.2939 38.2166 40.2617C37.9055 42.6556 36.141 44.3636 33.739 44.6047C31.6398 44.8153 28.5125 45 24 45C19.4875 45 16.3602 44.8153 14.261 44.6047C11.859 44.3636 10.0945 42.6556 9.78336 40.2617C9.39757 37.2939 9 32.2373 9 24C9 15.7627 9.39758 10.7061 9.78336 7.73833C10.0945 5.34441 11.859 3.63635 14.261 3.39533C16.3602 3.18469 19.4875 3 24 3C28.5125 3 31.6398 3.18469 33.739 3.39533Z" fill="#1F78F0"></path><path fill-rule="evenodd" clip-rule="evenodd" d="M38.3665 9C38.317 8.54276 38.2668 8.123 38.2168 7.73833C37.9056 5.34441 36.1412 3.63635 33.7392 3.39533C31.6399 3.18469 28.5126 3 24.0001 3C19.4877 3 16.3604 3.18469 14.2611 3.39533C11.8591 3.63635 10.0947 5.34441 9.7835 7.73833C9.7335 8.123 9.6833 8.54276 9.63379 9H38.3665ZM38.3665 39C38.317 39.4572 38.2668 39.877 38.2168 40.2617C37.9056 42.6556 36.1412 44.3637 33.7392 44.6047C31.6399 44.8153 28.5126 45 24.0001 45C19.4877 45 16.3604 44.8153 14.2611 44.6047C11.8591 44.3636 10.0947 42.6556 9.7835 40.2617C9.7335 39.877 9.6833 39.4572 9.63379 39H38.3665Z" fill="#91BEFF"></path><path fill-rule="evenodd" clip-rule="evenodd" d="M21.7668 26.9259C21.8262 26.362 21.4126 25.8559 20.8472 25.8135C19.8234 25.7366 18.9047 25.6764 18.171 25.6318C17.3903 25.5843 16.9638 24.7106 17.4303 24.0828C18.8689 22.1466 21.6708 18.589 25.0474 15.3884C25.6798 14.7889 26.6848 15.2695 26.6368 16.1396C26.5302 18.0719 26.3916 19.717 26.2476 21.0833C26.1882 21.6472 26.6018 22.1532 27.1672 22.1956C28.191 22.2725 29.1097 22.3327 29.8434 22.3774C30.6241 22.4248 31.0506 23.2985 30.5841 23.9264C29.1455 25.8626 26.3436 29.4201 22.967 32.6208C22.3346 33.2202 21.3296 32.7396 21.3776 31.8695C21.4842 29.9372 21.6228 28.2921 21.7668 26.9259Z" fill="#91BEFF"></path></g></svg>