<svg viewBox="0 0 24 24" fill="none" xmlns="http://www.w3.org/2000/svg">






<g transform="matrix(0.5,0,0,0.5,0,0)"><path d="M32.0251 3.42552C33.808 3.66231 35.0521 5.01009 35.2677 6.79563C35.6046 9.58502 36 14.8154 36 24C36 33.1846 35.6046 38.415 35.2677 41.2044C35.0521 42.9899 33.808 44.3377 32.0251 44.5745C30.3471 44.7973 27.7815 45 24 45C20.2185 45 17.6529 44.7973 15.9749 44.5745C14.192 44.3377 12.9479 42.9899 12.7323 41.2044C12.3954 38.415 12 33.1846 12 24C12 14.8154 12.3954 9.58502 12.7323 6.79563C12.9479 5.01009 14.192 3.6623 15.9749 3.42552C17.6529 3.20267 20.2185 3 24 3C27.7815 3 30.3471 3.20267 32.0251 3.42552Z" fill="#91BEFF"></path><path d="M7.40002 13.2351C7.57332 11.4864 8.76175 10.1487 10.4938 9.85189C12.8614 9.44621 17.046 9 24 9C30.954 9 35.1386 9.44621 37.5062 9.85189C39.2382 10.1487 40.4267 11.4864 40.6 13.2351C40.8008 15.2612 41 18.6257 41 24C41 29.3743 40.8008 32.7388 40.6 34.7649C40.4267 36.5136 39.2382 37.8513 37.5062 38.1481C35.1386 38.5538 30.954 39 24 39C17.046 39 12.8614 38.5538 10.4938 38.1481C8.76175 37.8513 7.57332 36.5136 7.40002 34.7649C7.19923 32.7388 7 29.3743 7 24C7 18.6257 7.19923 15.2612 7.40002 13.2351Z" fill="#1F78F0"></path><circle cx="16" cy="19" r="4" fill="#91BEFF"></circle><path d="M24 18.631C24 17.8433 24.6081 17.1911 25.3947 17.15C26.5494 17.0897 28.2747 17.0173 30 17.011C31.7306 17.0047 33.4612 17.0794 34.6159 17.1437C35.3982 17.1874 36 17.8374 36 18.6208V19.3851C36 20.1707 35.395 20.8218 34.6106 20.8641C33.4559 20.9265 31.728 21 30 21C28.272 21 26.5441 20.9265 25.3894 20.8641C24.605 20.8218 24 20.1707 24 19.3851V18.631Z" fill="#91BEFF"></path><circle cx="16" cy="30" r="4" fill="#91BEFF"></circle><path d="M24 29.631C24 28.8433 24.6081 28.1911 25.3947 28.15C26.5494 28.0897 28.2747 28.0173 30 28.011C31.7306 28.0047 33.4612 28.0794 34.6159 28.1437C35.3982 28.1874 36 28.8374 36 29.6208V30.3851C36 31.1707 35.395 31.8218 34.6106 31.8641C33.4559 31.9265 31.728 32 30 32C28.272 32 26.5441 31.9265 25.3894 31.8641C24.605 31.8218 24 31.1707 24 30.3851V29.631Z" fill="#91BEFF"></path></g></svg>