<svg viewBox="0 0 24 24" fill="none" xmlns="http://www.w3.org/2000/svg">


<g transform="matrix(0.5,0,0,0.5,0,0)"><path d="M33.739 3.39533C36.141 3.63635 37.9055 5.34441 38.2166 7.73833C38.6024 10.7061 39 15.7627 39 24C39 32.2373 38.6024 37.2939 38.2166 40.2617C37.9055 42.6556 36.141 44.3637 33.739 44.6047C31.6398 44.8153 28.5125 45 24 45C19.4875 45 16.3602 44.8153 14.261 44.6047C11.859 44.3636 10.0945 42.6556 9.78336 40.2617C9.39757 37.2939 9 32.2373 9 24C9 15.7627 9.39758 10.7061 9.78336 7.73833C10.0945 5.34441 11.859 3.63635 14.261 3.39533C16.3602 3.18469 19.4875 3 24 3C28.5125 3 31.6398 3.18469 33.739 3.39533Z" fill="#1F78F0"></path><path fill-rule="evenodd" clip-rule="evenodd" d="M38.5558 37C38.449 38.2946 38.3323 39.372 38.2167 40.2617C37.9055 42.6556 36.141 44.3636 33.739 44.6047C31.6398 44.8153 28.5125 45 24 45C19.4875 45 16.3603 44.8153 14.261 44.6047C11.859 44.3636 10.0946 42.6556 9.78338 40.2617C9.66773 39.372 9.55102 38.2946 9.44427 37H38.5558Z" fill="#91BEFF"></path></g></svg>