<svg viewBox="0 0 24 24" fill="none" xmlns="http://www.w3.org/2000/svg">



<g transform="matrix(0.5,0,0,0.5,0,0)"><path d="M29.8975 3.35689C31.7559 3.61744 33.0774 5.06675 33.5496 6.88296L37.6074 22.4902C37.8649 23.4803 37.8649 24.5197 37.6074 25.5098L33.5496 41.117C33.0774 42.9333 31.7559 44.3826 29.8975 44.6431C28.5125 44.8373 26.5817 45 24 45C21.4183 45 19.4875 44.8373 18.1025 44.6431C16.2441 44.3826 14.9226 42.9333 14.4504 41.117L10.3925 25.5098C10.1351 24.5197 10.1351 23.4803 10.3925 22.4902L14.4504 6.88297C14.9226 5.06675 16.2441 3.61744 18.1025 3.35689C19.4875 3.16273 21.4183 3 24 3C26.5817 3 28.5125 3.16273 29.8975 3.35689Z" fill="#91BEFF"></path><circle cx="24" cy="24" r="16" fill="#1F78F0"></circle><path fill-rule="evenodd" clip-rule="evenodd" d="M21.9158 27.2066C21.9747 26.6426 21.5611 26.1366 20.9956 26.0944C20.1298 26.0297 19.3473 25.978 18.7047 25.9385C17.924 25.8904 17.4959 25.0182 17.9636 24.3913C19.3052 22.593 21.8265 19.4079 24.859 16.5136C25.4893 15.912 26.4932 16.3935 26.4439 17.2635C26.3479 18.9576 26.2257 20.4103 26.0985 21.6281C26.0396 22.1921 26.4532 22.6981 27.0186 22.7403C27.8844 22.805 28.667 22.8567 29.3096 22.8962C30.0902 22.9443 30.5183 23.8165 30.0506 24.4434C28.7091 26.2417 26.1877 29.4268 23.1553 32.3211C22.5249 32.9227 21.521 32.4412 21.5704 31.5712C21.6664 29.8771 21.7886 28.4244 21.9158 27.2066Z" fill="#91BEFF"></path></g></svg>