<svg viewBox="0 0 24 24" fill="none" xmlns="http://www.w3.org/2000/svg">


<g transform="matrix(0.5,0,0,0.5,0,0)"><path d="M33.739 3.39533C36.141 3.63635 37.9055 5.34441 38.2166 7.73833C38.6024 10.7061 39 15.7627 39 24C39 32.2373 38.6024 37.2939 38.2166 40.2617C37.9055 42.6556 36.141 44.3637 33.739 44.6047C31.6398 44.8153 28.5125 45 24 45C19.4875 45 16.3602 44.8153 14.261 44.6047C11.859 44.3636 10.0945 42.6556 9.78336 40.2617C9.39757 37.2939 9 32.2373 9 24C9 15.7627 9.39758 10.7061 9.78336 7.73833C10.0945 5.34441 11.859 3.63635 14.261 3.39533C16.3602 3.18469 19.4875 3 24 3C28.5125 3 31.6398 3.18469 33.739 3.39533Z" fill="#1F78F0"></path><path fill-rule="evenodd" clip-rule="evenodd" d="M38.3664 9C38.3169 8.54276 38.2667 8.123 38.2167 7.73833C37.9055 5.34441 36.141 3.63635 33.739 3.39533C31.6398 3.18469 28.5125 3 24 3C19.4875 3 16.3603 3.18469 14.261 3.39533C11.859 3.63635 10.0946 5.34441 9.78338 7.73833C9.73338 8.123 9.68318 8.54276 9.63367 9H38.3664ZM38.3664 39C38.3169 39.4572 38.2667 39.877 38.2167 40.2617C37.9055 42.6556 36.141 44.3637 33.739 44.6047C31.6398 44.8153 28.5125 45 24 45C19.4875 45 16.3603 44.8153 14.261 44.6047C11.859 44.3636 10.0946 42.6556 9.78338 40.2617C9.73338 39.877 9.68318 39.4572 9.63367 39H38.3664Z" fill="#91BEFF"></path></g></svg>