<svg viewBox="0 0 24 24" fill="none" xmlns="http://www.w3.org/2000/svg">



<g transform="matrix(0.5,0,0,0.5,0,0)"><path d="M28.208 36.1575C28.5585 37.3639 29.6291 38.2275 30.8427 38.5524C31.9284 38.843 33.0424 39.237 33.8436 39.5406C34.5767 39.8184 35.1118 40.447 35.3019 41.2075L35.5203 42.0813C35.743 42.9722 34.96 43.7974 34.0517 43.6627C28.0911 42.7791 19.9089 42.7791 13.9483 43.6627C13.04 43.7974 12.257 42.9722 12.4797 42.0813L12.6981 41.2075C12.8882 40.447 13.4233 39.8184 14.1564 39.5406C14.9576 39.237 16.0716 38.843 17.1573 38.5524C18.3709 38.2275 19.4415 37.3639 19.792 36.1575L21 32H27L28.208 36.1575Z" fill="#1F78F0"></path><path d="M44 20C44 25.4115 43.8536 29.6517 43.7192 32.4035C43.6277 34.2769 41.8132 35.6219 39.9543 35.3714C36.9061 34.9606 31.7582 34.5 24 34.5C16.2418 34.5 11.0939 34.9606 8.0457 35.3714C6.18682 35.6219 4.37228 34.2769 4.28079 32.4035C4.14642 29.6517 4 25.4115 4 20C4 14.5885 4.14642 10.3483 4.28079 7.59654C4.37228 5.72309 6.18682 4.37815 8.0457 4.62863C11.0939 5.03937 16.2418 5.5 24 5.5C31.7582 5.5 36.9061 5.03937 39.9543 4.62863C41.8132 4.37815 43.6277 5.72309 43.7192 7.59654C43.8536 10.3483 44 14.5885 44 20Z" fill="#1F78F0"></path><path fill-rule="evenodd" clip-rule="evenodd" d="M43.8237 29.9599C43.7899 30.8714 43.7542 31.6877 43.7192 32.4035C43.6277 34.2769 41.8132 35.6219 39.9543 35.3714C36.9061 34.9606 31.7582 34.5 24 34.5C16.2418 34.5 11.0939 34.9606 8.0457 35.3714C6.18682 35.6219 4.37228 34.2769 4.28079 32.4035C4.24585 31.6877 4.21008 30.8714 4.17629 29.9599C15.7369 27.3467 32.2631 27.3467 43.8237 29.9599Z" fill="#91BEFF"></path></g></svg>