<svg viewBox="0 0 24 24" fill="none" xmlns="http://www.w3.org/2000/svg">




<g transform="matrix(0.5,0,0,0.5,0,0)"><path d="M37.8426 3.61261C39.3688 3.79773 40.5605 4.78424 40.8637 6.2914C41.3768 8.84091 42 13.9967 42 24C42 32.7929 41.7325 37.8404 41.4742 40.6647C41.2831 42.7532 39.7432 44.2505 37.6563 44.4584C35.0158 44.7215 30.6499 45 24 45C17.3501 45 12.9842 44.7215 10.3438 44.4584C8.25678 44.2505 6.71685 42.7532 6.52583 40.6647C6.26753 37.8404 6.00001 32.7929 6 24C6 15.2071 6.26752 10.1596 6.52583 7.33534C6.71685 5.24676 8.25678 3.74954 10.3437 3.54161C12.9842 3.27854 17.3501 3 24 3C31.2532 3 35.524 3.33137 37.8426 3.61261Z" fill="#1F78F0"></path><path fill-rule="evenodd" clip-rule="evenodd" d="M41.4091 10C41.2346 8.38426 41.0425 7.17965 40.8637 6.2914C40.5605 4.78424 39.3688 3.79773 37.8426 3.61261C35.524 3.33137 31.2532 3 24 3C17.3501 3 12.9842 3.27854 10.3437 3.54162C8.25678 3.74954 6.71685 5.24676 6.52583 7.33534C6.459 8.06598 6.39156 8.94542 6.3283 10H41.4091ZM41.7759 36C41.6863 37.993 41.5794 39.5135 41.4742 40.6647C41.2831 42.7532 39.7432 44.2505 37.6562 44.4584C35.0158 44.7215 30.6499 45 24 45C17.3501 45 12.9842 44.7215 10.3438 44.4584C8.25678 44.2505 6.71685 42.7532 6.52583 40.6647C6.42054 39.5135 6.31373 37.993 6.22412 36H41.7759Z" fill="#91BEFF"></path><path d="M22.008 39.8266C22.0266 39.1075 22.4903 38.5653 23.2083 38.5219C23.43 38.5084 23.6919 38.5 24 38.5C24.3081 38.5 24.57 38.5084 24.7917 38.5219C25.5097 38.5653 25.9734 39.1075 25.992 39.8266C25.997 40.0192 26 40.2422 26 40.5C26 40.7578 25.997 40.9808 25.992 41.1734C25.9734 41.8925 25.5097 42.4347 24.7917 42.4781C24.57 42.4916 24.3081 42.5 24 42.5C23.6919 42.5 23.43 42.4916 23.2083 42.4781C22.4903 42.4347 22.0266 41.8925 22.008 41.1734C22.003 40.9808 22 40.7578 22 40.5C22 40.2422 22.003 40.0192 22.008 39.8266Z" fill="#1F78F0"></path><path fill-rule="evenodd" clip-rule="evenodd" d="M21.7944 26.2411C21.8534 25.6772 21.4398 25.1711 20.8743 25.1288C19.9674 25.061 19.1493 25.007 18.4825 24.9661C17.7018 24.9182 17.2743 24.046 17.7416 23.4188C19.1088 21.584 21.7034 18.3018 24.8257 15.3274C25.4566 14.7264 26.4608 15.2079 26.4119 16.0779C26.3131 17.8339 26.1866 19.3368 26.055 20.5935C25.996 21.1575 26.4096 21.6636 26.9751 21.7059C27.882 21.7737 28.7002 21.8276 29.367 21.8685C30.1476 21.9164 30.5752 22.7887 30.1078 23.4158C28.7406 25.2506 26.146 28.5328 23.0237 31.5072C22.3928 32.1083 21.3886 31.6268 21.4375 30.7568C21.5363 29.0007 21.6628 27.4978 21.7944 26.2411Z" fill="#91BEFF"></path></g></svg>