<svg viewBox="0 0 24 24" fill="none" xmlns="http://www.w3.org/2000/svg">





<g transform="matrix(0.5,0,0,0.5,0,0)"><path d="M24 32C32.7159 32 37.4752 36.3963 39.8744 39.8669C41.2692 41.8846 39.8071 44.2753 37.3624 44.4749C34.2009 44.7329 29.5811 45 24 45C18.4189 45 13.7991 44.7329 10.6376 44.4749C8.19287 44.2753 6.73077 41.8846 8.12555 39.8669C10.5248 36.3963 15.2841 32 24 32Z" fill="#1F78F0"></path><circle cx="24" cy="22" r="18" fill="#91BEFF"></circle><circle cx="24" cy="22" r="12" fill="#1F78F0"></circle><circle cx="24" cy="22" r="9" fill="#91BEFF"></circle><path fill-rule="evenodd" clip-rule="evenodd" d="M24 28C27.3137 28 30 25.3137 30 22C30 21.5369 29.9475 21.086 29.8482 20.6531C29.7593 20.2652 29.2435 20.1935 28.9103 20.4111C28.5336 20.657 28.0835 20.8 27.6 20.8C26.2745 20.8 25.2 19.7255 25.2 18.4C25.2 17.9165 25.343 17.4664 25.5889 17.0897C25.8065 16.7565 25.7348 16.2407 25.3469 16.1518C24.914 16.0525 24.4631 16 24 16C20.6863 16 18 18.6863 18 22C18 25.3137 20.6863 28 24 28Z" fill="#1F78F0"></path></g></svg>