<svg viewBox="0 0 24 24" fill="none" xmlns="http://www.w3.org/2000/svg">






<g transform="matrix(0.5,0,0,0.5,0,0)"><path d="M18.0199 29.4011C18.2945 30.0596 18.1908 30.8173 17.6302 31.2587C17.2478 31.5597 16.7363 31.8921 16.1015 32.1524C15.4668 32.4128 14.8692 32.5354 14.3856 32.5896C13.6765 32.669 13.0706 32.2025 12.8036 31.5408C11.6531 28.6899 8.43313 20.6013 5.9642 13.344C5.62637 12.3509 6.12554 11.2704 7.09597 10.8723C7.181 10.8374 7.26074 10.8047 7.33258 10.7753C7.40441 10.7458 7.48415 10.7131 7.56919 10.6782C8.53962 10.2801 9.6538 10.6989 10.1106 11.6431C13.4493 18.5436 16.837 26.5635 18.0199 29.4011Z" fill="#91BEFF"></path><path d="M29.9801 29.4011C29.7055 30.0596 29.8092 30.8173 30.3698 31.2587C30.7522 31.5597 31.2637 31.8921 31.8985 32.1524C32.5332 32.4128 33.1308 32.5354 33.6144 32.5896C34.3235 32.669 34.9294 32.2025 35.1964 31.5408C36.3469 28.6899 39.5669 20.6013 42.0358 13.344C42.3736 12.3509 41.8745 11.2704 40.904 10.8723C40.819 10.8374 40.7393 10.8047 40.6674 10.7753C40.5956 10.7458 40.5158 10.7131 40.4308 10.6782C39.4604 10.2801 38.3462 10.6989 37.8894 11.6431C34.5507 18.5436 31.163 26.5635 29.9801 29.4011Z" fill="#91BEFF"></path><path d="M25.8423 18.7139C26.8368 19.7084 26.8368 21.3209 25.8423 22.3154C24.8477 23.31 23.2353 23.31 22.2407 22.3154C21.2462 21.3209 21.2462 19.7084 22.2407 18.7139C23.2353 17.7193 24.8477 17.7193 25.8423 18.7139Z" fill="#1F78F0"></path><path fill-rule="evenodd" clip-rule="evenodd" d="M13.9975 8.16042L13.8827 8.27524C13.2461 8.91186 12.9509 9.83023 13.4942 10.5481C13.6302 10.7277 13.7958 10.9204 13.9975 11.1222C14.1992 11.3239 14.3919 11.4895 14.5716 11.6255C15.2894 12.1688 16.2078 11.8736 16.8444 11.237L17.3194 10.762C21.2309 6.8505 27.2126 7.21066 31.1241 11.1222L31.3661 11.3642C31.9287 11.9268 32.7195 12.2048 33.3661 11.7412C33.5811 11.587 33.8224 11.3856 34.0858 11.1222C34.3492 10.8588 34.5507 10.6175 34.7048 10.4025C35.1684 9.75583 34.8904 8.96507 34.3278 8.40246L34.0858 8.16042C28.5386 2.61319 19.5447 2.61319 13.9975 8.16042ZM17.9459 12.8558V12.8558C17.4713 13.3304 17.24 14.0053 17.6019 14.5706C17.7636 14.8231 17.9898 15.1142 18.3061 15.4305C18.6224 15.7468 18.9135 15.973 19.166 16.1346C19.7313 16.4966 20.4061 16.2653 20.8808 15.7906V15.7906C22.6265 14.0449 25.457 14.0449 27.2028 15.7906V15.7906C27.6812 16.269 28.3518 16.5121 28.9184 16.1425C29.1666 15.9805 29.4557 15.7523 29.7775 15.4305C30.0993 15.1087 30.3275 14.8196 30.4895 14.5714C30.8591 14.0048 30.616 13.3342 30.1377 12.8558V12.8558C26.771 9.48915 21.3126 9.48915 17.9459 12.8558Z" fill="#1F78F0"></path><path fill-rule="evenodd" clip-rule="evenodd" d="M40.4392 44.5072C42.1109 44.3645 43.4644 43.3237 43.7099 41.664C43.872 40.568 44 39.0527 44 37C44 35.1803 43.8994 33.7454 43.7637 32.6373C43.5148 30.6067 41.8155 29.3304 39.7715 29.2439C36.9881 29.126 32.1144 29 24 29C15.8856 29 11.0119 29.126 8.22851 29.2439C6.18451 29.3304 4.48517 30.6067 4.23634 32.6373C4.10057 33.7453 4 35.1803 4 37C4 38.8197 4.10057 40.2546 4.23634 41.3627C4.48517 43.3933 6.18451 44.6696 8.22851 44.7561C8.74714 44.7781 9.33833 44.8003 10.0095 44.822C10.0142 45.0996 10.0202 45.3384 10.027 45.543C10.0506 46.2633 10.4452 46.8773 11.1614 46.9575C11.3928 46.9834 11.6699 47 12 47C12.3301 47 12.6072 46.9834 12.8386 46.9575C13.5548 46.8773 13.9494 46.2633 13.973 45.543C13.979 45.3629 13.9843 45.1563 13.9887 44.92C16.5895 44.9674 19.8763 45 24 45C28.1231 45 31.4095 44.9414 34.0101 44.856C34.0147 45.1192 34.0205 45.3468 34.027 45.543C34.0506 46.2633 34.4452 46.8773 35.1614 46.9575C35.3928 46.9834 35.6699 47 36 47C36.3301 47 36.6072 46.9834 36.8386 46.9575C37.5548 46.8773 37.9494 46.2633 37.973 45.543C37.9809 45.3042 37.9878 45.0189 37.9927 44.6795C38.9703 44.6227 39.7782 44.5636 40.4392 44.5072Z" fill="#1F78F0"></path><path fill-rule="evenodd" clip-rule="evenodd" d="M9.00335 36.5527C9.01693 35.6897 9.57178 35.0449 10.4343 35.0106C10.6028 35.0039 10.7907 35 11 35C11.2093 35 11.3972 35.0039 11.5657 35.0106C12.4282 35.0449 12.9831 35.6897 12.9967 36.5527C12.9988 36.6887 13 36.8375 13 37C13 37.1625 12.9988 37.3113 12.9967 37.4473C12.9831 38.3103 12.4282 38.9551 11.5657 38.9894C11.3972 38.9961 11.2093 39 11 39C10.7907 39 10.6028 38.9961 10.4343 38.9894C9.57178 38.9551 9.01693 38.3103 9.00335 37.4473C9.00121 37.3113 9 37.1625 9 37C9 36.8375 9.00121 36.6887 9.00335 36.5527ZM25.0496 36.2044C25.1439 35.5178 25.7642 35.1605 26.4563 35.1217C27.4567 35.0656 29.2211 35 32 35C34.7789 35 36.5433 35.0656 37.5437 35.1217C38.2358 35.1605 38.8561 35.5178 38.9504 36.2044C38.9806 36.4241 39 36.6871 39 37C39 37.3129 38.9806 37.5759 38.9504 37.7956C38.8561 38.4822 38.2358 38.8395 37.5437 38.8783C36.5433 38.9344 34.7789 39 32 39C29.2211 39 27.4567 38.9344 26.4563 38.8783C25.7642 38.8395 25.1439 38.4822 25.0496 37.7956C25.0194 37.5759 25 37.3129 25 37C25 36.6871 25.0194 36.4241 25.0496 36.2044ZM17.4343 35.0106C16.5718 35.0449 16.0169 35.6897 16.0033 36.5527C16.0012 36.6887 16 36.8375 16 37C16 37.1625 16.0012 37.3113 16.0033 37.4473C16.0169 38.3103 16.5718 38.9551 17.4343 38.9894C17.6028 38.9961 17.7907 39 18 39C18.2093 39 18.3972 38.9961 18.5657 38.9894C19.4282 38.9551 19.9831 38.3103 19.9967 37.4473C19.9988 37.3113 20 37.1625 20 37C20 36.8375 19.9988 36.6887 19.9967 36.5527C19.9831 35.6897 19.4282 35.0449 18.5657 35.0106C18.3972 35.0039 18.2093 35 18 35C17.7907 35 17.6028 35.0039 17.4343 35.0106Z" fill="#91BEFF"></path></g></svg>