<svg viewBox="0 0 24 24" fill="none" xmlns="http://www.w3.org/2000/svg">




<g transform="matrix(0.5,0,0,0.5,0,0)"><path fill-rule="evenodd" clip-rule="evenodd" d="M20.8683 3.23135C21.9958 3.06278 22.925 4.00238 23.3012 5.07858C23.8971 6.78371 25.2054 8.15447 26.8693 8.83411C27.6755 9.16337 28.3363 9.82413 28.6656 10.6303C29.6047 12.9294 31.8633 14.5494 34.5002 14.5494C34.5471 14.5494 34.5939 14.5489 34.6405 14.5479C35.5937 14.527 36.5506 14.9374 37.1928 15.642C38.3451 16.9061 40.005 17.6994 41.8502 17.6994C41.8793 17.6994 41.9083 17.6992 41.9372 17.6988C43.0523 17.6838 44.2238 18.2138 44.4723 19.3009C44.8176 20.8116 45 22.3843 45 23.9995C45 35.5976 35.5979 44.9997 23.9999 44.9997C12.4018 44.9997 2.99976 35.5976 2.99976 23.9995C2.99976 13.4657 10.7556 4.74334 20.8683 3.23135Z" fill="#91BEFF"></path><path d="M12 19C12 16.1324 13.8351 14.0219 16.7027 14.0011C16.7998 14.0004 16.8989 14 17 14C17.1011 14 17.2002 14.0004 17.2973 14.0011C20.1649 14.0219 22 16.1324 22 19V19V19C22 21.8676 20.1649 23.9781 17.2973 23.9989C17.2002 23.9996 17.1011 24 17 24C16.8989 24 16.7998 23.9996 16.7027 23.9989C13.8351 23.9781 12 21.8676 12 19V19V19Z" fill="#1F78F0"></path><path d="M16 34C16 31.7059 17.4681 30.0176 19.7621 30.0009C19.8398 30.0003 19.9191 30 20 30C20.0809 30 20.1602 30.0003 20.2379 30.0009C22.5319 30.0176 24 31.7059 24 34V34V34C24 36.2941 22.5319 37.9824 20.2379 37.9991C20.1602 37.9997 20.0809 38 20 38C19.9191 38 19.8398 37.9997 19.7621 37.9991C17.4681 37.9824 16 36.2941 16 34V34V34Z" fill="#1F78F0"></path><path d="M30 26C30 24.2795 31.1011 23.0132 32.8216 23.0006C32.8799 23.0002 32.9393 23 33 23C33.0607 23 33.1201 23.0002 33.1784 23.0006C34.8989 23.0132 36 24.2795 36 26V26V26C36 27.7205 34.8989 28.9868 33.1784 28.9994C33.1201 28.9998 33.0607 29 33 29C32.9393 29 32.8799 28.9998 32.8216 28.9994C31.1011 28.9868 30 27.7205 30 26V26V26Z" fill="#1F78F0"></path></g></svg>