<svg viewBox="0 0 24 24" fill="none" xmlns="http://www.w3.org/2000/svg">




<g transform="matrix(0.5,0,0,0.5,0,0)"><path d="M3 24C3 35.598 12.402 45 24 45C35.598 45 45 35.598 45 24C45 12.402 35.598 3 24 3C12.402 3 3 12.402 3 24Z" fill="#91BEFF"></path><path d="M12 18C12 15.1324 13.8351 13.0219 16.7027 13.0011C16.7998 13.0004 16.8989 13 17 13C17.1011 13 17.2002 13.0004 17.2973 13.0011C20.1649 13.0219 22 15.1324 22 18V18V18C22 20.8676 20.1649 22.9781 17.2973 22.9989C17.2002 22.9996 17.1011 23 17 23C16.8989 23 16.7998 22.9996 16.7027 22.9989C13.8351 22.9781 12 20.8676 12 18V18V18Z" fill="#1F78F0"></path><path d="M18 34C18 31.7059 19.4681 30.0176 21.7621 30.0009C21.8398 30.0003 21.9191 30 22 30C22.0809 30 22.1602 30.0003 22.2379 30.0009C24.5319 30.0176 26 31.7059 26 34V34V34C26 36.2941 24.5319 37.9824 22.2379 37.9991C22.1602 37.9997 22.0809 38 22 38C21.9191 38 21.8398 37.9997 21.7621 37.9991C19.4681 37.9824 18 36.2941 18 34V34V34Z" fill="#1F78F0"></path><path d="M32 23C32 21.2795 33.1011 20.0132 34.8216 20.0006C34.8799 20.0002 34.9393 20 35 20C35.0607 20 35.1201 20.0002 35.1784 20.0006C36.8989 20.0132 38 21.2795 38 23V23V23C38 24.7205 36.8989 25.9868 35.1784 25.9994C35.1201 25.9998 35.0607 26 35 26C34.9393 26 34.8799 25.9998 34.8216 25.9994C33.1011 25.9868 32 24.7205 32 23V23V23Z" fill="#1F78F0"></path></g></svg>