<svg viewBox="0 0 24 24" fill="none" xmlns="http://www.w3.org/2000/svg">



<g transform="matrix(0.5,0,0,0.5,0,0)"><path fill-rule="evenodd" clip-rule="evenodd" d="M24.0018 14.9741C23.2921 14.8269 23 14.0339 23 13.3091V13.3091C23 8.16782 26.1678 4 31.3091 4V4C32.0396 4 32.7372 4.32645 32.8877 5.04131C32.9536 5.35449 33 5.74953 33 6.24091C33 6.7323 32.9536 7.12733 32.8877 7.44052C32.7372 8.15538 32.0396 8.48183 31.3091 8.48183V8.48183C28.6431 8.48183 25.4818 10.6431 25.4818 13.3091V13.3091C25.4818 14.0339 25.1898 14.8269 24.4801 14.9741C24.4009 14.9906 24.3207 15 24.2409 15C24.1611 15 24.0809 14.9906 24.0018 14.9741Z" fill="#1F78F0"></path><path fill-rule="evenodd" clip-rule="evenodd" d="M24 42.3881C21.9061 43.4115 19.5506 44 17 44C10.3726 44 4 36 4 26.1176C4 16.2353 10.3726 12 17 12C19.1061 12 21.5905 12.5333 24 13.5447C26.4095 12.5333 28.8939 12 31 12C37.6274 12 44 16.2353 44 26.1176C44 36 37.6274 44 31 44C28.4494 44 26.0939 43.4115 24 42.3881Z" fill="#91BEFF"></path><path d="M17 3.88889C17 3.39797 17.398 3 17.8889 3V3C21.8162 3 25 6.18375 25 10.1111V10.1111C25 10.602 24.602 11 24.1111 11V11C20.1838 11 17 7.81625 17 3.88889V3.88889Z" fill="#1F78F0"></path></g></svg>