<svg viewBox="0 0 24 24" fill="none" xmlns="http://www.w3.org/2000/svg">







<g transform="matrix(0.5,0,0,0.5,0,0)"><path d="M4 35.625C4 38.1237 6.55329 39.7138 9.05055 39.7973C12.0517 39.8977 16.8624 40 24 40C31.1376 40 35.9483 39.8977 38.9495 39.7973C41.4467 39.7138 44 38.1237 44 35.625V35.625C44 35.4898 43.9899 35.3587 43.9718 35.2324C43.7794 33.8926 42.3141 33.3306 40.962 33.2685C38.4528 33.1532 33.3576 33 24 33C14.6424 33 9.54719 33.1532 7.03805 33.2685C5.68587 33.3306 4.22065 33.8926 4.02824 35.2324C4.01011 35.3587 4 35.4898 4 35.625V35.625Z" fill="#1F78F0"></path><path d="M43.962 27.3342C43.7863 25.8543 42.2639 25.2465 40.7745 25.1959C38.228 25.1092 33.1944 25 24 25C14.424 25 9.36138 25.1185 6.9212 25.2065C5.62612 25.2532 4.30116 25.7432 4.07911 27.02C4.0299 27.3029 4 27.6279 4 28C4 28.3721 4.0299 28.6971 4.07911 28.98C4.30116 30.2568 5.62613 30.7468 6.9212 30.7935C9.36138 30.8815 14.424 31 24 31C33.1944 31 38.228 30.8908 40.7745 30.8041C42.2639 30.7535 43.7863 30.1457 43.962 28.6658C43.9862 28.462 44 28.2404 44 28C44 27.7596 43.9862 27.538 43.962 27.3342Z" fill="#91BEFF"></path><path d="M4 20.5C4 13.6509 9.47013 8.3744 16.3148 8.12848C18.5044 8.04982 21.054 8 24 8C26.946 8 29.4956 8.04982 31.6852 8.12848C38.5299 8.3744 44 13.6509 44 20.5V20.5C44 21.7712 43.8906 22.9132 43.7459 23.8674C43.455 25.7856 41.9269 27.1347 39.9987 27.3491C37.2335 27.6565 32.289 28 24 28C15.711 28 10.7665 27.6565 8.00132 27.3491C6.07314 27.1347 4.54498 25.7856 4.25414 23.8674C4.10945 22.9132 4 21.7712 4 20.5V20.5Z" fill="#1F78F0"></path><circle cx="37.5" cy="17.5" r="2.5" fill="#91BEFF"></circle><circle cx="28" cy="14" r="2" fill="#91BEFF"></circle><circle cx="30.5" cy="20.5" r="1.5" fill="#91BEFF"></circle><path fill-rule="evenodd" clip-rule="evenodd" d="M11.045 34.5648C9.73139 33.7971 7.62479 34.0137 6.28193 34.2682C5.4669 34.4226 4.55781 34.369 4.03182 33.7276C3.86885 33.5289 3.73071 33.318 3.61381 33.1006C2.48488 31.0008 4.2161 28.5192 6.56705 28.1232C8.71898 27.7607 10.8855 28.1981 13.0022 29.4352C15.051 30.6327 16.9804 30.6327 19.0293 29.4352C22.3033 27.5216 25.6968 27.5216 28.9708 29.4352C31.0196 30.6327 32.949 30.6327 34.9979 29.4352C37.1144 28.1981 39.2809 27.7608 41.4328 28.1232C43.7839 28.5191 45.5151 31.0009 44.386 33.1008C44.2692 33.3181 44.1311 33.5289 43.9682 33.7275C43.4422 34.369 42.5331 34.4226 41.7181 34.2681C40.3752 34.0137 38.2686 33.7971 36.9551 34.5648C33.6811 36.4784 30.2876 36.4784 27.0136 34.5648C24.9647 33.3673 23.0353 33.3673 20.9865 34.5648C17.7125 36.4784 14.319 36.4784 11.045 34.5648Z" fill="#91BEFF"></path></g></svg>