<svg viewBox="0 0 24 24" fill="none" xmlns="http://www.w3.org/2000/svg">




<g transform="matrix(0.5,0,0,0.5,0,0)"><path d="M20.2299 10.0465C20.0741 9.39619 20.3042 8.72042 20.9279 8.47921C21.5559 8.23633 22.5416 8 24 8C25.4584 8 26.4441 8.23633 27.0721 8.47921C27.6958 8.72042 27.9259 9.39619 27.7701 10.0465C26.7229 14.4156 25 17 25 17H23C23 17 21.2771 14.4156 20.2299 10.0465Z" fill="#1F78F0"></path><path d="M4 32.6C4 22.2748 11.8204 14.0998 22.1451 14.0081C22.7452 14.0028 23.3633 14 24 14C24.6367 14 25.2548 14.0028 25.8549 14.0081C36.1796 14.0998 44 22.2748 44 32.6V32.6C44 33.2235 43.9357 33.7963 43.8406 34.3028C43.5465 35.8679 42.181 36.8662 40.6047 37.0927C37.8651 37.4864 32.6356 38 24 38C15.3644 38 10.1349 37.4864 7.39529 37.0927C5.81898 36.8662 4.45345 35.8679 4.15942 34.3028C4.06427 33.7963 4 33.2235 4 32.6V32.6Z" fill="#91BEFF"></path><path d="M3 39.625C3 42.1366 5.60037 43.7093 8.11066 43.7911C11.2471 43.8934 16.351 44 24 44C31.649 44 36.7529 43.8934 39.8893 43.7911C42.3996 43.7093 45 42.1366 45 39.625V39.625C45 39.458 44.9838 39.2974 44.9555 39.1442C44.7173 37.853 43.296 37.3355 41.9844 37.2763C39.4148 37.1602 34.0474 37 24 37C13.9526 37 8.58522 37.1602 6.01561 37.2763C4.70395 37.3355 3.28267 37.853 3.04445 39.1442C3.01619 39.2974 3 39.458 3 39.625V39.625Z" fill="#1F78F0"></path><path fill-rule="evenodd" clip-rule="evenodd" d="M30.6115 19.3403C30.9251 18.5735 31.8009 18.2061 32.5677 18.5197C35.7259 19.8113 38.2268 22.2856 39.5249 25.4272C39.8412 26.1929 39.477 27.07 38.7114 27.3863C37.9457 27.7027 37.0686 27.3385 36.7522 26.5728C35.7638 24.1806 33.8576 22.2885 31.4321 21.2965C30.6653 20.9829 30.2979 20.1071 30.6115 19.3403Z" fill="#1F78F0"></path></g></svg>