<svg viewBox="0 0 24 24" fill="none" xmlns="http://www.w3.org/2000/svg">



<g transform="matrix(0.5,0,0,0.5,0,0)"><path d="M6.47884 11.4845C6.64705 9.76633 7.77606 8.41068 9.46811 8.06812C11.9299 7.56972 16.405 7 24 7C31.595 7 36.0701 7.56972 38.5319 8.06812C40.2239 8.41068 41.353 9.76633 41.5212 11.4845C41.7508 13.8304 42 17.9907 42 25C42 32.0093 41.7508 36.1696 41.5212 38.5155C41.353 40.2337 40.2239 41.5893 38.5319 41.9319C36.0701 42.4303 31.595 43 24 43C16.405 43 11.9299 42.4303 9.46811 41.9319C7.77606 41.5893 6.64705 40.2337 6.47884 38.5155C6.24918 36.1696 6 32.0093 6 25C6 17.9907 6.24918 13.8304 6.47884 11.4845Z" fill="#91BEFF"></path><path d="M43.6957 12.9104C43.7657 14.048 42.854 15 41.7143 15H6.28556C5.14582 15 4.23416 14.048 4.30413 12.9104C4.38611 11.5775 4.47595 10.5174 4.56193 9.68481C4.73928 7.96757 5.86514 6.60848 7.55368 6.24901C10.2189 5.68162 15.2431 5 23.9999 5C32.7568 5 37.7809 5.68162 40.4462 6.24901C42.1347 6.60848 43.2606 7.96757 43.4379 9.68481C43.5239 10.5173 43.6137 11.5775 43.6957 12.9104Z" fill="#1F78F0"></path><path d="M15 22.1389C15 21.0901 15.8085 20.2225 16.8561 20.1717C18.4725 20.0932 21.0205 20 24 20C26.9795 20 29.5275 20.0932 31.1439 20.1717C32.1915 20.2225 33 21.0901 33 22.1389V22.8611C33 23.9099 32.1915 24.7775 31.1439 24.8283C29.5275 24.9068 26.9795 25 24 25C21.0205 25 18.4725 24.9068 16.8561 24.8283C15.8085 24.7775 15 23.9099 15 22.8611V22.1389Z" fill="#1F78F0"></path></g></svg>