<svg viewBox="0 0 24 24" fill="none" xmlns="http://www.w3.org/2000/svg">

<g transform="matrix(0.5,0,0,0.5,0,0)"><path d="M4.60323 9.03294C4.77541 7.12088 6.00714 5.55838 7.8892 5.17958C10.632 4.62754 15.5977 4 24 4C32.4023 4 37.368 4.62754 40.1108 5.17958C41.9929 5.55839 43.2246 7.12088 43.3968 9.03295C43.6686 12.0516 44 17.4792 44 26C44 33.5162 43.851 38.2156 43.6708 41.1505C43.4958 44.002 41.3091 44.9047 38.8919 43.3819L27.1982 36.0149C25.2438 34.7836 22.7562 34.7836 20.8018 36.0149L9.10809 43.3819C6.69092 44.9047 4.50424 44.002 4.3292 41.1505C4.14904 38.2156 4 33.5162 4 26C4 17.4792 4.33141 12.0516 4.60323 9.03294Z" fill="#91BEFF"></path></g></svg>