<svg viewBox="0 0 24 24" fill="none" xmlns="http://www.w3.org/2000/svg">






<g transform="matrix(0.5,0,0,0.5,0,0)"><path fill-rule="evenodd" clip-rule="evenodd" d="M4.95202 40.8405C9.12413 39.4253 16.9688 37.5873 23.5296 40.7625C23.8262 40.906 24.1738 40.906 24.4704 40.7625C31.0312 37.5873 38.8759 39.4253 43.048 40.8405C44.4426 41.3136 46 40.2942 46 38.8215V16.9594C46 15.7689 45.3007 14.6741 44.1671 14.3103C38.2289 12.4047 29.9092 12.5776 24.4033 14.8291C24.1443 14.935 23.8557 14.935 23.5967 14.8291C18.0908 12.5776 9.77112 12.4047 3.83294 14.3103C2.69931 14.6741 2 15.7689 2 16.9594V38.8215C2 40.2942 3.55737 41.3136 4.95202 40.8405Z" fill="#1F78F0"></path><path d="M41 32.9102C41 33.5075 40.4758 33.9701 39.8808 33.9157C32.2778 33.2215 29.1993 34.8815 24.9259 37.4438C24.3478 37.7904 23.638 37.8159 23.0122 37.5655C17.9538 35.5412 10.6603 35.4801 5.46682 37.3821C4.77443 37.6356 4 37.144 4 36.4067V13.2552C4 12.4877 4.43545 11.779 5.15093 11.5012C10.3611 9.47839 17.8503 9.49983 23.0122 11.5655C23.638 11.8159 24.3478 11.7904 24.9259 11.4438C29.0822 8.95252 32.1082 7.32432 39.2657 8.02889C40.2605 8.12681 41 8.97935 41 9.9789V32.9102Z" fill="#91BEFF"></path><path fill-rule="evenodd" clip-rule="evenodd" d="M9.22696 30.399C8.59505 30.5081 8 30.0329 8 29.3916V28.9421C8 28.4748 8.32315 28.0677 8.78213 27.9799C12.1263 27.34 15.8737 27.34 19.2179 27.9799C19.6769 28.0677 20 28.4748 20 28.9421V29.3916C20 30.0329 19.4049 30.5081 18.773 30.399C15.6929 29.867 12.3071 29.867 9.22696 30.399Z" fill="#1F78F0"></path><path fill-rule="evenodd" clip-rule="evenodd" d="M9.22696 24.399C8.59505 24.5081 8 24.0329 8 23.3916V22.9421C8 22.4748 8.32315 22.0677 8.78213 21.9799C12.1263 21.34 15.8737 21.34 19.2179 21.9799C19.6769 22.0677 20 22.4748 20 22.9421V23.3916C20 24.0329 19.4049 24.5081 18.773 24.399C15.6929 23.867 12.3071 23.867 9.22696 24.399Z" fill="#1F78F0"></path><path fill-rule="evenodd" clip-rule="evenodd" d="M9.22696 18.399C8.59505 18.5081 8 18.0329 8 17.3916V16.9421C8 16.4748 8.32315 16.0677 8.78213 15.9799C12.1263 15.34 15.8737 15.34 19.2179 15.9799C19.6769 16.0677 20 16.4748 20 16.9421V17.3916C20 18.0329 19.4049 18.5081 18.773 18.399C15.6929 17.867 12.3071 17.867 9.22696 18.399Z" fill="#1F78F0"></path><path fill-rule="evenodd" clip-rule="evenodd" d="M23 11.5607C23.0041 11.5623 23.0081 11.5639 23.0122 11.5655C23.638 11.816 24.3478 11.7904 24.9259 11.4439C24.9506 11.429 24.9753 11.4142 25 11.3995V37.3994C24.9753 37.4142 24.9506 37.429 24.9259 37.4438C24.3478 37.7904 23.638 37.816 23.0122 37.5656C23.0081 37.5639 23.0041 37.5623 23 37.5607V11.5607Z" fill="#1F78F0"></path></g></svg>