<svg viewBox="0 0 24 24" fill="none" xmlns="http://www.w3.org/2000/svg">









<g transform="matrix(0.5,0,0,0.5,0,0)"><path fill-rule="evenodd" clip-rule="evenodd" d="M4.95202 40.8405C9.12413 39.4253 16.9688 37.5873 23.5296 40.7625C23.8262 40.906 24.1738 40.906 24.4704 40.7625C31.0312 37.5873 38.8759 39.4253 43.048 40.8405C44.4426 41.3136 46 40.2942 46 38.8215V16.9594C46 15.7689 45.3007 14.6741 44.1671 14.3103C38.2289 12.4047 29.9092 12.5776 24.4033 14.8291C24.1443 14.935 23.8557 14.935 23.5967 14.8291C18.0908 12.5776 9.77112 12.4047 3.83294 14.3103C2.69931 14.6741 2 15.7689 2 16.9594V38.8215C2 40.2942 3.55737 41.3136 4.95202 40.8405Z" fill="#1F78F0"></path><path fill-rule="evenodd" clip-rule="evenodd" d="M42.5332 37.3821C37.3033 35.4667 29.9439 35.5422 24.8818 37.6083C24.3169 37.8389 23.6831 37.8389 23.1182 37.6083C18.0561 35.5422 10.6967 35.4667 5.46682 37.3821C4.77443 37.6356 4 37.144 4 36.4067V13.2552C4 12.4877 4.43545 11.779 5.15093 11.5012C10.3969 9.46449 17.9534 9.50022 23.1183 11.6084C23.6832 11.8389 24.3168 11.8389 24.8817 11.6084C30.0466 9.50022 37.6031 9.46449 42.8491 11.5012C43.5646 11.779 44 12.4877 44 13.2552V36.4067C44 37.144 43.2256 37.6356 42.5332 37.3821Z" fill="#91BEFF"></path><path fill-rule="evenodd" clip-rule="evenodd" d="M9.22696 30.399C8.59505 30.5081 8 30.0329 8 29.3916V28.9421C8 28.4748 8.32315 28.0677 8.78213 27.9799C12.1263 27.34 15.8737 27.34 19.2179 27.9799C19.6769 28.0677 20 28.4748 20 28.9421V29.3916C20 30.0329 19.4049 30.5081 18.773 30.399C15.6929 29.867 12.3071 29.867 9.22696 30.399Z" fill="#1F78F0"></path><path fill-rule="evenodd" clip-rule="evenodd" d="M9.22696 24.399C8.59505 24.5081 8 24.0329 8 23.3916V22.9421C8 22.4748 8.32315 22.0677 8.78213 21.9799C12.1263 21.34 15.8737 21.34 19.2179 21.9799C19.6769 22.0677 20 22.4748 20 22.9421V23.3916C20 24.0329 19.4049 24.5081 18.773 24.399C15.6929 23.867 12.3071 23.867 9.22696 24.399Z" fill="#1F78F0"></path><path fill-rule="evenodd" clip-rule="evenodd" d="M9.22696 18.399C8.59505 18.5081 8 18.0329 8 17.3916V16.9421C8 16.4748 8.32315 16.0677 8.78213 15.9799C12.1263 15.34 15.8737 15.34 19.2179 15.9799C19.6769 16.0677 20 16.4748 20 16.9421V17.3916C20 18.0329 19.4049 18.5081 18.773 18.399C15.6929 17.867 12.3071 17.867 9.22696 18.399Z" fill="#1F78F0"></path><path fill-rule="evenodd" clip-rule="evenodd" d="M38.773 30.399C39.4049 30.5081 40 30.0329 40 29.3916V28.9421C40 28.4748 39.6769 28.0677 39.2179 27.9799C35.8737 27.34 32.1263 27.34 28.7821 27.9799C28.3231 28.0677 28 28.4748 28 28.9421V29.3916C28 30.0329 28.5951 30.5081 29.227 30.399C32.3071 29.867 35.6929 29.867 38.773 30.399Z" fill="#1F78F0"></path><path fill-rule="evenodd" clip-rule="evenodd" d="M38.773 24.399C39.4049 24.5081 40 24.0329 40 23.3916V22.9421C40 22.4748 39.6769 22.0677 39.2179 21.9799C35.8737 21.34 32.1263 21.34 28.7821 21.9799C28.3231 22.0677 28 22.4748 28 22.9421V23.3916C28 24.0329 28.5951 24.5081 29.227 24.399C32.3071 23.867 35.6929 23.867 38.773 24.399Z" fill="#1F78F0"></path><path fill-rule="evenodd" clip-rule="evenodd" d="M38.773 18.399C39.4049 18.5081 40 18.0329 40 17.3916V16.9421C40 16.4748 39.6769 16.0677 39.2179 15.9799C35.8737 15.34 32.1263 15.34 28.7821 15.9799C28.3231 16.0677 28 16.4748 28 16.9421V17.3916C28 18.0329 28.5951 18.5081 29.227 18.399C32.3071 17.867 35.6929 17.867 38.773 18.399Z" fill="#1F78F0"></path><path fill-rule="evenodd" clip-rule="evenodd" d="M23 11.5606C23.0396 11.5764 23.079 11.5923 23.1183 11.6084C23.6832 11.8389 24.3168 11.8389 24.8817 11.6084C24.921 11.5923 24.9604 11.5764 25 11.5606V37.5606C24.9605 37.5764 24.9211 37.5923 24.8818 37.6083C24.3169 37.8389 23.6831 37.8389 23.1182 37.6083C23.0789 37.5923 23.0395 37.5764 23 37.5606V11.5606Z" fill="#1F78F0"></path></g></svg>