<svg viewBox="0 0 24 24" fill="none" xmlns="http://www.w3.org/2000/svg">



<g transform="matrix(0.5,0,0,0.5,0,0)"><path d="M4.56198 8.68502C4.73932 6.96777 5.86521 5.60848 7.55375 5.24901C10.219 4.68162 15.2432 4 24 4C32.7568 4 37.781 4.68162 40.4463 5.24901C42.1348 5.60848 43.2607 6.96778 43.438 8.68502C43.701 11.2312 44 15.9061 44 24C44 32.0939 43.701 36.7688 43.438 39.315C43.2607 41.0322 42.1348 42.3915 40.4462 42.751C37.781 43.3184 32.7568 44 24 44C15.2432 44 10.219 43.3184 7.55375 42.751C5.86521 42.3915 4.73932 41.0322 4.56198 39.315C4.29904 36.7688 4 32.0939 4 24C4 15.9061 4.29904 11.2312 4.56198 8.68502Z" fill="#91BEFF"></path><path fill-rule="evenodd" clip-rule="evenodd" d="M43.806 14H4.19385C4.29986 11.6365 4.43509 9.91315 4.56192 8.68502C4.73926 6.96777 5.86515 5.60848 7.55369 5.24901C10.219 4.68162 15.2431 4 23.9999 4C32.7568 4 37.7809 4.68162 40.4462 5.24901C42.1347 5.60848 43.2606 6.96778 43.438 8.68502C43.5648 9.91315 43.7 11.6365 43.806 14Z" fill="#1F78F0"></path><path fill-rule="evenodd" clip-rule="evenodd" d="M20.3016 23.5185C21.1402 22.7997 21.2373 21.5371 20.5185 20.6985C19.7996 19.8598 18.537 19.7627 17.6984 20.4815L13.3558 24.2038C11.0277 26.1992 11.0277 29.8008 13.3558 31.7963L17.6984 35.5185C18.537 36.2374 19.7996 36.1403 20.5185 35.3016C21.2373 34.463 21.1402 33.2004 20.3016 32.4815L15.959 28.7593C15.4933 28.3602 15.4933 27.6399 15.9589 27.2408L20.3016 23.5185ZM27.6984 23.5185C26.8597 22.7997 26.7626 21.5371 27.4815 20.6985C28.2003 19.8598 29.4629 19.7627 30.3016 20.4815L34.6442 24.2038C36.9722 26.1992 36.9722 29.8008 34.6442 31.7963L30.3016 35.5185C29.4629 36.2374 28.2003 36.1403 27.4815 35.3016C26.7626 34.463 26.8597 33.2004 27.6984 32.4815L32.041 28.7593C32.5066 28.3602 32.5066 27.6399 32.041 27.2408L27.6984 23.5185Z" fill="#1F78F0"></path></g></svg>