<svg viewBox="0 0 24 24" fill="none" xmlns="http://www.w3.org/2000/svg">





<g transform="matrix(0.5,0,0,0.5,0,0)"><path d="M4.56198 8.68502C4.73932 6.96777 5.86521 5.60848 7.55375 5.24901C10.219 4.68162 15.2432 4 24 4C32.7568 4 37.781 4.68162 40.4463 5.24901C42.1348 5.60848 43.2607 6.96778 43.438 8.68502C43.701 11.2312 44 15.9061 44 24C44 32.0939 43.701 36.7688 43.438 39.315C43.2607 41.0322 42.1348 42.3915 40.4462 42.751C37.781 43.3184 32.7568 44 24 44C15.2432 44 10.219 43.3184 7.55375 42.751C5.86521 42.3915 4.73932 41.0322 4.56198 39.315C4.29904 36.7688 4 32.0939 4 24C4 15.9061 4.29904 11.2312 4.56198 8.68502Z" fill="#91BEFF"></path><path fill-rule="evenodd" clip-rule="evenodd" d="M43.806 14H4.19385C4.29986 11.6365 4.43509 9.91315 4.56192 8.68502C4.73926 6.96777 5.86515 5.60848 7.55369 5.24901C10.219 4.68162 15.2431 4 23.9999 4C32.7568 4 37.7809 4.68162 40.4462 5.24901C42.1347 5.60848 43.2606 6.96778 43.438 8.68502C43.5648 9.91315 43.7 11.6365 43.806 14Z" fill="#1F78F0"></path><path d="M9.17807 36.3873C9.2463 37.4257 9.8428 38.3034 10.8566 38.538C11.8797 38.7747 13.508 39 16 39C18.492 39 20.1203 38.7747 21.1434 38.538C22.1572 38.3034 22.7537 37.4257 22.8219 36.3873C22.9089 35.0637 23 32.776 23 29C23 25.224 22.9089 22.9363 22.8219 21.6127C22.7537 20.5743 22.1572 19.6966 21.1434 19.462C20.1203 19.2253 18.492 19 16 19C13.508 19 11.8797 19.2253 10.8566 19.462C9.8428 19.6966 9.2463 20.5743 9.17807 21.6127C9.09112 22.9363 9 25.224 9 29C9 32.776 9.09112 35.0637 9.17807 36.3873Z" fill="#1F78F0"></path><path d="M27.0747 25.2247C27.145 26.1064 27.7806 26.7306 28.6603 26.8225C29.5409 26.9145 30.9191 27 33 27C35.0809 27 36.4591 26.9145 37.3397 26.8225C38.2194 26.7306 38.855 26.1064 38.9253 25.2247C38.968 24.6906 39 23.9674 39 23C39 22.0326 38.968 21.3094 38.9253 20.7753C38.855 19.8936 38.2194 19.2694 37.3397 19.1775C36.4591 19.0855 35.0809 19 33 19C30.9191 19 29.5409 19.0855 28.6603 19.1775C27.7806 19.2694 27.145 19.8936 27.0747 20.7753C27.032 21.3094 27 22.0326 27 23C27 23.9674 27.032 24.6906 27.0747 25.2247Z" fill="#1F78F0"></path><path d="M27.0747 37.2247C27.145 38.1064 27.7806 38.7306 28.6603 38.8225C29.5409 38.9145 30.9191 39 33 39C35.0809 39 36.4591 38.9145 37.3397 38.8225C38.2194 38.7306 38.855 38.1064 38.9253 37.2247C38.968 36.6906 39 35.9674 39 35C39 34.0326 38.968 33.3094 38.9253 32.7753C38.855 31.8936 38.2194 31.2694 37.3397 31.1775C36.4591 31.0855 35.0809 31 33 31C30.9191 31 29.5409 31.0855 28.6603 31.1775C27.7806 31.2694 27.145 31.8936 27.0747 32.7753C27.032 33.3094 27 34.0326 27 35C27 35.9674 27.032 36.6906 27.0747 37.2247Z" fill="#1F78F0"></path></g></svg>