<svg viewBox="0 0 24 24" fill="none" xmlns="http://www.w3.org/2000/svg">




<g transform="matrix(0.5,0,0,0.5,0,0)"><path fill-rule="evenodd" clip-rule="evenodd" d="M25.0001 26.4015C29.1718 24.2653 32.3574 21.6803 34.5541 19.5512C35.7731 18.3697 36.6847 17.3315 37.2884 16.593C37.5902 16.2239 37.8148 15.93 37.9622 15.7311C38.0358 15.6316 38.0902 15.556 38.1252 15.5065C38.1426 15.4818 38.1553 15.4636 38.1631 15.4523L38.1712 15.4406L38.1721 15.4393L38.1723 15.4389C38.4821 14.9819 39.1036 14.8624 39.5608 15.172C40.0181 15.4816 40.1378 16.1033 39.8281 16.5607L39.0001 16C39.8281 16.5607 39.828 16.5609 39.8277 16.5613L39.8272 16.562L39.8258 16.5641L39.8217 16.5702L39.8078 16.5903C39.7961 16.6073 39.7794 16.6311 39.7579 16.6616C39.7147 16.7226 39.6519 16.8101 39.5693 16.9215C39.4041 17.1445 39.16 17.4636 38.8368 17.8589C38.1905 18.6493 37.2271 19.7456 35.9461 20.9873C33.3856 23.469 29.5445 26.5424 24.4192 28.908C24.1533 29.0307 23.8469 29.0307 23.581 28.908C18.4557 26.5424 14.6146 23.469 12.0541 20.9873C10.7731 19.7456 9.80965 18.6493 9.16343 17.8589C8.84022 17.4636 8.59607 17.1445 8.43092 16.9215C8.34833 16.8101 8.28548 16.7226 8.24234 16.6616C8.22077 16.6311 8.20413 16.6073 8.19242 16.5903L8.17854 16.5702L8.17437 16.5641L8.17298 16.562L8.17246 16.5613C8.17225 16.5609 8.17205 16.5607 9.0001 16L8.17205 16.5607C7.86241 16.1033 7.98212 15.4816 8.43944 15.172C8.89652 14.8625 9.51785 14.9819 9.82766 15.4386L9.82768 15.4386L9.82898 15.4406L9.83708 15.4523C9.8449 15.4636 9.85755 15.4818 9.87505 15.5065C9.91003 15.556 9.96437 15.6316 10.038 15.7311C10.1854 15.93 10.41 16.2239 10.7118 16.593C11.3155 17.3315 12.2271 18.3697 13.4461 19.5512C15.6428 21.6803 18.8284 24.2653 23.0001 26.4015V14H25.0001V26.4015Z" fill="#1F78F0"></path><path fill-rule="evenodd" clip-rule="evenodd" d="M7.58613 16.6578C6.86024 16.8181 6.11576 16.2391 6.28262 15.5147C7.79054 8.9683 15.1492 4 23.9999 4C32.8505 4 40.2092 8.96831 41.7171 15.5147C41.884 16.2391 41.1395 16.8181 40.4136 16.6578C38.5839 16.2538 35.9401 16 32.9999 16C29.3317 16 26.1249 16.395 24.3847 16.9839C24.1349 17.0685 23.8649 17.0685 23.6151 16.9839C21.8749 16.395 18.668 16 14.9999 16C12.0597 16 9.41584 16.2538 7.58613 16.6578Z" fill="#1F78F0"></path><path d="M12.1741 29.6641C12.3142 27.8956 13.5572 26.6066 15.3191 26.3995C17.0801 26.1926 19.8371 26 24 26C28.1629 26 30.9199 26.1926 32.6809 26.3995C34.4428 26.6066 35.6858 27.8956 35.8259 29.6641C35.9232 30.8925 36 32.617 36 35C36 37.383 35.9232 39.1075 35.8259 40.3359C35.6858 42.1044 34.4428 43.3934 32.6809 43.6005C30.9199 43.8074 28.1629 44 24 44C19.8371 44 17.0801 43.8074 15.3191 43.6005C13.5572 43.3934 12.3142 42.1044 12.1741 40.3359C12.0768 39.1075 12 37.383 12 35C12 32.617 12.0768 30.8925 12.1741 29.6641Z" fill="#91BEFF"></path><path fill-rule="evenodd" clip-rule="evenodd" d="M32.1663 36.9622C32.6504 36.9363 33 36.5358 33 36.051V35.949C33 35.4643 32.6504 35.0637 32.1663 35.0378C31.7779 35.0171 31.235 35 30.5 35C29.765 35 29.2221 35.0171 28.8337 35.0378C28.3496 35.0637 28 35.4642 28 35.949V36.051C28 36.5357 28.3496 36.9363 28.8337 36.9622C29.2221 36.9829 29.765 37 30.5 37C31.235 37 31.7779 36.9829 32.1663 36.9622ZM32.1136 40.9414C32.6161 40.9187 33 40.503 33 40C33 39.497 32.6161 39.0813 32.1136 39.0586C31.4781 39.0298 30.5008 39 29.1818 39C28.0734 39 27.3269 39.0211 26.8374 39.0449C26.352 39.0684 26 39.4657 26 39.9516V40.0484C26 40.5343 26.352 40.9316 26.8374 40.9551C27.3269 40.9789 28.0734 41 29.1818 41C30.5008 41 31.4781 40.9702 32.1136 40.9414Z" fill="#1F78F0"></path></g></svg>