<svg viewBox="0 0 24 24" fill="none" xmlns="http://www.w3.org/2000/svg">







<g transform="matrix(0.5,0,0,0.5,0,0)"><path d="M8.3264 10.0049C8.50109 8.24121 9.74045 6.93478 11.4943 6.67928C13.7562 6.34978 17.6522 6 24 6C30.3478 6 34.2438 6.34978 36.5057 6.67928C38.2595 6.93478 39.4989 8.24121 39.6736 10.0049C39.8443 11.7279 40 14.4184 40 18.5C40 22.5816 39.8443 25.2721 39.6736 26.9951C39.4989 28.7588 38.2595 30.0652 36.5057 30.3207C34.2438 30.6502 30.3478 31 24 31C17.6522 31 13.7562 30.6502 11.4943 30.3207C9.74046 30.0652 8.50109 28.7588 8.3264 26.9951C8.15574 25.2721 8 22.5816 8 18.5C8 14.4184 8.15574 11.7279 8.3264 10.0049Z" fill="#91BEFF"></path><path fill-rule="evenodd" clip-rule="evenodd" d="M20.1401 6.0473C21.3128 6.0171 22.5965 6 24 6C25.3863 6 26.6557 6.01668 27.8166 6.04619L27.3482 10.9249C27.313 11.292 26.906 11.4959 26.5909 11.3044L25.6908 10.7575C25.5103 10.6478 25.2804 10.6634 25.1164 10.7963L24.3048 11.4538C24.116 11.6067 23.8447 11.6019 23.6615 11.4423L22.9351 10.8092C22.7741 10.6689 22.5416 10.6464 22.3566 10.7532L21.3579 11.3296C21.0428 11.5116 20.645 11.3066 20.6103 10.9444L20.1401 6.0473Z" fill="#1F78F0"></path><path fill-rule="evenodd" clip-rule="evenodd" d="M34.6665 21.7813C35.1504 21.7522 35.5002 21.3506 35.5002 20.8658V20.4675C35.5002 19.9828 35.1504 19.5811 34.6665 19.552C34.2069 19.5244 33.5324 19.5 32.5835 19.5C31.6346 19.5 30.9601 19.5244 30.5005 19.552C30.0166 19.5811 29.6668 19.9828 29.6668 20.4675L29.6668 20.8658C29.6668 21.3506 30.0166 21.7522 30.5005 21.7813C30.9601 21.8089 31.6346 21.8333 32.5835 21.8333C33.5324 21.8333 34.2069 21.8089 34.6665 21.7813ZM34.5865 26.4261C35.1045 26.4013 35.5002 25.9724 35.5002 25.4539V25.2128C35.5002 24.6942 35.1045 24.2654 34.5865 24.2406C33.8506 24.2055 32.6704 24.1667 31.0456 24.1667C29.6417 24.1667 28.7356 24.1956 28.1703 24.2262C27.6851 24.2524 27.3335 24.6509 27.3335 25.1368L27.3335 25.5298C27.3335 26.0158 27.6851 26.4143 28.1703 26.4405C28.7356 26.471 29.6417 26.5 31.0456 26.5C32.6704 26.5 33.8506 26.4612 34.5865 26.4261Z" fill="#1F78F0"></path><path d="M44 37C44 32.8681 40.7697 30.3976 36.6415 30.2225C33.7313 30.099 29.6398 30 24 30C18.3602 30 14.2687 30.099 11.3585 30.2225C7.23033 30.3976 4 32.8681 4 37V37V37C4 41.1319 7.23033 43.6024 11.3585 43.7775C14.2687 43.901 18.3602 44 24 44C29.6398 44 33.7313 43.901 36.6415 43.7775C40.7697 43.6024 44 41.1319 44 37V37V37Z" fill="#1F78F0"></path><circle r="3" transform="matrix(-1 0 0 1 12 37)" fill="#91BEFF"></circle><circle r="3" transform="matrix(-1 0 0 1 24 37)" fill="#91BEFF"></circle><circle r="3" transform="matrix(-1 0 0 1 36 37)" fill="#91BEFF"></circle></g></svg>