<svg viewBox="0 0 24 24" fill="none" xmlns="http://www.w3.org/2000/svg">



<g transform="matrix(0.5,0,0,0.5,0,0)"><path fill-rule="evenodd" clip-rule="evenodd" d="M34.9739 6.42957C32.7363 5.81931 30.6129 6.76102 28.8636 8.91025C27.0952 11.083 25.9999 14.2039 25.9999 17L21.9999 17C21.9999 14.2039 20.9046 11.0829 19.1363 8.91023C17.387 6.76101 15.2638 5.81931 13.0261 6.42957C11.5031 6.84493 10.6974 8.31173 10.9214 10.0582C11.1402 11.7647 12.2543 13 14.0001 13V17C9.74612 17 7.36014 13.7354 6.95384 10.5669C6.55266 7.43833 7.99674 3.65513 11.9737 2.57051C16.2362 1.40801 19.8629 3.46629 22.2386 6.38525C22.9053 7.20442 23.4959 8.11323 23.9999 9.07927C24.504 8.11322 25.0946 7.2044 25.7613 6.38523C28.1371 3.46628 31.7639 1.40801 36.0264 2.57051C40.0033 3.65513 41.4474 7.43833 41.0462 10.5669C40.6399 13.7354 38.2539 17 33.9999 17V13C35.7458 13 36.8599 11.7647 37.0787 10.0582C37.3026 8.31172 36.4969 6.84493 34.9739 6.42957Z" fill="#1F78F0"></path><path d="M43.4949 40.0457C43.2845 41.9225 41.9177 43.2601 40.0386 43.4486C37.3869 43.7145 32.5493 44 24 44C15.4507 44 10.6131 43.7145 7.96144 43.4486C6.08232 43.2601 4.71553 41.9225 4.5051 40.0457C4.25341 37.801 4 34.0408 4 28C4 21.9592 4.25341 18.199 4.5051 15.9543C4.71553 14.0775 6.08232 12.7399 7.96144 12.5514C10.6131 12.2855 15.4507 12 24 12C32.5493 12 37.3869 12.2855 40.0386 12.5514C41.9177 12.7399 43.2845 14.0775 43.4949 15.9543C43.7466 18.199 44 21.9592 44 28C44 34.0408 43.7466 37.801 43.4949 40.0457Z" fill="#91BEFF"></path><path fill-rule="evenodd" clip-rule="evenodd" d="M27 12.0125C26.0547 12.0044 25.0556 12 24 12C22.9444 12 21.9453 12.0044 21 12.0125V25L4.02244 25C4.00795 25.9313 4 26.9298 4 28C4 29.0702 4.00795 30.0687 4.02244 31H21V43.9875C21.9453 43.9956 22.9444 44 24 44C25.0556 44 26.0547 43.9956 27 43.9875V31H43.9776C43.9921 30.0687 44 29.0702 44 28C44 26.9298 43.9921 25.9313 43.9776 25L27 25V12.0125Z" fill="#1F78F0"></path></g></svg>