<svg viewBox="0 0 24 24" fill="none" xmlns="http://www.w3.org/2000/svg">







<g transform="matrix(0.5,0,0,0.5,0,0)"><path d="M4.56198 8.68502C4.73932 6.96777 5.86521 5.60848 7.55375 5.24901C10.219 4.68162 15.2432 4 24 4C32.7568 4 37.781 4.68162 40.4463 5.24901C42.1348 5.60848 43.2607 6.96778 43.438 8.68502C43.701 11.2312 44 15.9061 44 24C44 32.0939 43.701 36.7688 43.438 39.315C43.2607 41.0322 42.1348 42.3915 40.4462 42.751C37.781 43.3184 32.7568 44 24 44C15.2432 44 10.219 43.3184 7.55375 42.751C5.86521 42.3915 4.73932 41.0322 4.56198 39.315C4.29904 36.7688 4 32.0939 4 24C4 15.9061 4.29904 11.2312 4.56198 8.68502Z" fill="#91BEFF"></path><path d="M10.0228 22.6511C10.0558 21.7885 10.6146 21.131 11.4746 21.0573C11.8696 21.0235 12.3705 21 13 21C13.6295 21 14.1304 21.0235 14.5254 21.0573C15.3854 21.131 15.9442 21.7885 15.9772 22.6511C15.9909 23.008 16 23.4517 16 24C16 24.5483 15.9909 24.992 15.9772 25.3489C15.9442 26.2115 15.3854 26.869 14.5254 26.9427C14.1304 26.9765 13.6295 27 13 27C12.3705 27 11.8696 26.9765 11.4746 26.9427C10.6146 26.869 10.0558 26.2115 10.0228 25.3489C10.0091 24.992 10 24.5483 10 24C10 23.4517 10.0091 23.008 10.0228 22.6511Z" fill="#1F78F0"></path><path d="M20.1059 23.0025C20.2452 22.4284 20.8128 22.1737 21.4029 22.1437C22.5679 22.0846 24.9431 22 29 22C33.0569 22 35.4321 22.0846 36.5971 22.1437C37.1872 22.1737 37.7548 22.4284 37.8941 23.0025C37.956 23.2575 38 23.5848 38 24C38 24.4152 37.956 24.7425 37.8941 24.9975C37.7548 25.5716 37.1872 25.8263 36.5971 25.8563C35.4321 25.9154 33.0569 26 29 26C24.9431 26 22.5679 25.9154 21.4029 25.8563C20.8128 25.8263 20.2452 25.5716 20.1059 24.9975C20.044 24.7425 20 24.4152 20 24C20 23.5848 20.044 23.2575 20.1059 23.0025Z" fill="#1F78F0"></path><path d="M10.0228 32.6511C10.0558 31.7885 10.6146 31.131 11.4746 31.0573C11.8696 31.0235 12.3705 31 13 31C13.6295 31 14.1304 31.0235 14.5254 31.0573C15.3854 31.131 15.9442 31.7885 15.9772 32.6511C15.9909 33.008 16 33.4517 16 34C16 34.5483 15.9909 34.992 15.9772 35.3489C15.9442 36.2115 15.3854 36.869 14.5254 36.9427C14.1304 36.9765 13.6295 37 13 37C12.3705 37 11.8696 36.9765 11.4746 36.9427C10.6146 36.869 10.0558 36.2115 10.0228 35.3489C10.0091 34.992 10 34.5483 10 34C10 33.4517 10.0091 33.008 10.0228 32.6511Z" fill="#1F78F0"></path><path d="M20.1059 33.0025C20.2452 32.4284 20.8128 32.1737 21.4029 32.1437C22.5679 32.0846 24.9431 32 29 32C33.0569 32 35.4321 32.0846 36.5971 32.1437C37.1872 32.1737 37.7548 32.4284 37.8941 33.0025C37.956 33.2575 38 33.5848 38 34C38 34.4152 37.956 34.7425 37.8941 34.9975C37.7548 35.5716 37.1872 35.8263 36.5971 35.8563C35.4321 35.9154 33.0569 36 29 36C24.9431 36 22.5679 35.9154 21.4029 35.8563C20.8128 35.8263 20.2452 35.5716 20.1059 34.9975C20.044 34.7425 20 34.4152 20 34C20 33.5848 20.044 33.2575 20.1059 33.0025Z" fill="#1F78F0"></path><path d="M10.0228 12.6511C10.0558 11.7885 10.6146 11.131 11.4746 11.0573C11.8696 11.0235 12.3705 11 13 11C13.6295 11 14.1304 11.0235 14.5254 11.0573C15.3854 11.131 15.9442 11.7885 15.9772 12.6511C15.9909 13.008 16 13.4517 16 14C16 14.5483 15.9909 14.992 15.9772 15.3489C15.9442 16.2115 15.3854 16.869 14.5254 16.9427C14.1304 16.9765 13.6295 17 13 17C12.3705 17 11.8696 16.9765 11.4746 16.9427C10.6146 16.869 10.0558 16.2115 10.0228 15.3489C10.0091 14.992 10 14.5483 10 14C10 13.4517 10.0091 13.008 10.0228 12.6511Z" fill="#1F78F0"></path><path d="M20.1059 13.0025C20.2452 12.4284 20.8128 12.1737 21.4029 12.1437C22.5679 12.0846 24.9431 12 29 12C33.0569 12 35.4321 12.0846 36.5971 12.1437C37.1872 12.1737 37.7548 12.4284 37.8941 13.0025C37.956 13.2575 38 13.5848 38 14C38 14.4152 37.956 14.7425 37.8941 14.9975C37.7548 15.5716 37.1872 15.8263 36.5971 15.8563C35.4321 15.9154 33.0569 16 29 16C24.9431 16 22.5679 15.9154 21.4029 15.8563C20.8128 15.8263 20.2452 15.5716 20.1059 14.9975C20.044 14.7425 20 14.4152 20 14C20 13.5848 20.044 13.2575 20.1059 13.0025Z" fill="#1F78F0"></path></g></svg>