<svg viewBox="0 0 24 24" fill="none" xmlns="http://www.w3.org/2000/svg">






<g transform="matrix(0.5,0,0,0.5,0,0)"><path d="M2.79728 12.0556C2.72862 10.2743 3.71918 8.74112 5.40888 8.17302C7.9741 7.31055 12.7913 6.03684 21.3361 4.76909C29.8808 3.50134 34.8604 3.32153 37.5655 3.40206C39.3473 3.4551 40.7404 4.63458 41.1919 6.35911C41.7777 8.59669 42.6211 12.4562 43.5533 18.7395C44.4855 25.0228 44.799 28.9609 44.8881 31.2722C44.9568 33.0535 43.9662 34.5866 42.2765 35.1547C39.7113 36.0172 34.8941 37.2909 26.3493 38.5587C17.8046 39.8264 12.825 40.0062 10.1199 39.9257C8.33806 39.8727 6.94504 38.6932 6.49355 36.9687C5.90774 34.7311 5.06434 30.8716 4.13211 24.5883C3.19988 18.305 2.88637 14.3669 2.79728 12.0556Z" fill="#1F78F0"></path><path d="M5.53925 12.5543C5.72805 10.7948 6.90475 9.42209 8.64346 9.09302C11.3071 8.5889 16.284 8 25 8C33.716 8 38.6929 8.5889 41.3565 9.09302C43.0953 9.42209 44.2719 10.7948 44.4607 12.5543C44.7179 14.9506 45 19.1423 45 26C45 32.8577 44.7179 37.0494 44.4607 39.4457C44.2719 41.2052 43.0953 42.5779 41.3565 42.907C38.6929 43.4111 33.716 44 25 44C16.284 44 11.3071 43.4111 8.64345 42.907C6.90475 42.5779 5.72805 41.2052 5.53925 39.4457C5.28211 37.0494 5 32.8577 5 26C5 19.1423 5.28211 14.9506 5.53925 12.5543Z" fill="#91BEFF"></path><path d="M25.1167 17.4841C25.1992 16.3137 25.9714 15.411 27.1344 15.2562C28.1606 15.1196 29.7124 15 32 15C34.2876 15 35.8394 15.1196 36.8656 15.2562C38.0286 15.411 38.8008 16.3137 38.8833 17.4841C38.947 18.3885 39 19.686 39 21.5C39 23.314 38.947 24.6115 38.8833 25.5159C38.8008 26.6863 38.0286 27.589 36.8656 27.7438C35.8394 27.8804 34.2876 28 32 28C29.7124 28 28.1606 27.8804 27.1344 27.7438C25.9714 27.589 25.1992 26.6863 25.1167 25.5159C25.053 24.6115 25 23.314 25 21.5C25 19.686 25.053 18.3885 25.1167 17.4841Z" fill="#1F78F0"></path><path d="M11 17C11 15.8954 11.8954 15 13 15H19C20.1046 15 21 15.8954 21 17V17C21 18.1046 20.1046 19 19 19H13C11.8954 19 11 18.1046 11 17V17Z" fill="#1F78F0"></path><path d="M11 26C11 24.8954 11.8954 24 13 24H19C20.1046 24 21 24.8954 21 26V26C21 27.1046 20.1046 28 19 28H13C11.8954 28 11 27.1046 11 26V26Z" fill="#1F78F0"></path><path d="M11 35C11 33.8954 11.8954 33 13 33H37C38.1046 33 39 33.8954 39 35V35C39 36.1046 38.1046 37 37 37H13C11.8954 37 11 36.1046 11 35V35Z" fill="#1F78F0"></path></g></svg>