<svg viewBox="0 0 24 24" fill="none" xmlns="http://www.w3.org/2000/svg">





<g transform="matrix(0.5,0,0,0.5,0,0)"><path fill-rule="evenodd" clip-rule="evenodd" d="M25.9999 12C25.9999 10.8954 25.1045 10 23.9999 10C22.8954 10 21.9999 10.8954 21.9999 12V26H12.7671C10.2119 26 8.06776 27.9266 7.79555 30.4673L7.0113 37.7869C6.89363 38.8852 7.68857 39.8709 8.78686 39.9886C9.88514 40.1063 10.8709 39.3113 10.9885 38.2131L11.7728 30.8935C11.8272 30.3853 12.256 30 12.7671 30H21.9999V38C21.9999 39.1046 22.8954 40 23.9999 40C25.1045 40 25.9999 39.1046 25.9999 38V30H35.2327C35.7438 30 36.1726 30.3853 36.2271 30.8935L37.0113 38.2131C37.129 39.3113 38.1147 40.1063 39.213 39.9886C40.3113 39.8709 41.1062 38.8852 40.9885 37.7869L40.2043 30.4673C39.9321 27.9266 37.788 26 35.2327 26H25.9999V12Z" fill="#1F78F0"></path><path d="M14.1687 19.305C14.2834 21.0276 15.405 22.3655 17.1142 22.608C18.5886 22.8173 20.794 23 24 23C27.206 23 29.4114 22.8173 30.8858 22.608C32.595 22.3655 33.7166 21.0276 33.8313 19.305C33.9232 17.9232 34 15.9008 34 13C34 10.0992 33.9232 8.07675 33.8313 6.69499C33.7166 4.97242 32.595 3.63454 30.8858 3.39197C29.4114 3.18273 27.206 3 24 3C20.794 3 18.5886 3.18273 17.1142 3.39197C15.405 3.63454 14.2834 4.97242 14.1687 6.69499C14.0768 8.07675 14 10.0992 14 13C14 15.9008 14.0768 17.9233 14.1687 19.305Z" fill="#91BEFF"></path><path d="M18.0456 41.6979C18.1117 43.423 19.2292 44.7381 20.9493 44.8854C21.7393 44.953 22.741 45 24 45C25.259 45 26.2607 44.953 27.0507 44.8854C28.7708 44.7381 29.8883 43.423 29.9544 41.6979C29.9817 40.984 30 40.0966 30 39C30 37.9034 29.9817 37.016 29.9544 36.3021C29.8883 34.577 28.7708 33.2619 27.0507 33.1146C26.2607 33.047 25.259 33 24 33C22.741 33 21.7393 33.047 20.9493 33.1146C19.2292 33.2619 18.1117 34.577 18.0456 36.3021C18.0183 37.016 18 37.9034 18 39C18 40.0966 18.0183 40.984 18.0456 41.6979Z" fill="#91BEFF"></path><path d="M3.04563 41.6979C3.11169 43.423 4.2292 44.7381 5.94928 44.8854C6.73925 44.953 7.74104 45 9 45C10.259 45 11.2607 44.953 12.0507 44.8854C13.7708 44.7381 14.8883 43.423 14.9544 41.6979C14.9817 40.984 15 40.0966 15 39C15 37.9034 14.9817 37.016 14.9544 36.3021C14.8883 34.577 13.7708 33.2619 12.0507 33.1146C11.2607 33.047 10.259 33 9 33C7.74104 33 6.73926 33.047 5.94929 33.1146C4.2292 33.2619 3.11169 34.577 3.04563 36.3021C3.0183 37.016 3 37.9034 3 39C3 40.0966 3.0183 40.984 3.04563 41.6979Z" fill="#91BEFF"></path><path d="M33.0456 41.6979C33.1117 43.423 34.2292 44.7381 35.9493 44.8854C36.7393 44.953 37.741 45 39 45C40.259 45 41.2607 44.953 42.0507 44.8854C43.7708 44.7381 44.8883 43.423 44.9544 41.6979C44.9817 40.984 45 40.0966 45 39C45 37.9034 44.9817 37.016 44.9544 36.3021C44.8883 34.577 43.7708 33.2619 42.0507 33.1146C41.2607 33.047 40.259 33 39 33C37.741 33 36.7393 33.047 35.9493 33.1146C34.2292 33.2619 33.1117 34.577 33.0456 36.3021C33.0183 37.016 33 37.9034 33 39C33 40.0966 33.0183 40.984 33.0456 41.6979Z" fill="#91BEFF"></path></g></svg>