<svg viewBox="0 0 24 24" fill="none" xmlns="http://www.w3.org/2000/svg">


<g transform="matrix(0.5,0,0,0.5,0,0)"><path d="M23.5159 4.87641C20.8164 4.67715 14.7771 4.34517 8.26318 4.74004C6.36286 4.85523 4.85534 6.36276 4.74014 8.26308C4.34528 14.777 4.67725 20.8163 4.87651 23.5158C4.94877 24.4947 5.28171 25.4242 5.85939 26.2178C8.0363 29.2083 14.2067 37.1268 22.7288 43.4061C24.1459 44.4503 25.9661 44.6568 27.4281 43.6765C29.2332 42.4662 32.0665 40.1959 36.0001 36C39.4968 32.2702 41.6892 29.6273 43.0336 27.8685C44.3411 26.1578 44.2796 23.8797 42.9829 22.1609C36.7754 13.9328 29.1415 7.98753 26.2179 5.85927C25.4243 5.28161 24.4948 4.94866 23.5159 4.87641Z" fill="#91BEFF"></path><circle cx="12" cy="12" r="3" fill="#1F78F0"></circle></g></svg>