<svg viewBox="0 0 24 24" fill="none" xmlns="http://www.w3.org/2000/svg">


<g transform="matrix(0.5,0,0,0.5,0,0)"><g clip-path="url(#clip0_589:2403)">
<path d="M4.16672 45.1438C9.42805 41.4833 18.4603 35.0121 24 30L18 24C12.9879 29.5397 6.51668 38.572 2.8562 43.8333C2.23052 44.7326 3.26741 45.7695 4.16672 45.1438Z" fill="#91BEFF"></path>
<path d="M45.4335 20.7323C45.824 20.2643 46.0551 19.689 46.0553 19.0796C46.0563 17.156 45.4744 12.4744 40.5 7.49995C35.5255 2.52549 30.8439 1.94367 28.9204 1.94458C28.311 1.94487 27.7356 2.17597 27.2677 2.56643C21.6819 7.2274 19.5522 17.0087 19.0976 19.4425C19.0423 19.7384 18.7465 19.9317 18.4521 19.869C16.8445 19.5268 12.0012 18.7965 7.99323 21.2967C7.35886 21.6924 7.09904 22.4586 7.35637 23.1606C8.03226 25.0045 9.87208 28.872 14.5 33.4999C19.1279 38.1279 22.9954 39.9677 24.8393 40.6436C25.5413 40.9009 26.3075 40.6411 26.7033 40.0067C29.2035 35.9988 28.4731 31.1555 28.1309 29.5479C28.0683 29.2534 28.2615 28.9577 28.5574 28.9024C30.9913 28.4478 40.7726 26.3181 45.4335 20.7323Z" fill="#1F78F0"></path>
</g><defs>
<clipPath id="clip0_589:2403">
<rect width="48" height="48" fill="white"></rect>
</clipPath>
</defs></g></svg>