<svg viewBox="0 0 24 24" fill="none" xmlns="http://www.w3.org/2000/svg">


<g transform="matrix(0.5,0,0,0.5,0,0)"><path d="M4.56198 8.68502C4.73932 6.96777 5.86521 5.60848 7.55375 5.24901C10.219 4.68162 15.2432 4 24 4C32.7568 4 37.781 4.68162 40.4463 5.24901C42.1348 5.60848 43.2607 6.96778 43.438 8.68502C43.701 11.2312 44 15.9061 44 24C44 32.0939 43.701 36.7688 43.438 39.315C43.2607 41.0322 42.1348 42.3915 40.4462 42.751C37.781 43.3184 32.7568 44 24 44C15.2432 44 10.219 43.3184 7.55375 42.751C5.86521 42.3915 4.73932 41.0322 4.56198 39.315C4.29904 36.7688 4 32.0939 4 24C4 15.9061 4.29904 11.2312 4.56198 8.68502Z" fill="#91BEFF"></path><path fill-rule="evenodd" clip-rule="evenodd" d="M43.8061 14C43.7001 11.6365 43.5648 9.91315 43.438 8.68502C43.2607 6.96778 42.1348 5.60848 40.4463 5.24901C37.781 4.68162 32.7568 4 24 4C15.2432 4 10.219 4.68162 7.55375 5.24901C5.86521 5.60848 4.73932 6.96777 4.56198 8.68502C4.43515 9.91315 4.29992 11.6365 4.19391 14H16.0238C16.012 16.2244 16.0035 18.8745 16.0009 22.0145C8.58358 22.0437 5.16438 22.1092 4.00548 22.1371C4.00188 22.7369 4 23.3577 4 24C4 24.292 4.00039 24.5796 4.00115 24.8628C5.15581 24.8906 8.57414 24.9563 16.0003 24.9855C16.0015 28.1012 16.0086 30.7585 16.0189 33.0144C8.88983 33.0424 5.44902 33.1039 4.15755 33.1335C4.19733 34.1494 4.2426 35.0582 4.29088 35.8695C5.67862 35.9001 9.12809 35.9586 16.0359 35.9856C16.0663 40.3733 16.1086 42.733 16.1323 43.7845C16.9831 43.8355 17.8928 43.8792 18.865 43.9137C18.8879 42.9341 18.9326 40.5663 18.9643 35.9946C20.4999 35.9981 22.175 36 24.0001 36C36.3865 36 41.8659 35.9101 43.7091 35.8695C43.7574 35.0582 43.8027 34.1494 43.8424 33.1335C42.1395 33.0945 36.7008 33 24.0001 33C22.1818 33 20.5123 33.0019 18.9813 33.0054C18.9917 30.7536 18.9987 28.1023 18.9999 24.9947C20.5258 24.9981 22.1891 25 24.0001 25C37.1196 25 42.4903 24.8991 43.9988 24.8628C43.9996 24.5796 44 24.292 44 24C44 23.3577 43.9981 22.7369 43.9945 22.1371C42.48 22.1007 37.1071 22 24.0001 22C22.1889 22 20.5254 22.0019 18.9993 22.0053C18.9967 18.8693 18.9882 16.2223 18.9764 14H43.8061Z" fill="#1F78F0"></path></g></svg>