<svg viewBox="0 0 24 24" fill="none" xmlns="http://www.w3.org/2000/svg">



<g transform="matrix(0.5,0,0,0.5,0,0)"><path fill-rule="evenodd" clip-rule="evenodd" d="M17.1831 10.4418C17.4646 8.18991 19.3789 6.5 21.6484 6.5H26.3517C28.6211 6.5 30.5354 8.18991 30.8169 10.4418L31.4884 15.8139L28.5116 16.1861L27.8401 10.8139C27.7463 10.0633 27.1082 9.5 26.3517 9.5H21.6484C20.8919 9.5 20.2538 10.0633 20.1599 10.8139L19.4884 16.1861L16.5116 15.8139L17.1831 10.4418Z" fill="#1F78F0"></path><path d="M4.50511 40.0457C4.71553 41.9225 6.08232 43.2601 7.96144 43.4486C10.6131 43.7145 15.4507 44 24 44C32.5493 44 37.3869 43.7145 40.0386 43.4486C41.9177 43.2601 43.2845 41.9225 43.4949 40.0457C43.7466 37.801 44 34.0408 44 28C44 21.9592 43.7466 18.199 43.4949 15.9543C43.2845 14.0775 41.9177 12.7399 40.0386 12.5514C37.3869 12.2855 32.5493 12 24 12C15.4507 12 10.6131 12.2855 7.96144 12.5514C6.08232 12.7399 4.71553 14.0775 4.50511 15.9543C4.25341 18.199 4 21.9592 4 28C4 34.0408 4.25341 37.801 4.50511 40.0457Z" fill="#91BEFF"></path><path fill-rule="evenodd" clip-rule="evenodd" d="M11 43.6862V12.3138C12.3589 12.2311 14.0072 12.1564 16 12.1006V43.8994C14.0072 43.8436 12.3589 43.7689 11 43.6862ZM37 43.6862C35.6411 43.7689 33.9928 43.8436 32 43.8994V12.1006C33.9928 12.1564 35.6411 12.2311 37 12.3138V43.6862Z" fill="#1F78F0"></path></g></svg>