<svg viewBox="0 0 24 24" fill="none" xmlns="http://www.w3.org/2000/svg">


<g transform="matrix(0.5,0,0,0.5,0,0)"><circle cx="24" cy="24" r="20" fill="#1F78F0"></circle><path fill-rule="evenodd" clip-rule="evenodd" d="M32.9438 13.2288C33.6696 13.8321 32.9438 15 32 15V15C27.0294 15 23 19.0294 23 24C23 28.9706 27.0294 33 32 33V33C32.9438 33 33.6696 34.1679 32.9438 34.7712C30.5182 36.7875 27.4007 38 24 38C16.268 38 10 31.732 10 24C10 16.268 16.268 10 24 10C27.4007 10 30.5182 11.2125 32.9438 13.2288Z" fill="#91BEFF"></path></g></svg>