<svg viewBox="0 0 24 24" fill="none" xmlns="http://www.w3.org/2000/svg">










<g transform="matrix(0.5,0,0,0.5,0,0)"><circle cx="24" cy="24" r="20" fill="#91BEFF"></circle><circle cx="24" cy="24" r="7" fill="#1F78F0"></circle><path d="M22.0039 10.9407C22.0196 9.83685 22.7728 9.00666 23.8768 9.00035C23.917 9.00012 23.9581 9 24 9C24.0419 9 24.083 9.00012 24.1232 9.00035C25.2272 9.00666 25.9804 9.83685 25.9961 10.9407C25.9986 11.1134 26 11.2997 26 11.5C26 11.7003 25.9986 11.8866 25.9961 12.0593C25.9804 13.1632 25.2272 13.9933 24.1232 13.9997C24.083 13.9999 24.0419 14 24 14C23.9581 14 23.917 13.9999 23.8768 13.9997C22.7728 13.9933 22.0196 13.1632 22.0039 12.0593C22.0014 11.8866 22 11.7003 22 11.5C22 11.2997 22.0014 11.1134 22.0039 10.9407Z" fill="#1F78F0"></path><path d="M22.0039 37.0593C22.0196 38.1632 22.7728 38.9933 23.8768 38.9997C23.917 38.9999 23.9581 39 24 39C24.0419 39 24.083 38.9999 24.1232 38.9997C25.2272 38.9933 25.9804 38.1632 25.9961 37.0593C25.9986 36.8866 26 36.7003 26 36.5C26 36.2997 25.9986 36.1134 25.9961 35.9407C25.9804 34.8368 25.2272 34.0067 24.1232 34.0003C24.083 34.0001 24.0419 34 24 34C23.9581 34 23.917 34.0001 23.8768 34.0003C22.7728 34.0067 22.0196 34.8368 22.0039 35.9407C22.0014 36.1134 22 36.2997 22 36.5C22 36.7003 22.0014 36.8866 22.0039 37.0593Z" fill="#1F78F0"></path><path d="M10.9407 25.9961C9.83685 25.9804 9.00666 25.2272 9.00035 24.1232C9.00012 24.083 9 24.0419 9 24C9 23.9581 9.00012 23.917 9.00035 23.8768C9.00666 22.7728 9.83685 22.0196 10.9407 22.0039C11.1134 22.0014 11.2997 22 11.5 22C11.7003 22 11.8866 22.0014 12.0593 22.0039C13.1632 22.0196 13.9933 22.7728 13.9997 23.8768C13.9999 23.917 14 23.9581 14 24C14 24.0419 13.9999 24.083 13.9997 24.1232C13.9933 25.2272 13.1632 25.9804 12.0593 25.9961C11.8866 25.9986 11.7003 26 11.5 26C11.2997 26 11.1134 25.9986 10.9407 25.9961Z" fill="#1F78F0"></path><path d="M37.0593 25.9961C38.1632 25.9804 38.9933 25.2272 38.9997 24.1232C38.9999 24.083 39 24.0419 39 24C39 23.9581 38.9999 23.917 38.9997 23.8768C38.9933 22.7728 38.1632 22.0196 37.0593 22.0039C36.8866 22.0014 36.7003 22 36.5 22C36.2997 22 36.1134 22.0014 35.9407 22.0039C34.8368 22.0196 34.0067 22.7728 34.0003 23.8768C34.0001 23.917 34 23.9581 34 24C34 24.0419 34.0001 24.083 34.0003 24.1232C34.0067 25.2272 34.8368 25.9804 35.9407 25.9961C36.1134 25.9986 36.2997 26 36.5 26C36.7003 26 36.8866 25.9986 37.0593 25.9961Z" fill="#1F78F0"></path><path d="M13.354 16.1771C12.5846 15.3855 12.5302 14.2659 13.3063 13.4808C13.3346 13.4522 13.3636 13.4231 13.3932 13.3934C13.4229 13.3638 13.452 13.3348 13.4806 13.3065C14.2657 12.5304 15.3853 12.5848 16.177 13.3542C16.3008 13.4746 16.4336 13.6053 16.5752 13.747C16.7168 13.8886 16.8476 14.0213 16.968 14.1452C17.7373 14.9369 17.7918 16.0565 17.0157 16.8415C16.9874 16.8702 16.9584 16.8993 16.9288 16.9289C16.8991 16.9586 16.87 16.9876 16.8414 17.0158C16.0563 17.792 14.9367 17.7375 14.145 16.9681C14.0211 16.8478 13.8884 16.717 13.7468 16.5754C13.6051 16.4337 13.4744 16.301 13.354 16.1771Z" fill="#1F78F0"></path><path d="M31.8229 34.6459C32.6145 35.4152 33.7341 35.4697 34.5192 34.6936C34.5478 34.6653 34.5769 34.6363 34.6066 34.6067C34.6362 34.577 34.6652 34.5479 34.6935 34.5193C35.4696 33.7342 35.4152 32.6146 34.6458 31.8229C34.5254 31.699 34.3947 31.5663 34.253 31.4247C34.1114 31.283 33.9787 31.1523 33.8548 31.0319C33.0631 30.2625 31.9435 30.2081 31.1585 30.9842C31.1298 31.0125 31.1007 31.0415 31.0711 31.0711C31.0414 31.1008 31.0124 31.1299 30.9842 31.1585C30.208 31.9436 30.2625 33.0632 31.0319 33.8549C31.1522 33.9787 31.283 34.1115 31.4246 34.2531C31.5663 34.3947 31.699 34.5255 31.8229 34.6459Z" fill="#1F78F0"></path><path d="M16.1771 34.6458C15.3855 35.4152 14.2659 35.4696 13.4808 34.6935C13.4522 34.6652 13.4231 34.6363 13.3934 34.6066C13.3638 34.5769 13.3348 34.5478 13.3065 34.5192C12.5304 33.7341 12.5848 32.6145 13.3542 31.8229C13.4746 31.699 13.6053 31.5663 13.747 31.4246C13.8886 31.283 14.0213 31.1522 14.1452 31.0319C14.9369 30.2625 16.0565 30.208 16.8415 30.9842C16.8702 31.0125 16.8993 31.0414 16.9289 31.0711C16.9586 31.1007 16.9876 31.1298 17.0158 31.1585C17.792 31.9435 17.7375 33.0631 16.9681 33.8548C16.8478 33.9787 16.717 34.1114 16.5754 34.253C16.4337 34.3947 16.301 34.5254 16.1771 34.6458Z" fill="#1F78F0"></path><path d="M34.646 16.1771C35.4154 15.3854 35.4698 14.2658 34.6937 13.4807C34.6654 13.4521 34.6364 13.423 34.6068 13.3933C34.5771 13.3637 34.548 13.3347 34.5194 13.3064C33.7343 12.5303 32.6147 12.5848 31.823 13.3541C31.6992 13.4745 31.5664 13.6053 31.4248 13.7469C31.2832 13.8885 31.1524 14.0213 31.032 14.1451C30.2627 14.9368 30.2082 16.0564 30.9843 16.8415C31.0126 16.8701 31.0416 16.8992 31.0712 16.9289C31.1009 16.9585 31.13 16.9875 31.1586 17.0158C31.9437 17.7919 33.0633 17.7375 33.855 16.9681C33.9789 16.8477 34.1116 16.717 34.2532 16.5753C34.3949 16.4337 34.5256 16.301 34.646 16.1771Z" fill="#1F78F0"></path></g></svg>