<svg viewBox="0 0 24 24" fill="none" xmlns="http://www.w3.org/2000/svg">





<g transform="matrix(0.5,0,0,0.5,0,0)"><path d="M39 16C39 16 34 9.23077 24 5C14 9.23077 9 16 9 16" stroke="#1F78F0" stroke-width="3" stroke-linecap="round" stroke-linejoin="round"></path><path d="M3.52256 18.4052C3.73406 16.6132 4.9936 15.2676 6.77501 14.9797C9.55921 14.5298 14.7927 14 24 14C33.2073 14 38.4408 14.5298 41.225 14.9797C43.0064 15.2676 44.2659 16.6132 44.4774 18.4052C44.7347 20.5852 45 24.2315 45 30C45 35.7685 44.7347 39.4148 44.4774 41.5948C44.2659 43.3868 43.0064 44.7324 41.225 45.0203C38.4408 45.4702 33.2073 46 24 46C14.7927 46 9.55921 45.4702 6.77501 45.0203C4.9936 44.7324 3.73406 43.3868 3.52256 41.5948C3.26527 39.4148 3 35.7685 3 30C3 24.2315 3.26527 20.5852 3.52256 18.4052Z" fill="#91BEFF"></path><path fill-rule="evenodd" clip-rule="evenodd" d="M44.6937 38.5187C44.6123 39.693 44.5228 40.6526 44.436 41.4262C44.2371 43.1977 43.0344 44.5659 41.281 44.8876C38.5112 45.3959 33.2694 46.0001 24 46.0001C14.7305 46.0001 9.48872 45.3959 6.71894 44.8876C4.96557 44.5659 3.76288 43.1977 3.56399 41.4262C3.46582 40.5518 3.36429 39.4399 3.2749 38.0489C8.27546 33.2373 11.6424 30.7019 13.6544 29.3961C15.1026 28.4563 16.8599 28.6214 18.1996 29.7102C19.8786 31.075 22.6515 33.4971 26.9261 37.6707C29.9719 34.9747 32.178 33.3543 33.6544 32.3961C35.1026 31.4563 36.8599 31.6214 38.1995 32.7103C39.5662 33.8211 41.6576 35.6325 44.6937 38.5187Z" fill="#1F78F0"></path><circle cx="33" cy="24" r="3" fill="#1F78F0"></circle><circle cx="24" cy="5" r="3" fill="#1F78F0"></circle></g></svg>