<svg viewBox="0 0 24 24" fill="none" xmlns="http://www.w3.org/2000/svg">








<g transform="matrix(0.5,0,0,0.5,0,0)"><path d="M3.61261 37.8426C3.79773 39.3688 4.78424 40.5605 6.2914 40.8637C8.84091 41.3768 13.9967 42 24 42C32.7929 42 37.8404 41.7325 40.6647 41.4742C42.7532 41.2831 44.2505 39.7432 44.4584 37.6562C44.7215 35.0158 45 30.6499 45 24C45 17.3501 44.7215 12.9842 44.4584 10.3438C44.2505 8.25678 42.7532 6.71685 40.6647 6.52583C37.8404 6.26753 32.7929 6 24 6C15.2071 6 10.1596 6.26752 7.33534 6.52583C5.24675 6.71685 3.74954 8.25678 3.54161 10.3437C3.27854 12.9842 3 17.3501 3 24C3 31.2532 3.33137 35.524 3.61261 37.8426Z" fill="#1F78F0"></path><path d="M6.02282 22.6511C6.05584 21.7885 6.6146 21.131 7.47464 21.0573C7.86963 21.0235 8.37052 21 9 21C9.62948 21 10.1304 21.0235 10.5254 21.0573C11.3854 21.131 11.9442 21.7885 11.9772 22.6511C11.9909 23.008 12 23.4517 12 24C12 24.5483 11.9909 24.992 11.9772 25.3489C11.9442 26.2115 11.3854 26.869 10.5254 26.9427C10.1304 26.9765 9.62948 27 9 27C8.37052 27 7.86963 26.9765 7.47464 26.9427C6.6146 26.869 6.05584 26.2115 6.02282 25.3489C6.00915 24.992 6 24.5483 6 24C6 23.4517 6.00915 23.008 6.02282 22.6511Z" fill="#91BEFF"></path><path d="M6.02282 12.6511C6.05584 11.7885 6.6146 11.131 7.47464 11.0573C7.86963 11.0235 8.37052 11 9 11C9.62948 11 10.1304 11.0235 10.5254 11.0573C11.3854 11.131 11.9442 11.7885 11.9772 12.6511C11.9909 13.008 12 13.4517 12 14C12 14.5483 11.9909 14.992 11.9772 15.3489C11.9442 16.2115 11.3854 16.869 10.5254 16.9427C10.1304 16.9765 9.62948 17 9 17C8.37052 17 7.86963 16.9765 7.47464 16.9427C6.6146 16.869 6.05584 16.2115 6.02282 15.3489C6.00915 14.992 6 14.5483 6 14C6 13.4517 6.00915 13.008 6.02282 12.6511Z" fill="#91BEFF"></path><path d="M6.02282 32.6511C6.05584 31.7885 6.6146 31.131 7.47464 31.0573C7.86963 31.0235 8.37052 31 9 31C9.62948 31 10.1304 31.0235 10.5254 31.0573C11.3854 31.131 11.9442 31.7885 11.9772 32.6511C11.9909 33.008 12 33.4517 12 34C12 34.5483 11.9909 34.992 11.9772 35.3489C11.9442 36.2115 11.3854 36.869 10.5254 36.9427C10.1304 36.9765 9.62948 37 9 37C8.37052 37 7.86963 36.9765 7.47464 36.9427C6.6146 36.869 6.05584 36.2115 6.02282 35.3489C6.00915 34.992 6 34.5483 6 34C6 33.4517 6.00915 33.008 6.02282 32.6511Z" fill="#91BEFF"></path><path d="M41.9772 22.6511C41.9442 21.7885 41.3854 21.131 40.5254 21.0573C40.1304 21.0235 39.6295 21 39 21C38.3705 21 37.8696 21.0235 37.4746 21.0573C36.6146 21.131 36.0558 21.7885 36.0228 22.6511C36.0091 23.008 36 23.4517 36 24C36 24.5483 36.0091 24.992 36.0228 25.3489C36.0558 26.2115 36.6146 26.869 37.4746 26.9427C37.8696 26.9765 38.3705 27 39 27C39.6295 27 40.1304 26.9765 40.5254 26.9427C41.3854 26.869 41.9442 26.2115 41.9772 25.3489C41.9909 24.992 42 24.5483 42 24C42 23.4517 41.9909 23.008 41.9772 22.6511Z" fill="#91BEFF"></path><path d="M41.9772 12.6511C41.9442 11.7885 41.3854 11.131 40.5254 11.0573C40.1304 11.0235 39.6295 11 39 11C38.3705 11 37.8696 11.0235 37.4746 11.0573C36.6146 11.131 36.0558 11.7885 36.0228 12.6511C36.0091 13.008 36 13.4517 36 14C36 14.5483 36.0091 14.992 36.0228 15.3489C36.0558 16.2115 36.6146 16.869 37.4746 16.9427C37.8696 16.9765 38.3705 17 39 17C39.6295 17 40.1304 16.9765 40.5254 16.9427C41.3854 16.869 41.9442 16.2115 41.9772 15.3489C41.9909 14.992 42 14.5483 42 14C42 13.4517 41.9909 13.008 41.9772 12.6511Z" fill="#91BEFF"></path><path d="M41.9772 32.6511C41.9442 31.7885 41.3854 31.131 40.5254 31.0573C40.1304 31.0235 39.6295 31 39 31C38.3705 31 37.8696 31.0235 37.4746 31.0573C36.6146 31.131 36.0558 31.7885 36.0228 32.6511C36.0091 33.008 36 33.4517 36 34C36 34.5483 36.0091 34.992 36.0228 35.3489C36.0558 36.2115 36.6146 36.869 37.4746 36.9427C37.8696 36.9765 38.3705 37 39 37C39.6295 37 40.1304 36.9765 40.5254 36.9427C41.3854 36.869 41.9442 36.2115 41.9772 35.3489C41.9909 34.992 42 34.5483 42 34C42 33.4517 41.9909 33.008 41.9772 32.6511Z" fill="#91BEFF"></path><path d="M19.3126 19.7997C19.5223 18.4609 20.6449 17.6941 21.8539 18.116C22.8449 18.4618 24.2421 19.038 26.1472 19.9981C27.7208 20.791 28.9479 21.4967 29.8858 22.0863C31.3714 23.0202 31.3714 24.9798 29.8858 25.9137C28.9479 26.5033 27.7208 27.209 26.1472 28.0019C24.2421 28.962 22.8449 29.5382 21.8539 29.884C20.6449 30.3059 19.5223 29.5391 19.3126 28.2003C19.1459 27.1362 19 25.7151 19 24C19 22.2849 19.1459 20.8638 19.3126 19.7997Z" fill="#91BEFF"></path></g></svg>