<svg viewBox="0 0 24 24" fill="none" xmlns="http://www.w3.org/2000/svg">






<g transform="matrix(0.5,0,0,0.5,0,0)"><path d="M37.5164 10.5219C37.364 8.84405 36.3231 7.47155 34.6793 7.10232C32.3645 6.58241 28.1711 6 21 6C13.8289 6 9.63549 6.58241 7.32075 7.10232C5.6769 7.47155 4.63604 8.84404 4.48365 10.5219C4.25873 12.9983 4 17.481 4 25C4 32.519 4.25873 37.0017 4.48365 39.4781C4.63604 41.156 5.6769 42.5285 7.32075 42.8977C9.63549 43.4176 13.8289 44 21 44C28.1711 44 32.3645 43.4176 34.6793 42.8977C36.3231 42.5285 37.364 41.156 37.5164 39.4781C37.7413 37.0017 38 32.519 38 25C38 17.481 37.7413 12.9983 37.5164 10.5219Z" fill="#91BEFF"></path><path fill-rule="evenodd" clip-rule="evenodd" d="M37.5836 38.6855C35.2695 36.4329 33.6165 34.9493 32.479 33.9869C31.1611 32.8718 29.4123 32.7149 27.9997 33.7073C26.9375 34.4537 25.4882 35.5858 23.6026 37.288C20.3884 34.083 18.2181 32.1188 16.8231 30.9386C15.5052 29.8235 13.7564 29.6665 12.3438 30.659C10.7098 31.8071 8.15985 33.8679 4.51517 37.5126C4.45739 37.5704 4.40001 37.6279 4.34302 37.6851C4.38962 38.3738 4.43735 38.9684 4.48364 39.4781C4.63603 41.156 5.67689 42.5285 7.32074 42.8977C9.63548 43.4177 13.8289 44.0001 21 44.0001C28.1711 44.0001 32.3645 43.4177 34.6792 42.8977C36.3231 42.5285 37.3639 41.156 37.5163 39.4781C37.5385 39.2338 37.5611 38.9699 37.5836 38.6855Z" fill="#1F78F0"></path><circle r="3" transform="matrix(-1 0 0 1 13 15)" fill="#1F78F0"></circle><path d="M35.3336 2.19776C37.6 4.37891 42.3521 9.2778 45.3953 14.7091C45.8554 15.5301 45.8554 16.5284 45.3953 17.3494C42.3521 22.7807 37.6 27.6796 35.3336 29.8608C34.6084 30.5587 33.4861 30.5586 32.7609 29.8607C30.4948 27.6795 25.7431 22.7808 22.6995 17.3497C22.2393 16.5285 22.2393 15.53 22.6995 14.7088C25.7431 9.27771 30.4948 4.37898 32.7609 2.19783C33.4861 1.49987 34.6084 1.49984 35.3336 2.19776Z" fill="#1F78F0"></path><path fill-rule="evenodd" clip-rule="evenodd" d="M32.7609 2.19795C33.4861 1.49999 34.6084 1.49996 35.3336 2.19788C37.6 4.37903 42.3521 9.27793 45.3953 14.7092C45.8554 15.5302 45.8554 16.5285 45.3953 17.3495C42.3521 22.7808 37.6 27.6797 35.3336 29.8609C34.6084 30.5588 33.4861 30.5588 32.7609 29.8608C30.4948 27.6797 25.7431 22.7809 22.6995 17.3498C22.2393 16.5286 22.2393 15.5301 22.6995 14.709C25.7431 9.27783 30.4948 4.3791 32.7609 2.19795ZM26.603 16.0294C29.4456 21.2829 34.0473 24.6409 34.0473 24.6409C34.0473 24.6409 38.6508 21.2829 41.4924 16.0294C38.6508 10.7759 34.0473 7.41788 34.0473 7.41788C34.0473 7.41788 29.4456 10.7759 26.603 16.0294Z" fill="#1F78F0"></path><path fill-rule="evenodd" clip-rule="evenodd" d="M24.945 16.7897C25.0399 16.2773 25.5849 15.9834 26.0665 16.1826C28.134 17.038 32.9893 18.9991 34.0477 18.9991C35.106 18.9991 39.9606 17.0381 42.028 16.1827C42.5095 15.9834 43.0545 16.2773 43.1495 16.7897V16.7897C43.2111 17.1226 43.0633 17.4572 42.7727 17.6311C41.0481 18.6629 35.1987 22.1111 34.0472 22.1111C32.8958 22.1111 27.0463 18.6629 25.3217 17.6311C25.0311 17.4572 24.8833 17.1226 24.945 16.7897V16.7897Z" fill="#91BEFF"></path></g></svg>