<svg viewBox="0 0 24 24" fill="none" xmlns="http://www.w3.org/2000/svg">



<g transform="matrix(0.5,0,0,0.5,0,0)"><path fill-rule="evenodd" clip-rule="evenodd" d="M18.8541 6H29.1459C30.2822 6 31.321 6.64201 31.8292 7.65836L34.139 12.278C36.6188 12.4338 38.4663 12.6352 39.8159 12.8294C41.8536 13.1227 43.2745 14.7264 43.4935 16.7734C43.7412 19.0897 44 22.5694 44 27C44 31.0655 43.7821 33.8728 43.5548 35.6954C43.3312 37.4879 42.0471 38.827 40.2621 39.1039C37.5759 39.5207 32.614 40 24 40C15.386 40 10.4241 39.5207 7.73794 39.1039C5.95292 38.827 4.66877 37.4879 4.4452 35.6954C4.21787 33.8728 4 31.0655 4 27C4 22.5694 4.25877 19.0897 4.50653 16.7734C4.72549 14.7264 6.14641 13.1227 8.18407 12.8294C9.53367 12.6352 11.3812 12.4338 13.861 12.278L16.1708 7.65836C16.679 6.64201 17.7178 6 18.8541 6Z" fill="#91BEFF"></path><circle cx="24" cy="26" r="8" fill="white"></circle><path d="M4.70261 40.5174C4.16727 41.0628 3.79771 41.7823 4.07972 42.4927C4.28705 43.0149 4.69254 43.6925 5.47487 44.4749C6.25721 45.2572 6.93486 45.6627 7.4571 45.87C8.16743 46.152 8.88691 45.7825 9.43236 45.2471C12.2766 42.4555 21.6734 33.2261 26.3345 28.565C30.9956 23.9039 40.2251 14.5071 43.0167 11.6628C43.552 11.1174 43.9216 10.3979 43.6396 9.68754C43.4322 9.16531 43.0268 8.48765 42.2444 7.70532C41.4621 6.92299 40.7844 6.5175 40.2622 6.31017C39.5519 6.02816 38.8324 6.39772 38.2869 6.93306C35.4427 9.72464 26.0459 18.9541 21.3848 23.6152C16.7237 28.2763 7.4942 37.6731 4.70261 40.5174Z" fill="#1F78F0"></path></g></svg>