<svg viewBox="0 0 24 24" fill="none" xmlns="http://www.w3.org/2000/svg">


<g transform="matrix(0.5,0,0,0.5,0,0)"><path fill-rule="evenodd" clip-rule="evenodd" d="M4.38661 13.8342C4.57314 11.9557 5.92088 10.6076 7.79994 10.4262C10.0261 10.2113 13.7931 10 20 10C26.2069 10 29.9739 10.2113 32.2001 10.4262C34.0791 10.6076 35.4269 11.9557 35.6134 13.8342C35.724 14.9483 35.8314 16.4369 35.9049 18.3961C36.9486 17.9662 38.4715 17.3753 40.1181 16.8575C41.9902 16.2687 43.7368 17.4088 43.8675 19.3669C43.9445 20.52 44 22.0334 44 24C44 25.9666 43.9445 27.48 43.8675 28.6331C43.7368 30.5912 41.9902 31.7313 40.1181 31.1425C38.4715 30.6247 36.9486 30.0338 35.9049 29.6039C35.8314 31.5631 35.724 33.0517 35.6134 34.1658C35.4269 36.0443 34.0791 37.3924 32.2001 37.5738C29.9739 37.7887 26.2069 38 20 38C13.7931 38 10.0261 37.7887 7.79994 37.5738C5.92088 37.3924 4.57314 36.0443 4.38661 34.1658C4.18817 32.1672 4 28.9634 4 24C4 19.0366 4.18817 15.8328 4.38661 13.8342Z" fill="#91BEFF"></path><path d="M4.70261 40.5174C4.16727 41.0628 3.79771 41.7823 4.07972 42.4927C4.28705 43.0149 4.69254 43.6925 5.47487 44.4749C6.25721 45.2572 6.93486 45.6627 7.4571 45.87C8.16743 46.152 8.88691 45.7825 9.43236 45.2471C12.2766 42.4555 21.6734 33.2261 26.3345 28.565C30.9956 23.9039 40.2251 14.5071 43.0167 11.6628C43.552 11.1174 43.9216 10.3979 43.6396 9.68754C43.4322 9.16531 43.0268 8.48765 42.2444 7.70532C41.4621 6.92299 40.7844 6.5175 40.2622 6.31017C39.5519 6.02816 38.8324 6.39772 38.2869 6.93306C35.4427 9.72464 26.0459 18.9541 21.3848 23.6152C16.7237 28.2763 7.4942 37.6731 4.70261 40.5174Z" fill="#1F78F0"></path></g></svg>