<svg viewBox="0 0 24 24" fill="none" xmlns="http://www.w3.org/2000/svg">



<g transform="matrix(0.5,0,0,0.5,0,0)"><path d="M4.56198 39.315C4.73932 41.0322 5.86521 42.3915 7.55375 42.751C10.219 43.3184 15.2432 44 24 44C32.7568 44 37.781 43.3184 40.4463 42.751C42.1348 42.3915 43.2607 41.0322 43.438 39.315C43.701 36.7688 44 32.0939 44 24C44 15.9061 43.701 11.2312 43.438 8.68502C43.2607 6.96777 42.1348 5.60848 40.4462 5.24901C37.781 4.68162 32.7568 4 24 4C15.2432 4 10.219 4.68162 7.55375 5.24901C5.86521 5.60848 4.73932 6.96777 4.56198 8.68502C4.29904 11.2312 4 15.9061 4 24C4 32.0939 4.29904 36.7688 4.56198 39.315Z" fill="#91BEFF"></path><path fill-rule="evenodd" clip-rule="evenodd" d="M43.806 34H4.19385C4.29986 36.3635 4.43509 38.0869 4.56192 39.315C4.73926 41.0322 5.86515 42.3915 7.55369 42.751C10.219 43.3184 15.2431 44 23.9999 44C32.7568 44 37.7809 43.3184 40.4462 42.751C42.1347 42.3915 43.2606 41.0322 43.438 39.315C43.5648 38.0868 43.7 36.3635 43.806 34Z" fill="#1F78F0"></path><path d="M18.3165 16.7404C18.5756 15.0718 20.0676 14.1257 21.6689 14.6617C22.8215 15.0475 24.3907 15.6582 26.4706 16.6251C28.0757 17.3712 29.3767 18.0466 30.4167 18.6313C32.4424 19.77 32.4424 22.2301 30.4167 23.3688C29.3767 23.9535 28.0757 24.6289 26.4706 25.3751C24.3907 26.3419 22.8215 26.9526 21.6689 27.3384C20.0676 27.8744 18.5756 26.9284 18.3165 25.2597C18.1424 24.139 18 22.7019 18 21.0001C18 19.2982 18.1424 17.8611 18.3165 16.7404Z" fill="#1F78F0"></path></g></svg>