<svg viewBox="0 0 24 24" fill="none" xmlns="http://www.w3.org/2000/svg">


<g transform="matrix(0.5,0,0,0.5,0,0)"><path d="M3.56402 10.5738C3.76291 8.80233 4.9656 7.43418 6.71897 7.11242C9.48875 6.60414 14.7306 6 24 6C33.2694 6 38.5112 6.60414 41.281 7.11242C43.0344 7.43418 44.2371 8.80233 44.436 10.5738C44.7054 12.9734 45 17.1609 45 24C45 30.8391 44.7054 35.0266 44.436 37.4262C44.2371 39.1977 43.0344 40.5658 41.281 40.8876C38.5113 41.3959 33.2694 42 24 42C14.7306 42 9.48875 41.3959 6.71897 40.8876C4.9656 40.5658 3.76291 39.1977 3.56402 37.4262C3.29461 35.0266 3 30.8391 3 24C3 17.1609 3.29461 12.9734 3.56402 10.5738Z" fill="#91BEFF"></path><path d="M17.4167 18.7522C17.6964 17.0795 19.1931 16.1215 20.8051 16.6486C22.1264 17.0807 23.9894 17.8006 26.5294 19C28.6275 19.9908 30.2636 20.8725 31.5141 21.6091C33.4949 22.7759 33.4949 25.2242 31.5141 26.391C30.2636 27.1276 28.6275 28.0093 26.5294 29C23.9894 30.1995 22.1264 30.9194 20.8051 31.3514C19.1931 31.8785 17.6964 30.9205 17.4167 29.2478C17.1945 27.9184 17 26.1429 17 24C17 21.8572 17.1945 20.0817 17.4167 18.7522Z" fill="#1F78F0"></path></g></svg>