<svg viewBox="0 0 24 24" fill="none" xmlns="http://www.w3.org/2000/svg">






<g transform="matrix(0.5,0,0,0.5,0,0)"><path d="M4.45248 8.62382C4.64517 6.38804 6.2854 4.71471 8.51994 4.50814C11.2533 4.25546 15.7977 4 23 4C30.2023 4 34.7467 4.25546 37.4801 4.50814C39.7146 4.71471 41.3548 6.38804 41.5475 8.62382C41.7737 11.2487 42 15.499 42 22C42 28.501 41.7737 32.7513 41.5475 35.3762C41.3548 37.612 39.7146 39.2853 37.4801 39.4919C34.7467 39.7445 30.2023 40 23 40C15.7977 40 11.2533 39.7445 8.51994 39.4919C6.2854 39.2853 4.64517 37.612 4.45248 35.3762C4.22626 32.7513 4 28.501 4 22C4 15.499 4.22626 11.2487 4.45248 8.62382Z" fill="#91BEFF"></path><path fill-rule="evenodd" clip-rule="evenodd" d="M41.7752 12H4.22485C4.29429 10.6581 4.37339 9.5416 4.45249 8.62382C4.64517 6.38804 6.2854 4.71471 8.51994 4.50814C11.2533 4.25546 15.7977 4 23 4C30.2024 4 34.7467 4.25546 37.4801 4.50814C39.7146 4.71471 41.3548 6.38804 41.5475 8.62382C41.6266 9.5416 41.7057 10.6581 41.7752 12Z" fill="#1F78F0"></path><path d="M10 18.597C10 17.8191 10.5933 17.1755 11.3702 17.1364C12.6132 17.0738 14.7019 17 17.6364 17C20.1977 17 21.7925 17.0563 22.745 17.1121C23.4727 17.1549 24 17.7541 24 18.483V19.517C24 20.2459 23.4727 20.8451 22.745 20.8879C21.7925 20.9437 20.1977 21 17.6364 21C14.7019 21 12.6132 20.9262 11.3702 20.8636C10.5933 20.8245 10 20.1809 10 19.403V18.597Z" fill="#1F78F0"></path><path d="M10 26.4255C10 25.7224 10.4925 25.1365 11.1937 25.0854C11.8226 25.0396 12.7329 25 14 25C15.2671 25 16.1774 25.0396 16.8063 25.0854C17.5075 25.1365 18 25.7224 18 26.4255V27.5745C18 28.2776 17.5075 28.8635 16.8063 28.9146C16.1774 28.9604 15.2671 29 14 29C12.7329 29 11.8226 28.9604 11.1937 28.9146C10.4925 28.8635 10 28.2776 10 27.5745V26.4255Z" fill="#1F78F0"></path><path fill-rule="evenodd" clip-rule="evenodd" d="M32.8394 22.5256C33.388 22.3731 33.8595 22.8443 33.8856 23.4131C33.9514 24.8506 34.2198 26.4782 34.9948 27.529C35.3438 28.0022 36.0157 28.1184 36.4348 27.706C36.9363 27.2124 37.319 26.4222 37.6073 25.5788C37.8379 24.9044 38.6494 24.5939 39.2028 25.0431C42.0482 27.3525 45 30.9028 45 35.6942C45 42.0796 40.0751 44.9436 34 44.9436C27.9249 44.9436 23 42.0796 23 35.6942C23 29.123 28.552 24.886 31.7673 22.9833C32.1094 22.7808 32.4698 22.6282 32.8394 22.5256Z" fill="#1F78F0"></path><path d="M34.3714 33.8544C34.1364 33.7347 33.8638 33.7347 33.6288 33.8544C32.6637 34.3461 30.1501 35.8724 30.1501 38.4334C30.1501 40.6214 31.8738 41.6028 34.0001 41.6028C36.1264 41.6028 37.8501 40.6214 37.8501 38.4334C37.8501 35.8724 35.3365 34.3461 34.3714 33.8544Z" fill="#91BEFF"></path></g></svg>