<svg viewBox="0 0 24 24" fill="none" xmlns="http://www.w3.org/2000/svg">






<g transform="matrix(0.5,0,0,0.5,0,0)"><path d="M4.45248 8.62382C4.64517 6.38804 6.2854 4.71471 8.51994 4.50814C11.2533 4.25546 15.7977 4 23 4C30.2023 4 34.7467 4.25546 37.4801 4.50814C39.7146 4.71471 41.3548 6.38804 41.5475 8.62382C41.7737 11.2487 42 15.499 42 22C42 28.501 41.7737 32.7513 41.5475 35.3762C41.3548 37.612 39.7146 39.2853 37.4801 39.4919C34.7467 39.7445 30.2023 40 23 40C15.7977 40 11.2533 39.7445 8.51994 39.4919C6.2854 39.2853 4.64517 37.612 4.45248 35.3762C4.22626 32.7513 4 28.501 4 22C4 15.499 4.22626 11.2487 4.45248 8.62382Z" fill="#91BEFF"></path><path fill-rule="evenodd" clip-rule="evenodd" d="M41.7752 12H4.22485C4.29429 10.6581 4.37339 9.5416 4.45249 8.62382C4.64517 6.38804 6.2854 4.71471 8.51994 4.50814C11.2533 4.25546 15.7977 4 23 4C30.2024 4 34.7467 4.25546 37.4801 4.50814C39.7146 4.71471 41.3548 6.38804 41.5475 8.62382C41.6266 9.5416 41.7057 10.6581 41.7752 12Z" fill="#1F78F0"></path><path d="M10 18.597C10 17.8191 10.5933 17.1755 11.3702 17.1364C12.6132 17.0738 14.7019 17 17.6364 17C20.1977 17 21.7925 17.0563 22.745 17.1121C23.4727 17.1549 24 17.7541 24 18.483V19.517C24 20.2459 23.4727 20.8451 22.745 20.8879C21.7925 20.9437 20.1977 21 17.6364 21C14.7019 21 12.6132 20.9262 11.3702 20.8636C10.5933 20.8245 10 20.1809 10 19.403V18.597Z" fill="#1F78F0"></path><path d="M10 26.4255C10 25.7224 10.4925 25.1365 11.1937 25.0854C11.8226 25.0396 12.7329 25 14 25C15.2671 25 16.1774 25.0396 16.8063 25.0854C17.5075 25.1365 18 25.7224 18 26.4255V27.5745C18 28.2776 17.5075 28.8635 16.8063 28.9146C16.1774 28.9604 15.2671 29 14 29C12.7329 29 11.8226 28.9604 11.1937 28.9146C10.4925 28.8635 10 28.2776 10 27.5745V26.4255Z" fill="#1F78F0"></path><path fill-rule="evenodd" clip-rule="evenodd" d="M30.427 18.8034C31.0034 18.5269 31.5458 18.8859 31.8656 19.4438C32.0539 19.7724 32.2881 20.1927 32.5562 20.6981C32.9337 21.4094 33.3883 22.3079 33.7362 23.003C33.8237 23.001 33.9116 23 34 23C34.0884 23 34.1765 23.001 34.264 23.003C34.6119 22.3079 35.0665 21.4094 35.444 20.6981C35.7121 20.1927 35.9463 19.7724 36.1346 19.4438C36.4544 18.8859 36.9968 18.5269 37.5732 18.8034C37.7048 18.8665 37.8511 18.9467 38.0129 19.0483C38.1746 19.15 38.3117 19.2478 38.4277 19.3402C38.936 19.7451 38.9214 20.4357 38.6372 21.016C38.4699 21.3578 38.2524 21.7886 37.9843 22.2939C37.7811 22.6768 37.546 23.1079 37.313 23.5297C39.6478 24.3299 41.4281 25.9985 42.3268 28.2721C42.5269 28.2159 42.7221 28.1621 42.9053 28.113C43.4506 27.9669 43.901 27.8594 44.2392 27.7841C44.6984 27.6818 45.1691 27.8019 45.3641 28.23C45.4464 28.4105 45.532 28.6429 45.6118 28.9407C45.6916 29.2385 45.7336 29.4826 45.7527 29.68C45.7978 30.1482 45.4502 30.4876 45.0014 30.6286C44.6709 30.7325 44.227 30.8647 43.6818 31.0108C43.4551 31.0715 43.2089 31.1352 42.957 31.1989C42.9644 31.3249 42.9697 31.452 42.9727 31.5802C42.9853 32.1132 42.9939 32.679 42.9977 33.2794C43.3776 33.2725 43.7595 33.2678 44.1 33.2678C44.6645 33.2678 45.1274 33.2806 45.4736 33.2954C45.9436 33.3155 46.3671 33.5533 46.4447 34.0173C46.4775 34.2129 46.5 34.4595 46.5 34.7678C46.5 35.0762 46.4775 35.3228 46.4448 35.5184C46.3671 35.9824 45.9436 36.2202 45.4736 36.2403C45.1274 36.255 44.6645 36.2678 44.1 36.2678C43.7531 36.2678 43.3633 36.263 42.9764 36.2558C42.9752 36.3108 42.974 36.3655 42.9727 36.4198C42.9574 37.0705 42.8847 37.6939 42.7591 38.2864C43.0791 38.3665 43.396 38.4478 43.6818 38.5243C44.227 38.6705 44.6709 38.8026 45.0014 38.9065C45.4502 39.0475 45.7978 39.3869 45.7527 39.8551C45.7336 40.0525 45.6916 40.2966 45.6118 40.5944C45.532 40.8922 45.4464 41.1246 45.3641 41.3051C45.1691 41.7332 44.6984 41.8533 44.2392 41.751C43.901 41.6757 43.4506 41.5682 42.9053 41.4221C42.5186 41.3185 42.0784 41.1939 41.6517 41.0702C40.1191 43.5292 37.3687 45 34 45C30.6312 45 27.8808 43.5291 26.3482 41.0701C25.9215 41.1938 25.4814 41.3184 25.0947 41.422C24.5494 41.5681 24.099 41.6755 23.7608 41.7509C23.3016 41.8532 22.8309 41.733 22.6359 41.305C22.5536 41.1245 22.468 40.8921 22.3882 40.5943C22.3084 40.2964 22.2664 40.0524 22.2473 39.855C22.2022 39.3868 22.5498 39.0474 22.9986 38.9064C23.3291 38.8025 23.773 38.6703 24.3182 38.5242C24.604 38.4476 24.9209 38.3664 25.2409 38.2863C25.1153 37.6938 25.0426 37.0705 25.0273 36.4198C25.026 36.3654 25.0248 36.3108 25.0236 36.2557C24.6367 36.2629 24.2469 36.2677 23.9 36.2677C23.3355 36.2677 22.8726 36.2549 22.5264 36.2401C22.0565 36.2201 21.6329 35.9822 21.5553 35.5183C21.5225 35.3227 21.5 35.076 21.5 34.7677C21.5 34.4594 21.5225 34.2127 21.5553 34.0171C21.6329 33.5532 22.0564 33.3153 22.5264 33.2953C22.8726 33.2805 23.3355 33.2677 23.9 33.2677C24.2406 33.2677 24.6224 33.2724 25.0023 33.2793C25.0061 32.679 25.0147 32.1132 25.0273 31.5802C25.0303 31.452 25.0356 31.3248 25.043 31.1988C24.7911 31.1351 24.5449 31.0714 24.3182 31.0106C23.773 30.8645 23.3291 30.7323 22.9986 30.6285C22.5498 30.4875 22.2022 30.1481 22.2473 29.6799C22.2664 29.4825 22.3084 29.2384 22.3882 28.9406C22.468 28.6427 22.5536 28.4104 22.6359 28.2299C22.8309 27.8018 23.3016 27.6817 23.7608 27.784C24.099 27.8593 24.5494 27.9668 25.0947 28.1129C25.2779 28.162 25.4731 28.2158 25.6732 28.2719C26.572 25.9984 28.3524 24.3298 30.6872 23.5296C30.4542 23.1078 30.2191 22.6768 30.0159 22.2939C29.7478 21.7886 29.5303 21.3578 29.363 21.016C29.0788 20.4357 29.0642 19.7451 29.5725 19.3402C29.6885 19.2478 29.8255 19.15 29.9873 19.0483C30.1491 18.9467 30.2954 18.8665 30.427 18.8034Z" fill="#1F78F0"></path><path fill-rule="evenodd" clip-rule="evenodd" d="M32.5 32.0414C32.5 31.4798 32.0375 31.0272 31.4764 31.051C30.5983 31.0883 29.8247 31.1437 29.1468 31.2094C28.8102 31.242 28.5104 31.4459 28.3883 31.7613C28.1336 32.4193 27.9974 33.1369 28.0057 33.8916C28.0166 34.8698 28.0439 35.8857 28.097 36.8676C28.2176 39.0973 29.4837 40.8259 31.3571 41.5819C31.9332 41.8144 32.5 41.3377 32.5 40.7165V32.0414ZM35.5 40.7165C35.5 41.3377 36.0669 41.8144 36.6429 41.5819C38.5163 40.8258 39.7823 39.0973 39.9029 36.8676C39.956 35.8858 39.9834 34.8699 39.9943 33.8917C40.0026 33.1369 39.8664 32.4193 39.6117 31.7613C39.4896 31.4459 39.1898 31.242 38.8532 31.2094C38.1753 31.1437 37.4017 31.0883 36.5236 31.051C35.9625 31.0272 35.5 31.4798 35.5 32.0414V40.7165Z" fill="#91BEFF"></path></g></svg>