<svg viewBox="0 0 24 24" fill="none" xmlns="http://www.w3.org/2000/svg">





<g transform="matrix(0.5,0,0,0.5,0,0)"><path d="M4.56198 8.68502C4.73932 6.96777 5.86521 5.60848 7.55375 5.24901C10.219 4.68162 15.2432 4 24 4C32.7568 4 37.781 4.68162 40.4463 5.24901C42.1348 5.60848 43.2607 6.96778 43.438 8.68502C43.701 11.2312 44 15.9061 44 24C44 32.0939 43.701 36.7688 43.438 39.315C43.2607 41.0322 42.1348 42.3915 40.4462 42.751C37.781 43.3184 32.7568 44 24 44C15.2432 44 10.219 43.3184 7.55375 42.751C5.86521 42.3915 4.73932 41.0322 4.56198 39.315C4.29904 36.7688 4 32.0939 4 24C4 15.9061 4.29904 11.2312 4.56198 8.68502Z" fill="#91BEFF"></path><path fill-rule="evenodd" clip-rule="evenodd" d="M43.806 14H4.19385C4.29986 11.6365 4.43509 9.91315 4.56192 8.68502C4.73926 6.96777 5.86515 5.60848 7.55369 5.24901C10.219 4.68162 15.2431 4 23.9999 4C32.7568 4 37.7809 4.68162 40.4462 5.24901C42.1347 5.60848 43.2606 6.96778 43.438 8.68502C43.5648 9.91315 43.7 11.6365 43.806 14Z" fill="#1F78F0"></path><path d="M21.844 34.9566C21.7867 35.755 21.3147 36.4231 20.5346 36.6023C19.6675 36.8015 18.2413 37 16 37C13.7587 37 12.3325 36.8015 11.4654 36.6023C10.6853 36.4231 10.2133 35.755 10.156 34.9566C10.0804 33.9053 10 32.0658 10 29C10 25.9342 10.0804 24.0947 10.156 23.0434C10.2133 22.245 10.6853 21.5769 11.4654 21.3977C12.3325 21.1985 13.7587 21 16 21C18.2413 21 19.6675 21.1985 20.5346 21.3977C21.3147 21.5769 21.7867 22.245 21.844 23.0434C21.9196 24.0947 22 25.9342 22 29C22 32.0658 21.9196 33.9053 21.844 34.9566Z" fill="#1F78F0"></path><path d="M27 23.5838C27 22.8352 27.5528 22.2087 28.2994 22.1533C29.2946 22.0794 30.8615 22 33 22C34.8897 22 36.1098 22.062 36.8713 22.1274C37.5426 22.1851 38 22.7441 38 23.4179V25.5821C38 26.2559 37.5426 26.8149 36.8713 26.8726C36.1098 26.938 34.8897 27 33 27C30.8615 27 29.2946 26.9206 28.2994 26.8467C27.5528 26.7913 27 26.1648 27 25.4162V23.5838Z" fill="#1F78F0"></path><path d="M27 32.4179C27 31.7441 27.4565 31.1766 28.1273 31.113C28.7579 31.0532 29.6876 31 31 31C32.3124 31 33.2421 31.0532 33.8727 31.113C34.5435 31.1766 35 31.7441 35 32.4179V34.5821C35 35.2559 34.5435 35.8234 33.8727 35.887C33.2421 35.9468 32.3124 36 31 36C29.6876 36 28.7579 35.9468 28.1273 35.887C27.4565 35.8234 27 35.2559 27 34.5821V32.4179Z" fill="#1F78F0"></path></g></svg>