<svg viewBox="0 0 24 24" fill="none" xmlns="http://www.w3.org/2000/svg">



<g transform="matrix(0.5,0,0,0.5,0,0)"><path d="M16.5559 4.0636C16.5559 4.0636 14.1076 5 9.60764 9.5C5.12411 13.9835 4.18389 16.4361 4.17706 16.454C4.06779 18.5905 4 21.089 4 24C4 32.6855 4.60351 37.6989 5.11162 40.3807C5.43804 42.1035 6.78233 43.2843 8.52567 43.4724C10.8789 43.7263 15.0315 44 22 44C28.9685 44 33.1211 43.7263 35.4743 43.4724C37.2177 43.2843 38.562 42.1035 38.8884 40.3807C39.3965 37.6989 40 32.6855 40 24C40 15.3145 39.3965 10.3011 38.8884 7.61934C38.562 5.89653 37.2177 4.7157 35.4743 4.52758C33.1211 4.27365 28.9685 4 22 4C19.9503 4 18.1442 4.02371 16.5559 4.0636Z" fill="#91BEFF"></path><path d="M4.17706 16.4541C7.05661 17.1783 10.4564 17.2264 13.3929 16.3293C14.6344 15.9501 15.6024 14.9829 16.0214 13.7543C17.0652 10.6936 17.3231 6.94726 16.5559 4.0636C16.5559 4.0636 14.1077 5 9.60767 9.5C5.10767 14 4.17706 16.4541 4.17706 16.4541Z" fill="#1F78F0"></path><path fill-rule="evenodd" clip-rule="evenodd" d="M35 15.7143C37.3791 15.7143 39.3077 17.6544 39.3077 20.0476V29.9524C39.3077 32.3456 37.3791 34.2857 35 34.2857C32.6209 34.2857 30.6923 32.3456 30.6923 29.9524V24.7619C30.6923 24.0781 31.2433 23.5238 31.9231 23.5238C32.6028 23.5238 33.1538 24.0781 33.1538 24.7619V29.5406C33.1538 30.5973 33.6093 31.6913 34.6611 31.7934C34.7684 31.8038 34.8813 31.8095 35 31.8095C35.1187 31.8095 35.2316 31.8038 35.3389 31.7934C36.3907 31.6913 36.8462 30.5973 36.8462 29.5406V24.7619C36.8462 22.0268 34.642 19.8095 31.9231 19.8095C29.2041 19.8095 27 22.0268 27 24.7619V29.9524C27 34.397 30.5817 38 35 38C39.4183 38 43 34.397 43 29.9524V20.0476C43 15.603 39.4183 12 35 12C33.2008 12 31.5355 12.5997 30.1982 13.6105V13.6105C29.5474 14.0309 29.0853 14.7495 29.3855 15.4637C29.4846 15.6995 29.6271 15.9539 29.8311 16.2108C29.9933 16.4151 30.1552 16.579 30.3098 16.7105C30.9143 17.2246 31.7495 17.0106 32.416 16.58V16.58C33.1359 16.036 34.0279 15.7143 35 15.7143Z" fill="#1F78F0"></path></g></svg>