<svg viewBox="0 0 24 24" fill="none" xmlns="http://www.w3.org/2000/svg">



<g transform="matrix(0.5,0,0,0.5,0,0)"><path d="M16.5559 4.0636C16.5559 4.0636 14.1076 5 9.60764 9.5C5.12411 13.9835 4.18389 16.4361 4.17706 16.454C4.06779 18.5905 4 21.089 4 24C4 32.6855 4.60351 37.6989 5.11162 40.3807C5.43804 42.1035 6.78233 43.2843 8.52567 43.4724C10.8789 43.7263 15.0315 44 22 44C28.9685 44 33.1211 43.7263 35.4743 43.4724C37.2177 43.2843 38.562 42.1035 38.8884 40.3807C39.3965 37.6989 40 32.6855 40 24C40 15.3145 39.3965 10.3011 38.8884 7.61934C38.562 5.89653 37.2177 4.7157 35.4743 4.52758C33.1211 4.27365 28.9685 4 22 4C19.9503 4 18.1442 4.02371 16.5559 4.0636Z" fill="#91BEFF"></path><path d="M4.17706 16.4541C7.05661 17.1783 10.4564 17.2264 13.3929 16.3293C14.6344 15.9501 15.6024 14.9829 16.0214 13.7543C17.0652 10.6936 17.3231 6.94726 16.5559 4.0636C16.5559 4.0636 14.1077 5 9.60767 9.5C5.10767 14 4.17706 16.4541 4.17706 16.4541Z" fill="#1F78F0"></path><path d="M33.2246 17.4229C33.9709 15.9841 36.0291 15.9841 36.7754 17.4229L38.9307 21.5783L43.5442 22.4867C45.0673 22.7866 45.683 24.6319 44.645 25.7863L41.36 29.4397L41.9599 34.3012C42.1553 35.8845 40.5092 37.0481 39.0818 36.3356L35 34.2983L30.9182 36.3356C29.4908 37.0481 27.8447 35.8845 28.0401 34.3012L28.64 29.4397L25.355 25.7863C24.317 24.6319 24.9327 22.7866 26.4558 22.4867L31.0693 21.5783L33.2246 17.4229Z" fill="#1F78F0"></path></g></svg>