<svg viewBox="0 0 24 24" fill="none" xmlns="http://www.w3.org/2000/svg">




<g transform="matrix(0.5,0,0,0.5,0,0)"><path d="M16.5559 4.0636C16.5559 4.0636 14.1076 5 9.60764 9.5C5.12411 13.9835 4.18389 16.4361 4.17706 16.454C4.06779 18.5905 4 21.089 4 24C4 32.6855 4.60351 37.6989 5.11162 40.3807C5.43804 42.1035 6.78233 43.2843 8.52567 43.4724C10.8789 43.7263 15.0315 44 22 44C28.9685 44 33.1211 43.7263 35.4743 43.4724C37.2177 43.2843 38.562 42.1035 38.8884 40.3807C39.3965 37.6989 40 32.6855 40 24C40 15.3145 39.3965 10.3011 38.8884 7.61934C38.562 5.89653 37.2177 4.7157 35.4743 4.52758C33.1211 4.27365 28.9685 4 22 4C19.9503 4 18.1442 4.02371 16.5559 4.0636Z" fill="#91BEFF"></path><path d="M4.17706 16.4541C7.05661 17.1783 10.4564 17.2264 13.3929 16.3293C14.6344 15.9501 15.6024 14.9829 16.0214 13.7543C17.0652 10.6936 17.3231 6.94726 16.5559 4.0636C16.5559 4.0636 14.1077 5 9.60767 9.5C5.10767 14 4.17706 16.4541 4.17706 16.4541Z" fill="#1F78F0"></path><path d="M27.033 36.7664C24.1151 36.5626 22.3155 34.1054 23.38 31.3809C24.0464 29.6753 25.0346 27.454 26.5 24.6168C28.0297 21.6552 29.386 19.3647 30.5101 17.6313C32.2719 14.9146 35.7281 14.9146 37.4899 17.6313C38.614 19.3647 39.9703 21.6552 41.5 24.6168C42.9654 27.454 43.9536 29.6753 44.62 31.3809C45.6845 34.1054 43.8849 36.5626 40.967 36.7664C39.0975 36.8969 36.7505 37 34 37C31.2495 37 28.9025 36.8969 27.033 36.7664Z" fill="#1F78F0"></path><path fill-rule="evenodd" clip-rule="evenodd" d="M32.9294 22.103C32.2685 22.2478 31.9538 22.9055 32.0055 23.5801C32.1013 24.8315 32.2741 26.8746 32.4614 28.0719C32.5307 28.5152 32.8067 28.8877 33.2504 28.9543C33.4308 28.9814 33.6541 29 33.9271 29C34.2 29 34.4233 28.9814 34.6037 28.9543C35.0474 28.8877 35.3234 28.5152 35.3927 28.0719C35.58 26.8746 35.7528 24.8315 35.8486 23.5801C35.9003 22.9055 35.5856 22.2478 34.9247 22.103C34.649 22.0426 34.3165 22 33.9271 22C33.5377 22 33.2051 22.0426 32.9294 22.103ZM33.9021 33.55C34.7719 33.55 35.4771 32.8449 35.4771 31.975C35.4771 31.1052 34.7719 30.4 33.9021 30.4C33.0322 30.4 32.3271 31.1052 32.3271 31.975C32.3271 32.8449 33.0322 33.55 33.9021 33.55Z" fill="#91BEFF"></path></g></svg>