<svg viewBox="0 0 24 24" fill="none" xmlns="http://www.w3.org/2000/svg">




<g transform="matrix(0.5,0,0,0.5,0,0)"><path d="M16.5559 4.0636C16.5559 4.0636 14.1076 5 9.60764 9.5C5.12411 13.9835 4.18389 16.4361 4.17706 16.454C4.06779 18.5905 4 21.089 4 24C4 32.6855 4.60351 37.6989 5.11162 40.3807C5.43804 42.1035 6.78233 43.2843 8.52567 43.4724C10.8789 43.7263 15.0315 44 22 44C28.9685 44 33.1211 43.7263 35.4743 43.4724C37.2177 43.2843 38.562 42.1035 38.8884 40.3807C39.3965 37.6989 40 32.6855 40 24C40 15.3145 39.3965 10.3011 38.8884 7.61934C38.562 5.89653 37.2177 4.7157 35.4743 4.52758C33.1211 4.27365 28.9685 4 22 4C19.9503 4 18.1442 4.02371 16.5559 4.0636Z" fill="#91BEFF"></path><path d="M4.17706 16.4541C7.05661 17.1783 10.4564 17.2264 13.3929 16.3293C14.6344 15.9501 15.6024 14.9829 16.0214 13.7543C17.0652 10.6936 17.3231 6.94726 16.5559 4.0636C16.5559 4.0636 14.1077 5 9.60767 9.5C5.10767 14 4.17706 16.4541 4.17706 16.4541Z" fill="#1F78F0"></path><path fill-rule="evenodd" clip-rule="evenodd" d="M32.8394 14.029C33.388 13.8766 33.8595 14.3477 33.8856 14.9165C33.9514 16.354 34.2198 17.9816 34.9948 19.0324C35.3438 19.5056 36.0157 19.6219 36.4348 19.2094C36.9363 18.7158 37.319 17.9256 37.6073 17.0823C37.8379 16.4078 38.6494 16.0973 39.2028 16.5465C42.0482 18.8559 45 22.4062 45 27.1976C45 33.583 40.0751 36.4471 34 36.4471C27.9249 36.4471 23 33.583 23 27.1976C23 20.6264 28.552 16.3894 31.7673 14.4867C32.1094 14.2842 32.4698 14.1317 32.8394 14.029Z" fill="#1F78F0"></path><path d="M34.3714 25.3578C34.1364 25.2381 33.8638 25.2381 33.6288 25.3578C32.6637 25.8495 30.1501 27.3758 30.1501 29.9368C30.1501 32.1249 31.8738 33.1063 34.0001 33.1063C36.1264 33.1063 37.8501 32.1249 37.8501 29.9368C37.8501 27.3758 35.3365 25.8495 34.3714 25.3578Z" fill="#91BEFF"></path></g></svg>