<svg viewBox="0 0 24 24" fill="none" xmlns="http://www.w3.org/2000/svg">




<g transform="matrix(0.5,0,0,0.5,0,0)"><path d="M16.5559 4.0636C16.5559 4.0636 14.1076 5 9.60764 9.5C5.12411 13.9835 4.18389 16.4361 4.17706 16.454C4.06779 18.5905 4 21.089 4 24C4 32.6855 4.60351 37.6989 5.11162 40.3807C5.43804 42.1035 6.78233 43.2843 8.52567 43.4724C10.8789 43.7263 15.0315 44 22 44C28.9685 44 33.1211 43.7263 35.4743 43.4724C37.2177 43.2843 38.562 42.1035 38.8884 40.3807C39.3965 37.6989 40 32.6855 40 24C40 15.3145 39.3965 10.3011 38.8884 7.61934C38.562 5.89653 37.2177 4.7157 35.4743 4.52758C33.1211 4.27365 28.9685 4 22 4C19.9503 4 18.1442 4.02371 16.5559 4.0636Z" fill="#91BEFF"></path><path d="M4.17706 16.4541C7.05661 17.1783 10.4564 17.2264 13.3929 16.3293C14.6344 15.9501 15.6024 14.9829 16.0214 13.7543C17.0652 10.6936 17.3231 6.94726 16.5559 4.0636C16.5559 4.0636 14.1077 5 9.60767 9.5C5.10767 14 4.17706 16.4541 4.17706 16.4541Z" fill="#1F78F0"></path><path fill-rule="evenodd" clip-rule="evenodd" d="M35 14C31.4134 14 28.4569 16.8124 28.2778 20.3945L28.1853 22.2438C26.4476 22.4076 25.2401 23.6569 25.1255 25.4012C25.0539 26.4904 25 27.981 25 30C25 32.1788 25.0733 33.7422 25.1666 34.8499C25.3019 36.4565 26.4318 37.5842 28.0366 37.7395C29.4754 37.8786 31.6814 38 35 38C38.3186 38 40.5246 37.8786 41.9634 37.7395C43.5682 37.5842 44.6981 36.4565 44.8334 34.8499C44.9267 33.7422 45 32.1788 45 30C45 27.8212 44.9267 26.2578 44.8334 25.1501C44.6981 23.5435 43.5682 22.4158 41.9634 22.2605C41.9147 22.2558 41.8652 22.2511 41.8148 22.2465L41.7222 20.3945C41.5431 16.8124 38.5866 14 35 14ZM37.7991 22.0325L37.7272 20.5943C37.6546 19.141 36.4551 18 35 18C33.5449 18 32.3454 19.141 32.2728 20.5943L32.2009 22.0324C33.0335 22.0118 33.9632 22 35 22C36.0385 22 36.968 22.0119 37.7991 22.0325Z" fill="#1F78F0"></path><path fill-rule="evenodd" clip-rule="evenodd" d="M35.806 30.831C36.5091 30.521 37 29.8178 37 29C37 27.8954 36.1046 27 35 27C33.8954 27 33 27.8954 33 29C33 29.8178 33.4909 30.521 34.194 30.831L34.0532 32.083C34.0184 32.3923 34.069 32.7305 34.3485 32.8676C34.4998 32.9419 34.7107 33 35 33C35.2893 33 35.5002 32.9419 35.6515 32.8676C35.931 32.7305 35.9816 32.3923 35.9468 32.083L35.806 30.831Z" fill="#91BEFF"></path></g></svg>