<svg viewBox="0 0 24 24" fill="none" xmlns="http://www.w3.org/2000/svg">




<g transform="matrix(0.5,0,0,0.5,0,0)"><path d="M16.5559 4.0636C16.5559 4.0636 14.1076 5 9.60764 9.5C5.12411 13.9835 4.18389 16.4361 4.17706 16.454C4.06779 18.5905 4 21.089 4 24C4 32.6855 4.60351 37.6989 5.11162 40.3807C5.43804 42.1035 6.78233 43.2843 8.52567 43.4724C10.8789 43.7263 15.0315 44 22 44C28.9685 44 33.1211 43.7263 35.4743 43.4724C37.2177 43.2843 38.562 42.1035 38.8884 40.3807C39.3965 37.6989 40 32.6855 40 24C40 15.3145 39.3965 10.3011 38.8884 7.61934C38.562 5.89653 37.2177 4.7157 35.4743 4.52758C33.1211 4.27365 28.9685 4 22 4C19.9503 4 18.1442 4.02371 16.5559 4.0636Z" fill="#91BEFF"></path><path d="M4.17706 16.4541C7.05661 17.1783 10.4564 17.2264 13.3929 16.3293C14.6344 15.9501 15.6024 14.9829 16.0214 13.7543C17.0652 10.6936 17.3231 6.94726 16.5559 4.0636C16.5559 4.0636 14.1077 5 9.60767 9.5C5.10767 14 4.17706 16.4541 4.17706 16.4541Z" fill="#1F78F0"></path><path d="M24.1955 20.5798C24.3408 18.9277 25.3682 17.6103 27.0104 17.378C28.4481 17.1747 30.6563 17 34 17C37.3437 17 39.5519 17.1747 40.9896 17.378C42.6318 17.6103 43.6592 18.9277 43.8045 20.5798C43.9089 21.7673 44 23.2925 44 25V25C44 29.5142 41.6175 33.7382 37.6037 35.8039C36.2629 36.494 34.9544 37 34 37C33.0456 37 31.7371 36.494 30.3963 35.8039C26.3825 33.7382 24 29.5142 24 25V25C24 23.2925 24.0911 21.7673 24.1955 20.5798Z" fill="#1F78F0"></path><path fill-rule="evenodd" clip-rule="evenodd" d="M39.6565 22.2827C40.1492 22.7855 40.2276 23.5652 39.8283 24.145C37.7971 27.0936 35.9657 29.0522 34.8921 30.0951C34.3087 30.6618 33.4345 30.7383 32.7814 30.2536C31.8476 29.5608 30.4543 28.3724 29.0998 26.6341C28.725 26.1532 28.7161 25.4875 29.0466 24.9751L29.5231 24.2366C29.9339 23.5997 30.812 23.4735 31.3542 24.003C32.6297 25.2485 33.6906 26.5161 33.6906 26.5161C33.6906 26.5161 35.2443 24.3464 37.5196 21.9152C37.9964 21.4056 38.7999 21.4082 39.2883 21.9067L39.6565 22.2827Z" fill="#91BEFF"></path></g></svg>