<svg viewBox="0 0 24 24" fill="none" xmlns="http://www.w3.org/2000/svg">



<g transform="matrix(0.5,0,0,0.5,0,0)"><path d="M16.5559 4.0636C16.5559 4.0636 14.1076 5 9.60764 9.5C5.12411 13.9835 4.18389 16.4361 4.17706 16.454C4.06779 18.5905 4 21.089 4 24C4 32.6855 4.60351 37.6989 5.11162 40.3807C5.43804 42.1035 6.78233 43.2843 8.52567 43.4724C10.8789 43.7263 15.0315 44 22 44C28.9685 44 33.1211 43.7263 35.4743 43.4724C37.2177 43.2843 38.562 42.1035 38.8884 40.3807C39.3965 37.6989 40 32.6855 40 24C40 15.3145 39.3965 10.3011 38.8884 7.61934C38.562 5.89653 37.2177 4.7157 35.4743 4.52758C33.1211 4.27365 28.9685 4 22 4C19.9503 4 18.1442 4.02371 16.5559 4.0636Z" fill="#91BEFF"></path><path d="M4.17706 16.4541C7.05661 17.1783 10.4564 17.2264 13.3929 16.3293C14.6344 15.9501 15.6024 14.9829 16.0214 13.7543C17.0652 10.6936 17.3231 6.94726 16.5559 4.0636C16.5559 4.0636 14.1077 5 9.60767 9.5C5.10767 14 4.17706 16.4541 4.17706 16.4541Z" fill="#1F78F0"></path><path d="M43.8362 27.9128C44.9147 26.1501 45.2656 23.9662 44.7965 21.9357C43.7942 17.3104 38.244 15.4204 34.7867 18.52C34.5129 18.7638 34.2694 19.045 34 19.3253C33.7306 19.045 33.4871 18.7638 33.2133 18.52C29.7561 15.4204 24.2058 17.3104 23.2035 21.9357C22.7344 23.9662 23.0853 26.1501 24.1639 27.9128C25.9613 30.8549 28.8071 33.177 31.6384 35.2747C33.038 36.3116 34.962 36.3116 36.3616 35.2747C39.1929 33.177 42.0387 30.8549 43.8362 27.9128Z" fill="#1F78F0"></path></g></svg>