<svg viewBox="0 0 24 24" fill="none" xmlns="http://www.w3.org/2000/svg">



<g transform="matrix(0.5,0,0,0.5,0,0)"><path d="M16.5559 4.0636C16.5559 4.0636 14.1076 5 9.60764 9.5C5.12411 13.9835 4.18389 16.4361 4.17706 16.454C4.06779 18.5905 4 21.089 4 24C4 32.6855 4.60351 37.6989 5.11162 40.3807C5.43804 42.1035 6.78233 43.2843 8.52567 43.4724C10.8789 43.7263 15.0315 44 22 44C28.9685 44 33.1211 43.7263 35.4743 43.4724C37.2177 43.2843 38.562 42.1035 38.8884 40.3807C39.3965 37.6989 40 32.6855 40 24C40 15.3145 39.3965 10.3011 38.8884 7.61934C38.562 5.89653 37.2177 4.7157 35.4743 4.52758C33.1211 4.27365 28.9685 4 22 4C19.9503 4 18.1442 4.02371 16.5559 4.0636Z" fill="#91BEFF"></path><path d="M4.17706 16.4541C7.05661 17.1783 10.4564 17.2264 13.3929 16.3293C14.6344 15.9501 15.6024 14.9829 16.0214 13.7543C17.0652 10.6936 17.3231 6.94726 16.5559 4.0636C16.5559 4.0636 14.1077 5 9.60767 9.5C5.10767 14 4.17706 16.4541 4.17706 16.4541Z" fill="#1F78F0"></path><path fill-rule="evenodd" clip-rule="evenodd" d="M30.8672 4.18738C30.8847 4.96116 30.913 6.47272 30.939 9.02903C31.4186 9.04569 31.8146 9.0675 32.1268 9.08883C32.6277 9.12306 33 9.54222 33 10.0443V10.9558C33 11.4579 32.6277 11.8771 32.1268 11.9113C31.82 11.9322 31.4324 11.9537 30.9639 11.9702C30.9722 13.1671 30.9797 14.5157 30.9856 16.0307C31.4444 16.0471 31.8247 16.0682 32.1268 16.0888C32.6277 16.1231 33 16.5422 33 17.0443V17.9558C33 18.4579 32.6277 18.8771 32.1268 18.9113C31.8267 18.9318 31.4493 18.9527 30.9946 18.9691C30.9974 20.2276 30.9993 21.5797 30.9998 23.0312C31.4522 23.0475 31.8279 23.0684 32.1268 23.0888C32.6277 23.1231 33 23.5422 33 24.0443V24.9558C33 25.4579 32.6277 25.8771 32.1268 25.9113C31.8277 25.9317 31.4519 25.9526 30.9992 25.969C30.998 27.4262 30.9956 28.7781 30.9921 30.0309C31.4479 30.0473 31.8262 30.0683 32.1268 30.0888C32.6277 30.1231 33 30.5422 33 31.0443V31.9558C33 32.4579 32.6277 32.8771 32.1268 32.9113C31.8238 32.932 31.442 32.9531 30.9814 32.9696C30.9744 34.5014 30.9658 35.8489 30.9565 37.0296C31.4283 37.0462 31.8184 37.0678 32.1268 37.0888C32.6277 37.1231 33 37.5422 33 38.0443V38.9558C33 39.4579 32.6277 39.8771 32.1268 39.9113C31.8122 39.9328 31.4127 39.9548 30.9281 39.9715C30.9054 41.9308 30.8823 43.1457 30.8672 43.8127C30.0438 43.8528 29.1356 43.8885 28.1352 43.9177C28.1203 43.2788 28.096 42.0451 28.072 39.9879C27.5014 39.9745 27.0762 39.9515 26.7647 39.9273C26.3113 39.8921 26 39.5163 26 39.0616V37.9386C26 37.4838 26.3113 37.108 26.7647 37.0728C27.071 37.049 27.4871 37.0264 28.0434 37.0129C28.0341 35.8405 28.0257 34.5042 28.0187 32.9866C27.4748 32.9731 27.0664 32.9507 26.7647 32.9273C26.3113 32.8921 26 32.5163 26 32.0616V30.9385C26 30.4838 26.3113 30.1081 26.7647 30.0728C27.0644 30.0495 27.4694 30.0274 28.0079 30.0137C28.0044 28.7707 28.002 27.4302 28.0008 25.9862C27.4658 25.9726 27.0631 25.9505 26.7647 25.9273C26.3113 25.8921 26 25.5163 26 25.0616V23.9385C26 23.4838 26.3113 23.1081 26.7647 23.0728C27.063 23.0496 27.4655 23.0276 28.0002 23.0139C28.0008 21.5756 28.0026 20.2349 28.0054 18.9863C27.4681 18.9727 27.064 18.9506 26.7647 18.9273C26.3113 18.8921 26 18.5163 26 18.0616V16.9385C26 16.4838 26.3113 16.1081 26.7647 16.0728C27.0657 16.0494 27.4727 16.0272 28.0144 16.0136C28.0203 14.5126 28.0277 13.1753 28.036 11.9871C27.4834 11.9735 27.0696 11.951 26.7647 11.9273C26.3113 11.8921 26 11.5163 26 11.0616V9.93855C26 9.48384 26.3113 9.10805 26.7647 9.07282C27.0742 9.04877 27.496 9.02591 28.0612 9.01243C28.0883 6.34527 28.118 4.81875 28.1352 4.08234C29.1356 4.11155 30.0438 4.14727 30.8672 4.18738Z" fill="#1F78F0"></path></g></svg>