<svg viewBox="0 0 24 24" fill="none" xmlns="http://www.w3.org/2000/svg">




<g transform="matrix(0.5,0,0,0.5,0,0)"><path d="M16.5559 4.0636C16.5559 4.0636 14.1076 5 9.60764 9.5C5.12411 13.9835 4.18389 16.4361 4.17706 16.454C4.06779 18.5905 4 21.089 4 24C4 32.6855 4.60351 37.6989 5.11162 40.3807C5.43804 42.1035 6.78233 43.2843 8.52567 43.4724C10.8789 43.7263 15.0315 44 22 44C28.9685 44 33.1211 43.7263 35.4743 43.4724C37.2177 43.2843 38.562 42.1035 38.8884 40.3807C39.3965 37.6989 40 32.6855 40 24C40 15.3145 39.3965 10.3011 38.8884 7.61934C38.562 5.89653 37.2177 4.7157 35.4743 4.52758C33.1211 4.27365 28.9685 4 22 4C19.9503 4 18.1442 4.02371 16.5559 4.0636Z" fill="#91BEFF"></path><path d="M4.17706 16.4541C7.05661 17.1783 10.4564 17.2264 13.3929 16.3293C14.6344 15.9501 15.6024 14.9829 16.0214 13.7543C17.0652 10.6936 17.3231 6.94726 16.5559 4.0636C16.5559 4.0636 14.1077 5 9.60767 9.5C5.10767 14 4.17706 16.4541 4.17706 16.4541Z" fill="#1F78F0"></path><path fill-rule="evenodd" clip-rule="evenodd" d="M30.7305 12.3359C31.3055 12.056 31.8483 12.4137 32.1679 12.9718C32.3508 13.2914 32.5768 13.6975 32.835 14.1841C33.2049 14.8811 33.6504 15.7616 33.9913 16.4428C34.0771 16.4409 34.1633 16.4399 34.2499 16.4399C34.3366 16.4399 34.4229 16.4409 34.5087 16.4429C34.8496 15.7616 35.2951 14.8811 35.665 14.1841C35.9232 13.6975 36.1492 13.2914 36.3321 12.9718C36.6516 12.4137 37.1945 12.056 37.7695 12.3359C37.8938 12.3964 38.0313 12.4723 38.1826 12.5673C38.3338 12.6623 38.4629 12.7539 38.5732 12.8408C39.0835 13.2427 39.0702 13.9331 38.7858 14.5133C38.6229 14.8454 38.4127 15.2614 38.1545 15.748C37.9554 16.1232 37.725 16.5456 37.4967 16.9589C40.0817 17.845 41.9732 19.8173 42.7088 22.5035C42.8005 22.4783 42.8902 22.4539 42.9772 22.4306C43.5039 22.2895 43.9403 22.1851 44.2701 22.1115C44.7292 22.0089 45.1997 22.1295 45.3928 22.5585C45.4715 22.7334 45.5532 22.9571 45.6295 23.2418C45.7058 23.5265 45.7469 23.761 45.7661 23.9519C45.8134 24.4199 45.4663 24.7595 45.0174 24.9003C44.695 25.0014 44.2648 25.1293 43.7381 25.2704C43.5242 25.3277 43.2926 25.3877 43.0553 25.4478C43.0648 26.004 43.0699 26.594 43.0699 27.2199C43.0699 27.3119 43.0698 27.4032 43.0696 27.4937C43.4412 27.4869 43.8148 27.4823 44.1479 27.4823C44.6933 27.4823 45.1419 27.4945 45.4795 27.5088C45.9495 27.5285 46.3726 27.7667 46.4481 28.231C46.4789 28.4204 46.4999 28.6576 46.4999 28.9524C46.4999 29.2471 46.4789 29.4843 46.4481 29.6736C46.3727 30.138 45.9494 30.3762 45.4794 30.396C45.1418 30.4102 44.6932 30.4223 44.1479 30.4223C43.7915 30.4223 43.3889 30.4171 42.9919 30.4096C42.9219 31.0891 42.7854 31.734 42.588 32.3394C42.9833 32.4372 43.3849 32.5391 43.7381 32.6337C44.2648 32.7749 44.695 32.9028 45.0174 33.0039C45.4663 33.1446 45.8134 33.4842 45.7661 33.9522C45.7469 34.1431 45.7058 34.3777 45.6295 34.6624C45.5532 34.9471 45.4715 35.1708 45.3928 35.3457C45.1997 35.7747 44.7292 35.8952 44.2701 35.7927C43.9403 35.719 43.5039 35.6147 42.9772 35.4736C42.4183 35.3238 41.7455 35.1293 41.1692 34.9591C39.6033 36.878 37.1624 37.9999 34.2499 37.9999C31.3374 37.9999 28.8965 36.878 27.3306 34.959C26.7543 35.1292 26.0815 35.3237 25.5227 35.4734C24.996 35.6146 24.5596 35.7189 24.2298 35.7926C23.7707 35.8951 23.3002 35.7745 23.1071 35.3456C23.0284 35.1706 22.9467 34.947 22.8704 34.6623C22.7941 34.3776 22.753 34.143 22.7338 33.9521C22.6865 33.4841 23.0336 33.1445 23.4825 33.0038C23.8049 32.9026 24.2351 32.7748 24.7618 32.6336C25.115 32.539 25.5166 32.437 25.9118 32.3393C25.7145 31.7338 25.5779 31.089 25.508 30.4094C25.1109 30.417 24.7083 30.4222 24.3519 30.4222C23.8066 30.4222 23.3581 30.41 23.0204 30.3958C22.5504 30.3761 22.1272 30.1378 22.0517 29.6735C22.021 29.4842 21.9999 29.247 21.9999 28.9522C21.9999 28.6575 22.021 28.4203 22.0517 28.2309C22.1272 27.7666 22.5504 27.5284 23.0204 27.5086C23.358 27.4944 23.8066 27.4822 24.3519 27.4822C24.6851 27.4822 25.0586 27.4868 25.4303 27.4936C25.43 27.4031 25.4299 27.3119 25.4299 27.2199C25.4299 26.594 25.4351 26.0039 25.4445 25.4477C25.2073 25.3876 24.9757 25.3276 24.7618 25.2703C24.2351 25.1292 23.8049 25.0013 23.4825 24.9002C23.0336 24.7594 22.6865 24.4198 22.7338 23.9518C22.753 23.7609 22.7941 23.5263 22.8704 23.2416C22.9467 22.957 23.0284 22.7333 23.1071 22.5583C23.3002 22.1294 23.7707 22.0088 24.2298 22.1114C24.5596 22.185 24.996 22.2893 25.5227 22.4305C25.6097 22.4538 25.6994 22.4782 25.7911 22.5034C26.5267 19.8172 28.4182 17.8449 31.0033 16.9589C30.775 16.5456 30.5446 16.1232 30.3455 15.748C30.0873 15.2614 29.8771 14.8454 29.7142 14.5133C29.4297 13.9331 29.4164 13.2427 29.9268 12.8408C30.0371 12.7539 30.1662 12.6623 30.3174 12.5673C30.4687 12.4723 30.6062 12.3964 30.7305 12.3359Z" fill="#1F78F0"></path><path fill-rule="evenodd" clip-rule="evenodd" d="M32.78 25.3202C32.78 24.7586 32.3174 24.306 31.7563 24.33C30.9089 24.3664 30.1611 24.4199 29.5046 24.4833C29.168 24.5158 28.8681 24.7197 28.7466 25.0353C28.4996 25.6774 28.3674 26.3771 28.3756 27.1129C28.3862 28.0716 28.413 29.0671 28.4651 30.0294C28.5828 32.2057 29.814 33.8949 31.6378 34.6405C32.2128 34.8756 32.78 34.3987 32.78 33.7775V25.3202ZM35.72 33.7775C35.72 34.3987 36.2871 34.8755 36.8621 34.6405C38.6859 33.8948 39.9171 32.2057 40.0348 30.0294C40.0869 29.0672 40.1137 28.0717 40.1243 27.113C40.1325 26.3772 40.0004 25.6774 39.7533 25.0353C39.6319 24.7197 39.3319 24.5158 38.9953 24.4833C38.3389 24.4199 37.5911 24.3664 36.7436 24.33C36.1826 24.306 35.72 24.7586 35.72 25.3202V33.7775Z" fill="#91BEFF"></path></g></svg>