<svg viewBox="0 0 24 24" fill="none" xmlns="http://www.w3.org/2000/svg">






<g transform="matrix(0.5,0,0,0.5,0,0)"><path d="M16.5559 4.0636C16.5559 4.0636 14.1076 5 9.60764 9.5C5.12411 13.9835 4.18389 16.4361 4.17706 16.454C4.06779 18.5905 4 21.089 4 24C4 32.6855 4.60351 37.6989 5.11162 40.3807C5.43804 42.1035 6.78233 43.2843 8.52567 43.4724C10.8789 43.7263 15.0315 44 22 44C28.9685 44 33.1211 43.7263 35.4743 43.4724C37.2177 43.2843 38.562 42.1035 38.8884 40.3807C39.3965 37.6989 40 32.6855 40 24C40 15.3145 39.3965 10.3011 38.8884 7.61934C38.562 5.89653 37.2177 4.7157 35.4743 4.52758C33.1211 4.27365 28.9685 4 22 4C19.9503 4 18.1442 4.02371 16.5559 4.0636Z" fill="#91BEFF"></path><path d="M4.17706 16.4541C7.05661 17.1783 10.4564 17.2264 13.3929 16.3293C14.6344 15.9501 15.6024 14.9829 16.0214 13.7543C17.0652 10.6936 17.3231 6.94726 16.5559 4.0636C16.5559 4.0636 14.1077 5 9.60767 9.5C5.10767 14 4.17706 16.4541 4.17706 16.4541Z" fill="#1F78F0"></path><path d="M26.1346 25.4027C26.2393 27.1259 27.3605 28.4605 29.0724 28.6839C30.3939 28.8564 32.3038 29 35 29C37.6962 29 39.6061 28.8564 40.9276 28.6839C42.6395 28.4605 43.7607 27.1259 43.8654 25.4027C43.9403 24.1702 44 22.4266 44 20C44 17.5734 43.9403 15.8298 43.8654 14.5973C43.7607 12.8741 42.6395 11.5395 40.9276 11.3161C39.6061 11.1436 37.6962 11 35 11C32.3038 11 30.3939 11.1436 29.0724 11.3161C27.3605 11.5395 26.2393 12.8741 26.1346 14.5973C26.0597 15.8298 26 17.5734 26 20C26 22.4266 26.0597 24.1702 26.1346 25.4027Z" fill="#1F78F0"></path><path fill-rule="evenodd" clip-rule="evenodd" d="M36.9157 22.1062C38.0937 21.4739 38.8946 20.2305 38.8946 18.8C38.8946 16.7289 37.2157 15.05 35.1446 15.05C33.0736 15.05 31.3946 16.7289 31.3946 18.8C31.3946 20.2305 32.1956 21.4739 33.3736 22.1062C32.2522 22.508 31.3073 23.2805 30.6865 24.276C30.2493 24.9771 30.5462 25.916 31.3524 26.097C31.4979 26.1296 31.6487 26.1534 31.8044 26.1675C32.6542 26.245 33.7489 26.3 35.1446 26.3C36.5403 26.3 37.635 26.245 38.4847 26.1675C38.6405 26.1533 38.7914 26.1296 38.9369 26.0969C39.7431 25.9159 40.04 24.9771 39.6028 24.276C38.982 23.2805 38.0371 22.508 36.9157 22.1062Z" fill="#91BEFF"></path><path d="M10 35.4228C10 36.1924 10.5815 36.8309 11.3499 36.8736C12.4316 36.9338 14.1635 37 16.5455 37C18.6181 37 19.9524 36.9499 20.7821 36.8972C21.4937 36.8521 22 36.2655 22 35.5525V34.4475C22 33.7345 21.4937 33.1479 20.7821 33.1028C19.9524 33.0501 18.6181 33 16.5455 33C14.1635 33 12.4316 33.0662 11.3499 33.1264C10.5815 33.1691 10 33.8076 10 34.5772V35.4228Z" fill="#1F78F0"></path><path d="M10 27.5745C10 28.2776 10.4925 28.8635 11.1937 28.9146C11.8226 28.9604 12.7329 29 14 29C15.2671 29 16.1774 28.9604 16.8063 28.9146C17.5075 28.8635 18 28.2776 18 27.5745V26.4255C18 25.7224 17.5075 25.1365 16.8063 25.0854C16.1774 25.0396 15.2671 25 14 25C12.7329 25 11.8226 25.0396 11.1937 25.0854C10.4925 25.1365 10 25.7224 10 26.4255V27.5745Z" fill="#1F78F0"></path></g></svg>