<svg viewBox="0 0 24 24" fill="none" xmlns="http://www.w3.org/2000/svg">







<g transform="matrix(0.5,0,0,0.5,0,0)"><path d="M15.8584 6.06042C15.8584 6.06042 13.5461 6.95 9.2961 11.225C5.06167 15.4843 4.17367 17.8142 4.16723 17.8313C4.06403 19.8609 4 22.2345 4 25C4 33.2512 4.56998 38.0139 5.04986 40.5616C5.35815 42.1982 6.62776 43.32 8.27425 43.4987C10.4968 43.74 14.4187 43.9999 21 43.9999C27.5813 43.9999 31.5032 43.74 33.7258 43.4987C35.3722 43.32 36.6419 42.1982 36.9501 40.5616C37.43 38.0139 38 33.2512 38 25C38 16.7487 37.43 11.986 36.9501 9.43837C36.6419 7.8017 35.3722 6.67991 33.7258 6.5012C31.5032 6.25997 27.5813 6 21 6C19.0642 6 17.3584 6.02253 15.8584 6.06042Z" fill="#91BEFF"></path><path d="M4.16728 17.8311C6.88686 18.5191 10.0978 18.5648 12.8712 17.7126C14.0436 17.3523 14.9579 16.4335 15.3536 15.2663C16.3394 12.3587 16.583 8.79965 15.8584 6.06018C15.8584 6.06018 13.5462 6.94976 9.29619 11.2248C5.04619 15.4997 4.16728 17.8311 4.16728 17.8311Z" fill="#1F78F0"></path><path d="M9.6665 35.7846C9.6665 36.5539 10.2489 37.1921 11.017 37.234C12.0429 37.29 13.6534 37.3499 15.8483 37.3499C17.7515 37.3499 18.9955 37.3049 19.7833 37.2564C20.4943 37.2127 20.9998 36.6274 20.9998 35.915V34.9848C20.9998 34.2725 20.4943 33.6871 19.7833 33.6434C18.9955 33.5949 17.7515 33.5499 15.8483 33.5499C13.6534 33.5499 12.0429 33.6098 11.017 33.6658C10.2489 33.7077 9.6665 34.346 9.6665 35.1152V35.7846Z" fill="#1F78F0"></path><path d="M9.6665 28.3372C9.6665 29.0396 10.1593 29.6245 10.8599 29.6736C11.451 29.7151 12.2912 29.7501 13.4443 29.7501C14.5974 29.7501 15.4376 29.7151 16.0287 29.6736C16.7293 29.6245 17.2221 29.0396 17.2221 28.3372V27.3629C17.2221 26.6606 16.7293 26.0757 16.0287 26.0265C15.4376 25.985 14.5974 25.9501 13.4443 25.9501C12.2912 25.9501 11.451 25.985 10.8599 26.0265C10.1593 26.0757 9.6665 26.6606 9.6665 27.3629V28.3372Z" fill="#1F78F0"></path><path d="M35.3336 2.19776C37.6 4.37891 42.3521 9.2778 45.3953 14.7091C45.8554 15.5301 45.8554 16.5284 45.3953 17.3494C42.3521 22.7807 37.6 27.6796 35.3336 29.8608C34.6084 30.5587 33.4861 30.5586 32.7609 29.8607C30.4948 27.6795 25.7431 22.7808 22.6995 17.3497C22.2393 16.5285 22.2393 15.53 22.6995 14.7088C25.7431 9.27771 30.4948 4.37898 32.7609 2.19783C33.4861 1.49987 34.6084 1.49984 35.3336 2.19776Z" fill="#1F78F0"></path><path fill-rule="evenodd" clip-rule="evenodd" d="M32.7609 2.19795C33.4861 1.49999 34.6084 1.49996 35.3336 2.19788C37.6 4.37903 42.3521 9.27793 45.3953 14.7092C45.8554 15.5302 45.8554 16.5285 45.3953 17.3495C42.3521 22.7808 37.6 27.6797 35.3336 29.8609C34.6084 30.5588 33.4861 30.5588 32.7609 29.8608C30.4948 27.6797 25.7431 22.7809 22.6995 17.3498C22.2393 16.5286 22.2393 15.5301 22.6995 14.709C25.7431 9.27783 30.4948 4.3791 32.7609 2.19795ZM26.603 16.0294C29.4456 21.2829 34.0473 24.6409 34.0473 24.6409C34.0473 24.6409 38.6508 21.2829 41.4924 16.0294C38.6508 10.7759 34.0473 7.41788 34.0473 7.41788C34.0473 7.41788 29.4456 10.7759 26.603 16.0294Z" fill="#1F78F0"></path><path fill-rule="evenodd" clip-rule="evenodd" d="M24.945 16.7897C25.0399 16.2773 25.5849 15.9834 26.0665 16.1826C28.134 17.038 32.9893 18.9991 34.0477 18.9991C35.106 18.9991 39.9606 17.0381 42.028 16.1827C42.5095 15.9834 43.0545 16.2773 43.1495 16.7897V16.7897C43.2111 17.1226 43.0633 17.4572 42.7727 17.6311C41.0481 18.6629 35.1987 22.1111 34.0472 22.1111C32.8958 22.1111 27.0463 18.6629 25.3217 17.6311C25.0311 17.4572 24.8833 17.1226 24.945 16.7897V16.7897Z" fill="#91BEFF"></path></g></svg>