<svg viewBox="0 0 24 24" fill="none" xmlns="http://www.w3.org/2000/svg">








<g transform="matrix(0.5,0,0,0.5,0,0)"><path d="M36 18L40.9482 17.2931C42.114 17.1266 43.2171 17.8683 43.5027 19.0108V19.0108C43.786 20.1442 43.174 21.3098 42.0801 21.72L36 24V18Z" fill="#91BEFF"></path><path d="M12 18L7.05182 17.2931C5.88599 17.1266 4.78293 17.8683 4.49731 19.0108V19.0108C4.21396 20.1442 4.82602 21.3098 5.91989 21.72L12 24V18Z" fill="#91BEFF"></path><path d="M10.7172 13.2759C11.4786 10.738 13.8145 9 16.4642 9H31.5358C34.1855 9 36.5214 10.738 37.2828 13.2759L40.5 24H7.5L10.7172 13.2759Z" fill="#1F78F0"></path><path d="M15.9211 42.1934C15.8735 43.0969 15.1879 43.8172 14.2865 43.8953C13.6359 43.9516 12.8346 44 12 44C11.1654 44 10.3641 43.9516 9.71348 43.8953C8.81214 43.8172 8.12653 43.0969 8.07888 42.1934C8.0373 41.4048 8 40.3275 8 39C8 37.5169 8.04655 36.3462 8.09362 35.5413C8.13882 34.7686 8.67081 34.1571 9.44207 34.0908C10.0259 34.0406 10.8528 34 12 34C13.1472 34 13.9741 34.0406 14.5579 34.0908C15.3292 34.1571 15.8612 34.7686 15.9064 35.5413C15.9535 36.3462 16 37.5169 16 39C16 40.3275 15.9627 41.4048 15.9211 42.1934Z" fill="#1F78F0"></path><path d="M32.0789 42.1934C32.1265 43.0969 32.8121 43.8172 33.7135 43.8953C34.3641 43.9516 35.1654 44 36 44C36.8346 44 37.6359 43.9516 38.2865 43.8953C39.1879 43.8172 39.8735 43.0969 39.9211 42.1934C39.9627 41.4048 40 40.3275 40 39C40 37.5169 39.9535 36.3462 39.9064 35.5413C39.8612 34.7686 39.3292 34.1571 38.5579 34.0908C37.9741 34.0406 37.1472 34 36 34C34.8528 34 34.0259 34.0406 33.4421 34.0908C32.6708 34.1571 32.1388 34.7686 32.0936 35.5413C32.0465 36.3462 32 37.5169 32 39C32 40.3275 32.0373 41.4048 32.0789 42.1934Z" fill="#1F78F0"></path><path d="M42.887 24.7638C42.4626 23.563 41.3878 22.8149 40.1245 22.6532C37.8679 22.3644 33.1984 22 24 22C14.8016 22 10.132 22.3644 7.87538 22.6532C6.61213 22.8149 5.53736 23.563 5.11287 24.7638C4.12356 27.5622 3.63447 31.9831 4.18729 34.9029C4.45685 36.3266 5.72801 37.1755 7.16757 37.3405C9.69534 37.6303 14.7354 38 24 38C33.2646 38 38.3046 37.6303 40.8323 37.3405C42.2719 37.1755 43.5431 36.3266 43.8126 34.9029C44.3654 31.9831 43.8764 27.5622 42.887 24.7638Z" fill="#91BEFF"></path><circle cx="12" cy="30" r="3" fill="#1F78F0"></circle><circle cx="36" cy="30" r="3" fill="#1F78F0"></circle></g></svg>