<svg viewBox="0 0 24 24" fill="none" xmlns="http://www.w3.org/2000/svg">




<g transform="matrix(0.5,0,0,0.5,0,0)"><path fill-rule="evenodd" clip-rule="evenodd" d="M19.3246 9C16.742 9 14.4491 10.6526 13.6325 13.1026L10.8554 21.4338C10.7403 21.7792 10.4459 22.0337 10.089 22.1054C8.12253 22.5006 6.8326 22.9285 6.03722 23.2555C5.29472 23.5607 4.75234 24.168 4.55819 24.947C4.29617 25.9982 4 27.8771 4 31C4 33.0527 4.12797 34.568 4.29008 35.664C4.53558 37.3237 5.88909 38.3645 7.56076 38.5072C10.2036 38.7328 15.193 39 24 39C32.807 39 37.7964 38.7328 40.4392 38.5072C42.1109 38.3645 43.4644 37.3237 43.7099 35.664C43.872 34.568 44 33.0527 44 31C44 27.8771 43.7038 25.9982 43.4418 24.947C43.2477 24.168 42.7053 23.5607 41.9628 23.2555C41.344 23.0011 40.4259 22.6856 39.1228 22.372C38.7592 22.2845 38.469 22.0086 38.3726 21.6473L36.1877 13.454C35.4873 10.8275 33.1086 9 30.3903 9H19.3246Z" fill="#91BEFF"></path><circle cx="15" cy="38" r="6" fill="#1F78F0"></circle><circle cx="33" cy="38" r="6" fill="#1F78F0"></circle><path fill-rule="evenodd" clip-rule="evenodd" d="M24 13C24 12.4477 23.5523 12 23 12H20.1287C18.3518 12 16.7878 13.1723 16.2893 14.8779L14.8743 19.7195C14.6872 20.3596 15.1672 21 15.8341 21H23C23.5523 21 24 20.5523 24 20V13ZM27 20C27 20.5523 27.4477 21 28 21H33.2912C33.9186 21 34.391 20.4289 34.2734 19.8126L33.4028 15.2502C33.043 13.3642 31.3938 12 29.4737 12H28C27.4477 12 27 12.4477 27 13V20Z" fill="#1F78F0"></path></g></svg>