<svg viewBox="0 0 24 24" fill="none" xmlns="http://www.w3.org/2000/svg">





<g transform="matrix(0.5,0,0,0.5,0,0)"><path d="M3 25C3 23.6599 3.28053 22.3153 3.98699 21.1765C4.66752 20.0795 5.77564 18.5349 7.5 16.7081C8.97534 15.145 10.1403 14.107 10.9944 13.4292C12.0954 12.5553 13.471 12.2025 14.8756 12.1465C17.1311 12.0568 19.8161 12 23 12C31.5853 12 36.5429 12.4127 39.2352 12.773C41.0309 13.0133 42.352 14.3133 42.5715 16.1116C42.7927 17.9236 43 20.7544 43 25C43 29.2456 42.7927 32.0764 42.5715 33.8884C42.352 35.6867 41.0309 36.9867 39.2352 37.227C36.5429 37.5873 31.5853 38 23 38C14.4147 38 9.45714 37.5873 6.76479 37.227C4.96912 36.9867 3.64799 35.6867 3.42848 33.8884C3.20731 32.0764 3 29.2456 3 25V25Z" fill="#91BEFF"></path><path d="M20 37.5C20 40.5376 17.5376 43 14.5 43C11.4624 43 9 40.5376 9 37.5C9 34.4624 11.4624 32 14.5 32C17.5376 32 20 34.4624 20 37.5Z" fill="#1F78F0"></path><path d="M38 37.5C38 40.5376 35.5376 43 32.5 43C29.4624 43 27 40.5376 27 37.5C27 34.4624 29.4624 32 32.5 32C35.5376 32 38 34.4624 38 37.5Z" fill="#1F78F0"></path><path d="M19.3057 8.49053C19.4414 7.02858 20.4102 5.88723 21.8574 5.63954C23.6838 5.32696 26.8299 5 32 5C37.1701 5 40.3162 5.32696 42.1426 5.63954C43.5898 5.88723 44.5586 7.02858 44.6943 8.49053C44.8477 10.1441 45 12.8342 45 17C45 21.1658 44.8478 23.8559 44.6943 25.5095C44.5586 26.9714 43.5898 28.1128 42.1426 28.3605C40.3162 28.673 37.1701 29 32 29C26.8299 29 23.6838 28.673 21.8574 28.3605C20.4102 28.1128 19.4414 26.9714 19.3057 25.5095C19.1523 23.8559 19 21.1658 19 17C19 12.8342 19.1523 10.1441 19.3057 8.49053Z" fill="#1F78F0"></path><path d="M8.14656 22.4516C8.10141 22.1152 8.13372 21.747 8.28202 21.4417C8.56154 20.8662 9.19183 19.8081 10.5 18.5C11.7239 17.2761 12.7156 16.6589 13.3009 16.3641C13.6721 16.1772 14.1625 16.1536 14.5686 16.2422V16.2422C15.4291 16.4299 15.9049 17.1589 15.9519 18.0384C15.9793 18.553 15.9999 19.2384 15.9999 20.1372C15.9999 20.8016 15.9887 21.3494 15.9717 21.7978C15.9279 22.9561 15.1796 23.8399 14.0242 23.9321C13.5187 23.9724 12.8822 24 12.0865 24C10.9271 24 10.1058 23.9416 9.53501 23.8702C8.77377 23.775 8.24861 23.212 8.14656 22.4516V22.4516Z" fill="#1F78F0"></path></g></svg>