<svg viewBox="0 0 24 24" fill="none" xmlns="http://www.w3.org/2000/svg">




<g transform="matrix(0.5,0,0,0.5,0,0)"><path d="M4.91238 23.4576C5.60065 23.0754 6.65577 22.5377 8 22C8 22 9.65279 17.0416 11.6145 12.7691C12.4252 11.0034 14.1444 9.87262 16.0809 9.71334C20.9946 9.30916 30.9584 8.70486 39.8349 9.50145C42.345 9.72672 44.3112 11.6475 44.5616 14.1553C44.7895 16.4367 45 19.5999 45 23.5C45 27.8403 44.7393 31.5287 44.4841 34.0993C44.2481 36.4764 42.4829 38.2899 40.1026 38.4913C37.1145 38.7442 32.0919 39 24 39C15.3 39 10.148 38.7043 7.2578 38.4345C5.21528 38.2438 3.60246 36.8143 3.30668 34.7844C3.13547 33.6093 3 32.1562 3 30.5C3 27.8067 3.35821 26.0089 3.64585 24.9995C3.83661 24.33 4.3038 23.7956 4.91238 23.4576Z" fill="#91BEFF"></path><circle cx="15" cy="38" r="6" fill="#1F78F0"></circle><circle cx="34" cy="38" r="6" fill="#1F78F0"></circle><path d="M14.5645 13.9902C14.895 13.3321 15.5262 12.8985 16.2534 12.7818C18.6435 12.3982 20.6773 12.5782 21.8691 12.7678C22.5749 12.8801 23.1168 13.4259 23.2287 14.1319C23.6025 16.4896 23.416 18.9919 23.226 20.5256C23.117 21.4046 22.3948 22.0587 21.5108 22.113C18.4 22.3041 15.5946 22.2058 13.9687 22.1093C13.1514 22.0607 12.55 21.3431 12.661 20.5319C13.0986 17.3313 13.9816 15.1507 14.5645 13.9902Z" fill="#1F78F0"></path></g></svg>