<svg viewBox="0 0 24 24" fill="none" xmlns="http://www.w3.org/2000/svg">







<g transform="matrix(0.5,0,0,0.5,0,0)"><path d="M34.3821 7.04541C34.7883 7.15119 34.9118 7.60403 34.9259 8.02355C34.9555 8.90375 35 10.764 35 14C35 17.236 34.9555 19.0963 34.9259 19.9764C34.9118 20.396 34.7883 20.8488 34.3821 20.9546C34.2755 20.9824 34.1491 21 34 21C33.8509 21 33.7245 20.9824 33.6179 20.9546C33.2117 20.8488 33.0882 20.396 33.0741 19.9764C33.0445 19.0963 33 17.236 33 14C33 10.764 33.0445 8.90375 33.0741 8.02355C33.0882 7.60403 33.2117 7.15119 33.6179 7.04541C33.7245 7.01764 33.8509 7 34 7C34.1491 7 34.2755 7.01764 34.3821 7.04541Z" fill="#91BEFF"></path><path d="M26.1383 18.973C26.2155 18.0953 26.816 17.4315 27.6875 17.3015C28.6969 17.151 30.366 17 33 17C35.634 17 37.3031 17.151 38.3125 17.3015C39.184 17.4315 39.7845 18.0953 39.8617 18.973C39.9346 19.8018 40 21.0804 40 23C40 24.9196 39.9346 26.1982 39.8617 27.027C39.7845 27.9047 39.184 28.5685 38.3125 28.6985C37.3031 28.849 35.634 29 33 29C30.366 29 28.6969 28.849 27.6875 28.6985C26.816 28.5685 26.2155 27.9047 26.1383 27.027C26.0654 26.1982 26 24.9196 26 23C26 21.0804 26.0654 19.8018 26.1383 18.973Z" fill="#91BEFF"></path><path d="M9.11526 19.8785C9.19599 18.9953 9.82754 18.3572 10.7077 18.2488C11.7191 18.1242 13.3835 18 16 18C18.6165 18 20.2809 18.1242 21.2923 18.2488C22.1725 18.3572 22.804 18.9953 22.8847 19.8785C22.9478 20.5685 23 21.5712 23 23C23 24.4288 22.9478 25.4315 22.8847 26.1215C22.804 27.0047 22.1725 27.6428 21.2923 27.7512C20.2809 27.8758 18.6165 28 16 28C13.3835 28 11.7191 27.8758 10.7077 27.7512C9.82754 27.6428 9.19599 27.0047 9.11526 26.1215C9.05219 25.4315 9 24.4288 9 23C9 21.5712 9.05219 20.5685 9.11526 19.8785Z" fill="#91BEFF"></path><path d="M28.0373 15.6625C28.0924 14.7879 28.7302 14.1861 29.6035 14.1137C30.3403 14.0526 31.4303 14 33 14C34.5697 14 35.6597 14.0526 36.3965 14.1137C37.2698 14.1861 37.9076 14.7879 37.9627 15.6625C37.9851 16.0175 38 16.4575 38 17C38 17.5425 37.9851 17.9825 37.9627 18.3375C37.9076 19.2121 37.2698 19.8139 36.3965 19.8863C35.6597 19.9474 34.5697 20 33 20C31.4303 20 30.3403 19.9474 29.6035 19.8863C28.7302 19.8139 28.0924 19.2121 28.0373 18.3375C28.0149 17.9825 28 17.5425 28 17C28 16.4575 28.0149 16.0175 28.0373 15.6625Z" fill="#91BEFF"></path><path d="M32.0152 21.1007C32.0372 20.5257 32.4097 20.0873 32.9831 20.0382C33.2464 20.0157 33.5803 20 34 20C34.4197 20 34.7536 20.0157 35.0169 20.0382C35.5903 20.0873 35.9628 20.5257 35.9848 21.1007C35.9939 21.3387 36 21.6345 36 22C36 22.3655 35.9939 22.6613 35.9848 22.8993C35.9628 23.4743 35.5903 23.9127 35.0169 23.9618C34.7536 23.9843 34.4197 24 34 24C33.5803 24 33.2464 23.9843 32.9831 23.9618C32.4097 23.9127 32.0372 23.4743 32.0152 22.8993C32.0061 22.6613 32 22.3655 32 22C32 21.6345 32.0061 21.3387 32.0152 21.1007Z" fill="#1F78F0"></path><path d="M4.25428 24.994C4.09047 23.8957 4.90051 22.924 6.00975 22.8722C10.5114 22.6621 15.8366 22.8544 18.0059 22.9516C18.6348 22.9797 19.2055 23.3083 19.5547 23.8321L20.4695 25.2042C20.805 25.7075 21.3499 26.0331 21.9528 26.0815C29.8376 26.7148 38.0411 26.3732 41.836 26.1476C43.004 26.0782 43.9811 27.0028 43.8745 28.168C43.6262 30.882 42.8869 35.8506 40.6851 41.3738C40.2689 42.4178 39.3857 43.1753 38.2736 43.3379C36.289 43.6281 32.318 44 25 44C17.4211 44 13.4322 43.6011 11.5217 43.3072C10.5326 43.155 9.72232 42.5183 9.27324 41.6239C6.096 35.2964 4.75168 28.3289 4.25428 24.994Z" fill="#1F78F0"></path><path fill-rule="evenodd" clip-rule="evenodd" d="M6.86024 35.8083C6.31442 34.2076 5.86691 32.6489 5.50171 31.2017C5.90101 31.1065 6.34095 31.0828 6.76367 31.1027C9.25138 31.2197 14.8387 31.3947 25.9999 31.3947C35.067 31.3947 40.4556 31.2792 43.4922 31.1731C43.2706 32.549 42.9523 34.1405 42.4951 35.8738C39.3256 35.9377 34.1481 35.9999 25.9999 35.9999C14.9808 35.9999 9.39462 35.8862 6.86024 35.8083Z" fill="#91BEFF"></path></g></svg>