<svg viewBox="0 0 24 24" fill="none" xmlns="http://www.w3.org/2000/svg">






<g transform="matrix(0.5,0,0,0.5,0,0)"><path d="M37.4743 4.52758C39.2177 4.7157 40.562 5.89653 40.8884 7.61934C41.3965 10.3011 42 15.3145 42 24C42 32.6855 41.3965 37.6989 40.8884 40.3807C40.562 42.1035 39.2177 43.2843 37.4743 43.4724C35.1211 43.7263 30.9685 44 24 44C17.0315 44 12.8789 43.7263 10.5257 43.4724C8.78233 43.2843 7.43803 42.1035 7.11161 40.3807C6.6035 37.6989 6 32.6855 6 24C6 15.3145 6.6035 10.3011 7.11161 7.61934C7.43803 5.89653 8.78233 4.7157 10.5257 4.52758C12.8789 4.27365 17.0315 4 24 4C30.9685 4 35.1211 4.27365 37.4743 4.52758Z" fill="#91BEFF"></path><path fill-rule="evenodd" clip-rule="evenodd" d="M31.873 4.1429L31.3953 8.44173C31.1702 10.4675 29.458 12 27.4198 12H20.5801C18.5419 12 16.8297 10.4675 16.6046 8.44173L16.127 4.1429C18.23 4.05691 20.8222 4 24 4C27.1778 4 29.77 4.05691 31.873 4.1429Z" fill="#1F78F0"></path><path d="M21 23C21 21.8954 21.8954 21 23 21H30C31.1046 21 32 21.8954 32 23V23C32 24.1046 31.1046 25 30 25H23C21.8954 25 21 24.1046 21 23V23Z" fill="#1F78F0"></path><path d="M14 23C14 21.8954 14.8954 21 16 21V21C17.1046 21 18 21.8954 18 23V23C18 24.1046 17.1046 25 16 25V25C14.8954 25 14 24.1046 14 23V23Z" fill="#1F78F0"></path><path d="M14 32C14 30.8954 14.8954 30 16 30V30C17.1046 30 18 30.8954 18 32V32C18 33.1046 17.1046 34 16 34V34C14.8954 34 14 33.1046 14 32V32Z" fill="#1F78F0"></path><path d="M21 32C21 30.8954 21.8954 30 23 30H32C33.1046 30 34 30.8954 34 32V32C34 33.1046 33.1046 34 32 34H23C21.8954 34 21 33.1046 21 32V32Z" fill="#1F78F0"></path></g></svg>