<svg viewBox="0 0 24 24" fill="none" xmlns="http://www.w3.org/2000/svg">



<g transform="matrix(0.5,0,0,0.5,0,0)"><path d="M37.5029 7.49087C39.2287 7.66409 40.5821 8.80641 40.9206 10.5075C41.4217 13.0254 42 17.6351 42 25.5C42 33.3649 41.4216 37.9746 40.9206 40.4925C40.5821 42.1936 39.2287 43.3359 37.5029 43.5091C35.1547 43.7448 30.9968 44 24 44C17.0032 44 12.8453 43.7448 10.4971 43.5091C8.77133 43.3359 7.4179 42.1936 7.07939 40.4925C6.57835 37.9746 6 33.3649 6 25.5C6 17.6351 6.57835 13.0254 7.07939 10.5075C7.4179 8.80642 8.77133 7.66409 10.4971 7.49087C12.8453 7.25519 17.0032 7 24 7C30.9968 7 35.1547 7.25519 37.5029 7.49087Z" fill="#91BEFF"></path><path fill-rule="evenodd" clip-rule="evenodd" d="M33.1654 18.9372C34.1631 19.4987 34.488 20.784 33.8525 21.7361C30.3894 26.9242 27.2778 30.3265 25.5149 32.08C24.6266 32.9637 23.278 33.0793 22.2786 32.3235C20.7122 31.1388 18.2911 29.0363 15.9468 25.9108C15.3776 25.1519 15.4746 24.0953 16.1362 23.4154L16.6683 22.8686C17.4135 22.1027 18.6312 22.0567 19.3918 22.8073C21.6764 25.062 23.651 27.5 23.651 27.5C23.651 27.5 26.4262 23.4952 30.4379 19.132C31.0558 18.4599 32.0563 18.3131 32.8519 18.7608L33.1654 18.9372Z" fill="#1F78F0"></path><path fill-rule="evenodd" clip-rule="evenodd" d="M28.6579 4.04555C30.3967 4.08166 31.7099 5.61167 31.5178 7.34025L31.2966 9.3313C31.1278 10.8506 29.8436 12 28.3149 12H19.6852C18.1565 12 16.8723 10.8506 16.7035 9.3313L16.4823 7.34025C16.2902 5.61167 17.6034 4.08166 19.3422 4.04555C20.7337 4.01665 22.2812 4 24 4C25.7189 4 27.2664 4.01665 28.6579 4.04555Z" fill="#1F78F0"></path></g></svg>