<svg viewBox="0 0 24 24" fill="none" xmlns="http://www.w3.org/2000/svg">


<g transform="matrix(0.5,0,0,0.5,0,0)"><path fill-rule="evenodd" clip-rule="evenodd" d="M3.99995 15.5335C3.99995 10.2683 8.26825 5.99999 13.5335 5.99999C15.2076 5.99999 16.6859 7.09186 17.1782 8.69193L19.3872 15.8712C19.8512 17.3791 19.3855 19.0189 18.1981 20.0578L17.0589 21.0546C16.4639 21.5752 16.2204 22.4025 16.5189 23.1346C18.0609 26.9171 21.0828 29.939 24.8654 31.4811C25.5975 31.7795 26.4247 31.536 26.9453 30.941L27.9421 29.8018C28.981 28.6145 30.6208 28.1487 32.1288 28.6127L39.308 30.8217C40.9081 31.314 41.9999 32.7924 41.9999 34.4665C41.9999 39.7317 37.7316 44 32.4664 44H30.5999C15.9092 44 3.99995 32.0908 3.99995 17.4V15.5335Z" fill="#91BEFF"></path><path fill-rule="evenodd" clip-rule="evenodd" d="M33.2831 9.88856C31.7312 9.92788 29.9885 9.9378 28.3052 9.87482C27.6967 9.85206 27.1382 9.52844 26.9913 8.93747C26.8911 8.53426 26.8113 7.98734 26.8225 7.28247C26.8362 6.42951 26.9978 5.77675 27.1621 5.32885C27.3417 4.83879 27.8078 4.55088 28.3243 4.4759C33.9854 3.65419 38.8466 4.0727 41.3816 4.42549C42.5319 4.58557 43.4142 5.46789 43.5743 6.61823C43.9271 9.15324 44.3456 14.0144 43.5239 19.6755C43.4489 20.192 43.161 20.6581 42.671 20.8378C42.2231 21.002 41.5703 21.1636 40.7173 21.1773C40.0125 21.1885 39.4656 21.1087 39.0623 21.0085C38.4714 20.8616 38.1478 20.3031 38.125 19.6946C38.062 18.011 38.0719 16.268 38.1113 14.7159C35.1419 17.4726 31.6224 20.5867 28.9002 22.8594C28.1152 23.5147 26.9645 23.4515 26.2415 22.7285L25.2712 21.7582C24.5482 21.0352 24.4849 19.8846 25.1401 19.0997C27.4126 16.3774 30.5265 12.858 33.2831 9.88856Z" fill="#1F78F0"></path></g></svg>