<svg viewBox="0 0 24 24" fill="none" xmlns="http://www.w3.org/2000/svg">



<g transform="matrix(0.5,0,0,0.5,0,0)"><path fill-rule="evenodd" clip-rule="evenodd" d="M3.99995 15.5335C3.99995 10.2683 8.26825 6 13.5335 6C15.2076 6 16.6859 7.09187 17.1782 8.69194L19.3872 15.8712C19.8512 17.3791 19.3855 19.0189 18.1981 20.0578L17.0589 21.0546C16.4639 21.5753 16.2204 22.4025 16.5189 23.1346C18.0609 26.9171 21.0828 29.939 24.8654 31.4811C25.5975 31.7795 26.4247 31.536 26.9453 30.941L27.9421 29.8018C28.981 28.6145 30.6208 28.1487 32.1288 28.6127L39.308 30.8217C40.9081 31.314 41.9999 32.7924 41.9999 34.4665C41.9999 39.7317 37.7316 44 32.4664 44H30.5999C15.9092 44 3.99995 32.0908 3.99995 17.4V15.5335Z" fill="#91BEFF"></path><path fill-rule="evenodd" clip-rule="evenodd" d="M23.1559 14.184C23.2944 13.4392 23.9785 13 24.7361 13H25C30.5228 13 35 17.4772 35 23V23.2841C35 24.0311 34.5722 24.7085 33.8383 24.848C33.3682 24.9373 32.7554 25.007 32 25C31.2683 24.9933 30.6705 24.9245 30.2064 24.8401C29.4506 24.7025 29 24.0116 29 23.2433V23C29 20.7909 27.2091 19 25 19H24.7361C23.9785 19 23.2944 18.5608 23.1559 17.816C23.0691 17.3489 23 16.7435 23 16C23 15.2565 23.0691 14.6511 23.1559 14.184Z" fill="#1F78F0"></path><path fill-rule="evenodd" clip-rule="evenodd" d="M23.1559 4.184C23.2944 3.43922 23.9785 3 24.7361 3H26C36.4934 3 45 11.5066 45 22V23.2639C45 24.0215 44.5608 24.7056 43.816 24.8441C43.3489 24.9309 42.7435 25 42 25C41.2565 25 40.6511 24.9309 40.184 24.8441C39.4392 24.7056 39 24.0215 39 23.2639V22C39 14.8203 33.1797 9 26 9H24.7361C23.9785 9 23.2944 8.56078 23.1559 7.816C23.0691 7.34888 23 6.74355 23 6C23 5.25645 23.0691 4.65112 23.1559 4.184Z" fill="#1F78F0"></path></g></svg>