<svg viewBox="0 0 24 24" fill="none" xmlns="http://www.w3.org/2000/svg">


<g transform="matrix(0.5,0,0,0.5,0,0)"><path fill-rule="evenodd" clip-rule="evenodd" d="M3.99995 15.5335C3.99995 10.2683 8.26825 5.99999 13.5335 5.99999C15.2076 5.99999 16.6859 7.09186 17.1782 8.69193L19.3872 15.8712C19.8512 17.3791 19.3855 19.0189 18.1981 20.0578L17.0589 21.0546C16.4639 21.5752 16.2204 22.4025 16.5189 23.1346C18.0609 26.9171 21.0828 29.939 24.8654 31.4811C25.5975 31.7795 26.4247 31.536 26.9453 30.941L27.9421 29.8018C28.981 28.6145 30.6208 28.1487 32.1288 28.6127L39.308 30.8217C40.9081 31.314 41.9999 32.7924 41.9999 34.4665C41.9999 39.7317 37.7316 44 32.4664 44H30.5999C15.9092 44 3.99995 32.0908 3.99995 17.4V15.5335Z" fill="#91BEFF"></path><path fill-rule="evenodd" clip-rule="evenodd" d="M35.4029 17.4249C36.9549 17.3855 38.6975 17.3756 40.3808 17.4386C40.9894 17.4614 41.5478 17.785 41.6947 18.3759C41.795 18.7792 41.8747 19.3261 41.8635 20.0309C41.8499 20.8839 41.6882 21.5367 41.524 21.9846C41.3443 22.4746 40.8782 22.7625 40.3617 22.8375C34.7006 23.6592 29.8395 23.2407 27.3044 22.8879C26.1541 22.7278 25.2718 21.8455 25.1117 20.6952C24.7589 18.1602 24.3404 13.299 25.1621 7.63795C25.2371 7.1214 25.525 6.65533 26.0151 6.47566C26.463 6.31144 27.1157 6.14978 27.9687 6.13615C28.6736 6.1249 29.2205 6.20467 29.6237 6.30492C30.2147 6.45185 30.5383 7.01028 30.5611 7.61881C30.624 9.30244 30.6141 11.0454 30.5748 12.5976C33.5442 9.84084 37.0637 6.72676 39.7859 4.454C40.5708 3.79867 41.7215 3.86189 42.4446 4.58493L43.4148 5.55521C44.1378 6.27819 44.2011 7.42879 43.5459 8.21371C41.2734 10.936 38.1595 14.4554 35.4029 17.4249Z" fill="#1F78F0"></path></g></svg>