<svg viewBox="0 0 24 24" fill="none" xmlns="http://www.w3.org/2000/svg">


<g transform="matrix(0.5,0,0,0.5,0,0)"><path fill-rule="evenodd" clip-rule="evenodd" d="M4.99995 14.5335C4.99995 9.2683 9.26825 4.99999 14.5335 4.99999C16.2076 4.99999 17.6859 6.09186 18.1782 7.69193L20.3872 14.8712C20.8512 16.3791 20.3855 18.0189 19.1981 19.0578L18.0589 20.0546C17.4639 20.5752 17.2204 21.4025 17.5189 22.1346C19.0609 25.9171 22.0828 28.939 25.8654 30.4811C26.5975 30.7795 27.4247 30.536 27.9453 29.941L28.9421 28.8018C29.981 27.6145 31.6208 27.1487 33.1288 27.6127L40.308 29.8217C41.9081 30.314 42.9999 31.7924 42.9999 33.4665C42.9999 38.7317 38.7316 43 33.4664 43H31.5999C16.9092 43 4.99995 31.0908 4.99995 16.4V14.5335Z" fill="#91BEFF"></path><path d="M6.69287 37.5223C6.12545 38.1029 5.75998 38.875 6.1003 39.612C6.32962 40.1086 6.74109 40.7411 7.47487 41.4749C8.20866 42.2087 8.84114 42.6201 9.33774 42.8494C10.0747 43.1898 10.8469 42.8243 11.4274 42.2569C13.9643 39.7774 21.3268 32.5726 25.5061 28.3934C29.6853 24.2142 36.8901 16.8516 39.3696 14.3147C39.937 13.7342 40.3025 12.962 39.9621 12.225C39.7328 11.7284 39.3214 11.096 38.5876 10.3622C37.8538 9.62839 37.2213 9.21692 36.7247 8.98761C35.9877 8.64728 35.2156 9.01275 34.635 9.58017C32.0982 12.0597 24.7356 19.2644 20.5563 23.4437C16.3771 27.6229 9.17237 34.9855 6.69287 37.5223Z" fill="#1F78F0"></path></g></svg>