<svg viewBox="0 0 24 24" fill="none" xmlns="http://www.w3.org/2000/svg">



<g transform="matrix(0.5,0,0,0.5,0,0)"><path d="M7 27C7 36.3888 14.6112 44 24 44C33.3888 44 41 36.3888 41 27C41 17.6112 33.3888 10 24 10C14.6112 10 7 17.6112 7 27Z" fill="#91BEFF"></path><path fill-rule="evenodd" clip-rule="evenodd" d="M19 24C19 25.1046 18.1046 26 17 26C15.8954 26 15 25.1046 15 24C15 22.8954 15.8954 22 17 22C18.1046 22 19 22.8954 19 24ZM20 30.5C20.8284 30.5 21.5 31.1716 21.5 32C21.5 33.3807 22.6193 34.5 24 34.5C25.3807 34.5 26.5 33.3807 26.5 32C26.5 31.1716 27.1716 30.5 28 30.5C28.8284 30.5 29.5 31.1716 29.5 32C29.5 35.0376 27.0376 37.5 24 37.5C20.9624 37.5 18.5 35.0376 18.5 32C18.5 31.1716 19.1716 30.5 20 30.5ZM31 26C29.8954 26 29 25.1046 29 24C29 22.8954 29.8954 22 31 22C32.1046 22 33 22.8954 33 24C33 25.1046 32.1046 26 31 26Z" fill="#1F78F0"></path><path d="M18.4245 7.60433C18.8677 7.8345 19.4091 7.69505 19.6915 7.28322C20.6648 5.86387 22.2246 3.58911 23.1764 2.20108C23.5736 1.62178 24.4263 1.62178 24.8236 2.20108C25.7754 3.58911 27.3352 5.86387 28.3085 7.28322C28.5909 7.69505 29.1323 7.8345 29.5755 7.60433C31.0844 6.8206 32.7635 5.87596 34.0266 5.1504C34.7826 4.71615 35.689 5.37627 35.4782 6.22224C35.0818 7.81334 34.4687 10.1012 33.6706 12.5564C33.5791 12.8379 33.3671 13.0603 33.082 13.1396C32.0922 13.4145 29.3561 14 24 14C18.7006 14 15.966 13.4269 14.9501 13.1484C14.6468 13.0653 14.426 12.821 14.3429 12.5177C13.6273 9.90614 13.0595 7.84137 12.6621 6.39913C12.4227 5.53012 13.369 4.80427 14.1511 5.25237C15.3913 5.96294 16.9854 6.85682 18.4245 7.60433Z" fill="#1F78F0"></path></g></svg>