<svg viewBox="0 0 24 24" fill="none" xmlns="http://www.w3.org/2000/svg">





<g transform="matrix(0.5,0,0,0.5,0,0)"><path d="M24 10C33.3888 10 41 17.6751 41 27.1429V40.5914C41 42.8568 39.6621 44.807 37.4263 45.1716C34.8585 45.5904 30.6478 46 24 46C17.3522 46 13.1415 45.5904 10.5737 45.1716C8.3379 44.807 7 42.8568 7 40.5914V27.1429C7 17.6751 14.6112 10 24 10Z" fill="#1F78F0"></path><path d="M7 27C7 36.3888 14.6112 44 24 44C33.3888 44 41 36.3888 41 27C41 17.6112 33.3888 10 24 10C14.6112 10 7 17.6112 7 27Z" fill="#91BEFF"></path><path fill-rule="evenodd" clip-rule="evenodd" d="M41 26.9811C32.993 26.6229 26.2962 21.2293 24 13.8908C21.7039 21.2293 15.0071 26.6229 7 26.9811C7.01022 17.6009 14.6175 10 24 10C33.3825 10 40.9898 17.6009 41 26.9811Z" fill="#1F78F0"></path><path fill-rule="evenodd" clip-rule="evenodd" d="M19 27C19 28.1046 18.1046 29 17 29C15.8954 29 15 28.1046 15 27C15 25.8954 15.8954 25 17 25C18.1046 25 19 25.8954 19 27ZM20 32.5C20.8284 32.5 21.5 33.1716 21.5 34C21.5 35.3807 22.6193 36.5 24 36.5C25.3807 36.5 26.5 35.3807 26.5 34C26.5 33.1716 27.1716 32.5 28 32.5C28.8284 32.5 29.5 33.1716 29.5 34C29.5 37.0376 27.0376 39.5 24 39.5C20.9624 39.5 18.5 37.0376 18.5 34C18.5 33.1716 19.1716 32.5 20 32.5ZM31 29C29.8954 29 29 28.1046 29 27C29 25.8954 29.8954 25 31 25C32.1046 25 33 25.8954 33 27C33 28.1046 32.1046 29 31 29Z" fill="#1F78F0"></path><path d="M18.4245 7.60433C18.8677 7.8345 19.4091 7.69505 19.6915 7.28322C20.6648 5.86387 22.2246 3.58911 23.1764 2.20108C23.5736 1.62178 24.4263 1.62178 24.8236 2.20108C25.7754 3.58911 27.3352 5.86387 28.3085 7.28322C28.5909 7.69505 29.1323 7.8345 29.5755 7.60433C31.0844 6.8206 32.7635 5.87596 34.0266 5.1504C34.7826 4.71615 35.689 5.37627 35.4782 6.22224C35.0818 7.81334 34.4687 10.1012 33.6706 12.5564C33.5791 12.8379 33.3671 13.0603 33.082 13.1396C32.0922 13.4145 29.3561 14 24 14C18.7006 14 15.966 13.4269 14.9501 13.1484C14.6468 13.0653 14.426 12.821 14.3429 12.5177C13.6273 9.90614 13.0595 7.84137 12.6621 6.39913C12.4227 5.53012 13.369 4.80427 14.1511 5.25237C15.3913 5.96294 16.9854 6.85682 18.4245 7.60433Z" fill="#91BEFF"></path></g></svg>