<svg viewBox="0 0 24 24" fill="none" xmlns="http://www.w3.org/2000/svg">




<g transform="matrix(0.5,0,0,0.5,0,0)"><path d="M46 27.0045C46 25.9207 45.4154 24.9212 44.4708 24.3898L26 14V25L44.1362 29.534C45.0829 29.7707 46 29.0547 46 28.0788V27.0045Z" fill="#91BEFF"></path><path d="M4 27.0045C4 25.9207 4.58459 24.9212 5.52922 24.3898L24 14V25L5.8638 29.534C4.91708 29.7707 4 29.0547 4 28.0788V27.0045Z" fill="#91BEFF"></path><path d="M18 13C18.581 8.35205 20.5122 5.72942 22.0286 4.34765C23.1674 3.30996 24.8326 3.30996 25.9714 4.34765C27.4878 5.72942 29.419 8.35205 30 13C29.5 26 28 35 28 35L32.8284 39.8284C33.5786 40.5786 34 41.596 34 42.6569V43.523C34 44.2304 33.2855 44.7142 32.6286 44.4514L24 41L15.3714 44.4514C14.7145 44.7142 14 44.2304 14 43.523V42.6569C14 41.596 14.4214 40.5786 15.1716 39.8284L20 35C20 35 18.5 26 18 13Z" fill="#91BEFF"></path><path d="M5.69588 35.5223C5.16549 36.064 4.80163 36.7726 5.07718 37.4789C5.28198 38.0038 5.6867 38.6867 6.47487 39.4749C7.26305 40.2631 7.94595 40.6678 8.47085 40.8726C9.17711 41.1481 9.88575 40.7843 10.4274 40.2539C13.0465 37.6895 21.2791 29.6204 25.9203 24.9792C30.5615 20.338 38.6306 12.1053 41.195 9.4863C41.7254 8.94462 42.0892 8.23599 41.8137 7.52973C41.6089 7.00482 41.2042 6.32193 40.416 5.53375C39.6278 4.74557 38.9449 4.34085 38.42 4.13606C37.7138 3.8605 37.0051 4.22436 36.4634 4.75475C33.8444 7.31916 25.6118 15.3882 20.9706 20.0294C16.3293 24.6707 8.26029 32.9033 5.69588 35.5223Z" fill="#1F78F0"></path></g></svg>