<svg viewBox="0 0 24 24" fill="none" xmlns="http://www.w3.org/2000/svg">


<g transform="matrix(0.5,0,0,0.5,0,0)"><g clip-path="url(#clip0_589:1782)">
<path d="M4 24C4 35.0457 12.9543 44 24 44C35.0457 44 44 35.0457 44 24C44 12.9543 35.0457 4 24 4C12.9543 4 4 12.9543 4 24Z" fill="#91BEFF"></path>
<path fill-rule="evenodd" clip-rule="evenodd" d="M39.4974 11.3552C37.5896 13.5019 33.674 17.7914 27.5268 24C28.6927 25.1775 29.7783 26.286 30.7852 27.3239C34.6363 24.3104 39.3373 22.9063 43.9804 23.1115C44.0442 24.5565 43.9522 26.0071 43.7043 27.436C40.4053 27.5268 37.0938 28.7282 34.244 30.9346C36.6737 33.5052 38.411 35.4224 39.4974 36.6447C39.0753 37.1608 38.6236 37.6607 38.1421 38.1421C37.6607 38.6235 37.1608 39.0753 36.6448 39.4974C35.4224 38.411 33.5052 36.6736 30.9346 34.2439C28.7282 37.0938 27.5269 40.4052 27.436 43.7043C26.0072 43.9522 24.5565 44.0442 23.1115 43.9803C22.9063 39.3372 24.3105 34.6362 27.324 30.7851C26.286 29.7783 25.1775 28.6927 24 27.5268C17.7914 33.6739 13.5019 37.5895 11.3552 39.4974C10.8392 39.0753 10.3393 38.6235 9.85786 38.1421C9.37642 37.6607 8.92466 37.1608 8.50256 36.6447C10.4104 34.4981 14.326 30.2086 20.4732 24C19.3073 22.8224 18.2217 21.7139 17.2148 20.676C13.3637 23.6895 8.66275 25.0937 4.01962 24.8885C3.95576 23.4434 4.04778 21.9928 4.29567 20.5639C7.59474 20.4731 10.9062 19.2717 13.756 17.0654C11.3263 14.4947 9.58895 12.5776 8.50257 11.3552C8.92466 10.8392 9.37642 10.3393 9.85786 9.85783C10.3393 9.37639 10.8392 8.92463 11.3552 8.50254C12.5776 9.58892 14.4947 11.3263 17.0654 13.756C19.2718 10.9062 20.4731 7.5947 20.564 4.29564C21.9928 4.04775 23.4435 3.95573 24.8885 4.01959C25.0937 8.66272 23.6895 13.3637 20.676 17.2148C21.714 18.2217 22.8225 19.3073 24 20.4731C30.2086 14.326 34.4981 10.4104 36.6448 8.50253C37.1608 8.92462 37.6607 9.37639 38.1421 9.85783C38.6236 10.3393 39.0753 10.8392 39.4974 11.3552Z" fill="#1F78F0"></path>
</g><defs>
<clipPath id="clip0_589:1782">
<rect width="48" height="48" fill="white"></rect>
</clipPath>
</defs></g></svg>