<svg viewBox="0 0 24 24" fill="none" xmlns="http://www.w3.org/2000/svg">




<g transform="matrix(0.5,0,0,0.5,0,0)"><path fill-rule="evenodd" clip-rule="evenodd" d="M5.71504 17.4869C4.9218 17.3025 4.08228 17.4627 3.76213 18.2115C3.67689 18.4109 3.59339 18.6487 3.51751 18.9319C3.44164 19.215 3.39504 19.4627 3.36917 19.678C3.272 20.4866 3.919 21.0451 4.6982 21.2821C5.2464 21.4488 5.97465 21.6608 6.86358 21.899C8.1315 22.2387 9.76377 22.6417 10.8876 22.9147C11.7392 23.1215 12.6445 22.9614 12.9705 22.1478C13.0423 21.9685 13.1123 21.7607 13.1768 21.5201C13.2412 21.2795 13.2846 21.0645 13.312 20.8733C13.4365 20.0058 12.7325 19.4144 11.8916 19.1677C10.7819 18.8422 9.16679 18.375 7.89886 18.0353C7.00988 17.7971 6.27315 17.6166 5.71504 17.4869ZM5.71504 38.5132C4.9218 38.6975 4.08228 38.5374 3.76213 37.7885C3.67689 37.5892 3.59339 37.3513 3.51751 37.0681C3.44164 36.785 3.39504 36.5373 3.36917 36.322C3.272 35.5134 3.919 34.9549 4.6982 34.718C5.2464 34.5513 5.97465 34.3392 6.86358 34.101C8.1315 33.7613 9.76377 33.3583 10.8876 33.0854C11.7392 32.8785 12.6445 33.0387 12.9705 33.8522C13.0424 34.0315 13.1123 34.2394 13.1768 34.48C13.2412 34.7205 13.2846 34.9355 13.312 35.1268C13.4365 35.9943 12.7325 36.5856 11.8916 36.8323C10.7819 37.1578 9.16679 37.625 7.89886 37.9647C7.00989 38.2029 6.27315 38.3834 5.71504 38.5132ZM3 28C3 27.7069 3.0191 27.4555 3.04983 27.2409C3.16526 26.4347 3.93472 26.0627 4.74865 26.0355C5.32132 26.0164 6.07966 26 7 26C8.31266 26 9.99363 26.0333 11.1498 26.0605C12.0259 26.0811 12.8589 26.4701 12.9632 27.3403C12.9862 27.5321 13 27.751 13 28C13 28.2491 12.9862 28.468 12.9632 28.6598C12.8589 29.53 12.0259 29.919 11.1497 29.9396C9.9936 29.9668 8.31265 30 7 30C6.07971 30 5.3214 29.9837 4.74873 29.9646C3.93475 29.9374 3.16524 29.5653 3.04982 28.7591C3.0191 28.5445 3 28.2932 3 28Z" fill="#1F78F0"></path><path fill-rule="evenodd" clip-rule="evenodd" d="M42.637 17.4869C43.4303 17.3025 44.2698 17.4627 44.5899 18.2115C44.6752 18.4109 44.7587 18.6487 44.8345 18.9319C44.9104 19.215 44.957 19.4627 44.9829 19.678C45.0801 20.4866 44.4331 21.0451 43.6538 21.2821C43.1056 21.4488 42.3774 21.6608 41.4885 21.899C40.2205 22.2387 38.5883 22.6417 37.4645 22.9147C36.6128 23.1215 35.7075 22.9614 35.3816 22.1478C35.3097 21.9685 35.2397 21.7607 35.1753 21.5201C35.1108 21.2795 35.0675 21.0645 35.04 20.8733C34.9156 20.0058 35.6195 19.4144 36.4605 19.1677C37.5702 18.8422 39.1853 18.375 40.4532 18.0353C41.3422 17.7971 42.0789 17.6166 42.637 17.4869ZM42.637 38.5132C43.4303 38.6975 44.2698 38.5374 44.5899 37.7885C44.6752 37.5892 44.7587 37.3513 44.8345 37.0681C44.9104 36.785 44.957 36.5373 44.9829 36.322C45.0801 35.5134 44.4331 34.9549 43.6538 34.718C43.1056 34.5513 42.3774 34.3392 41.4885 34.101C40.2205 33.7613 38.5883 33.3583 37.4645 33.0854C36.6128 32.8785 35.7075 33.0387 35.3816 33.8522C35.3097 34.0315 35.2397 34.2394 35.1753 34.48C35.1108 34.7205 35.0675 34.9355 35.04 35.1268C34.9156 35.9943 35.6195 36.5856 36.4605 36.8323C37.5702 37.1578 39.1853 37.625 40.4532 37.9647C41.3422 38.2029 42.0789 38.3834 42.637 38.5132ZM45.3521 28C45.3521 27.7069 45.333 27.4555 45.3022 27.2409C45.1868 26.4347 44.4173 26.0627 43.6034 26.0355C43.0307 26.0164 42.2724 26 41.3521 26C40.0394 26 38.3584 26.0333 37.2023 26.0605C36.3261 26.0811 35.4931 26.4701 35.3888 27.3403C35.3658 27.5321 35.3521 27.751 35.3521 28C35.3521 28.2491 35.3658 28.468 35.3888 28.6598C35.4931 29.53 36.3261 29.919 37.2023 29.9396C38.3585 29.9668 40.0394 30 41.3521 30C42.2723 30 43.0307 29.9837 43.6033 29.9646C44.4173 29.9374 45.1868 29.5653 45.3022 28.7591C45.333 28.5445 45.3521 28.2932 45.3521 28Z" fill="#1F78F0"></path><path fill-rule="evenodd" clip-rule="evenodd" d="M19.3077 4.53212C18.8772 3.84085 18.1703 3.36048 17.4144 3.6636C17.2132 3.74431 16.9859 3.85343 16.732 4.00002C16.4782 4.14659 16.2701 4.28878 16.0996 4.42271C15.4591 4.92577 15.5217 5.7782 15.9051 6.49672C16.1748 7.00223 16.5399 7.66711 17 8.46411C17.1471 8.71892 17.3049 8.98893 17.468 9.26564C12.4392 11.3998 9.17823 16.0944 9.03981 22.2841C9.01419 23.4297 9 24.6662 9 26C9 27.3339 9.01419 28.5704 9.03981 29.7159C9.23163 38.2937 15.4201 44 24 44C32.5799 44 38.7684 38.2937 38.9602 29.7159C38.9858 28.5704 39 27.3339 39 26C39 24.6662 38.9858 23.4297 38.9602 22.2841C38.8218 16.0944 35.5608 11.3998 30.532 9.26564C30.6951 8.98893 30.8529 8.71893 31 8.46411C31.4601 7.66711 31.8252 7.00223 32.0949 6.49672C32.4783 5.7782 32.5409 4.92577 31.9004 4.42271C31.7299 4.28878 31.5218 4.14659 31.268 4.00002C31.0141 3.85343 30.7868 3.74431 30.5856 3.6636C29.8297 3.36048 29.1228 3.84085 28.6923 4.53212C28.3894 5.0185 27.9961 5.66708 27.5359 6.46411C27.2324 6.98976 26.8957 7.58716 26.5666 8.17789C25.7389 8.06034 24.8821 8.00003 24 8.00003C23.1179 8.00003 22.2611 8.06034 21.4334 8.17789C21.1043 7.58716 20.7676 6.98976 20.4641 6.46411C20.0039 5.66708 19.6106 5.0185 19.3077 4.53212Z" fill="#1F78F0"></path><path fill-rule="evenodd" clip-rule="evenodd" d="M22 22.0375C22 20.9231 21.0887 20.022 19.9748 20.0518C18.188 20.0997 16.5969 20.1783 15.1832 20.2771C14.231 20.3437 13.4714 21.0901 13.3818 22.0404C13.1691 24.2968 12.9816 26.9452 12.9409 29.549C12.8662 34.324 15.6521 37.8716 19.7503 39.3039C20.9035 39.7069 22 38.7573 22 37.5357V22.0375ZM26 37.5356C26 38.7572 27.0965 39.7068 28.2497 39.3038C32.3478 37.8714 35.1334 34.3238 35.0587 29.549C35.018 26.9452 34.8305 24.2968 34.6178 22.0404C34.5282 21.0901 33.7687 20.3437 32.8164 20.2771C31.4029 20.1783 29.8118 20.0997 28.0252 20.0518C26.9113 20.022 26 20.9231 26 22.0375V37.5356Z" fill="#91BEFF"></path></g></svg>