<svg viewBox="0 0 24 24" fill="none" xmlns="http://www.w3.org/2000/svg">








<g transform="matrix(0.5,0,0,0.5,0,0)"><path d="M4.56198 8.68502C4.73932 6.96777 5.86521 5.60848 7.55375 5.24901C10.219 4.68162 15.2432 4 24 4C32.7568 4 37.781 4.68162 40.4463 5.24901C42.1348 5.60848 43.2607 6.96778 43.438 8.68502C43.701 11.2312 44 15.9061 44 24C44 32.0939 43.701 36.7688 43.438 39.315C43.2607 41.0322 42.1348 42.3915 40.4462 42.751C37.781 43.3184 32.7568 44 24 44C15.2432 44 10.219 43.3184 7.55375 42.751C5.86521 42.3915 4.73932 41.0322 4.56198 39.315C4.29904 36.7688 4 32.0939 4 24C4 15.9061 4.29904 11.2312 4.56198 8.68502Z" fill="#91BEFF"></path><path d="M10 14C10 11.7909 11.7909 10 14 10H34C36.2091 10 38 11.7909 38 14V14C38 16.2091 36.2091 18 34 18H14C11.7909 18 10 16.2091 10 14V14Z" fill="#1F78F0"></path><path d="M17 25C17 26.6569 15.6569 28 14 28C12.3431 28 11 26.6569 11 25C11 23.3431 12.3431 22 14 22C15.6569 22 17 23.3431 17 25Z" fill="#1F78F0"></path><path d="M27 25C27 26.6569 25.6569 28 24 28C22.3431 28 21 26.6569 21 25C21 23.3431 22.3431 22 24 22C25.6569 22 27 23.3431 27 25Z" fill="#1F78F0"></path><path d="M37 25C37 26.6569 35.6569 28 34 28C32.3431 28 31 26.6569 31 25C31 23.3431 32.3431 22 34 22C35.6569 22 37 23.3431 37 25Z" fill="#1F78F0"></path><path d="M27 35C27 36.6569 25.6569 38 24 38C22.3431 38 21 36.6569 21 35C21 33.3431 22.3431 32 24 32C25.6569 32 27 33.3431 27 35Z" fill="#1F78F0"></path><path d="M17 35C17 36.6569 15.6569 38 14 38C12.3431 38 11 36.6569 11 35C11 33.3431 12.3431 32 14 32C15.6569 32 17 33.3431 17 35Z" fill="#1F78F0"></path><path d="M37 35C37 36.6569 35.6569 38 34 38C32.3431 38 31 36.6569 31 35C31 33.3431 32.3431 32 34 32C35.6569 32 37 33.3431 37 35Z" fill="#1F78F0"></path></g></svg>