<svg viewBox="0 0 24 24" fill="none" xmlns="http://www.w3.org/2000/svg">




<g transform="matrix(0.5,0,0,0.5,0,0)"><path d="M40.356 10.2667C40.2405 7.59431 38.5118 5.35916 35.8799 4.88186C33.3562 4.42419 29.5265 4 24.0001 4C18.4736 4 14.6439 4.42419 12.1203 4.88186C9.48836 5.35917 7.75968 7.59429 7.64409 10.2666C7.0324 24.4088 12.0001 36 12.0001 36H36.0001C36.0001 36 40.9677 24.4088 40.356 10.2667Z" fill="#1F78F0"></path><path fill-rule="evenodd" clip-rule="evenodd" d="M14 41H10C10 41 10 41.7463 10.3224 43.239C10.4193 43.6875 10.8219 44 11.2808 44H12.7192C13.1781 44 13.5807 43.6875 13.6776 43.239C14 41.7463 14 41 14 41ZM38 41H34C34 41 34 41.7463 34.3224 43.239C34.4193 43.6875 34.8219 44 35.2808 44H36.7192C37.1781 44 37.5807 43.6875 37.6776 43.239C38 41.7463 38 41 38 41Z" fill="#1F78F0"></path><path fill-rule="evenodd" clip-rule="evenodd" d="M18 18C19.1046 18 20 17.1046 20 16C20 14.8954 19.1046 14 18 14C16.8954 14 16 14.8954 16 16C16 17.1046 16.8954 18 18 18ZM30 18C31.1046 18 32 17.1046 32 16C32 14.8954 31.1046 14 30 14C28.8954 14 28 14.8954 28 16C28 17.1046 28.8954 18 30 18Z" fill="#91BEFF"></path><path fill-rule="evenodd" clip-rule="evenodd" d="M4.10077 25.3444C3.93496 22.6016 5.46326 20.0235 8.21049 20.0782C8.54002 20.0848 8.88825 20.1045 9.25507 20.1404C11.5452 20.3641 13.1374 22.3851 13.3675 24.6746C13.5707 26.6971 13.7127 28.6454 13.8104 30.459C16.061 30.2425 19.5707 30 23.9999 30C28.3874 30 31.8725 30.238 34.1254 30.4529C34.223 28.641 34.3649 26.6948 34.568 24.6746C34.798 22.3851 36.3902 20.3641 38.6804 20.1404C39.0472 20.1045 39.3954 20.0848 39.725 20.0782C42.4722 20.0235 44.0005 22.6016 43.8347 25.3444C43.6515 28.3749 43.2743 32.8819 42.4979 38.595C42.2317 40.5541 40.5475 42 38.5704 42H38.5078H35.9095C35.9057 42 35.902 42 35.8982 42H12.0373C12.0335 42 12.0297 42 12.0259 42H9.42769H9.36506C7.38792 42 5.70373 40.5541 5.4375 38.595C4.66114 32.8819 4.28399 28.3749 4.10077 25.3444Z" fill="#91BEFF"></path></g></svg>