<svg viewBox="0 0 24 24" fill="none" xmlns="http://www.w3.org/2000/svg">


<g transform="matrix(0.5,0,0,0.5,0,0)"><path d="M15.1282 17.4694C15.6054 17.7636 16.2265 17.6037 16.5046 17.1169C17.9773 14.5396 20.5497 10.0381 22.2639 7.0382C23.0316 5.69456 24.9683 5.69456 25.7361 7.03819C27.4503 10.0381 30.0226 14.5396 31.4954 17.1169C31.7735 17.6037 32.3946 17.7636 32.8718 17.4694C35.3984 15.9117 38.2763 13.9758 40.4724 12.4652C41.8744 11.5007 43.7725 12.5873 43.6023 14.2804C43.0365 19.909 41.883 29.868 40.2452 36.5729C40.0146 37.517 39.4692 38.3278 38.5461 38.6319C36.7677 39.218 32.7544 40 24 40C15.4586 40 11.4304 39.2556 9.58766 38.675C8.57315 38.3554 7.99736 37.4568 7.77689 36.4163C6.17207 28.8419 5.02933 19.6364 4.44519 14.3342C4.25784 12.6336 6.16395 11.5275 7.57371 12.4969C9.7639 14.0028 12.6193 15.9226 15.1282 17.4694Z" fill="#91BEFF"></path><path d="M30 27C30 28.5 25.5 35 24 35C22.5 35 18 28.5 18 27C18 25.5 22.5 19 24 19C25.5 19 30 25.5 30 27Z" fill="#1F78F0"></path></g></svg>