<svg viewBox="0 0 24 24" fill="none" xmlns="http://www.w3.org/2000/svg">


<g transform="matrix(0.5,0,0,0.5,0,0)"><path fill-rule="evenodd" clip-rule="evenodd" d="M21.6143 11.7272C21.2957 11.1685 20.7517 10.8137 20.1806 11.1033C20.0769 11.1558 19.964 11.2195 19.8415 11.2964C19.7191 11.3733 19.612 11.4479 19.5183 11.5193C19.0022 11.9127 19.0127 12.6028 19.2981 13.1824C19.4479 13.4867 19.6377 13.8611 19.868 14.2951C20.0556 14.6488 20.2729 15.0471 20.4881 15.4367C18.3544 16.168 16.7219 17.6843 15.8831 19.7499C15.6886 19.6952 15.4988 19.6429 15.3211 19.5953C14.846 19.4679 14.4487 19.3724 14.1429 19.3035C13.684 19.2002 13.214 19.3226 13.0268 19.7542C12.9578 19.9131 12.887 20.112 12.8206 20.36C12.7541 20.608 12.716 20.8157 12.6962 20.9878C12.6426 21.4552 12.9884 21.7961 13.4375 21.9361C13.7367 22.0294 14.1285 22.1453 14.6037 22.2726C14.8146 22.3291 15.0438 22.3884 15.2781 22.4476C15.2687 22.5886 15.2622 22.731 15.2588 22.8749C15.2478 23.3448 15.24 23.8422 15.2363 24.3687C14.8851 24.3623 14.5321 24.358 14.2173 24.358C13.7254 24.358 13.3169 24.3685 13.0037 24.3812C12.5337 24.4001 12.1115 24.64 12.0423 25.1053C12.0168 25.2766 11.9999 25.4871 11.9999 25.7439C11.9999 26.0007 12.0168 26.2111 12.0423 26.3825C12.1115 26.8478 12.5337 27.0876 13.0038 27.1066C13.3169 27.1192 13.7254 27.1298 14.2173 27.1298C14.5374 27.1298 14.8969 27.1253 15.2538 27.1187C15.2554 27.1953 15.2571 27.2712 15.2588 27.3464C15.2724 27.9212 15.3344 28.4728 15.4412 28.9986C15.1506 29.0714 14.8633 29.1451 14.6037 29.2146C14.1285 29.342 13.7367 29.4579 13.4375 29.5511C12.9884 29.6911 12.6426 30.0321 12.6962 30.4994C12.716 30.6715 12.7541 30.8792 12.8206 31.1272C12.887 31.3753 12.9578 31.5742 13.0268 31.7331C13.214 32.1646 13.684 32.287 14.1429 32.1837C14.4487 32.1149 14.846 32.0193 15.3211 31.892C15.6664 31.7995 16.0578 31.6888 16.4395 31.5784C17.8474 33.8891 20.4072 35.2739 23.549 35.2739C26.6908 35.2739 29.2505 33.8892 30.6585 31.5785C31.0402 31.689 31.4316 31.7996 31.7769 31.8921C32.2521 32.0194 32.6494 32.115 32.9551 32.1838C33.4141 32.2872 33.884 32.1647 34.0713 31.7332C34.1402 31.5743 34.211 31.3754 34.2775 31.1274C34.344 30.8793 34.3821 30.6717 34.4018 30.4995C34.4554 30.0322 34.1097 29.6912 33.6606 29.5513C33.3613 29.458 32.9695 29.3421 32.4943 29.2148C32.2347 29.1452 31.9474 29.0715 31.6568 28.9987C31.7637 28.4729 31.8256 27.9212 31.8392 27.3464C31.841 27.2712 31.8427 27.1954 31.8443 27.1188C32.2012 27.1254 32.5607 27.1299 32.8807 27.1299C33.3727 27.1299 33.7811 27.1194 34.0943 27.1067C34.5643 27.0878 34.9866 26.8479 35.0558 26.3826C35.0812 26.2112 35.0982 26.0008 35.0982 25.744C35.0982 25.4872 35.0812 25.2768 35.0558 25.1054C34.9866 24.6401 34.5644 24.4003 34.0944 24.3813C33.7812 24.3686 33.3727 24.3581 32.8807 24.3581C32.5659 24.3581 32.2129 24.3624 31.8618 24.3688C31.858 23.8423 31.8503 23.3448 31.8392 22.8749C31.8358 22.731 31.8294 22.5886 31.82 22.4477C32.0543 22.3885 32.2835 22.3292 32.4943 22.2727C32.9695 22.1454 33.3613 22.0295 33.6606 21.9362C34.1097 21.7963 34.4554 21.4553 34.4018 20.988C34.3821 20.8158 34.344 20.6082 34.2775 20.3601C34.211 20.1121 34.1402 19.9132 34.0713 19.7543C33.884 19.3227 33.4141 19.2003 32.9551 19.3037C32.6494 19.3725 32.2521 19.4681 31.7769 19.5954C31.5993 19.643 31.4095 19.6954 31.215 19.75C30.3762 17.6844 28.7437 16.1681 26.6101 15.4368C26.8254 15.0471 27.0426 14.6488 27.2303 14.2951C27.4606 13.8611 27.6504 13.4867 27.8002 13.1824C28.0856 12.6028 28.096 11.9127 27.58 11.5193C27.4863 11.4479 27.3792 11.3733 27.2568 11.2964C27.1343 11.2195 27.0214 11.1558 26.9177 11.1033C26.3466 10.8137 25.8026 11.1685 25.4839 11.7272C25.3166 12.0206 25.1135 12.3866 24.8832 12.8206C24.5345 13.4778 24.1144 14.3079 23.7931 14.9502C23.7121 14.9483 23.6308 14.9474 23.549 14.9474C23.4673 14.9474 23.3861 14.9483 23.3052 14.9502C22.9838 14.3079 22.5638 13.4778 22.215 12.8206C21.9848 12.3866 21.7816 12.0206 21.6143 11.7272Z" fill="#91BEFF"></path><path fill-rule="evenodd" clip-rule="evenodd" d="M45 24C45 35.598 35.598 45 24 45C12.402 45 3 35.598 3 24C3 12.402 12.402 3 24 3C35.598 3 45 12.402 45 24ZM40 24C40 32.8366 32.8366 40 24 40C20.3313 40 16.9511 38.7653 14.2521 36.6887C17.1943 33.7962 22.4651 28.606 25.6777 25.3934C28.7883 22.2827 33.753 17.2424 36.6908 14.2548C38.7661 16.9533 40 20.3326 40 24ZM33.2096 10.9147C30.6054 9.07846 27.4287 8 24 8C15.1634 8 8 15.1634 8 24C8 27.4299 9.07924 30.6077 10.9167 33.2124C13.8222 30.2571 18.9552 25.0448 22.1421 21.8579C25.2282 18.7718 30.2136 13.8608 33.2096 10.9147Z" fill="#1F78F0"></path></g></svg>