<svg viewBox="0 0 24 24" fill="none" xmlns="http://www.w3.org/2000/svg">



<g transform="matrix(0.5,0,0,0.5,0,0)"><path d="M43.8347 17.0024L38.8682 8.48839C38.3306 7.56673 37.3439 7 36.2769 7H11.7231C10.6561 7 9.66941 7.56673 9.13177 8.48839L4.16529 17.0024C3.4786 18.1795 3.67165 19.6716 4.6353 20.6353L22.5858 38.5858C23.3668 39.3668 24.6332 39.3668 25.4142 38.5858L43.3647 20.6353C44.3284 19.6716 44.5214 18.1795 43.8347 17.0024Z" fill="#91BEFF"></path><path fill-rule="evenodd" clip-rule="evenodd" d="M22.4204 38.4206L22.5856 38.5858C22.8144 38.8145 23.0847 38.9763 23.3723 39.071L22.4204 38.4206ZM24.1466 39.1662C24.6085 39.1324 25.0609 38.939 25.4141 38.5858L43.3646 20.6353C44.3282 19.6716 44.5213 18.1795 43.8346 17.0024L38.8681 8.48839C38.3304 7.56673 37.3437 7 36.2767 7H28.9999L32.6344 17.9036C32.8696 18.6093 32.8343 19.3771 32.5353 20.0582L24.1466 39.1662Z" fill="#1F78F0"></path><path fill-rule="evenodd" clip-rule="evenodd" d="M25.5796 38.4206L25.4144 38.5858C25.1856 38.8145 24.9153 38.9763 24.6277 39.071L25.5796 38.4206ZM23.8534 39.1662C23.3915 39.1324 22.9391 38.939 22.5859 38.5858L4.63544 20.6353C3.67179 19.6716 3.47875 18.1795 4.16543 17.0024L9.13192 8.48839C9.66955 7.56673 10.6563 7 11.7233 7H19.0001L15.3656 17.9036C15.1304 18.6093 15.1657 19.3771 15.4647 20.0582L23.8534 39.1662Z" fill="#1F78F0"></path></g></svg>