<svg viewBox="0 0 24 24" fill="none" xmlns="http://www.w3.org/2000/svg">


<g transform="matrix(0.5,0,0,0.5,0,0)"><path fill-rule="evenodd" clip-rule="evenodd" d="M21.7082 5.30802C22.803 5.00379 23.7409 5.94531 23.8097 7.07952C23.9528 9.43847 24.4418 12.0369 25.734 13.7768C26.4059 14.6815 27.6986 14.8976 28.5033 14.1086C29.3225 13.3054 29.9636 12.0866 30.4602 10.7703C30.9529 9.46395 32.5252 8.84528 33.6258 9.70434C38.7474 13.7018 44 19.8004 44 28C44 39.0457 35.0457 44 24 44C12.9543 44 4 39.0457 4 28C4 16.7775 13.8394 9.49076 19.7154 6.13979C20.3539 5.77568 21.023 5.49842 21.7082 5.30802Z" fill="#91BEFF"></path><path d="M24.7232 24.3336C24.2638 24.1041 23.7362 24.1041 23.2768 24.3336C21.4881 25.2272 17 27.916 17 32.4C17 36.266 20.134 38 24 38C27.866 38 31 36.266 31 32.4C31 27.916 26.512 25.2272 24.7232 24.3336Z" fill="#1F78F0"></path></g></svg>