<svg viewBox="0 0 24 24" fill="none" xmlns="http://www.w3.org/2000/svg">


<g transform="matrix(0.5,0,0,0.5,0,0)"><path fill-rule="evenodd" clip-rule="evenodd" d="M18.5027 29.1805C18.5655 28.6329 18.1754 28.137 17.6287 28.0667C13.0331 27.4762 9.42818 26.8105 7.08328 26.3228C5.64485 26.0237 5.09822 24.3409 6.07254 23.2412C9.76795 19.0704 17.925 10.1802 26.596 2.7946C27.9038 1.68064 29.8577 2.69109 29.7496 4.40564C29.3791 10.283 28.9273 15.077 28.4978 18.8196C28.435 19.3673 28.8251 19.8632 29.3718 19.9335C33.9674 20.524 37.5723 21.1897 39.9172 21.6774C41.3556 21.9765 41.9023 23.6593 40.928 24.759C37.2325 28.9298 29.0755 37.82 20.4045 45.2056C19.0967 46.3195 17.1428 45.3091 17.2509 43.5945C17.6214 37.7171 18.0732 32.9231 18.5027 29.1805Z" fill="#91BEFF"></path><path d="M43.0166 40.5174C43.552 41.0628 43.9215 41.7823 43.6395 42.4927C43.4322 43.0149 43.0267 43.6925 42.2444 44.4749C41.462 45.2572 40.7844 45.6627 40.2621 45.87C39.5518 46.152 38.8323 45.7825 38.2869 45.2471C35.4426 42.4555 26.0458 33.2261 21.3847 28.565C16.7236 23.9039 7.49413 14.5071 4.70255 11.6628C4.16721 11.1174 3.79765 10.3979 4.07966 9.68754C4.28699 9.16531 4.69248 8.48765 5.47481 7.70532C6.25714 6.92299 6.9348 6.5175 7.45703 6.31017C8.16737 6.02816 8.88685 6.39772 9.43229 6.93306C12.2766 9.72464 21.6733 18.9541 26.3345 23.6152C30.9956 28.2763 40.225 37.6731 43.0166 40.5174Z" fill="#1F78F0"></path></g></svg>