<svg viewBox="0 0 24 24" fill="none" xmlns="http://www.w3.org/2000/svg">







<g transform="matrix(0.5,0,0,0.5,0,0)"><path fill-rule="evenodd" clip-rule="evenodd" d="M7.88876 7.76401L9.80757 6.80461C10.5269 6.44494 11.4009 6.55501 11.8404 7.22852C12.0522 7.55293 12.269 7.95161 12.4454 8.41973C12.7442 9.21241 12.277 10.042 11.5193 10.4209L9.67762 11.3417C8.47005 11.9455 7.71625 13.0785 7.65646 14.3218C7.48859 17.8129 7.37775 24.289 7.99587 33.8712L4.00417 34.1287C3.3766 24.4 3.48585 17.7738 3.66108 14.1297C3.7953 11.3383 5.48334 8.96672 7.88876 7.76401Z" fill="#1F78F0"></path><path fill-rule="evenodd" clip-rule="evenodd" d="M40.1112 7.76408L38.1924 6.80467C37.4731 6.445 36.5991 6.55507 36.1596 7.22858C35.9478 7.55299 35.731 7.95167 35.5546 8.41979C35.2558 9.21247 35.723 10.0421 36.4807 10.4209L38.3224 11.3418C39.53 11.9456 40.2838 13.0785 40.3435 14.3219C40.5114 17.813 40.6223 24.289 40.0041 33.8713L43.9958 34.1288C44.6234 24.4 44.5141 17.7739 44.3389 14.1298C44.2047 11.3384 42.5167 8.96679 40.1112 7.76408Z" fill="#1F78F0"></path><circle cx="13" cy="34" r="9" fill="#1F78F0"></circle><circle cx="13" cy="34" r="6" fill="#91BEFF"></circle><circle cx="35" cy="34" r="9" fill="#1F78F0"></circle><circle cx="35" cy="34" r="6" fill="#91BEFF"></circle><path fill-rule="evenodd" clip-rule="evenodd" d="M28 30.9355C26.795 30.3367 25.4368 30 24 30C22.5632 30 21.205 30.3367 20 30.9355V35.9995C20.9122 34.7853 22.3644 34 24 34C25.6356 34 27.0878 34.7853 28 35.9995V30.9355Z" fill="#1F78F0"></path></g></svg>