<svg viewBox="0 0 24 24" fill="none" xmlns="http://www.w3.org/2000/svg">


<g transform="matrix(0.5,0,0,0.5,0,0)"><path fill-rule="evenodd" clip-rule="evenodd" d="M19.0226 12.8573C18.7353 11.7744 19.2169 10.7935 20.2977 10.4983C20.3343 10.4883 20.3717 10.4783 20.4098 10.4681C20.448 10.458 20.4855 10.4482 20.5222 10.4388C21.6072 10.1593 22.5117 10.7725 22.799 11.8553C22.9878 12.5669 22.8446 13.2344 22.4176 13.6922C22.2684 13.8522 22.1802 14.0593 22.2464 14.2678V14.2678C22.3217 14.5053 22.5652 14.6655 22.8125 14.635C24.4578 14.4323 26.0804 14.6881 27.5319 15.3163C27.784 15.4254 28.0924 15.3278 28.2416 15.097V15.097C28.3701 14.8981 28.3354 14.6583 28.2291 14.4467C27.9532 13.8975 27.9957 13.2277 28.3593 12.6014C28.9219 11.6326 29.9559 11.2795 30.9289 11.835C30.9618 11.8538 30.9954 11.8731 31.0296 11.893C31.0637 11.9128 31.0971 11.9324 31.1298 11.9517C32.0946 12.5213 32.3006 13.5943 31.738 14.5632C31.3805 15.179 30.8325 15.546 30.2307 15.5892C29.9764 15.6074 29.7336 15.7018 29.6161 15.9281V15.9281C29.4849 16.1809 29.5466 16.5092 29.7652 16.6917C30.9043 17.6427 31.8208 18.8785 32.3929 20.3283C32.5164 20.6413 32.8787 20.8245 33.2081 20.7559V20.7559C33.4973 20.6958 33.6633 20.4519 33.7668 20.1753C33.974 19.6215 34.4668 19.2019 35.1425 19.0227C36.2254 18.7353 37.2062 19.2169 37.5014 20.2977C37.5114 20.3343 37.5215 20.3717 37.5316 20.4099C37.5417 20.448 37.5515 20.4855 37.561 20.5223C37.8404 21.6072 37.2273 22.5117 36.1444 22.799C35.4865 22.9735 34.8663 22.8643 34.4146 22.5093C34.1606 22.3097 33.8715 22.1663 33.5642 22.2658V22.2658C33.2325 22.3731 32.9887 22.714 33.013 23.0618C33.1106 24.4631 32.8793 25.8372 32.373 27.0915C32.22 27.4704 32.3826 27.941 32.7246 28.1646V28.1646C33.027 28.3622 33.3758 28.2863 33.7138 28.159C34.23 27.9645 34.832 28.0308 35.3983 28.3596C36.3672 28.9222 36.7203 29.9563 36.1648 30.9292C36.146 30.9622 36.1266 30.9957 36.1068 31.0299C36.087 31.064 36.0674 31.0975 36.0481 31.1301C35.4785 32.0949 34.4054 32.3009 33.4365 31.7383C32.8824 31.4166 32.5297 30.9407 32.4332 30.4101C32.3648 30.0336 32.2527 29.6717 31.9122 29.4972V29.4972C31.5415 29.3073 31.0415 29.3881 30.767 29.7014C29.9457 30.6382 28.9265 31.4143 27.751 31.9575C27.3507 32.1425 27.1227 32.631 27.2133 33.0626V33.0626C27.295 33.4512 27.627 33.6587 27.9826 33.8355C28.458 34.0718 28.8157 34.5327 28.9775 35.1427C29.2648 36.2256 28.7832 37.2064 27.7025 37.5016L27.6369 37.5194L27.5903 37.5318C27.5521 37.5419 27.5147 37.5517 27.4779 37.5612C26.3929 37.8406 25.4885 37.2275 25.2012 36.1446C25.0394 35.5349 25.1214 34.9575 25.4168 34.5167C25.6379 34.1868 25.8233 33.8419 25.7015 33.4639V33.4639C25.5663 33.044 25.1259 32.7328 24.6864 32.7705C23.3965 32.8814 22.1269 32.7127 20.9495 32.3063C20.5557 32.1704 20.0813 32.348 19.8535 32.6968V32.6968C19.6442 33.0173 19.7263 33.3871 19.8534 33.7481C20.0325 34.2566 19.9621 34.8447 19.6404 35.3987C19.0779 36.3676 18.0438 36.7206 17.0709 36.1651C17.0379 36.1463 17.0043 36.127 16.9702 36.1072C16.936 36.0873 16.9026 36.0678 16.8699 36.0485C15.9052 35.4789 15.6992 34.4058 16.2617 33.4369C16.5906 32.8705 17.0807 32.5145 17.6255 32.4276C17.9822 32.3706 18.3228 32.2636 18.4874 31.9421V31.9421C18.6735 31.5784 18.5814 31.0891 18.2608 30.8359C17.2109 30.0069 16.3366 28.9426 15.7274 27.6953C15.5699 27.3728 15.1855 27.1923 14.8347 27.2682V27.2682C14.5185 27.3366 14.3303 27.6041 14.2021 27.9011C13.9795 28.4171 13.5015 28.8065 12.8572 28.9775C11.7743 29.2648 10.7934 28.7832 10.4982 27.7025C10.4882 27.6658 10.4782 27.6284 10.4681 27.5903C10.4579 27.5521 10.4481 27.5146 10.4387 27.4779C10.1592 26.3929 10.7724 25.4885 11.8553 25.2012C12.5177 25.0254 13.1419 25.1373 13.5943 25.4982C13.8252 25.6823 14.0961 25.8075 14.3777 25.7185V25.7185C14.7074 25.6144 14.9316 25.2695 14.8841 24.927C14.6721 23.3995 14.857 21.8879 15.3699 20.5108C15.4692 20.2439 15.3601 19.9283 15.1209 19.7738V19.7738C14.9066 19.6355 14.6489 19.6739 14.419 19.7842C13.8749 20.0452 13.2169 19.9982 12.6009 19.6406C11.6321 19.078 11.279 18.0439 11.8345 17.071C11.8533 17.038 11.8726 17.0045 11.8925 16.9703C11.9123 16.9362 11.9319 16.9028 11.9512 16.8701C12.5208 15.9053 13.5939 15.6993 14.5627 16.2619C15.1888 16.6254 15.5577 17.1858 15.5906 17.7993C15.6032 18.0359 15.692 18.2613 15.9023 18.3704V18.3704C16.1464 18.497 16.4628 18.4289 16.6278 18.209C17.5769 16.9441 18.859 15.9178 20.3881 15.2783C20.618 15.1822 20.7502 14.9221 20.6978 14.6784V14.6784C20.6519 14.4645 20.4727 14.3284 20.2638 14.2633C19.6663 14.0771 19.2114 13.5685 19.0226 12.8573Z" fill="#91BEFF"></path><path fill-rule="evenodd" clip-rule="evenodd" d="M45 24C45 35.598 35.598 45 24 45C12.402 45 3 35.598 3 24C3 12.402 12.402 3 24 3C35.598 3 45 12.402 45 24ZM40 24C40 32.8366 32.8366 40 24 40C20.3313 40 16.9511 38.7653 14.2521 36.6887C17.1943 33.7962 22.4651 28.606 25.6777 25.3934C28.7883 22.2827 33.753 17.2424 36.6908 14.2548C38.7661 16.9533 40 20.3326 40 24ZM33.2096 10.9147C30.6054 9.07846 27.4287 8 24 8C15.1634 8 8 15.1634 8 24C8 27.4299 9.07924 30.6077 10.9167 33.2124C13.8222 30.2571 18.9552 25.0448 22.1421 21.8579C25.2282 18.7718 30.2136 13.8608 33.2096 10.9147Z" fill="#1F78F0"></path></g></svg>