<svg viewBox="0 0 24 24" fill="none" xmlns="http://www.w3.org/2000/svg">


<g transform="matrix(0.5,0,0,0.5,0,0)"><path d="M41.8839 25.643C43.8449 22.4701 44.483 18.5392 43.63 14.8843C41.8077 6.55872 31.7163 3.1567 25.4304 8.73598C24.9326 9.17489 24.4899 9.68091 24 10.1855C23.5102 9.68092 23.0674 9.1749 22.5696 8.73598C16.2837 3.1567 6.19237 6.55872 4.37 14.8843C3.51705 18.5392 4.15503 22.4701 6.11609 25.643C9.54764 31.2039 15.0809 35.5341 20.4785 39.4583C22.5747 40.9823 25.4253 40.9823 27.5215 39.4583C32.9191 35.5341 38.4523 31.2039 41.8839 25.643Z" fill="#91BEFF"></path><path d="M42.8362 30.9128C43.9147 29.1501 44.2656 26.9662 43.7965 24.9357C42.7942 20.3104 37.244 18.4204 33.7867 21.52C33.5129 21.7638 33.2694 22.045 33 22.3253C32.7306 22.045 32.4871 21.7638 32.2133 21.52C28.7561 18.4204 23.2058 20.3104 22.2035 24.9357C21.7344 26.9662 22.0853 29.1501 23.1639 30.9128C24.9613 33.8549 27.8071 36.177 30.6384 38.2747C32.038 39.3116 33.962 39.3116 35.3616 38.2747C38.1929 36.177 41.0387 33.8549 42.8362 30.9128Z" fill="#1F78F0"></path></g></svg>