<svg viewBox="0 0 24 24" fill="none" xmlns="http://www.w3.org/2000/svg">


<g transform="matrix(0.5,0,0,0.5,0,0)"><path d="M41.8839 26.643C43.8449 23.4701 44.483 19.5392 43.63 15.8843C41.8077 7.55872 31.7163 4.1567 25.4304 9.73598C24.9326 10.1749 24.4899 10.6809 24 11.1855C23.5102 10.6809 23.0674 10.1749 22.5696 9.73598C16.2837 4.1567 6.19237 7.55872 4.37 15.8843C3.51705 19.5392 4.15503 23.4701 6.11609 26.643C9.54764 32.2039 15.0809 36.5341 20.4785 40.4583C22.5747 41.9823 25.4253 41.9823 27.5215 40.4583C32.9191 36.5341 38.4523 32.2039 41.8839 26.643Z" fill="#91BEFF"></path><path fill-rule="evenodd" clip-rule="evenodd" d="M31.6022 12.2923C31.9931 10.9681 33.3835 10.2114 34.7077 10.6023C37.2797 11.3615 39.4833 13.382 40.3849 16.2504C40.799 17.5675 40.0668 18.971 38.7497 19.385C37.4325 19.799 36.0291 19.0669 35.615 17.7497C35.2235 16.5041 34.3014 15.6956 33.2923 15.3978C31.968 15.0069 31.2114 13.6166 31.6022 12.2923Z" fill="#1F78F0"></path></g></svg>