<svg viewBox="0 0 24 24" fill="none" xmlns="http://www.w3.org/2000/svg">


<g transform="matrix(0.5,0,0,0.5,0,0)"><path fill-rule="evenodd" clip-rule="evenodd" d="M2 24C2 15.1634 9.16344 8 18 8H19.5279C21.043 8 22.3383 8.9095 22.4472 10.4207C22.4797 10.8712 22.5 11.3949 22.5 12C22.5 12.6051 22.4797 13.1288 22.4472 13.5793C22.3383 15.0905 21.043 16 19.5279 16H18C13.5817 16 10 19.5817 10 24C10 28.4183 13.5817 32 18 32H19.5279C21.043 32 22.3383 32.9095 22.4472 34.4207C22.4797 34.8712 22.5 35.3949 22.5 36C22.5 36.6051 22.4797 37.1288 22.4472 37.5793C22.3383 39.0905 21.043 40 19.5279 40H18C9.16344 40 2 32.8366 2 24ZM46 24C46 32.8366 38.8366 40 30 40H28.4721C26.957 40 25.6617 39.0905 25.5528 37.5793C25.5203 37.1288 25.5 36.6051 25.5 36C25.5 35.3949 25.5203 34.8712 25.5528 34.4207C25.6617 32.9095 26.957 32 28.4721 32H30C34.4183 32 38 28.4183 38 24C38 19.5817 34.4183 16 30 16H28.4721C26.957 16 25.6617 15.0905 25.5528 13.5793C25.5203 13.1288 25.5 12.6051 25.5 12C25.5 11.3949 25.5203 10.8712 25.5528 10.4207C25.6617 8.9095 26.957 8 28.4721 8H30C38.8366 8 46 15.1634 46 24ZM18 20C15.7909 20 14 21.7909 14 24C14 26.2091 15.7909 28 18 28H30C32.2091 28 34 26.2091 34 24C34 21.7909 32.2091 20 30 20H18Z" fill="#91BEFF"></path><path d="M3.70529 39.5163C3.19337 40.0374 2.83007 40.7141 3.07067 41.4038C3.25932 41.9445 3.65674 42.6567 4.47487 43.4749C5.293 44.293 6.00524 44.6904 6.54599 44.8791C7.2357 45.1197 7.91236 44.7564 8.43344 44.2445C11.3257 41.403 21.4143 31.4852 26.3952 26.5043C31.3761 21.5234 41.2939 11.4348 44.1353 8.54257C44.6472 8.02149 45.0106 7.34482 44.7699 6.65512C44.5813 6.11437 44.1839 5.40213 43.3657 4.584C42.5476 3.76587 41.8354 3.36844 41.2946 3.1798C40.6049 2.93919 39.9283 3.3025 39.4072 3.81442C36.5149 6.65583 26.4263 16.5737 21.4454 21.5546C16.4646 26.5354 6.54671 36.6241 3.70529 39.5163Z" fill="#1F78F0"></path></g></svg>