<svg viewBox="0 0 24 24" fill="none" xmlns="http://www.w3.org/2000/svg">

<g transform="matrix(0.5,0,0,0.5,0,0)"><path fill-rule="evenodd" clip-rule="evenodd" d="M18.5024 29.1805C18.5653 28.6328 18.1752 28.1369 17.6284 28.0666C13.0329 27.4761 9.42794 26.8104 7.08303 26.3228C5.64461 26.0236 5.09797 24.3408 6.07229 23.2411C9.76771 19.0703 17.9247 10.1801 26.5957 2.79454C27.9036 1.68058 29.8575 2.69103 29.7494 4.40558C29.3788 10.283 28.927 15.077 28.4976 18.8196C28.4347 19.3672 28.8248 19.8632 29.3716 19.9334C33.9671 20.5239 37.5721 21.1896 39.917 21.6773C41.3554 21.9764 41.902 23.6593 40.9277 24.7589C37.2323 28.9297 29.0753 37.8199 20.4043 45.2055C19.0965 46.3195 17.1425 45.309 17.2506 43.5945C17.6212 37.7171 18.073 32.9231 18.5024 29.1805Z" fill="#1F78F0"></path></g></svg>