<svg viewBox="0 0 24 24" fill="none" xmlns="http://www.w3.org/2000/svg">





<g transform="matrix(0.5,0,0,0.5,0,0)"><path d="M40.0751 18.2585C41.8172 18.4016 43.1545 19.5655 43.422 21.2928C43.7145 23.1819 44 26.2439 44 31C44 37.3205 43.4957 40.9094 43.141 42.6522C42.9739 43.4728 42.2456 44 41.4082 44C39.936 44 37.0986 44 32 44C26.9014 44 24.064 44 22.5918 44C21.7544 44 21.0261 43.4728 20.859 42.6522C20.5043 40.9094 20 37.3205 20 31C20 26.2439 20.2855 23.1819 20.578 21.2928C20.8455 19.5655 22.1828 18.4016 23.9249 18.2585C25.5818 18.1225 28.1444 18 32 18C35.8556 18 38.4182 18.1225 40.0751 18.2585Z" fill="#1F78F0"></path><path d="M29.7489 4.46875C31.5111 4.67348 32.8096 5.92916 33.0835 7.68189C33.5048 10.3788 34 15.3816 34 24C34 34.5532 33.2575 40.1567 32.8173 42.5515C32.6576 43.4202 31.8979 44 31.0147 44C29.2556 44 25.6806 44 19 44C12.3194 44 8.74442 44 6.98531 44C6.1021 44 5.34236 43.4202 5.18269 42.5515C4.74247 40.1567 4 34.5532 4 24C4 15.3816 4.49518 10.3788 4.91652 7.68189C5.19036 5.92916 6.48892 4.67348 8.25107 4.46875C10.2788 4.23316 13.6397 4 19 4C24.3603 4 27.7212 4.23316 29.7489 4.46875Z" fill="#91BEFF"></path><path d="M11 14C11 12.8954 11.8954 12 13 12H25C26.1046 12 27 12.8954 27 14V14C27 15.1046 26.1046 16 25 16H13C11.8954 16 11 15.1046 11 14V14Z" fill="#1F78F0"></path><path d="M11 24C11 22.8954 11.8954 22 13 22H25C26.1046 22 27 22.8954 27 24V24C27 25.1046 26.1046 26 25 26H13C11.8954 26 11 25.1046 11 24V24Z" fill="#1F78F0"></path><path d="M13.5628 38.8821C13.4965 37.1617 14.6294 35.7061 16.3469 35.5854C17.0708 35.5345 17.9492 35.5 19 35.5C20.0509 35.5 20.9293 35.5345 21.6532 35.5854C23.3707 35.7061 24.5036 37.1617 24.4373 38.8821C24.3747 40.5058 24.2497 42.5022 24 44H14C13.7504 42.5022 13.6254 40.5058 13.5628 38.8821Z" fill="#1F78F0"></path></g></svg>