<svg viewBox="0 0 24 24" fill="none" xmlns="http://www.w3.org/2000/svg">







<g transform="matrix(0.5,0,0,0.5,0,0)"><circle cx="24" cy="17" r="8" fill="#1F78F0"></circle><path d="M15.7526 3.78803C15.4543 3.5249 15.0695 3.35299 14.701 3.50294C14.4292 3.61356 14.09 3.82605 13.7401 4.23157C13.392 4.63492 13.2304 5.00072 13.1592 5.28617C13.0618 5.67685 13.29 6.03791 13.5975 6.29789C14.8729 7.37633 18.5545 10.4375 22.2238 12.9975C22.6138 13.2696 23.1174 13.4022 23.4901 13.1068C23.5735 13.0407 23.6589 12.9607 23.7425 12.8639C23.8444 12.7458 23.9191 12.6311 23.9736 12.5248C24.159 12.1635 23.9707 11.7639 23.6951 11.4657C20.6288 8.14716 17.0101 4.8972 15.7526 3.78803Z" fill="#1F78F0"></path><path d="M32.2474 3.78803C32.5457 3.5249 32.9305 3.35299 33.299 3.50294C33.5708 3.61356 33.91 3.82605 34.2599 4.23157C34.608 4.63492 34.7696 5.00072 34.8408 5.28617C34.9382 5.67685 34.71 6.03791 34.4025 6.29789C33.1271 7.37633 29.4455 10.4375 25.7762 12.9975C25.3862 13.2696 24.8826 13.4022 24.5099 13.1068C24.4265 13.0407 24.3411 12.9607 24.2575 12.8639C24.1556 12.7458 24.0809 12.6311 24.0264 12.5248C23.841 12.1635 24.0293 11.7639 24.3049 11.4657C27.3712 8.14716 30.9899 4.8972 32.2474 3.78803Z" fill="#1F78F0"></path><path d="M4.49868 39.6037C4.69976 41.3895 5.93921 42.7452 7.71203 43.0399C10.3922 43.4854 15.3583 44 24 44C31.7553 44 36.5504 43.7698 39.3896 43.5436C41.6455 43.364 43.3376 41.7145 43.5525 39.4617C43.7807 37.0708 44 33.3747 44 28C44 22.6253 43.7807 18.9292 43.5525 16.5383C43.3376 14.2855 41.6454 12.636 39.3896 12.4564C36.5503 12.2302 31.7553 12 24 12C16.2447 12 11.4496 12.2302 8.61044 12.4564C6.35455 12.636 4.66244 14.2855 4.44747 16.5383C4.21932 18.9292 4 22.6253 4 28C4 33.7763 4.25333 37.4247 4.49868 39.6037Z" fill="#91BEFF"></path><path d="M8.26548 36.0501C8.41073 37.806 9.57236 39.1673 11.3139 39.4344C13.1919 39.7225 16.2371 40 21 40C25.0276 40 27.8269 39.8898 29.7309 39.7589C31.9824 39.6042 33.625 37.931 33.778 35.6794C33.8986 33.9027 34 31.3989 34 28C34 24.6011 33.8986 22.0973 33.778 20.3206C33.625 18.069 31.9824 16.3957 29.7309 16.2411C27.8269 16.1102 25.0276 16 21 16C16.9724 16 14.1731 16.1102 12.2691 16.2411C10.0176 16.3958 8.37498 18.069 8.22204 20.3206C8.10135 22.0973 8 24.6011 8 28C8 31.8004 8.12671 34.3726 8.26548 36.0501Z" fill="#1F78F0"></path><circle cx="39" cy="22" r="2" fill="#1F78F0"></circle><circle cx="39" cy="34" r="2" fill="#1F78F0"></circle></g></svg>