<svg viewBox="0 0 24 24" fill="none" xmlns="http://www.w3.org/2000/svg">





<g transform="matrix(0.5,0,0,0.5,0,0)"><path d="M23.5 9.00005C13.7685 7.1165 7.78168 9.56901 4.67345 11.6553C2.98473 12.7888 3.1166 15.0549 4.59503 16.4517L10.1552 21.7046L23.5 9.00005Z" fill="#1F78F0"></path><path d="M40.1136 24.5C41.3213 34.4236 38.4766 40.4532 36.2735 43.5073C35.1296 45.0929 32.9634 45.0107 31.5489 43.6609L25.4545 37.8448L40.1136 24.5Z" fill="#1F78F0"></path><path d="M18.5908 35.2727C18.5908 31.8108 16.1891 29.4091 12.7272 29.4091V29.4091V29.4091C9.26525 29.4091 6.86355 31.8108 6.86355 35.2727V35.2727C6.86355 37.7821 7.08271 39.1956 7.25306 39.9153C7.35273 40.3364 7.66343 40.6471 8.08454 40.7468C8.80425 40.9172 10.2178 41.1363 12.7272 41.1363V41.1363C16.1891 41.1363 18.5908 38.7346 18.5908 35.2727V35.2727V35.2727Z" fill="#1F78F0"></path><path d="M28.0956 39.9905C27.1164 40.7743 25.8756 40.9305 24.8087 40.271C23.1908 39.2709 20.3026 37.0981 15.6022 32.3977C10.9019 27.6974 8.72907 24.8092 7.72902 23.1914C7.06952 22.1244 7.2257 20.8836 8.00948 19.9043C9.1395 18.4924 11.352 15.9662 15.6022 11.7159C23.3181 4 37.4317 3.99996 40.7159 7.2841C44.0001 10.5682 44 24.6818 36.2841 32.3977C32.0337 36.6481 29.5075 38.8605 28.0956 39.9905Z" fill="#91BEFF"></path><path d="M26 15C22.134 15 19 18.134 19 22C19 25.866 22.134 29 26 29C29.866 29 33 25.866 33 22C33 18.134 29.866 15 26 15Z" fill="#1F78F0"></path></g></svg>