<svg viewBox="0 0 24 24" fill="none" xmlns="http://www.w3.org/2000/svg">


<g transform="matrix(0.5,0,0,0.5,0,0)"><path fill-rule="evenodd" clip-rule="evenodd" d="M8.29774 8.41311C6.20788 8.56929 4.65938 10.0453 4.45262 12.1307C4.31454 13.5235 4.17909 15.4294 4.09285 17.9857C4.07404 18.5433 4.52362 18.9958 5.06879 19.1145C7.31657 19.6041 8.9998 21.6055 8.9998 24C8.9998 26.3945 7.31657 28.3959 5.06879 28.8855C4.52362 29.0042 4.07404 29.4567 4.09285 30.0143C4.17909 32.5706 4.31454 34.4765 4.45262 35.8693C4.65938 37.9547 6.20787 39.4307 8.29774 39.5869C11.0313 39.7912 15.8249 40 23.9998 40C32.1747 40 36.9683 39.7912 39.7019 39.5869C41.7917 39.4307 43.3402 37.9547 43.547 35.8693C43.6851 34.4765 43.8205 32.5706 43.9068 30.0143C43.9256 29.4567 43.476 29.0042 42.9308 28.8855C40.683 28.3959 38.9998 26.3945 38.9998 24C38.9998 21.6055 40.683 19.6041 42.9308 19.1145C43.476 18.9958 43.9256 18.5433 43.9068 17.9857C43.8205 15.4294 43.6851 13.5235 43.547 12.1307C43.3402 10.0453 41.7917 8.56929 39.7019 8.41311C36.9683 8.20884 32.1747 8 23.9998 8C15.8249 8 11.0313 8.20884 8.29774 8.41311Z" fill="#91BEFF"></path><path fill-rule="evenodd" clip-rule="evenodd" d="M28.0831 16.3448C27.6113 16.1884 27.1172 16.4315 26.8542 16.8532L19.3136 28.948C19.1344 29.2317 18.9776 29.493 18.8432 29.7319C18.7237 29.9708 18.664 30.2097 18.664 30.4486C18.664 30.7921 18.8507 31.0758 19.224 31.2998C19.4276 31.4094 19.6559 31.4965 19.9089 31.5609C20.3608 31.6761 20.8124 31.4324 21.0594 31.0368L28.6311 18.9137C28.8252 18.6002 28.982 18.3239 29.1014 18.085C29.2209 17.8461 29.2806 17.6147 29.2806 17.3907C29.2806 17.0473 29.0715 16.7785 28.6535 16.5844C28.4737 16.4912 28.2836 16.4113 28.0831 16.3448ZM22.2119 19.8432C22.2119 20.9631 21.8759 21.8367 21.204 22.4638C20.532 23.0909 19.666 23.4045 18.6058 23.4045C17.5307 23.4045 16.6572 23.0909 15.9853 22.4638C15.3283 21.8367 14.9998 20.9631 14.9998 19.8432C14.9998 18.7383 15.3283 17.8722 15.9853 17.2451C16.6572 16.618 17.5307 16.3044 18.6058 16.3044C19.666 16.3044 20.532 16.618 21.204 17.2451C21.8759 17.8722 22.2119 18.7383 22.2119 19.8432ZM17.7099 19.8432C17.7099 20.2912 17.792 20.6272 17.9563 20.8511C18.1355 21.0602 18.352 21.1647 18.6058 21.1647C18.8597 21.1647 19.0687 21.0602 19.233 20.8511C19.4122 20.6272 19.5018 20.2912 19.5018 19.8432C19.5018 19.4102 19.4122 19.0892 19.233 18.8801C19.0687 18.6711 18.8597 18.5666 18.6058 18.5666C18.352 18.5666 18.1355 18.6711 17.9563 18.8801C17.792 19.0892 17.7099 19.4102 17.7099 19.8432ZM32.9998 28.1417C32.9998 29.2615 32.6638 30.1351 31.9918 30.7622C31.3199 31.3893 30.4539 31.7029 29.3937 31.7029C28.3186 31.7029 27.4451 31.3893 26.7732 30.7622C26.1161 30.1351 25.7876 29.2615 25.7876 28.1417C25.7876 27.0367 26.1161 26.1706 26.7732 25.5435C27.4451 24.9164 28.3186 24.6028 29.3937 24.6028C30.4539 24.6028 31.3199 24.9164 31.9918 25.5435C32.6638 26.1706 32.9998 27.0367 32.9998 28.1417ZM28.4977 28.1417C28.4977 28.5896 28.5799 28.9256 28.7441 29.1496C28.9233 29.3586 29.1398 29.4631 29.3937 29.4631C29.6475 29.4631 29.8565 29.3586 30.0208 29.1496C30.2 28.9256 30.2896 28.5896 30.2896 28.1417C30.2896 27.7086 30.2 27.3876 30.0208 27.1785C29.8565 26.9695 29.6475 26.865 29.3937 26.865C29.1398 26.865 28.9233 26.9695 28.7441 27.1785C28.5799 27.3876 28.4977 27.7086 28.4977 28.1417Z" fill="#1F78F0"></path></g></svg>