<svg viewBox="0 0 24 24" fill="none" xmlns="http://www.w3.org/2000/svg">




<g transform="matrix(0.5,0,0,0.5,0,0)"><path d="M5.84889 41.6728C9.3218 32.5058 14 24 14 24C14 24 25.8991 33.4372 31.4841 41.5324C32.2789 42.6844 31.5104 44.1468 30.1132 44.2292C27.884 44.3607 24.2776 44.5 19 44.5C13.3784 44.5 9.65292 44.342 7.4683 44.2036C6.19656 44.1231 5.39744 42.8644 5.84889 41.6728Z" fill="#1F78F0"></path><path d="M38.206 6.48077C33.1501 10.0175 24.7533 16.0609 19.8076 20.5355L25.4645 26.1924C29.9391 21.2467 35.9825 12.8499 39.5192 7.79401C40.1492 6.89344 39.1066 5.85079 38.206 6.48077Z" fill="#1F78F0"></path><path d="M15.565 30.4351C22.9831 37.8533 34.7905 38.2071 42.6274 31.4966C43.3245 30.8997 43.4264 29.8947 42.8725 29.163C41.4284 27.2555 37.9574 23.0512 30.4531 15.5469C22.9488 8.04265 18.7446 4.57173 16.8371 3.12759C16.1054 2.57364 15.1003 2.67554 14.5034 3.37264C7.79294 11.2095 8.14679 23.0169 15.565 30.4351Z" fill="#91BEFF"></path><circle cx="38.8997" cy="7.10055" r="3" transform="rotate(45 38.8997 7.10055)" fill="#1F78F0"></circle></g></svg>