<svg viewBox="0 0 24 24" fill="none" xmlns="http://www.w3.org/2000/svg">



<g transform="matrix(0.5,0,0,0.5,0,0)"><path d="M23.1001 5.77682C23.7031 3.94327 26.2969 3.94327 26.8999 5.77682L29.3867 13.3382C29.5851 13.9416 30.0584 14.4149 30.6618 14.6133L38.2232 17.1001C40.0567 17.7031 40.0567 20.2969 38.2232 20.8999L30.6618 23.3867C30.0584 23.5851 29.5851 24.0584 29.3867 24.6618L26.8999 32.2232C26.2969 34.0567 23.7031 34.0567 23.1001 32.2232L20.6133 24.6618C20.4149 24.0584 19.9416 23.5851 19.3382 23.3867L11.7768 20.8999C9.94327 20.2969 9.94327 17.7031 11.7768 17.1001L19.3382 14.6133C19.9416 14.4149 20.4149 13.9416 20.6133 13.3382L23.1001 5.77682Z" fill="#91BEFF"></path><path d="M10.8126 27.6105C11.1895 26.4645 12.8105 26.4645 13.1874 27.6105L14.7726 32.4305C14.8966 32.8076 15.1924 33.1034 15.5695 33.2274L20.3895 34.8126C21.5355 35.1895 21.5355 36.8105 20.3895 37.1874L15.5695 38.7726C15.1924 38.8966 14.8966 39.1924 14.7726 39.5695L13.1874 44.3895C12.8105 45.5355 11.1895 45.5355 10.8126 44.3895L9.22738 39.5695C9.10335 39.1924 8.80758 38.8966 8.43047 38.7726L3.61051 37.1874C2.46454 36.8105 2.46454 35.1895 3.61051 34.8126L8.43047 33.2274C8.80758 33.1034 9.10335 32.8076 9.22738 32.4305L10.8126 27.6105Z" fill="#1F78F0"></path><path d="M37.0501 26.8884C37.3516 25.9716 38.6484 25.9716 38.9499 26.8884L40.0696 30.2929C40.1688 30.5946 40.4054 30.8312 40.7071 30.9304L44.1116 32.0501C45.0284 32.3516 45.0284 33.6484 44.1116 33.9499L40.7071 35.0696C40.4054 35.1688 40.1688 35.4054 40.0696 35.7071L38.9499 39.1116C38.6484 40.0284 37.3516 40.0284 37.0501 39.1116L35.9304 35.7071C35.8312 35.4054 35.5946 35.1688 35.2929 35.0696L31.8884 33.9499C30.9716 33.6484 30.9716 32.3516 31.8884 32.0501L35.2929 30.9304C35.5946 30.8312 35.8312 30.5946 35.9304 30.2929L37.0501 26.8884Z" fill="#1F78F0"></path></g></svg>