<svg viewBox="0 0 24 24" fill="none" xmlns="http://www.w3.org/2000/svg">


<g transform="matrix(0.5,0,0,0.5,0,0)"><path fill-rule="evenodd" clip-rule="evenodd" d="M11.9999 7C11.9999 7 11.9999 7 11.9999 7L11.9999 7C11.9999 7 6.63461 10.1298 1.82319 14.2753C1.30566 14.7212 1.07836 15.4082 1.32768 16.0442C1.76887 17.1697 2.77372 19.1665 5.00122 21.8465C5.57633 22.5384 6.55435 22.7217 7.34919 22.3001C8.44221 21.7203 10.0785 20.8252 11.7988 19.787C11.5503 26.1091 11.0506 31.1578 10.1857 39.2634C10.0798 40.2558 10.7231 41.1613 11.7108 41.3046C13.7386 41.5988 17.6655 42 23.9999 42C30.3343 42 34.2612 41.5988 36.289 41.3046C37.2768 41.1613 37.9201 40.2558 37.8142 39.2634C36.9493 31.1578 36.4495 26.1091 36.2011 19.7871C37.9214 20.8252 39.5576 21.7203 40.6507 22.3001C41.4455 22.7217 42.4235 22.5384 42.9986 21.8465C45.2261 19.1665 46.231 17.1697 46.6722 16.0442C46.9215 15.4082 46.6942 14.7212 46.1767 14.2753C41.3652 10.1298 35.9999 7 35.9999 7C35.9999 7 31.9999 6 23.9999 6C16.0039 6 12.0039 6.99901 11.9999 7Z" fill="#91BEFF"></path><path fill-rule="evenodd" clip-rule="evenodd" d="M19.002 6.14094C20.4449 6.05576 22.111 6 24 6C25.8891 6 27.5551 6.05576 28.9981 6.14094C28.9234 8.83719 26.7143 11 24 11C21.2857 11 19.0766 8.83719 19.002 6.14094Z" fill="#1F78F0"></path></g></svg>