<svg viewBox="0 0 24 24" fill="none" xmlns="http://www.w3.org/2000/svg">



<g transform="matrix(0.5,0,0,0.5,0,0)"><path d="M44 24C44 35.0457 35.0457 44 24 44C12.9543 44 4 35.0457 4 24C4 12.9543 12.9543 4 24 4C35.0457 4 44 12.9543 44 24Z" fill="#91BEFF"></path><path d="M26 24C26 25.1046 25.1046 26 24 26C22.8954 26 22 25.1046 22 24C22 22.8954 22.8954 22 24 22C25.1046 22 26 22.8954 26 24Z" fill="#1F78F0"></path><path fill-rule="evenodd" clip-rule="evenodd" d="M26 14V12.1659C31.025 13.009 34.991 16.975 35.8341 22H34C32.8954 22 32 22.8954 32 24C32 25.1046 32.8954 26 34 26H35.8341C34.991 31.025 31.025 34.991 26 35.8341V34C26 32.8954 25.1046 32 24 32C22.8954 32 22 32.8954 22 34V35.8341C16.975 34.991 13.009 31.025 12.1659 26H14C15.1046 26 16 25.1046 16 24C16 22.8954 15.1046 22 14 22H12.1659C13.009 16.975 16.975 13.009 22 12.1659V14C22 15.1046 22.8954 16 24 16C25.1046 16 26 15.1046 26 14ZM24 8C32.8366 8 40 15.1634 40 24C40 32.8366 32.8366 40 24 40C15.1634 40 8 32.8366 8 24C8 15.1634 15.1634 8 24 8Z" fill="#1F78F0"></path></g></svg>