<svg viewBox="0 0 24 24" fill="none" xmlns="http://www.w3.org/2000/svg">



<g transform="matrix(0.5,0,0,0.5,0,0)"><path d="M45.635 30.5492C45.3693 32.2169 44.0041 33.2716 42.3222 33.4243C39.4813 33.6822 33.96 34 24 34C14.04 34 8.51866 33.6822 5.67775 33.4243C3.99593 33.2716 2.63072 32.2169 2.36498 30.5492C2.16552 29.2974 2 27.5042 2 25C2 22.4958 2.16552 20.7026 2.36498 19.4508C2.63072 17.7831 3.99593 16.7283 5.67775 16.5757C8.51866 16.3178 14.04 16 24 16C33.96 16 39.4813 16.3178 42.3222 16.5757C44.0041 16.7284 45.3693 17.7831 45.635 19.4508C45.8345 20.7026 46 22.4958 46 25C46 27.5042 45.8345 29.2974 45.635 30.5492Z" fill="#91BEFF"></path><path fill-rule="evenodd" clip-rule="evenodd" d="M37.4005 37.3886C39.7964 37.1016 41.4954 35.3392 41.7085 32.9355C41.8685 31.1313 42 28.5642 42 25C42 21.4358 41.8685 18.8687 41.7085 17.0645C41.4954 14.6608 39.7964 12.8984 37.4005 12.6114C34.7992 12.2998 30.5854 12 24 12C17.4146 12 13.2008 12.2998 10.5995 12.6114C8.20359 12.8984 6.5046 14.6608 6.29147 17.0645C6.13149 18.8687 6 21.4358 6 25C6 28.5642 6.13149 31.1313 6.29147 32.9355C6.50459 35.3392 8.20358 37.1016 10.5995 37.3886C12.1563 37.5751 14.2905 37.7574 17.165 37.8736C18.5368 37.9291 19.8317 37.2525 20.5932 36.1102L20.8906 35.6641C21.5837 34.6245 22.7505 34 24 34V34C25.2495 34 26.4163 34.6245 27.1094 35.6641L27.4068 36.1102C28.1683 37.2525 29.4632 37.9291 30.835 37.8736C33.7095 37.7574 35.8437 37.5751 37.4005 37.3886Z" fill="#1F78F0"></path><path fill-rule="evenodd" clip-rule="evenodd" d="M13.0266 33.7076C12.8136 34.0879 13.0189 34.5664 13.4527 34.609V34.609C14.189 34.6813 15.0549 34.7504 16.0683 34.8099C16.7114 34.8477 17.3391 34.7051 17.8928 34.4157C18.0373 34.3402 18.1519 34.2199 18.2347 34.0795C19.4301 32.0524 20.8915 29.5497 22.6661 26.476C25.1781 22.1253 27.0129 18.8898 28.3383 16.519C28.7016 15.8691 28.2496 15.0683 27.5053 15.049C26.5546 15.0243 25.5182 15.0079 24.3896 15.0022C24.036 15.0004 23.7085 15.1864 23.5283 15.4906C22.2347 17.6753 20.5886 20.4874 18.5148 24.0793C16.117 28.2323 14.3363 31.369 13.0266 33.7076ZM17.7311 15.5647C17.9019 15.2729 18.179 15.0897 18.5169 15.0782V15.0782C19.2846 15.0521 19.8082 15.8759 19.428 16.5433C18.4092 18.3321 17.0873 20.6388 15.3854 23.5864C13.4086 27.0104 11.9245 29.558 10.8262 31.4299C10.4623 32.0502 9.59203 32.0723 9.37886 31.3855C9.3113 31.1678 9.25793 30.9419 9.21962 30.7086C9.18589 30.5033 9.2323 30.2947 9.33518 30.1138C10.3877 28.263 11.7937 25.8074 13.6534 22.5864C15.355 19.6392 16.6915 17.3413 17.7311 15.5647Z" fill="#91BEFF"></path></g></svg>