<svg viewBox="0 0 24 24" fill="none" xmlns="http://www.w3.org/2000/svg">


<g transform="matrix(0.5,0,0,0.5,0,0)"><path d="M40.2929 16.0948C22.5584 15.359 23.2512 3.17843 8 5.25888V31C16.7414 23.2299 31.143 33.3837 41.126 17.5994C41.5342 16.9538 41.056 16.1265 40.2929 16.0948Z" fill="#1F78F0"></path><path d="M9.25866 3.18767C9.64827 3.32947 9.8096 3.73131 9.82249 4.14572C9.87476 5.82561 10 11.1403 10 23.5C10 35.8597 9.87476 41.1744 9.82249 42.8543C9.8096 43.2687 9.64827 43.6705 9.25866 43.8123C8.97952 43.9139 8.57373 44 8 44C7.42627 44 7.02048 43.9139 6.74134 43.8123C6.35173 43.6705 6.1904 43.2687 6.17751 42.8543C6.12524 41.1744 6 35.8597 6 23.5C6 11.1403 6.12524 5.82561 6.17751 4.14572C6.1904 3.73131 6.35173 3.32947 6.74134 3.18767C7.02048 3.08607 7.42627 3 8 3C8.57373 3 8.97952 3.08607 9.25866 3.18767Z" fill="#91BEFF"></path></g></svg>