<svg viewBox="0 0 24 24" fill="none" xmlns="http://www.w3.org/2000/svg">



<g transform="matrix(0.5,0,0,0.5,0,0)"><path d="M6 38C6 41.3137 14.0589 44 24 44C33.9411 44 42 41.3137 42 38C42 34.6863 33.9411 32 24 32C14.0589 32 6 34.6863 6 38Z" fill="#91BEFF"></path><path d="M13.1348 8.50055C19.1356 2.49982 28.8647 2.49982 34.8654 8.50055C40.8662 14.5013 40.8662 24.2304 34.8654 30.2312C31.5724 33.5242 28.7157 35.791 26.759 37.1937C25.0893 38.3907 22.911 38.3907 21.2413 37.1937C19.2846 35.791 16.4278 33.5242 13.1348 30.2312C7.13409 24.2304 7.13409 14.5013 13.1348 8.50055Z" fill="#1F78F0"></path><circle cx="24.0001" cy="19.3658" r="5.12195" fill="#91BEFF"></circle></g></svg>