<svg viewBox="0 0 24 24" fill="none" xmlns="http://www.w3.org/2000/svg">




<g transform="matrix(0.5,0,0,0.5,0,0)"><path d="M12 23.7111C12 18.8257 15.629 15.1624 20.5129 15.0407C21.5462 15.015 22.7043 15 24 15C25.2957 15 26.4538 15.015 27.4871 15.0407C32.371 15.1624 36 18.8257 36 23.7111V23.7111C36 26.2097 35.744 27.8165 35.5747 28.606C35.4926 28.9888 35.2616 29.3132 34.9073 29.4801C33.8178 29.9933 30.8124 31 24 31C17.1876 31 14.1822 29.9933 13.0927 29.4801C12.7384 29.3132 12.5074 28.9888 12.4253 28.606C12.256 27.8165 12 26.2097 12 23.7111V23.7111Z" fill="#1F78F0"></path><path d="M6 39C6 42.3137 14.0589 45 24 45C33.9411 45 42 42.3137 42 39C42 35.6863 33.9411 33 24 33C14.0589 33 6 35.6863 6 39Z" fill="#91BEFF"></path><circle cx="24" cy="10" r="7" fill="#1F78F0"></circle><path d="M18.7498 39.2124C16.9166 33.166 16 24 16 24H32C32 24 31.0834 33.166 29.2502 39.2124C29.0963 39.72 28.7334 40.1342 28.2323 40.3083C27.3867 40.6021 25.8923 41 24 41C22.1077 41 20.6133 40.6021 19.7677 40.3083C19.2666 40.1342 18.9037 39.72 18.7498 39.2124Z" fill="#1F78F0"></path></g></svg>