<svg viewBox="0 0 24 24" fill="none" xmlns="http://www.w3.org/2000/svg">



<g transform="matrix(0.5,0,0,0.5,0,0)"><path d="M11.2721 9.62742C18.3015 2.59798 29.6985 2.59798 36.7279 9.62742C43.7574 16.6569 43.7574 28.0538 36.7279 35.0833C32.7877 39.0235 29.3807 41.8433 27.0859 43.6001C25.2433 45.0107 22.7567 45.0107 20.9141 43.6001C18.6193 41.8433 15.2123 39.0235 11.2721 35.0833C4.24264 28.0538 4.24264 16.6569 11.2721 9.62742Z" fill="#91BEFF"></path><circle cx="24" cy="22.3553" r="8" fill="#91BEFF"></circle><path d="M6.69653 37.8777C6.1445 38.4406 5.77815 39.1851 6.08955 39.9094C6.30851 40.4187 6.7176 41.0729 7.47487 41.8302C8.23215 42.5875 8.88644 42.9966 9.39573 43.2155C10.12 43.5269 10.8645 43.1606 11.4274 42.6086C14.2288 39.861 23.1758 31.079 27.6274 26.6274C32.079 22.1758 40.861 13.2288 43.6086 10.4274C44.1606 9.8645 44.5269 9.12001 44.2155 8.39573C43.9966 7.88644 43.5875 7.23215 42.8302 6.47488C42.0729 5.7176 41.4186 5.30851 40.9094 5.08955C40.1851 4.77815 39.4406 5.1445 38.8777 5.69653C36.0763 8.44411 27.1293 17.2261 22.6777 21.6777C18.2261 26.1293 9.44411 35.0763 6.69653 37.8777Z" fill="#1F78F0"></path></g></svg>