<svg viewBox="0 0 24 24" fill="none" xmlns="http://www.w3.org/2000/svg">



<g transform="matrix(0.5,0,0,0.5,0,0)"><path d="M7.12124 32.3497C7.63512 31.1698 8.75447 30.415 10.0388 30.3327C12.3066 30.1873 16.6545 30 24 30C31.3455 30 35.6934 30.1873 37.9612 30.3327C39.2455 30.415 40.3649 31.1698 40.8788 32.3497C41.6408 34.0993 42.736 36.9808 43.4849 40.5186C43.83 42.149 42.6492 43.625 40.9847 43.7057C38.1439 43.8436 32.9489 44 24 44C15.0511 44 9.85611 43.8436 7.01526 43.7057C5.35075 43.625 4.16995 42.149 4.51509 40.5186C5.26402 36.9808 6.35922 34.0993 7.12124 32.3497Z" fill="#91BEFF"></path><path d="M13.1346 8.50055C19.1353 2.49982 28.8644 2.49982 34.8652 8.50055C40.8659 14.5013 40.8659 24.2304 34.8652 30.2312C31.5722 33.5242 28.7154 35.791 26.7587 37.1937C25.089 38.3907 22.9108 38.3907 21.2411 37.1937C19.2843 35.791 16.4276 33.5242 13.1346 30.2312C7.13385 24.2304 7.13385 14.5013 13.1346 8.50055Z" fill="#1F78F0"></path><circle cx="23.9999" cy="19.3659" r="5.12195" fill="#91BEFF"></circle></g></svg>