<svg viewBox="0 0 24 24" fill="none" xmlns="http://www.w3.org/2000/svg">


<g transform="matrix(0.5,0,0,0.5,0,0)"><path d="M5.5653 20.0035C2.91786 18.9364 2.57892 15.9717 5.19882 14.8386C13.9925 11.0355 30.9182 6.20896 40.0153 5.19296C41.6619 5.00906 42.9909 6.3381 42.807 7.98472C41.7897 17.0934 36.9522 34.0506 33.1469 42.8348C32.0161 45.4451 29.0574 45.1137 27.979 42.4812L21.3827 26.3792L5.5653 20.0035Z" fill="#91BEFF"></path><path fill-rule="evenodd" clip-rule="evenodd" d="M21.4519 26.5481L27.979 42.4812C29.0573 45.1137 32.016 45.4451 33.1468 42.8348C36.9522 34.0506 41.7897 17.0934 42.807 7.98472C42.899 7.16141 42.6127 6.4175 42.0976 5.9024L21.4519 26.5481Z" fill="#1F78F0"></path></g></svg>