<svg viewBox="0 0 24 24" fill="none" xmlns="http://www.w3.org/2000/svg">



<g transform="matrix(0.5,0,0,0.5,0,0)"><path d="M16.7095 44.8725C14.3431 39.6982 14.6091 28 14.6091 28L40.3885 8.01515C39.6616 15.1025 28.2546 42.8842 16.7095 44.8725Z" fill="#91BEFF"></path><path d="M5.42442 23.0228C4.28064 22.0209 4.32863 20.4074 5.5839 19.5494C12.5289 14.8019 31.9884 5.17039 42.136 3.31365C43.7658 3.01544 45.1049 4.33853 44.9893 5.99134C44.2724 16.239 40.461 35.7996 37.0787 42.4004C36.4929 43.5436 35.126 43.781 34.0117 43.1419C31.4242 41.6579 26.1252 38.4317 17.8822 32.5631C11.0275 27.6828 7.34185 24.7023 5.42442 23.0228Z" fill="#91BEFF"></path><path d="M40.2387 8.00001C39.2388 7 15.9666 25.9163 14.1045 29.8258C14.1045 29.8258 14.0267 44.4504 16.7095 44.8725C18.161 44.8725 20.8231 37.1674 21.3839 35.4948C21.4555 35.281 21.5536 35.0926 21.6904 34.9132C27.5386 27.2419 41.2272 8.98849 40.2387 8.00001Z" fill="#1F78F0"></path></g></svg>