<svg viewBox="0 0 24 24" fill="none" xmlns="http://www.w3.org/2000/svg">



<g transform="matrix(0.5,0,0,0.5,0,0)"><path fill-rule="evenodd" clip-rule="evenodd" d="M3.4336 21.2501C2.63395 22.1488 2.99678 23.3715 4.17294 23.6238C5.09393 23.8213 6.35989 24.0417 8.06532 24.2473C8.02477 25.6041 8.00004 27.1784 8.00004 29C8.00004 33.8567 8.17583 36.9548 8.35853 38.8632C8.52615 40.614 9.72103 41.9477 11.4566 42.233C13.7128 42.6038 17.6168 43 24 43C30.3833 43 34.2873 42.6038 36.5435 42.233C38.2791 41.9477 39.4739 40.614 39.6416 38.8632C39.8243 36.9548 40 33.8567 40 29C40 27.1784 39.9753 25.6043 39.9348 24.2475C41.6404 24.0419 42.9066 23.8215 43.8278 23.6239C45.0042 23.3717 45.3671 22.1485 44.5672 21.2498C43.1636 19.6728 40.5539 16.9844 36.0008 13.0001C30.728 8.38613 27.1926 6.37893 25.3951 5.54666C24.5013 5.13283 23.5003 5.13289 22.6065 5.5468C20.8092 6.37915 17.2742 8.38638 12.0008 13.0001C7.44646 16.9847 4.8368 19.6733 3.4336 21.2501Z" fill="#91BEFF"></path><path d="M25.0985 23.3188C25.1537 22.7312 25.5625 22.2936 26.1467 22.2093C26.861 22.1063 28.0666 22 30 22C31.9334 22 33.139 22.1063 33.8533 22.2093C34.4375 22.2936 34.8463 22.7312 34.9015 23.3188C34.9535 23.8714 35 24.7229 35 26C35 27.2771 34.9535 28.1286 34.9015 28.6812C34.8463 29.2688 34.4375 29.7064 33.8533 29.7907C33.139 29.8937 31.9334 30 30 30C28.0666 30 26.861 29.8937 26.1467 29.7907C25.5625 29.7064 25.1537 29.2688 25.0985 28.6812C25.0465 28.1286 25 27.2771 25 26C25 24.7229 25.0465 23.8714 25.0985 23.3188Z" fill="#1F78F0"></path><path fill-rule="evenodd" clip-rule="evenodd" d="M22.9338 42.9962C18.4207 42.9639 15.2372 42.7281 13.0472 42.4592C13.0194 41.5772 13 40.4441 13 39C13 36.7814 13.0459 35.2968 13.0973 34.3292C13.153 33.282 13.7633 32.4095 14.7964 32.2299C15.5265 32.1029 16.5619 32 18 32C19.4381 32 20.4735 32.1029 21.2036 32.2299C22.2367 32.4095 22.847 33.282 22.9027 34.3292C22.9541 35.2968 23 36.7814 23 39C23 40.756 22.9713 42.0523 22.9338 42.9962Z" fill="#1F78F0"></path></g></svg>