<svg viewBox="0 0 24 24" fill="none" xmlns="http://www.w3.org/2000/svg">


<g transform="matrix(0.5,0,0,0.5,0,0)"><path d="M24 44C31.3889 44 36.2709 43.7214 39.2339 43.4583C41.5435 43.2533 43.3251 41.5571 43.5697 39.2513C43.7944 37.1332 44 34.0805 44 30C44 23.7967 43.5249 19.9688 43.2297 18.1887C43.0988 17.3998 42.763 16.6668 42.2361 16.0652C38.77 12.1071 30.5618 5.70235 24.9735 4.21297C24.3338 4.04246 23.6662 4.04246 23.0265 4.21297C17.4382 5.70235 9.23003 12.1071 5.76388 16.0652C5.23703 16.6668 4.90118 17.3998 4.77032 18.1887C4.47507 19.9688 4 23.7967 4 30C4 34.0805 4.20557 37.1332 4.43029 39.2513C4.67493 41.5571 6.45647 43.2533 8.76607 43.4583C11.7291 43.7214 16.6111 44 24 44Z" fill="#91BEFF"></path><path d="M14 36C14 35.0036 14.7782 34.1839 15.7739 34.1476C17.5466 34.0831 20.5063 34 24 34C27.4937 34 30.4534 34.0831 32.2261 34.1476C33.2218 34.1839 34 35.0036 34 36V36C34 36.9964 33.2218 37.8161 32.2261 37.8524C30.4534 37.9169 27.4937 38 24 38C20.5063 38 17.5466 37.9169 15.7739 37.8524C14.7782 37.8161 14 36.9964 14 36V36Z" fill="#1F78F0"></path></g></svg>