<svg viewBox="0 0 24 24" fill="none" xmlns="http://www.w3.org/2000/svg">



<g transform="matrix(0.5,0,0,0.5,0,0)"><path d="M8.35849 19.1368C8.52611 17.386 9.72099 16.0522 11.4565 15.767C13.7127 15.3961 17.6167 15 24 15C30.3833 15 34.2873 15.3961 36.5435 15.767C38.279 16.0522 39.4739 17.386 39.6415 19.1368C39.8242 21.0452 40 24.1433 40 29C40 33.8567 39.8242 36.9548 39.6415 38.8632C39.4739 40.614 38.279 41.9478 36.5435 42.233C34.2873 42.6039 30.3833 43 24 43C17.6167 43 13.7127 42.6039 11.4565 42.233C9.72098 41.9478 8.52611 40.614 8.35849 38.8632C8.17579 36.9548 8 33.8567 8 29C8 24.1433 8.17579 21.0452 8.35849 19.1368Z" fill="#91BEFF"></path><path fill-rule="evenodd" clip-rule="evenodd" d="M30.9378 42.813C29.0413 42.9264 26.7509 43 24 43C21.2491 43 18.9587 42.9264 17.0622 42.813C17.0254 41.572 17 39.9934 17 38C17 34.9024 17.0613 32.8063 17.1314 31.4225C17.2103 29.8636 18.1126 28.5634 19.652 28.3047C20.6654 28.1344 22.075 28 24 28C25.925 28 27.3346 28.1344 28.348 28.3047C29.8874 28.5634 30.7897 29.8636 30.8686 31.4225C30.9387 32.8063 31 34.9024 31 38C31 39.9934 30.9746 41.572 30.9378 42.813Z" fill="#1F78F0"></path><path d="M4.17288 23.6238C2.99672 23.3715 2.63389 22.1488 3.43354 21.2501C4.83674 19.6733 7.44639 16.9847 12.0007 13.0001C17.2741 8.3864 20.8092 6.37916 22.6065 5.54682C23.5002 5.1329 24.5012 5.13284 25.395 5.54668C27.1925 6.37894 30.728 8.38614 36.0007 13.0001C40.5538 16.9844 43.1636 19.6728 44.5671 21.2498C45.367 22.1485 45.0042 23.3717 43.8278 23.6239C41.0907 24.2108 35.3079 25.0001 24.0007 25.0001C12.6925 25.0001 6.90962 24.2107 4.17288 23.6238Z" fill="#91BEFF"></path></g></svg>