<svg viewBox="0 0 24 24" fill="none" xmlns="http://www.w3.org/2000/svg">



<g transform="matrix(0.5,0,0,0.5,0,0)"><path d="M4 24C4 35.0457 12.9543 44 24 44C35.0457 44 44 35.0457 44 24C44 12.9543 35.0457 4 24 4C12.9543 4 4 12.9543 4 24Z" fill="#91BEFF"></path><path fill-rule="evenodd" clip-rule="evenodd" d="M16.9741 27.8654C16.9741 27.8654 16.9741 27.1507 17.2383 14.7573C17.2537 14.0393 17.5554 13.3362 18.2499 13.1531C18.585 13.0647 19.0179 13 19.5671 13C20.1246 13 20.5623 13.0667 20.8994 13.1571C21.584 13.3407 21.8835 14.0242 21.8993 14.7329C21.9551 17.2384 22.0671 23.9255 21.9456 33.4243C21.918 35.5837 19.7258 36.881 18.0161 35.5616C15.2067 33.3935 12.5181 30.623 11.0805 29.0667C10.3951 28.3246 10.1247 27.2566 10.5914 26.3607C10.9151 25.7391 11.2782 25.2706 11.6223 24.9208C12.3569 24.1742 13.4882 24.3845 14.2521 25.1011C15.8569 26.6067 16.9741 27.8654 16.9741 27.8654Z" fill="#1F78F0"></path><path fill-rule="evenodd" clip-rule="evenodd" d="M31.0259 21.1346C31.0259 21.1346 31.0259 21.8493 30.7617 34.2427C30.7463 34.9607 30.4446 35.6638 29.7501 35.8469C29.415 35.9353 28.9821 36 28.4329 36C27.8754 36 27.4377 35.9333 27.1006 35.8429C26.416 35.6593 26.1165 34.9758 26.1007 34.2671C26.0449 31.7616 25.9329 25.0745 26.0544 15.5757C26.082 13.4163 28.2742 12.119 29.9839 13.4384C32.7933 15.6065 35.4819 18.377 36.9195 19.9333C37.6049 20.6754 37.8753 21.7434 37.4086 22.6393C37.0849 23.2609 36.7218 23.7294 36.3777 24.0792C35.6431 24.8258 34.5118 24.6155 33.7479 23.8989C32.1431 22.3933 31.0259 21.1346 31.0259 21.1346Z" fill="#1F78F0"></path></g></svg>