<svg viewBox="0 0 24 24" fill="none" xmlns="http://www.w3.org/2000/svg">


<g transform="matrix(0.5,0,0,0.5,0,0)"><circle r="21" transform="matrix(-1 0 0 1 24 24)" fill="#91BEFF"></circle><path fill-rule="evenodd" clip-rule="evenodd" d="M20.2319 27.6972C20.2934 27.1494 19.9036 26.6532 19.3571 26.5811C17.1882 26.2949 15.3768 25.9854 13.9943 25.7198C12.5515 25.4427 12.0066 23.7658 12.989 22.6733C15.4172 19.9733 19.6904 15.4083 24.3209 11.3241C25.6093 10.1877 27.5537 11.1813 27.4334 12.8951C27.2281 15.8205 26.9943 18.2859 26.7679 20.3026C26.7065 20.8504 27.0963 21.3465 27.6428 21.4186C29.8116 21.7048 31.6231 22.0143 33.0055 22.2799C34.4484 22.557 34.9932 24.234 34.0108 25.3264C31.5826 28.0264 27.3094 32.5914 22.6789 36.6756C21.3905 37.812 19.4462 36.8184 19.5664 35.1047C19.7718 32.1793 20.0055 29.7138 20.2319 27.6972Z" fill="#1F78F0"></path></g></svg>