<svg viewBox="0 0 24 24" fill="none" xmlns="http://www.w3.org/2000/svg">


<g transform="matrix(0.5,0,0,0.5,0,0)"><circle r="21" transform="matrix(-1 0 0 1 24 24)" fill="#91BEFF"></circle><path d="M34.7304 27.004C35.907 25.0651 36.2898 22.6628 35.778 20.4293C34.6846 15.3414 28.6298 13.2624 24.8582 16.672C24.5596 16.9402 24.2939 17.2494 24 17.5578C23.7061 17.2495 23.4404 16.9402 23.1418 16.672C19.3702 13.2624 13.3154 15.3414 12.222 20.4293C11.7102 22.6628 12.093 25.0651 13.2697 27.004C15.2731 30.3107 18.4704 32.9053 21.6249 35.2522C23.0318 36.2988 24.9682 36.2988 26.3751 35.2522C29.5296 32.9053 32.7269 30.3107 34.7304 27.004Z" fill="#1F78F0"></path></g></svg>