<svg viewBox="0 0 24 24" fill="none" xmlns="http://www.w3.org/2000/svg">


<g transform="matrix(0.5,0,0,0.5,0,0)"><path d="M8.06662 42.3151C5.13617 42.0445 3.26208 39.5652 4.2205 36.7828C5.27218 33.7295 7.23006 29.0824 10.875 22.3613C14.8259 15.0761 18.1161 10.2276 20.414 7.20447C22.3052 4.71654 25.6948 4.71653 27.586 7.20447C29.8839 10.2276 33.1741 15.0761 37.125 22.3613C40.7699 29.0824 42.7278 33.7295 43.7795 36.7828C44.7379 39.5652 42.8638 42.0445 39.9334 42.3151C36.3166 42.6491 30.8795 43 24 43C17.1205 43 11.6834 42.6491 8.06662 42.3151Z" fill="#91BEFF"></path><path fill-rule="evenodd" clip-rule="evenodd" d="M22.562 15.1894C21.4731 15.4926 21.0316 16.6402 21.0953 17.7687C21.2365 20.2693 21.5172 24.8107 21.8207 27.3046C21.9161 28.0885 22.3373 28.803 23.1163 28.9326C23.3619 28.9735 23.6544 29 24 29C24.3456 29 24.6381 28.9735 24.8837 28.9326C25.6627 28.803 26.0839 28.0885 26.1793 27.3046C26.4828 24.8106 26.7635 20.2693 26.9047 17.7687C26.9684 16.6402 26.5269 15.4926 25.438 15.1894C25.0362 15.0775 24.5569 15 24 15C23.4431 15 22.9638 15.0775 22.562 15.1894ZM24 37C25.6569 37 27 35.6569 27 34C27 32.3431 25.6569 31 24 31C22.3431 31 21 32.3431 21 34C21 35.6569 22.3431 37 24 37Z" fill="#1F78F0"></path></g></svg>