<svg viewBox="0 0 24 24" fill="none" xmlns="http://www.w3.org/2000/svg">


<g transform="matrix(0.5,0,0,0.5,0,0)"><path d="M24 44C27.634 44 30.0906 43.7378 31.2632 43.5755C31.7888 43.5028 32.283 43.2981 32.7061 42.9779C33.65 42.2635 35.5725 40.7118 38.1421 38.1421C40.7118 35.5724 42.2635 33.65 42.9779 32.7061C43.2981 32.283 43.5028 31.7888 43.5755 31.2632C43.7378 30.0907 44 27.6341 44 24C44 20.3659 43.7378 17.9093 43.5755 16.7368C43.5028 16.2112 43.2981 15.717 42.9779 15.2939C42.2635 14.35 40.7118 12.4275 38.1421 9.85786C35.5725 7.2882 33.65 5.73651 32.7061 5.02212C32.283 4.7019 31.7888 4.49721 31.2632 4.42446C30.0906 4.26217 27.634 4 24 4C20.3659 4 17.9094 4.26217 16.7368 4.42446C16.2112 4.49721 15.717 4.7019 15.2939 5.02211C14.35 5.73649 12.4276 7.28817 9.85787 9.85785C7.28817 12.4276 5.73649 14.35 5.02212 15.2939C4.70191 15.717 4.49722 16.2112 4.42447 16.7367C4.26218 17.9093 4 20.3659 4 24C4 27.6341 4.26217 30.0907 4.42447 31.2632C4.49722 31.7888 4.70191 32.283 5.02212 32.7061C5.73649 33.65 7.28816 35.5724 9.85783 38.1421C12.4275 40.7118 14.35 42.2635 15.2939 42.9779C15.717 43.2981 16.2112 43.5028 16.7368 43.5755C17.9093 43.7378 20.3659 44 24 44Z" fill="#91BEFF"></path><path fill-rule="evenodd" clip-rule="evenodd" d="M22.562 13.1894C21.4731 13.4926 21.0316 14.6402 21.0953 15.7687C21.2365 18.2693 21.5172 22.8107 21.8207 25.3046C21.9161 26.0885 22.3373 26.803 23.1163 26.9326C23.3619 26.9735 23.6544 27 24 27C24.3456 27 24.6381 26.9735 24.8837 26.9326C25.6627 26.803 26.0839 26.0885 26.1793 25.3046C26.4828 22.8106 26.7635 18.2693 26.9047 15.7687C26.9684 14.6402 26.5269 13.4926 25.438 13.1894C25.0362 13.0775 24.5569 13 24 13C23.4431 13 22.9638 13.0775 22.562 13.1894ZM24 36C25.6569 36 27 34.6569 27 33C27 31.3431 25.6569 30 24 30C22.3431 30 21 31.3431 21 33C21 34.6569 22.3431 36 24 36Z" fill="#1F78F0"></path></g></svg>