<svg viewBox="0 0 24 24" fill="none" xmlns="http://www.w3.org/2000/svg">





<g transform="matrix(0.5,0,0,0.5,0,0)"><path d="M14 3.99997C14 3.99997 17 3 24 3C31 3 34 3.99997 34 3.99997V15C34 15 33 14 24 14C15 14 14 15 14 15V3.99997Z" fill="#91BEFF"></path><path d="M4.10267 17.3173C3.41239 16.506 3.21369 15.3778 3.67915 14.4196C7.05359 7.4732 14 4 14 4C14 4 20 19.0769 31 32H18C11.276 25.5634 6.22659 19.8138 4.10267 17.3173Z" fill="#1F78F0"></path><path d="M43.8973 17.3173C44.5876 16.506 44.7863 15.3778 44.3208 14.4196C40.9464 7.4732 34 4 34 4C34 4 28 19.0769 17 32H30C36.724 25.5634 41.7734 19.8138 43.8973 17.3173Z" fill="#1F78F0"></path><circle cx="24" cy="34" r="11" fill="#91BEFF"></circle><path d="M22.8904 28.1393C23.3568 27.24 24.6432 27.24 25.1096 28.1393L26.6205 31.0522L29.8401 31.6862C30.7921 31.8736 31.1768 33.0269 30.5281 33.7484L28.24 36.2931L28.659 39.6883C28.7811 40.6778 27.7523 41.4051 26.8602 40.9598L24 39.5322L21.1398 40.9598C20.2477 41.4051 19.2189 40.6778 19.341 39.6883L19.76 36.2931L17.4719 33.7484C16.8232 33.0269 17.2079 31.8736 18.1599 31.6862L21.3795 31.0522L22.8904 28.1393Z" fill="#1F78F0"></path></g></svg>