<svg viewBox="0 0 24 24" fill="none" xmlns="http://www.w3.org/2000/svg">





<g transform="matrix(0.5,0,0,0.5,0,0)"><path d="M4.56559 8.36494C4.75483 6.6619 5.86253 5.31368 7.54812 5.00556C10.119 4.53562 15.019 4 24 4C32.981 4 37.881 4.53562 40.4519 5.00556C42.1375 5.31368 43.2452 6.6619 43.4344 8.36494C43.6982 10.739 44 14.808 44 21C44 27.192 43.6982 31.261 43.4344 33.6351C43.2452 35.3381 42.1375 36.6863 40.4519 36.9944C37.881 37.4644 32.981 38 24 38C15.019 38 10.119 37.4644 7.54813 36.9944C5.86253 36.6863 4.75483 35.3381 4.56559 33.6351C4.30178 31.261 4 27.192 4 21C4 14.808 4.30178 10.739 4.56559 8.36494Z" fill="#91BEFF"></path><path d="M12 22.5976C12 21.8489 12.5519 21.2164 13.2975 21.1483C14.0419 21.0804 15.0209 21.0138 16 21.0138C16.9791 21.0138 17.9581 21.0804 18.7025 21.1483C19.4481 21.2164 20 21.8489 20 22.5976V24.421C20 25.1735 19.4427 25.8082 18.6931 25.8748C17.9498 25.9409 16.9749 26.0071 16 26.0138C15.0168 26.0206 14.0337 25.9536 13.2881 25.8837C12.5465 25.8142 12 25.1837 12 24.4388V22.5976Z" fill="#1F78F0"></path><path d="M12 13.7404C12 12.9322 12.6368 12.2697 13.4446 12.2439C15.9352 12.1646 21.0531 12.0138 24 12.0138C26.9469 12.0138 32.0648 12.1646 34.5554 12.2439C35.3632 12.2697 36 12.9322 36 13.7404V15.2872C36 16.0954 35.3632 16.7579 34.5554 16.7836C32.0648 16.863 26.9469 17.0138 24 17.0138C21.0531 17.0138 15.9352 16.863 13.4446 16.7836C12.6368 16.7579 12 16.0954 12 15.2872V13.7404Z" fill="#1F78F0"></path><path fill-rule="evenodd" clip-rule="evenodd" d="M24 30C24 31.1174 24.5155 32.1145 25.3216 32.7663C25.2125 33.7972 25.553 34.8667 26.3432 35.6569C26.7721 36.0857 27.2833 36.3822 27.8259 36.5461C27.8333 38.4656 27.8901 40.6886 28.0433 43.0485C28.0961 43.8626 29.0539 44.2553 29.6717 43.7224L31.5102 42.1368C31.7916 41.894 32.2084 41.894 32.4899 42.1368L34.3283 43.7224C34.9461 44.2553 35.9039 43.8626 35.9568 43.0485C36.1099 40.6886 36.1667 38.4656 36.1741 36.5461C36.7168 36.3822 37.228 36.0857 37.6569 35.6569C38.447 34.8667 38.7875 33.7972 38.6784 32.7663C39.4845 32.1145 40 31.1174 40 30C40 28.8826 39.4845 27.8855 38.6784 27.2337C38.7875 26.2028 38.447 25.1333 37.6569 24.3431C36.8667 23.553 35.7972 23.2125 34.7663 23.3216C34.1145 22.5155 33.1174 22 32 22C30.8826 22 29.8855 22.5155 29.2337 23.3216C28.2028 23.2125 27.1333 23.553 26.3432 24.3431C25.553 25.1333 25.2125 26.2028 25.3216 27.2337C24.5155 27.8855 24 28.8826 24 30Z" fill="#1F78F0"></path><circle cx="32" cy="30" r="3" fill="#91BEFF"></circle></g></svg>