<svg viewBox="0 0 24 24" fill="none" xmlns="http://www.w3.org/2000/svg">


<g transform="matrix(0.5,0,0,0.5,0,0)"><circle r="21" transform="matrix(-1 0 0 1 24 24)" fill="#91BEFF"></circle><path d="M22.2246 12.4229C22.9709 10.9841 25.0291 10.9841 25.7754 12.4229L28.5858 17.8414L34.5442 19.0146C36.0673 19.3145 36.683 21.1598 35.645 22.3142L31.42 27.013L32.196 33.3012C32.3914 34.8845 30.7453 36.0481 29.3179 35.3356L24 32.6814L18.6821 35.3356C17.2547 36.0481 15.6086 34.8845 15.804 33.3012L16.58 27.013L12.355 22.3141C11.317 21.1598 11.9327 19.3145 13.4558 19.0146L19.4142 17.8414L22.2246 12.4229Z" fill="#1F78F0"></path></g></svg>