<svg viewBox="0 0 24 24" fill="none" xmlns="http://www.w3.org/2000/svg">


<g transform="matrix(0.5,0,0,0.5,0,0)"><path d="M21.3628 6.86341C22.4979 4.77014 25.5021 4.77014 26.6372 6.86341L31.5338 15.8935L41.6192 17.793C43.9477 18.2316 44.8726 21.0695 43.2498 22.7959L36.19 30.3061L37.5097 40.5346C37.8138 42.8918 35.3866 44.6497 33.2418 43.6257L24 39.2135L14.7582 43.6257C12.6134 44.6497 10.1862 42.8918 10.4903 40.5346L11.81 30.3061L4.75025 22.7959C3.12737 21.0695 4.05234 18.2316 6.38084 17.793L16.4662 15.8935L21.3628 6.86341Z" fill="#91BEFF"></path><path d="M33.2246 21.4229C33.9709 19.984 36.0291 19.984 36.7754 21.4229L38.6032 24.9468L42.5442 25.7228C44.0673 26.0227 44.683 27.868 43.645 29.0223L40.83 32.153L41.3419 36.3012C41.5373 37.8845 39.8912 39.0481 38.4638 38.3356L35 36.6068L31.5362 38.3356C30.1088 39.0481 28.4627 37.8845 28.6581 36.3012L29.17 32.153L26.355 29.0223C25.3171 27.868 25.9327 26.0227 27.4558 25.7228L31.3969 24.9468L33.2246 21.4229Z" fill="#1F78F0"></path></g></svg>