<svg viewBox="0 0 24 24" fill="none" xmlns="http://www.w3.org/2000/svg">


<g transform="matrix(0.5,0,0,0.5,0,0)"><path d="M21.3628 6.86341C22.4979 4.77014 25.5021 4.77014 26.6372 6.86341L31.5338 15.8935L41.6192 17.793C43.9477 18.2316 44.8726 21.0695 43.2498 22.7959L36.19 30.3061L37.5097 40.5346C37.8138 42.8918 35.3866 44.6497 33.2418 43.6257L24 39.2135L14.7582 43.6257C12.6134 44.6497 10.1862 42.8918 10.4903 40.5346L11.81 30.3061L4.75025 22.7959C3.12737 21.0695 4.05234 18.2316 6.38084 17.793L16.4662 15.8935L21.3628 6.86341Z" fill="#91BEFF"></path><path d="M22.2246 17.4229C22.9709 15.984 25.0291 15.984 25.7754 17.4229L27.6032 20.9468L31.5442 21.7228C33.0673 22.0227 33.683 23.868 32.645 25.0223L29.83 28.153L30.3419 32.3012C30.5373 33.8845 28.8912 35.0481 27.4638 34.3356L24 32.6068L20.5362 34.3356C19.1088 35.0481 17.4627 33.8845 17.6581 32.3012L18.17 28.153L15.355 25.0223C14.3171 23.868 14.9327 22.0227 16.4558 21.7228L20.3969 20.9468L22.2246 17.4229Z" fill="#1F78F0"></path></g></svg>