<svg viewBox="0 0 24 24" fill="none" xmlns="http://www.w3.org/2000/svg">






<g transform="matrix(0.5,0,0,0.5,0,0)"><path d="M21.3787 5.70926C22.5223 3.65469 25.4776 3.65469 26.6213 5.70926L31.2063 13.9463L40.499 15.6514C42.8532 16.0833 43.7785 18.9629 42.1165 20.6853L35.66 27.3762L36.879 36.5806C37.1899 38.9277 34.7866 40.6931 32.6398 39.6946L24 35.6763L15.3602 39.6946C13.2133 40.6931 10.8101 38.9277 11.121 36.5806L12.34 27.3762L5.88353 20.6853C4.22152 18.9629 5.14674 16.0833 7.50095 15.6514L16.7937 13.9463L21.3787 5.70926Z" fill="#91BEFF"></path><path d="M26.7485 41.9719C27.2405 43.4644 26.6151 44.836 25.0455 44.9114C24.7351 44.9263 24.3879 44.9348 23.9998 44.9348C23.6118 44.9348 23.2646 44.9263 22.9542 44.9114C21.3845 44.836 20.7592 43.4644 21.2511 41.9719L22.0935 39.4165C22.3382 38.6739 22.7675 37.9385 23.5391 37.8123C23.679 37.7894 23.8326 37.7757 23.9998 37.7757C24.1671 37.7757 24.3207 37.7894 24.4606 37.8123C25.2322 37.9385 25.6614 38.6739 25.9062 39.4165L26.7485 41.9719Z" fill="#1F78F0"></path><path d="M14.9596 6.96314C14.4803 5.46652 13.1681 4.7244 11.854 5.58608C11.5941 5.75646 11.3082 5.95361 10.9942 6.18171C10.6803 6.40981 10.4044 6.6208 10.1621 6.81529C8.93648 7.79888 9.2368 9.27616 10.5121 10.1944L12.6956 11.7667C13.3301 12.2236 14.1096 12.5662 14.808 12.2148C14.9346 12.1511 15.0669 12.0719 15.2022 11.9735C15.3376 11.8752 15.4538 11.7739 15.5535 11.6731C16.1036 11.1175 16.0186 10.2702 15.7801 9.52562L14.9596 6.96314Z" fill="#1F78F0"></path><path d="M33.227 6.96314C33.7062 5.46652 35.0184 4.7244 36.3326 5.58608C36.5924 5.75646 36.8783 5.95361 37.1923 6.18171C37.5062 6.40981 37.7821 6.6208 38.0244 6.81529C39.25 7.79888 38.9497 9.27616 37.6744 10.1944L35.491 11.7667C34.8565 12.2236 34.0769 12.5662 33.3785 12.2148C33.2519 12.1511 33.1196 12.0719 32.9843 11.9735C32.849 11.8752 32.7327 11.7739 32.633 11.6731C32.0829 11.1175 32.168 10.2702 32.4064 9.52562L33.227 6.96314Z" fill="#1F78F0"></path><path d="M42.417 26.6168C43.9885 26.6101 45.0998 27.6287 44.6864 29.1448C44.6046 29.4446 44.5055 29.7775 44.3856 30.1465C44.2656 30.5156 44.1502 30.8431 44.0401 31.1337C43.4834 32.6033 41.9856 32.7742 40.7182 31.8451L38.5482 30.2543C37.9176 29.7921 37.3508 29.1566 37.4692 28.3837C37.4907 28.2436 37.5252 28.0933 37.5769 27.9342C37.6285 27.7752 37.689 27.6333 37.754 27.5073C38.1125 26.8125 38.9445 26.6315 39.7264 26.6282L42.417 26.6168Z" fill="#1F78F0"></path><path d="M5.5828 26.6168C4.01132 26.6101 2.90004 27.6287 3.31344 29.1448C3.39519 29.4446 3.49434 29.7775 3.61425 30.1465C3.73417 30.5156 3.84959 30.8431 3.95968 31.1337C4.51639 32.6033 6.01417 32.7742 7.28159 31.8451L9.45162 30.2543C10.0822 29.7921 10.649 29.1566 10.5306 28.3837C10.5091 28.2436 10.4746 28.0933 10.423 27.9342C10.3713 27.7752 10.3108 27.6333 10.2458 27.5073C9.88735 26.8125 9.05528 26.6315 8.27342 26.6282L5.5828 26.6168Z" fill="#1F78F0"></path></g></svg>