<svg viewBox="0 0 24 24" fill="none" xmlns="http://www.w3.org/2000/svg">


<g transform="matrix(0.5,0,0,0.5,0,0)"><path fill-rule="evenodd" clip-rule="evenodd" d="M8.29786 8.41311C6.208 8.56929 4.6595 10.0453 4.45275 12.1307C4.33358 13.3327 4.21636 14.9171 4.13106 16.9718C4.08477 18.0867 5.01209 18.9761 6.03153 19.43C7.78054 20.2087 8.99993 21.9619 8.99993 24C8.99993 26.0381 7.78054 27.7913 6.03153 28.57C5.01209 29.0239 4.08477 29.9133 4.13106 31.0282C4.21636 33.0829 4.33358 34.6673 4.45275 35.8693C4.6595 37.9547 6.208 39.4307 8.29786 39.5869C11.0314 39.7912 15.8251 40 23.9999 40C32.1748 40 36.9685 39.7912 39.702 39.5869C41.7919 39.4307 43.3404 37.9547 43.5471 35.8693C43.6663 34.6673 43.7835 33.0829 43.8688 31.0282C43.9151 29.9133 42.9878 29.0239 41.9683 28.57C40.2193 27.7913 38.9999 26.0381 38.9999 24C38.9999 21.9619 40.2193 20.2087 41.9683 19.43C42.9878 18.9761 43.9151 18.0867 43.8688 16.9718C43.7835 14.9171 43.6663 13.3327 43.5471 12.1307C43.3404 10.0453 41.7919 8.56929 39.702 8.41311C36.9685 8.20884 32.1748 8 23.9999 8C15.8251 8 11.0314 8.20884 8.29786 8.41311Z" fill="#91BEFF"></path><path d="M22.6685 15.5672C23.2282 14.4881 24.7718 14.4881 25.3315 15.5672L27.2756 19.3153L31.4081 20.129C32.5505 20.3539 33.0122 21.7379 32.2338 22.6036L29.3 25.8664L29.838 30.2259C29.9845 31.4134 28.75 32.2861 27.6794 31.7517L24 29.9153L20.3206 31.7517C19.25 32.2861 18.0155 31.4134 18.162 30.2259L18.7 25.8664L15.7662 22.6036C14.9878 21.7379 15.4495 20.3539 16.5919 20.129L20.7244 19.3153L22.6685 15.5672Z" fill="#1F78F0"></path></g></svg>