<svg viewBox="0 0 24 24" fill="none" xmlns="http://www.w3.org/2000/svg">



<g transform="matrix(0.5,0,0,0.5,0,0)"><path fill-rule="evenodd" clip-rule="evenodd" d="M7.68009 5.02577C5.92293 5.33785 4.71393 6.70729 4.51915 8.48128C4.26763 10.7721 4 14.6917 4 21C4 27.3083 4.26763 31.2279 4.51915 33.5187C4.71393 35.2927 5.92293 36.6622 7.68009 36.9742C9.24171 37.2516 11.5882 37.555 15 37.7594V41.8388C15 43.5158 16.9399 44.4481 18.2494 43.4005L25.0031 37.9975C33.0623 37.9569 37.7521 37.4303 40.3199 36.9742C42.0771 36.6622 43.2861 35.2927 43.4809 33.5187C43.7324 31.2279 44 27.3083 44 21C44 14.6917 43.7324 10.7721 43.4809 8.48128C43.2861 6.70728 42.0771 5.33785 40.3199 5.02577C37.6474 4.55112 32.6762 4 24 4C15.3238 4 10.3526 4.55112 7.68009 5.02577Z" fill="#1F78F0"></path><path fill-rule="evenodd" clip-rule="evenodd" d="M26.6582 8.91134C26.8638 8.36316 27.3879 8 27.9733 8C28.9539 8 29.6327 8.97946 29.2884 9.89764L27.7299 14.0536C29.8673 14.1194 31.4547 14.2379 32.6143 14.3637C34.4147 14.5591 35.6928 15.8729 35.8369 17.6781C35.9289 18.8312 36 20.4012 36 22.5C36 24.5988 35.9289 26.1688 35.8369 27.3219C35.6928 29.1271 34.4147 30.4409 32.6143 30.6363C30.8613 30.8265 28.1304 31 24 31C19.8696 31 17.1387 30.8265 15.3857 30.6363C13.5853 30.4409 12.3072 29.1271 12.1631 27.3219C12.0711 26.1688 12 24.5988 12 22.5C12 20.4012 12.0711 18.8312 12.1631 17.6781C12.3072 15.8729 13.5853 14.5591 15.3857 14.3637C16.5453 14.2379 18.1327 14.1194 20.2701 14.0536L18.7116 9.89764C18.3673 8.97946 19.0461 8 20.0267 8C20.6121 8 21.1362 8.36316 21.3418 8.91134L23.2507 14.0019C23.4952 14.0007 23.7449 14 24 14C24.2551 14 24.5048 14.0007 24.7493 14.0019L26.6582 8.91134Z" fill="#91BEFF"></path><path fill-rule="evenodd" clip-rule="evenodd" d="M21 19.5C21 20.3284 20.3284 21 19.5 21C18.6715 21 18 20.3284 18 19.5C18 18.6716 18.6715 18 19.5 18C20.3284 18 21 18.6716 21 19.5ZM30 19.5C30 20.3284 29.3284 21 28.5 21C27.6715 21 27 20.3284 27 19.5C27 18.6716 27.6715 18 28.5 18C29.3284 18 30 18.6716 30 19.5ZM19.8944 24.5528C19.6474 24.0588 19.0467 23.8586 18.5528 24.1056C18.0588 24.3526 17.8586 24.9532 18.1055 25.4472L18.5528 26.3416C19.0609 27.358 20.0997 28 21.236 28H26.7639C27.9002 28 28.939 27.358 29.4472 26.3416L29.8944 25.4472C30.1414 24.9532 29.9412 24.3526 29.4472 24.1056C28.9532 23.8586 28.3525 24.0588 28.1055 24.5528L27.6583 25.4472C27.4889 25.786 27.1427 26 26.7639 26H21.236C20.8573 26 20.511 25.786 20.3416 25.4472L19.8944 24.5528Z" fill="#1F78F0"></path></g></svg>