<svg viewBox="0 0 24 24" fill="none" xmlns="http://www.w3.org/2000/svg">




<g transform="matrix(0.5,0,0,0.5,0,0)"><path fill-rule="evenodd" clip-rule="evenodd" d="M7.68009 5.02577C5.92293 5.33785 4.71393 6.70729 4.51915 8.48128C4.26763 10.7721 4 14.6917 4 21C4 27.3083 4.26763 31.2279 4.51915 33.5187C4.71393 35.2927 5.92293 36.6622 7.68009 36.9742C9.24171 37.2516 11.5882 37.555 15 37.7594V41.8388C15 43.5158 16.9399 44.4481 18.2494 43.4005L25.0031 37.9975C33.0623 37.9569 37.7521 37.4303 40.3199 36.9742C42.0771 36.6622 43.2861 35.2927 43.4809 33.5187C43.7324 31.2279 44 27.3083 44 21C44 14.6917 43.7324 10.7721 43.4809 8.48128C43.2861 6.70728 42.0771 5.33785 40.3199 5.02577C37.6474 4.55112 32.6762 4 24 4C15.3238 4 10.3526 4.55112 7.68009 5.02577Z" fill="#91BEFF"></path><path d="M20 16C20 17.1046 19.1046 18 18 18C16.8954 18 16 17.1046 16 16C16 14.8954 16.8954 14 18 14C19.1046 14 20 14.8954 20 16Z" fill="#1F78F0"></path><path d="M32 16C32 17.1046 31.1046 18 30 18C28.8954 18 28 17.1046 28 16C28 14.8954 28.8954 14 30 14C31.1046 14 32 14.8954 32 16Z" fill="#1F78F0"></path><path fill-rule="evenodd" clip-rule="evenodd" d="M17.4428 23.6073C18.212 23.2996 19.085 23.6738 19.3926 24.4429C19.8896 25.6854 21.0929 26.5 22.431 26.5H25.5688C26.9069 26.5 28.1102 25.6854 28.6072 24.4429C28.9149 23.6738 29.7878 23.2996 30.557 23.6073C31.3262 23.915 31.7003 24.7879 31.3926 25.5571C30.4401 27.9385 28.1336 29.5 25.5688 29.5H22.431C19.8662 29.5 17.5597 27.9385 16.6072 25.5571C16.2995 24.7879 16.6736 23.915 17.4428 23.6073Z" fill="#1F78F0"></path></g></svg>