<svg viewBox="0 0 24 24" fill="none" xmlns="http://www.w3.org/2000/svg">


<g transform="matrix(0.5,0,0,0.5,0,0)"><path fill-rule="evenodd" clip-rule="evenodd" d="M7.68009 5.02577C5.92293 5.33785 4.71393 6.70729 4.51915 8.48128C4.26763 10.7721 4 14.6917 4 21C4 27.3083 4.26763 31.2279 4.51915 33.5187C4.71393 35.2927 5.92293 36.6622 7.68009 36.9742C9.24171 37.2516 11.5882 37.555 15 37.7594V41.8388C15 43.5158 16.9399 44.4481 18.2494 43.4005L25.0031 37.9975C33.0623 37.9569 37.7521 37.4303 40.3199 36.9742C42.0771 36.6622 43.2861 35.2927 43.4809 33.5187C43.7324 31.2279 44 27.3083 44 21C44 14.6917 43.7324 10.7721 43.4809 8.48128C43.2861 6.70728 42.0771 5.33785 40.3199 5.02577C37.6474 4.55112 32.6762 4 24 4C15.3238 4 10.3526 4.55112 7.68009 5.02577Z" fill="#91BEFF"></path><path fill-rule="evenodd" clip-rule="evenodd" d="M20.6949 20.7223C20.4059 20.988 20.267 21.3476 20.278 21.8014H20.2768V23.9097C20.2768 24.7381 20.9483 25.4097 21.7768 25.4097H23.1793C24.0077 25.4097 24.6793 24.7381 24.6793 23.9097V23.4457L24.8894 23.3477C25.8302 22.903 26.6645 22.4414 27.3923 21.9627C28.1202 21.4841 28.7103 20.9634 29.1627 20.4006C29.6339 19.8358 29.9653 19.2101 30.1569 18.5235C30.3653 17.816 30.4205 17.0111 30.3223 16.1087C30.122 14.2664 29.3797 12.8634 28.0956 11.8998C26.8302 10.9341 25.0884 10.5719 22.87 10.8131C22.0992 10.897 21.3836 11.0509 20.7232 11.2749C20.0607 11.4801 19.491 11.7513 19.0141 12.0885C18.5372 12.4257 18.1708 12.8174 17.915 13.2637C17.678 13.708 17.5891 14.2027 17.6484 14.7479C17.694 15.1675 17.8356 15.5384 18.0574 15.8514C18.5238 16.5098 19.4553 16.294 20.1279 15.8483C20.2964 15.7366 20.4686 15.6321 20.6443 15.5348C21.1985 15.2083 21.861 15.0031 22.6318 14.9193C23.4777 14.8273 24.1018 14.9686 24.504 15.3434C24.925 15.7161 25.162 16.1468 25.2152 16.6356C25.2745 17.1808 25.1554 17.6598 24.8579 18.0726C24.5583 18.4666 24.1378 18.7976 23.5963 19.0658L21.9718 19.8701C21.4491 20.1362 21.0235 20.4203 20.6949 20.7223ZM19.7044 29.9511C19.7044 29.1568 19.9408 28.5139 20.4135 28.0222C20.9052 27.5306 21.5765 27.2847 22.4275 27.2847C23.2784 27.2847 23.9403 27.5306 24.4131 28.0222C24.9047 28.5139 25.1506 29.1568 25.1506 29.9511C25.1506 30.7453 24.9047 31.3883 24.4131 31.8799C23.9403 32.3716 23.2784 32.6174 22.4275 32.6174C21.5765 32.6174 20.9052 32.3716 20.4135 31.8799C19.9408 31.3883 19.7044 30.7453 19.7044 29.9511Z" fill="#1F78F0"></path></g></svg>