<svg viewBox="0 0 24 24" fill="none" xmlns="http://www.w3.org/2000/svg">




<g transform="matrix(0.5,0,0,0.5,0,0)"><path d="M31.8284 37.4853C30.2663 35.9232 30.2663 33.3905 31.8284 31.8284V31.8284C33.3905 30.2663 35.9232 30.2663 37.4853 31.8284L43.1421 37.4853C44.7042 39.0474 44.7042 41.58 43.1421 43.1421V43.1421C41.58 44.7042 39.0474 44.7042 37.4853 43.1421L31.8284 37.4853Z" fill="#1F78F0"></path><path d="M40 22C40 31.9411 31.9411 40 22 40C12.0589 40 4 31.9411 4 22C4 12.0589 12.0589 4 22 4C31.9411 4 40 12.0589 40 22Z" fill="#91BEFF"></path><path d="M34 22C34 28.6274 28.6274 34 22 34C15.3726 34 10 28.6274 10 22C10 15.3726 15.3726 10 22 10C28.6274 10 34 15.3726 34 22Z" fill="#1F78F0"></path><path fill-rule="evenodd" clip-rule="evenodd" d="M29.4142 18.0858C30.1953 18.8668 30.1953 20.1332 29.4142 20.9142L23.4142 26.9142C22.6332 27.6953 21.3668 27.6953 20.5858 26.9142L17 23.3284L10.9142 29.4142C10.1332 30.1953 8.86683 30.1953 8.08579 29.4142C7.30474 28.6332 7.30474 27.3668 8.08579 26.5858L15.5858 19.0858C16.3668 18.3047 17.6332 18.3047 18.4142 19.0858L22 22.6716L26.5858 18.0858C27.3668 17.3047 28.6332 17.3047 29.4142 18.0858Z" fill="#91BEFF"></path></g></svg>