<svg viewBox="0 0 24 24" fill="none" xmlns="http://www.w3.org/2000/svg">





<g transform="matrix(0.5,0,0,0.5,0,0)"><path fill-rule="evenodd" clip-rule="evenodd" d="M44 15C44 13 35.0457 12 24 12C12.9543 12 4 13 4 15L4.00002 18.3325C4.00001 20.0635 4.5592 21.7516 5.70562 23.0486C7.89254 25.5227 12.1031 29.8296 17.8751 33.6582C18.3892 33.9992 18.7284 34.5516 18.7871 35.1657C19.2188 39.6798 19.5923 42.8365 19.8068 44.5352C19.9133 45.3791 20.6318 46 21.4824 46C21.8199 46 22.1498 45.9001 22.4305 45.7129L26.858 42.7613C27.5981 42.2679 28.1391 41.5372 28.3114 40.6646C28.5144 39.636 28.8017 37.9164 29.1274 35.185C29.199 34.5847 29.5358 34.0475 30.0401 33.7143C35.8557 29.8717 40.0968 25.5347 42.2944 23.0485C43.4408 21.7516 44 20.0635 44 18.3326V15Z" fill="#91BEFF"></path><path d="M44 15C44 17 35.0457 18 24 18C12.9543 18 4 17 4 15C4 13 12.9543 12 24 12C35.0457 12 44 13 44 15Z" fill="#1F78F0"></path><path d="M14.0228 11.6511C14.0558 10.7885 14.6146 10.131 15.4746 10.0573C15.8696 10.0235 16.3705 10 17 10C17.6295 10 18.1304 10.0235 18.5254 10.0573C19.3854 10.131 19.9442 10.7885 19.9772 11.6511C19.9909 12.008 20 12.4517 20 13C20 13.5483 19.9909 13.992 19.9772 14.3489C19.9442 15.2115 19.3854 15.869 18.5254 15.9427C18.1304 15.9765 17.6295 16 17 16C16.3705 16 15.8696 15.9765 15.4746 15.9427C14.6146 15.869 14.0558 15.2115 14.0228 14.3489C14.0091 13.992 14 13.5483 14 13C14 12.4517 14.0091 12.008 14.0228 11.6511Z" fill="#91BEFF"></path><path d="M30.0512 8.74922C30.0979 7.8873 30.6578 7.2228 31.5151 7.12193C32.0942 7.0538 32.8998 7 34 7C35.1002 7 35.9058 7.0538 36.4849 7.12193C37.3422 7.2228 37.9021 7.8873 37.9488 8.74922C37.9779 9.28574 38 10.0167 38 11C38 11.9833 37.9779 12.7143 37.9488 13.2508C37.9021 14.1127 37.3422 14.7772 36.4849 14.8781C35.9058 14.9462 35.1002 15 34 15C32.8998 15 32.0942 14.9462 31.5151 14.8781C30.6578 14.7772 30.0979 14.1127 30.0512 13.2508C30.0221 12.7143 30 11.9833 30 11C30 10.0167 30.0221 9.28574 30.0512 8.74922Z" fill="#91BEFF"></path><path d="M21.0228 3.65107C21.0558 2.78851 21.6146 2.13095 22.4746 2.0573C22.8696 2.02348 23.3705 2 24 2C24.6295 2 25.1304 2.02348 25.5254 2.0573C26.3854 2.13095 26.9442 2.78851 26.9772 3.65107C26.9909 4.008 27 4.4517 27 5C27 5.5483 26.9909 5.992 26.9772 6.34893C26.9442 7.21149 26.3854 7.86905 25.5254 7.9427C25.1304 7.97652 24.6295 8 24 8C23.3705 8 22.8696 7.97652 22.4746 7.9427C21.6146 7.86905 21.0558 7.21149 21.0228 6.34893C21.0091 5.992 21 5.5483 21 5C21 4.4517 21.0091 4.008 21.0228 3.65107Z" fill="#91BEFF"></path></g></svg>