<svg viewBox="0 0 24 24" fill="none" xmlns="http://www.w3.org/2000/svg">


<g transform="matrix(0.5,0,0,0.5,0,0)"><path fill-rule="evenodd" clip-rule="evenodd" d="M44 13C44 11 35.0457 10 24 10C12.9543 10 4 11 4 13C4 13.001 4 13.002 4.00001 13.003L4.00003 16.3325C4.00002 18.0635 4.55921 19.7516 5.70562 21.0486C7.86826 23.4952 12.0099 27.7341 17.6834 31.5304C18.1964 31.8737 18.5335 32.4287 18.5894 33.0434C19.1032 38.7001 19.5601 42.5818 19.8068 44.5352C19.9134 45.3791 20.6318 46 21.4824 46C21.8199 46 22.1498 45.9001 22.4306 45.7129L26.858 42.7613C27.5981 42.2679 28.1391 41.5372 28.3114 40.6646C28.563 39.3903 28.9438 37.0553 29.3668 33.0496C29.4308 32.4435 29.7663 31.8979 30.2732 31.5594C35.9691 27.7557 40.1263 23.5014 42.2944 21.0485C43.4408 19.7516 44 18.0635 44 16.3326L44 13Z" fill="#91BEFF"></path><path d="M44 13C44 15 35.0457 16 24 16C12.9543 16 4 15 4 13C4 11 12.9543 10 24 10C35.0457 10 44 11 44 13Z" fill="#1F78F0"></path></g></svg>