<svg viewBox="0 0 24 24" fill="none" xmlns="http://www.w3.org/2000/svg">


<g transform="matrix(0.5,0,0,0.5,0,0)"><path d="M4.56198 39.315C4.73932 41.0322 5.86521 42.3915 7.55375 42.751C10.219 43.3184 15.2432 44 24 44C32.7568 44 37.781 43.3184 40.4463 42.751C42.1348 42.3915 43.2607 41.0322 43.438 39.315C43.701 36.7688 44 32.0939 44 24C44 15.9061 43.701 11.2312 43.438 8.68502C43.2607 6.96777 42.1348 5.60848 40.4462 5.24901C37.781 4.68162 32.7568 4 24 4C15.2432 4 10.219 4.68162 7.55375 5.24901C5.86521 5.60848 4.73932 6.96777 4.56198 8.68502C4.29904 11.2312 4 15.9061 4 24C4 32.0939 4.29904 36.7688 4.56198 39.315Z" fill="#91BEFF"></path><path fill-rule="evenodd" clip-rule="evenodd" d="M4.01001 26.5H16C16.6838 26.5 17.3202 26.1507 17.6873 25.5738L19.035 23.456L22.1273 31.7023C22.421 32.4854 23.171 33.0031 24.0073 33C24.8437 32.9969 25.5898 32.4738 25.8778 31.6885L29.7293 21.1843L31.6904 25.3516C32.0202 26.0526 32.7253 26.5 33.5 26.5H43.99C43.9965 25.7053 44 24.8725 44 24C44 23.4864 43.9988 22.9865 43.9965 22.5H34.7692L31.3096 15.1484C30.9661 14.4184 30.2176 13.9663 29.4116 14.002C28.6056 14.0376 27.9 14.554 27.6222 15.3115L23.9789 25.2478L21.3727 18.2978C21.1064 17.5878 20.4617 17.0895 19.7076 17.0108C18.9535 16.9321 18.2197 17.2866 17.8127 17.9263L14.9021 22.5H4.00353C4.0012 22.9865 4 23.4864 4 24C4 24.8725 4.00348 25.7053 4.01001 26.5Z" fill="#1F78F0"></path></g></svg>