<svg viewBox="0 0 24 24" fill="none" xmlns="http://www.w3.org/2000/svg">



<g transform="matrix(0.5,0,0,0.5,0,0)"><path d="M4.56198 39.315C4.73932 41.0322 5.86521 42.3915 7.55375 42.751C10.219 43.3184 15.2432 44 24 44C32.7568 44 37.781 43.3184 40.4463 42.751C42.1348 42.3915 43.2607 41.0322 43.438 39.315C43.701 36.7688 44 32.0939 44 24C44 15.9061 43.701 11.2312 43.438 8.68502C43.2607 6.96777 42.1348 5.60848 40.4462 5.24901C37.781 4.68162 32.7568 4 24 4C15.2432 4 10.219 4.68162 7.55375 5.24901C5.86521 5.60848 4.73932 6.96777 4.56198 8.68502C4.29904 11.2312 4 15.9061 4 24C4 32.0939 4.29904 36.7688 4.56198 39.315Z" fill="#91BEFF"></path><path d="M8.39726 35.7144C8.55504 37.4336 9.6803 38.7846 11.3761 39.1082C13.6194 39.5363 17.5402 40 24 40C30.4598 40 34.3806 39.5363 36.6239 39.1082C38.3197 38.7846 39.445 37.4336 39.6027 35.7144C39.7985 33.5815 40 29.9427 40 24C40 18.0573 39.7985 14.4185 39.6027 12.2856C39.445 10.5664 38.3197 9.21541 36.6239 8.89179C34.3806 8.46366 30.4598 8 24 8C17.5402 8 13.6194 8.46366 11.3761 8.89179C9.6803 9.21541 8.55504 10.5664 8.39726 12.2856C8.20151 14.4185 8 18.0573 8 24C8 29.9427 8.20151 33.5815 8.39726 35.7144Z" fill="#1F78F0"></path><path fill-rule="evenodd" clip-rule="evenodd" d="M8.01268 26.5H16C16.6838 26.5 17.3202 26.1507 17.6873 25.5738L19.035 23.456L22.1273 31.7023C22.421 32.4854 23.171 33.0031 24.0073 33C24.8437 32.9969 25.5898 32.4738 25.8778 31.6885L29.7293 21.1843L31.6904 25.3516C32.0202 26.0526 32.7253 26.5 33.5 26.5H39.9873C39.9955 25.7158 40 24.8834 40 24C40 23.4827 39.9985 22.9829 39.9956 22.5H34.7692L31.3096 15.1484C30.9661 14.4184 30.2176 13.9663 29.4116 14.002C28.6056 14.0376 27.9 14.554 27.6222 15.3115L23.9789 25.2478L21.3727 18.2978C21.1064 17.5878 20.4617 17.0895 19.7076 17.0108C18.9535 16.9321 18.2197 17.2866 17.8127 17.9263L14.9021 22.5H8.00444C8.00153 22.9829 8 23.4827 8 24C8 24.8834 8.00445 25.7158 8.01268 26.5Z" fill="#91BEFF"></path></g></svg>