<svg viewBox="0 0 24 24" fill="none" xmlns="http://www.w3.org/2000/svg">


<g transform="matrix(0.5,0,0,0.5,0,0)"><path fill-rule="evenodd" clip-rule="evenodd" d="M21.7082 5.30802C22.803 5.00379 23.7409 5.94531 23.8097 7.07952C23.9528 9.43847 24.4418 12.0369 25.734 13.7768C26.4059 14.6815 27.6986 14.8976 28.5033 14.1086C29.3225 13.3054 29.9636 12.0866 30.4602 10.7703C30.9529 9.46395 32.5252 8.84528 33.6258 9.70434C38.7474 13.7018 44 19.8004 44 28C44 39.0457 35.0457 44 24 44C12.9543 44 4 39.0457 4 28C4 16.7775 13.8394 9.49076 19.7154 6.13979C20.3539 5.77568 21.023 5.49842 21.7082 5.30802Z" fill="#91BEFF"></path><path fill-rule="evenodd" clip-rule="evenodd" d="M28.7925 20.0213C28.3165 19.878 27.824 20.1181 27.561 20.5399L18.6791 34.7859C18.4698 35.1174 18.2866 35.4226 18.1296 35.7017C17.9901 35.9808 17.9203 36.2599 17.9203 36.539C17.9203 36.9402 18.1383 37.2716 18.5744 37.5333C18.8452 37.6791 19.1533 37.7907 19.4987 37.8681C19.9538 37.9701 20.404 37.7299 20.651 37.3344L29.5639 23.0638C29.7906 22.6975 29.9738 22.3748 30.1134 22.0957C30.2529 21.8166 30.3227 21.5462 30.3227 21.2846C30.3227 20.8834 30.0785 20.5694 29.59 20.3426C29.3412 20.2136 29.0754 20.1065 28.7925 20.0213ZM22.0649 24.1497C22.0649 25.458 21.6724 26.4784 20.8875 27.211C20.1025 27.9437 19.0908 28.31 17.8523 28.31C16.5963 28.31 15.5759 27.9437 14.7909 27.211C14.0234 26.4784 13.6396 25.458 13.6396 24.1497C13.6396 22.8589 14.0234 21.8471 14.7909 21.1145C15.5759 20.3819 16.5963 20.0156 17.8523 20.0156C19.0908 20.0156 20.1025 20.3819 20.8875 21.1145C21.6724 21.8471 22.0649 22.8589 22.0649 24.1497ZM16.8056 24.1497C16.8056 24.673 16.9016 25.0655 17.0935 25.3271C17.3028 25.5713 17.5557 25.6934 17.8522 25.6934C18.1488 25.6934 18.393 25.5713 18.5849 25.3271C18.7942 25.0655 18.8989 24.673 18.8989 24.1497C18.8989 23.6438 18.7942 23.2688 18.5849 23.0246C18.393 22.7804 18.1488 22.6583 17.8522 22.6583C17.5557 22.6583 17.3028 22.7804 17.0935 23.0246C16.9016 23.2688 16.8056 23.6438 16.8056 24.1497ZM34.6676 33.844C34.6676 35.1522 34.2751 36.1727 33.4902 36.9053C32.7052 37.6379 31.6935 38.0043 30.455 38.0043C29.199 38.0043 28.1786 37.6379 27.3936 36.9053C26.6261 36.1727 26.2424 35.1522 26.2424 33.844C26.2424 32.5531 26.6261 31.5414 27.3936 30.8088C28.1786 30.0762 29.199 29.7098 30.455 29.7098C31.6935 29.7098 32.7052 30.0762 33.4902 30.8088C34.2751 31.5414 34.6676 32.5531 34.6676 33.844ZM29.4081 33.844C29.4081 34.3673 29.5041 34.7598 29.6959 35.0214C29.9053 35.2656 30.1582 35.3877 30.4547 35.3877C30.7513 35.3877 30.9955 35.2656 31.1874 35.0214C31.3967 34.7598 31.5014 34.3673 31.5014 33.844C31.5014 33.3381 31.3967 32.9631 31.1874 32.7189C30.9955 32.4746 30.7513 32.3525 30.4547 32.3525C30.1582 32.3525 29.9053 32.4746 29.6959 32.7189C29.5041 32.9631 29.4081 33.3381 29.4081 33.844Z" fill="#1F78F0"></path></g></svg>