<svg viewBox="0 0 24 24" fill="none" xmlns="http://www.w3.org/2000/svg">



<g transform="matrix(0.5,0,0,0.5,0,0)"><path d="M31.8284 37.4853C30.2663 35.9232 30.2663 33.3905 31.8284 31.8284V31.8284C33.3905 30.2663 35.9232 30.2663 37.4853 31.8284L43.1421 37.4853C44.7042 39.0474 44.7042 41.58 43.1421 43.1421V43.1421C41.58 44.7042 39.0474 44.7042 37.4853 43.1421L31.8284 37.4853Z" fill="#1F78F0"></path><path d="M40 22C40 31.9411 31.9411 40 22 40C12.0589 40 4 31.9411 4 22C4 12.0589 12.0589 4 22 4C31.9411 4 40 12.0589 40 22Z" fill="#91BEFF"></path><path d="M34 22C34 28.6274 28.6274 34 22 34C15.3726 34 10 28.6274 10 22C10 15.3726 15.3726 10 22 10C28.6274 10 34 15.3726 34 22Z" fill="#1F78F0"></path></g></svg>