<svg viewBox="0 0 24 24" fill="none" xmlns="http://www.w3.org/2000/svg">




<g transform="matrix(0.5,0,0,0.5,0,0)"><rect x="29" y="34.6569" width="8" height="16" rx="4" transform="rotate(-45 29 34.6569)" fill="#1F78F0"></rect><circle cx="22" cy="22" r="18" fill="#91BEFF"></circle><circle cx="22" cy="22" r="13" fill="#1F78F0"></circle><path d="M21.514 26.5282C22.2916 26.5282 22.8531 26.3777 23.1987 26.0765C23.5587 25.7754 23.7387 25.4065 23.7387 24.9699C23.7387 24.5784 23.6019 24.2622 23.3283 24.0213C23.0547 23.7804 22.6443 23.5696 22.0972 23.389L20.9093 22.9824C20.3189 22.7867 19.7862 22.5759 19.311 22.3501C18.8359 22.1242 18.4327 21.8532 18.1015 21.537C17.7703 21.2208 17.5112 20.8444 17.324 20.4078C17.1368 19.9711 17.0432 19.4517 17.0432 18.8494C17.0432 17.8256 17.3456 16.9749 17.9503 16.2974C18.5551 15.6198 19.419 15.1681 20.5421 14.9423V14.3811C20.5421 13.6607 21.0312 13 21.7516 13V13C22.2844 13 22.6659 13.0979 22.8963 13.2936C23.1411 13.4893 23.2635 13.8432 23.2635 14.3551V14.8519C24.185 14.9573 24.9338 15.1907 25.5097 15.5521C26.0857 15.8984 26.3736 16.3576 26.3736 16.9297C26.3736 17.0166 26.3668 17.1013 26.3538 17.1836C26.2166 18.0496 25.0764 18.036 24.2354 17.788V17.788C23.6883 17.6073 23.0907 17.5169 22.4428 17.5169C21.7228 17.5169 21.1829 17.6449 20.8229 17.9009C20.4773 18.1418 20.3045 18.458 20.3045 18.8494C20.3045 19.1656 20.4197 19.4216 20.6501 19.6173C20.8949 19.813 21.2621 19.9937 21.7516 20.1593L22.9611 20.5433C24.257 20.9649 25.2505 21.522 25.9417 22.2146C26.6472 22.9072 27 23.8407 27 25.0151C27 26.054 26.6832 26.9348 26.0497 27.6575C25.4161 28.3651 24.4874 28.8394 23.2635 29.0803V29.6189C23.2635 30.3393 22.7744 31 22.054 31V31C21.5212 31 21.1325 30.9021 20.8877 30.7064C20.6573 30.5107 20.5421 30.1568 20.5421 29.6449V29.1932C19.491 29.0728 18.6343 28.8093 17.9719 28.4028C17.324 27.9812 17 27.4542 17 26.8218C17 26.6326 17.0325 26.4561 17.0909 26.2927C17.381 25.481 18.4706 25.6437 19.242 26.0286C19.3205 26.0677 19.4011 26.1063 19.4838 26.1443C20.0742 26.4002 20.7509 26.5282 21.514 26.5282Z" fill="#91BEFF"></path></g></svg>