<svg viewBox="0 0 24 24" fill="none" xmlns="http://www.w3.org/2000/svg">


<g transform="matrix(0.5,0,0,0.5,0,0)"><path fill-rule="evenodd" clip-rule="evenodd" d="M39.0172 36C40.4451 36 41.7942 35.2509 42.3617 33.9406C43.4158 31.5065 44 28.8215 44 26C44 14.9543 35.0457 6 24 6C12.9543 6 4 14.9543 4 26C4 28.8215 4.58424 31.5065 5.63835 33.9406C6.20576 35.2509 7.55495 36 8.98281 36H39.0172Z" fill="#91BEFF"></path><path fill-rule="evenodd" clip-rule="evenodd" d="M29.4228 18.8963C29.5152 17.3277 27.5598 16.8038 26.8555 18.2084C25.4359 21.0395 23.6985 24.6581 22.1678 28.2858C20.2924 28.8891 18.7522 30.4026 18.2044 32.4471C17.3467 35.6479 19.2462 38.9379 22.447 39.7956C25.6478 40.6532 28.9379 38.7537 29.7955 35.5529C30.3433 33.5085 29.7663 31.4276 28.4437 29.9674C28.932 26.0604 29.2366 22.0579 29.4228 18.8963Z" fill="#1F78F0"></path></g></svg>