<svg viewBox="0 0 24 24" fill="none" xmlns="http://www.w3.org/2000/svg">





<g transform="matrix(0.5,0,0,0.5,0,0)"><path d="M24 3C35.598 3 45 12.3807 45 23.9524V41.1928C45 43.4674 43.6561 45.438 41.4182 45.8449C38.3546 46.402 32.9755 47 24 47C15.0245 47 9.64537 46.402 6.58176 45.8449C4.34386 45.438 3 43.4674 3 41.1928V23.9524C3 12.3807 12.402 3 24 3Z" fill="#1F78F0"></path><path d="M3 24C3 35.598 12.402 45 24 45C35.598 45 45 35.598 45 24C45 12.402 35.598 3 24 3C12.402 3 3 12.402 3 24Z" fill="#91BEFF"></path><path fill-rule="evenodd" clip-rule="evenodd" d="M45 24C45 12.402 35.598 3 24 3C12.402 3 3 12.402 3 24C12.8592 24 21.2037 17.5146 24 8.57714C26.7963 17.5146 35.1408 24 45 24Z" fill="#1F78F0"></path><path fill-rule="evenodd" clip-rule="evenodd" d="M16 26C17.1046 26 18 25.1046 18 24C18 22.8954 17.1046 22 16 22C14.8954 22 14 22.8954 14 24C14 25.1046 14.8954 26 16 26ZM32 26C33.1046 26 34 25.1046 34 24C34 22.8954 33.1046 22 32 22C30.8954 22 30 22.8954 30 24C30 25.1046 30.8954 26 32 26Z" fill="#1F78F0"></path><path fill-rule="evenodd" clip-rule="evenodd" d="M44.7433 27.2919C43.7806 27.6412 42.3966 28.093 40.6178 28.5468C39.4849 28.8357 38.1918 29.1255 36.7452 29.3901C36.4118 28.6509 35.6006 28.166 34.7169 28.2462C32.5076 28.4468 28.792 28.6968 23.9998 28.6968C19.2077 28.6968 15.4921 28.4468 13.2828 28.2462C12.3991 28.166 11.5879 28.6509 11.2545 29.39C9.808 29.1255 8.51493 28.8357 7.38203 28.5468C5.60311 28.093 4.21909 27.6412 3.25635 27.2919C3.44291 28.4769 3.72857 29.6289 4.10458 30.7393C4.84524 30.9691 5.69171 31.2117 6.64055 31.4537C8.00211 31.801 9.57447 32.1473 11.3474 32.4536C11.5307 33.7359 11.7659 34.9546 12.001 36.019C10.3243 36.1705 8.83796 36.3417 7.5517 36.5132C7.42307 36.5303 7.29643 36.5475 7.1718 36.5646C7.90069 37.5393 8.71227 38.4485 9.59613 39.2819C10.5871 39.1671 11.6746 39.0561 12.8551 38.9556C13.2754 39.7444 13.9271 40.3754 14.7919 40.6872C16.4681 41.2915 19.4117 42 23.9998 42C28.588 42 31.5315 41.2915 33.2077 40.6872C34.0726 40.3754 34.7243 39.7444 35.1446 38.9556C36.3251 39.0561 37.4126 39.1671 38.4036 39.2818C39.2874 38.4485 40.099 37.5392 40.8279 36.5646C40.7033 36.5475 40.5768 36.5303 40.4482 36.5132C39.1619 36.3417 37.6755 36.1705 35.9986 36.019C36.2338 34.9546 36.469 33.7359 36.6523 32.4536C38.4253 32.1473 39.9977 31.801 41.3593 31.4537C42.308 31.2117 43.1544 30.9692 43.8951 30.7394C44.2711 29.629 44.5567 28.4769 44.7433 27.2919Z" fill="#1F78F0"></path></g></svg>