<svg viewBox="0 0 24 24" fill="none" xmlns="http://www.w3.org/2000/svg">



<g transform="matrix(0.5,0,0,0.5,0,0)"><circle cx="24" cy="38" r="8" fill="#91BEFF"></circle><path d="M39.1626 17.9516C38.5055 10.0657 31.9132 4 24 4V4C16.0868 4 9.49452 10.0657 8.83736 17.9516L8.30921 24.2895C8.10579 26.7306 7.34462 29.0923 6.08436 31.1927L4.41024 33.9829C2.99372 36.3438 3.77776 38.7716 6.50437 39.1533C9.67582 39.5973 15.0259 40 24 40C32.9741 40 38.3242 39.5973 41.4956 39.1533C44.2222 38.7716 45.0063 36.3438 43.5898 33.9829L41.9156 31.1927C40.6554 29.0923 39.8942 26.7306 39.6908 24.2895L39.1626 17.9516Z" fill="#91BEFF"></path><path d="M4.70261 40.5174C4.16727 41.0628 3.79771 41.7823 4.07972 42.4927C4.28705 43.0149 4.69254 43.6925 5.47487 44.4749C6.25721 45.2572 6.93486 45.6627 7.4571 45.87C8.16743 46.152 8.88691 45.7825 9.43236 45.2471C12.2766 42.4555 21.6734 33.2261 26.3345 28.565C30.9956 23.9039 40.2251 14.5071 43.0167 11.6628C43.552 11.1174 43.9216 10.3979 43.6396 9.68754C43.4322 9.16531 43.0268 8.48765 42.2444 7.70532C41.4621 6.92299 40.7844 6.5175 40.2622 6.31017C39.5519 6.02816 38.8324 6.39772 38.2869 6.93306C35.4427 9.72464 26.0459 18.9541 21.3848 23.6152C16.7237 28.2763 7.4942 37.6731 4.70261 40.5174Z" fill="#1F78F0"></path></g></svg>