<svg viewBox="0 0 24 24" fill="none" xmlns="http://www.w3.org/2000/svg">




<g transform="matrix(0.5,0,0,0.5,0,0)"><circle cx="24" cy="39" r="8" fill="#1F78F0"></circle><path d="M39.1626 18.9516C38.5055 11.0657 31.9132 5 24 5V5C16.0868 5 9.49452 11.0657 8.83736 18.9516L8.30921 25.2895C8.10579 27.7306 7.34462 30.0923 6.08436 32.1927L4.41024 34.9829C2.99372 37.3438 3.77776 39.7716 6.50437 40.1533C9.67582 40.5973 15.0259 41 24 41C32.9741 41 38.3242 40.5973 41.4956 40.1533C44.2222 39.7716 45.0063 37.3438 43.5898 34.9829L41.9156 32.1927C40.6554 30.0923 39.8942 27.7306 39.6908 25.2895L39.1626 18.9516Z" fill="#91BEFF"></path><path fill-rule="evenodd" clip-rule="evenodd" d="M43.038 18.2327C42.2979 18.1701 41.8379 17.4868 41.731 16.7517C40.9902 11.6557 38.3028 7.27364 34.2618 4.53195C33.7452 4.18147 33.3398 3.61856 33.5168 3.01992C33.7377 2.27226 34.2677 1.64083 34.7495 1.19205C35.2891 0.689305 36.0943 0.688216 36.7031 1.10464C41.5124 4.39438 45.3352 10.1256 46.27 16.1887C46.392 16.9803 45.9659 17.7522 45.1971 17.9771C44.5902 18.1547 43.8211 18.299 43.038 18.2327Z" fill="#1F78F0"></path><path fill-rule="evenodd" clip-rule="evenodd" d="M4.88798 18.2327C5.62816 18.1701 6.08814 17.4868 6.195 16.7517C6.93587 11.6557 9.62321 7.27364 13.6642 4.53195C14.1808 4.18147 14.5862 3.61856 14.4093 3.01992C14.1883 2.27226 13.6583 1.64083 13.1766 1.19205C12.6369 0.689305 11.8317 0.688216 11.2229 1.10464C6.41367 4.39438 2.59082 10.1256 1.65605 16.1887C1.53399 16.9803 1.96014 17.7522 2.7289 17.9771C3.33586 18.1547 4.10492 18.299 4.88798 18.2327Z" fill="#1F78F0"></path></g></svg>