<svg viewBox="0 0 24 24" fill="none" xmlns="http://www.w3.org/2000/svg">



<g transform="matrix(0.5,0,0,0.5,0,0)"><path d="M32 38C32 42.4183 28.4183 46 24 46C19.5817 46 16 42.4183 16 38C16 33.5817 19.5817 30 24 30C28.4183 30 32 33.5817 32 38Z" fill="#1F78F0"></path><path d="M39.1627 17.9516C38.5055 10.0657 31.9133 4 24 4V4C16.0868 4 9.49454 10.0657 8.83738 17.9516L8.30922 24.2895C8.1058 26.7306 7.34463 29.0923 6.08437 31.1927L4.41025 33.9829C2.99374 36.3438 3.77777 38.7716 6.50439 39.1533C9.67583 39.5973 15.0259 40 24 40C32.9741 40 38.3242 39.5973 41.4956 39.1533C44.2223 38.7716 45.0063 36.3438 43.5898 33.9829L41.9157 31.1927C40.6554 29.0923 39.8942 26.7306 39.6908 24.2895L39.1627 17.9516Z" fill="#91BEFF"></path><path d="M40 10C40 13.3137 37.3137 16 34 16C30.6863 16 28 13.3137 28 10C28 6.68629 30.6863 4 34 4C37.3137 4 40 6.68629 40 10Z" fill="#1F78F0"></path></g></svg>