<svg viewBox="0 0 24 24" fill="none" xmlns="http://www.w3.org/2000/svg">



<g transform="matrix(0.5,0,0,0.5,0,0)"><path d="M31 14L29.2967 8.16C28.9233 6.88 27.75 6 26.4167 6H21.5833C20.25 6 19.0767 6.88 18.7033 8.16L17 14" stroke="#1F78F0" stroke-width="3"></path><path d="M4.50915 14.4386C4.70711 12.6583 5.93135 11.2962 7.69672 10.9927C10.3732 10.5327 15.3418 10 24 10C32.6582 10 37.6268 10.5327 40.3033 10.9927C42.0687 11.2962 43.2929 12.6583 43.4908 14.4386C43.7394 16.674 44 20.4583 44 26.5C44 32.5417 43.7394 36.326 43.4908 38.5614C43.2929 40.3417 42.0687 41.7038 40.3033 42.0073C37.6268 42.4673 32.6582 43 24 43C15.3418 43 10.3732 42.4673 7.69672 42.0073C5.93134 41.7038 4.70711 40.3417 4.50915 38.5614C4.26059 36.326 4 32.5417 4 26.5C4 20.4583 4.26059 16.674 4.50915 14.4386Z" fill="#91BEFF"></path><path fill-rule="evenodd" clip-rule="evenodd" d="M43.9965 25.3082C40.4144 26.3973 28.2441 30 23.9998 30C19.7557 30 7.58576 26.3974 4.00342 25.3082C4.03504 19.9549 4.2773 16.5232 4.5091 14.4386C4.70705 12.6583 5.93129 11.2962 7.69667 10.9927C10.3732 10.5327 15.3417 10 23.9999 10C32.6582 10 37.6267 10.5327 40.3032 10.9927C42.0686 11.2962 43.2928 12.6583 43.4908 14.4386C43.7226 16.5232 43.9649 19.9549 43.9965 25.3082Z" fill="#1F78F0"></path></g></svg>