<svg viewBox="0 0 24 24" fill="none" xmlns="http://www.w3.org/2000/svg">


<g transform="matrix(0.5,0,0,0.5,0,0)"><path d="M3.56402 10.5738C3.76291 8.80233 4.9656 7.43418 6.71897 7.11242C9.48875 6.60414 14.7306 6 24 6C33.2694 6 38.5112 6.60414 41.281 7.11242C43.0344 7.43418 44.2371 8.80233 44.436 10.5738C44.7054 12.9734 45 17.1609 45 24C45 30.8391 44.7054 35.0266 44.436 37.4262C44.2371 39.1977 43.0344 40.5658 41.281 40.8876C38.5113 41.3959 33.2694 42 24 42C14.7306 42 9.48875 41.3959 6.71897 40.8876C4.9656 40.5658 3.76291 39.1977 3.56402 37.4262C3.29461 35.0266 3 30.8391 3 24C3 17.1609 3.29461 12.9734 3.56402 10.5738Z" fill="#1F78F0"></path><path d="M44.9093 17.8752C44.9583 19.4035 44.1118 20.8116 42.7329 21.4724C38.3286 23.5831 28.5665 28 24 28C19.4335 28 9.67137 23.5831 5.26712 21.4724C3.88822 20.8116 3.04174 19.4035 3.0907 17.8752C3.19868 14.5047 3.38673 12.1531 3.5639 10.5748C3.76276 8.80332 4.96559 7.43418 6.71896 7.11242C9.48874 6.60414 14.7306 6 24 6C33.2694 6 38.5112 6.60414 41.281 7.11242C43.0344 7.43418 44.2372 8.80332 44.4361 10.5748C44.6133 12.1531 44.8013 14.5047 44.9093 17.8752Z" fill="#91BEFF"></path></g></svg>