<svg viewBox="0 0 24 24" fill="none" xmlns="http://www.w3.org/2000/svg">




<g transform="matrix(0.5,0,0,0.5,0,0)"><path d="M43.1278 28.1869C43.3185 28.0637 43.4782 27.904 43.5578 27.6915C43.732 27.2264 44 26.1599 44 24C44 21.8401 43.732 20.7736 43.5578 20.3085C43.4782 20.096 43.3185 19.9363 43.1278 19.8131C42.0515 19.1176 38.1053 16.6833 34.5882 16C34.5882 16 34 17.6 34 24C34 30.4 34.5882 32 34.5882 32C38.1053 31.3167 42.0515 28.8824 43.1278 28.1869Z" fill="#1F78F0"></path><path d="M11 32L23 38C19.8418 40.4564 16.6836 42.9127 15.081 44.1592C14.3789 44.7053 13.5044 45.0206 12.6513 44.7687C12.1585 44.6232 11.5792 44.3862 11 44C10.491 43.6607 10.0971 43.3213 9.79888 43.0211C9.20313 42.4213 9.07425 41.552 9.22115 40.7195C9.57086 38.7377 10.2854 34.8582 11 32Z" fill="#1F78F0"></path><path d="M6.25279 32.5785C5.43595 32.2053 4.79324 31.5526 4.59173 30.6774C4.31524 29.4766 4 27.3688 4 24C4 20.6312 4.31524 18.5234 4.59173 17.3226C4.79324 16.4474 5.43595 15.7947 6.25279 15.4214C10.056 13.6835 21.8788 8.41598 32.8232 4.95757C34.6586 4.37758 36.5007 5.30372 36.8574 7.19525C37.4001 10.0734 38 15.2369 38 24C38 32.7631 37.4001 37.9265 36.8574 40.8047C36.5007 42.6963 34.6586 43.6224 32.8232 43.0424C21.8788 39.584 10.056 34.3165 6.25279 32.5785Z" fill="#91BEFF"></path><path fill-rule="evenodd" clip-rule="evenodd" d="M4.59173 30.6774C4.79324 31.5526 5.43595 32.2053 6.25279 32.5785C7.12004 32.9748 8.40427 33.5546 10 34.2547V13.7452C8.40427 14.4453 7.12004 15.0251 6.25279 15.4214C5.43595 15.7947 4.79324 16.4474 4.59173 17.3225C4.31524 18.5234 4 20.6312 4 24C4 27.3687 4.31524 29.4766 4.59173 30.6774Z" fill="#1F78F0"></path></g></svg>