<svg viewBox="0 0 24 24" fill="none" xmlns="http://www.w3.org/2000/svg">


<g transform="matrix(0.5,0,0,0.5,0,0)"><path d="M30.1011 7.84533C29.9348 5.89065 27.9214 4.77797 26.208 5.7333C19.4 9.52924 15.6743 14 15.6743 14C15.6743 14 11.5141 14.6934 7.81257 15.5027C6.47654 15.7949 5.41639 16.7903 5.17232 18.136C4.92299 19.5106 4.67432 21.5067 4.67432 24C4.67432 26.4933 4.92299 28.4894 5.17232 29.864C5.41639 31.2097 6.47654 32.2051 7.81257 32.4973C11.5141 33.3066 15.6743 34 15.6743 34C15.6743 34 19.4 38.4708 26.208 42.2667C27.9214 43.222 29.9348 42.1093 30.1011 40.1547C30.373 36.9601 30.6743 31.6855 30.6743 24C30.6743 16.3145 30.373 11.0399 30.1011 7.84533Z" fill="#1F78F0"></path><path fill-rule="evenodd" clip-rule="evenodd" d="M34.84 17.0037C35.4542 16.6105 36.1873 16.8617 36.7029 17.3774V17.3774C40.3605 21.0349 40.3605 26.965 36.7029 30.6226V30.6226C36.1832 31.1423 35.4547 31.4064 34.8391 31.0048C34.5694 30.8289 34.2554 30.5809 33.9058 30.2313C33.5562 29.8817 33.3082 29.5677 33.1323 29.298C32.7307 28.6824 32.9948 27.9539 33.5145 27.4342V27.4342C35.4111 25.5375 35.4111 22.4625 33.5145 20.5658V20.5658C32.9989 20.0502 32.7476 19.317 33.1408 18.7029C33.3164 18.4285 33.5621 18.1123 33.9058 17.7687C34.2494 17.425 34.5657 17.1793 34.84 17.0037Z" fill="#91BEFF"></path></g></svg>