<svg viewBox="0 0 24 24" fill="none" xmlns="http://www.w3.org/2000/svg">


<g transform="matrix(0.5,0,0,0.5,0,0)"><path d="M33.4268 7.84533C33.2605 5.89065 31.2471 4.77797 29.5337 5.7333C22.7256 9.52924 19 14 19 14C19 14 14.8398 14.6934 11.1383 15.5027C9.80222 15.7949 8.74208 16.7903 8.498 18.136C8.24867 19.5106 8 21.5067 8 24C8 26.4933 8.24867 28.4894 8.498 29.864C8.74208 31.2097 9.80222 32.2051 11.1383 32.4973C14.8398 33.3066 19 34 19 34C19 34 22.7256 38.4708 29.5337 42.2667C31.2471 43.222 33.2605 42.1093 33.4268 40.1547C33.6986 36.9601 34 31.6855 34 24C34 16.3145 33.6986 11.0399 33.4268 7.84533Z" fill="#91BEFF"></path><path d="M3.65836 36.7027C3.07752 37.1995 2.64666 37.884 2.86568 38.6162C3.02671 39.1545 3.37159 39.8649 4.08276 40.7125C4.79393 41.56 5.43367 42.023 5.93585 42.2751C6.6189 42.6179 7.36785 42.3125 7.95788 41.8267C11.0346 39.2936 21.2001 30.9183 26.2497 26.6811C31.2993 22.444 41.3126 13.8874 44.3415 11.2972C44.9223 10.8005 45.3532 10.116 45.1342 9.38379C44.9731 8.84547 44.6282 8.13505 43.9171 7.28751C43.2059 6.43997 42.5662 5.97696 42.064 5.7249C41.3809 5.38206 40.632 5.68751 40.042 6.17327C36.9652 8.70634 26.7998 17.0817 21.7502 21.3188C16.7005 25.556 6.68722 34.1126 3.65836 36.7027Z" fill="#1F78F0"></path></g></svg>