<svg viewBox="0 0 24 24" fill="none" xmlns="http://www.w3.org/2000/svg">


<g transform="matrix(0.5,0,0,0.5,0,0)"><g clip-path="url(#clip0_589:1688)">
<path d="M28.4268 7.84533C28.2605 5.89065 26.2471 4.77797 24.5337 5.7333C17.7256 9.52924 14 14 14 14C14 14 9.8398 14.6934 6.13826 15.5027C4.80222 15.7949 3.74208 16.7903 3.498 18.136C3.24867 19.5106 3 21.5067 3 24C3 26.4933 3.24867 28.4894 3.498 29.864C3.74208 31.2097 4.80222 32.2051 6.13826 32.4973C9.8398 33.3066 14 34 14 34C14 34 17.7256 38.4708 24.5337 42.2667C26.2471 43.222 28.2605 42.1093 28.4268 40.1547C28.6986 36.9601 29 31.6855 29 24C29 16.3145 28.6986 11.0399 28.4268 7.84533Z" fill="#1F78F0"></path>
<path fill-rule="evenodd" clip-rule="evenodd" d="M33.1657 17.0037C33.7798 16.6105 34.513 16.8617 35.0286 17.3774V17.3774C38.6862 21.0349 38.6862 26.965 35.0286 30.6226V30.6226C34.5089 31.1423 33.7804 31.4064 33.1648 31.0048C32.8951 30.8289 32.581 30.5809 32.2315 30.2313C31.8819 29.8817 31.6339 29.5677 31.458 29.298C31.0564 28.6824 31.3205 27.9539 31.8402 27.4342V27.4342C33.7368 25.5375 33.7368 22.4625 31.8402 20.5658V20.5658C31.3245 20.0502 31.0733 19.317 31.4665 18.7029C31.6421 18.4285 31.8878 18.1123 32.2315 17.7687C32.5751 17.425 32.8914 17.1793 33.1657 17.0037Z" fill="#91BEFF"></path>
<path fill-rule="evenodd" clip-rule="evenodd" d="M38.6348 12.4681C39.3655 11.9421 40.2815 12.2397 40.9182 12.8763L41.1298 13.088C47.1564 19.1145 47.1564 28.8855 41.1298 34.912L40.791 35.2509C40.2283 35.8135 39.4389 36.095 38.782 35.6461C38.5269 35.4718 38.2348 35.2347 37.9122 34.912C37.5895 34.5894 37.3524 34.2973 37.1781 34.0422C36.7292 33.3853 37.0107 32.5959 37.5733 32.0333L37.9122 31.6944C42.1617 27.4449 42.5529 20.9464 38.3034 16.6969L37.7005 16.094C37.0639 15.4573 36.7664 14.5413 37.2923 13.8106C37.4526 13.5879 37.6555 13.3446 37.9122 13.088C38.1688 12.8313 38.4121 12.6284 38.6348 12.4681Z" fill="#91BEFF"></path>
</g><defs>
<clipPath id="clip0_589:1688">
<rect width="48" height="48" fill="white"></rect>
</clipPath>
</defs></g></svg>