<svg viewBox="0 0 24 24" fill="none" xmlns="http://www.w3.org/2000/svg">
  <g transform="matrix(0.5,0,0,0.5,0,0)">
    <path fill-rule="evenodd" clip-rule="evenodd"
      d="M19.8521 4.35457C19.9487 4.11921 20.0933 3.90639 20.3113 3.77532C20.802 3.48047 21.9205 3 24 3C26.0795 3 27.198 3.48047 27.6887 3.77533C27.9067 3.90639 28.0513 4.11921 28.1479 4.35457C28.4814 5.16658 29.3005 7.2333 29.7846 9.07765C31.329 9.67675 32.7573 10.5087 34.0264 11.5304C35.8666 11.0268 38.0688 10.7023 38.9395 10.585C39.1916 10.5511 39.4482 10.5698 39.6708 10.6931C40.1714 10.9706 41.1468 11.6991 42.1865 13.5C43.2263 15.3008 43.3695 16.5097 43.3594 17.0821C43.355 17.3365 43.2429 17.5681 43.0874 17.7694C42.5507 18.4646 41.1694 20.2085 39.8136 21.5501C39.9363 22.3488 40 23.167 40 24C40 24.833 39.9363 25.6511 39.8136 26.4498C41.1694 27.7914 42.5507 29.5353 43.0874 30.2305C43.2429 30.4319 43.355 30.6634 43.3594 30.9178C43.3695 31.4902 43.2263 32.6991 42.1865 34.5C41.1468 36.3008 40.1714 37.0293 39.6708 37.3068C39.4482 37.4301 39.1916 37.4488 38.9395 37.4149C38.0688 37.2976 35.8666 36.9732 34.0265 36.4695C32.7574 37.4912 31.329 38.3232 29.7846 38.9224C29.3005 40.7667 28.4814 42.8334 28.1479 43.6454C28.0513 43.8808 27.9067 44.0936 27.6887 44.2247C27.198 44.5195 26.0795 45 24 45C21.9205 45 20.802 44.5195 20.3113 44.2247C20.0933 44.0936 19.9487 43.8808 19.8521 43.6454C19.5186 42.8334 18.6995 40.7667 18.2154 38.9224C16.671 38.3232 15.2427 37.4913 13.9736 36.4695C12.1334 36.9732 9.93119 37.2976 9.06053 37.4149C8.80837 37.4488 8.5518 37.4301 8.32926 37.3068C7.82858 37.0293 6.85321 36.3008 5.81348 34.5C4.77374 32.6991 4.63057 31.4902 4.6406 30.9178C4.64506 30.6634 4.75711 30.4319 4.91261 30.2305C5.44931 29.5353 6.83058 27.7914 8.18637 26.4498C8.06366 25.6511 8 24.833 8 24C8 23.167 8.06366 22.3488 8.18639 21.5501C6.83059 20.2085 5.44931 18.4646 4.91261 17.7694C4.75711 17.5681 4.64506 17.3365 4.6406 17.0821C4.63057 16.5097 4.77374 15.3008 5.81348 13.5C6.85322 11.6991 7.82858 10.9706 8.32926 10.6931C8.5518 10.5698 8.80837 10.5511 9.06053 10.585C9.93121 10.7023 12.1335 11.0268 13.9736 11.5304C15.2427 10.5087 16.671 9.67675 18.2154 9.07765C18.6995 7.2333 19.5186 5.16658 19.8521 4.35457Z"
      fill="#91BEFF"></path>
    <circle cx="24" cy="24" r="12" fill="#1F78F0"></circle>
    <circle cx="24" cy="24" r="8" fill="#1F78F0"></circle>
    <path fill-rule="evenodd" clip-rule="evenodd"
      d="M26.331 26.2292C27.5991 25.4465 28.4443 24.0442 28.4443 22.4444C28.4443 19.9898 26.4545 18 23.9999 18C21.5453 18 19.5554 19.9898 19.5554 22.4444C19.5554 24.0441 20.4005 25.4464 21.6687 26.2292C20.3434 26.765 19.2448 27.7441 18.5568 28.9827C18.3615 29.3343 18.4448 29.7709 18.748 30.035C20.1532 31.2589 21.99 32 23.9998 32C26.0096 32 27.8463 31.2589 29.2515 30.035C29.5548 29.7709 29.6381 29.3343 29.4428 28.9827C28.7547 27.7442 27.6562 26.7651 26.331 26.2292Z"
      fill="#91BEFF"></path>
  </g>
</svg>