<svg viewBox="0 0 24 24" fill="none" xmlns="http://www.w3.org/2000/svg">


<g transform="matrix(0.5,0,0,0.5,0,0)"><g clip-path="url(#clip0_506:1959)">
<circle cx="24" cy="24" r="10" fill="#1F78F0"></circle>
<path d="M21.0216 6.53086C21.0625 5.14267 21.9609 4.0496 23.3491 4.00909C23.549 4.00326 23.7656 4 24 4C24.2344 4 24.451 4.00326 24.6509 4.00909C26.0391 4.0496 26.9375 5.14266 26.9784 6.53086C26.9914 6.97343 27 7.46759 27 8C27 8.53241 26.9914 9.02657 26.9784 9.46914C26.9375 10.8573 26.0391 11.9504 24.6509 11.9909C24.451 11.9967 24.2344 12 24 12C23.7656 12 23.549 11.9967 23.3491 11.9909C21.9609 11.9504 21.0625 10.8573 21.0216 9.46914C21.0086 9.02657 21 8.53241 21 8C21 7.46759 21.0086 6.97343 21.0216 6.53086Z" fill="#91BEFF"></path>
<path d="M21.0216 41.4691C21.0625 42.8573 21.9609 43.9504 23.3491 43.9909C23.549 43.9967 23.7656 44 24 44C24.2344 44 24.451 43.9967 24.6509 43.9909C26.0391 43.9504 26.9375 42.8573 26.9784 41.4691C26.9914 41.0266 27 40.5324 27 40C27 39.4676 26.9914 38.9734 26.9784 38.5309C26.9375 37.1427 26.0391 36.0496 24.6509 36.0091C24.451 36.0033 24.2344 36 24 36C23.7656 36 23.549 36.0033 23.3491 36.0091C21.9609 36.0496 21.0625 37.1427 21.0216 38.5309C21.0086 38.9734 21 39.4676 21 40C21 40.5324 21.0086 41.0266 21.0216 41.4691Z" fill="#91BEFF"></path>
<path d="M6.53086 26.9784C5.14267 26.9375 4.0496 26.0391 4.00909 24.6509C4.00326 24.451 4 24.2344 4 24C4 23.7656 4.00326 23.549 4.00909 23.3491C4.0496 21.9609 5.14266 21.0625 6.53086 21.0216C6.97343 21.0086 7.46759 21 8 21C8.53241 21 9.02657 21.0086 9.46914 21.0216C10.8573 21.0625 11.9504 21.9609 11.9909 23.3491C11.9967 23.549 12 23.7656 12 24C12 24.2344 11.9967 24.451 11.9909 24.6509C11.9504 26.0391 10.8573 26.9375 9.46914 26.9784C9.02657 26.9914 8.53241 27 8 27C7.46759 27 6.97343 26.9914 6.53086 26.9784Z" fill="#91BEFF"></path>
<path d="M41.4691 26.9784C42.8573 26.9375 43.9504 26.0391 43.9909 24.6509C43.9967 24.451 44 24.2344 44 24C44 23.7656 43.9967 23.549 43.9909 23.3491C43.9504 21.9609 42.8573 21.0625 41.4691 21.0216C41.0266 21.0086 40.5324 21 40 21C39.4676 21 38.9734 21.0086 38.5309 21.0216C37.1427 21.0625 36.0496 21.9609 36.0091 23.3491C36.0033 23.549 36 23.7656 36 24C36 24.2344 36.0033 24.451 36.0091 24.6509C36.0496 26.0391 37.1427 26.9375 38.5309 26.9784C38.9734 26.9914 39.4676 27 40 27C40.5324 27 41.0266 26.9914 41.4691 26.9784Z" fill="#91BEFF"></path>
<path d="M9.54146 13.7535C8.58872 12.743 8.45109 11.3348 9.40405 10.3246C9.54129 10.1791 9.69214 10.0236 9.85789 9.85787C10.0236 9.69211 10.1791 9.54127 10.3246 9.40403C11.3348 8.45107 12.743 8.58869 13.7535 9.54143C14.0756 9.84518 14.4312 10.1885 14.8076 10.565C15.1841 10.9414 15.5274 11.297 15.8312 11.6191C16.7839 12.6296 16.9215 14.0378 15.9686 15.048C15.8313 15.1935 15.6805 15.349 15.5147 15.5147C15.349 15.6805 15.1935 15.8313 15.0481 15.9686C14.0378 16.9215 12.6296 16.7839 11.6191 15.8312C11.297 15.5274 10.9415 15.1841 10.565 14.8076C10.1885 14.4311 9.8452 14.0756 9.54146 13.7535Z" fill="#91BEFF"></path>
<path d="M34.2465 38.4585C35.2569 39.4113 36.6651 39.5489 37.6754 38.5959C37.8209 38.4587 37.9763 38.3079 38.1421 38.1421C38.3078 37.9764 38.4587 37.8209 38.5959 37.6754C39.5489 36.6652 39.4112 35.257 38.4585 34.2465C38.1548 33.9244 37.8114 33.5688 37.435 33.1924C37.0585 32.8159 36.703 32.4726 36.3808 32.1688C35.3704 31.2161 33.9622 31.0785 32.9519 32.0314C32.8064 32.1687 32.651 32.3195 32.4852 32.4853C32.3195 32.651 32.1686 32.8065 32.0314 32.9519C31.0784 33.9622 31.216 35.3704 32.1688 36.3809C32.4725 36.703 32.8159 37.0585 33.1923 37.435C33.5688 37.8115 33.9243 38.1548 34.2465 38.4585Z" fill="#91BEFF"></path>
<path d="M13.7535 38.4585C12.7431 39.4113 11.3349 39.5489 10.3246 38.5959C10.1791 38.4587 10.0237 38.3079 9.85793 38.1421C9.69217 37.9764 9.54133 37.8209 9.40409 37.6754C8.45113 36.6652 8.58876 35.257 9.54149 34.2465C9.84524 33.9244 10.1886 33.5688 10.565 33.1924C10.9415 32.8159 11.297 32.4726 11.6192 32.1688C12.6296 31.2161 14.0378 31.0785 15.0481 32.0314C15.1936 32.1687 15.349 32.3195 15.5148 32.4853C15.6805 32.651 15.8314 32.8065 15.9686 32.9519C16.9216 33.9622 16.784 35.3704 15.8312 36.3809C15.5275 36.703 15.1841 37.0585 14.8077 37.435C14.4312 37.8115 14.0757 38.1548 13.7535 38.4585Z" fill="#91BEFF"></path>
<path d="M38.4585 13.7534C39.4113 12.743 39.5489 11.3348 38.5959 10.3245C38.4587 10.179 38.3079 10.0236 38.1421 9.85784C37.9764 9.69208 37.8209 9.54124 37.6754 9.404C36.6652 8.45104 35.257 8.58866 34.2465 9.5414C33.9244 9.84515 33.5688 10.1885 33.1924 10.5649C32.8159 10.9414 32.4726 11.2969 32.1688 11.6191C31.2161 12.6295 31.0785 14.0377 32.0314 15.048C32.1687 15.1935 32.3195 15.3489 32.4853 15.5147C32.651 15.6804 32.8065 15.8313 32.9519 15.9685C33.9622 16.9215 35.3704 16.7839 36.3809 15.8311C36.703 15.5274 37.0585 15.1841 37.435 14.8076C37.8115 14.4311 38.1548 14.0756 38.4585 13.7534Z" fill="#91BEFF"></path>
</g><defs>
<clipPath id="clip0_506:1959">
<rect width="48" height="48" fill="white"></rect>
</clipPath>
</defs></g></svg>