<svg viewBox="0 0 24 24" fill="none" xmlns="http://www.w3.org/2000/svg">









<g transform="matrix(0.5,0,0,0.5,0,0)"><circle cx="24" cy="24" r="10" fill="#1F78F0"></circle><path d="M21 9C21 7.27945 22.1011 6.01317 23.8216 6.00064C23.8799 6.00022 23.9393 6 24 6C24.0607 6 24.1201 6.00022 24.1784 6.00064C25.8989 6.01317 27 7.27945 27 9V9V9C27 10.7205 25.8989 11.9868 24.1784 11.9994C24.1201 11.9998 24.0607 12 24 12C23.9393 12 23.8799 11.9998 23.8216 11.9994C22.1011 11.9868 21 10.7205 21 9V9V9Z" fill="#91BEFF"></path><path d="M21 39C21 40.7205 22.1011 41.9868 23.8216 41.9994C23.8799 41.9998 23.9393 42 24 42C24.0607 42 24.1201 41.9998 24.1784 41.9994C25.8989 41.9868 27 40.7205 27 39V39V39C27 37.2795 25.8989 36.0132 24.1784 36.0006C24.1201 36.0002 24.0607 36 24 36C23.9393 36 23.8799 36.0002 23.8216 36.0006C22.1011 36.0132 21 37.2795 21 39V39V39Z" fill="#91BEFF"></path><path d="M32.4851 11.2721C33.7017 10.0555 35.3757 9.93865 36.6012 11.1464C36.6427 11.1873 36.6849 11.2292 36.7278 11.2721C36.7707 11.315 36.8125 11.3572 36.8535 11.3987C38.0612 12.6241 37.9444 14.2981 36.7278 15.5147V15.5147V15.5147C35.5112 16.7313 33.8372 16.8481 32.6117 15.6404C32.5702 15.5995 32.528 15.5576 32.4851 15.5147C32.4422 15.4718 32.4003 15.4296 32.3594 15.3881C31.1517 14.1627 31.2685 12.4887 32.4851 11.2721V11.2721V11.2721Z" fill="#91BEFF"></path><path d="M11.2722 32.4853C10.0556 33.7019 9.93877 35.3759 11.1465 36.6013C11.1874 36.6429 11.2293 36.6851 11.2722 36.7279C11.3151 36.7708 11.3573 36.8127 11.3988 36.8536C12.6242 38.0614 14.2982 37.9446 15.5148 36.7279V36.7279V36.7279C16.7315 35.5113 16.8483 33.8374 15.6405 32.6119C15.5996 32.5704 15.5577 32.5282 15.5148 32.4853C15.4719 32.4424 15.4297 32.4005 15.3882 32.3596C14.1628 31.1519 12.4888 31.2687 11.2722 32.4853V32.4853V32.4853Z" fill="#91BEFF"></path><path d="M9 27C7.27945 27 6.01317 25.8989 6.00064 24.1784C6.00022 24.1201 6 24.0607 6 24C6 23.9393 6.00022 23.8799 6.00064 23.8216C6.01317 22.1011 7.27945 21 9 21V21V21C10.7205 21 11.9868 22.1011 11.9994 23.8216C11.9998 23.8799 12 23.9393 12 24C12 24.0607 11.9998 24.1201 11.9994 24.1784C11.9868 25.8989 10.7205 27 9 27V27V27Z" fill="#91BEFF"></path><path d="M39 27C40.7205 27 41.9868 25.8989 41.9994 24.1784C41.9998 24.1201 42 24.0607 42 24C42 23.9393 41.9998 23.8799 41.9994 23.8216C41.9868 22.1011 40.7205 21 39 21V21V21C37.2794 21 36.0132 22.1011 36.0006 23.8216C36.0002 23.8799 36 23.9393 36 24C36 24.0607 36.0002 24.1201 36.0006 24.1784C36.0132 25.8989 37.2795 27 39 27V27V27Z" fill="#91BEFF"></path><path d="M11.2722 15.5147C10.0556 14.2981 9.93877 12.6241 11.1465 11.3987C11.1874 11.3571 11.2293 11.3149 11.2722 11.2721C11.3151 11.2292 11.3573 11.1873 11.3988 11.1464C12.6242 9.93863 14.2982 10.0554 15.5148 11.2721V11.2721V11.2721C16.7315 12.4887 16.8483 14.1626 15.6405 15.3881C15.5996 15.4296 15.5577 15.4718 15.5148 15.5147C15.4719 15.5576 15.4297 15.5995 15.3882 15.6404C14.1628 16.8481 12.4888 16.7313 11.2722 15.5147V15.5147V15.5147Z" fill="#91BEFF"></path><path d="M32.4851 36.7279C33.7017 37.9445 35.3757 38.0613 36.6012 36.8536C36.6427 36.8127 36.6849 36.7708 36.7278 36.7279C36.7707 36.685 36.8125 36.6428 36.8535 36.6013C38.0612 35.3759 37.9444 33.7019 36.7278 32.4853V32.4853V32.4853C35.5112 31.2687 33.8372 31.1519 32.6117 32.3596C32.5702 32.4005 32.528 32.4424 32.4851 32.4853C32.4422 32.5282 32.4003 32.5704 32.3594 32.6119C31.1517 33.8373 31.2685 35.5113 32.4851 36.7279V36.7279V36.7279Z" fill="#91BEFF"></path></g></svg>