<svg viewBox="0 0 24 24" fill="none" xmlns="http://www.w3.org/2000/svg">


<g transform="matrix(0.5,0,0,0.5,0,0)"><path d="M4 15C4 8.65649 8.53806 4.42 14.8764 4.16449C17.3325 4.06548 20.3403 4 24 4C27.6597 4 30.6675 4.06548 33.1236 4.16449C39.4619 4.42 44 8.65649 44 15V15V15C44 21.3435 39.4619 25.58 33.1236 25.8355C30.6675 25.9345 27.6597 26 24 26C20.3403 26 17.3325 25.9345 14.8764 25.8355C8.53807 25.58 4 21.3435 4 15V15V15Z" fill="#1F78F0"></path><path d="M21.616 18.3186C21.6862 17.2595 22.3184 16.2786 23.3609 16.0787C23.6102 16.0308 23.8682 16 24.119 16C24.3803 16 24.6494 16.0335 24.9084 16.0847C25.9328 16.2876 26.5617 17.2454 26.6535 18.2856C26.8298 20.2847 27.0952 23.5655 27.0952 25.2045C27.0952 25.2045 30.756 25.2045 34.3449 26.2307C36.6333 26.885 38.0491 29.0261 37.9917 31.4055C37.9364 33.6992 37.5852 36.8155 36.3987 40.0871C35.8542 41.5885 34.5636 42.6481 32.975 42.8132C31.9708 42.9176 30.6256 43 28.881 43C27.3441 43 26.1173 42.9361 25.1605 42.8495C23.281 42.6795 21.6336 41.6923 20.3851 40.2772C17.9131 37.4756 15.9288 34.756 14.8612 33.2245C14.2873 32.401 14.0634 30.5587 14.6015 29.7114V29.7114C15.6733 28.0238 17.381 28.8439 18.975 30.0505C20.363 31.1012 21.1429 31.8669 21.1429 31.8669C21.1429 26.2751 21.4419 20.9476 21.616 18.3186Z" fill="#91BEFF"></path></g></svg>