<svg viewBox="0 0 24 24" fill="none" xmlns="http://www.w3.org/2000/svg">


<g transform="matrix(0.5,0,0,0.5,0,0)"><path d="M4.56198 39.315C4.73932 41.0322 5.86521 42.3915 7.55375 42.751C10.219 43.3184 15.2432 44 24 44C32.7568 44 37.781 43.3184 40.4463 42.751C42.1348 42.3915 43.2607 41.0322 43.438 39.315C43.701 36.7688 44 32.0939 44 24C44 15.9061 43.701 11.2312 43.438 8.68502C43.2607 6.96777 42.1348 5.60848 40.4462 5.24901C37.781 4.68162 32.7568 4 24 4C15.2432 4 10.219 4.68162 7.55375 5.24901C5.86521 5.60848 4.73932 6.96777 4.56198 8.68502C4.29904 11.2312 4 15.9061 4 24C4 32.0939 4.29904 36.7688 4.56198 39.315Z" fill="#91BEFF"></path><path fill-rule="evenodd" clip-rule="evenodd" d="M27.9358 27.6806C30.5534 26.2754 32.3334 23.5122 32.3334 20.3333C32.3334 15.731 28.6025 12 24.0001 12C19.3977 12 15.6667 15.731 15.6667 20.3333C15.6667 23.5122 17.4467 26.2754 20.0643 27.6805C16.3224 29.0212 13.4647 32.2193 12.6025 36.1637C12.4915 36.6713 12.7757 37.1903 13.2873 37.281C15.2966 37.6372 18.6549 38 23.9999 38C29.3449 38 32.7032 37.6372 34.7124 37.281C35.2242 37.1903 35.5085 36.6711 35.3975 36.1634C34.5352 32.2192 31.6776 29.0212 27.9358 27.6806Z" fill="#1F78F0"></path></g></svg>