<svg viewBox="0 0 24 24" fill="none" xmlns="http://www.w3.org/2000/svg">


<g transform="matrix(0.5,0,0,0.5,0,0)"><circle cx="24" cy="24" r="21" fill="#91BEFF"></circle><path fill-rule="evenodd" clip-rule="evenodd" d="M18 44.1304V39.3693C18 37.7794 17.029 36.38 15.7051 35.4997C11.6636 32.8124 9 28.2172 9 23C9 17.5779 11.8768 12.8278 16.1874 10.1927C17.3827 9.46194 18.7804 10.4293 18.7781 11.8303C18.7731 15.0467 18.8175 18.2964 18.9621 20.8203C18.9849 21.2188 19.1293 21.5994 19.4002 21.8927C20.0562 22.6029 21.4795 23.9654 23.3761 24.7645C23.7749 24.9325 24.2251 24.9325 24.6239 24.7645C26.4722 23.9858 27.8709 22.672 28.5481 21.9482C28.8523 21.6232 29 21.1896 29 20.7445V11.6817C29 10.3014 30.3701 9.34576 31.5616 10.0426C36.0111 12.6448 39 17.4734 39 23C39 28.2172 36.3364 32.8124 32.2949 35.4997C30.971 36.38 30 37.7794 30 39.3693V44.1304C28.0989 44.6962 26.0849 45 24 45C21.9151 45 19.9011 44.6962 18 44.1304Z" fill="#1F78F0"></path></g></svg>