<svg viewBox="0 0 24 24" fill="none" xmlns="http://www.w3.org/2000/svg">





<g transform="matrix(0.5,0,0,0.5,0,0)"><path fill-rule="evenodd" clip-rule="evenodd" d="M20.3113 3.77532C20.0933 3.90639 19.9487 4.11921 19.8521 4.35457C19.4613 5.30592 18.4041 7.97954 18 10H30C29.5959 7.97954 28.5387 5.30592 28.1479 4.35457C28.0513 4.11921 27.9067 3.90639 27.6887 3.77533C27.198 3.48047 26.0795 3 24 3C21.9205 3 20.802 3.48047 20.3113 3.77532ZM20.3113 44.2247C20.0933 44.0936 19.9487 43.8808 19.8521 43.6454C19.4613 42.6941 18.4041 40.0205 18 38H30C29.5959 40.0205 28.5387 42.6941 28.1479 43.6454C28.0513 43.8808 27.9067 44.0936 27.6887 44.2247C27.198 44.5195 26.0795 45 24 45C21.9205 45 20.802 44.5195 20.3113 44.2247Z" fill="#91BEFF"></path><path fill-rule="evenodd" clip-rule="evenodd" d="M4.6406 17.082C4.64506 17.3364 4.75711 17.568 4.91261 17.7694C5.54113 18.5834 7.32793 20.8359 8.87565 22.196L14.8757 11.8037C12.9238 11.1435 10.0798 10.7223 9.06053 10.585C8.80837 10.551 8.5518 10.5697 8.32926 10.6931C7.82858 10.9706 6.85322 11.699 5.81348 13.4999C4.77374 15.3008 4.63057 16.5097 4.6406 17.082ZM39.6708 37.3067C39.4482 37.43 39.1916 37.4488 38.9395 37.4148C37.9202 37.2775 35.0762 36.8563 33.1244 36.196L39.1244 25.8037C40.6721 27.1639 42.4589 29.4163 43.0874 30.2304C43.2429 30.4318 43.355 30.6634 43.3594 30.9178C43.3695 31.4901 43.2263 32.699 42.1865 34.4999C41.1468 36.3008 40.1714 37.0292 39.6708 37.3067Z" fill="#91BEFF"></path><path fill-rule="evenodd" clip-rule="evenodd" d="M8.32926 37.3067C8.5518 37.43 8.80837 37.4488 9.06053 37.4148C10.0798 37.2775 12.9238 36.8563 14.8757 36.196L8.87565 25.8037C7.32793 27.1639 5.54113 29.4163 4.91261 30.2304C4.75711 30.4318 4.64506 30.6634 4.6406 30.9178C4.63057 31.4901 4.77374 32.699 5.81348 34.4999C6.85321 36.3008 7.82858 37.0292 8.32926 37.3067ZM43.3594 17.082C43.355 17.3364 43.2429 17.568 43.0874 17.7694C42.4589 18.5834 40.6721 20.8359 39.1244 22.196L33.1244 11.8037C35.0762 11.1435 37.9202 10.7223 38.9395 10.585C39.1916 10.551 39.4482 10.5697 39.6708 10.6931C40.1714 10.9706 41.1468 11.699 42.1865 13.4999C43.2263 15.3008 43.3695 16.5097 43.3594 17.082Z" fill="#91BEFF"></path><path d="M40 24C40 32.8366 32.8366 40 24 40C15.1634 40 8 32.8366 8 24C8 15.1634 15.1634 8 24 8C32.8366 8 40 15.1634 40 24Z" fill="#91BEFF"></path><path d="M32 24C32 28.4183 28.4183 32 24 32C19.5817 32 16 28.4183 16 24C16 19.5817 19.5817 16 24 16C28.4183 16 32 19.5817 32 24Z" fill="#1F78F0"></path></g></svg>