<svg viewBox="0 0 24 24" fill="none" xmlns="http://www.w3.org/2000/svg">






<g transform="matrix(0.5,0,0,0.5,0,0)"><path fill-rule="evenodd" clip-rule="evenodd" d="M21.2024 3.31887C21.0352 3.40002 20.9744 3.58895 20.9271 3.76865C20.6968 4.64304 20 7.49573 20 10H28C28 7.49573 27.3032 4.64304 27.0729 3.76865C27.0256 3.58895 26.9648 3.40002 26.7976 3.31887C26.5028 3.17576 25.7787 3 24 3C22.2213 3 21.4972 3.17576 21.2024 3.31887ZM26.7976 44.6811C26.9648 44.6 27.0256 44.411 27.0729 44.2313C27.3032 43.357 28 40.5043 28 38H20C20 40.5043 20.6968 43.357 20.9271 44.2313C20.9744 44.411 21.0352 44.6 21.2024 44.6811C21.4972 44.8242 22.2213 45 24 45C25.7787 45 26.5028 44.8242 26.7976 44.6811Z" fill="#1F78F0"></path><path fill-rule="evenodd" clip-rule="evenodd" d="M44.6811 20.2024C44.6 20.0352 44.411 19.9744 44.2313 19.9271C43.357 19.6968 40.5043 19 38 19L38 27C40.5043 27 43.357 26.3032 44.2313 26.0729C44.4111 26.0256 44.6 25.9648 44.6811 25.7976C44.8242 25.5028 45 24.7787 45 23C45 21.2213 44.8242 20.4972 44.6811 20.2024ZM3.31887 25.7976C3.40002 25.9648 3.58895 26.0256 3.76865 26.0729C4.64304 26.3032 7.49573 27 10 27L10 19C7.49573 19 4.64304 19.6968 3.76865 19.9271C3.58895 19.9744 3.40002 20.0352 3.31887 20.2024C3.17576 20.4972 3 21.2213 3 23C3 24.7787 3.17576 25.5028 3.31887 25.7976Z" fill="#1F78F0"></path><path d="M6 24C6 33.9411 14.0589 42 24 42C33.9411 42 42 33.9411 42 24C42 14.0589 33.9411 6 24 6C14.0589 6 6 14.0589 6 24Z" fill="#1F78F0"></path><path d="M11 24C11 31.1797 16.8203 37 24 37C31.1797 37 37 31.1797 37 24C37 16.8203 31.1797 11 24 11C16.8203 11 11 16.8203 11 24Z" fill="#91BEFF"></path><circle cx="24" cy="24" r="10" fill="#91BEFF"></circle><path fill-rule="evenodd" clip-rule="evenodd" d="M26.914 26.7865C28.4992 25.8081 29.5556 24.0552 29.5556 22.0556C29.5556 18.9873 27.0683 16.5 24.0001 16.5C20.9318 16.5 18.4445 18.9873 18.4445 22.0556C18.4445 24.0552 19.501 25.8081 21.0862 26.7866C19.378 27.4773 17.9712 28.7571 17.1175 30.3742C16.9297 30.7299 17.0124 31.1646 17.3113 31.4337C19.0831 33.029 21.4283 33.9999 24.0002 33.9999C26.5721 33.9999 28.9172 33.029 30.689 31.4337C30.9879 31.1646 31.0706 30.7299 30.8828 30.3742C30.0291 28.7571 28.6222 27.4772 26.914 26.7865Z" fill="#1F78F0"></path></g></svg>