<svg viewBox="0 0 24 24" fill="none" xmlns="http://www.w3.org/2000/svg">


<g transform="matrix(0.5,0,0,0.5,0,0)"><path fill-rule="evenodd" clip-rule="evenodd" d="M3.4336 21.2501C2.63395 22.1488 2.99678 23.3715 4.17294 23.6238C5.09393 23.8213 6.35989 24.0417 8.06532 24.2473C8.02477 25.6041 8.00004 27.1784 8.00004 29C8.00004 33.8567 8.17583 36.9548 8.35853 38.8632C8.52615 40.614 9.72103 41.9477 11.4566 42.233C13.7128 42.6038 17.6168 43 24 43C30.3833 43 34.2873 42.6038 36.5435 42.233C38.2791 41.9477 39.4739 40.614 39.6416 38.8632C39.8243 36.9548 40 33.8567 40 29C40 27.1784 39.9753 25.6043 39.9348 24.2475C41.6404 24.0419 42.9066 23.8215 43.8278 23.6239C45.0042 23.3717 45.3671 22.1485 44.5672 21.2498C43.1636 19.6728 40.5539 16.9844 36.0008 13.0001C30.728 8.38613 27.1926 6.37893 25.3951 5.54666C24.5013 5.13283 23.5003 5.13289 22.6065 5.5468C20.8092 6.37915 17.2742 8.38638 12.0008 13.0001C7.44646 16.9847 4.8368 19.6733 3.4336 21.2501Z" fill="#91BEFF"></path><path fill-rule="evenodd" clip-rule="evenodd" d="M27.5094 29.2683C29.8474 28.0793 31.4372 25.7412 31.4372 23.0513C31.4372 19.157 28.1048 16 23.9941 16C19.8834 16 16.551 19.157 16.551 23.0513C16.551 25.7411 18.1407 28.0791 20.4785 29.2681C17.2787 30.3542 14.8029 32.8809 13.9218 36.0231C13.7428 36.6619 14.0899 37.3414 14.7454 37.4434C16.5691 37.7272 19.4927 38 23.9933 38C28.4939 38 31.4175 37.7272 33.2412 37.4434C33.8972 37.3413 34.2445 36.6612 34.0653 36.0221C33.184 32.8805 30.7086 30.3543 27.5094 29.2683Z" fill="#1F78F0"></path></g></svg>