<svg viewBox="0 0 24 24" fill="none" xmlns="http://www.w3.org/2000/svg">


<g transform="matrix(0.5,0,0,0.5,0,0)"><circle cx="24" cy="24" r="21" fill="#91BEFF"></circle><path fill-rule="evenodd" clip-rule="evenodd" d="M4.83745 32.6034C6.05896 29.638 8.59894 27.3548 11.7273 26.4837C9.66525 25.4485 8.25008 23.3145 8.25008 20.8499C8.25008 17.3706 11.0707 14.5499 14.5501 14.5499C18.0295 14.5499 20.8501 17.3706 20.8501 20.8499C20.8501 23.3145 19.4349 25.4485 17.3728 26.4837C20.2919 27.2965 22.6987 29.3388 24 32.0175C25.3014 29.3388 27.7081 27.2965 30.6272 26.4837C28.5651 25.4485 27.15 23.3145 27.15 20.8499C27.15 17.3706 29.9706 14.5499 33.4499 14.5499C36.9293 14.5499 39.75 17.3706 39.75 20.8499C39.75 23.3145 38.3348 25.4485 36.2727 26.4837C39.401 27.3548 41.9409 29.6379 43.1625 32.6031C39.8764 39.9113 32.5324 45 23.9999 45C15.4675 45 8.1236 39.9114 4.83745 32.6034Z" fill="#1F78F0"></path></g></svg>