<svg viewBox="0 0 24 24" fill="none" xmlns="http://www.w3.org/2000/svg">



<g transform="matrix(0.5,0,0,0.5,0,0)"><path fill-rule="evenodd" clip-rule="evenodd" d="M4.11933 25.4337C3.68809 24.5266 3.68809 23.4734 4.11933 22.5663C7.65128 15.1364 15.2257 10 23.9998 10C32.7738 10 40.3482 15.1364 43.8802 22.5663C44.3114 23.4734 44.3114 24.5266 43.8802 25.4337C40.3482 32.8636 32.7738 38 23.9998 38C15.2257 38 7.65128 32.8636 4.11933 25.4337Z" fill="#91BEFF"></path><path fill-rule="evenodd" clip-rule="evenodd" d="M24 33C28.9706 33 33 28.9706 33 24C33 22.6783 32.7151 21.4231 32.2034 20.2926C32.109 20.0842 31.7953 20.1152 31.6945 20.3205C31.206 21.3153 30.183 22 29 22C27.3431 22 26 20.6569 26 19C26 17.817 26.6847 16.794 27.6795 16.3055C27.8848 16.2047 27.9158 15.891 27.7074 15.7967C26.5769 15.2849 25.3217 15 24 15C19.0294 15 15 19.0294 15 24C15 28.9706 19.0294 33 24 33Z" fill="#91BEFF"></path><path d="M6.69588 37.5223C6.16549 38.064 5.80163 38.7726 6.07718 39.4789C6.28198 40.0038 6.6867 40.6867 7.47487 41.4749C8.26305 42.2631 8.94595 42.6678 9.47085 42.8726C10.1771 43.1481 10.8857 42.7843 11.4274 42.2539C14.0465 39.6895 22.2791 31.6204 26.9203 26.9792C31.5615 22.338 39.6306 14.1053 42.195 11.4863C42.7254 10.9446 43.0892 10.236 42.8137 9.52973C42.6089 9.00482 42.2042 8.32193 41.416 7.53375C40.6278 6.74557 39.9449 6.34085 39.42 6.13606C38.7138 5.8605 38.0051 6.22436 37.4634 6.75475C34.8444 9.31916 26.6118 17.3882 21.9706 22.0294C17.3293 26.6707 9.26029 34.9033 6.69588 37.5223Z" fill="#1F78F0"></path></g></svg>