<svg viewBox="0 0 24 24" fill="none" xmlns="http://www.w3.org/2000/svg">



<g transform="matrix(0.5,0,0,0.5,0,0)"><path fill-rule="evenodd" clip-rule="evenodd" d="M3.4336 21.2501C2.63395 22.1488 2.99678 23.3715 4.17294 23.6238C5.09393 23.8213 6.35989 24.0417 8.06532 24.2473C8.02477 25.6041 8.00004 27.1784 8.00004 29C8.00004 33.8567 8.17583 36.9548 8.35853 38.8632C8.52615 40.614 9.72103 41.9477 11.4566 42.233C13.7128 42.6038 17.6168 43 24 43C30.3833 43 34.2873 42.6038 36.5435 42.233C38.2791 41.9477 39.4739 40.614 39.6416 38.8632C39.8243 36.9548 40 33.8567 40 29C40 27.1784 39.9753 25.6043 39.9348 24.2475C41.6404 24.0419 42.9066 23.8215 43.8278 23.6239C45.0042 23.3717 45.3671 22.1485 44.5672 21.2498C43.1636 19.6728 40.5539 16.9844 36.0008 13.0001C30.728 8.38613 27.1926 6.37893 25.3951 5.54666C24.5013 5.13283 23.5003 5.13289 22.6065 5.5468C20.8092 6.37915 17.2742 8.38638 12.0008 13.0001C7.44646 16.9847 4.8368 19.6733 3.4336 21.2501Z" fill="#91BEFF"></path><path fill-rule="evenodd" clip-rule="evenodd" d="M22.861 17.0758C21.5277 17.0758 20.3544 17.9558 19.981 19.2358L19.483 20.9432C17.8761 20.9746 16.65 21.0207 15.7279 21.0686C14.1956 21.1482 13.018 22.2246 12.891 23.7537C12.7827 25.0572 12.6902 26.9626 12.6902 29.6692C12.6902 32.6112 12.7995 34.6811 12.9196 36.0676C13.0466 37.534 14.1283 38.6135 15.5951 38.7348C17.2308 38.8701 19.8749 38.9999 24.0001 38.9999C28.1254 38.9999 30.7695 38.8701 32.4051 38.7348C33.872 38.6135 34.9536 37.534 35.0807 36.0676C35.2008 34.6811 35.31 32.6112 35.31 29.6692C35.31 26.9626 35.2176 25.0572 35.1092 23.7537C34.9822 22.2246 33.8046 21.1482 32.2723 21.0686C31.3502 21.0207 30.1241 20.9746 28.517 20.9432L28.019 19.2358C27.6457 17.9558 26.4723 17.0758 25.139 17.0758H22.861ZM26.4251 20.9138L26.099 19.7958C25.9746 19.3691 25.5835 19.0758 25.139 19.0758H22.861C22.4166 19.0758 22.0255 19.3691 21.901 19.7958L21.575 20.9138C22.32 20.907 23.1269 20.9032 24.0001 20.9032C24.8733 20.9032 25.6801 20.907 26.4251 20.9138Z" fill="#1F78F0"></path><path fill-rule="evenodd" clip-rule="evenodd" d="M35.2664 26.6522C35.228 26.6682 35.1888 26.6844 35.149 26.7009C34.252 27.0721 33.016 27.5664 31.6584 28.0601C30.2987 28.5546 28.8287 29.044 27.4612 29.4087C26.0759 29.7781 24.8658 29.9999 24.0001 29.9999C23.1344 29.9999 21.9243 29.7781 20.539 29.4087C19.1715 29.044 17.7016 28.5546 16.3419 28.0601C14.9842 27.5664 13.7482 27.0721 12.8512 26.7009C12.8115 26.6844 12.7724 26.6683 12.734 26.6523C12.714 27.2958 12.6997 28.0089 12.6936 28.7976C13.5273 29.1357 14.5524 29.5375 15.6584 29.9397C17.0487 30.4453 18.5787 30.9558 20.0237 31.3411C20.6945 31.52 21.3626 31.6763 22.0001 31.7917V32.9999C22.0001 33.5522 22.4478 33.9999 23.0001 33.9999H25.0001C25.5524 33.9999 26.0001 33.5522 26.0001 32.9999V31.7917C26.6376 31.6763 27.3057 31.52 27.9765 31.3411C29.4215 30.9558 30.9516 30.4453 32.3419 29.9397C33.448 29.5375 34.4731 29.1357 35.3068 28.7975C35.3007 28.0088 35.2865 27.2957 35.2664 26.6522Z" fill="#91BEFF"></path></g></svg>