<svg viewBox="0 0 24 24" fill="none" xmlns="http://www.w3.org/2000/svg">
  <g transform="matrix(0.5,0,0,0.5,0,0)">
    <path
      d="M40 22H8C8 22 8.64741 15.16 10.4947 8.29036C11.079 6.11749 12.9552 4.57914 15.1967 4.3838C17.4129 4.19068 20.4899 4 24 4C27.5101 4 30.5871 4.19068 32.8033 4.3838C35.0448 4.57914 36.921 6.11749 37.5053 8.29035C39.3526 15.16 40 22 40 22Z"
      fill="#1F78F0"></path>
    <path fill-rule="evenodd" clip-rule="evenodd"
      d="M39.9807 21.8085C36.8336 21.9056 31.7743 22 24 22C16.2257 22 11.1664 21.9056 8.01926 21.8085C8.09987 21.031 8.44012 17.9702 9.16437 14.1588C12.3483 14.0742 17.1069 14 24 14C30.8931 14 35.6517 14.0742 38.8356 14.1588C39.5599 17.9702 39.9001 21.031 39.9807 21.8085Z"
      fill="#91BEFF"></path>
    <path
      d="M3.04951 22.0629C3.15967 23.1517 4.11329 23.7369 5.20689 23.7759C7.70036 23.8648 13.2588 24 24 24C34.7412 24 40.2996 23.8648 42.7931 23.7759C43.8867 23.7369 44.8403 23.1517 44.9505 22.0629C44.981 21.7611 45 21.409 45 21C45 20.591 44.981 20.2389 44.9505 19.9371C44.8403 18.8483 43.8867 18.2631 42.7931 18.2241C40.2996 18.1352 34.7412 18 24 18C13.2588 18 7.70037 18.1352 5.20689 18.2241C4.11329 18.2631 3.15967 18.8483 3.04951 19.9371C3.01896 20.2389 3 20.591 3 21C3 21.409 3.01896 21.7611 3.04951 22.0629Z"
      fill="#1F78F0"></path>
    <circle cx="14" cy="34" r="8" fill="#1F78F0"></circle>
    <circle cx="14" cy="34" r="5" fill="#91BEFF"></circle>
    <circle cx="34" cy="34" r="8" transform="rotate(90 34 34)" fill="#1F78F0"></circle>
    <circle cx="34" cy="34" r="5" transform="rotate(90 34 34)" fill="#91BEFF"></circle>
    <path fill-rule="evenodd" clip-rule="evenodd"
      d="M20 31.0703V35H20.6458C21.4698 34.0794 22.6673 33.5 24 33.5C25.3327 33.5 26.5302 34.0794 27.3542 35H28V31.0703C26.8233 30.3896 25.4571 30 24 30C22.5429 30 21.1767 30.3896 20 31.0703Z"
      fill="#1F78F0"></path>
  </g>
</svg>