<svg viewBox="0 0 24 24" fill="none" xmlns="http://www.w3.org/2000/svg">



<g transform="matrix(0.5,0,0,0.5,0,0)"><path d="M4.48948 12.3479C4.68869 10.5885 5.92095 9.2718 7.66737 8.98005C10.3608 8.5301 15.3661 8 24 8C32.6339 8 37.6392 8.5301 40.3326 8.98005C42.079 9.2718 43.3113 10.5885 43.5105 12.3479C43.753 14.489 44 18.1147 44 24C44 29.8853 43.753 33.511 43.5105 35.6521C43.3113 37.4115 42.0791 38.7282 40.3326 39.02C37.6392 39.4699 32.6339 40 24 40C15.3661 40 10.3608 39.4699 7.66737 39.02C5.92095 38.7282 4.68869 37.4115 4.48948 35.6521C4.24704 33.511 4 29.8853 4 24C4 18.1147 4.24704 14.489 4.48948 12.3479Z" fill="#91BEFF"></path><path fill-rule="evenodd" clip-rule="evenodd" d="M43.8061 16C43.9199 18.0292 44 20.6481 44 24H4C4 20.6481 4.08013 18.0292 4.19391 16H43.8061Z" fill="#1F78F0"></path><path d="M30 32C30 30.8954 30.8954 30 32 30H36C37.1046 30 38 30.8954 38 32V32C38 33.1046 37.1046 34 36 34H32C30.8954 34 30 33.1046 30 32V32Z" fill="#1F78F0"></path></g></svg>