<svg viewBox="0 0 24 24" fill="none" xmlns="http://www.w3.org/2000/svg">




<g transform="matrix(0.5,0,0,0.5,0,0)"><path d="M4.38753 11.1919C4.56821 9.40944 5.79277 8.05252 7.56249 7.77317C9.923 7.40056 14.0718 7 21 7C27.9282 7 32.077 7.40056 34.4375 7.77317C36.2072 8.05251 37.4318 9.40944 37.6125 11.1919C37.8089 13.1303 38 16.2391 38 21C38 25.7609 37.8089 28.8697 37.6125 30.8081C37.4318 32.5906 36.2072 33.9475 34.4375 34.2268C32.077 34.5994 27.9282 35 21 35C14.0718 35 9.92301 34.5994 7.56249 34.2268C5.79278 33.9475 4.56821 32.5906 4.38753 30.8081C4.19105 28.8697 4 25.7609 4 21C4 16.2391 4.19105 13.1303 4.38753 11.1919Z" fill="#1F78F0"></path><path d="M8.42238 15.2463C8.60625 13.4896 9.82174 12.1629 11.5642 11.874C14.0457 11.4626 18.5028 11 26 11C33.4972 11 37.9543 11.4626 40.4358 11.874C42.1783 12.1629 43.3937 13.4896 43.5776 15.2463C43.7898 17.2736 44 20.6355 44 26C44 31.3645 43.7898 34.7264 43.5776 36.7537C43.3937 38.5104 42.1783 39.8371 40.4358 40.126C37.9543 40.5374 33.4972 41 26 41C18.5028 41 14.0457 40.5374 11.5642 40.126C9.82174 39.8371 8.60625 38.5104 8.42238 36.7537C8.21017 34.7264 8 31.3645 8 26C8 20.6355 8.21017 17.2736 8.42238 15.2463Z" fill="#91BEFF"></path><path fill-rule="evenodd" clip-rule="evenodd" d="M8.0025 27C8.00085 26.6747 8 26.3414 8 26C8 23.1262 8.06032 20.8271 8.14895 19H43.851C43.9397 20.8271 44 23.1262 44 26C44 26.3414 43.9991 26.6747 43.9975 27H8.0025Z" fill="#1F78F0"></path><rect x="31" y="31" width="8" height="4" rx="2" fill="#1F78F0"></rect></g></svg>