<svg viewBox="0 0 24 24" fill="none" xmlns="http://www.w3.org/2000/svg">


<g transform="matrix(0.5,0,0,0.5,0,0)"><g clip-path="url(#clip0_589:2357)">
<path d="M2.49964 13.5607C2.71737 11.7633 4.00385 10.4312 5.7941 10.1608C8.58311 9.7397 13.8137 9.24524 23 9.24524C32.1863 9.24524 37.4169 9.7397 40.2059 10.1608C41.9961 10.4312 43.2826 11.7633 43.5004 13.5607C43.7502 15.6235 44 18.9978 44 24.2452C44 29.4927 43.7502 32.867 43.5004 34.9297C43.2826 36.7271 41.9962 38.0593 40.2059 38.3296C37.4169 38.7508 32.1863 39.2452 23 39.2452C13.8137 39.2452 8.58311 38.7508 5.7941 38.3296C4.00385 38.0593 2.71737 36.7272 2.49964 34.9297C2.24976 32.867 2 29.4927 2 24.2452C2 18.9978 2.24976 15.6235 2.49964 13.5607Z" fill="#91BEFF"></path>
<path d="M45.5218 11.7741C46.0358 10.8838 46.0676 9.77742 45.3974 8.99793C44.9348 8.45996 44.3074 7.86214 43.524 7.40983C42.7406 6.95753 41.9091 6.71306 41.2119 6.58146C40.2017 6.39079 39.2595 6.97157 38.7455 7.86184L30.4113 22.2971C29.8809 23.2158 29.7372 24.3076 30.0117 25.3323L30.4973 27.1443C30.7831 28.2113 31.8798 28.8444 32.9468 28.5585L34.7587 28.073C35.7834 27.7985 36.6571 27.1281 37.1875 26.2093L45.5218 11.7741Z" fill="#1F78F0"></path>
<path d="M12.6112 24.7672C13.2333 24.7672 13.6825 24.6501 13.959 24.4159C14.2469 24.1817 14.3909 23.8948 14.3909 23.5552C14.3909 23.2507 14.2815 23.0048 14.0626 22.8174C13.8438 22.63 13.5155 22.4661 13.0778 22.3255L12.1274 22.0094C11.6551 21.8571 11.2289 21.6932 10.8488 21.5175C10.4687 21.3419 10.1461 21.1311 9.88121 20.8851C9.61627 20.6392 9.40893 20.3465 9.25918 20.0068C9.10943 19.6672 9.03456 19.2632 9.03456 18.7948C9.03456 17.9985 9.27646 17.3368 9.76026 16.8099C10.2441 16.2829 10.9352 15.9316 11.8337 15.7559V15.346C11.8337 14.7709 12.2261 14.2452 12.8013 14.2452V14.2452C13.2275 14.2452 13.5328 14.3214 13.7171 14.4736C13.9129 14.6258 14.0108 14.901 14.0108 15.2992V15.6856C14.748 15.7676 15.347 15.9491 15.8078 16.2302C16.2685 16.4995 16.4989 16.8567 16.4989 17.3017C16.4989 17.3635 16.4944 17.4238 16.4856 17.4826C16.3823 18.1768 15.463 18.1627 14.7883 17.9692V17.9692C14.3506 17.8287 13.8726 17.7584 13.3542 17.7584C12.7783 17.7584 12.3463 17.858 12.0583 18.057C11.7819 18.2444 11.6436 18.4903 11.6436 18.7948C11.6436 19.0407 11.7358 19.2398 11.9201 19.392C12.1159 19.5443 12.4096 19.6848 12.8013 19.8136L13.7689 20.1122C14.8056 20.4401 15.6004 20.8734 16.1533 21.4121C16.7178 21.9508 17 22.6769 17 23.5903C17 24.3983 16.7466 25.0834 16.2397 25.6455C15.7329 26.1959 14.9899 26.5648 14.0108 26.7521V27.1444C14.0108 27.7196 13.6184 28.2452 13.0432 28.2452V28.2452C12.617 28.2452 12.306 28.1691 12.1102 28.0169C11.9258 27.8646 11.8337 27.5894 11.8337 27.1913V26.84C10.9928 26.7463 10.3074 26.5413 9.77754 26.2252C9.25918 25.8973 9 25.4874 9 24.9956C9 24.9274 9.00557 24.8615 9.01618 24.7976C9.14988 23.9932 10.2424 24.1362 10.987 24.4686V24.4686C11.4593 24.6677 12.0007 24.7672 12.6112 24.7672Z" fill="#1F78F0"></path>
<path fill-rule="evenodd" clip-rule="evenodd" d="M23.4586 31.9372C22.7866 32.5004 22.1786 33.2589 21.8335 33.7792C21.5283 34.2395 20.9078 34.3652 20.4475 34.06C19.9872 33.7548 19.8615 33.1342 20.1667 32.674C20.5864 32.0411 21.3165 31.123 22.1739 30.4044C22.6033 30.0445 23.0996 29.7049 23.636 29.4878C24.1748 29.2698 24.8149 29.1523 25.4742 29.3358C25.8433 29.4386 26.1784 29.6124 26.4471 29.8794C26.7183 30.1489 26.8711 30.463 26.9502 30.7658C27.087 31.2894 27.0105 31.8431 26.9669 32.1584C26.9666 32.1606 26.9663 32.1628 26.966 32.165C27.5163 32.0279 27.9493 31.7768 28.4252 31.5007L28.4322 31.4967C28.4528 31.4847 28.4739 31.4724 28.4956 31.4598C29.009 31.1605 29.8075 30.695 30.7849 30.9218C31.2982 31.0409 31.6381 31.2859 31.8837 31.5993C31.9588 31.6952 32.0307 31.8075 32.066 31.8627C32.0724 31.8727 32.0776 31.8808 32.0814 31.8866C32.1197 31.9451 32.1337 31.9613 32.1414 31.9694L32.1416 31.9695C32.1453 31.9734 32.1554 31.984 32.1863 32.0011C32.2216 32.0207 32.2939 32.0541 32.4269 32.0892C32.703 32.1619 33.18 32.2266 34.0001 32.2266C34.5524 32.2266 35.0001 32.6743 35.0001 33.2266C35.0001 33.7789 34.5524 34.2266 34.0001 34.2266C32.2533 34.2266 31.2931 33.9751 30.697 33.3528C30.5614 33.2111 30.4679 33.0735 30.4076 32.9812C30.3806 32.94 30.3627 32.9123 30.35 32.8926C30.3445 32.8839 30.3399 32.8768 30.336 32.8708C30.335 32.8706 30.334 32.8703 30.3329 32.8701C30.2045 32.8403 30.0729 32.8571 29.4357 33.2267C29.4148 33.2388 29.3937 33.2511 29.3721 33.2636C28.8076 33.5918 28.0025 34.0599 26.8733 34.2171C26.5569 34.2611 26.1877 34.2679 25.8359 34.1307C25.4299 33.9724 25.1587 33.6667 25.0238 33.3111C24.9085 33.0073 24.9069 32.7062 24.9166 32.5087C24.9259 32.319 24.9535 32.119 24.9747 31.9649C24.9765 31.9518 24.9782 31.9391 24.9799 31.9267C25.03 31.5611 25.0387 31.389 25.0196 31.2912C25.0026 31.2834 24.9763 31.2733 24.9378 31.2625C24.8323 31.2332 24.6599 31.231 24.3862 31.3418C24.1102 31.4535 23.794 31.6561 23.4586 31.9372ZM25.0458 31.3054C25.0458 31.3055 25.0451 31.305 25.0438 31.304C25.0452 31.3049 25.0458 31.3054 25.0458 31.3054Z" fill="#1F78F0"></path>
</g><defs>
<clipPath id="clip0_589:2357">
<rect width="48" height="48" fill="white"></rect>
</clipPath>
</defs></g></svg>