<svg viewBox="0 0 24 24" fill="none" xmlns="http://www.w3.org/2000/svg">



<g transform="matrix(0.5,0,0,0.5,0,0)"><path d="M24.0004 37.4914C13.7597 40.3251 7.79906 38.5124 5.3365 37.3346C4.41714 36.895 3.82422 36.0506 3.65748 35.0453C3.36797 33.2997 3 29.762 3 23.0556C3 18.6198 3.16099 15.5702 3.35378 13.5086C3.5404 11.5129 5.71583 10.6436 7.64262 11.196C10.8149 12.1055 16.15 12.6637 24.0004 10.4914C34.2471 7.65599 40.2083 9.51923 42.668 10.722C43.5852 11.1704 44.1734 12.0211 44.3399 13.0284C44.6298 14.7821 45 18.3302 45 25.0144C45 29.3879 44.8415 32.4188 44.6507 34.4829C44.4641 36.5021 42.2449 37.3862 40.2976 36.8207C37.1184 35.8975 31.8014 35.3328 24.0004 37.4914Z" fill="#91BEFF"></path><path d="M30 24C30 27.3137 27.3137 30 24 30C20.6863 30 18 27.3137 18 24C18 20.6863 20.6863 18 24 18C27.3137 18 30 20.6863 30 24Z" fill="#1F78F0"></path><path fill-rule="evenodd" clip-rule="evenodd" d="M44.8692 18.7804C44.2695 18.9239 43.6436 19 43 19C38.5817 19 35 15.4182 35 11C35 10.3191 35.085 9.65816 35.2451 9.0271C38.878 9.1902 41.3081 10.057 42.6679 10.722C43.5852 11.1705 44.1734 12.0211 44.3399 13.0284C44.5218 14.1288 44.7353 15.9357 44.8692 18.7804ZM44.9805 27.5738C44.0594 27.2037 43.0535 27.0001 42 27.0001C37.5817 27.0001 34 30.5818 34 35.0001C34 35.3387 34.021 35.6725 34.0619 36C36.6783 36.0037 38.7434 36.3694 40.2976 36.8207C42.2449 37.3863 44.4641 36.5021 44.6507 34.4829C44.8018 32.8484 44.9326 30.6075 44.9805 27.5738ZM12.7537 38.9775C12.9145 38.3451 13 37.6826 13 37.0001C13 32.5818 9.41828 29.0001 5 29.0001C4.35475 29.0001 3.72734 29.0765 3.12632 29.2207C3.2592 32.1146 3.47408 33.9395 3.65748 35.0453C3.82422 36.0507 4.41713 36.895 5.33649 37.3347C6.69709 37.9854 9.12553 38.8299 12.7537 38.9775ZM3.02032 20.4266C3.94123 20.7965 4.94685 21 6 21C10.4183 21 14 17.4182 14 13C14 12.6613 13.979 12.3275 13.9381 11.9999C11.288 12.0059 9.20349 11.6435 7.64262 11.196C5.71583 10.6436 3.5404 11.5129 3.35377 13.5086C3.2017 15.1348 3.06942 17.3756 3.02032 20.4266Z" fill="#1F78F0"></path></g></svg>