<svg viewBox="0 0 24 24" fill="none" xmlns="http://www.w3.org/2000/svg">



<g transform="matrix(0.5,0,0,0.5,0,0)"><path fill-rule="evenodd" clip-rule="evenodd" d="M5.44936 3.46971C3.90137 3.58469 2.62426 4.48499 2.36667 6.01572C2.16646 7.20551 2 8.95883 2 11.5C2 14.0412 2.16646 15.7945 2.36667 16.9843C2.62426 18.515 3.90137 19.4153 5.44936 19.5303C5.86739 19.5613 6.34876 19.5937 6.90002 19.6263C7.03614 19.6344 7.14364 19.5125 7.13191 19.3766V19.3766C7.05642 18.5022 7 17.2599 7 15.5C7 13.7401 7.05642 12.4978 7.13191 11.6234C7.24786 10.2803 8.23857 9.47678 9.58278 9.37458C11.8018 9.20587 16.1232 9 24 9C31.8768 9 36.1982 9.20587 38.4172 9.37458C39.7614 9.47678 40.7521 10.2803 40.8681 11.6234C40.9436 12.4978 41 13.7401 41 15.5C41 17.2599 40.9436 18.5022 40.8681 19.3766V19.3766C40.8564 19.5125 40.9639 19.6344 41.1 19.6263C41.6512 19.5937 42.1326 19.5613 42.5506 19.5303C44.0986 19.4153 45.3757 18.515 45.6333 16.9843C45.8335 15.7945 46 14.0412 46 11.5C46 8.95883 45.8335 7.20551 45.6333 6.01572C45.3757 4.48499 44.0986 3.58469 42.5506 3.46971C39.7817 3.26405 34.234 3 24 3C13.766 3 8.21827 3.26405 5.44936 3.46971Z" fill="#1F78F0"></path><path fill-rule="evenodd" clip-rule="evenodd" d="M37.6517 12.0809C38.1551 12.1296 38.5381 12.5486 38.5442 13.0544C38.6144 18.904 38.5912 27.4845 38.2216 38.4927C38.132 41.1624 36.2553 43.3762 33.5952 43.6189C31.3524 43.8236 28.2007 44 24.0002 44C19.8232 44 16.7027 43.8255 14.4849 43.6223C11.8393 43.3799 9.98007 41.1781 9.89081 38.5228C9.52001 27.4935 9.49679 18.8989 9.56722 13.0437C9.57331 12.5375 9.95706 12.1182 10.4611 12.07C13.6657 11.7637 18.1295 11.5 24 11.5C29.9396 11.5 34.4392 11.77 37.6517 12.0809Z" fill="#91BEFF"></path><path fill-rule="evenodd" clip-rule="evenodd" d="M31 15C31 18.866 27.866 22 24 22C20.134 22 17 18.866 17 15C17 13.7674 17.3186 12.6091 17.8779 11.6032C19.7187 11.5385 21.7566 11.5 23.9999 11.5C26.2433 11.5 28.2813 11.5385 30.1221 11.6032C30.6814 12.6092 31 13.7674 31 15ZM38.4287 31.1019C32.5438 31.8716 28 36.9052 28 43C28 43.3168 28.0123 43.6307 28.0364 43.9414C30.2982 43.8728 32.1383 43.7518 33.595 43.6189C36.2552 43.3762 38.1319 41.1624 38.2215 38.4927C38.3088 35.8923 38.3768 33.4274 38.4287 31.1019ZM19.9636 43.9412C19.9877 43.6306 20 43.3167 20 43C20 36.9437 15.5135 31.9352 9.6827 31.117C9.73485 33.4471 9.80306 35.917 9.89067 38.5228C9.97993 41.1781 11.8391 43.3799 14.4848 43.6223C15.9194 43.7538 17.7318 43.8732 19.9636 43.9412Z" fill="#1F78F0"></path></g></svg>