<svg viewBox="0 0 24 24" fill="none" xmlns="http://www.w3.org/2000/svg">






<g transform="matrix(0.5,0,0,0.5,0,0)"><path fill-rule="evenodd" clip-rule="evenodd" d="M34.1284 4.17191C34.3696 4.18629 36.4133 4.41337 39.9999 7.99998C43.6181 11.6182 43.8141 13.5854 43.8248 13.7879C43.8249 13.7924 43.8251 13.797 43.8253 13.8016C43.8254 13.8041 43.8254 13.8053 43.8254 13.8053L43.8255 13.8052C43.9293 16.4095 44 19.7451 44 24C44 33.2895 43.6629 39.2081 43.3802 42.5387C43.2495 44.0781 41.5071 44.756 40.3203 43.7669L37 41L34.2658 43.7342C33.5452 44.4548 32.398 44.5184 31.6022 43.8817L28 41L25.4142 43.5858C24.6332 44.3668 23.3668 44.3668 22.5858 43.5858L20 41L16.3978 43.8817C15.602 44.5184 14.4548 44.4548 13.7342 43.7342L11 41L7.6797 43.7669C6.49285 44.756 4.75053 44.0781 4.61984 42.5387C4.33709 39.2081 4 33.2895 4 24C4 15.4507 4.28551 10.6131 4.55141 7.96144C4.73985 6.08233 6.08233 4.73985 7.96144 4.55141C10.6131 4.28551 15.4507 4 24 4C28.2189 4 31.5339 4.06953 34.1284 4.17191Z" fill="#91BEFF"></path><path d="M29 21C29 19.8954 29.8954 19 31 19H33C34.1046 19 35 19.8954 35 21V21C35 22.1046 34.1046 23 33 23H31C29.8954 23 29 22.1046 29 21V21Z" fill="#1F78F0"></path><path d="M13 21C13 19.8954 13.8954 19 15 19H23C24.1046 19 25 19.8954 25 21V21C25 22.1046 24.1046 23 23 23H15C13.8954 23 13 22.1046 13 21V21Z" fill="#1F78F0"></path><path d="M13 30C13 28.8954 13.8954 28 15 28H20C21.1046 28 22 28.8954 22 30V30C22 31.1046 21.1046 32 20 32H15C13.8954 32 13 31.1046 13 30V30Z" fill="#1F78F0"></path><path d="M29 30C29 28.8954 29.8954 28 31 28H33C34.1046 28 35 28.8954 35 30V30C35 31.1046 34.1046 32 33 32H31C29.8954 32 29 31.1046 29 30V30Z" fill="#1F78F0"></path><path d="M43.8255 13.8053C42.9504 13.9131 41.7134 14.0001 40 14.0001C38.741 14.0001 37.7393 13.9531 36.9493 13.8854C35.2292 13.7381 34.1117 12.423 34.0456 10.6979C34.0183 9.98406 34 9.09665 34 8.00005C34 6.2271 34.0478 5.00098 34.1043 4.17102C34.1043 4.17102 36.1745 4.1746 40 8.00005C43.8255 11.8255 43.8255 13.8053 43.8255 13.8053Z" fill="#1F78F0"></path></g></svg>