<svg viewBox="0 0 24 24" fill="none" xmlns="http://www.w3.org/2000/svg">



<g transform="matrix(0.5,0,0,0.5,0,0)"><path d="M6.32481 10.0714C6.49337 8.33719 7.64848 6.99087 9.36176 6.67351C11.7336 6.23416 15.9533 5.74658 23.0001 5.74658C30.047 5.74658 34.2667 6.23416 36.6385 6.67351C38.3518 6.99086 39.5069 8.33719 39.6755 10.0714C39.8847 12.2242 40.1001 15.8973 40.1001 21.8966C40.1001 27.8958 39.8847 31.569 39.6755 33.7217C39.5069 35.456 38.3518 36.8023 36.6385 37.1197C34.2667 37.559 30.047 38.0466 23.0001 38.0466C15.9533 38.0466 11.7336 37.559 9.36176 37.1197C7.64848 36.8023 6.49337 35.456 6.32481 33.7217C6.11557 31.569 5.90015 27.8958 5.90015 21.8966C5.90015 15.8973 6.11557 12.2242 6.32481 10.0714Z" fill="#1F78F0"></path><path d="M32.6209 4.18818C30.7817 4.03946 28.996 4.81513 27.7883 6.21022L26.0964 8.16465C25.3366 9.04231 24.233 9.54661 23.0721 9.54661H9.91901C6.7969 9.54661 4.19758 11.941 4.09847 15.0615C4.03802 16.9649 4 19.2243 4 21.8966C4 28.9106 4.26192 33.0797 4.50391 35.4348C4.68186 37.1666 5.8357 38.5175 7.54402 38.8528C10.1168 39.3578 14.8615 39.9466 23 39.9466C31.1385 39.9466 35.8832 39.3578 38.456 38.8528C40.1643 38.5175 41.3181 37.1666 41.4961 35.4348C41.7381 33.0797 42 28.9106 42 21.8966C42 14.8826 41.7381 10.7135 41.4961 8.35841C41.3181 6.62661 40.1631 5.2754 38.4547 4.94014C37.1357 4.68127 35.2459 4.40043 32.6209 4.18818Z" fill="#91BEFF"></path><path fill-rule="evenodd" clip-rule="evenodd" d="M14.0683 39.6579C14.9444 39.7216 15.8965 39.7774 16.9299 39.8227C16.9392 39.0028 16.9484 38.0566 16.9569 36.9705C17.4285 36.9539 17.8185 36.9324 18.1268 36.9113C18.6277 36.8771 19 36.458 19 35.9559V35.0444C19 34.5423 18.6277 34.1231 18.1268 34.0889C17.8227 34.0681 17.4391 34.0469 16.9761 34.0304C16.9826 32.8089 16.9882 31.4588 16.9923 29.9693C17.448 29.9529 17.8262 29.9319 18.1268 29.9113C18.6277 29.8771 19 29.458 19 28.9559V28.0444C19 27.5423 18.6277 27.1231 18.1268 27.0889C17.8275 27.0684 17.4513 27.0476 16.9981 27.0312C16.9993 26.0701 17 25.0604 17 24.0001L16.9998 22.969C17.4522 22.9526 17.8278 22.9318 18.1268 22.9113C18.6277 22.8771 19 22.458 19 21.9559V21.0444C19 20.5423 18.6277 20.1231 18.1268 20.0889C17.8272 20.0684 17.4505 20.0475 16.9967 20.0311C16.9942 18.56 16.9903 17.2088 16.9854 15.9695C17.4442 15.9531 17.8247 15.932 18.1268 15.9113C18.6277 15.8771 19 15.458 19 14.9559V14.0444C19 13.5423 18.6277 13.1231 18.1268 13.0889C17.8215 13.068 17.4362 13.0467 16.9708 13.0302C16.9628 11.7096 16.9537 10.5538 16.9441 9.54663H14.0559C14.0464 10.5494 14.0373 11.6997 14.0293 13.0133C13.4801 13.0268 13.0684 13.0493 12.7647 13.0729C12.3113 13.1081 12 13.4839 12 13.9386V15.0616C12 15.5163 12.3113 15.8921 12.7647 15.9274C13.0657 15.9507 13.4727 15.973 14.0146 15.9866C14.0097 17.2164 14.0058 18.5562 14.0033 20.0139C13.4671 20.0275 13.0636 20.0497 12.7647 20.0729C12.3113 20.1081 12 20.4839 12 20.9386V22.0616C12 22.5163 12.3113 22.8921 12.7647 22.9274C13.063 22.9505 13.4655 22.9726 14.0002 22.9862L14 24.0001C14 25.0541 14.0007 26.058 14.0019 27.014C13.4664 27.0276 13.0633 27.0497 12.7647 27.0729C12.3113 27.1081 12 27.4839 12 27.9386V29.0616C12 29.5163 12.3113 29.8921 12.7647 29.9274C13.0644 29.9506 13.4693 29.9728 14.0078 29.9864C14.0119 31.4623 14.0173 32.8011 14.0238 34.0134C13.4773 34.027 13.0674 34.0494 12.7647 34.0729C12.3113 34.1081 12 34.4839 12 34.9386V36.0616C12 36.5163 12.3113 36.8921 12.7647 36.9274C13.071 36.9512 13.487 36.9738 14.0432 36.9873C14.0511 37.9945 14.0597 38.881 14.0683 39.6579Z" fill="#1F78F0"></path></g></svg>