<svg viewBox="0 0 24 24" fill="none" xmlns="http://www.w3.org/2000/svg">




<g transform="matrix(0.5,0,0,0.5,0,0)"><path d="M6.32481 10.2329C6.49337 8.49869 7.64848 7.15236 9.36176 6.83501C11.7336 6.39566 15.9533 5.90808 23.0001 5.90808C30.047 5.90808 34.2667 6.39566 36.6385 6.83501C38.3518 7.15236 39.5069 8.49869 39.6755 10.2329C39.8847 12.3857 40.1001 16.0588 40.1001 22.0581C40.1001 28.0573 39.8847 31.7305 39.6755 33.8832C39.5069 35.6175 38.3518 36.9638 36.6385 37.2812C34.2667 37.7205 30.047 38.2081 23.0001 38.2081C15.9533 38.2081 11.7336 37.7205 9.36176 37.2812C7.64848 36.9638 6.49337 35.6175 6.32481 33.8832C6.11557 31.7305 5.90015 28.0573 5.90015 22.0581C5.90015 16.0588 6.11557 12.3857 6.32481 10.2329Z" fill="#1F78F0"></path><path d="M32.6209 4.34968C30.7817 4.20096 28.996 4.97663 27.7883 6.37172L26.0964 8.32615C25.3366 9.20381 24.233 9.70811 23.0721 9.70811H9.91901C6.7969 9.70811 4.19758 12.1025 4.09847 15.223C4.03802 17.1264 4 19.3858 4 22.0581C4 29.0721 4.26192 33.2412 4.50391 35.5963C4.68186 37.3281 5.8357 38.679 7.54402 39.0143C10.1168 39.5193 14.8615 40.1081 23 40.1081C31.1385 40.1081 35.8832 39.5193 38.456 39.0143C40.1643 38.679 41.3181 37.3281 41.4961 35.5963C41.7381 33.2412 42 29.0721 42 22.0581C42 15.0441 41.7381 10.875 41.4961 8.51991C41.3181 6.78811 40.1631 5.4369 38.4547 5.10164C37.1357 4.84277 35.2459 4.56193 32.6209 4.34968Z" fill="#91BEFF"></path><path fill-rule="evenodd" clip-rule="evenodd" d="M32.8394 22.029C33.388 21.8766 33.8595 22.3477 33.8856 22.9165C33.9514 24.354 34.2198 25.9816 34.9948 27.0324C35.3438 27.5056 36.0157 27.6219 36.4348 27.2094C36.9363 26.7158 37.319 25.9256 37.6073 25.0823C37.8379 24.4078 38.6494 24.0973 39.2028 24.5465C42.0482 26.8559 45 30.4062 45 35.1976C45 41.583 40.0751 44.4471 34 44.4471C27.9249 44.4471 23 41.583 23 35.1976C23 28.6264 28.552 24.3894 31.7673 22.4867C32.1094 22.2842 32.4698 22.1317 32.8394 22.029Z" fill="#1F78F0"></path><path d="M34.3714 33.3578C34.1364 33.2381 33.8638 33.2381 33.6288 33.3578C32.6637 33.8495 30.1501 35.3758 30.1501 37.9368C30.1501 40.1249 31.8738 41.1063 34.0001 41.1063C36.1264 41.1063 37.8501 40.1249 37.8501 37.9368C37.8501 35.3758 35.3365 33.8495 34.3714 33.3578Z" fill="#91BEFF"></path></g></svg>