<svg viewBox="0 0 24 24" fill="none" xmlns="http://www.w3.org/2000/svg">



<g transform="matrix(0.5,0,0,0.5,0,0)"><path d="M6.32481 10.2329C6.49337 8.49869 7.64848 7.15236 9.36176 6.83501C11.7336 6.39566 15.9533 5.90808 23.0001 5.90808C30.047 5.90808 34.2667 6.39566 36.6385 6.83501C38.3518 7.15236 39.5069 8.49869 39.6755 10.2329C39.8847 12.3857 40.1001 16.0588 40.1001 22.0581C40.1001 28.0573 39.8847 31.7305 39.6755 33.8832C39.5069 35.6175 38.3518 36.9638 36.6385 37.2812C34.2667 37.7205 30.047 38.2081 23.0001 38.2081C15.9533 38.2081 11.7336 37.7205 9.36176 37.2812C7.64848 36.9638 6.49337 35.6175 6.32481 33.8832C6.11557 31.7305 5.90015 28.0573 5.90015 22.0581C5.90015 16.0588 6.11557 12.3857 6.32481 10.2329Z" fill="#1F78F0"></path><path d="M32.6209 4.34968C30.7817 4.20096 28.996 4.97663 27.7883 6.37172L26.0964 8.32615C25.3366 9.20381 24.233 9.70811 23.0721 9.70811H9.91901C6.7969 9.70811 4.19758 12.1025 4.09847 15.223C4.03802 17.1264 4 19.3858 4 22.0581C4 29.0721 4.26192 33.2412 4.50391 35.5963C4.68186 37.3281 5.8357 38.679 7.54402 39.0143C10.1168 39.5193 14.8615 40.1081 23 40.1081C31.1385 40.1081 35.8832 39.5193 38.456 39.0143C40.1643 38.679 41.3181 37.3281 41.4961 35.5963C41.7381 33.2412 42 29.0721 42 22.0581C42 15.0441 41.7381 10.875 41.4961 8.51991C41.3181 6.78811 40.1631 5.4369 38.4547 5.10164C37.1357 4.84277 35.2459 4.56193 32.6209 4.34968Z" fill="#91BEFF"></path><path d="M33.2246 23.4229C33.9709 21.9841 36.0291 21.9841 36.7754 23.4229L38.9307 27.5783L43.5442 28.4867C45.0673 28.7866 45.683 30.6319 44.645 31.7863L41.36 35.4397L41.9599 40.3012C42.1553 41.8845 40.5092 43.0481 39.0818 42.3356L35 40.2983L30.9182 42.3356C29.4908 43.0481 27.8447 41.8845 28.0401 40.3012L28.64 35.4397L25.355 31.7863C24.317 30.6319 24.9327 28.7866 26.4558 28.4867L31.0693 27.5783L33.2246 23.4229Z" fill="#1F78F0"></path></g></svg>