<svg viewBox="0 0 24 24" fill="none" xmlns="http://www.w3.org/2000/svg">




<g transform="matrix(0.5,0,0,0.5,0,0)"><path d="M6.32481 10.2329C6.49337 8.49869 7.64848 7.15236 9.36176 6.83501C11.7336 6.39566 15.9533 5.90808 23.0001 5.90808C30.047 5.90808 34.2667 6.39566 36.6385 6.83501C38.3518 7.15236 39.5069 8.49869 39.6755 10.2329C39.8847 12.3857 40.1001 16.0588 40.1001 22.0581C40.1001 28.0573 39.8847 31.7305 39.6755 33.8832C39.5069 35.6175 38.3518 36.9638 36.6385 37.2812C34.2667 37.7205 30.047 38.2081 23.0001 38.2081C15.9533 38.2081 11.7336 37.7205 9.36176 37.2812C7.64848 36.9638 6.49337 35.6175 6.32481 33.8832C6.11557 31.7305 5.90015 28.0573 5.90015 22.0581C5.90015 16.0588 6.11557 12.3857 6.32481 10.2329Z" fill="#1F78F0"></path><path d="M32.6209 4.34968C30.7817 4.20096 28.996 4.97663 27.7883 6.37172L26.0964 8.32615C25.3366 9.20381 24.233 9.70811 23.0721 9.70811H9.91901C6.7969 9.70811 4.19758 12.1025 4.09847 15.223C4.03802 17.1264 4 19.3858 4 22.0581C4 29.0721 4.26192 33.2412 4.50391 35.5963C4.68186 37.3281 5.8357 38.679 7.54402 39.0143C10.1168 39.5193 14.8615 40.1081 23 40.1081C31.1385 40.1081 35.8832 39.5193 38.456 39.0143C40.1643 38.679 41.3181 37.3281 41.4961 35.5963C41.7381 33.2412 42 29.0721 42 22.0581C42 15.0441 41.7381 10.875 41.4961 8.51991C41.3181 6.78811 40.1631 5.4369 38.4547 5.10164C37.1357 4.84277 35.2459 4.56193 32.6209 4.34968Z" fill="#91BEFF"></path><path fill-rule="evenodd" clip-rule="evenodd" d="M35 21C31.4134 21 28.4569 23.8124 28.2778 27.3945L28.1853 29.2438C26.4476 29.4076 25.2401 30.6569 25.1255 32.4012C25.0539 33.4904 25 34.981 25 37C25 39.1788 25.0733 40.7422 25.1666 41.8499C25.3019 43.4565 26.4318 44.5842 28.0366 44.7395C29.4754 44.8786 31.6814 45 35 45C38.3186 45 40.5246 44.8786 41.9634 44.7395C43.5682 44.5842 44.6981 43.4565 44.8334 41.8499C44.9267 40.7422 45 39.1788 45 37C45 34.8212 44.9267 33.2578 44.8334 32.1501C44.6981 30.5435 43.5682 29.4158 41.9634 29.2605C41.9147 29.2558 41.8652 29.2511 41.8148 29.2465L41.7222 27.3945C41.5431 23.8124 38.5866 21 35 21ZM37.7991 29.0325L37.7272 27.5943C37.6546 26.141 36.4551 25 35 25C33.5449 25 32.3454 26.141 32.2728 27.5943L32.2009 29.0324C33.0335 29.0118 33.9632 29 35 29C36.0385 29 36.968 29.0119 37.7991 29.0325Z" fill="#1F78F0"></path><path fill-rule="evenodd" clip-rule="evenodd" d="M35.806 37.831C36.5091 37.521 37 36.8178 37 36C37 34.8954 36.1046 34 35 34C33.8954 34 33 34.8954 33 36C33 36.8178 33.4909 37.521 34.194 37.831L34.0532 39.083C34.0184 39.3923 34.069 39.7305 34.3485 39.8676C34.4998 39.9419 34.7107 40 35 40C35.2893 40 35.5002 39.9419 35.6515 39.8676C35.931 39.7305 35.9816 39.3923 35.9468 39.083L35.806 37.831Z" fill="#91BEFF"></path></g></svg>