<svg viewBox="0 0 24 24" fill="none" xmlns="http://www.w3.org/2000/svg">


<g transform="matrix(0.5,0,0,0.5,0,0)"><path d="M6.46102 12.4104C6.63441 10.6766 7.79307 9.32689 9.50488 9.00177C11.9744 8.53274 16.4427 8 24 8C31.5573 8 36.0256 8.53274 38.4951 9.00177C40.2069 9.32689 41.3656 10.6766 41.539 12.4104C41.7635 14.6556 42 18.551 42 25C42 31.449 41.7635 35.3444 41.539 37.5896C41.3656 39.3234 40.2069 40.6731 38.4951 40.9982C36.0256 41.4673 31.5573 42 24 42C16.4427 42 11.9744 41.4673 9.50489 40.9982C7.79307 40.6731 6.63441 39.3234 6.46102 37.5896C6.23648 35.3444 6 31.449 6 25C6 18.551 6.23648 14.6556 6.46102 12.4104Z" fill="#1F78F0"></path><path d="M33.9757 6.34748C32.1363 6.202 30.3487 6.97664 29.141 8.37173L27.1964 10.6181C26.4366 11.4958 25.333 12.0001 24.1721 12.0001H9.93977C6.81766 12.0001 4.21762 14.3953 4.1131 17.5156C4.04401 19.5786 4 22.0503 4 25.0001C4 32.5293 4.28673 36.9443 4.54553 39.3957C4.72831 41.127 5.88149 42.4773 7.58826 42.8204C10.2623 43.3581 15.2808 44.0001 24 44.0001C32.7192 44.0001 37.7377 43.3581 40.4117 42.8204C42.1185 42.4773 43.2717 41.127 43.4545 39.3957C43.7133 36.9443 44 32.5293 44 25.0001C44 17.4708 43.7133 13.0558 43.4545 10.6044C43.2717 8.87308 42.1168 7.52236 40.41 7.1793C38.9917 6.89424 36.9143 6.57989 33.9757 6.34748Z" fill="#91BEFF"></path></g></svg>