<svg viewBox="0 0 24 24" fill="none" xmlns="http://www.w3.org/2000/svg">




<g transform="matrix(0.5,0,0,0.5,0,0)"><path d="M6.32481 10.2329C6.49337 8.49869 7.64848 7.15236 9.36176 6.83501C11.7336 6.39566 15.9533 5.90808 23.0001 5.90808C30.047 5.90808 34.2667 6.39566 36.6385 6.83501C38.3518 7.15236 39.5069 8.49869 39.6755 10.2329C39.8847 12.3857 40.1001 16.0588 40.1001 22.0581C40.1001 28.0573 39.8847 31.7305 39.6755 33.8832C39.5069 35.6175 38.3518 36.9638 36.6385 37.2812C34.2667 37.7205 30.047 38.2081 23.0001 38.2081C15.9533 38.2081 11.7336 37.7205 9.36176 37.2812C7.64848 36.9638 6.49337 35.6175 6.32481 33.8832C6.11557 31.7305 5.90015 28.0573 5.90015 22.0581C5.90015 16.0588 6.11557 12.3857 6.32481 10.2329Z" fill="#1F78F0"></path><path d="M32.6209 4.34968C30.7817 4.20096 28.996 4.97663 27.7883 6.37172L26.0964 8.32615C25.3366 9.20381 24.233 9.70811 23.0721 9.70811H9.91901C6.7969 9.70811 4.19758 12.1025 4.09847 15.223C4.03802 17.1264 4 19.3858 4 22.0581C4 29.0721 4.26192 33.2412 4.50391 35.5963C4.68186 37.3281 5.8357 38.679 7.54402 39.0143C10.1168 39.5193 14.8615 40.1081 23 40.1081C31.1385 40.1081 35.8832 39.5193 38.456 39.0143C40.1643 38.679 41.3181 37.3281 41.4961 35.5963C41.7381 33.2412 42 29.0721 42 22.0581C42 15.0441 41.7381 10.875 41.4961 8.51991C41.3181 6.78811 40.1631 5.4369 38.4547 5.10164C37.1357 4.84277 35.2459 4.56193 32.6209 4.34968Z" fill="#91BEFF"></path><path d="M24.1955 27.5798C24.3408 25.9277 25.3682 24.6103 27.0104 24.378C28.4481 24.1747 30.6563 24 34 24C37.3437 24 39.5519 24.1747 40.9896 24.378C42.6318 24.6103 43.6592 25.9277 43.8045 27.5798C43.9089 28.7673 44 30.2925 44 32V32C44 36.5142 41.6175 40.7382 37.6037 42.8039C36.2629 43.494 34.9544 44 34 44C33.0456 44 31.7371 43.494 30.3963 42.8039C26.3825 40.7382 24 36.5142 24 32V32C24 30.2925 24.0911 28.7673 24.1955 27.5798Z" fill="#1F78F0"></path><path fill-rule="evenodd" clip-rule="evenodd" d="M39.6565 29.2827C40.1492 29.7855 40.2276 30.5652 39.8283 31.145C37.7971 34.0936 35.9657 36.0522 34.8921 37.0951C34.3087 37.6618 33.4345 37.7383 32.7814 37.2536C31.8476 36.5608 30.4543 35.3724 29.0998 33.6341C28.725 33.1532 28.7161 32.4875 29.0466 31.9751L29.5231 31.2366C29.9339 30.5997 30.812 30.4735 31.3542 31.003C32.6297 32.2485 33.6906 33.5161 33.6906 33.5161C33.6906 33.5161 35.2443 31.3464 37.5196 28.9152C37.9964 28.4056 38.7999 28.4082 39.2883 28.9067L39.6565 29.2827Z" fill="#91BEFF"></path></g></svg>