<svg viewBox="0 0 24 24" fill="none" xmlns="http://www.w3.org/2000/svg">




<g transform="matrix(0.5,0,0,0.5,0,0)"><path d="M6.32481 10.2329C6.49337 8.49869 7.64848 7.15236 9.36176 6.83501C11.7336 6.39566 15.9533 5.90808 23.0001 5.90808C30.047 5.90808 34.2667 6.39566 36.6385 6.83501C38.3518 7.15236 39.5069 8.49869 39.6755 10.2329C39.8847 12.3857 40.1001 16.0588 40.1001 22.0581C40.1001 28.0573 39.8847 31.7305 39.6755 33.8832C39.5069 35.6175 38.3518 36.9638 36.6385 37.2812C34.2667 37.7205 30.047 38.2081 23.0001 38.2081C15.9533 38.2081 11.7336 37.7205 9.36176 37.2812C7.64848 36.9638 6.49337 35.6175 6.32481 33.8832C6.11557 31.7305 5.90015 28.0573 5.90015 22.0581C5.90015 16.0588 6.11557 12.3857 6.32481 10.2329Z" fill="#1F78F0"></path><path d="M32.6209 4.34968C30.7817 4.20096 28.996 4.97663 27.7883 6.37172L26.0964 8.32615C25.3366 9.20381 24.233 9.70811 23.0721 9.70811H9.91901C6.7969 9.70811 4.19758 12.1025 4.09847 15.223C4.03802 17.1264 4 19.3858 4 22.0581C4 29.0721 4.26192 33.2412 4.50391 35.5963C4.68186 37.3281 5.8357 38.679 7.54402 39.0143C10.1168 39.5193 14.8615 40.1081 23 40.1081C31.1385 40.1081 35.8832 39.5193 38.456 39.0143C40.1643 38.679 41.3181 37.3281 41.4961 35.5963C41.7381 33.2412 42 29.0721 42 22.0581C42 15.0441 41.7381 10.875 41.4961 8.51991C41.3181 6.78811 40.1631 5.4369 38.4547 5.10164C37.1357 4.84277 35.2459 4.56193 32.6209 4.34968Z" fill="#91BEFF"></path><path d="M27.033 43.7664C24.1151 43.5626 22.3155 41.1054 23.38 38.3809C24.0464 36.6753 25.0346 34.454 26.5 31.6168C28.0297 28.6552 29.386 26.3647 30.5101 24.6313C32.2719 21.9146 35.7281 21.9146 37.4899 24.6313C38.614 26.3647 39.9703 28.6552 41.5 31.6168C42.9654 34.454 43.9536 36.6753 44.62 38.3809C45.6845 41.1054 43.8849 43.5626 40.967 43.7664C39.0975 43.8969 36.7505 44 34 44C31.2495 44 28.9025 43.8969 27.033 43.7664Z" fill="#1F78F0"></path><path fill-rule="evenodd" clip-rule="evenodd" d="M32.9294 29.103C32.2685 29.2478 31.9538 29.9055 32.0055 30.5801C32.1013 31.8315 32.2741 33.8746 32.4614 35.0719C32.5307 35.5152 32.8067 35.8877 33.2504 35.9543C33.4308 35.9814 33.6541 36 33.9271 36C34.2 36 34.4233 35.9814 34.6037 35.9543C35.0474 35.8877 35.3234 35.5152 35.3927 35.0719C35.58 33.8746 35.7528 31.8315 35.8486 30.5801C35.9003 29.9055 35.5856 29.2478 34.9247 29.103C34.649 29.0426 34.3165 29 33.9271 29C33.5377 29 33.2051 29.0426 32.9294 29.103ZM33.9021 40.55C34.7719 40.55 35.4771 39.8449 35.4771 38.975C35.4771 38.1052 34.7719 37.4 33.9021 37.4C33.0322 37.4 32.3271 38.1052 32.3271 38.975C32.3271 39.8449 33.0322 40.55 33.9021 40.55Z" fill="#91BEFF"></path></g></svg>