<svg viewBox="0 0 24 24" fill="none" xmlns="http://www.w3.org/2000/svg">




<g transform="matrix(0.5,0,0,0.5,0,0)"><path d="M42.7811 45.9686C44.4542 45.9261 45.7214 44.9198 45.8582 43.2518C45.9401 42.2527 46 40.8796 46 39C46 37.1204 45.9401 35.7473 45.8582 34.7482C45.7214 33.0802 44.4542 32.0739 42.7811 32.0314C42.0491 32.0128 41.1339 32 40 32C38.8661 32 37.9509 32.0128 37.2189 32.0314C35.5458 32.0739 34.2786 33.0802 34.1418 34.7482C34.0599 35.7473 34 37.1204 34 39C34 40.8796 34.0599 42.2527 34.1418 43.2518C34.2786 44.9198 35.5458 45.9261 37.2189 45.9686C37.9509 45.9872 38.8661 46 40 46C41.1339 46 42.0491 45.9872 42.7811 45.9686Z" fill="#91BEFF"></path><path d="M10.309 45.9585C12.2582 45.8816 13.625 44.5113 13.7514 42.5646C13.8824 40.5461 14 37.2674 14 32C14 26.7326 13.8824 23.4539 13.7514 21.4354C13.625 19.4887 12.2582 18.1184 10.309 18.0415C9.66583 18.0161 8.90212 18 8 18C7.09788 18 6.33417 18.0161 5.69103 18.0415C3.74179 18.1184 2.37497 19.4887 2.2486 21.4354C2.11756 23.4539 2 26.7326 2 32C2 37.2674 2.11756 40.5461 2.2486 42.5646C2.37498 44.5113 3.74179 45.8816 5.69103 45.9585C6.33417 45.9839 7.09789 46 8 46C8.90212 46 9.66583 45.9839 10.309 45.9585Z" fill="#91BEFF"></path><path d="M26.4468 45.9663C28.3146 45.9095 29.676 44.6837 29.8102 42.8199C29.9156 41.355 30 39.1872 30 36C30 32.8128 29.9156 30.645 29.8102 29.1801C29.676 27.3163 28.3146 26.0905 26.4468 26.0337C25.7757 26.0133 24.9674 26 24 26C23.0326 26 22.2243 26.0133 21.5532 26.0337C19.6854 26.0905 18.324 27.3163 18.1898 29.1801C18.0844 30.645 18 32.8128 18 36C18 39.1872 18.0844 41.355 18.1898 42.8199C18.324 44.6837 19.6854 45.9095 21.5532 45.9663C22.2243 45.9867 23.0326 46 24 46C24.9674 46 25.7757 45.9867 26.4468 45.9663Z" fill="#91BEFF"></path><path fill-rule="evenodd" clip-rule="evenodd" d="M7.44751 6.95975L7.43819 6.95226C6.3604 6.08967 6.18534 4.51637 7.04776 3.43835C7.91028 2.3602 9.48351 2.1854 10.5617 3.04792L10.5625 3.04862C10.8772 3.30084 11.187 3.55918 11.4961 3.81817C12.0895 4.31537 12.9495 5.04802 14.029 6.0005C15.7827 7.54791 18.1174 9.67689 20.8307 12.3204C21.1477 11.9469 21.4926 11.5422 21.8518 11.1231C23.3375 9.3898 25.1516 7.31287 26.2322 6.23233C27.0748 5.38967 28.3951 5.25893 29.3867 5.91997L29.3879 5.92078C29.7582 6.16826 30.1219 6.42567 30.4843 6.68451C31.1647 7.1705 32.1297 7.87834 33.2848 8.77671C35.3706 10.399 38.0927 12.6557 40.8827 15.361C40.8668 14.6757 40.8595 13.9415 40.8681 13.2012C40.8817 12.0397 41.5456 10.9822 42.7069 11.0007C42.8226 11.0026 42.933 11.0083 43.0381 11.0172C44.0783 11.1053 44.687 12.0637 44.8019 13.1013C45.1474 16.2228 44.9762 18.913 44.776 20.6018C44.6392 21.7551 43.755 22.6393 42.6017 22.776C40.9129 22.9762 38.2227 23.1475 35.1012 22.8019C34.0636 22.6871 33.1052 22.0784 33.0172 21.0382C33.0083 20.9331 33.0025 20.8227 33.0007 20.707C32.9821 19.5456 34.0397 18.8818 35.2011 18.8682C35.9308 18.8597 36.6546 18.8667 37.3314 18.8821C34.7303 16.3663 32.1823 14.2536 30.2151 12.7235C29.5014 12.1684 28.8663 11.6917 28.3356 11.302C27.5107 12.2195 26.549 13.326 25.6481 14.3771C24.9041 15.245 24.2215 16.0517 23.7247 16.6417C23.456 16.9608 23.188 17.2805 22.9205 17.6006C22.4708 18.1402 21.8149 18.4657 21.1132 18.4975C20.4115 18.5294 19.7288 18.2645 19.2322 17.7679C15.7738 14.3095 12.8123 11.5951 10.7209 9.74969C9.67535 8.82716 8.84782 8.12232 8.28501 7.65077C8.00759 7.41834 7.72917 7.18703 7.44751 6.95975Z" fill="#1F78F0"></path></g></svg>