<svg viewBox="0 0 24 24" fill="none" xmlns="http://www.w3.org/2000/svg">


<g transform="matrix(0.5,0,0,0.5,0,0)"><path d="M4.56198 8.68502C4.73932 6.96777 5.86521 5.60848 7.55375 5.24901C10.219 4.68162 15.2432 4 24 4C32.7568 4 37.781 4.68162 40.4463 5.24901C42.1348 5.60848 43.2607 6.96778 43.438 8.68502C43.701 11.2312 44 15.9061 44 24C44 32.0939 43.701 36.7688 43.438 39.315C43.2607 41.0322 42.1348 42.3915 40.4462 42.751C37.781 43.3184 32.7568 44 24 44C15.2432 44 10.219 43.3184 7.55375 42.751C5.86521 42.3915 4.73932 41.0322 4.56198 39.315C4.29904 36.7688 4 32.0939 4 24C4 15.9061 4.29904 11.2312 4.56198 8.68502Z" fill="#91BEFF"></path><path fill-rule="evenodd" clip-rule="evenodd" d="M4.25721 12.7223C6.79199 14.6135 9.55632 17.1209 11.7897 19.255C12.9164 20.3316 13.9336 21.3383 14.7528 22.163L14.7693 22.141L14.7862 22.1185L14.803 22.096L14.8199 22.0736L14.8367 22.0511L14.8535 22.0287L14.8703 22.0063L14.8871 21.9839L14.9039 21.9615L14.9207 21.9392L14.9374 21.9169L14.9541 21.8946L14.9708 21.8723L14.9875 21.85L15.0042 21.8278L15.0209 21.8055L15.0375 21.7833L15.0542 21.7612L15.0708 21.739L15.0874 21.7169L15.104 21.6947L15.1206 21.6726L15.1371 21.6506L15.1537 21.6285L15.1702 21.6065L15.1867 21.5845L15.2032 21.5625L15.2196 21.5405L15.2361 21.5186L15.2525 21.4967L15.269 21.4748L15.2854 21.4529L15.3017 21.4311L15.3181 21.4093L15.3344 21.3875L15.3508 21.3657L15.3671 21.3439L15.3834 21.3222L15.3997 21.3005L15.4159 21.2789L15.4321 21.2572L15.4484 21.2356L15.4646 21.214L15.4807 21.1924L15.4969 21.1709L15.513 21.1494L15.5292 21.1279L15.5453 21.1064L15.5613 21.085L15.5774 21.0635L15.5934 21.0422L15.6094 21.0208L15.6254 20.9995L15.6414 20.9782L15.6574 20.9569L15.6733 20.9356L15.6892 20.9144L15.7051 20.8932L15.721 20.8721L15.7368 20.8509L15.7527 20.8298L15.7685 20.8088L15.7843 20.7877L15.8 20.7667L15.8158 20.7457L15.8315 20.7247L15.8472 20.7038L15.8629 20.6829L15.8785 20.662L15.8941 20.6412L15.9098 20.6204L15.9253 20.5996L15.9409 20.5789L15.9564 20.5582L15.9719 20.5375L15.9874 20.5168L16.0029 20.4962L16.0183 20.4756L16.0338 20.4551L16.0491 20.4345L16.0645 20.414L16.0799 20.3936L16.0952 20.3732L16.1105 20.3528L16.1258 20.3324L16.141 20.3121L16.1562 20.2918L16.1714 20.2715L16.1866 20.2513L16.2017 20.2311L16.2168 20.2109L16.2319 20.1908L16.247 20.1707L16.262 20.1507L16.2771 20.1306L16.2921 20.1107L16.307 20.0907L16.3219 20.0708L16.3369 20.0509L16.3517 20.0311L16.3666 20.0113L16.3814 19.9915L16.3962 19.9718L16.411 19.9521L16.4257 19.9324L16.4405 19.9128L16.4552 19.8932L16.4698 19.8736L16.4845 19.8541L16.4991 19.8346L16.5136 19.8152L16.5282 19.7958L16.5427 19.7764L16.5572 19.7571L16.5717 19.7378L16.5861 19.7186L16.6005 19.6994L16.6149 19.6802L16.6292 19.6611L16.6436 19.642L16.6578 19.6229L16.6721 19.6039L16.6863 19.585L16.7005 19.566L16.7147 19.5471L16.7288 19.5283L16.7429 19.5095L16.757 19.4907L16.7711 19.472L16.7851 19.4533L16.7991 19.4346L16.813 19.416L16.8269 19.3975L16.8408 19.379L16.8547 19.3605L16.8685 19.342L16.8823 19.3236L16.8961 19.3053L16.9098 19.287L16.9235 19.2687L16.9372 19.2505L16.9508 19.2323L16.9644 19.2142L16.978 19.1961L16.9915 19.178L17.005 19.16L17.0185 19.1421L17.0319 19.1242L17.0453 19.1063L17.0587 19.0885L17.072 19.0707L17.0853 19.0529L17.0986 19.0352L17.1118 19.0176L17.125 19L17.1382 18.9824L17.1513 18.9649L17.1644 18.9475L17.1775 18.9301L17.1905 18.9127L17.2035 18.8954L17.2165 18.8781L17.2294 18.8609L17.2423 18.8437L17.2551 18.8265L17.268 18.8095L17.2807 18.7924L17.2935 18.7754L17.3062 18.7585L17.3189 18.7416L17.3315 18.7247L17.3441 18.7079L17.3567 18.6912L17.3692 18.6745L17.3817 18.6578L17.3941 18.6412L17.4065 18.6247L17.4189 18.6082L17.4313 18.5917L17.4436 18.5753L17.4558 18.559L17.4681 18.5427L17.4802 18.5264L17.4924 18.5102L17.5045 18.4941L17.5166 18.478L17.5286 18.4619L17.5406 18.4459L17.5526 18.43L17.5645 18.4141L17.5764 18.3982L17.5882 18.3825L17.6 18.3667L17.6118 18.351L17.6235 18.3354L17.6352 18.3198L17.6468 18.3043L17.6584 18.2888L17.67 18.2734L17.6815 18.258L17.693 18.2427L17.7044 18.2275L17.7158 18.2123L17.7272 18.1971L17.7385 18.182L17.7498 18.167L17.761 18.152L17.7722 18.1371L17.7834 18.1222L17.7945 18.1074L17.8056 18.0926L17.8166 18.0779L17.8276 18.0633L17.8385 18.0487L17.8494 18.0341L17.8603 18.0197L17.8711 18.0052L17.8819 17.9909L17.8926 17.9766L17.9033 17.9623L17.914 17.9481L17.9246 17.934L17.9351 17.9199L17.9456 17.9059L17.9561 17.8919L17.9665 17.878L17.9769 17.8642L17.9873 17.8504L17.9976 17.8366L18.0078 17.823L18.018 17.8093L18.0282 17.7958L18.0383 17.7823L18.0484 17.7689L18.0584 17.7555L18.0684 17.7422L18.0784 17.7289L18.0882 17.7157L18.0981 17.7026L18.1079 17.6895L18.1177 17.6765L18.1274 17.6636L18.137 17.6507L18.1467 17.6379L18.1562 17.6251L18.1658 17.6124L18.1752 17.5997L18.1847 17.5872L18.1941 17.5746L18.2034 17.5622L18.2127 17.5498L18.2219 17.5375L18.2311 17.5252L18.2403 17.513L18.2494 17.5009L18.2585 17.4888L18.2675 17.4768L18.2764 17.4648L18.2853 17.453L18.2942 17.4411L18.303 17.4294L18.3118 17.4177L18.3205 17.4061L18.3292 17.3945L18.3378 17.383L18.3464 17.3716L18.3549 17.3602L18.3633 17.3489L18.3718 17.3377L18.3801 17.3265L18.3885 17.3154L18.3967 17.3044L18.405 17.2934L18.4131 17.2825L18.4213 17.2717L18.4293 17.2609L18.4374 17.2503L18.4453 17.2396L18.4533 17.2291L18.4611 17.2186L18.4689 17.2081L18.4767 17.1978L18.4844 17.1875L18.4921 17.1773L18.4997 17.1671L18.5073 17.157L18.5148 17.147L18.5222 17.1371L18.5296 17.1272L18.537 17.1174L18.5443 17.1077L18.5515 17.098L18.5587 17.0884L18.5659 17.0789L18.573 17.0694L18.58 17.0601L18.587 17.0508L18.5939 17.0415L18.6008 17.0323L18.6076 17.0233L18.6144 17.0142L18.6211 17.0053L18.6278 16.9964L18.6344 16.9876L18.6409 16.9788L18.6474 16.9702L18.6539 16.9616L18.6602 16.9531L18.6666 16.9446L18.6729 16.9363L18.6791 16.928L18.6852 16.9197L18.6914 16.9116L18.6974 16.9035L18.7034 16.8955L18.7094 16.8876L18.7153 16.8797L18.7211 16.8719L18.7269 16.8642L18.7326 16.8566L18.7383 16.8491L18.7439 16.8416L18.7494 16.8342L18.7549 16.8269L18.7603 16.8196L18.7657 16.8124L18.771 16.8053L18.7763 16.7983L18.7815 16.7914L18.7867 16.7845L18.7918 16.7777L18.7968 16.771L18.8018 16.7644L18.8067 16.7578L18.8116 16.7513L18.8164 16.7449L18.8211 16.7386L18.8258 16.7323L18.8304 16.7262L18.835 16.7201L18.8395 16.7141L18.8439 16.7082L18.8483 16.7023L18.8527 16.6965L18.8569 16.6908L18.8611 16.6852L18.8653 16.6797L18.8694 16.6742L18.8734 16.6689L18.8774 16.6636L18.8813 16.6584L18.8851 16.6532L18.8889 16.6482L18.8926 16.6432L18.8963 16.6383L18.8999 16.6335L18.9035 16.6288L18.9069 16.6241L18.9104 16.6196L18.9137 16.6151L18.917 16.6107L18.9202 16.6064L18.9234 16.6022L18.9265 16.598L18.9296 16.594L18.9326 16.59L18.9355 16.5861L18.9383 16.5823L18.9411 16.5785L18.9439 16.5749L18.9465 16.5713L18.9492 16.5679L18.9517 16.5645L18.9542 16.5612L18.9566 16.5579L18.9589 16.5548L18.9612 16.5517L18.9635 16.5488L18.9656 16.5459L18.9677 16.5431L18.9698 16.5404L18.9717 16.5378L18.9736 16.5352L18.9755 16.5328L18.9772 16.5304L18.9789 16.5281L18.9806 16.526L18.9822 16.5239L18.9837 16.5218L18.9851 16.5199L18.9865 16.5181L18.9878 16.5163L18.9891 16.5147L18.9902 16.5131L18.9914 16.5116L18.9924 16.5102L18.9934 16.5089L18.9943 16.5077L18.9951 16.5065L18.9959 16.5055L18.9966 16.5045L18.9973 16.5037L18.9979 16.5029L18.9984 16.5022L18.9988 16.5016L18.9992 16.5011L18.9995 16.5007L18.9997 16.5004L18.9999 16.5002L19 16.5L21 18L19 16.5C19.406 15.9587 20.014 15.6051 20.6852 15.5199C21.3564 15.4347 22.0335 15.6252 22.5618 16.0478C25.2011 18.1593 28.0469 21.0115 30.1926 23.2834C31.275 24.4295 32.1978 25.4478 32.8507 26.1803C32.9814 26.3269 33.1013 26.4622 33.2097 26.5848C33.1806 25.5839 33.1653 24.4699 33.1825 23.3508C33.2013 22.1331 33.8895 21.0215 35.1073 21.0009C35.1777 20.9997 35.2502 20.9997 35.3249 21.0009C35.5629 21.0047 35.7817 21.0226 35.9813 21.0499C37.0156 21.1915 37.6158 22.146 37.7382 23.1827C38.2058 27.1409 37.9542 30.5315 37.6999 32.5174C37.5523 33.6694 36.6694 34.5523 35.5174 34.6998C33.5316 34.9542 30.1409 35.2058 26.1827 34.7382C25.146 34.6157 24.1916 34.0155 24.05 32.9813C24.0227 32.7817 24.0047 32.5628 24.0009 32.3249C23.9997 32.2501 23.9998 32.1776 24.001 32.1072C24.0216 30.8895 25.1331 30.2012 26.3509 30.1825C27.5294 30.1644 28.7022 30.1823 29.7432 30.2143C29.5827 30.0311 29.3719 29.7919 29.1181 29.5072C28.4898 28.8022 27.6001 27.8205 26.5575 26.7166C25.0228 25.0916 23.1956 23.2434 21.4031 21.6293L21.3941 21.6412L21.3817 21.6578L21.3692 21.6745L21.3567 21.6912L21.3441 21.7079L21.3315 21.7247L21.3189 21.7416L21.3062 21.7585L21.2935 21.7754L21.2807 21.7924L21.268 21.8095L21.2551 21.8265L21.2423 21.8437L21.2294 21.8609L21.2165 21.8781L21.2035 21.8954L21.1905 21.9127L21.1775 21.9301L21.1644 21.9475L21.1513 21.9649L21.1382 21.9824L21.125 22L21.1118 22.0176L21.0986 22.0352L21.0853 22.0529L21.072 22.0707L21.0587 22.0885L21.0453 22.1063L21.0319 22.1242L21.0185 22.1421L21.005 22.16L20.9915 22.178L20.978 22.1961L20.9644 22.2142L20.9508 22.2323L20.9372 22.2505L20.9235 22.2687L20.9098 22.287L20.8961 22.3053L20.8823 22.3236L20.8685 22.342L20.8547 22.3605L20.8408 22.379L20.8269 22.3975L20.813 22.416L20.7991 22.4346L20.7851 22.4533L20.7711 22.472L20.757 22.4907L20.7429 22.5095L20.7288 22.5283L20.7147 22.5471L20.7005 22.566L20.6863 22.585L20.6721 22.6039L20.6578 22.6229L20.6436 22.642L20.6292 22.6611L20.6149 22.6802L20.6005 22.6994L20.5861 22.7186L20.5717 22.7378L20.5572 22.7571L20.5427 22.7764L20.5282 22.7958L20.5136 22.8152L20.4991 22.8346L20.4845 22.8541L20.4698 22.8736L20.4552 22.8932L20.4405 22.9128L20.4257 22.9324L20.411 22.9521L20.3962 22.9718L20.3814 22.9915L20.3666 23.0113L20.3517 23.0311L20.3369 23.0509L20.3219 23.0708L20.307 23.0907L20.2921 23.1107L20.2771 23.1306L20.262 23.1507L20.247 23.1707L20.2319 23.1908L20.2168 23.2109L20.2017 23.2311L20.1866 23.2513L20.1714 23.2715L20.1562 23.2918L20.141 23.3121L20.1258 23.3324L20.1105 23.3528L20.0952 23.3732L20.0799 23.3936L20.0645 23.414L20.0491 23.4345L20.0338 23.4551L20.0183 23.4756L20.0029 23.4962L19.9874 23.5168L19.9719 23.5375L19.9564 23.5582L19.9409 23.5789L19.9253 23.5996L19.9098 23.6204L19.8941 23.6412L19.8785 23.662L19.8629 23.6829L19.8472 23.7038L19.8315 23.7247L19.8158 23.7457L19.8 23.7667L19.7843 23.7877L19.7685 23.8088L19.7527 23.8298L19.7368 23.8509L19.721 23.8721L19.7051 23.8932L19.6892 23.9144L19.6733 23.9356L19.6574 23.9569L19.6414 23.9782L19.6254 23.9995L19.6094 24.0208L19.5934 24.0422L19.5774 24.0635L19.5613 24.085L19.5453 24.1064L19.5292 24.1279L19.513 24.1494L19.4969 24.1709L19.4807 24.1924L19.4646 24.214L19.4484 24.2356L19.4321 24.2572L19.4159 24.2789L19.3997 24.3005L19.3834 24.3222L19.3671 24.3439L19.3508 24.3657L19.3344 24.3875L19.3181 24.4093L19.3017 24.4311L19.2854 24.4529L19.269 24.4748L19.2525 24.4967L19.2361 24.5186L19.2196 24.5405L19.2032 24.5625L19.1867 24.5845L19.1702 24.6065L19.1537 24.6285L19.1371 24.6506L19.1206 24.6726L19.104 24.6947L19.0874 24.7169L19.0708 24.739L19.0542 24.7612L19.0375 24.7833L19.0209 24.8055L19.0042 24.8278L18.9875 24.85L18.9708 24.8723L18.9541 24.8946L18.9374 24.9169L18.9207 24.9392L18.9039 24.9615L18.8871 24.9839L18.8703 25.0063L18.8535 25.0287L18.8367 25.0511L18.8199 25.0736L18.803 25.096L18.7862 25.1185L18.7693 25.141L18.7524 25.1635L18.7355 25.1861L18.7186 25.2086L18.7017 25.2312L18.6847 25.2538L18.6678 25.2764L18.6508 25.299L18.6338 25.3216L18.6168 25.3443L18.5998 25.367L18.5828 25.3896L18.5658 25.4124L18.5487 25.4351L18.5317 25.4578L18.5146 25.4806L18.4975 25.5033L18.4805 25.5261L18.4634 25.5489L18.4463 25.5717L18.4291 25.5946L18.412 25.6174L18.3949 25.6403L18.3777 25.6631L18.3605 25.686L18.3434 25.7089L18.3262 25.7318L18.309 25.7548L18.2918 25.7777L18.2746 25.8007L18.2573 25.8236L18.2401 25.8466L18.2228 25.8696L18.2056 25.8926L18.1883 25.9156L18.1711 25.9387L18.1538 25.9617L18.1365 25.9847L18.1192 26.0078L18.1019 26.0309L18.0846 26.054L18.0672 26.0771L18.0499 26.1002L18.0326 26.1233L18.0152 26.1464L17.9979 26.1696L17.9805 26.1927L17.9631 26.2159L17.9457 26.2391L17.9284 26.2622L17.911 26.2854L17.8936 26.3086L17.8762 26.3319L17.8587 26.3551L17.8413 26.3783L17.8239 26.4015L17.8065 26.4248L17.789 26.448L17.7716 26.4713L17.7541 26.4946L17.7367 26.5178L17.7192 26.5411L17.7017 26.5644L17.6843 26.5877L17.6668 26.611L17.6493 26.6343L17.6318 26.6576L17.6143 26.681L17.5968 26.7043L17.5793 26.7276L17.5618 26.751L17.5443 26.7743L17.5268 26.7977L17.5093 26.821L17.4917 26.8444L17.4742 26.8678L17.4567 26.8911L17.4392 26.9145L17.4216 26.9379L17.4041 26.9613L17.3865 26.9847L17.369 27.0081L17.3514 27.0315L17.3339 27.0549L17.3163 27.0783L17.2988 27.1017L17.2812 27.1251L17.2636 27.1485L17.2461 27.172L17.2285 27.1954L17.2109 27.2188L17.1934 27.2422L17.1758 27.2657L17.1582 27.2891L17.1407 27.3125L17.1231 27.3359L17.1055 27.3594L17.0879 27.3828L17.0704 27.4063L17.0528 27.4297L17.0352 27.4531L17.0176 27.4766L17 27.5C16.5577 28.0898 15.8777 28.4542 15.1416 28.496C14.4057 28.5377 13.6888 28.2526 13.1826 27.7167L13.1826 27.7166L13.1825 27.7166L13.1818 27.7158L13.1781 27.7119L13.1615 27.6944L13.093 27.6223C13.0319 27.5582 12.9406 27.4626 12.8219 27.3391C12.5843 27.092 12.2371 26.7333 11.8028 26.2913C10.9333 25.4064 9.71811 24.1912 8.3354 22.87C6.97789 21.5728 5.49625 20.2097 4.04297 18.9662C4.08835 16.4564 4.16591 14.3988 4.25721 12.7223ZM33.2582 27.9216L33.2582 27.9215L32.1728 28.8519L33.2582 27.9216Z" fill="#1F78F0"></path></g></svg>