<svg viewBox="0 0 24 24" fill="none" xmlns="http://www.w3.org/2000/svg">


<g transform="matrix(0.5,0,0,0.5,0,0)"><path d="M4.56198 39.315C4.73932 41.0322 5.86521 42.3915 7.55375 42.751C10.219 43.3184 15.2432 44 24 44C32.7568 44 37.781 43.3184 40.4463 42.751C42.1348 42.3915 43.2607 41.0322 43.438 39.315C43.701 36.7688 44 32.0939 44 24C44 15.9061 43.701 11.2312 43.438 8.68502C43.2607 6.96777 42.1348 5.60848 40.4462 5.24901C37.781 4.68162 32.7568 4 24 4C15.2432 4 10.219 4.68162 7.55375 5.24901C5.86521 5.60848 4.73932 6.96777 4.56198 8.68502C4.29904 11.2312 4 15.9061 4 24C4 32.0939 4.29904 36.7688 4.56198 39.315Z" fill="#91BEFF"></path><path fill-rule="evenodd" clip-rule="evenodd" d="M4.23247 34.8068C6.78193 32.2959 9.51622 29.9068 11.6681 28.1039C12.2911 27.5819 12.8633 27.1107 13.3655 26.7018L16.8801 32.3251C17.3339 33.0512 18.1278 33.4946 18.9841 33.5C19.8404 33.5055 20.6399 33.0723 21.103 32.352C23.2548 29.0047 25.6589 26.117 27.5349 24.0595C28.0018 23.5474 28.4343 23.0886 28.8198 22.689L32.0795 26.6005C32.5506 27.1659 33.2468 27.4949 33.9827 27.5C34.7186 27.5051 35.4193 27.1858 35.8982 26.6271C38.8148 23.2244 41.7388 20.2978 43.9423 18.2156C43.8847 15.5231 43.7896 13.382 43.6823 11.6942C43.5718 11.7904 43.4495 11.8974 43.3162 12.0148C42.641 12.6096 41.682 13.4729 40.5335 14.5575C38.7276 16.2631 36.4436 18.5253 34.0542 21.1599L30.9206 17.3996C30.4842 16.8759 29.8528 16.5531 29.1727 16.506C28.4926 16.459 27.8228 16.6917 27.3184 17.1502L27.3171 17.1514L27.3153 17.1531L27.3102 17.1577C26.9712 17.468 26.6415 17.7884 26.3145 18.1111C25.7016 18.7158 24.8425 19.5914 23.8402 20.6907C22.4545 22.2104 20.7821 24.1722 19.1041 26.4496L16.12 21.6751C15.7463 21.0771 15.1374 20.6647 14.4433 20.5397C13.7493 20.4147 13.034 20.5891 12.475 21.0191C12.0936 21.3133 11.716 21.6126 11.3394 21.913C10.6312 22.478 9.63102 23.2876 8.457 24.2713C7.14942 25.3668 5.61757 26.6853 4.02832 28.1275C4.06684 30.8132 4.14154 33.014 4.23247 34.8068Z" fill="#1F78F0"></path></g></svg>