<svg viewBox="0 0 24 24" fill="none" xmlns="http://www.w3.org/2000/svg">




<g transform="matrix(0.5,0,0,0.5,0,0)"><path d="M5.21891 45.9686C3.54583 45.9261 2.27856 44.9198 2.14179 43.2518C2.05987 42.2527 2 40.8796 2 39C2 37.1204 2.05987 35.7473 2.14179 34.7482C2.27856 33.0802 3.54583 32.0739 5.21891 32.0314C5.9509 32.0128 6.86612 32 8 32C9.13388 32 10.0491 32.0128 10.7811 32.0314C12.4542 32.0739 13.7214 33.0802 13.8582 34.7482C13.9401 35.7473 14 37.1204 14 39C14 40.8796 13.9401 42.2527 13.8582 43.2518C13.7214 44.9198 12.4542 45.9261 10.7811 45.9686C10.0491 45.9872 9.13388 46 8 46C6.86612 46 5.9509 45.9872 5.21891 45.9686Z" fill="#91BEFF"></path><path d="M37.691 45.9585C35.7418 45.8816 34.375 44.5113 34.2486 42.5646C34.1176 40.5461 34 37.2674 34 32C34 26.7326 34.1176 23.4539 34.2486 21.4354C34.375 19.4887 35.7418 18.1184 37.691 18.0415C38.3342 18.0161 39.0979 18 40 18C40.9021 18 41.6658 18.0161 42.309 18.0415C44.2582 18.1184 45.625 19.4887 45.7514 21.4354C45.8824 23.4539 46 26.7326 46 32C46 37.2674 45.8824 40.5461 45.7514 42.5646C45.625 44.5113 44.2582 45.8816 42.309 45.9585C41.6658 45.9839 40.9021 46 40 46C39.0979 46 38.3342 45.9839 37.691 45.9585Z" fill="#91BEFF"></path><path d="M21.5532 45.9663C19.6854 45.9095 18.324 44.6837 18.1898 42.8199C18.0844 41.355 18 39.1872 18 36C18 32.8128 18.0844 30.645 18.1898 29.1801C18.324 27.3163 19.6854 26.0905 21.5532 26.0337C22.2243 26.0133 23.0326 26 24 26C24.9674 26 25.7757 26.0133 26.4468 26.0337C28.3146 26.0905 29.676 27.3163 29.8102 29.1801C29.9156 30.645 30 32.8128 30 36C30 39.1872 29.9156 41.355 29.8102 42.8199C29.676 44.6837 28.3146 45.9095 26.4468 45.9663C25.7757 45.9867 24.9674 46 24 46C23.0326 46 22.2243 45.9867 21.5532 45.9663Z" fill="#91BEFF"></path><path fill-rule="evenodd" clip-rule="evenodd" d="M34.143 6.12193C33.521 6.13449 32.8636 6.13956 32.2012 6.13182C31.0397 6.11824 29.9822 5.45436 30.0007 4.29298C30.0026 4.17732 30.0083 4.06692 30.0172 3.96182C30.1053 2.92162 31.0637 2.31293 32.1012 2.19806C35.2228 1.8525 37.913 2.02377 39.6017 2.22397C40.7551 2.3607 41.6393 3.2449 41.776 4.39824C41.9762 6.087 42.1475 8.77722 41.8019 11.8987C41.6871 12.9363 41.0784 13.8947 40.0382 13.9828C39.9331 13.9917 39.8227 13.9974 39.707 13.9993C38.5456 14.0178 37.8818 12.9603 37.8682 11.7988C37.859 11.011 37.8679 10.2302 37.886 9.50783C37.832 9.55281 37.775 9.60046 37.7149 9.65077C37.1521 10.1223 36.3246 10.8272 35.2791 11.7497C33.1876 13.5951 30.2262 16.3095 26.7678 19.7679C26.2711 20.2645 25.5884 20.5294 24.8867 20.4975C24.185 20.4657 23.5291 20.1402 23.0794 19.6006C22.8119 19.2805 22.5439 18.9608 22.2752 18.6417C21.7784 18.0517 21.0958 17.245 20.3519 16.3771C19.4509 15.326 18.4892 14.2195 17.6644 13.302C17.1336 13.6917 16.4985 14.1684 15.7849 14.7235C13.5908 16.4299 10.6745 18.8611 7.76777 21.7679C6.79146 22.7442 5.20854 22.7442 4.23223 21.7679C3.25592 20.7915 3.25592 19.2086 4.23223 18.2323C7.32551 15.139 10.4092 12.5703 12.7151 10.7767C13.8702 9.87834 14.8353 9.1705 15.5157 8.68451C15.8758 8.42727 16.2375 8.17194 16.6051 7.92541L16.612 7.92078L16.6132 7.91997C17.6048 7.25893 18.9251 7.38966 19.7678 8.23233C20.8483 9.31287 22.6624 11.3898 24.1481 13.1231C24.5074 13.5422 24.8522 13.9469 25.1692 14.3204C27.8826 11.6769 30.2172 9.54791 31.9709 8.0005C32.8484 7.22626 33.5808 6.59727 34.143 6.12193Z" fill="#1F78F0"></path></g></svg>