<svg viewBox="0 0 24 24" fill="none" xmlns="http://www.w3.org/2000/svg">


<g transform="matrix(0.5,0,0,0.5,0,0)"><path d="M4.56198 8.68502C4.73932 6.96777 5.86521 5.60848 7.55375 5.24901C10.219 4.68162 15.2432 4 24 4C32.7568 4 37.781 4.68162 40.4463 5.24901C42.1348 5.60848 43.2607 6.96778 43.438 8.68502C43.701 11.2312 44 15.9061 44 24C44 32.0939 43.701 36.7688 43.438 39.315C43.2607 41.0322 42.1348 42.3915 40.4462 42.751C37.781 43.3184 32.7568 44 24 44C15.2432 44 10.219 43.3184 7.55375 42.751C5.86521 42.3915 4.73932 41.0322 4.56198 39.315C4.29904 36.7688 4 32.0939 4 24C4 15.9061 4.29904 11.2312 4.56198 8.68502Z" fill="#91BEFF"></path><path fill-rule="evenodd" clip-rule="evenodd" d="M4.23247 13.1933C6.78193 15.7042 9.51622 18.0933 11.6681 19.8962C12.2911 20.4182 12.8633 20.8894 13.3655 21.2982L16.8801 15.675C17.3339 14.9488 18.1278 14.5055 18.9841 14.5C19.8404 14.4946 20.6399 14.9278 21.103 15.6481C23.2548 18.9953 25.6589 21.883 27.5349 23.9406C28.0018 24.4526 28.4343 24.9114 28.8198 25.3111L32.0795 21.3995C32.5506 20.8342 33.2468 20.5052 33.9827 20.5C34.7186 20.4949 35.4193 20.8143 35.8982 21.373C38.8148 24.7757 41.7388 27.7022 43.9423 29.7845C43.8847 32.477 43.7896 34.6181 43.6823 36.3059C43.5718 36.2097 43.4495 36.1027 43.3162 35.9853C42.641 35.3905 41.682 34.5272 40.5335 33.4425C38.7276 31.737 36.4436 29.4747 34.0542 26.8401L30.9206 30.6004C30.4842 31.1242 29.8528 31.4469 29.1727 31.494C28.4926 31.5411 27.8228 31.3084 27.3184 30.8498L27.3171 30.8487L27.3153 30.847L27.3102 30.8423C26.9712 30.5321 26.6415 30.2116 26.3145 29.8889C25.7016 29.2842 24.8425 28.4087 23.8402 27.3094C22.4545 25.7896 20.7821 23.8279 19.1041 21.5505L16.12 26.325C15.7463 26.923 15.1374 27.3353 14.4433 27.4604C13.7493 27.5854 13.034 27.4109 12.475 26.9809C12.0936 26.6868 11.716 26.3875 11.3394 26.0871C10.6312 25.5221 9.63102 24.7124 8.457 23.7288C7.14942 22.6332 5.61757 21.3147 4.02832 19.8726C4.06684 17.1869 4.14154 14.986 4.23247 13.1933Z" fill="#1F78F0"></path></g></svg>