<svg viewBox="0 0 24 24" fill="none" xmlns="http://www.w3.org/2000/svg">


<g transform="matrix(0.5,0,0,0.5,0,0)"><path d="M42 25C42 35.4934 33.4934 44 23 44C12.5066 44 4 35.4934 4 25C4 14.5066 12.5066 6 23 6C33.4934 6 42 14.5066 42 25Z" fill="#91BEFF"></path><path d="M45.8794 24.4912C44.7195 12.6772 35.3228 3.28056 23.5089 2.12059C22.001 1.97254 20.7212 2.9066 20.5105 4.40698C20.2537 6.23619 20 9.34324 20 14.48C20 20.8734 20.393 24.1225 20.6959 25.6771C20.8613 26.5266 21.4734 27.1387 22.323 27.3042C23.8775 27.607 27.1267 28 33.52 28C38.6568 28 41.7638 27.7463 43.593 27.4895C45.0934 27.2789 46.0275 25.999 45.8794 24.4912Z" fill="#1F78F0"></path></g></svg>